%TF.GenerationSoftware,KiCad,Pcbnew,9.0.1*%
%TF.CreationDate,2025-11-25T19:28:09-05:00*%
%TF.ProjectId,USBCAdapter,55534243-4164-4617-9074-65722e6b6963,rev?*%
%TF.SameCoordinates,Original*%
%TF.FileFunction,Copper,L1,Top*%
%TF.FilePolarity,Positive*%
%FSLAX46Y46*%
G04 Gerber Fmt 4.6, Leading zero omitted, Abs format (unit mm)*
G04 Created by KiCad (PCBNEW 9.0.1) date 2025-11-25 19:28:09*
%MOMM*%
%LPD*%
G01*
G04 APERTURE LIST*
G04 Aperture macros list*
%AMRoundRect*
0 Rectangle with rounded corners*
0 $1 Rounding radius*
0 $2 $3 $4 $5 $6 $7 $8 $9 X,Y pos of 4 corners*
0 Add a 4 corners polygon primitive as box body*
4,1,4,$2,$3,$4,$5,$6,$7,$8,$9,$2,$3,0*
0 Add four circle primitives for the rounded corners*
1,1,$1+$1,$2,$3*
1,1,$1+$1,$4,$5*
1,1,$1+$1,$6,$7*
1,1,$1+$1,$8,$9*
0 Add four rect primitives between the rounded corners*
20,1,$1+$1,$2,$3,$4,$5,0*
20,1,$1+$1,$4,$5,$6,$7,0*
20,1,$1+$1,$6,$7,$8,$9,0*
20,1,$1+$1,$8,$9,$2,$3,0*%
G04 Aperture macros list end*
%TA.AperFunction,ComponentPad*%
%ADD10C,4.700000*%
%TD*%
%TA.AperFunction,SMDPad,CuDef*%
%ADD11R,0.600000X1.240000*%
%TD*%
%TA.AperFunction,SMDPad,CuDef*%
%ADD12R,0.300000X1.240000*%
%TD*%
%TA.AperFunction,HeatsinkPad*%
%ADD13O,1.000000X2.100000*%
%TD*%
%TA.AperFunction,HeatsinkPad*%
%ADD14O,1.000000X1.800000*%
%TD*%
%TA.AperFunction,SMDPad,CuDef*%
%ADD15RoundRect,0.135000X-0.185000X0.135000X-0.185000X-0.135000X0.185000X-0.135000X0.185000X0.135000X0*%
%TD*%
%TA.AperFunction,SMDPad,CuDef*%
%ADD16RoundRect,0.150000X-0.150000X-0.625000X0.150000X-0.625000X0.150000X0.625000X-0.150000X0.625000X0*%
%TD*%
%TA.AperFunction,SMDPad,CuDef*%
%ADD17RoundRect,0.250000X-0.350000X-0.650000X0.350000X-0.650000X0.350000X0.650000X-0.350000X0.650000X0*%
%TD*%
%TA.AperFunction,ViaPad*%
%ADD18C,0.500000*%
%TD*%
%TA.AperFunction,Conductor*%
%ADD19C,0.200000*%
%TD*%
%TA.AperFunction,Conductor*%
%ADD20C,0.600000*%
%TD*%
G04 APERTURE END LIST*
D10*
%TO.P,H2,1,1*%
%TO.N,GND*%
X56000000Y-55000000D03*
%TD*%
D11*
%TO.P,J1,A1,GND*%
%TO.N,GND*%
X61906461Y-47639823D03*
%TO.P,J1,A4,VBUS*%
%TO.N,VBUS*%
X61106461Y-47639823D03*
D12*
%TO.P,J1,A5,CC1*%
%TO.N,Net-(J1-CC1)*%
X59956461Y-47639823D03*
%TO.P,J1,A6,D+*%
%TO.N,/D+*%
X58956461Y-47639823D03*
%TO.P,J1,A7,D-*%
%TO.N,/D-*%
X58456461Y-47639823D03*
%TO.P,J1,A8,SBU1*%
%TO.N,unconnected-(J1-SBU1-PadA8)*%
X57456461Y-47639823D03*
D11*
%TO.P,J1,A9,VBUS*%
%TO.N,VBUS*%
X56306461Y-47639823D03*
%TO.P,J1,A12,GND*%
%TO.N,GND*%
X55506461Y-47639823D03*
%TO.P,J1,B1,GND*%
X55506461Y-47639823D03*
%TO.P,J1,B4,VBUS*%
%TO.N,VBUS*%
X56306461Y-47639823D03*
D12*
%TO.P,J1,B5,CC2*%
%TO.N,Net-(J1-CC2)*%
X56956461Y-47639823D03*
%TO.P,J1,B6,D+*%
%TO.N,/D+*%
X57956461Y-47639823D03*
%TO.P,J1,B7,D-*%
%TO.N,/D-*%
X59456461Y-47639823D03*
%TO.P,J1,B8,SBU2*%
%TO.N,unconnected-(J1-SBU2-PadB8)*%
X60456461Y-47639823D03*
D11*
%TO.P,J1,B9,VBUS*%
%TO.N,VBUS*%
X61106461Y-47639823D03*
%TO.P,J1,B12,GND*%
%TO.N,GND*%
X61906461Y-47639823D03*
D13*
%TO.P,J1,S1,SHIELD*%
X63026461Y-47039823D03*
D14*
X63026461Y-42839823D03*
D13*
X54386461Y-47039823D03*
D14*
X54386461Y-42839823D03*
%TD*%
D15*
%TO.P,R1,1*%
%TO.N,Net-(J1-CC1)*%
X60100000Y-49190000D03*
%TO.P,R1,2*%
%TO.N,GND*%
X60100000Y-50210000D03*
%TD*%
%TO.P,R2,1*%
%TO.N,Net-(J1-CC2)*%
X57000000Y-49190000D03*
%TO.P,R2,2*%
%TO.N,GND*%
X57000000Y-50210000D03*
%TD*%
D16*
%TO.P,J4,1,Pin_1*%
%TO.N,/D+*%
X64137002Y-52506186D03*
%TO.P,J4,2,Pin_2*%
%TO.N,/D-*%
X65137002Y-52506186D03*
%TO.P,J4,3,Pin_3*%
%TO.N,VBUS*%
X66137002Y-52506186D03*
%TO.P,J4,4,Pin_4*%
%TO.N,GND*%
X67137002Y-52506186D03*
D17*
%TO.P,J4,MP,MountPin*%
X62837002Y-56381186D03*
X68437002Y-56381186D03*
%TD*%
D10*
%TO.P,H1,1,1*%
%TO.N,GND*%
X67000000Y-43000000D03*
%TD*%
D18*
%TO.N,GND*%
X68500000Y-51000000D03*
X63100000Y-54200000D03*
X69000000Y-53300000D03*
X60900000Y-42600000D03*
X65637002Y-54506186D03*
X66100000Y-48400000D03*
X60200000Y-56700000D03*
X54500000Y-50000000D03*
X59200000Y-42700000D03*
X64800000Y-45700000D03*
X68000000Y-47400000D03*
X56200000Y-42800000D03*
X61900000Y-50500000D03*
X67800000Y-54400000D03*
X65200000Y-56500000D03*
X59500000Y-53400000D03*
%TD*%
D19*
%TO.N,/D-*%
X59100000Y-50150340D02*
X59100000Y-48700000D01*
X65137002Y-51637002D02*
X64900000Y-51400000D01*
X65137002Y-52506186D02*
X65137002Y-51637002D01*
X59456461Y-48343539D02*
X59456461Y-47639823D01*
X58456461Y-48511823D02*
X58644638Y-48700000D01*
X58644638Y-48700000D02*
X59100000Y-48700000D01*
X59100000Y-48700000D02*
X59456461Y-48343539D01*
X60349660Y-51400000D02*
X59100000Y-50150340D01*
X64900000Y-51400000D02*
X60349660Y-51400000D01*
X58456461Y-47639823D02*
X58456461Y-48511823D01*
%TO.N,Net-(J1-CC1)*%
X60100000Y-49190000D02*
X59956461Y-49046461D01*
X59956461Y-49046461D02*
X59956461Y-47639823D01*
D20*
%TO.N,VBUS*%
X64200000Y-49400000D02*
X66137002Y-51337002D01*
X61106461Y-47639823D02*
X61106461Y-48893539D01*
X61600000Y-49400000D02*
X64200000Y-49400000D01*
X61100000Y-48900000D02*
X61600000Y-49400000D01*
X61106461Y-48893539D02*
X61100000Y-48900000D01*
X66137002Y-51337002D02*
X66137002Y-52506186D01*
D19*
%TO.N,Net-(J1-CC2)*%
X57000000Y-49190000D02*
X57000000Y-47683362D01*
X57000000Y-47683362D02*
X56956461Y-47639823D01*
%TO.N,/D+*%
X57956461Y-46767823D02*
X58124284Y-46600000D01*
X57956461Y-47639823D02*
X57956461Y-46767823D01*
X58788638Y-46600000D02*
X58956461Y-46767823D01*
X57956461Y-49573901D02*
X60282560Y-51900000D01*
X60282560Y-51900000D02*
X63530816Y-51900000D01*
X57956461Y-47639823D02*
X57956461Y-49573901D01*
X63530816Y-51900000D02*
X64137002Y-52506186D01*
X58124284Y-46600000D02*
X58788638Y-46600000D01*
X58956461Y-46767823D02*
X58956461Y-47639823D01*
%TD*%
%TA.AperFunction,Conductor*%
%TO.N,VBUS*%
G36*
X61459191Y-44518907D02*
G01*
X61495155Y-44568407D01*
X61500000Y-44599000D01*
X61500000Y-45873902D01*
X61481093Y-45932093D01*
X61431593Y-45968057D01*
X61426624Y-45969528D01*
X61374326Y-45983541D01*
X61374322Y-45983543D01*
X61243100Y-46059304D01*
X61135942Y-46166462D01*
X61060181Y-46297683D01*
X61043607Y-46359540D01*
X61020961Y-46444057D01*
X61020961Y-46595589D01*
X61036031Y-46651830D01*
X61060181Y-46741962D01*
X61135942Y-46873183D01*
X61135944Y-46873185D01*
X61135946Y-46873188D01*
X61243096Y-46980338D01*
X61356461Y-47045790D01*
X61397402Y-47091257D01*
X61405961Y-47131525D01*
X61405961Y-48279569D01*
X61406438Y-48284415D01*
X61405078Y-48284548D01*
X61398582Y-48339409D01*
X61357047Y-48384337D01*
X61307111Y-48396945D01*
X60903691Y-48390558D01*
X60845807Y-48370731D01*
X60810631Y-48320668D01*
X60806993Y-48284435D01*
X60806961Y-48284435D01*
X60806961Y-48284114D01*
X60806735Y-48281863D01*
X60806961Y-48279569D01*
X60806961Y-47000076D01*
X60806959Y-47000064D01*
X60803035Y-46980338D01*
X60795328Y-46941592D01*
X60751013Y-46875271D01*
X60747896Y-46873188D01*
X60684694Y-46830957D01*
X60684692Y-46830956D01*
X60684689Y-46830955D01*
X60684688Y-46830955D01*
X60626219Y-46819324D01*
X60626209Y-46819323D01*
X60286713Y-46819323D01*
X60286709Y-46819323D01*
X60225775Y-46831444D01*
X60187147Y-46831444D01*
X60126212Y-46819323D01*
X60126209Y-46819323D01*
X59786713Y-46819323D01*
X59786709Y-46819323D01*
X59725775Y-46831444D01*
X59687147Y-46831444D01*
X59626212Y-46819323D01*
X59626209Y-46819323D01*
X59355770Y-46819323D01*
X59297579Y-46800416D01*
X59261615Y-46750916D01*
X59257617Y-46733246D01*
X59256961Y-46728268D01*
X59256961Y-46728261D01*
X59253673Y-46715989D01*
X59236483Y-46651835D01*
X59236481Y-46651832D01*
X59236481Y-46651830D01*
X59196924Y-46583316D01*
X59196922Y-46583314D01*
X59196921Y-46583312D01*
X58973149Y-46359540D01*
X58973146Y-46359538D01*
X58904630Y-46319980D01*
X58904626Y-46319978D01*
X58828202Y-46299500D01*
X58828200Y-46299500D01*
X58163846Y-46299500D01*
X58084722Y-46299500D01*
X58037945Y-46312033D01*
X58008291Y-46319979D01*
X57939777Y-46359536D01*
X57939772Y-46359540D01*
X57716000Y-46583312D01*
X57676441Y-46651830D01*
X57676439Y-46651834D01*
X57655961Y-46728259D01*
X57655305Y-46733243D01*
X57628965Y-46788469D01*
X57575195Y-46817665D01*
X57557152Y-46819323D01*
X57286709Y-46819323D01*
X57225775Y-46831444D01*
X57187147Y-46831444D01*
X57126212Y-46819323D01*
X57126209Y-46819323D01*
X56786713Y-46819323D01*
X56786712Y-46819323D01*
X56786702Y-46819324D01*
X56728233Y-46830955D01*
X56728227Y-46830957D01*
X56661912Y-46875268D01*
X56661906Y-46875274D01*
X56617595Y-46941589D01*
X56617593Y-46941595D01*
X56605962Y-47000064D01*
X56605961Y-47000076D01*
X56605961Y-48221931D01*
X56587054Y-48280122D01*
X56537554Y-48316086D01*
X56505394Y-48320919D01*
X56104394Y-48314570D01*
X56046510Y-48294743D01*
X56011334Y-48244680D01*
X56006961Y-48215582D01*
X56006961Y-47131525D01*
X56025868Y-47073334D01*
X56056458Y-47045790D01*
X56169826Y-46980338D01*
X56276976Y-46873188D01*
X56301359Y-46830956D01*
X56352740Y-46741962D01*
X56352740Y-46741960D01*
X56352742Y-46741958D01*
X56391961Y-46595589D01*
X56391961Y-46444057D01*
X56352742Y-46297688D01*
X56352740Y-46297685D01*
X56352740Y-46297683D01*
X56276979Y-46166462D01*
X56276977Y-46166460D01*
X56276976Y-46166458D01*
X56169826Y-46059308D01*
X56169823Y-46059306D01*
X56049499Y-45989836D01*
X56008559Y-45944366D01*
X56000000Y-45904100D01*
X56000000Y-44599000D01*
X56018907Y-44540809D01*
X56068407Y-44504845D01*
X56099000Y-44500000D01*
X61401000Y-44500000D01*
X61459191Y-44518907D01*
G37*
%TD.AperFunction*%
%TD*%
%TA.AperFunction,Conductor*%
%TO.N,GND*%
G36*
X60789501Y-49297315D02*
G01*
X61292686Y-49800500D01*
X61292688Y-49800501D01*
X61292690Y-49800503D01*
X61406810Y-49866390D01*
X61406808Y-49866390D01*
X61406812Y-49866391D01*
X61406814Y-49866392D01*
X61534108Y-49900500D01*
X61665893Y-49900500D01*
X63951678Y-49900500D01*
X64009869Y-49919407D01*
X64021682Y-49929496D01*
X65023686Y-50931500D01*
X65051463Y-50986017D01*
X65041892Y-51046449D01*
X64998627Y-51089714D01*
X64946051Y-51098750D01*
X64946051Y-51099500D01*
X64941687Y-51099500D01*
X64940768Y-51099658D01*
X64939567Y-51099500D01*
X64939562Y-51099500D01*
X60515139Y-51099500D01*
X60456948Y-51080593D01*
X60445135Y-51070504D01*
X59429496Y-50054865D01*
X59401719Y-50000348D01*
X59400500Y-49984861D01*
X59400500Y-49462072D01*
X59419407Y-49403881D01*
X59468907Y-49367917D01*
X59530093Y-49367917D01*
X59579593Y-49403881D01*
X59589224Y-49420233D01*
X59635933Y-49520401D01*
X59635934Y-49520402D01*
X59635935Y-49520404D01*
X59719596Y-49604065D01*
X59719597Y-49604065D01*
X59719598Y-49604066D01*
X59826824Y-49654067D01*
X59826825Y-49654067D01*
X59826827Y-49654068D01*
X59875684Y-49660500D01*
X59875685Y-49660500D01*
X60324314Y-49660500D01*
X60324316Y-49660500D01*
X60373173Y-49654068D01*
X60480404Y-49604065D01*
X60564065Y-49520404D01*
X60614068Y-49413173D01*
X60620500Y-49364316D01*
X60620500Y-49364314D01*
X60620712Y-49361081D01*
X60622489Y-49361197D01*
X60639407Y-49309130D01*
X60688907Y-49273166D01*
X60750093Y-49273166D01*
X60789501Y-49297315D01*
G37*
%TD.AperFunction*%
%TA.AperFunction,Conductor*%
G36*
X67302992Y-40400681D02*
G01*
X67571202Y-40416904D01*
X67583057Y-40418344D01*
X67844418Y-40466240D01*
X67856019Y-40469099D01*
X68109702Y-40548150D01*
X68120865Y-40552383D01*
X68363170Y-40661436D01*
X68373756Y-40666992D01*
X68601142Y-40804452D01*
X68610980Y-40811243D01*
X68820131Y-40975102D01*
X68829080Y-40983029D01*
X69016970Y-41170919D01*
X69024897Y-41179868D01*
X69188756Y-41389019D01*
X69195547Y-41398857D01*
X69333007Y-41626243D01*
X69338563Y-41636829D01*
X69447613Y-41879127D01*
X69451852Y-41890305D01*
X69530899Y-42143977D01*
X69533760Y-42155585D01*
X69581654Y-42416935D01*
X69583095Y-42428802D01*
X69599319Y-42697006D01*
X69599500Y-42702984D01*
X69599500Y-57500500D01*
X69580593Y-57558691D01*
X69531093Y-57594655D01*
X69500500Y-57599500D01*
X55702985Y-57599500D01*
X55697008Y-57599319D01*
X55674689Y-57597969D01*
X55428802Y-57583095D01*
X55416935Y-57581654D01*
X55155585Y-57533760D01*
X55143977Y-57530899D01*
X54890305Y-57451852D01*
X54879127Y-57447613D01*
X54636829Y-57338563D01*
X54626243Y-57333007D01*
X54398857Y-57195547D01*
X54389019Y-57188756D01*
X54179868Y-57024897D01*
X54170919Y-57016970D01*
X53983029Y-56829080D01*
X53975102Y-56820131D01*
X53811243Y-56610980D01*
X53804452Y-56601142D01*
X53666992Y-56373756D01*
X53661436Y-56363170D01*
X53552386Y-56120872D01*
X53548150Y-56109702D01*
X53469099Y-55856019D01*
X53466239Y-55844414D01*
X53418345Y-55583064D01*
X53416904Y-55571196D01*
X53400681Y-55302992D01*
X53400500Y-55297015D01*
X53400500Y-46444057D01*
X55240961Y-46444057D01*
X55240961Y-46595589D01*
X55275547Y-46724670D01*
X55280181Y-46741962D01*
X55355942Y-46873183D01*
X55355944Y-46873185D01*
X55355946Y-46873188D01*
X55463096Y-46980338D01*
X55463098Y-46980339D01*
X55463100Y-46980341D01*
X55594322Y-47056102D01*
X55594320Y-47056102D01*
X55594324Y-47056103D01*
X55594326Y-47056104D01*
X55728086Y-47091944D01*
X55779398Y-47125267D01*
X55801325Y-47182388D01*
X55801461Y-47187570D01*
X55801461Y-48215578D01*
X55803743Y-48246126D01*
X55804862Y-48253569D01*
X55805961Y-48268281D01*
X55805961Y-48279569D01*
X55805962Y-48279581D01*
X55817593Y-48338050D01*
X55817595Y-48338056D01*
X55861909Y-48404376D01*
X55871624Y-48410867D01*
X55892198Y-48429235D01*
X55902161Y-48441009D01*
X55979918Y-48489154D01*
X56037802Y-48508981D01*
X56037804Y-48508981D01*
X56037806Y-48508982D01*
X56101128Y-48520042D01*
X56101130Y-48520042D01*
X56101141Y-48520044D01*
X56502141Y-48526393D01*
X56535934Y-48524137D01*
X56555366Y-48521216D01*
X56568082Y-48519306D01*
X56580101Y-48517312D01*
X56580373Y-48518951D01*
X56601888Y-48519597D01*
X56631093Y-48519597D01*
X56632350Y-48520510D01*
X56633901Y-48520557D01*
X56656969Y-48538397D01*
X56680593Y-48555561D01*
X56681072Y-48557038D01*
X56682301Y-48557988D01*
X56699500Y-48613752D01*
X56699500Y-48675604D01*
X56680593Y-48733795D01*
X56642341Y-48765328D01*
X56619598Y-48775933D01*
X56535933Y-48859598D01*
X56485932Y-48966824D01*
X56485932Y-48966825D01*
X56479500Y-49015685D01*
X56479500Y-49364314D01*
X56485932Y-49413174D01*
X56485932Y-49413175D01*
X56535933Y-49520401D01*
X56535934Y-49520402D01*
X56535935Y-49520404D01*
X56619596Y-49604065D01*
X56619597Y-49604065D01*
X56619598Y-49604066D01*
X56726824Y-49654067D01*
X56726825Y-49654067D01*
X56726827Y-49654068D01*
X56775684Y-49660500D01*
X56775685Y-49660500D01*
X57224314Y-49660500D01*
X57224316Y-49660500D01*
X57273173Y-49654068D01*
X57380404Y-49604065D01*
X57464065Y-49520404D01*
X57467236Y-49513604D01*
X57508963Y-49468855D01*
X57569024Y-49457179D01*
X57624477Y-49483036D01*
X57654142Y-49536549D01*
X57655961Y-49555441D01*
X57655961Y-49613465D01*
X57676439Y-49689887D01*
X57676440Y-49689890D01*
X57686500Y-49707314D01*
X57716001Y-49758412D01*
X60098049Y-52140460D01*
X60098051Y-52140461D01*
X60098053Y-52140463D01*
X60166568Y-52180020D01*
X60166566Y-52180020D01*
X60166570Y-52180021D01*
X60166572Y-52180022D01*
X60242998Y-52200500D01*
X63365337Y-52200500D01*
X63423528Y-52219407D01*
X63435341Y-52229496D01*
X63607506Y-52401661D01*
X63635283Y-52456178D01*
X63636502Y-52471665D01*
X63636502Y-53164446D01*
X63637002Y-53167877D01*
X63646429Y-53232581D01*
X63688723Y-53319093D01*
X63697804Y-53337669D01*
X63780519Y-53420384D01*
X63834287Y-53446669D01*
X63885606Y-53471758D01*
X63885607Y-53471758D01*
X63885609Y-53471759D01*
X63953742Y-53481686D01*
X63953745Y-53481686D01*
X64320259Y-53481686D01*
X64320262Y-53481686D01*
X64388395Y-53471759D01*
X64493485Y-53420384D01*
X64567000Y-53346868D01*
X64621515Y-53319093D01*
X64681947Y-53328664D01*
X64707002Y-53346867D01*
X64780519Y-53420384D01*
X64834287Y-53446669D01*
X64885606Y-53471758D01*
X64885607Y-53471758D01*
X64885609Y-53471759D01*
X64953742Y-53481686D01*
X64953745Y-53481686D01*
X65320259Y-53481686D01*
X65320262Y-53481686D01*
X65388395Y-53471759D01*
X65493485Y-53420384D01*
X65567000Y-53346868D01*
X65621515Y-53319093D01*
X65681947Y-53328664D01*
X65707002Y-53346867D01*
X65780519Y-53420384D01*
X65834287Y-53446669D01*
X65885606Y-53471758D01*
X65885607Y-53471758D01*
X65885609Y-53471759D01*
X65953742Y-53481686D01*
X65953745Y-53481686D01*
X66320259Y-53481686D01*
X66320262Y-53481686D01*
X66388395Y-53471759D01*
X66493485Y-53420384D01*
X66576200Y-53337669D01*
X66627575Y-53232579D01*
X66637502Y-53164446D01*
X66637502Y-51847926D01*
X66637502Y-51271110D01*
X66603394Y-51143816D01*
X66603392Y-51143813D01*
X66603392Y-51143811D01*
X66537505Y-51029692D01*
X66537501Y-51029687D01*
X66444316Y-50936501D01*
X66444316Y-50936502D01*
X64507314Y-48999500D01*
X64507311Y-48999498D01*
X64507310Y-48999497D01*
X64507309Y-48999496D01*
X64393189Y-48933609D01*
X64393191Y-48933609D01*
X64343799Y-48920375D01*
X64265892Y-48899500D01*
X64265890Y-48899500D01*
X61848322Y-48899500D01*
X61790131Y-48880593D01*
X61778318Y-48870504D01*
X61635957Y-48728143D01*
X61608180Y-48673626D01*
X61606961Y-48658139D01*
X61606961Y-48333055D01*
X61607647Y-48321422D01*
X61607692Y-48321038D01*
X61608718Y-48312368D01*
X61611461Y-48306420D01*
X61611461Y-48295050D01*
X61612148Y-48283408D01*
X61612198Y-48282982D01*
X61611537Y-48281188D01*
X61611461Y-48277322D01*
X61611461Y-47187570D01*
X61630368Y-47129379D01*
X61679868Y-47093415D01*
X61684804Y-47091952D01*
X61818596Y-47056104D01*
X61818598Y-47056102D01*
X61818600Y-47056102D01*
X61949821Y-46980341D01*
X61949821Y-46980340D01*
X61949826Y-46980338D01*
X62056976Y-46873188D01*
X62132742Y-46741958D01*
X62171961Y-46595589D01*
X62171961Y-46444057D01*
X62132742Y-46297688D01*
X62132740Y-46297685D01*
X62132740Y-46297683D01*
X62056979Y-46166462D01*
X62056977Y-46166460D01*
X62056976Y-46166458D01*
X61949826Y-46059308D01*
X61949823Y-46059306D01*
X61949821Y-46059304D01*
X61818599Y-45983543D01*
X61818597Y-45983542D01*
X61778875Y-45972898D01*
X61727562Y-45939573D01*
X61705636Y-45882452D01*
X61705500Y-45877272D01*
X61705500Y-44599006D01*
X61705500Y-44599000D01*
X61702970Y-44566856D01*
X61698125Y-44536263D01*
X61698116Y-44536206D01*
X61697353Y-44531714D01*
X61697352Y-44531713D01*
X61661408Y-44447617D01*
X61625444Y-44398117D01*
X61601203Y-44370372D01*
X61522693Y-44323464D01*
X61522691Y-44323463D01*
X61522689Y-44323462D01*
X61464499Y-44304556D01*
X61464500Y-44304556D01*
X61401003Y-44294500D01*
X61401000Y-44294500D01*
X56099000Y-44294500D01*
X56066856Y-44297030D01*
X56036206Y-44301883D01*
X56031718Y-44302646D01*
X56031713Y-44302647D01*
X55947617Y-44338591D01*
X55898118Y-44374555D01*
X55870372Y-44398797D01*
X55823464Y-44477307D01*
X55823462Y-44477310D01*
X55804556Y-44535499D01*
X55794500Y-44598996D01*
X55794500Y-45853940D01*
X55775593Y-45912131D01*
X55726093Y-45948095D01*
X55721123Y-45949567D01*
X55594321Y-45983543D01*
X55463100Y-46059304D01*
X55355942Y-46166462D01*
X55280181Y-46297683D01*
X55280180Y-46297688D01*
X55240961Y-46444057D01*
X53400500Y-46444057D01*
X53400500Y-40499500D01*
X53419407Y-40441309D01*
X53468907Y-40405345D01*
X53499500Y-40400500D01*
X55647273Y-40400500D01*
X67242417Y-40400500D01*
X67297015Y-40400500D01*
X67302992Y-40400681D01*
G37*
%TD.AperFunction*%
%TD*%
M02*
