M48
; DRILL file {KiCad 9.0.1} date 2025-11-25T19:28:09-0500
; FORMAT={-:-/ absolute / inch / decimal}
; #@! TF.CreationDate,2025-11-25T19:28:09-05:00
; #@! TF.GenerationSoftware,Kicad,Pcbnew,9.0.1
; #@! TF.FileFunction,Plated,1,2,PTH
FMAT,2
INCH
; #@! TA.AperFunction,Plated,PTH,ViaDrill
T1C0.0118
; #@! TA.AperFunction,Plated,PTH,ComponentDrill
T2C0.0236
; #@! TA.AperFunction,Plated,PTH,ComponentDrill
T3C0.1063
%
G90
G05
T1
X2.1457Y-1.9685
X2.2126Y-1.685
X2.3307Y-1.6811
X2.3425Y-2.1024
X2.3701Y-2.2323
X2.3976Y-1.6772
X2.437Y-1.9882
X2.4843Y-2.1339
X2.5512Y-1.7992
X2.5669Y-2.2244
X2.5841Y-2.1459
X2.6024Y-1.9055
X2.6693Y-2.1417
X2.6772Y-1.8661
X2.6969Y-2.0079
X2.7165Y-2.0984
T3
X2.2047Y-2.1654
X2.6378Y-1.6929
T2
G00X2.1412Y-1.7024
M15
G01X2.1412Y-1.6709
M16
G05
G00X2.1412Y-1.8736
M15
G01X2.1412Y-1.8303
M16
G05
G00X2.4814Y-1.7024
M15
G01X2.4814Y-1.6709
M16
G05
G00X2.4814Y-1.8736
M15
G01X2.4814Y-1.8303
M16
G05
M30
