%TF.GenerationSoftware,KiCad,Pcbnew,9.0.1*%
%TF.CreationDate,2025-11-25T18:55:05-05:00*%
%TF.ProjectId,OshEasyMini,4f736845-6173-4794-9d69-6e692e6b6963,rev?*%
%TF.SameCoordinates,Original*%
%TF.FileFunction,Soldermask,Top*%
%TF.FilePolarity,Negative*%
%FSLAX46Y46*%
G04 Gerber Fmt 4.6, Leading zero omitted, Abs format (unit mm)*
G04 Created by KiCad (PCBNEW 9.0.1) date 2025-11-25 18:55:05*
%MOMM*%
%LPD*%
G01*
G04 APERTURE LIST*
G04 Aperture macros list*
%AMRoundRect*
0 Rectangle with rounded corners*
0 $1 Rounding radius*
0 $2 $3 $4 $5 $6 $7 $8 $9 X,Y pos of 4 corners*
0 Add a 4 corners polygon primitive as box body*
4,1,4,$2,$3,$4,$5,$6,$7,$8,$9,$2,$3,0*
0 Add four circle primitives for the rounded corners*
1,1,$1+$1,$2,$3*
1,1,$1+$1,$4,$5*
1,1,$1+$1,$6,$7*
1,1,$1+$1,$8,$9*
0 Add four rect primitives between the rounded corners*
20,1,$1+$1,$2,$3,$4,$5,0*
20,1,$1+$1,$4,$5,$6,$7,0*
20,1,$1+$1,$6,$7,$8,$9,0*
20,1,$1+$1,$8,$9,$2,$3,0*%
%AMFreePoly0*
4,1,6,1.000000,0.000000,0.500000,-0.750000,-0.500000,-0.750000,-0.500000,0.750000,0.500000,0.750000,1.000000,0.000000,1.000000,0.000000,$1*%
%AMFreePoly1*
4,1,6,0.500000,-0.750000,-0.650000,-0.750000,-0.150000,0.000000,-0.650000,0.750000,0.500000,0.750000,0.500000,-0.750000,0.500000,-0.750000,$1*%
G04 Aperture macros list end*
%ADD10RoundRect,0.075000X0.662500X0.075000X-0.662500X0.075000X-0.662500X-0.075000X0.662500X-0.075000X0*%
%ADD11RoundRect,0.075000X0.075000X0.662500X-0.075000X0.662500X-0.075000X-0.662500X0.075000X-0.662500X0*%
%ADD12RoundRect,0.140000X-0.170000X0.140000X-0.170000X-0.140000X0.170000X-0.140000X0.170000X0.140000X0*%
%ADD13RoundRect,0.150000X-0.625000X0.150000X-0.625000X-0.150000X0.625000X-0.150000X0.625000X0.150000X0*%
%ADD14RoundRect,0.250000X-0.650000X0.350000X-0.650000X-0.350000X0.650000X-0.350000X0.650000X0.350000X0*%
%ADD15RoundRect,0.100000X0.100000X-0.225000X0.100000X0.225000X-0.100000X0.225000X-0.100000X-0.225000X0*%
%ADD16RoundRect,0.100000X-0.130000X-0.100000X0.130000X-0.100000X0.130000X0.100000X-0.130000X0.100000X0*%
%ADD17RoundRect,0.250000X0.325000X0.250000X-0.325000X0.250000X-0.325000X-0.250000X0.325000X-0.250000X0*%
%ADD18RoundRect,0.249999X-0.850001X-0.850001X0.850001X-0.850001X0.850001X0.850001X-0.850001X0.850001X0*%
%ADD19C,2.200000*%
%ADD20R,0.650000X0.850000*%
%ADD21RoundRect,0.062500X0.062500X0.212500X-0.062500X0.212500X-0.062500X-0.212500X0.062500X-0.212500X0*%
%ADD22R,0.800000X0.600000*%
%ADD23RoundRect,0.140000X0.170000X-0.140000X0.170000X0.140000X-0.170000X0.140000X-0.170000X-0.140000X0*%
%ADD24FreePoly0,270.000000*%
%ADD25FreePoly1,270.000000*%
%ADD26RoundRect,0.112500X-0.112500X-0.237500X0.112500X-0.237500X0.112500X0.237500X-0.112500X0.237500X0*%
%ADD27RoundRect,0.062500X-0.300000X-0.062500X0.300000X-0.062500X0.300000X0.062500X-0.300000X0.062500X0*%
%ADD28R,0.900000X1.600000*%
%ADD29RoundRect,0.100000X0.100000X-0.130000X0.100000X0.130000X-0.100000X0.130000X-0.100000X-0.130000X0*%
%ADD30RoundRect,0.102000X-2.250000X0.675000X-2.250000X-0.675000X2.250000X-0.675000X2.250000X0.675000X0*%
%ADD31RoundRect,0.150000X0.150000X-0.587500X0.150000X0.587500X-0.150000X0.587500X-0.150000X-0.587500X0*%
%ADD32RoundRect,0.100000X0.130000X0.100000X-0.130000X0.100000X-0.130000X-0.100000X0.130000X-0.100000X0*%
%ADD33RoundRect,0.147500X0.172500X-0.147500X0.172500X0.147500X-0.172500X0.147500X-0.172500X-0.147500X0*%
%ADD34RoundRect,0.100000X-0.100000X0.130000X-0.100000X-0.130000X0.100000X-0.130000X0.100000X0.130000X0*%
%ADD35RoundRect,0.140000X-0.140000X-0.170000X0.140000X-0.170000X0.140000X0.170000X-0.140000X0.170000X0*%
%ADD36RoundRect,0.250000X-0.650000X0.325000X-0.650000X-0.325000X0.650000X-0.325000X0.650000X0.325000X0*%
%ADD37RoundRect,0.250000X0.350000X0.625000X-0.350000X0.625000X-0.350000X-0.625000X0.350000X-0.625000X0*%
%ADD38O,1.200000X1.750000*%
%ADD39R,0.850000X0.650000*%
%ADD40C,4.700000*%
%ADD41RoundRect,0.140000X0.140000X0.170000X-0.140000X0.170000X-0.140000X-0.170000X0.140000X-0.170000X0*%
%ADD42RoundRect,0.150000X0.150000X-0.512500X0.150000X0.512500X-0.150000X0.512500X-0.150000X-0.512500X0*%
G04 APERTURE END LIST*
%TO.C,JP2*%
G36*
X98658463Y-34352249D02*
G01*
X97158463Y-34352249D01*
X97158463Y-36802249D01*
X98658463Y-36802249D01*
X98658463Y-34352249D01*
G37*
%TO.C,JP1*%
G36*
X99732135Y-49561405D02*
G01*
X98232135Y-49561405D01*
X98232135Y-52011405D01*
X99732135Y-52011405D01*
X99732135Y-49561405D01*
G37*
%TD*%
D10*
%TO.C,U9*%
X100092500Y-46600000D03*
X100092500Y-46100000D03*
X100092500Y-45600000D03*
X100092500Y-45099999D03*
X100092500Y-44600000D03*
X100092500Y-44100000D03*
X100092500Y-43600000D03*
X100092500Y-43100000D03*
X100092500Y-42600001D03*
X100092500Y-42100000D03*
X100092500Y-41600000D03*
X100092500Y-41100000D03*
D11*
X98680000Y-39687500D03*
X98180000Y-39687500D03*
X97680000Y-39687500D03*
X97179999Y-39687500D03*
X96680000Y-39687500D03*
X96180000Y-39687500D03*
X95680000Y-39687500D03*
X95180000Y-39687500D03*
X94680001Y-39687500D03*
X94180000Y-39687500D03*
X93680000Y-39687500D03*
X93180000Y-39687500D03*
D10*
X91767500Y-41100000D03*
X91767500Y-41600000D03*
X91767500Y-42100000D03*
X91767500Y-42600001D03*
X91767500Y-43100000D03*
X91767500Y-43600000D03*
X91767500Y-44100000D03*
X91767500Y-44600000D03*
X91767500Y-45099999D03*
X91767500Y-45600000D03*
X91767500Y-46100000D03*
X91767500Y-46600000D03*
D11*
X93180000Y-48012500D03*
X93680000Y-48012500D03*
X94180000Y-48012500D03*
X94680001Y-48012500D03*
X95180000Y-48012500D03*
X95680000Y-48012500D03*
X96180000Y-48012500D03*
X96680000Y-48012500D03*
X97179999Y-48012500D03*
X97680000Y-48012500D03*
X98180000Y-48012500D03*
X98680000Y-48012500D03*
%TD*%
D12*
%TO.C,C44*%
X103606013Y-50646666D03*
X103606013Y-51606666D03*
%TD*%
D13*
%TO.C,J10*%
X103348457Y-41494765D03*
X103348457Y-42494765D03*
X103348457Y-43494765D03*
X103348457Y-44494765D03*
D14*
X105873457Y-40194765D03*
X105873457Y-45794765D03*
%TD*%
D15*
%TO.C,U21*%
X101034444Y-54504248D03*
X101684444Y-54504248D03*
X102334444Y-54504248D03*
X102334444Y-52604248D03*
X101034444Y-52604248D03*
%TD*%
D16*
%TO.C,R50*%
X93307843Y-50747973D03*
X93947843Y-50747973D03*
%TD*%
D17*
%TO.C,X2*%
X94080000Y-36412500D03*
X92330000Y-36412500D03*
X92330000Y-37812500D03*
X94080000Y-37812500D03*
%TD*%
D18*
%TO.C,J4*%
X91620000Y-61850000D03*
D19*
X94160000Y-61850000D03*
X96700000Y-61850000D03*
%TD*%
D20*
%TO.C,D4*%
X105790000Y-51090000D03*
X106640000Y-51090000D03*
X105790000Y-52540000D03*
X106640000Y-52540000D03*
%TD*%
D21*
%TO.C,U7*%
X97167500Y-52975000D03*
X97167500Y-51425000D03*
X96667500Y-51425000D03*
X96667500Y-52975000D03*
D22*
X96917500Y-52200000D03*
%TD*%
D23*
%TO.C,C24*%
X95777864Y-55654204D03*
X95777864Y-54694204D03*
%TD*%
D24*
%TO.C,JP2*%
X97908463Y-34852249D03*
D25*
X97908463Y-36302249D03*
%TD*%
D26*
%TO.C,D2*%
X101116209Y-51238431D03*
X102416209Y-51238431D03*
X101766209Y-49238431D03*
%TD*%
D27*
%TO.C,U12*%
X91365000Y-56240000D03*
X91365000Y-56740000D03*
X91365000Y-57240000D03*
X91365000Y-57740000D03*
X93390000Y-57740000D03*
X93390000Y-57240000D03*
X93390000Y-56740000D03*
X93390000Y-56240000D03*
D28*
X92377500Y-56990000D03*
%TD*%
D29*
%TO.C,R40*%
X95901699Y-57119488D03*
X95901699Y-56479488D03*
%TD*%
D23*
%TO.C,C18*%
X101583341Y-47008627D03*
X101583341Y-46048627D03*
%TD*%
D29*
%TO.C,R49*%
X105993881Y-64715654D03*
X105993881Y-64075654D03*
%TD*%
D30*
%TO.C,U11*%
X103170000Y-38145000D03*
X103170000Y-30995000D03*
%TD*%
D31*
%TO.C,Q2*%
X91150000Y-54710000D03*
X93050000Y-54710000D03*
X92100000Y-52835000D03*
%TD*%
D29*
%TO.C,R42*%
X94925228Y-55685326D03*
X94925228Y-55045326D03*
%TD*%
D32*
%TO.C,R51*%
X93940000Y-51460000D03*
X93300000Y-51460000D03*
%TD*%
D12*
%TO.C,C5*%
X90968739Y-36940400D03*
X90968739Y-37900400D03*
%TD*%
D33*
%TO.C,FB1*%
X101567084Y-45168850D03*
X101567084Y-44198850D03*
%TD*%
D34*
%TO.C,R2*%
X96064052Y-32792843D03*
X96064052Y-33432843D03*
%TD*%
D35*
%TO.C,C46*%
X96314229Y-38209598D03*
X97274229Y-38209598D03*
%TD*%
D23*
%TO.C,C6*%
X95460000Y-36640000D03*
X95460000Y-35680000D03*
%TD*%
D29*
%TO.C,R53*%
X106000000Y-63265000D03*
X106000000Y-62625000D03*
%TD*%
D20*
%TO.C,D5*%
X91550000Y-50150000D03*
X90700000Y-50150000D03*
X91550000Y-48700000D03*
X90700000Y-48700000D03*
%TD*%
D36*
%TO.C,C23*%
X100834290Y-56081725D03*
X100834290Y-59031727D03*
%TD*%
D37*
%TO.C,J6*%
X103180000Y-63250000D03*
D38*
X101180000Y-63250000D03*
%TD*%
D39*
%TO.C,D3*%
X96996470Y-31767058D03*
X96996470Y-30917058D03*
X98446470Y-31767058D03*
X98446470Y-30917058D03*
%TD*%
D16*
%TO.C,R43*%
X94501862Y-56446928D03*
X95141862Y-56446928D03*
%TD*%
%TO.C,R41*%
X95420315Y-57874684D03*
X96060315Y-57874684D03*
%TD*%
D24*
%TO.C,JP1*%
X98982135Y-50061405D03*
D25*
X98982135Y-51511405D03*
%TD*%
D34*
%TO.C,C22*%
X99855510Y-54056111D03*
X99855510Y-54696111D03*
%TD*%
D40*
%TO.C,H2*%
X92600000Y-32600000D03*
%TD*%
D41*
%TO.C,C16*%
X96101330Y-49520756D03*
X95141330Y-49520756D03*
%TD*%
D12*
%TO.C,C17*%
X101550000Y-42370000D03*
X101550000Y-43330000D03*
%TD*%
D34*
%TO.C,R55*%
X102460000Y-47510000D03*
X102460000Y-48150000D03*
%TD*%
D23*
%TO.C,C45*%
X96987973Y-50429455D03*
X96987973Y-49469455D03*
%TD*%
D42*
%TO.C,U18*%
X97013197Y-57272898D03*
X97963197Y-57272898D03*
X98913197Y-57272898D03*
X98913197Y-54997898D03*
X97013197Y-54997898D03*
%TD*%
D34*
%TO.C,R3*%
X96768627Y-32784923D03*
X96768627Y-33424923D03*
%TD*%
D35*
%TO.C,C19*%
X90640000Y-47490000D03*
X91600000Y-47490000D03*
%TD*%
D40*
%TO.C,H1*%
X104600000Y-57350000D03*
%TD*%
M02*
