%TF.GenerationSoftware,KiCad,Pcbnew,9.0.7*%
%TF.CreationDate,2026-02-19T22:00:42-05:00*%
%TF.ProjectId,OshEasyMini,4f736845-6173-4794-9d69-6e692e6b6963,rev?*%
%TF.SameCoordinates,Original*%
%TF.FileFunction,Copper,L2,Inr*%
%TF.FilePolarity,Positive*%
%FSLAX46Y46*%
G04 Gerber Fmt 4.6, Leading zero omitted, Abs format (unit mm)*
G04 Created by KiCad (PCBNEW 9.0.7) date 2026-02-19 22:00:42*
%MOMM*%
%LPD*%
G01*
G04 APERTURE LIST*
G04 Aperture macros list*
%AMRoundRect*
0 Rectangle with rounded corners*
0 $1 Rounding radius*
0 $2 $3 $4 $5 $6 $7 $8 $9 X,Y pos of 4 corners*
0 Add a 4 corners polygon primitive as box body*
4,1,4,$2,$3,$4,$5,$6,$7,$8,$9,$2,$3,0*
0 Add four circle primitives for the rounded corners*
1,1,$1+$1,$2,$3*
1,1,$1+$1,$4,$5*
1,1,$1+$1,$6,$7*
1,1,$1+$1,$8,$9*
0 Add four rect primitives between the rounded corners*
20,1,$1+$1,$2,$3,$4,$5,0*
20,1,$1+$1,$4,$5,$6,$7,0*
20,1,$1+$1,$6,$7,$8,$9,0*
20,1,$1+$1,$8,$9,$2,$3,0*%
G04 Aperture macros list end*
%TA.AperFunction,ComponentPad*%
%ADD10RoundRect,0.249999X-0.850001X-0.850001X0.850001X-0.850001X0.850001X0.850001X-0.850001X0.850001X0*%
%TD*%
%TA.AperFunction,ComponentPad*%
%ADD11C,2.200000*%
%TD*%
%TA.AperFunction,ComponentPad*%
%ADD12RoundRect,0.250000X0.350000X0.625000X-0.350000X0.625000X-0.350000X-0.625000X0.350000X-0.625000X0*%
%TD*%
%TA.AperFunction,ComponentPad*%
%ADD13O,1.200000X1.750000*%
%TD*%
%TA.AperFunction,ComponentPad*%
%ADD14C,4.700000*%
%TD*%
%TA.AperFunction,ViaPad*%
%ADD15C,0.400000*%
%TD*%
%TA.AperFunction,Conductor*%
%ADD16C,0.160000*%
%TD*%
G04 APERTURE END LIST*
D10*
%TO.N,/FET_B*%
%TO.C,J4*%
X91620000Y-61850000D03*
D11*
%TO.N,/FET_A*%
X94160000Y-61850000D03*
%TO.N,V_LIPO*%
X96700000Y-61850000D03*
%TD*%
D12*
%TO.N,V_CHARGE*%
%TO.C,J6*%
X103180000Y-63250000D03*
D13*
%TO.N,GND*%
X101180000Y-63250000D03*
%TD*%
D14*
%TO.N,unconnected-(H2-Pad1)*%
%TO.C,H2*%
X92600000Y-32600000D03*
%TD*%
%TO.N,unconnected-(H1-Pad1)*%
%TO.C,H1*%
X104600000Y-57350000D03*
%TD*%
D15*
%TO.N,GND*%
X104600000Y-50200000D03*
X90610352Y-48518702D03*
X100326594Y-56745379D03*
X106100000Y-47600000D03*
X102438025Y-46363215D03*
X101225000Y-42700000D03*
X92400000Y-54050000D03*
X97960000Y-64690000D03*
X103100000Y-61000000D03*
X90575000Y-56425000D03*
X104330476Y-38454400D03*
X106700000Y-50250000D03*
X96370000Y-52480000D03*
X91304541Y-53150003D03*
X95661513Y-46940187D03*
X96002985Y-55366247D03*
X92910000Y-63700000D03*
X90400000Y-44900000D03*
X91850000Y-54000000D03*
X97794486Y-30771352D03*
X92150000Y-57425000D03*
X95187660Y-57017523D03*
X100966249Y-38462500D03*
X91088777Y-39514107D03*
X97740611Y-60140829D03*
X100000000Y-40200000D03*
X92804541Y-50100000D03*
X96132299Y-60277290D03*
X94060574Y-38053181D03*
X95300000Y-63900000D03*
X103600000Y-50600000D03*
X96180000Y-50350000D03*
X93010000Y-42120000D03*
X96043070Y-44590231D03*
X94000000Y-35200000D03*
X98100000Y-58200000D03*
X93675000Y-43575000D03*
X97643630Y-56131971D03*
X94910000Y-54120000D03*
X90600000Y-41400000D03*
X94450000Y-56300000D03*
X100714507Y-55961513D03*
X94863261Y-52227954D03*
X92800000Y-51100000D03*
X98600000Y-31600000D03*
X94304541Y-50100000D03*
X94737297Y-53340027D03*
X106500000Y-37900000D03*
X90640000Y-47490000D03*
X106600000Y-59600000D03*
X91000000Y-35200000D03*
X99050000Y-62720000D03*
X101041826Y-37772156D03*
X95255169Y-50967719D03*
X106302829Y-43000000D03*
X99900000Y-49200000D03*
%TO.N,+3V3*%
X96018749Y-41962500D03*
X92900000Y-41500000D03*
X97800000Y-55500000D03*
X106470391Y-36483131D03*
X97400000Y-54750000D03*
X97430000Y-42340000D03*
X97900000Y-54900000D03*
X92120000Y-47740000D03*
X101000000Y-48450000D03*
X103112500Y-45600000D03*
X96414376Y-35765076D03*
X97446249Y-32622500D03*
X102200000Y-41800000D03*
X106600000Y-39100000D03*
X106500000Y-46800000D03*
X100000000Y-52400000D03*
X91728777Y-39514107D03*
X97228341Y-55395349D03*
X96360000Y-46250000D03*
X104300000Y-54400000D03*
X92804541Y-49100000D03*
X91304541Y-52600000D03*
%TO.N,/NRST*%
X94814559Y-50305877D03*
X103431000Y-47950000D03*
X90847399Y-40323378D03*
%TO.N,/RADIO_MARC_ISR*%
X98600000Y-42800000D03*
X91349997Y-40100000D03*
%TO.N,/RADIO_INT*%
X91900000Y-40100000D03*
X98142371Y-43105086D03*
%TO.N,/CS_RADIO*%
X93200000Y-35700000D03*
X101725675Y-40464347D03*
%TO.N,Net-(J3-In)*%
X105856124Y-31919948D03*
X105941802Y-33273649D03*
X106600000Y-34600000D03*
X106600000Y-32000000D03*
X105907531Y-34678756D03*
X106600000Y-33200000D03*
%TO.N,/CS_BARO*%
X97087500Y-45362500D03*
X106300000Y-44000000D03*
%TO.N,VBUS*%
X101580000Y-57630000D03*
X105160000Y-47250000D03*
%TO.N,V_LIPO*%
X100628594Y-59228025D03*
X97089994Y-56826929D03*
X101146466Y-59296567D03*
X101159159Y-58682229D03*
X97042505Y-57362147D03*
X98886855Y-57732299D03*
X104200000Y-60400000D03*
X97113586Y-57869864D03*
X104200000Y-61400000D03*
X98827504Y-57034923D03*
%TO.N,/MGSW_IN*%
X104758812Y-61948127D03*
X103606013Y-51606666D03*
X106600000Y-62600000D03*
%TO.N,/HALL_OUT*%
X103450000Y-53250000D03*
X98745969Y-53591937D03*
%TO.N,Net-(JP1-A)*%
X98230000Y-50090000D03*
X91200000Y-54110000D03*
%TO.N,Net-(D4-A2)*%
X100200000Y-57900000D03*
X106700000Y-51100000D03*
X99200000Y-61150000D03*
%TO.N,Net-(D4-A1)*%
X106640000Y-52540000D03*
X101800000Y-61100000D03*
%TO.N,Net-(D4-K1)*%
X98090000Y-63140000D03*
X106600000Y-54300000D03*
%TO.N,/SWDIO*%
X103000000Y-49100000D03*
%TO.N,/SWCLK*%
X97680096Y-50100376D03*
X103950000Y-48300000D03*
%TO.N,Net-(Q1-G)*%
X104400000Y-62600000D03*
%TO.N,Net-(Q2-D)*%
X92400000Y-52600000D03*
X106620000Y-61950000D03*
%TO.N,/SENSE_A*%
X100900000Y-40200000D03*
X95187660Y-58927523D03*
%TO.N,/SENSE_B*%
X90614999Y-58700000D03*
X102200000Y-36700000D03*
%TO.N,/FIRE_A*%
X96139926Y-58913531D03*
X90680900Y-42857354D03*
%TO.N,/GATE_A*%
X93893463Y-56783325D03*
%TO.N,/FIRE_B*%
X90437765Y-42364011D03*
X91950000Y-54675000D03*
%TO.N,/GATE_B*%
X91800000Y-55600000D03*
%TO.N,/CMP_RAIL*%
X94381052Y-57369669D03*
X91365000Y-56740000D03*
%TO.N,/V_BATT*%
X97669934Y-59483948D03*
X102333581Y-39666605D03*
%TO.N,/USB_D+*%
X92959998Y-46430002D03*
%TO.N,/USB_D-*%
X93483378Y-46260956D03*
%TO.N,/AC_INT1*%
X98400000Y-44650000D03*
X103100000Y-40500000D03*
%TO.N,/SCK0*%
X101848255Y-41235281D03*
X104200000Y-36399999D03*
X105784060Y-41314842D03*
%TO.N,/MISO0*%
X101207465Y-41107465D03*
X103000000Y-37100000D03*
%TO.N,/CS_ACCEL*%
X104200000Y-40400000D03*
X101800000Y-39800000D03*
%TO.N,/MOSI0*%
X103300000Y-36500000D03*
X98441173Y-42273429D03*
%TO.N,/AC_INT2*%
X97200000Y-44300000D03*
X103200000Y-39600000D03*
%TO.N,/SCK3*%
X94940000Y-45320000D03*
X102300000Y-44000000D03*
%TO.N,/MISO3*%
X92890000Y-43020000D03*
X105100000Y-44000000D03*
%TO.N,/MOSI3*%
X103200000Y-46300000D03*
X90400000Y-45750003D03*
%TO.N,/TX1*%
X90620000Y-51020000D03*
X97200000Y-46800000D03*
%TO.N,/RX1*%
X92299837Y-49592432D03*
X97200000Y-46250000D03*
%TO.N,/MISO5*%
X98680000Y-48820000D03*
X92440000Y-35520000D03*
%TO.N,/MOSI5*%
X90688727Y-36306236D03*
X92862983Y-47685922D03*
%TO.N,/SCK5*%
X93682060Y-46796135D03*
X91394998Y-36265002D03*
%TO.N,/CS_FLASH*%
X101700000Y-52300000D03*
X95574034Y-46315745D03*
%TO.N,/BUZZ*%
X101400000Y-33200000D03*
X90609651Y-40850082D03*
%TO.N,Net-(J10-Pin_2)*%
X105200000Y-42800000D03*
%TO.N,Net-(J10-Pin_1)*%
X105690776Y-43048276D03*
%TO.N,Net-(U1-V_BCKP)*%
X98918131Y-64485309D03*
X92634973Y-48576789D03*
X100771675Y-47427018D03*
X105989336Y-47004266D03*
%TO.N,Net-(U1-VCC_RF)*%
X93800000Y-52600000D03*
X95854545Y-51000000D03*
%TD*%
D16*
%TO.N,/NRST*%
X91689000Y-41164979D02*
X91689000Y-50189000D01*
X92125000Y-50625000D02*
X94389068Y-50625000D01*
X91689000Y-50189000D02*
X92125000Y-50625000D01*
X94708191Y-50305877D02*
X94814559Y-50305877D01*
X94389068Y-50625000D02*
X94708191Y-50305877D01*
X90847399Y-40323378D02*
X91689000Y-41164979D01*
%TO.N,/HALL_OUT*%
X103108063Y-53591937D02*
X103450000Y-53250000D01*
X98745969Y-53591937D02*
X103108063Y-53591937D01*
%TO.N,Net-(JP1-A)*%
X97858623Y-50531376D02*
X97501569Y-50531376D01*
X91200000Y-54040473D02*
X91200000Y-54110000D01*
X98111096Y-50278903D02*
X97858623Y-50531376D01*
X97501569Y-50531376D02*
X97500096Y-50529904D01*
X95361000Y-52669000D02*
X94390527Y-52669000D01*
X94390527Y-52669000D02*
X93490527Y-53569000D01*
X91671473Y-53569000D02*
X91200000Y-54040473D01*
X98111096Y-50090000D02*
X98111096Y-50278903D01*
X97500096Y-50529904D02*
X95361000Y-52669000D01*
X98230000Y-50090000D02*
X98111096Y-50090000D01*
X93490527Y-53569000D02*
X91671473Y-53569000D01*
%TO.N,Net-(D4-K1)*%
X102044823Y-59115650D02*
X98090000Y-63070473D01*
X102044823Y-56045650D02*
X102044823Y-59115650D01*
X104546773Y-53543700D02*
X102044823Y-56045650D01*
X98090000Y-63070473D02*
X98090000Y-63140000D01*
X105843700Y-53543700D02*
X104546773Y-53543700D01*
X106600000Y-54300000D02*
X105843700Y-53543700D01*
%TO.N,/SENSE_A*%
X95187660Y-59387660D02*
X95600000Y-59800000D01*
X100776465Y-41285992D02*
X100776465Y-40323535D01*
X98567442Y-54022937D02*
X98069000Y-53524495D01*
X97669000Y-58021473D02*
X97921473Y-57769000D01*
X98099000Y-55810527D02*
X98567442Y-55342085D01*
X96400000Y-59800000D02*
X97669000Y-58531000D01*
X98069000Y-53524495D02*
X98069000Y-51990527D01*
X97921473Y-57769000D02*
X98099000Y-57769000D01*
X98567442Y-55342085D02*
X98567442Y-54022937D01*
X95600000Y-59800000D02*
X96400000Y-59800000D01*
X100776465Y-40323535D02*
X100900000Y-40200000D01*
X95187660Y-58927523D02*
X95187660Y-59387660D01*
X97669000Y-58531000D02*
X97669000Y-58021473D01*
X98099000Y-57769000D02*
X98099000Y-55810527D01*
X101656000Y-42165527D02*
X100776465Y-41285992D01*
X98069000Y-51990527D02*
X101656000Y-48403527D01*
X101656000Y-48403527D02*
X101656000Y-42165527D01*
%TO.N,/SENSE_B*%
X95944531Y-59344531D02*
X95618660Y-59018660D01*
X100469000Y-37531000D02*
X100469000Y-42553527D01*
X99469000Y-50221417D02*
X96609254Y-53081163D01*
X95618660Y-58748996D02*
X95269664Y-58400000D01*
X95618660Y-59018660D02*
X95618660Y-58748996D01*
X90914999Y-58400000D02*
X90614999Y-58700000D01*
X96609254Y-53879328D02*
X96718280Y-53988354D01*
X101395000Y-43479527D02*
X101395000Y-47802527D01*
X100471473Y-48019000D02*
X99469000Y-49021473D01*
X101395000Y-47802527D02*
X101178527Y-48019000D01*
X101300000Y-36700000D02*
X100469000Y-37531000D01*
X100469000Y-42553527D02*
X101395000Y-43479527D01*
X99469000Y-49021473D02*
X99469000Y-50221417D01*
X96609254Y-54454434D02*
X96609254Y-59053730D01*
X102200000Y-36700000D02*
X101300000Y-36700000D01*
X96609254Y-59053730D02*
X96318453Y-59344531D01*
X96318453Y-59344531D02*
X95944531Y-59344531D01*
X101178527Y-48019000D02*
X100471473Y-48019000D01*
X96609254Y-53081163D02*
X96609254Y-53879328D01*
X96718280Y-53988354D02*
X96718280Y-54345408D01*
X95269664Y-58400000D02*
X90914999Y-58400000D01*
X96718280Y-54345408D02*
X96609254Y-54454434D01*
%TO.N,/FIRE_A*%
X96139926Y-57360262D02*
X96139926Y-58913531D01*
X90680900Y-42857354D02*
X91159000Y-43335454D01*
X90508000Y-54396637D02*
X91280363Y-55169000D01*
X90508000Y-52417904D02*
X90508000Y-54396637D01*
X93948664Y-55169000D02*
X96139926Y-57360262D01*
X91159000Y-43335454D02*
X91159000Y-51766904D01*
X91159000Y-51766904D02*
X90508000Y-52417904D01*
X91280363Y-55169000D02*
X93948664Y-55169000D01*
%TO.N,/FIRE_B*%
X91420000Y-51875014D02*
X90769000Y-52526014D01*
X90797084Y-42364011D02*
X91420000Y-42986927D01*
X90769000Y-54288527D02*
X91155473Y-54675000D01*
X90437765Y-42364011D02*
X90797084Y-42364011D01*
X91420000Y-42986927D02*
X91420000Y-51875014D01*
X90769000Y-52526014D02*
X90769000Y-54288527D01*
X91155473Y-54675000D02*
X91950000Y-54675000D01*
%TO.N,/CMP_RAIL*%
X92778721Y-56740000D02*
X91365000Y-56740000D01*
X94381052Y-57369669D02*
X93408390Y-57369669D01*
X93408390Y-57369669D02*
X92778721Y-56740000D01*
%TO.N,/SCK0*%
X104399999Y-36399999D02*
X104200000Y-36399999D01*
X105800000Y-37800000D02*
X104399999Y-36399999D01*
X105800000Y-41298902D02*
X105800000Y-37800000D01*
X105784060Y-41314842D02*
X105800000Y-41298902D01*
%TO.N,/MISO5*%
X97980000Y-42674086D02*
X97980000Y-41240000D01*
X97711371Y-43283613D02*
X97711371Y-42926559D01*
X97969000Y-43541242D02*
X97711371Y-43283613D01*
X97969000Y-48109000D02*
X97969000Y-43541242D01*
X97711371Y-42926559D02*
X97963844Y-42674086D01*
X92440000Y-35700000D02*
X92440000Y-35520000D01*
X97980000Y-41240000D02*
X92440000Y-35700000D01*
X97963844Y-42674086D02*
X97980000Y-42674086D01*
X98680000Y-48820000D02*
X97969000Y-48109000D01*
%TO.N,/MOSI5*%
X90688727Y-36306236D02*
X92331000Y-37948509D01*
X92331000Y-47163500D02*
X92853422Y-47685922D01*
X92853422Y-47685922D02*
X92862983Y-47685922D01*
X92331000Y-37948509D02*
X92331000Y-47163500D01*
%TO.N,/SCK5*%
X93682060Y-46796135D02*
X93682060Y-46697940D01*
X93682060Y-46697940D02*
X94331000Y-46049000D01*
X94331000Y-46049000D02*
X94331000Y-39201004D01*
X94331000Y-39201004D02*
X91394998Y-36265002D01*
%TO.N,Net-(U1-V_BCKP)*%
X100694345Y-47427018D02*
X98870363Y-49251000D01*
X99769000Y-57721473D02*
X100021473Y-57469000D01*
X93565068Y-49251000D02*
X92890857Y-48576789D01*
X100241000Y-57469000D02*
X105031000Y-52679000D01*
X98918131Y-64485309D02*
X98632822Y-64200000D01*
X97659000Y-63749000D02*
X97659000Y-62702608D01*
X98110000Y-64200000D02*
X97659000Y-63749000D01*
X92890857Y-48576789D02*
X92634973Y-48576789D01*
X105031000Y-52679000D02*
X105031000Y-48059473D01*
X100021473Y-57469000D02*
X100241000Y-57469000D01*
X98769000Y-61592608D02*
X98769000Y-58941000D01*
X99769000Y-57941000D02*
X99769000Y-57721473D01*
X98632822Y-64200000D02*
X98110000Y-64200000D01*
X105989336Y-47101137D02*
X105989336Y-47004266D01*
X98870363Y-49251000D02*
X93565068Y-49251000D01*
X98769000Y-58941000D02*
X99769000Y-57941000D01*
X97659000Y-62702608D02*
X98769000Y-61592608D01*
X105031000Y-48059473D02*
X105989336Y-47101137D01*
X100771675Y-47427018D02*
X100694345Y-47427018D01*
%TD*%
%TA.AperFunction,Conductor*%
%TO.N,GND*%
G36*
X103725138Y-53581317D02*
G01*
X103732532Y-53637469D01*
X103713379Y-53670644D01*
X100167198Y-57216826D01*
X100114872Y-57238500D01*
X100075943Y-57238500D01*
X100075935Y-57238499D01*
X100067323Y-57238499D01*
X99975624Y-57238499D01*
X99933263Y-57256044D01*
X99933264Y-57256045D01*
X99890906Y-57273590D01*
X99573590Y-57590906D01*
X99561734Y-57619530D01*
X99538499Y-57675622D01*
X99538499Y-57775934D01*
X99538500Y-57775943D01*
X99538500Y-57814871D01*
X99516826Y-57867197D01*
X98573590Y-58810432D01*
X98565252Y-58830565D01*
X98565251Y-58830567D01*
X98538499Y-58895149D01*
X98538499Y-58995461D01*
X98538500Y-58995470D01*
X98538500Y-61466479D01*
X98516826Y-61518805D01*
X98076826Y-61958805D01*
X98024500Y-61980479D01*
X97972174Y-61958805D01*
X97950500Y-61906479D01*
X97950500Y-61751582D01*
X97937207Y-61667655D01*
X97919709Y-61557174D01*
X97919707Y-61557169D01*
X97919706Y-61557163D01*
X97858886Y-61369980D01*
X97858884Y-61369977D01*
X97858884Y-61369975D01*
X97769524Y-61194595D01*
X97653828Y-61035354D01*
X97514646Y-60896172D01*
X97514643Y-60896169D01*
X97514641Y-60896168D01*
X97355404Y-60780475D01*
X97180019Y-60691113D01*
X96992836Y-60630293D01*
X96992823Y-60630290D01*
X96798418Y-60599500D01*
X96798417Y-60599500D01*
X96601583Y-60599500D01*
X96601582Y-60599500D01*
X96407176Y-60630290D01*
X96407163Y-60630293D01*
X96219980Y-60691113D01*
X96044595Y-60780475D01*
X95885358Y-60896168D01*
X95746168Y-61035358D01*
X95630475Y-61194595D01*
X95541113Y-61369980D01*
X95500378Y-61495351D01*
X95463595Y-61538419D01*
X95407133Y-61542862D01*
X95364065Y-61506079D01*
X95359622Y-61495351D01*
X95318886Y-61369980D01*
X95318884Y-61369977D01*
X95318884Y-61369975D01*
X95229524Y-61194595D01*
X95113828Y-61035354D01*
X94974646Y-60896172D01*
X94974643Y-60896169D01*
X94974641Y-60896168D01*
X94815404Y-60780475D01*
X94640019Y-60691113D01*
X94452836Y-60630293D01*
X94452823Y-60630290D01*
X94258418Y-60599500D01*
X94258417Y-60599500D01*
X94061583Y-60599500D01*
X94061582Y-60599500D01*
X93867176Y-60630290D01*
X93867163Y-60630293D01*
X93679980Y-60691113D01*
X93504595Y-60780475D01*
X93345358Y-60896168D01*
X93206168Y-61035358D01*
X93090475Y-61194595D01*
X93054748Y-61264715D01*
X93015901Y-61340959D01*
X93010435Y-61351686D01*
X92967368Y-61388469D01*
X92910905Y-61384026D01*
X92874122Y-61340959D01*
X92870500Y-61318091D01*
X92870500Y-60968479D01*
X92859048Y-60896177D01*
X92855646Y-60874695D01*
X92798050Y-60761657D01*
X92708343Y-60671950D01*
X92595305Y-60614354D01*
X92595303Y-60614353D01*
X92595302Y-60614353D01*
X92501521Y-60599500D01*
X92501520Y-60599500D01*
X90738480Y-60599500D01*
X90738479Y-60599500D01*
X90644697Y-60614353D01*
X90531655Y-60671951D01*
X90441951Y-60761655D01*
X90384353Y-60874697D01*
X90369500Y-60968479D01*
X90369500Y-62731520D01*
X90384353Y-62825302D01*
X90384353Y-62825303D01*
X90384354Y-62825305D01*
X90441950Y-62938343D01*
X90531657Y-63028050D01*
X90644695Y-63085646D01*
X90707218Y-63095548D01*
X90738479Y-63100500D01*
X90738480Y-63100500D01*
X92501521Y-63100500D01*
X92524966Y-63096786D01*
X92595305Y-63085646D01*
X92708343Y-63028050D01*
X92798050Y-62938343D01*
X92855646Y-62825305D01*
X92870500Y-62731520D01*
X92870500Y-62381908D01*
X92892174Y-62329582D01*
X92944500Y-62307908D01*
X92996826Y-62329582D01*
X93010432Y-62348309D01*
X93047404Y-62420872D01*
X93090475Y-62505405D01*
X93202882Y-62660118D01*
X93206172Y-62664646D01*
X93345354Y-62803828D01*
X93504595Y-62919524D01*
X93679975Y-63008884D01*
X93679977Y-63008884D01*
X93679980Y-63008886D01*
X93867163Y-63069706D01*
X93867169Y-63069707D01*
X93867174Y-63069709D01*
X93987023Y-63088691D01*
X94061582Y-63100500D01*
X94061583Y-63100500D01*
X94258418Y-63100500D01*
X94330729Y-63089047D01*
X94452826Y-63069709D01*
X94452833Y-63069706D01*
X94452836Y-63069706D01*
X94640019Y-63008886D01*
X94640019Y-63008885D01*
X94640025Y-63008884D01*
X94815405Y-62919524D01*
X94974646Y-62803828D01*
X95113828Y-62664646D01*
X95229524Y-62505405D01*
X95318884Y-62330025D01*
X95329086Y-62298626D01*
X95359622Y-62204648D01*
X95396405Y-62161580D01*
X95452867Y-62157137D01*
X95495935Y-62193920D01*
X95500378Y-62204648D01*
X95541113Y-62330019D01*
X95630475Y-62505404D01*
X95694466Y-62593480D01*
X95746172Y-62664646D01*
X95885354Y-62803828D01*
X96044595Y-62919524D01*
X96219975Y-63008884D01*
X96219977Y-63008884D01*
X96219980Y-63008886D01*
X96407163Y-63069706D01*
X96407169Y-63069707D01*
X96407174Y-63069709D01*
X96527023Y-63088691D01*
X96601582Y-63100500D01*
X96601583Y-63100500D01*
X96798418Y-63100500D01*
X96870729Y-63089047D01*
X96992826Y-63069709D01*
X96992833Y-63069706D01*
X96992836Y-63069706D01*
X97180019Y-63008886D01*
X97180019Y-63008885D01*
X97180025Y-63008884D01*
X97320906Y-62937101D01*
X97377367Y-62932659D01*
X97420435Y-62969442D01*
X97428500Y-63003037D01*
X97428500Y-63697178D01*
X97428499Y-63697192D01*
X97428499Y-63703150D01*
X97428499Y-63794850D01*
X97449055Y-63844476D01*
X97463591Y-63879568D01*
X97528432Y-63944409D01*
X97538839Y-63954816D01*
X97538841Y-63954817D01*
X97910370Y-64326346D01*
X97910373Y-64326350D01*
X97979432Y-64395409D01*
X97979431Y-64395409D01*
X98039337Y-64420221D01*
X98039339Y-64420221D01*
X98052728Y-64425768D01*
X98064149Y-64430500D01*
X98064150Y-64430500D01*
X98064151Y-64430500D01*
X98493631Y-64430500D01*
X98545957Y-64452174D01*
X98567631Y-64504500D01*
X98567631Y-64531455D01*
X98591515Y-64620593D01*
X98591517Y-64620598D01*
X98637659Y-64700517D01*
X98637660Y-64700518D01*
X98637662Y-64700521D01*
X98702919Y-64765778D01*
X98782843Y-64811923D01*
X98782844Y-64811923D01*
X98782846Y-64811924D01*
X98827415Y-64823866D01*
X98871984Y-64835808D01*
X98871985Y-64835809D01*
X98871987Y-64835809D01*
X98964277Y-64835809D01*
X98964277Y-64835808D01*
X99053419Y-64811923D01*
X99133343Y-64765778D01*
X99198600Y-64700521D01*
X99244745Y-64620597D01*
X99268630Y-64531455D01*
X99268631Y-64531455D01*
X99268631Y-64439163D01*
X99268630Y-64439162D01*
X99263555Y-64420223D01*
X99244745Y-64350021D01*
X99233514Y-64330568D01*
X99198602Y-64270100D01*
X99198601Y-64270099D01*
X99198600Y-64270097D01*
X99133343Y-64204840D01*
X99133340Y-64204838D01*
X99133339Y-64204837D01*
X99053420Y-64158695D01*
X99053415Y-64158693D01*
X98964277Y-64134809D01*
X98964275Y-64134809D01*
X98924259Y-64134809D01*
X98871933Y-64113135D01*
X98838639Y-64079841D01*
X98838639Y-64079840D01*
X98828231Y-64069432D01*
X98763390Y-64004591D01*
X98763388Y-64004590D01*
X98763386Y-64004589D01*
X98728298Y-63990055D01*
X98728298Y-63990054D01*
X98678672Y-63969499D01*
X98586972Y-63969499D01*
X98578360Y-63969499D01*
X98578352Y-63969500D01*
X98236128Y-63969500D01*
X98183802Y-63947826D01*
X97911174Y-63675198D01*
X97889500Y-63622872D01*
X97889500Y-63545579D01*
X97911174Y-63493253D01*
X97963500Y-63471579D01*
X97982653Y-63474101D01*
X98017024Y-63483310D01*
X98043853Y-63490499D01*
X98043854Y-63490500D01*
X98043856Y-63490500D01*
X98136146Y-63490500D01*
X98136146Y-63490499D01*
X98225288Y-63466614D01*
X98305212Y-63420469D01*
X98370469Y-63355212D01*
X98416614Y-63275288D01*
X98440499Y-63186146D01*
X98440500Y-63186146D01*
X98440500Y-63093855D01*
X98439867Y-63089047D01*
X98442570Y-63088691D01*
X98448828Y-63041183D01*
X98460582Y-63025865D01*
X98892967Y-62593480D01*
X102429500Y-62593480D01*
X102429500Y-63906519D01*
X102444353Y-64000304D01*
X102444354Y-64000306D01*
X102484880Y-64079841D01*
X102501950Y-64113342D01*
X102591658Y-64203050D01*
X102704696Y-64260646D01*
X102798481Y-64275500D01*
X103561518Y-64275499D01*
X103561519Y-64275499D01*
X103655304Y-64260646D01*
X103655306Y-64260645D01*
X103657419Y-64259568D01*
X103768342Y-64203050D01*
X103858050Y-64113342D01*
X103915646Y-64000304D01*
X103930500Y-63906519D01*
X103930499Y-62762350D01*
X103952173Y-62710025D01*
X104004499Y-62688351D01*
X104056825Y-62710025D01*
X104070915Y-62731114D01*
X104070961Y-62731088D01*
X104071359Y-62731778D01*
X104072868Y-62734036D01*
X104073384Y-62735282D01*
X104073386Y-62735288D01*
X104073387Y-62735289D01*
X104073388Y-62735291D01*
X104119528Y-62815208D01*
X104119529Y-62815209D01*
X104119531Y-62815212D01*
X104184788Y-62880469D01*
X104264712Y-62926614D01*
X104264713Y-62926614D01*
X104264715Y-62926615D01*
X104287272Y-62932659D01*
X104353853Y-62950499D01*
X104353854Y-62950500D01*
X104353856Y-62950500D01*
X104446146Y-62950500D01*
X104446146Y-62950499D01*
X104535288Y-62926614D01*
X104615212Y-62880469D01*
X104680469Y-62815212D01*
X104726614Y-62735288D01*
X104750499Y-62646146D01*
X104750500Y-62646146D01*
X104750500Y-62553854D01*
X104750499Y-62553853D01*
X104726615Y-62464715D01*
X104726614Y-62464714D01*
X104726614Y-62464712D01*
X104694809Y-62409626D01*
X104687417Y-62353475D01*
X104721895Y-62308541D01*
X104758896Y-62298627D01*
X104804958Y-62298627D01*
X104804958Y-62298626D01*
X104894100Y-62274741D01*
X104974024Y-62228596D01*
X105039281Y-62163339D01*
X105085426Y-62083415D01*
X105109311Y-61994273D01*
X105109312Y-61994273D01*
X105109312Y-61901981D01*
X105109311Y-61901980D01*
X105085427Y-61812842D01*
X105085425Y-61812837D01*
X105039283Y-61732918D01*
X105039282Y-61732917D01*
X105039281Y-61732915D01*
X104974024Y-61667658D01*
X104974021Y-61667656D01*
X104974020Y-61667655D01*
X104894101Y-61621513D01*
X104894096Y-61621511D01*
X104804958Y-61597627D01*
X104804956Y-61597627D01*
X104712668Y-61597627D01*
X104712666Y-61597627D01*
X104618839Y-61622768D01*
X104618099Y-61620009D01*
X104570512Y-61620001D01*
X104530471Y-61579945D01*
X104527365Y-61532486D01*
X104537315Y-61495351D01*
X104550499Y-61446146D01*
X104550500Y-61446146D01*
X104550500Y-61353854D01*
X104550499Y-61353853D01*
X104549918Y-61351686D01*
X104526614Y-61264712D01*
X104526613Y-61264710D01*
X104480471Y-61184791D01*
X104480470Y-61184790D01*
X104480469Y-61184788D01*
X104415212Y-61119531D01*
X104415209Y-61119529D01*
X104415208Y-61119528D01*
X104335289Y-61073386D01*
X104335284Y-61073384D01*
X104246146Y-61049500D01*
X104246144Y-61049500D01*
X104153856Y-61049500D01*
X104153854Y-61049500D01*
X104064715Y-61073384D01*
X104064710Y-61073386D01*
X103984791Y-61119528D01*
X103919528Y-61184791D01*
X103873386Y-61264710D01*
X103873384Y-61264715D01*
X103849500Y-61353853D01*
X103849500Y-61446146D01*
X103873384Y-61535284D01*
X103873386Y-61535289D01*
X103919528Y-61615208D01*
X103919529Y-61615209D01*
X103919531Y-61615212D01*
X103984788Y-61680469D01*
X103984790Y-61680470D01*
X103984791Y-61680471D01*
X104058757Y-61723176D01*
X104064712Y-61726614D01*
X104064713Y-61726614D01*
X104064715Y-61726615D01*
X104088239Y-61732918D01*
X104153853Y-61750499D01*
X104153854Y-61750500D01*
X104153856Y-61750500D01*
X104246146Y-61750500D01*
X104246146Y-61750499D01*
X104311761Y-61732918D01*
X104339973Y-61725359D01*
X104340719Y-61728143D01*
X104388201Y-61728085D01*
X104428300Y-61768083D01*
X104431447Y-61815639D01*
X104408312Y-61901983D01*
X104408312Y-61994273D01*
X104432196Y-62083411D01*
X104432197Y-62083412D01*
X104432198Y-62083415D01*
X104464002Y-62138500D01*
X104471395Y-62194652D01*
X104436917Y-62239586D01*
X104399916Y-62249500D01*
X104353854Y-62249500D01*
X104264715Y-62273384D01*
X104264710Y-62273386D01*
X104184791Y-62319528D01*
X104119528Y-62384791D01*
X104073386Y-62464710D01*
X104073385Y-62464714D01*
X104060869Y-62511421D01*
X104026390Y-62556354D01*
X103970237Y-62563745D01*
X103925304Y-62529266D01*
X103916302Y-62503841D01*
X103915646Y-62499696D01*
X103915645Y-62499694D01*
X103915645Y-62499693D01*
X103858049Y-62386657D01*
X103768343Y-62296951D01*
X103768342Y-62296950D01*
X103655304Y-62239354D01*
X103655302Y-62239353D01*
X103655301Y-62239353D01*
X103561519Y-62224500D01*
X102798480Y-62224500D01*
X102704695Y-62239353D01*
X102704693Y-62239354D01*
X102591657Y-62296950D01*
X102501951Y-62386656D01*
X102444353Y-62499698D01*
X102429500Y-62593480D01*
X98892967Y-62593480D01*
X100432595Y-61053853D01*
X101449500Y-61053853D01*
X101449500Y-61146146D01*
X101473384Y-61235284D01*
X101473386Y-61235289D01*
X101519528Y-61315208D01*
X101519529Y-61315209D01*
X101519531Y-61315212D01*
X101584788Y-61380469D01*
X101584790Y-61380470D01*
X101584791Y-61380471D01*
X101598644Y-61388469D01*
X101664712Y-61426614D01*
X101664713Y-61426614D01*
X101664715Y-61426615D01*
X101709284Y-61438557D01*
X101753853Y-61450499D01*
X101753854Y-61450500D01*
X101753856Y-61450500D01*
X101846146Y-61450500D01*
X101846146Y-61450499D01*
X101935288Y-61426614D01*
X102015212Y-61380469D01*
X102080469Y-61315212D01*
X102126614Y-61235288D01*
X102150499Y-61146146D01*
X102150500Y-61146146D01*
X102150500Y-61053854D01*
X102150499Y-61053853D01*
X102126615Y-60964715D01*
X102126613Y-60964710D01*
X102080471Y-60884791D01*
X102080470Y-60884790D01*
X102080469Y-60884788D01*
X102015212Y-60819531D01*
X102015209Y-60819529D01*
X102015208Y-60819528D01*
X101935289Y-60773386D01*
X101935284Y-60773384D01*
X101846146Y-60749500D01*
X101846144Y-60749500D01*
X101753856Y-60749500D01*
X101753854Y-60749500D01*
X101664715Y-60773384D01*
X101664710Y-60773386D01*
X101584791Y-60819528D01*
X101519528Y-60884791D01*
X101473386Y-60964710D01*
X101473384Y-60964715D01*
X101449500Y-61053853D01*
X100432595Y-61053853D01*
X101132595Y-60353853D01*
X103849500Y-60353853D01*
X103849500Y-60446146D01*
X103873384Y-60535284D01*
X103873386Y-60535289D01*
X103919528Y-60615208D01*
X103919529Y-60615209D01*
X103919531Y-60615212D01*
X103984788Y-60680469D01*
X103984790Y-60680470D01*
X103984791Y-60680471D01*
X104064710Y-60726613D01*
X104064712Y-60726614D01*
X104064713Y-60726614D01*
X104064715Y-60726615D01*
X104109284Y-60738557D01*
X104153853Y-60750499D01*
X104153854Y-60750500D01*
X104153856Y-60750500D01*
X104246146Y-60750500D01*
X104246146Y-60750499D01*
X104335288Y-60726614D01*
X104415212Y-60680469D01*
X104480469Y-60615212D01*
X104526614Y-60535288D01*
X104550499Y-60446146D01*
X104550500Y-60446146D01*
X104550500Y-60353854D01*
X104550499Y-60353853D01*
X104526615Y-60264715D01*
X104526613Y-60264710D01*
X104480471Y-60184791D01*
X104480470Y-60184790D01*
X104480469Y-60184788D01*
X104415212Y-60119531D01*
X104415209Y-60119529D01*
X104415208Y-60119528D01*
X104335289Y-60073386D01*
X104335284Y-60073384D01*
X104246146Y-60049500D01*
X104246144Y-60049500D01*
X104153856Y-60049500D01*
X104153854Y-60049500D01*
X104064715Y-60073384D01*
X104064710Y-60073386D01*
X103984791Y-60119528D01*
X103919528Y-60184791D01*
X103873386Y-60264710D01*
X103873384Y-60264715D01*
X103849500Y-60353853D01*
X101132595Y-60353853D01*
X102164982Y-59321466D01*
X102164985Y-59321464D01*
X102175390Y-59311059D01*
X102175391Y-59311059D01*
X102240232Y-59246218D01*
X102275323Y-59161499D01*
X102275323Y-58607062D01*
X102296997Y-58554736D01*
X102349323Y-58533062D01*
X102401649Y-58554736D01*
X102411977Y-58567687D01*
X102524111Y-58746146D01*
X102557477Y-58799248D01*
X102727789Y-59012813D01*
X102732584Y-59018825D01*
X102931175Y-59217416D01*
X103150752Y-59392523D01*
X103388555Y-59541945D01*
X103641592Y-59663801D01*
X103906682Y-59756560D01*
X103906687Y-59756561D01*
X103906690Y-59756562D01*
X104180486Y-59819054D01*
X104180487Y-59819054D01*
X104180491Y-59819055D01*
X104459575Y-59850500D01*
X104459579Y-59850500D01*
X104740421Y-59850500D01*
X104740425Y-59850500D01*
X105019509Y-59819055D01*
X105293318Y-59756560D01*
X105558408Y-59663801D01*
X105811445Y-59541945D01*
X106049248Y-59392523D01*
X106268825Y-59217416D01*
X106467416Y-59018825D01*
X106642523Y-58799248D01*
X106791945Y-58561445D01*
X106858828Y-58422561D01*
X106901059Y-58384821D01*
X106957607Y-58387996D01*
X106995347Y-58430227D01*
X106999500Y-58454668D01*
X106999500Y-61655168D01*
X106977826Y-61707494D01*
X106925500Y-61729168D01*
X106873175Y-61707494D01*
X106835212Y-61669531D01*
X106835209Y-61669529D01*
X106835208Y-61669528D01*
X106755289Y-61623386D01*
X106755284Y-61623384D01*
X106666146Y-61599500D01*
X106666144Y-61599500D01*
X106573856Y-61599500D01*
X106573854Y-61599500D01*
X106484715Y-61623384D01*
X106484710Y-61623386D01*
X106404791Y-61669528D01*
X106339528Y-61734791D01*
X106293386Y-61814710D01*
X106293384Y-61814715D01*
X106269500Y-61903853D01*
X106269500Y-61996146D01*
X106293384Y-62085284D01*
X106293386Y-62085289D01*
X106339529Y-62165209D01*
X106339531Y-62165212D01*
X106386993Y-62212675D01*
X106408667Y-62265001D01*
X106386993Y-62317326D01*
X106319528Y-62384791D01*
X106273386Y-62464710D01*
X106273384Y-62464715D01*
X106249500Y-62553853D01*
X106249500Y-62646146D01*
X106273384Y-62735284D01*
X106273386Y-62735289D01*
X106319528Y-62815208D01*
X106319529Y-62815209D01*
X106319531Y-62815212D01*
X106384788Y-62880469D01*
X106464712Y-62926614D01*
X106464713Y-62926614D01*
X106464715Y-62926615D01*
X106487272Y-62932659D01*
X106553853Y-62950499D01*
X106553854Y-62950500D01*
X106553856Y-62950500D01*
X106646146Y-62950500D01*
X106646146Y-62950499D01*
X106735288Y-62926614D01*
X106815212Y-62880469D01*
X106873175Y-62822505D01*
X106925500Y-62800832D01*
X106977826Y-62822506D01*
X106999500Y-62874832D01*
X106999500Y-65125500D01*
X106977826Y-65177826D01*
X106925500Y-65199500D01*
X97078867Y-65199500D01*
X97026541Y-65177826D01*
X97004867Y-65125500D01*
X97026541Y-65073174D01*
X97050549Y-65057133D01*
X97052641Y-65056265D01*
X97055495Y-65055084D01*
X97178416Y-64972951D01*
X97282951Y-64868416D01*
X97365084Y-64745495D01*
X97421658Y-64608913D01*
X97450500Y-64463918D01*
X97450500Y-64316082D01*
X97421658Y-64171087D01*
X97365084Y-64034505D01*
X97282951Y-63911584D01*
X97178416Y-63807049D01*
X97055495Y-63724916D01*
X97055496Y-63724916D01*
X97055494Y-63724915D01*
X96918917Y-63668343D01*
X96918907Y-63668340D01*
X96821811Y-63649026D01*
X96773918Y-63639500D01*
X96626082Y-63639500D01*
X96584977Y-63647676D01*
X96481092Y-63668340D01*
X96481082Y-63668343D01*
X96344505Y-63724915D01*
X96221584Y-63807048D01*
X96221583Y-63807050D01*
X96117050Y-63911583D01*
X96117048Y-63911584D01*
X96034915Y-64034505D01*
X95978343Y-64171082D01*
X95978340Y-64171092D01*
X95957573Y-64275499D01*
X95949500Y-64316082D01*
X95949500Y-64463918D01*
X95959026Y-64511811D01*
X95978340Y-64608907D01*
X95978343Y-64608917D01*
X96034915Y-64745494D01*
X96117048Y-64868415D01*
X96221584Y-64972951D01*
X96344505Y-65055084D01*
X96349451Y-65057133D01*
X96389500Y-65097181D01*
X96389500Y-65153818D01*
X96349452Y-65193867D01*
X96321133Y-65199500D01*
X94538867Y-65199500D01*
X94486541Y-65177826D01*
X94464867Y-65125500D01*
X94486541Y-65073174D01*
X94510549Y-65057133D01*
X94512641Y-65056265D01*
X94515495Y-65055084D01*
X94638416Y-64972951D01*
X94742951Y-64868416D01*
X94825084Y-64745495D01*
X94881658Y-64608913D01*
X94910500Y-64463918D01*
X94910500Y-64316082D01*
X94881658Y-64171087D01*
X94825084Y-64034505D01*
X94742951Y-63911584D01*
X94638416Y-63807049D01*
X94515495Y-63724916D01*
X94515496Y-63724916D01*
X94515494Y-63724915D01*
X94378917Y-63668343D01*
X94378907Y-63668340D01*
X94281811Y-63649026D01*
X94233918Y-63639500D01*
X94086082Y-63639500D01*
X94044977Y-63647676D01*
X93941092Y-63668340D01*
X93941082Y-63668343D01*
X93804505Y-63724915D01*
X93681584Y-63807048D01*
X93681583Y-63807050D01*
X93577050Y-63911583D01*
X93577048Y-63911584D01*
X93494915Y-64034505D01*
X93438343Y-64171082D01*
X93438340Y-64171092D01*
X93417573Y-64275499D01*
X93409500Y-64316082D01*
X93409500Y-64463918D01*
X93419026Y-64511811D01*
X93438340Y-64608907D01*
X93438343Y-64608917D01*
X93494915Y-64745494D01*
X93577048Y-64868415D01*
X93681584Y-64972951D01*
X93804505Y-65055084D01*
X93809451Y-65057133D01*
X93849500Y-65097181D01*
X93849500Y-65153818D01*
X93809452Y-65193867D01*
X93781133Y-65199500D01*
X91998867Y-65199500D01*
X91946541Y-65177826D01*
X91924867Y-65125500D01*
X91946541Y-65073174D01*
X91970549Y-65057133D01*
X91972641Y-65056265D01*
X91975495Y-65055084D01*
X92098416Y-64972951D01*
X92202951Y-64868416D01*
X92285084Y-64745495D01*
X92341658Y-64608913D01*
X92370500Y-64463918D01*
X92370500Y-64316082D01*
X92341658Y-64171087D01*
X92285084Y-64034505D01*
X92202951Y-63911584D01*
X92098416Y-63807049D01*
X91975495Y-63724916D01*
X91975496Y-63724916D01*
X91975494Y-63724915D01*
X91838917Y-63668343D01*
X91838907Y-63668340D01*
X91741811Y-63649026D01*
X91693918Y-63639500D01*
X91546082Y-63639500D01*
X91504977Y-63647676D01*
X91401092Y-63668340D01*
X91401082Y-63668343D01*
X91264505Y-63724915D01*
X91141584Y-63807048D01*
X91141583Y-63807050D01*
X91037050Y-63911583D01*
X91037048Y-63911584D01*
X90954915Y-64034505D01*
X90898343Y-64171082D01*
X90898340Y-64171092D01*
X90877573Y-64275499D01*
X90869500Y-64316082D01*
X90869500Y-64463918D01*
X90879026Y-64511811D01*
X90898340Y-64608907D01*
X90898343Y-64608917D01*
X90954915Y-64745494D01*
X91037048Y-64868415D01*
X91141584Y-64972951D01*
X91264505Y-65055084D01*
X91269451Y-65057133D01*
X91309500Y-65097181D01*
X91309500Y-65153818D01*
X91269452Y-65193867D01*
X91241133Y-65199500D01*
X90274500Y-65199500D01*
X90222174Y-65177826D01*
X90200500Y-65125500D01*
X90200500Y-58958538D01*
X90222174Y-58906212D01*
X90274500Y-58884538D01*
X90326826Y-58906212D01*
X90333203Y-58913483D01*
X90334526Y-58915207D01*
X90334528Y-58915209D01*
X90334530Y-58915212D01*
X90399787Y-58980469D01*
X90399789Y-58980470D01*
X90399790Y-58980471D01*
X90466220Y-59018825D01*
X90479711Y-59026614D01*
X90479712Y-59026614D01*
X90479714Y-59026615D01*
X90522716Y-59038137D01*
X90568852Y-59050499D01*
X90568853Y-59050500D01*
X90568855Y-59050500D01*
X90661145Y-59050500D01*
X90661145Y-59050499D01*
X90750287Y-59026614D01*
X90830211Y-58980469D01*
X90895468Y-58915212D01*
X90941613Y-58835288D01*
X90965498Y-58746146D01*
X90965499Y-58746146D01*
X90965499Y-58706128D01*
X90987173Y-58653802D01*
X90988801Y-58652174D01*
X91041127Y-58630500D01*
X94826252Y-58630500D01*
X94878578Y-58652174D01*
X94900252Y-58704500D01*
X94890338Y-58741500D01*
X94861046Y-58792233D01*
X94861044Y-58792238D01*
X94837160Y-58881376D01*
X94837160Y-58973669D01*
X94861044Y-59062807D01*
X94861046Y-59062812D01*
X94907188Y-59142731D01*
X94907189Y-59142732D01*
X94907191Y-59142735D01*
X94935486Y-59171030D01*
X94957160Y-59223355D01*
X94957160Y-59335838D01*
X94957159Y-59335852D01*
X94957159Y-59341810D01*
X94957159Y-59433510D01*
X94974387Y-59475099D01*
X94982890Y-59495627D01*
X94992251Y-59518228D01*
X95067499Y-59593476D01*
X95067501Y-59593477D01*
X95400370Y-59926346D01*
X95400373Y-59926350D01*
X95404591Y-59930568D01*
X95469432Y-59995409D01*
X95504526Y-60009945D01*
X95511789Y-60012953D01*
X95511790Y-60012954D01*
X95554151Y-60030501D01*
X95654462Y-60030501D01*
X95654470Y-60030500D01*
X96345530Y-60030500D01*
X96345538Y-60030501D01*
X96354150Y-60030501D01*
X96445850Y-60030501D01*
X96495476Y-60009944D01*
X96530568Y-59995409D01*
X96595409Y-59930568D01*
X96595409Y-59930567D01*
X96605814Y-59920162D01*
X96605816Y-59920159D01*
X97208799Y-59317175D01*
X97261124Y-59295502D01*
X97313450Y-59317176D01*
X97335124Y-59369502D01*
X97332603Y-59388654D01*
X97319434Y-59437804D01*
X97319434Y-59530094D01*
X97343318Y-59619232D01*
X97343320Y-59619237D01*
X97389462Y-59699156D01*
X97389463Y-59699157D01*
X97389465Y-59699160D01*
X97454722Y-59764417D01*
X97534646Y-59810562D01*
X97534647Y-59810562D01*
X97534649Y-59810563D01*
X97566342Y-59819055D01*
X97623787Y-59834447D01*
X97623788Y-59834448D01*
X97623790Y-59834448D01*
X97716080Y-59834448D01*
X97716080Y-59834447D01*
X97805222Y-59810562D01*
X97885146Y-59764417D01*
X97950403Y-59699160D01*
X97996548Y-59619236D01*
X98020433Y-59530094D01*
X98020434Y-59530094D01*
X98020434Y-59437802D01*
X98020433Y-59437801D01*
X97996549Y-59348663D01*
X97996547Y-59348658D01*
X97950405Y-59268739D01*
X97950404Y-59268738D01*
X97950403Y-59268736D01*
X97885146Y-59203479D01*
X97885143Y-59203477D01*
X97885142Y-59203476D01*
X97805223Y-59157334D01*
X97805218Y-59157332D01*
X97716080Y-59133448D01*
X97716078Y-59133448D01*
X97623790Y-59133448D01*
X97574640Y-59146617D01*
X97518487Y-59139223D01*
X97484009Y-59094290D01*
X97491403Y-59038137D01*
X97503158Y-59022816D01*
X97789159Y-58736816D01*
X97789162Y-58736814D01*
X97799567Y-58726409D01*
X97799568Y-58726409D01*
X97864409Y-58661568D01*
X97882278Y-58618428D01*
X97899501Y-58576850D01*
X97899501Y-58485150D01*
X97899501Y-58479192D01*
X97899500Y-58479178D01*
X97899500Y-58147601D01*
X97921174Y-58095275D01*
X97995275Y-58021174D01*
X98047601Y-57999500D01*
X98144848Y-57999500D01*
X98144849Y-57999500D01*
X98229568Y-57964409D01*
X98294409Y-57899568D01*
X98329500Y-57814849D01*
X98329500Y-56988779D01*
X98477004Y-56988779D01*
X98477004Y-57081067D01*
X98477500Y-57082918D01*
X98477500Y-57082920D01*
X98500888Y-57170207D01*
X98500890Y-57170212D01*
X98547032Y-57250131D01*
X98547033Y-57250132D01*
X98547035Y-57250135D01*
X98612292Y-57315392D01*
X98612294Y-57315393D01*
X98612296Y-57315395D01*
X98652899Y-57338838D01*
X98687377Y-57383771D01*
X98679983Y-57439924D01*
X98668224Y-57455249D01*
X98606383Y-57517090D01*
X98560241Y-57597009D01*
X98560239Y-57597014D01*
X98536355Y-57686152D01*
X98536355Y-57778445D01*
X98560239Y-57867583D01*
X98560241Y-57867588D01*
X98606383Y-57947507D01*
X98606384Y-57947508D01*
X98606386Y-57947511D01*
X98671643Y-58012768D01*
X98671645Y-58012769D01*
X98671646Y-58012770D01*
X98751565Y-58058912D01*
X98751567Y-58058913D01*
X98751568Y-58058913D01*
X98751570Y-58058914D01*
X98782961Y-58067325D01*
X98840708Y-58082798D01*
X98840709Y-58082799D01*
X98840711Y-58082799D01*
X98933001Y-58082799D01*
X98933001Y-58082798D01*
X99022143Y-58058913D01*
X99102067Y-58012768D01*
X99167324Y-57947511D01*
X99213469Y-57867587D01*
X99237354Y-57778445D01*
X99237355Y-57778445D01*
X99237355Y-57686153D01*
X99237354Y-57686152D01*
X99236989Y-57684791D01*
X99224568Y-57638432D01*
X99213470Y-57597014D01*
X99213468Y-57597009D01*
X99167326Y-57517090D01*
X99167325Y-57517089D01*
X99167324Y-57517087D01*
X99102067Y-57451830D01*
X99102064Y-57451828D01*
X99102062Y-57451826D01*
X99061459Y-57428383D01*
X99026981Y-57383449D01*
X99034375Y-57327297D01*
X99046127Y-57311980D01*
X99107973Y-57250135D01*
X99154118Y-57170211D01*
X99178003Y-57081069D01*
X99178004Y-57081069D01*
X99178004Y-56988777D01*
X99178003Y-56988776D01*
X99154119Y-56899638D01*
X99154117Y-56899633D01*
X99107975Y-56819714D01*
X99107974Y-56819713D01*
X99107973Y-56819711D01*
X99042716Y-56754454D01*
X99042713Y-56754452D01*
X99042712Y-56754451D01*
X98962793Y-56708309D01*
X98962788Y-56708307D01*
X98873650Y-56684423D01*
X98873648Y-56684423D01*
X98781360Y-56684423D01*
X98781358Y-56684423D01*
X98692219Y-56708307D01*
X98692214Y-56708309D01*
X98612295Y-56754451D01*
X98547032Y-56819714D01*
X98500890Y-56899633D01*
X98500888Y-56899638D01*
X98477500Y-56986925D01*
X98477500Y-56986927D01*
X98477004Y-56988779D01*
X98329500Y-56988779D01*
X98329500Y-55936654D01*
X98351173Y-55884329D01*
X98687601Y-55547900D01*
X98687604Y-55547899D01*
X98698009Y-55537494D01*
X98698010Y-55537494D01*
X98762851Y-55472653D01*
X98777386Y-55437561D01*
X98797943Y-55387935D01*
X98797943Y-55296236D01*
X98797943Y-55290278D01*
X98797942Y-55290264D01*
X98797942Y-53997657D01*
X98819616Y-53945331D01*
X98852787Y-53926179D01*
X98881257Y-53918551D01*
X98961181Y-53872406D01*
X98989477Y-53844110D01*
X99041802Y-53822437D01*
X103053593Y-53822437D01*
X103053601Y-53822438D01*
X103062213Y-53822438D01*
X103153913Y-53822438D01*
X103203539Y-53801881D01*
X103238631Y-53787346D01*
X103303472Y-53722505D01*
X103303472Y-53722504D01*
X103313880Y-53712097D01*
X103313882Y-53712093D01*
X103403803Y-53622174D01*
X103409119Y-53619972D01*
X103456128Y-53600500D01*
X103496146Y-53600500D01*
X103496146Y-53600499D01*
X103585288Y-53576614D01*
X103624052Y-53554232D01*
X103680204Y-53546839D01*
X103725138Y-53581317D01*
G37*
%TD.AperFunction*%
%TA.AperFunction,Conductor*%
G36*
X90326826Y-54541440D02*
G01*
X90387839Y-54602453D01*
X90387841Y-54602454D01*
X91080733Y-55295346D01*
X91080736Y-55295350D01*
X91084954Y-55299568D01*
X91149795Y-55364409D01*
X91206591Y-55387934D01*
X91234513Y-55399500D01*
X91234514Y-55399500D01*
X91394421Y-55399500D01*
X91446747Y-55421174D01*
X91468421Y-55473500D01*
X91465899Y-55492653D01*
X91449500Y-55553853D01*
X91449500Y-55646146D01*
X91473384Y-55735284D01*
X91473386Y-55735289D01*
X91519528Y-55815208D01*
X91519529Y-55815209D01*
X91519531Y-55815212D01*
X91584788Y-55880469D01*
X91584790Y-55880470D01*
X91584791Y-55880471D01*
X91664710Y-55926613D01*
X91664712Y-55926614D01*
X91664713Y-55926614D01*
X91664715Y-55926615D01*
X91702182Y-55936654D01*
X91753853Y-55950499D01*
X91753854Y-55950500D01*
X91753856Y-55950500D01*
X91846146Y-55950500D01*
X91846146Y-55950499D01*
X91935288Y-55926614D01*
X92015212Y-55880469D01*
X92080469Y-55815212D01*
X92126614Y-55735288D01*
X92150499Y-55646146D01*
X92150500Y-55646146D01*
X92150500Y-55553854D01*
X92150499Y-55553853D01*
X92144278Y-55530637D01*
X92134101Y-55492653D01*
X92141493Y-55436500D01*
X92186426Y-55402022D01*
X92205579Y-55399500D01*
X93822536Y-55399500D01*
X93874862Y-55421174D01*
X95887752Y-57434064D01*
X95909426Y-57486390D01*
X95909426Y-58535133D01*
X95903530Y-58549367D01*
X95887753Y-58587458D01*
X95887752Y-58587458D01*
X95887752Y-58587459D01*
X95868525Y-58595423D01*
X95835427Y-58609133D01*
X95835426Y-58609132D01*
X95835426Y-58609133D01*
X95783101Y-58587460D01*
X95772491Y-58576850D01*
X95749228Y-58553587D01*
X95749226Y-58553586D01*
X95475481Y-58279841D01*
X95475481Y-58279840D01*
X95440302Y-58244661D01*
X95400232Y-58204591D01*
X95400230Y-58204590D01*
X95400228Y-58204589D01*
X95365140Y-58190055D01*
X95365140Y-58190054D01*
X95315514Y-58169499D01*
X95223814Y-58169499D01*
X95215202Y-58169499D01*
X95215194Y-58169500D01*
X90869148Y-58169500D01*
X90864323Y-58171499D01*
X90864318Y-58171501D01*
X90784433Y-58204589D01*
X90784431Y-58204591D01*
X90719590Y-58269432D01*
X90719589Y-58269433D01*
X90719588Y-58269432D01*
X90661197Y-58327825D01*
X90608872Y-58349500D01*
X90568853Y-58349500D01*
X90479714Y-58373384D01*
X90479709Y-58373386D01*
X90399790Y-58419528D01*
X90334523Y-58484795D01*
X90333199Y-58486521D01*
X90332250Y-58487068D01*
X90331101Y-58488218D01*
X90330792Y-58487909D01*
X90284144Y-58514830D01*
X90229440Y-58500160D01*
X90201131Y-58451105D01*
X90200500Y-58441461D01*
X90200500Y-56693853D01*
X91014500Y-56693853D01*
X91014500Y-56786146D01*
X91038384Y-56875284D01*
X91038386Y-56875289D01*
X91084528Y-56955208D01*
X91084529Y-56955209D01*
X91084531Y-56955212D01*
X91149788Y-57020469D01*
X91149790Y-57020470D01*
X91149791Y-57020471D01*
X91227209Y-57065169D01*
X91229712Y-57066614D01*
X91229713Y-57066614D01*
X91229715Y-57066615D01*
X91274284Y-57078557D01*
X91318853Y-57090499D01*
X91318854Y-57090500D01*
X91318856Y-57090500D01*
X91411146Y-57090500D01*
X91411146Y-57090499D01*
X91500288Y-57066614D01*
X91580212Y-57020469D01*
X91608508Y-56992173D01*
X91660833Y-56970500D01*
X92652593Y-56970500D01*
X92704919Y-56992174D01*
X93208760Y-57496015D01*
X93208763Y-57496019D01*
X93212981Y-57500237D01*
X93277822Y-57565078D01*
X93325632Y-57584881D01*
X93362540Y-57600169D01*
X93362541Y-57600169D01*
X94085219Y-57600169D01*
X94137544Y-57621842D01*
X94165840Y-57650138D01*
X94165842Y-57650139D01*
X94165843Y-57650140D01*
X94228222Y-57686155D01*
X94245764Y-57696283D01*
X94245765Y-57696283D01*
X94245767Y-57696284D01*
X94290336Y-57708226D01*
X94334905Y-57720168D01*
X94334906Y-57720169D01*
X94334908Y-57720169D01*
X94427198Y-57720169D01*
X94427198Y-57720168D01*
X94516340Y-57696283D01*
X94596264Y-57650138D01*
X94661521Y-57584881D01*
X94707666Y-57504957D01*
X94731551Y-57415815D01*
X94731552Y-57415815D01*
X94731552Y-57323523D01*
X94731551Y-57323522D01*
X94729373Y-57315395D01*
X94708770Y-57238500D01*
X94707667Y-57234384D01*
X94707665Y-57234379D01*
X94661523Y-57154460D01*
X94661522Y-57154459D01*
X94661521Y-57154457D01*
X94596264Y-57089200D01*
X94596261Y-57089198D01*
X94596260Y-57089197D01*
X94516341Y-57043055D01*
X94516336Y-57043053D01*
X94427198Y-57019169D01*
X94427196Y-57019169D01*
X94334908Y-57019169D01*
X94334907Y-57019169D01*
X94302943Y-57027733D01*
X94246791Y-57020339D01*
X94212313Y-56975405D01*
X94219150Y-56923481D01*
X94218220Y-56923096D01*
X94219658Y-56919623D01*
X94219707Y-56919253D01*
X94220077Y-56918613D01*
X94243962Y-56829471D01*
X94243963Y-56829471D01*
X94243963Y-56737179D01*
X94243962Y-56737178D01*
X94220078Y-56648040D01*
X94220076Y-56648035D01*
X94173934Y-56568116D01*
X94173933Y-56568115D01*
X94173932Y-56568113D01*
X94108675Y-56502856D01*
X94108672Y-56502854D01*
X94108671Y-56502853D01*
X94028752Y-56456711D01*
X94028747Y-56456709D01*
X93939609Y-56432825D01*
X93939607Y-56432825D01*
X93847319Y-56432825D01*
X93847317Y-56432825D01*
X93758178Y-56456709D01*
X93758173Y-56456711D01*
X93678254Y-56502853D01*
X93612991Y-56568116D01*
X93566849Y-56648035D01*
X93566847Y-56648040D01*
X93542963Y-56737178D01*
X93542963Y-56829471D01*
X93566847Y-56918609D01*
X93566849Y-56918614D01*
X93612991Y-56998533D01*
X93612992Y-56998534D01*
X93612994Y-56998537D01*
X93627301Y-57012844D01*
X93648975Y-57065169D01*
X93627301Y-57117495D01*
X93574975Y-57139169D01*
X93534518Y-57139169D01*
X93482192Y-57117495D01*
X92984538Y-56619841D01*
X92984538Y-56619840D01*
X92969408Y-56604710D01*
X92909289Y-56544591D01*
X92909287Y-56544590D01*
X92909285Y-56544589D01*
X92874197Y-56530055D01*
X92874197Y-56530054D01*
X92824571Y-56509499D01*
X92732871Y-56509499D01*
X92724259Y-56509499D01*
X92724251Y-56509500D01*
X91660833Y-56509500D01*
X91608508Y-56487827D01*
X91596188Y-56475507D01*
X91580212Y-56459531D01*
X91580209Y-56459529D01*
X91580208Y-56459528D01*
X91500289Y-56413386D01*
X91500284Y-56413384D01*
X91411146Y-56389500D01*
X91411144Y-56389500D01*
X91318856Y-56389500D01*
X91318854Y-56389500D01*
X91229715Y-56413384D01*
X91229710Y-56413386D01*
X91149791Y-56459528D01*
X91084528Y-56524791D01*
X91038386Y-56604710D01*
X91038384Y-56604715D01*
X91014500Y-56693853D01*
X90200500Y-56693853D01*
X90200500Y-54593766D01*
X90222174Y-54541440D01*
X90274500Y-54519766D01*
X90326826Y-54541440D01*
G37*
%TD.AperFunction*%
%TA.AperFunction,Conductor*%
G36*
X96966078Y-55628767D02*
G01*
X97013129Y-55675818D01*
X97013131Y-55675819D01*
X97013132Y-55675820D01*
X97081360Y-55715212D01*
X97093053Y-55721963D01*
X97093054Y-55721963D01*
X97093056Y-55721964D01*
X97137625Y-55733906D01*
X97182194Y-55745848D01*
X97182195Y-55745849D01*
X97182197Y-55745849D01*
X97274487Y-55745849D01*
X97274487Y-55745848D01*
X97363629Y-55721963D01*
X97419393Y-55689766D01*
X97475543Y-55682373D01*
X97514953Y-55712609D01*
X97516578Y-55711363D01*
X97519529Y-55715209D01*
X97519531Y-55715212D01*
X97584788Y-55780469D01*
X97584790Y-55780470D01*
X97584791Y-55780471D01*
X97664710Y-55826613D01*
X97664712Y-55826614D01*
X97664713Y-55826614D01*
X97664715Y-55826615D01*
X97709284Y-55838557D01*
X97753853Y-55850499D01*
X97753854Y-55850500D01*
X97794500Y-55850500D01*
X97846826Y-55872174D01*
X97868500Y-55924500D01*
X97868500Y-57492005D01*
X97846826Y-57544331D01*
X97822818Y-57560372D01*
X97790907Y-57573589D01*
X97726063Y-57638433D01*
X97570923Y-57793572D01*
X97518597Y-57815246D01*
X97466271Y-57793572D01*
X97447119Y-57760399D01*
X97440200Y-57734576D01*
X97431882Y-57720169D01*
X97394057Y-57654655D01*
X97394056Y-57654654D01*
X97394055Y-57654652D01*
X97360850Y-57621447D01*
X97339177Y-57569123D01*
X97349092Y-57532122D01*
X97357773Y-57517087D01*
X97369119Y-57497435D01*
X97393004Y-57408293D01*
X97393005Y-57408293D01*
X97393005Y-57316001D01*
X97393004Y-57316000D01*
X97389960Y-57304641D01*
X97369119Y-57226859D01*
X97369118Y-57226857D01*
X97330390Y-57159779D01*
X97322997Y-57103627D01*
X97342148Y-57070455D01*
X97370463Y-57042141D01*
X97416608Y-56962217D01*
X97440493Y-56873075D01*
X97440494Y-56873075D01*
X97440494Y-56780783D01*
X97440493Y-56780782D01*
X97416609Y-56691644D01*
X97416607Y-56691639D01*
X97370465Y-56611720D01*
X97370464Y-56611719D01*
X97370463Y-56611717D01*
X97305206Y-56546460D01*
X97305203Y-56546458D01*
X97305202Y-56546457D01*
X97225283Y-56500315D01*
X97225278Y-56500313D01*
X97136140Y-56476429D01*
X97136138Y-56476429D01*
X97043850Y-56476429D01*
X97043848Y-56476429D01*
X96954709Y-56500313D01*
X96954704Y-56500315D01*
X96950751Y-56502598D01*
X96894598Y-56509988D01*
X96849666Y-56475507D01*
X96839754Y-56438510D01*
X96839754Y-55681094D01*
X96861428Y-55628768D01*
X96913754Y-55607094D01*
X96966078Y-55628767D01*
G37*
%TD.AperFunction*%
%TA.AperFunction,Conductor*%
G36*
X93217778Y-49233252D02*
G01*
X93233104Y-49245012D01*
X93365438Y-49377346D01*
X93365441Y-49377350D01*
X93434500Y-49446409D01*
X93434499Y-49446409D01*
X93494405Y-49471221D01*
X93494407Y-49471221D01*
X93507796Y-49476768D01*
X93519217Y-49481500D01*
X93519218Y-49481500D01*
X93519219Y-49481500D01*
X98815893Y-49481500D01*
X98815901Y-49481501D01*
X98824513Y-49481501D01*
X98916213Y-49481501D01*
X98965839Y-49460944D01*
X99000931Y-49446409D01*
X99065772Y-49381568D01*
X99065772Y-49381567D01*
X99076178Y-49371161D01*
X99076179Y-49371158D01*
X99112175Y-49335162D01*
X99164501Y-49313490D01*
X99216827Y-49335165D01*
X99238500Y-49387490D01*
X99238500Y-50095288D01*
X99216826Y-50147614D01*
X96413844Y-52950595D01*
X96406003Y-52969528D01*
X96406002Y-52969530D01*
X96378753Y-53035312D01*
X96378753Y-53135624D01*
X96378754Y-53135633D01*
X96378754Y-53827506D01*
X96378753Y-53827520D01*
X96378753Y-53833478D01*
X96378753Y-53925178D01*
X96398722Y-53973386D01*
X96413845Y-54009896D01*
X96469997Y-54066048D01*
X96473272Y-54070475D01*
X96478889Y-54093019D01*
X96487780Y-54114483D01*
X96487780Y-54219279D01*
X96466106Y-54271605D01*
X96413845Y-54323865D01*
X96403689Y-54348385D01*
X96378753Y-54408583D01*
X96378753Y-54508895D01*
X96378754Y-54508904D01*
X96378754Y-57094462D01*
X96357080Y-57146788D01*
X96304754Y-57168462D01*
X96252428Y-57146788D01*
X94154481Y-55048841D01*
X94154481Y-55048840D01*
X94079233Y-54973592D01*
X94079229Y-54973589D01*
X94035482Y-54955469D01*
X93994514Y-54938499D01*
X93902814Y-54938499D01*
X93894202Y-54938499D01*
X93894194Y-54938500D01*
X92330763Y-54938500D01*
X92278437Y-54916826D01*
X92256763Y-54864500D01*
X92266677Y-54827501D01*
X92276611Y-54810293D01*
X92276610Y-54810293D01*
X92276614Y-54810288D01*
X92300499Y-54721146D01*
X92300500Y-54721146D01*
X92300500Y-54628854D01*
X92300499Y-54628853D01*
X92299899Y-54626615D01*
X92285551Y-54573067D01*
X92276615Y-54539715D01*
X92276613Y-54539710D01*
X92230471Y-54459791D01*
X92230470Y-54459790D01*
X92230469Y-54459788D01*
X92165212Y-54394531D01*
X92165209Y-54394529D01*
X92165208Y-54394528D01*
X92085289Y-54348386D01*
X92085284Y-54348384D01*
X91996146Y-54324500D01*
X91996144Y-54324500D01*
X91903856Y-54324500D01*
X91903854Y-54324500D01*
X91814715Y-54348384D01*
X91814710Y-54348386D01*
X91734791Y-54394528D01*
X91706492Y-54422827D01*
X91654167Y-54444500D01*
X91538993Y-54444500D01*
X91486667Y-54422826D01*
X91464993Y-54370500D01*
X91478795Y-54329847D01*
X91478044Y-54329413D01*
X91480226Y-54325632D01*
X91480291Y-54325443D01*
X91480463Y-54325217D01*
X91480469Y-54325212D01*
X91526614Y-54245288D01*
X91550499Y-54156146D01*
X91550500Y-54156146D01*
X91550500Y-54063854D01*
X91549867Y-54059045D01*
X91552579Y-54058687D01*
X91558813Y-54011211D01*
X91570582Y-53995866D01*
X91745276Y-53821174D01*
X91797602Y-53799500D01*
X93436057Y-53799500D01*
X93436065Y-53799501D01*
X93444677Y-53799501D01*
X93536377Y-53799501D01*
X93575280Y-53783386D01*
X93586001Y-53778945D01*
X93586003Y-53778944D01*
X93621095Y-53764409D01*
X93685936Y-53699568D01*
X93685936Y-53699567D01*
X93696341Y-53689162D01*
X93696342Y-53689159D01*
X94464329Y-52921174D01*
X94516655Y-52899500D01*
X95306530Y-52899500D01*
X95306538Y-52899501D01*
X95315150Y-52899501D01*
X95406849Y-52899501D01*
X95406850Y-52899501D01*
X95452791Y-52880471D01*
X95467423Y-52874410D01*
X95467425Y-52874409D01*
X95491568Y-52864409D01*
X95556409Y-52799568D01*
X95556409Y-52799567D01*
X95566814Y-52789162D01*
X95566815Y-52789159D01*
X97572427Y-50783550D01*
X97624753Y-50761876D01*
X97804153Y-50761876D01*
X97804161Y-50761877D01*
X97812773Y-50761877D01*
X97904473Y-50761877D01*
X97954099Y-50741320D01*
X97989191Y-50726785D01*
X98054032Y-50661944D01*
X98054032Y-50661943D01*
X98064437Y-50651538D01*
X98064439Y-50651535D01*
X98241662Y-50474312D01*
X98241664Y-50474312D01*
X98261214Y-50454761D01*
X98261219Y-50454759D01*
X98294381Y-50435613D01*
X98365288Y-50416614D01*
X98445212Y-50370469D01*
X98510469Y-50305212D01*
X98556614Y-50225288D01*
X98580499Y-50136146D01*
X98580500Y-50136146D01*
X98580500Y-50043854D01*
X98580499Y-50043853D01*
X98556615Y-49954715D01*
X98556613Y-49954710D01*
X98510471Y-49874791D01*
X98510470Y-49874790D01*
X98510469Y-49874788D01*
X98445212Y-49809531D01*
X98445209Y-49809529D01*
X98445208Y-49809528D01*
X98365289Y-49763386D01*
X98365284Y-49763384D01*
X98276146Y-49739500D01*
X98276144Y-49739500D01*
X98183856Y-49739500D01*
X98183854Y-49739500D01*
X98094715Y-49763384D01*
X98094710Y-49763386D01*
X98014790Y-49809529D01*
X98002182Y-49822136D01*
X97949854Y-49843807D01*
X97899179Y-49822815D01*
X97899149Y-49822855D01*
X97899000Y-49822740D01*
X97897534Y-49822133D01*
X97895308Y-49819907D01*
X97895305Y-49819905D01*
X97895304Y-49819904D01*
X97815385Y-49773762D01*
X97815380Y-49773760D01*
X97726242Y-49749876D01*
X97726240Y-49749876D01*
X97633952Y-49749876D01*
X97633950Y-49749876D01*
X97544811Y-49773760D01*
X97544806Y-49773762D01*
X97464887Y-49819904D01*
X97399624Y-49885167D01*
X97353482Y-49965086D01*
X97353480Y-49965091D01*
X97329596Y-50054229D01*
X97329596Y-50146522D01*
X97353480Y-50235660D01*
X97353482Y-50235665D01*
X97367134Y-50259310D01*
X97369654Y-50278451D01*
X97377048Y-50296285D01*
X97373220Y-50305535D01*
X97374527Y-50315462D01*
X97355392Y-50348618D01*
X97337802Y-50366220D01*
X97337784Y-50366238D01*
X95287198Y-52416826D01*
X95234872Y-52438500D01*
X94344677Y-52438500D01*
X94326222Y-52446144D01*
X94259961Y-52473589D01*
X94259954Y-52473594D01*
X94246579Y-52486969D01*
X94194253Y-52508642D01*
X94141928Y-52486966D01*
X94129637Y-52468566D01*
X94129039Y-52468912D01*
X94080471Y-52384791D01*
X94080470Y-52384790D01*
X94080469Y-52384788D01*
X94015212Y-52319531D01*
X94015209Y-52319529D01*
X94015208Y-52319528D01*
X93935289Y-52273386D01*
X93935284Y-52273384D01*
X93846146Y-52249500D01*
X93846144Y-52249500D01*
X93753856Y-52249500D01*
X93753854Y-52249500D01*
X93664715Y-52273384D01*
X93664710Y-52273386D01*
X93584791Y-52319528D01*
X93519528Y-52384791D01*
X93473386Y-52464710D01*
X93473384Y-52464715D01*
X93449500Y-52553853D01*
X93449500Y-52646146D01*
X93473384Y-52735284D01*
X93473386Y-52735289D01*
X93519528Y-52815208D01*
X93519529Y-52815209D01*
X93519531Y-52815212D01*
X93584788Y-52880469D01*
X93584790Y-52880470D01*
X93584791Y-52880471D01*
X93668912Y-52929039D01*
X93667887Y-52930813D01*
X93703011Y-52965942D01*
X93703007Y-53022579D01*
X93686968Y-53046582D01*
X93416725Y-53316826D01*
X93364399Y-53338500D01*
X91725943Y-53338500D01*
X91725935Y-53338499D01*
X91717323Y-53338499D01*
X91625624Y-53338499D01*
X91590533Y-53353034D01*
X91540906Y-53373590D01*
X91169435Y-53745061D01*
X91136262Y-53764214D01*
X91092653Y-53775899D01*
X91036500Y-53768506D01*
X91002021Y-53723573D01*
X90999500Y-53704420D01*
X90999500Y-52956778D01*
X91021174Y-52904452D01*
X91073500Y-52882778D01*
X91110501Y-52892693D01*
X91169249Y-52926612D01*
X91169251Y-52926612D01*
X91169253Y-52926614D01*
X91169254Y-52926614D01*
X91169256Y-52926615D01*
X91213825Y-52938557D01*
X91258394Y-52950499D01*
X91258395Y-52950500D01*
X91258397Y-52950500D01*
X91350687Y-52950500D01*
X91350687Y-52950499D01*
X91439829Y-52926614D01*
X91519753Y-52880469D01*
X91585010Y-52815212D01*
X91631155Y-52735288D01*
X91655040Y-52646146D01*
X91655041Y-52646146D01*
X91655041Y-52553854D01*
X91655040Y-52553853D01*
X92049500Y-52553853D01*
X92049500Y-52646146D01*
X92073384Y-52735284D01*
X92073386Y-52735289D01*
X92119528Y-52815208D01*
X92119529Y-52815209D01*
X92119531Y-52815212D01*
X92184788Y-52880469D01*
X92184790Y-52880470D01*
X92184791Y-52880471D01*
X92264710Y-52926613D01*
X92264712Y-52926614D01*
X92264713Y-52926614D01*
X92264715Y-52926615D01*
X92309284Y-52938557D01*
X92353853Y-52950499D01*
X92353854Y-52950500D01*
X92353856Y-52950500D01*
X92446146Y-52950500D01*
X92446146Y-52950499D01*
X92535288Y-52926614D01*
X92615212Y-52880469D01*
X92680469Y-52815212D01*
X92726614Y-52735288D01*
X92750499Y-52646146D01*
X92750500Y-52646146D01*
X92750500Y-52553854D01*
X92750499Y-52553853D01*
X92726615Y-52464715D01*
X92726613Y-52464710D01*
X92680471Y-52384791D01*
X92680470Y-52384790D01*
X92680469Y-52384788D01*
X92615212Y-52319531D01*
X92615209Y-52319529D01*
X92615208Y-52319528D01*
X92535289Y-52273386D01*
X92535284Y-52273384D01*
X92446146Y-52249500D01*
X92446144Y-52249500D01*
X92353856Y-52249500D01*
X92353854Y-52249500D01*
X92264715Y-52273384D01*
X92264710Y-52273386D01*
X92184791Y-52319528D01*
X92119528Y-52384791D01*
X92073386Y-52464710D01*
X92073384Y-52464715D01*
X92049500Y-52553853D01*
X91655040Y-52553853D01*
X91631156Y-52464715D01*
X91631154Y-52464710D01*
X91585012Y-52384791D01*
X91585011Y-52384790D01*
X91585010Y-52384788D01*
X91519753Y-52319531D01*
X91519750Y-52319529D01*
X91519749Y-52319528D01*
X91464878Y-52287848D01*
X91458790Y-52279914D01*
X91449552Y-52276088D01*
X91442159Y-52258240D01*
X91430399Y-52242914D01*
X91431704Y-52232999D01*
X91427878Y-52223762D01*
X91435270Y-52205915D01*
X91437792Y-52186762D01*
X91449548Y-52171440D01*
X91540158Y-52080831D01*
X91540162Y-52080828D01*
X91550567Y-52070423D01*
X91550568Y-52070423D01*
X91615409Y-52005582D01*
X91633331Y-51962313D01*
X91650501Y-51920864D01*
X91650501Y-51829165D01*
X91650501Y-51823207D01*
X91650500Y-51823193D01*
X91650500Y-50953853D01*
X95504045Y-50953853D01*
X95504045Y-51046146D01*
X95527929Y-51135284D01*
X95527931Y-51135289D01*
X95574073Y-51215208D01*
X95574074Y-51215209D01*
X95574076Y-51215212D01*
X95639333Y-51280469D01*
X95639335Y-51280470D01*
X95639336Y-51280471D01*
X95719255Y-51326613D01*
X95719257Y-51326614D01*
X95719258Y-51326614D01*
X95719260Y-51326615D01*
X95760929Y-51337780D01*
X95808398Y-51350499D01*
X95808399Y-51350500D01*
X95808401Y-51350500D01*
X95900691Y-51350500D01*
X95900691Y-51350499D01*
X95989833Y-51326614D01*
X96069757Y-51280469D01*
X96135014Y-51215212D01*
X96181159Y-51135288D01*
X96205044Y-51046146D01*
X96205045Y-51046146D01*
X96205045Y-50953854D01*
X96205044Y-50953853D01*
X96181160Y-50864715D01*
X96181158Y-50864710D01*
X96135016Y-50784791D01*
X96135015Y-50784790D01*
X96135014Y-50784788D01*
X96069757Y-50719531D01*
X96069754Y-50719529D01*
X96069753Y-50719528D01*
X95989834Y-50673386D01*
X95989829Y-50673384D01*
X95900691Y-50649500D01*
X95900689Y-50649500D01*
X95808401Y-50649500D01*
X95808399Y-50649500D01*
X95719260Y-50673384D01*
X95719255Y-50673386D01*
X95639336Y-50719528D01*
X95574073Y-50784791D01*
X95527931Y-50864710D01*
X95527929Y-50864715D01*
X95504045Y-50953853D01*
X91650500Y-50953853D01*
X91650500Y-50655128D01*
X91672174Y-50602802D01*
X91724500Y-50581128D01*
X91776826Y-50602802D01*
X91925370Y-50751346D01*
X91925373Y-50751350D01*
X91994432Y-50820409D01*
X91994431Y-50820409D01*
X92054337Y-50845221D01*
X92054339Y-50845221D01*
X92067728Y-50850768D01*
X92079149Y-50855500D01*
X92079150Y-50855500D01*
X92079151Y-50855500D01*
X94334598Y-50855500D01*
X94334606Y-50855501D01*
X94343218Y-50855501D01*
X94434918Y-50855501D01*
X94484544Y-50834944D01*
X94519636Y-50820409D01*
X94584477Y-50755568D01*
X94584477Y-50755567D01*
X94594882Y-50745162D01*
X94594884Y-50745159D01*
X94671366Y-50668676D01*
X94723691Y-50647003D01*
X94742841Y-50649524D01*
X94768415Y-50656377D01*
X94860705Y-50656377D01*
X94860705Y-50656376D01*
X94949847Y-50632491D01*
X95029771Y-50586346D01*
X95095028Y-50521089D01*
X95141173Y-50441165D01*
X95165058Y-50352023D01*
X95165059Y-50352023D01*
X95165059Y-50259731D01*
X95165058Y-50259730D01*
X95164945Y-50259310D01*
X95141173Y-50170589D01*
X95127278Y-50146522D01*
X95095030Y-50090668D01*
X95095029Y-50090667D01*
X95095028Y-50090665D01*
X95029771Y-50025408D01*
X95029768Y-50025406D01*
X95029767Y-50025405D01*
X94949848Y-49979263D01*
X94949843Y-49979261D01*
X94860705Y-49955377D01*
X94860703Y-49955377D01*
X94768415Y-49955377D01*
X94768413Y-49955377D01*
X94679274Y-49979261D01*
X94679269Y-49979263D01*
X94599350Y-50025405D01*
X94534087Y-50090668D01*
X94487945Y-50170587D01*
X94487944Y-50170590D01*
X94482257Y-50191814D01*
X94463105Y-50224985D01*
X94315266Y-50372826D01*
X94262941Y-50394500D01*
X92251128Y-50394500D01*
X92198802Y-50372826D01*
X91941174Y-50115198D01*
X91919500Y-50062872D01*
X91919500Y-49886427D01*
X91941174Y-49834101D01*
X91993500Y-49812427D01*
X92045824Y-49834100D01*
X92084625Y-49872901D01*
X92084627Y-49872902D01*
X92084628Y-49872903D01*
X92164547Y-49919045D01*
X92164549Y-49919046D01*
X92164550Y-49919046D01*
X92164552Y-49919047D01*
X92203183Y-49929398D01*
X92253690Y-49942931D01*
X92253691Y-49942932D01*
X92253693Y-49942932D01*
X92345983Y-49942932D01*
X92345983Y-49942931D01*
X92435125Y-49919046D01*
X92515049Y-49872901D01*
X92580306Y-49807644D01*
X92626451Y-49727720D01*
X92650336Y-49638578D01*
X92650337Y-49638578D01*
X92650337Y-49546288D01*
X92647500Y-49535700D01*
X92654893Y-49479548D01*
X92699827Y-49445069D01*
X92738131Y-49445069D01*
X92748696Y-49447900D01*
X92758396Y-49450500D01*
X92758397Y-49450500D01*
X92850687Y-49450500D01*
X92850687Y-49450499D01*
X92939829Y-49426614D01*
X93019753Y-49380469D01*
X93085010Y-49315212D01*
X93116692Y-49260337D01*
X93161625Y-49225859D01*
X93217778Y-49233252D01*
G37*
%TD.AperFunction*%
%TA.AperFunction,Conductor*%
G36*
X106977826Y-30222174D02*
G01*
X106999500Y-30274500D01*
X106999500Y-31725168D01*
X106977826Y-31777494D01*
X106925500Y-31799168D01*
X106873175Y-31777494D01*
X106815212Y-31719531D01*
X106815209Y-31719529D01*
X106815208Y-31719528D01*
X106735289Y-31673386D01*
X106735284Y-31673384D01*
X106646146Y-31649500D01*
X106646144Y-31649500D01*
X106553856Y-31649500D01*
X106553854Y-31649500D01*
X106464715Y-31673384D01*
X106464710Y-31673386D01*
X106384791Y-31719528D01*
X106319527Y-31784792D01*
X106319527Y-31784793D01*
X106314937Y-31792742D01*
X106270001Y-31827217D01*
X106213849Y-31819820D01*
X106186186Y-31788268D01*
X106185163Y-31788860D01*
X106136595Y-31704739D01*
X106136594Y-31704738D01*
X106136593Y-31704736D01*
X106071336Y-31639479D01*
X106071333Y-31639477D01*
X106071332Y-31639476D01*
X105991413Y-31593334D01*
X105991408Y-31593332D01*
X105902270Y-31569448D01*
X105902268Y-31569448D01*
X105809980Y-31569448D01*
X105809978Y-31569448D01*
X105720839Y-31593332D01*
X105720834Y-31593334D01*
X105640915Y-31639476D01*
X105575652Y-31704739D01*
X105529510Y-31784658D01*
X105529508Y-31784663D01*
X105505624Y-31873801D01*
X105505624Y-31966094D01*
X105529508Y-32055232D01*
X105529510Y-32055237D01*
X105575652Y-32135156D01*
X105575653Y-32135157D01*
X105575655Y-32135160D01*
X105640912Y-32200417D01*
X105640914Y-32200418D01*
X105640915Y-32200419D01*
X105720834Y-32246561D01*
X105720836Y-32246562D01*
X105720837Y-32246562D01*
X105720839Y-32246563D01*
X105765408Y-32258505D01*
X105809977Y-32270447D01*
X105809978Y-32270448D01*
X105809980Y-32270448D01*
X105902270Y-32270448D01*
X105902270Y-32270447D01*
X105991412Y-32246562D01*
X106071336Y-32200417D01*
X106136593Y-32135160D01*
X106141182Y-32127212D01*
X106186115Y-32092732D01*
X106242267Y-32100123D01*
X106269939Y-32131678D01*
X106270961Y-32131088D01*
X106319528Y-32215208D01*
X106319529Y-32215209D01*
X106319531Y-32215212D01*
X106384788Y-32280469D01*
X106384790Y-32280470D01*
X106384791Y-32280471D01*
X106464710Y-32326613D01*
X106464712Y-32326614D01*
X106464713Y-32326614D01*
X106464715Y-32326615D01*
X106509284Y-32338557D01*
X106553853Y-32350499D01*
X106553854Y-32350500D01*
X106553856Y-32350500D01*
X106646146Y-32350500D01*
X106646146Y-32350499D01*
X106735288Y-32326614D01*
X106815212Y-32280469D01*
X106873175Y-32222505D01*
X106925500Y-32200832D01*
X106977826Y-32222506D01*
X106999500Y-32274832D01*
X106999500Y-32925168D01*
X106977826Y-32977494D01*
X106925500Y-32999168D01*
X106873175Y-32977494D01*
X106815212Y-32919531D01*
X106815209Y-32919529D01*
X106815208Y-32919528D01*
X106735289Y-32873386D01*
X106735284Y-32873384D01*
X106646146Y-32849500D01*
X106646144Y-32849500D01*
X106553856Y-32849500D01*
X106553854Y-32849500D01*
X106464715Y-32873384D01*
X106464710Y-32873386D01*
X106384791Y-32919528D01*
X106319528Y-32984791D01*
X106305191Y-33009623D01*
X106260256Y-33044100D01*
X106204104Y-33036706D01*
X106188784Y-33024950D01*
X106157014Y-32993180D01*
X106157011Y-32993178D01*
X106157010Y-32993177D01*
X106077091Y-32947035D01*
X106077086Y-32947033D01*
X105987948Y-32923149D01*
X105987946Y-32923149D01*
X105895658Y-32923149D01*
X105895656Y-32923149D01*
X105806517Y-32947033D01*
X105806512Y-32947035D01*
X105726593Y-32993177D01*
X105661330Y-33058440D01*
X105615188Y-33138359D01*
X105615186Y-33138364D01*
X105591302Y-33227502D01*
X105591302Y-33319795D01*
X105615186Y-33408933D01*
X105615188Y-33408938D01*
X105661330Y-33488857D01*
X105661331Y-33488858D01*
X105661333Y-33488861D01*
X105726590Y-33554118D01*
X105726592Y-33554119D01*
X105726593Y-33554120D01*
X105734020Y-33558408D01*
X105806514Y-33600263D01*
X105806515Y-33600263D01*
X105806517Y-33600264D01*
X105851086Y-33612206D01*
X105895655Y-33624148D01*
X105895656Y-33624149D01*
X105895658Y-33624149D01*
X105987948Y-33624149D01*
X105987948Y-33624148D01*
X106077090Y-33600263D01*
X106157014Y-33554118D01*
X106222271Y-33488861D01*
X106236609Y-33464028D01*
X106281542Y-33429549D01*
X106337694Y-33436941D01*
X106353016Y-33448697D01*
X106384788Y-33480469D01*
X106384790Y-33480470D01*
X106384791Y-33480471D01*
X106399314Y-33488856D01*
X106464712Y-33526614D01*
X106464713Y-33526614D01*
X106464715Y-33526615D01*
X106509284Y-33538557D01*
X106553853Y-33550499D01*
X106553854Y-33550500D01*
X106553856Y-33550500D01*
X106646146Y-33550500D01*
X106646146Y-33550499D01*
X106735288Y-33526614D01*
X106815212Y-33480469D01*
X106873175Y-33422505D01*
X106925500Y-33400832D01*
X106977826Y-33422506D01*
X106999500Y-33474832D01*
X106999500Y-34325168D01*
X106977826Y-34377494D01*
X106925500Y-34399168D01*
X106873175Y-34377494D01*
X106815212Y-34319531D01*
X106815209Y-34319529D01*
X106815208Y-34319528D01*
X106735289Y-34273386D01*
X106735284Y-34273384D01*
X106646146Y-34249500D01*
X106646144Y-34249500D01*
X106553856Y-34249500D01*
X106553854Y-34249500D01*
X106464715Y-34273384D01*
X106464710Y-34273386D01*
X106384791Y-34319528D01*
X106319529Y-34384790D01*
X106290779Y-34434587D01*
X106245845Y-34469065D01*
X106189692Y-34461672D01*
X106174371Y-34449915D01*
X106122743Y-34398287D01*
X106122740Y-34398285D01*
X106122739Y-34398284D01*
X106042820Y-34352142D01*
X106042815Y-34352140D01*
X105953677Y-34328256D01*
X105953675Y-34328256D01*
X105861387Y-34328256D01*
X105861385Y-34328256D01*
X105772246Y-34352140D01*
X105772241Y-34352142D01*
X105692322Y-34398284D01*
X105627059Y-34463547D01*
X105580917Y-34543466D01*
X105580915Y-34543471D01*
X105557031Y-34632609D01*
X105557031Y-34724902D01*
X105580915Y-34814040D01*
X105580917Y-34814045D01*
X105627059Y-34893964D01*
X105627060Y-34893965D01*
X105627062Y-34893968D01*
X105692319Y-34959225D01*
X105772243Y-35005370D01*
X105772244Y-35005370D01*
X105772246Y-35005371D01*
X105816815Y-35017313D01*
X105861384Y-35029255D01*
X105861385Y-35029256D01*
X105861387Y-35029256D01*
X105953677Y-35029256D01*
X105953677Y-35029255D01*
X106042819Y-35005370D01*
X106122743Y-34959225D01*
X106188000Y-34893968D01*
X106216751Y-34844169D01*
X106261683Y-34809691D01*
X106317836Y-34817083D01*
X106333158Y-34828839D01*
X106384788Y-34880469D01*
X106384790Y-34880470D01*
X106384791Y-34880471D01*
X106464710Y-34926613D01*
X106464712Y-34926614D01*
X106464713Y-34926614D01*
X106464715Y-34926615D01*
X106509284Y-34938557D01*
X106553853Y-34950499D01*
X106553854Y-34950500D01*
X106553856Y-34950500D01*
X106646146Y-34950500D01*
X106646146Y-34950499D01*
X106735288Y-34926614D01*
X106815212Y-34880469D01*
X106873175Y-34822505D01*
X106925500Y-34800832D01*
X106977826Y-34822506D01*
X106999500Y-34874832D01*
X106999500Y-38825168D01*
X106977826Y-38877494D01*
X106925500Y-38899168D01*
X106873175Y-38877494D01*
X106815212Y-38819531D01*
X106815209Y-38819529D01*
X106815208Y-38819528D01*
X106735289Y-38773386D01*
X106735284Y-38773384D01*
X106646146Y-38749500D01*
X106646144Y-38749500D01*
X106553856Y-38749500D01*
X106553854Y-38749500D01*
X106464715Y-38773384D01*
X106464710Y-38773386D01*
X106384791Y-38819528D01*
X106319528Y-38884791D01*
X106273386Y-38964710D01*
X106273384Y-38964715D01*
X106249500Y-39053853D01*
X106249500Y-39146146D01*
X106273384Y-39235284D01*
X106273386Y-39235289D01*
X106319528Y-39315208D01*
X106319529Y-39315209D01*
X106319531Y-39315212D01*
X106384788Y-39380469D01*
X106384790Y-39380470D01*
X106384791Y-39380471D01*
X106394598Y-39386133D01*
X106464712Y-39426614D01*
X106464713Y-39426614D01*
X106464715Y-39426615D01*
X106509284Y-39438557D01*
X106553853Y-39450499D01*
X106553854Y-39450500D01*
X106553856Y-39450500D01*
X106646146Y-39450500D01*
X106646146Y-39450499D01*
X106735288Y-39426614D01*
X106815212Y-39380469D01*
X106873175Y-39322505D01*
X106925500Y-39300832D01*
X106977826Y-39322506D01*
X106999500Y-39374832D01*
X106999500Y-48818959D01*
X106977826Y-48871285D01*
X106925500Y-48892959D01*
X106873174Y-48871285D01*
X106863971Y-48860071D01*
X106862091Y-48857258D01*
X106821463Y-48796453D01*
X106724547Y-48699537D01*
X106717387Y-48694753D01*
X106673170Y-48665208D01*
X106610585Y-48623390D01*
X106610581Y-48623388D01*
X106610579Y-48623387D01*
X106610580Y-48623387D01*
X106483961Y-48570940D01*
X106483950Y-48570937D01*
X106382680Y-48550793D01*
X106349530Y-48544200D01*
X106212470Y-48544200D01*
X106185877Y-48549489D01*
X106078049Y-48570937D01*
X106078038Y-48570940D01*
X105951419Y-48623387D01*
X105837453Y-48699536D01*
X105837452Y-48699538D01*
X105740538Y-48796452D01*
X105740536Y-48796453D01*
X105664387Y-48910419D01*
X105611940Y-49037038D01*
X105611937Y-49037049D01*
X105585200Y-49171470D01*
X105585200Y-49308529D01*
X105611937Y-49442950D01*
X105611940Y-49442961D01*
X105664387Y-49569580D01*
X105664389Y-49569583D01*
X105664390Y-49569585D01*
X105740537Y-49683547D01*
X105837453Y-49780463D01*
X105951415Y-49856610D01*
X105951420Y-49856612D01*
X105951419Y-49856612D01*
X106074815Y-49907724D01*
X106078043Y-49909061D01*
X106212470Y-49935800D01*
X106212471Y-49935800D01*
X106349529Y-49935800D01*
X106349530Y-49935800D01*
X106483957Y-49909061D01*
X106610585Y-49856610D01*
X106724547Y-49780463D01*
X106821463Y-49683547D01*
X106863972Y-49619926D01*
X106911063Y-49588462D01*
X106966612Y-49599511D01*
X106998078Y-49646603D01*
X106999500Y-49661040D01*
X106999500Y-50740022D01*
X106977826Y-50792348D01*
X106925500Y-50814022D01*
X106888500Y-50804108D01*
X106835289Y-50773386D01*
X106835284Y-50773384D01*
X106746146Y-50749500D01*
X106746144Y-50749500D01*
X106653856Y-50749500D01*
X106653854Y-50749500D01*
X106564715Y-50773384D01*
X106564710Y-50773386D01*
X106484791Y-50819528D01*
X106419528Y-50884791D01*
X106373386Y-50964710D01*
X106373384Y-50964715D01*
X106349500Y-51053853D01*
X106349500Y-51146146D01*
X106373384Y-51235284D01*
X106373386Y-51235289D01*
X106419528Y-51315208D01*
X106419529Y-51315209D01*
X106419531Y-51315212D01*
X106484788Y-51380469D01*
X106484790Y-51380470D01*
X106484791Y-51380471D01*
X106564710Y-51426613D01*
X106564712Y-51426614D01*
X106564713Y-51426614D01*
X106564715Y-51426615D01*
X106609284Y-51438557D01*
X106653853Y-51450499D01*
X106653854Y-51450500D01*
X106653856Y-51450500D01*
X106746146Y-51450500D01*
X106746146Y-51450499D01*
X106835288Y-51426614D01*
X106888499Y-51395891D01*
X106944652Y-51388498D01*
X106989585Y-51422976D01*
X106999500Y-51459977D01*
X106999500Y-52225168D01*
X106977826Y-52277494D01*
X106925500Y-52299168D01*
X106873175Y-52277494D01*
X106855212Y-52259531D01*
X106855209Y-52259529D01*
X106855208Y-52259528D01*
X106775289Y-52213386D01*
X106775284Y-52213384D01*
X106686146Y-52189500D01*
X106686144Y-52189500D01*
X106593856Y-52189500D01*
X106593854Y-52189500D01*
X106504715Y-52213384D01*
X106504710Y-52213386D01*
X106424791Y-52259528D01*
X106359528Y-52324791D01*
X106313386Y-52404710D01*
X106313384Y-52404715D01*
X106289500Y-52493853D01*
X106289500Y-52586146D01*
X106313384Y-52675284D01*
X106313386Y-52675289D01*
X106359528Y-52755208D01*
X106359529Y-52755209D01*
X106359531Y-52755212D01*
X106424788Y-52820469D01*
X106504712Y-52866614D01*
X106504713Y-52866614D01*
X106504715Y-52866615D01*
X106533796Y-52874407D01*
X106593853Y-52890499D01*
X106593854Y-52890500D01*
X106593856Y-52890500D01*
X106686146Y-52890500D01*
X106686146Y-52890499D01*
X106775288Y-52866614D01*
X106855212Y-52820469D01*
X106873175Y-52802505D01*
X106925500Y-52780832D01*
X106977826Y-52802506D01*
X106999500Y-52854832D01*
X106999500Y-54025168D01*
X106977826Y-54077494D01*
X106925500Y-54099168D01*
X106873175Y-54077494D01*
X106815212Y-54019531D01*
X106815209Y-54019529D01*
X106815208Y-54019528D01*
X106735289Y-53973386D01*
X106735284Y-53973384D01*
X106646146Y-53949500D01*
X106646144Y-53949500D01*
X106606128Y-53949500D01*
X106553802Y-53927826D01*
X106049517Y-53423541D01*
X106049517Y-53423540D01*
X106014049Y-53388072D01*
X105974268Y-53348291D01*
X105974266Y-53348290D01*
X105974264Y-53348289D01*
X105939176Y-53333755D01*
X105939176Y-53333754D01*
X105889550Y-53313199D01*
X105797850Y-53313199D01*
X105789238Y-53313199D01*
X105789230Y-53313200D01*
X104901428Y-53313200D01*
X104849102Y-53291526D01*
X104827428Y-53239200D01*
X104849102Y-53186874D01*
X105070033Y-52965942D01*
X105151159Y-52884815D01*
X105151162Y-52884814D01*
X105161567Y-52874409D01*
X105161568Y-52874409D01*
X105226409Y-52809568D01*
X105248924Y-52755212D01*
X105261501Y-52724849D01*
X105261501Y-52633150D01*
X105261501Y-52627192D01*
X105261500Y-52627178D01*
X105261500Y-48185600D01*
X105283173Y-48133275D01*
X106057254Y-47359193D01*
X106090424Y-47340043D01*
X106124624Y-47330880D01*
X106204548Y-47284735D01*
X106269805Y-47219478D01*
X106300562Y-47166206D01*
X106345494Y-47131729D01*
X106383800Y-47131729D01*
X106414542Y-47139966D01*
X106453853Y-47150499D01*
X106453854Y-47150500D01*
X106453856Y-47150500D01*
X106546146Y-47150500D01*
X106546146Y-47150499D01*
X106635288Y-47126614D01*
X106715212Y-47080469D01*
X106780469Y-47015212D01*
X106826614Y-46935288D01*
X106850499Y-46846146D01*
X106850500Y-46846146D01*
X106850500Y-46753854D01*
X106850499Y-46753853D01*
X106849464Y-46749992D01*
X106837633Y-46705836D01*
X106826615Y-46664715D01*
X106826613Y-46664710D01*
X106780471Y-46584791D01*
X106780470Y-46584790D01*
X106780469Y-46584788D01*
X106715212Y-46519531D01*
X106715209Y-46519529D01*
X106715208Y-46519528D01*
X106635289Y-46473386D01*
X106635284Y-46473384D01*
X106546146Y-46449500D01*
X106546144Y-46449500D01*
X106453856Y-46449500D01*
X106453854Y-46449500D01*
X106364715Y-46473384D01*
X106364710Y-46473386D01*
X106284791Y-46519528D01*
X106219527Y-46584792D01*
X106188773Y-46638059D01*
X106143840Y-46672537D01*
X106105536Y-46672537D01*
X106035480Y-46653766D01*
X105943192Y-46653766D01*
X105943190Y-46653766D01*
X105854051Y-46677650D01*
X105854046Y-46677652D01*
X105774127Y-46723794D01*
X105708864Y-46789057D01*
X105662722Y-46868976D01*
X105662720Y-46868981D01*
X105638836Y-46958119D01*
X105638836Y-47050412D01*
X105643680Y-47068492D01*
X105642374Y-47078403D01*
X105646201Y-47087639D01*
X105638808Y-47105488D01*
X105636286Y-47124644D01*
X105624529Y-47139966D01*
X105611729Y-47152767D01*
X105559404Y-47174443D01*
X105507077Y-47152771D01*
X105487923Y-47119598D01*
X105486614Y-47114712D01*
X105440469Y-47034788D01*
X105375212Y-46969531D01*
X105375209Y-46969529D01*
X105375208Y-46969528D01*
X105295289Y-46923386D01*
X105295284Y-46923384D01*
X105206146Y-46899500D01*
X105206144Y-46899500D01*
X105113856Y-46899500D01*
X105113854Y-46899500D01*
X105024715Y-46923384D01*
X105024710Y-46923386D01*
X104944791Y-46969528D01*
X104879528Y-47034791D01*
X104833386Y-47114710D01*
X104833384Y-47114715D01*
X104809500Y-47203853D01*
X104809500Y-47296146D01*
X104833384Y-47385284D01*
X104833386Y-47385289D01*
X104879528Y-47465208D01*
X104879529Y-47465209D01*
X104879531Y-47465212D01*
X104944788Y-47530469D01*
X105024712Y-47576614D01*
X105029597Y-47577923D01*
X105074529Y-47612401D01*
X105081922Y-47668554D01*
X105062769Y-47701727D01*
X104835590Y-47928905D01*
X104824696Y-47955209D01*
X104824695Y-47955212D01*
X104800950Y-48012536D01*
X104800499Y-48013624D01*
X104800499Y-48113934D01*
X104800500Y-48113943D01*
X104800500Y-48633224D01*
X104778826Y-48685550D01*
X104726500Y-48707224D01*
X104685388Y-48694753D01*
X104611997Y-48645715D01*
X104578585Y-48623390D01*
X104578583Y-48623389D01*
X104578580Y-48623387D01*
X104451961Y-48570940D01*
X104451950Y-48570937D01*
X104344682Y-48549600D01*
X104325708Y-48545826D01*
X104278616Y-48514361D01*
X104267567Y-48458813D01*
X104276061Y-48436246D01*
X104276125Y-48436134D01*
X104276614Y-48435288D01*
X104300499Y-48346146D01*
X104300500Y-48346146D01*
X104300500Y-48253854D01*
X104300499Y-48253853D01*
X104296671Y-48239568D01*
X104276614Y-48164712D01*
X104270920Y-48154850D01*
X104230471Y-48084791D01*
X104230470Y-48084790D01*
X104230469Y-48084788D01*
X104165212Y-48019531D01*
X104165209Y-48019529D01*
X104165208Y-48019528D01*
X104085289Y-47973386D01*
X104085284Y-47973384D01*
X103996146Y-47949500D01*
X103996144Y-47949500D01*
X103903856Y-47949500D01*
X103872585Y-47957879D01*
X103816433Y-47950486D01*
X103781954Y-47905553D01*
X103781500Y-47903858D01*
X103781500Y-47903856D01*
X103757614Y-47814712D01*
X103711469Y-47734788D01*
X103646212Y-47669531D01*
X103646209Y-47669529D01*
X103646208Y-47669528D01*
X103566289Y-47623386D01*
X103566284Y-47623384D01*
X103477146Y-47599500D01*
X103477144Y-47599500D01*
X103384856Y-47599500D01*
X103384854Y-47599500D01*
X103295715Y-47623384D01*
X103295710Y-47623386D01*
X103215791Y-47669528D01*
X103150528Y-47734791D01*
X103104386Y-47814710D01*
X103104384Y-47814715D01*
X103080500Y-47903853D01*
X103080500Y-47996146D01*
X103104384Y-48085284D01*
X103104386Y-48085289D01*
X103150528Y-48165208D01*
X103150529Y-48165209D01*
X103150531Y-48165212D01*
X103215788Y-48230469D01*
X103215790Y-48230470D01*
X103215791Y-48230471D01*
X103295710Y-48276613D01*
X103295712Y-48276614D01*
X103295713Y-48276614D01*
X103295715Y-48276615D01*
X103340284Y-48288557D01*
X103384853Y-48300499D01*
X103384854Y-48300500D01*
X103384856Y-48300500D01*
X103477144Y-48300500D01*
X103508413Y-48292121D01*
X103564564Y-48299512D01*
X103599044Y-48344444D01*
X103599044Y-48344446D01*
X103623384Y-48435284D01*
X103623386Y-48435289D01*
X103669528Y-48515208D01*
X103669529Y-48515209D01*
X103669531Y-48515212D01*
X103734788Y-48580469D01*
X103734790Y-48580470D01*
X103734791Y-48580471D01*
X103771555Y-48601697D01*
X103806034Y-48646631D01*
X103798641Y-48702783D01*
X103786881Y-48718109D01*
X103708538Y-48796452D01*
X103708536Y-48796453D01*
X103632387Y-48910419D01*
X103579940Y-49037038D01*
X103579937Y-49037049D01*
X103553200Y-49171470D01*
X103553200Y-49308529D01*
X103579937Y-49442950D01*
X103579940Y-49442961D01*
X103632387Y-49569580D01*
X103632389Y-49569583D01*
X103632390Y-49569585D01*
X103708537Y-49683547D01*
X103805453Y-49780463D01*
X103919415Y-49856610D01*
X103919420Y-49856612D01*
X103919419Y-49856612D01*
X104042815Y-49907724D01*
X104046043Y-49909061D01*
X104180470Y-49935800D01*
X104180471Y-49935800D01*
X104317529Y-49935800D01*
X104317530Y-49935800D01*
X104451957Y-49909061D01*
X104578585Y-49856610D01*
X104685389Y-49785245D01*
X104740937Y-49774197D01*
X104788029Y-49805663D01*
X104800500Y-49846775D01*
X104800500Y-52552872D01*
X104778826Y-52605198D01*
X103870644Y-53513379D01*
X103818318Y-53535053D01*
X103765992Y-53513379D01*
X103744318Y-53461053D01*
X103754233Y-53424052D01*
X103763949Y-53407224D01*
X103776614Y-53385288D01*
X103800499Y-53296146D01*
X103800500Y-53296146D01*
X103800500Y-53203854D01*
X103800499Y-53203853D01*
X103776615Y-53114715D01*
X103776613Y-53114710D01*
X103730471Y-53034791D01*
X103730470Y-53034790D01*
X103730469Y-53034788D01*
X103665212Y-52969531D01*
X103665209Y-52969529D01*
X103665208Y-52969528D01*
X103585289Y-52923386D01*
X103585284Y-52923384D01*
X103496146Y-52899500D01*
X103496144Y-52899500D01*
X103403856Y-52899500D01*
X103403854Y-52899500D01*
X103314715Y-52923384D01*
X103314710Y-52923386D01*
X103234791Y-52969528D01*
X103169528Y-53034791D01*
X103123386Y-53114710D01*
X103123384Y-53114715D01*
X103099500Y-53203853D01*
X103099500Y-53243872D01*
X103077826Y-53296198D01*
X103034261Y-53339763D01*
X102981935Y-53361437D01*
X99041802Y-53361437D01*
X98989477Y-53339764D01*
X98983467Y-53333754D01*
X98961181Y-53311468D01*
X98961178Y-53311466D01*
X98961177Y-53311465D01*
X98881258Y-53265323D01*
X98881253Y-53265321D01*
X98792115Y-53241437D01*
X98792113Y-53241437D01*
X98699825Y-53241437D01*
X98699823Y-53241437D01*
X98610684Y-53265321D01*
X98610679Y-53265323D01*
X98530760Y-53311465D01*
X98465497Y-53376728D01*
X98437586Y-53425072D01*
X98392652Y-53459551D01*
X98336500Y-53452158D01*
X98302021Y-53407224D01*
X98299500Y-53388072D01*
X98299500Y-52353853D01*
X99649500Y-52353853D01*
X99649500Y-52446146D01*
X99673384Y-52535284D01*
X99673386Y-52535289D01*
X99719528Y-52615208D01*
X99719529Y-52615209D01*
X99719531Y-52615212D01*
X99784788Y-52680469D01*
X99864712Y-52726614D01*
X99864713Y-52726614D01*
X99864715Y-52726615D01*
X99909284Y-52738557D01*
X99953853Y-52750499D01*
X99953854Y-52750500D01*
X99953856Y-52750500D01*
X100046146Y-52750500D01*
X100046146Y-52750499D01*
X100135288Y-52726614D01*
X100215212Y-52680469D01*
X100280469Y-52615212D01*
X100326614Y-52535288D01*
X100350500Y-52446144D01*
X100350500Y-52353856D01*
X100350500Y-52353854D01*
X100350499Y-52353853D01*
X100348433Y-52346144D01*
X100337200Y-52304219D01*
X100327538Y-52268159D01*
X100326615Y-52264715D01*
X100326613Y-52264710D01*
X100320345Y-52253853D01*
X101349500Y-52253853D01*
X101349500Y-52346146D01*
X101373384Y-52435284D01*
X101373386Y-52435289D01*
X101419528Y-52515208D01*
X101419529Y-52515209D01*
X101419531Y-52515212D01*
X101484788Y-52580469D01*
X101484790Y-52580470D01*
X101484791Y-52580471D01*
X101564710Y-52626613D01*
X101564712Y-52626614D01*
X101564713Y-52626614D01*
X101564715Y-52626615D01*
X101609284Y-52638557D01*
X101653853Y-52650499D01*
X101653854Y-52650500D01*
X101653856Y-52650500D01*
X101746146Y-52650500D01*
X101746146Y-52650499D01*
X101835288Y-52626614D01*
X101915212Y-52580469D01*
X101980469Y-52515212D01*
X102026614Y-52435288D01*
X102050499Y-52346146D01*
X102050500Y-52346146D01*
X102050500Y-52253854D01*
X102050499Y-52253853D01*
X102026615Y-52164715D01*
X102026613Y-52164710D01*
X101980471Y-52084791D01*
X101980470Y-52084790D01*
X101980469Y-52084788D01*
X101915212Y-52019531D01*
X101915209Y-52019529D01*
X101915208Y-52019528D01*
X101835289Y-51973386D01*
X101835284Y-51973384D01*
X101746146Y-51949500D01*
X101746144Y-51949500D01*
X101653856Y-51949500D01*
X101653854Y-51949500D01*
X101564715Y-51973384D01*
X101564710Y-51973386D01*
X101484791Y-52019528D01*
X101419528Y-52084791D01*
X101373386Y-52164710D01*
X101373384Y-52164715D01*
X101349500Y-52253853D01*
X100320345Y-52253853D01*
X100280471Y-52184791D01*
X100280470Y-52184790D01*
X100280469Y-52184788D01*
X100215212Y-52119531D01*
X100215209Y-52119529D01*
X100215208Y-52119528D01*
X100135289Y-52073386D01*
X100135284Y-52073384D01*
X100046146Y-52049500D01*
X100046144Y-52049500D01*
X99953856Y-52049500D01*
X99953854Y-52049500D01*
X99864715Y-52073384D01*
X99864710Y-52073386D01*
X99784791Y-52119528D01*
X99719528Y-52184791D01*
X99673386Y-52264710D01*
X99673384Y-52264715D01*
X99649500Y-52353853D01*
X98299500Y-52353853D01*
X98299500Y-52116654D01*
X98321173Y-52064329D01*
X98824983Y-51560519D01*
X103255513Y-51560519D01*
X103255513Y-51652812D01*
X103279397Y-51741950D01*
X103279399Y-51741955D01*
X103325541Y-51821874D01*
X103325542Y-51821875D01*
X103325544Y-51821878D01*
X103390801Y-51887135D01*
X103470725Y-51933280D01*
X103470726Y-51933280D01*
X103470728Y-51933281D01*
X103515297Y-51945223D01*
X103559866Y-51957165D01*
X103559867Y-51957166D01*
X103559869Y-51957166D01*
X103652159Y-51957166D01*
X103652159Y-51957165D01*
X103741301Y-51933280D01*
X103821225Y-51887135D01*
X103886482Y-51821878D01*
X103932627Y-51741954D01*
X103956512Y-51652812D01*
X103956513Y-51652812D01*
X103956513Y-51560520D01*
X103956512Y-51560519D01*
X103932628Y-51471381D01*
X103932626Y-51471376D01*
X103886484Y-51391457D01*
X103886483Y-51391456D01*
X103886482Y-51391454D01*
X103821225Y-51326197D01*
X103821222Y-51326195D01*
X103821221Y-51326194D01*
X103741302Y-51280052D01*
X103741297Y-51280050D01*
X103652159Y-51256166D01*
X103652157Y-51256166D01*
X103559869Y-51256166D01*
X103559867Y-51256166D01*
X103470728Y-51280050D01*
X103470723Y-51280052D01*
X103390804Y-51326194D01*
X103325541Y-51391457D01*
X103279399Y-51471376D01*
X103279397Y-51471381D01*
X103255513Y-51560519D01*
X98824983Y-51560519D01*
X101331648Y-49053853D01*
X102649500Y-49053853D01*
X102649500Y-49146146D01*
X102673384Y-49235284D01*
X102673386Y-49235289D01*
X102719528Y-49315208D01*
X102719529Y-49315209D01*
X102719531Y-49315212D01*
X102784788Y-49380469D01*
X102784790Y-49380470D01*
X102784791Y-49380471D01*
X102864710Y-49426613D01*
X102864712Y-49426614D01*
X102864713Y-49426614D01*
X102864715Y-49426615D01*
X102909284Y-49438557D01*
X102953853Y-49450499D01*
X102953854Y-49450500D01*
X102953856Y-49450500D01*
X103046146Y-49450500D01*
X103046146Y-49450499D01*
X103135288Y-49426614D01*
X103215212Y-49380469D01*
X103280469Y-49315212D01*
X103326614Y-49235288D01*
X103350499Y-49146146D01*
X103350500Y-49146146D01*
X103350500Y-49053854D01*
X103350499Y-49053853D01*
X103345996Y-49037049D01*
X103326614Y-48964712D01*
X103299404Y-48917583D01*
X103280471Y-48884791D01*
X103280470Y-48884790D01*
X103280469Y-48884788D01*
X103215212Y-48819531D01*
X103215209Y-48819529D01*
X103215208Y-48819528D01*
X103135289Y-48773386D01*
X103135284Y-48773384D01*
X103046146Y-48749500D01*
X103046144Y-48749500D01*
X102953856Y-48749500D01*
X102953854Y-48749500D01*
X102864715Y-48773384D01*
X102864710Y-48773386D01*
X102784791Y-48819528D01*
X102719528Y-48884791D01*
X102673386Y-48964710D01*
X102673384Y-48964715D01*
X102649500Y-49053853D01*
X101331648Y-49053853D01*
X101776159Y-48609342D01*
X101776162Y-48609341D01*
X101786567Y-48598936D01*
X101786568Y-48598936D01*
X101851409Y-48534095D01*
X101865944Y-48499003D01*
X101886501Y-48449377D01*
X101886501Y-48357678D01*
X101886501Y-48351720D01*
X101886500Y-48351706D01*
X101886500Y-45553853D01*
X102762000Y-45553853D01*
X102762000Y-45646146D01*
X102785884Y-45735284D01*
X102785886Y-45735289D01*
X102832028Y-45815208D01*
X102832029Y-45815209D01*
X102832031Y-45815212D01*
X102897288Y-45880469D01*
X102897290Y-45880470D01*
X102897291Y-45880471D01*
X102915158Y-45890786D01*
X102957404Y-45915178D01*
X102991882Y-45960110D01*
X102984490Y-46016263D01*
X102972730Y-46031588D01*
X102919531Y-46084787D01*
X102919529Y-46084790D01*
X102873386Y-46164710D01*
X102873384Y-46164715D01*
X102849500Y-46253853D01*
X102849500Y-46346146D01*
X102873384Y-46435284D01*
X102873386Y-46435289D01*
X102919528Y-46515208D01*
X102919529Y-46515209D01*
X102919531Y-46515212D01*
X102984788Y-46580469D01*
X102984790Y-46580470D01*
X102984791Y-46580471D01*
X103019480Y-46600499D01*
X103064712Y-46626614D01*
X103064713Y-46626614D01*
X103064715Y-46626615D01*
X103107425Y-46638059D01*
X103153853Y-46650499D01*
X103153854Y-46650500D01*
X103153856Y-46650500D01*
X103246146Y-46650500D01*
X103246146Y-46650499D01*
X103335288Y-46626614D01*
X103415212Y-46580469D01*
X103480469Y-46515212D01*
X103526614Y-46435288D01*
X103550499Y-46346146D01*
X103550500Y-46346146D01*
X103550500Y-46253854D01*
X103550499Y-46253853D01*
X103526615Y-46164715D01*
X103526613Y-46164710D01*
X103480471Y-46084791D01*
X103480470Y-46084790D01*
X103480469Y-46084788D01*
X103415212Y-46019531D01*
X103415209Y-46019529D01*
X103415208Y-46019528D01*
X103369154Y-45992939D01*
X103355094Y-45984821D01*
X103320616Y-45939889D01*
X103328009Y-45883736D01*
X103339766Y-45868414D01*
X103392969Y-45815212D01*
X103439114Y-45735288D01*
X103462999Y-45646146D01*
X103463000Y-45646146D01*
X103463000Y-45553854D01*
X103462999Y-45553853D01*
X103457891Y-45534791D01*
X103439114Y-45464712D01*
X103415255Y-45423387D01*
X103392971Y-45384791D01*
X103392970Y-45384790D01*
X103392969Y-45384788D01*
X103327712Y-45319531D01*
X103327709Y-45319529D01*
X103327708Y-45319528D01*
X103247789Y-45273386D01*
X103247784Y-45273384D01*
X103158646Y-45249500D01*
X103158644Y-45249500D01*
X103066356Y-45249500D01*
X103066354Y-45249500D01*
X102977215Y-45273384D01*
X102977210Y-45273386D01*
X102897291Y-45319528D01*
X102832028Y-45384791D01*
X102785886Y-45464710D01*
X102785884Y-45464715D01*
X102762000Y-45553853D01*
X101886500Y-45553853D01*
X101886500Y-44259839D01*
X101908174Y-44207513D01*
X101960500Y-44185839D01*
X102012826Y-44207513D01*
X102019206Y-44214788D01*
X102019529Y-44215209D01*
X102019531Y-44215212D01*
X102084788Y-44280469D01*
X102084790Y-44280470D01*
X102084791Y-44280471D01*
X102159121Y-44323386D01*
X102164712Y-44326614D01*
X102164713Y-44326614D01*
X102164715Y-44326615D01*
X102209284Y-44338557D01*
X102253853Y-44350499D01*
X102253854Y-44350500D01*
X102253856Y-44350500D01*
X102346146Y-44350500D01*
X102346146Y-44350499D01*
X102435288Y-44326614D01*
X102515212Y-44280469D01*
X102580469Y-44215212D01*
X102626614Y-44135288D01*
X102650499Y-44046146D01*
X102650500Y-44046146D01*
X102650500Y-43953854D01*
X102650499Y-43953853D01*
X104749500Y-43953853D01*
X104749500Y-44046146D01*
X104773384Y-44135284D01*
X104773386Y-44135289D01*
X104819528Y-44215208D01*
X104819529Y-44215209D01*
X104819531Y-44215212D01*
X104884788Y-44280469D01*
X104884790Y-44280470D01*
X104884791Y-44280471D01*
X104959121Y-44323386D01*
X104964712Y-44326614D01*
X104964713Y-44326614D01*
X104964715Y-44326615D01*
X105009284Y-44338557D01*
X105053853Y-44350499D01*
X105053854Y-44350500D01*
X105053856Y-44350500D01*
X105146146Y-44350500D01*
X105146146Y-44350499D01*
X105235288Y-44326614D01*
X105315212Y-44280469D01*
X105380469Y-44215212D01*
X105426614Y-44135288D01*
X105450499Y-44046146D01*
X105450500Y-44046146D01*
X105450500Y-43953854D01*
X105450499Y-43953853D01*
X105949500Y-43953853D01*
X105949500Y-44046146D01*
X105973384Y-44135284D01*
X105973386Y-44135289D01*
X106019528Y-44215208D01*
X106019529Y-44215209D01*
X106019531Y-44215212D01*
X106084788Y-44280469D01*
X106084790Y-44280470D01*
X106084791Y-44280471D01*
X106159121Y-44323386D01*
X106164712Y-44326614D01*
X106164713Y-44326614D01*
X106164715Y-44326615D01*
X106209284Y-44338557D01*
X106253853Y-44350499D01*
X106253854Y-44350500D01*
X106253856Y-44350500D01*
X106346146Y-44350500D01*
X106346146Y-44350499D01*
X106435288Y-44326614D01*
X106515212Y-44280469D01*
X106580469Y-44215212D01*
X106626614Y-44135288D01*
X106650499Y-44046146D01*
X106650500Y-44046146D01*
X106650500Y-43953854D01*
X106650499Y-43953853D01*
X106626615Y-43864715D01*
X106626613Y-43864710D01*
X106580471Y-43784791D01*
X106580470Y-43784790D01*
X106580469Y-43784788D01*
X106515212Y-43719531D01*
X106515209Y-43719529D01*
X106515208Y-43719528D01*
X106435289Y-43673386D01*
X106435284Y-43673384D01*
X106346146Y-43649500D01*
X106346144Y-43649500D01*
X106253856Y-43649500D01*
X106253854Y-43649500D01*
X106164715Y-43673384D01*
X106164710Y-43673386D01*
X106084791Y-43719528D01*
X106019528Y-43784791D01*
X105973386Y-43864710D01*
X105973384Y-43864715D01*
X105949500Y-43953853D01*
X105450499Y-43953853D01*
X105426615Y-43864715D01*
X105426613Y-43864710D01*
X105380471Y-43784791D01*
X105380470Y-43784790D01*
X105380469Y-43784788D01*
X105315212Y-43719531D01*
X105315209Y-43719529D01*
X105315208Y-43719528D01*
X105235289Y-43673386D01*
X105235284Y-43673384D01*
X105146146Y-43649500D01*
X105146144Y-43649500D01*
X105053856Y-43649500D01*
X105053854Y-43649500D01*
X104964715Y-43673384D01*
X104964710Y-43673386D01*
X104884791Y-43719528D01*
X104819528Y-43784791D01*
X104773386Y-43864710D01*
X104773384Y-43864715D01*
X104749500Y-43953853D01*
X102650499Y-43953853D01*
X102626615Y-43864715D01*
X102626613Y-43864710D01*
X102580471Y-43784791D01*
X102580470Y-43784790D01*
X102580469Y-43784788D01*
X102515212Y-43719531D01*
X102515209Y-43719529D01*
X102515208Y-43719528D01*
X102435289Y-43673386D01*
X102435284Y-43673384D01*
X102346146Y-43649500D01*
X102346144Y-43649500D01*
X102253856Y-43649500D01*
X102253854Y-43649500D01*
X102164715Y-43673384D01*
X102164710Y-43673386D01*
X102084791Y-43719528D01*
X102019524Y-43784795D01*
X102019201Y-43785217D01*
X102018969Y-43785350D01*
X102016102Y-43788218D01*
X102015333Y-43787449D01*
X101970148Y-43813528D01*
X101915443Y-43798861D01*
X101887132Y-43749808D01*
X101886500Y-43740160D01*
X101886500Y-42753853D01*
X104849500Y-42753853D01*
X104849500Y-42846146D01*
X104873384Y-42935284D01*
X104873386Y-42935289D01*
X104919528Y-43015208D01*
X104919529Y-43015209D01*
X104919531Y-43015212D01*
X104984788Y-43080469D01*
X104984790Y-43080470D01*
X104984791Y-43080471D01*
X105052920Y-43119806D01*
X105064712Y-43126614D01*
X105064713Y-43126614D01*
X105064715Y-43126615D01*
X105092870Y-43134159D01*
X105153853Y-43150499D01*
X105153854Y-43150500D01*
X105153856Y-43150500D01*
X105246145Y-43150500D01*
X105262110Y-43146221D01*
X105277358Y-43142136D01*
X105333511Y-43149528D01*
X105360369Y-43180153D01*
X105361737Y-43179364D01*
X105410304Y-43263484D01*
X105410305Y-43263485D01*
X105410307Y-43263488D01*
X105475564Y-43328745D01*
X105475566Y-43328746D01*
X105475567Y-43328747D01*
X105547884Y-43370500D01*
X105555488Y-43374890D01*
X105555489Y-43374890D01*
X105555491Y-43374891D01*
X105595290Y-43385555D01*
X105644629Y-43398775D01*
X105644630Y-43398776D01*
X105644632Y-43398776D01*
X105736922Y-43398776D01*
X105736922Y-43398775D01*
X105826064Y-43374890D01*
X105905988Y-43328745D01*
X105971245Y-43263488D01*
X106017390Y-43183564D01*
X106041275Y-43094422D01*
X106041276Y-43094422D01*
X106041276Y-43002130D01*
X106041275Y-43002129D01*
X106017391Y-42912991D01*
X106017389Y-42912986D01*
X105971247Y-42833067D01*
X105971246Y-42833066D01*
X105971245Y-42833064D01*
X105905988Y-42767807D01*
X105905985Y-42767805D01*
X105905984Y-42767804D01*
X105826065Y-42721662D01*
X105826060Y-42721660D01*
X105736922Y-42697776D01*
X105736920Y-42697776D01*
X105644632Y-42697776D01*
X105644631Y-42697776D01*
X105613414Y-42706140D01*
X105557262Y-42698746D01*
X105530410Y-42668120D01*
X105529039Y-42668912D01*
X105480471Y-42584791D01*
X105480470Y-42584790D01*
X105480469Y-42584788D01*
X105415212Y-42519531D01*
X105415209Y-42519529D01*
X105415208Y-42519528D01*
X105335289Y-42473386D01*
X105335284Y-42473384D01*
X105246146Y-42449500D01*
X105246144Y-42449500D01*
X105153856Y-42449500D01*
X105153854Y-42449500D01*
X105064715Y-42473384D01*
X105064710Y-42473386D01*
X104984791Y-42519528D01*
X104919528Y-42584791D01*
X104873386Y-42664710D01*
X104873384Y-42664715D01*
X104849500Y-42753853D01*
X101886500Y-42753853D01*
X101886500Y-42151894D01*
X101908174Y-42099568D01*
X101960500Y-42077894D01*
X101997501Y-42087809D01*
X102064708Y-42126612D01*
X102064710Y-42126612D01*
X102064712Y-42126614D01*
X102064713Y-42126614D01*
X102064715Y-42126615D01*
X102090448Y-42133510D01*
X102153853Y-42150499D01*
X102153854Y-42150500D01*
X102153856Y-42150500D01*
X102246146Y-42150500D01*
X102246146Y-42150499D01*
X102335288Y-42126614D01*
X102415212Y-42080469D01*
X102480469Y-42015212D01*
X102526614Y-41935288D01*
X102550499Y-41846146D01*
X102550500Y-41846146D01*
X102550500Y-41753854D01*
X102550499Y-41753853D01*
X102526615Y-41664715D01*
X102526613Y-41664710D01*
X102480471Y-41584791D01*
X102480470Y-41584790D01*
X102480469Y-41584788D01*
X102415212Y-41519531D01*
X102415209Y-41519529D01*
X102415208Y-41519528D01*
X102335289Y-41473386D01*
X102335284Y-41473384D01*
X102246146Y-41449500D01*
X102241337Y-41448867D01*
X102241714Y-41446002D01*
X102197832Y-41427826D01*
X102176158Y-41375500D01*
X102178680Y-41356347D01*
X102187702Y-41322677D01*
X102198754Y-41281427D01*
X102198755Y-41281427D01*
X102198755Y-41189135D01*
X102198754Y-41189134D01*
X102194534Y-41173386D01*
X102174869Y-41099993D01*
X102174661Y-41099632D01*
X102128726Y-41020072D01*
X102128725Y-41020071D01*
X102128724Y-41020069D01*
X102063467Y-40954812D01*
X102063464Y-40954810D01*
X102063463Y-40954809D01*
X101983544Y-40908667D01*
X101983540Y-40908666D01*
X101933134Y-40895159D01*
X101888202Y-40860680D01*
X101880810Y-40804527D01*
X101915289Y-40759595D01*
X101915288Y-40759595D01*
X101940887Y-40744816D01*
X102006144Y-40679559D01*
X102052289Y-40599635D01*
X102076174Y-40510493D01*
X102076175Y-40510493D01*
X102076175Y-40453853D01*
X102749500Y-40453853D01*
X102749500Y-40546146D01*
X102773384Y-40635284D01*
X102773386Y-40635289D01*
X102819528Y-40715208D01*
X102819529Y-40715209D01*
X102819531Y-40715212D01*
X102884788Y-40780469D01*
X102884790Y-40780470D01*
X102884791Y-40780471D01*
X102926457Y-40804527D01*
X102964712Y-40826614D01*
X102964713Y-40826614D01*
X102964715Y-40826615D01*
X103009284Y-40838557D01*
X103053853Y-40850499D01*
X103053854Y-40850500D01*
X103053856Y-40850500D01*
X103146146Y-40850500D01*
X103146146Y-40850499D01*
X103235288Y-40826614D01*
X103315212Y-40780469D01*
X103380469Y-40715212D01*
X103426614Y-40635288D01*
X103450499Y-40546146D01*
X103450500Y-40546146D01*
X103450500Y-40453854D01*
X103450499Y-40453853D01*
X103448433Y-40446144D01*
X103430836Y-40380469D01*
X103427538Y-40368159D01*
X103426615Y-40364715D01*
X103426613Y-40364710D01*
X103420345Y-40353853D01*
X103849500Y-40353853D01*
X103849500Y-40446146D01*
X103873384Y-40535284D01*
X103873386Y-40535289D01*
X103919528Y-40615208D01*
X103919529Y-40615209D01*
X103919531Y-40615212D01*
X103984788Y-40680469D01*
X103984790Y-40680470D01*
X103984791Y-40680471D01*
X104064710Y-40726613D01*
X104064712Y-40726614D01*
X104064713Y-40726614D01*
X104064715Y-40726615D01*
X104104231Y-40737203D01*
X104153853Y-40750499D01*
X104153854Y-40750500D01*
X104153856Y-40750500D01*
X104246146Y-40750500D01*
X104246146Y-40750499D01*
X104335288Y-40726614D01*
X104415212Y-40680469D01*
X104480469Y-40615212D01*
X104526614Y-40535288D01*
X104550499Y-40446146D01*
X104550500Y-40446146D01*
X104550500Y-40353854D01*
X104550499Y-40353853D01*
X104526615Y-40264715D01*
X104526613Y-40264710D01*
X104480471Y-40184791D01*
X104480470Y-40184790D01*
X104480469Y-40184788D01*
X104415212Y-40119531D01*
X104415209Y-40119529D01*
X104415208Y-40119528D01*
X104335289Y-40073386D01*
X104335284Y-40073384D01*
X104246146Y-40049500D01*
X104246144Y-40049500D01*
X104153856Y-40049500D01*
X104153854Y-40049500D01*
X104064715Y-40073384D01*
X104064710Y-40073386D01*
X103984791Y-40119528D01*
X103919528Y-40184791D01*
X103873386Y-40264710D01*
X103873384Y-40264715D01*
X103849500Y-40353853D01*
X103420345Y-40353853D01*
X103380471Y-40284791D01*
X103380470Y-40284790D01*
X103380469Y-40284788D01*
X103315212Y-40219531D01*
X103315209Y-40219529D01*
X103315208Y-40219528D01*
X103235289Y-40173386D01*
X103235284Y-40173384D01*
X103146146Y-40149500D01*
X103146144Y-40149500D01*
X103053856Y-40149500D01*
X103053854Y-40149500D01*
X102964715Y-40173384D01*
X102964710Y-40173386D01*
X102884791Y-40219528D01*
X102819528Y-40284791D01*
X102773386Y-40364710D01*
X102773384Y-40364715D01*
X102749500Y-40453853D01*
X102076175Y-40453853D01*
X102076175Y-40418201D01*
X102076174Y-40418200D01*
X102075373Y-40415212D01*
X102058933Y-40353853D01*
X102052290Y-40329062D01*
X102052288Y-40329057D01*
X102006146Y-40249138D01*
X102006145Y-40249137D01*
X102006144Y-40249135D01*
X101970724Y-40213715D01*
X101949051Y-40161391D01*
X101970725Y-40109065D01*
X101986052Y-40097305D01*
X102015207Y-40080472D01*
X102015207Y-40080471D01*
X102015212Y-40080469D01*
X102080469Y-40015212D01*
X102082445Y-40011789D01*
X102127373Y-39977307D01*
X102183525Y-39984692D01*
X102198293Y-39993219D01*
X102198295Y-39993219D01*
X102198296Y-39993220D01*
X102211523Y-39996764D01*
X102287434Y-40017104D01*
X102287435Y-40017105D01*
X102287437Y-40017105D01*
X102379727Y-40017105D01*
X102379727Y-40017104D01*
X102468869Y-39993219D01*
X102548793Y-39947074D01*
X102614050Y-39881817D01*
X102660195Y-39801893D01*
X102684080Y-39712751D01*
X102684081Y-39712751D01*
X102684081Y-39620459D01*
X102684080Y-39620458D01*
X102670067Y-39568159D01*
X102670066Y-39568158D01*
X102667947Y-39560251D01*
X102666233Y-39553853D01*
X102849500Y-39553853D01*
X102849500Y-39646146D01*
X102873384Y-39735284D01*
X102873386Y-39735289D01*
X102919528Y-39815208D01*
X102919529Y-39815209D01*
X102919531Y-39815212D01*
X102984788Y-39880469D01*
X102984790Y-39880470D01*
X102984791Y-39880471D01*
X103052439Y-39919528D01*
X103064712Y-39926614D01*
X103064713Y-39926614D01*
X103064715Y-39926615D01*
X103109284Y-39938557D01*
X103153853Y-39950499D01*
X103153854Y-39950500D01*
X103153856Y-39950500D01*
X103246146Y-39950500D01*
X103246146Y-39950499D01*
X103335288Y-39926614D01*
X103415212Y-39880469D01*
X103480469Y-39815212D01*
X103526614Y-39735288D01*
X103550499Y-39646146D01*
X103550500Y-39646146D01*
X103550500Y-39553854D01*
X103550499Y-39553853D01*
X103526615Y-39464715D01*
X103526613Y-39464710D01*
X103480471Y-39384791D01*
X103480470Y-39384790D01*
X103480469Y-39384788D01*
X103415212Y-39319531D01*
X103415209Y-39319529D01*
X103415208Y-39319528D01*
X103335289Y-39273386D01*
X103335284Y-39273384D01*
X103246146Y-39249500D01*
X103246144Y-39249500D01*
X103153856Y-39249500D01*
X103153854Y-39249500D01*
X103064715Y-39273384D01*
X103064710Y-39273386D01*
X102984791Y-39319528D01*
X102919528Y-39384791D01*
X102873386Y-39464710D01*
X102873384Y-39464715D01*
X102849500Y-39553853D01*
X102666233Y-39553853D01*
X102660195Y-39531317D01*
X102653390Y-39519531D01*
X102614052Y-39451396D01*
X102614051Y-39451395D01*
X102614050Y-39451393D01*
X102548793Y-39386136D01*
X102548790Y-39386134D01*
X102548789Y-39386133D01*
X102468870Y-39339991D01*
X102468865Y-39339989D01*
X102379727Y-39316105D01*
X102379725Y-39316105D01*
X102287437Y-39316105D01*
X102287435Y-39316105D01*
X102198296Y-39339989D01*
X102198291Y-39339991D01*
X102118372Y-39386133D01*
X102053111Y-39451393D01*
X102053110Y-39451395D01*
X102051131Y-39454823D01*
X102006197Y-39489300D01*
X101950047Y-39481907D01*
X101935289Y-39473386D01*
X101935284Y-39473384D01*
X101846146Y-39449500D01*
X101846144Y-39449500D01*
X101753856Y-39449500D01*
X101753854Y-39449500D01*
X101664715Y-39473384D01*
X101664710Y-39473386D01*
X101584791Y-39519528D01*
X101519528Y-39584791D01*
X101473386Y-39664710D01*
X101473384Y-39664715D01*
X101449500Y-39753853D01*
X101449500Y-39846146D01*
X101473384Y-39935284D01*
X101473386Y-39935289D01*
X101519528Y-40015208D01*
X101519529Y-40015209D01*
X101519531Y-40015212D01*
X101554949Y-40050630D01*
X101576623Y-40102955D01*
X101554949Y-40155281D01*
X101539624Y-40167040D01*
X101510468Y-40183874D01*
X101510467Y-40183874D01*
X101445203Y-40249138D01*
X101399061Y-40329057D01*
X101399059Y-40329062D01*
X101375175Y-40418200D01*
X101375175Y-40510493D01*
X101399059Y-40599631D01*
X101399061Y-40599636D01*
X101446067Y-40681051D01*
X101453460Y-40737203D01*
X101418981Y-40782137D01*
X101362829Y-40789530D01*
X101344983Y-40782138D01*
X101342756Y-40780852D01*
X101342749Y-40780849D01*
X101253611Y-40756965D01*
X101253609Y-40756965D01*
X101161321Y-40756965D01*
X101100117Y-40773364D01*
X101090202Y-40772058D01*
X101080965Y-40775885D01*
X101063118Y-40768492D01*
X101043964Y-40765971D01*
X101037876Y-40758037D01*
X101028639Y-40754211D01*
X101021246Y-40736364D01*
X101009486Y-40721037D01*
X101006965Y-40701885D01*
X101006965Y-40585690D01*
X101028639Y-40533364D01*
X101043965Y-40521604D01*
X101047736Y-40519427D01*
X101115212Y-40480469D01*
X101180469Y-40415212D01*
X101226614Y-40335288D01*
X101250499Y-40246146D01*
X101250500Y-40246146D01*
X101250500Y-40153854D01*
X101250499Y-40153853D01*
X101243200Y-40126614D01*
X101226614Y-40064712D01*
X101198035Y-40015212D01*
X101180471Y-39984791D01*
X101180470Y-39984790D01*
X101180469Y-39984788D01*
X101115212Y-39919531D01*
X101115209Y-39919529D01*
X101115208Y-39919528D01*
X101035289Y-39873386D01*
X101035284Y-39873384D01*
X100946146Y-39849500D01*
X100946144Y-39849500D01*
X100853856Y-39849500D01*
X100792652Y-39865899D01*
X100736499Y-39858506D01*
X100702021Y-39813572D01*
X100699500Y-39794420D01*
X100699500Y-37657128D01*
X100721174Y-37604802D01*
X101272123Y-37053853D01*
X102649500Y-37053853D01*
X102649500Y-37146146D01*
X102673384Y-37235284D01*
X102673386Y-37235289D01*
X102719528Y-37315208D01*
X102719529Y-37315209D01*
X102719531Y-37315212D01*
X102784788Y-37380469D01*
X102864712Y-37426614D01*
X102864713Y-37426614D01*
X102864715Y-37426615D01*
X102897961Y-37435523D01*
X102953853Y-37450499D01*
X102953854Y-37450500D01*
X102953856Y-37450500D01*
X103046146Y-37450500D01*
X103046146Y-37450499D01*
X103135288Y-37426614D01*
X103215212Y-37380469D01*
X103280469Y-37315212D01*
X103326614Y-37235288D01*
X103350499Y-37146146D01*
X103350500Y-37146146D01*
X103350500Y-37053854D01*
X103350499Y-37053853D01*
X103343200Y-37026614D01*
X103332029Y-36984920D01*
X103326615Y-36964715D01*
X103326614Y-36964714D01*
X103326614Y-36964712D01*
X103320343Y-36953852D01*
X103312950Y-36897700D01*
X103347427Y-36852766D01*
X103365267Y-36845375D01*
X103435288Y-36826614D01*
X103515212Y-36780469D01*
X103580469Y-36715212D01*
X103626614Y-36635288D01*
X103650499Y-36546146D01*
X103650500Y-36546146D01*
X103650500Y-36453857D01*
X103650499Y-36453853D01*
X103626614Y-36364712D01*
X103620344Y-36353852D01*
X103849500Y-36353852D01*
X103849500Y-36446145D01*
X103873384Y-36535283D01*
X103873386Y-36535288D01*
X103919528Y-36615207D01*
X103919529Y-36615208D01*
X103919531Y-36615211D01*
X103984788Y-36680468D01*
X103984790Y-36680469D01*
X103984791Y-36680470D01*
X104064341Y-36726399D01*
X104064712Y-36726613D01*
X104064713Y-36726613D01*
X104064715Y-36726614D01*
X104064719Y-36726615D01*
X104153853Y-36750498D01*
X104153854Y-36750499D01*
X104153856Y-36750499D01*
X104246146Y-36750499D01*
X104246146Y-36750498D01*
X104335288Y-36726613D01*
X104335300Y-36726605D01*
X104335802Y-36726399D01*
X104336088Y-36726398D01*
X104339973Y-36725358D01*
X104340251Y-36726398D01*
X104392440Y-36726389D01*
X104416459Y-36742435D01*
X105547826Y-37873802D01*
X105569500Y-37926128D01*
X105569500Y-41003069D01*
X105547826Y-41055394D01*
X105503591Y-41099629D01*
X105503589Y-41099632D01*
X105457446Y-41179552D01*
X105457444Y-41179557D01*
X105433560Y-41268695D01*
X105433560Y-41360988D01*
X105457444Y-41450126D01*
X105457446Y-41450131D01*
X105503588Y-41530050D01*
X105503589Y-41530051D01*
X105503591Y-41530054D01*
X105568848Y-41595311D01*
X105568850Y-41595312D01*
X105568851Y-41595313D01*
X105648770Y-41641455D01*
X105648772Y-41641456D01*
X105648773Y-41641456D01*
X105648775Y-41641457D01*
X105693344Y-41653399D01*
X105737913Y-41665341D01*
X105737914Y-41665342D01*
X105737916Y-41665342D01*
X105830206Y-41665342D01*
X105830206Y-41665341D01*
X105919348Y-41641456D01*
X105999272Y-41595311D01*
X106064529Y-41530054D01*
X106110674Y-41450130D01*
X106134559Y-41360988D01*
X106134560Y-41360988D01*
X106134560Y-41268696D01*
X106134559Y-41268695D01*
X106126379Y-41238168D01*
X106119054Y-41210829D01*
X106110675Y-41179557D01*
X106110673Y-41179552D01*
X106064531Y-41099632D01*
X106052172Y-41087273D01*
X106030500Y-41034949D01*
X106030500Y-37754151D01*
X106030499Y-37754149D01*
X105995410Y-37669434D01*
X105995408Y-37669431D01*
X105926353Y-37600376D01*
X105926346Y-37600370D01*
X104762960Y-36436984D01*
X106119891Y-36436984D01*
X106119891Y-36529277D01*
X106143775Y-36618415D01*
X106143777Y-36618420D01*
X106189919Y-36698339D01*
X106189920Y-36698340D01*
X106189922Y-36698343D01*
X106255179Y-36763600D01*
X106255181Y-36763601D01*
X106255182Y-36763602D01*
X106335101Y-36809744D01*
X106335103Y-36809745D01*
X106335104Y-36809745D01*
X106335106Y-36809746D01*
X106371614Y-36819528D01*
X106424244Y-36833630D01*
X106424245Y-36833631D01*
X106424247Y-36833631D01*
X106516537Y-36833631D01*
X106516537Y-36833630D01*
X106605679Y-36809745D01*
X106685603Y-36763600D01*
X106750860Y-36698343D01*
X106797005Y-36618419D01*
X106820890Y-36529277D01*
X106820891Y-36529277D01*
X106820891Y-36436985D01*
X106820890Y-36436984D01*
X106797006Y-36347846D01*
X106797004Y-36347841D01*
X106750862Y-36267922D01*
X106750861Y-36267921D01*
X106750860Y-36267919D01*
X106685603Y-36202662D01*
X106685600Y-36202660D01*
X106685599Y-36202659D01*
X106605680Y-36156517D01*
X106605675Y-36156515D01*
X106516537Y-36132631D01*
X106516535Y-36132631D01*
X106424247Y-36132631D01*
X106424245Y-36132631D01*
X106335106Y-36156515D01*
X106335101Y-36156517D01*
X106255182Y-36202659D01*
X106189919Y-36267922D01*
X106143777Y-36347841D01*
X106143775Y-36347846D01*
X106119891Y-36436984D01*
X104762960Y-36436984D01*
X104605816Y-36279840D01*
X104605816Y-36279839D01*
X104574986Y-36249009D01*
X104530567Y-36204590D01*
X104530565Y-36204589D01*
X104530562Y-36204587D01*
X104495475Y-36190054D01*
X104495463Y-36190049D01*
X104492437Y-36188795D01*
X104468442Y-36172759D01*
X104415212Y-36119530D01*
X104415209Y-36119528D01*
X104335289Y-36073385D01*
X104335284Y-36073383D01*
X104246146Y-36049499D01*
X104246144Y-36049499D01*
X104153856Y-36049499D01*
X104153854Y-36049499D01*
X104064715Y-36073383D01*
X104064710Y-36073385D01*
X103984791Y-36119527D01*
X103919528Y-36184790D01*
X103873386Y-36264709D01*
X103873384Y-36264714D01*
X103849500Y-36353852D01*
X103620344Y-36353852D01*
X103616876Y-36347846D01*
X103580471Y-36284791D01*
X103580470Y-36284790D01*
X103580469Y-36284788D01*
X103515212Y-36219531D01*
X103515209Y-36219529D01*
X103515208Y-36219528D01*
X103435289Y-36173386D01*
X103435284Y-36173384D01*
X103346146Y-36149500D01*
X103346144Y-36149500D01*
X103253856Y-36149500D01*
X103253854Y-36149500D01*
X103164715Y-36173384D01*
X103164710Y-36173386D01*
X103084791Y-36219528D01*
X103019528Y-36284791D01*
X102973386Y-36364710D01*
X102973384Y-36364715D01*
X102949500Y-36453853D01*
X102949500Y-36546146D01*
X102973384Y-36635284D01*
X102973386Y-36635289D01*
X102979656Y-36646148D01*
X102987049Y-36702300D01*
X102952570Y-36747234D01*
X102934723Y-36754626D01*
X102864715Y-36773384D01*
X102864710Y-36773386D01*
X102784791Y-36819528D01*
X102719528Y-36884791D01*
X102673386Y-36964710D01*
X102673384Y-36964715D01*
X102649500Y-37053853D01*
X101272123Y-37053853D01*
X101373802Y-36952174D01*
X101426128Y-36930500D01*
X101904167Y-36930500D01*
X101956492Y-36952173D01*
X101984788Y-36980469D01*
X102064712Y-37026614D01*
X102064713Y-37026614D01*
X102064715Y-37026615D01*
X102109284Y-37038557D01*
X102153853Y-37050499D01*
X102153854Y-37050500D01*
X102153856Y-37050500D01*
X102246146Y-37050500D01*
X102246146Y-37050499D01*
X102335288Y-37026614D01*
X102362440Y-37010937D01*
X102407504Y-36984920D01*
X102407505Y-36984919D01*
X102410394Y-36983250D01*
X102415212Y-36980469D01*
X102480469Y-36915212D01*
X102526614Y-36835288D01*
X102550499Y-36746146D01*
X102550500Y-36746146D01*
X102550500Y-36653854D01*
X102550499Y-36653853D01*
X102548434Y-36646148D01*
X102526614Y-36564712D01*
X102501633Y-36521444D01*
X102480471Y-36484791D01*
X102480470Y-36484790D01*
X102480469Y-36484788D01*
X102415212Y-36419531D01*
X102415209Y-36419529D01*
X102415208Y-36419528D01*
X102335289Y-36373386D01*
X102335284Y-36373384D01*
X102246146Y-36349500D01*
X102246144Y-36349500D01*
X102153856Y-36349500D01*
X102153854Y-36349500D01*
X102064715Y-36373384D01*
X102064710Y-36373386D01*
X101984791Y-36419528D01*
X101956492Y-36447827D01*
X101904167Y-36469500D01*
X101254150Y-36469500D01*
X101229336Y-36479778D01*
X101169434Y-36504589D01*
X100273590Y-37400433D01*
X100259054Y-37435525D01*
X100238499Y-37485148D01*
X100238499Y-37585461D01*
X100238500Y-37585470D01*
X100238500Y-42501705D01*
X100238499Y-42501719D01*
X100238499Y-42507677D01*
X100238499Y-42599377D01*
X100250454Y-42628237D01*
X100273589Y-42684092D01*
X100273592Y-42684096D01*
X100348839Y-42759343D01*
X100348841Y-42759344D01*
X101142826Y-43553329D01*
X101164500Y-43605655D01*
X101164500Y-47145511D01*
X101142826Y-47197837D01*
X101090500Y-47219511D01*
X101038175Y-47197837D01*
X100986887Y-47146549D01*
X100986884Y-47146547D01*
X100986883Y-47146546D01*
X100906964Y-47100404D01*
X100906959Y-47100402D01*
X100817821Y-47076518D01*
X100817819Y-47076518D01*
X100725531Y-47076518D01*
X100725529Y-47076518D01*
X100636390Y-47100402D01*
X100636385Y-47100404D01*
X100556466Y-47146546D01*
X100491203Y-47211809D01*
X100445061Y-47291728D01*
X100445059Y-47291733D01*
X100428745Y-47352619D01*
X100409593Y-47385792D01*
X99112895Y-48682490D01*
X99060569Y-48704164D01*
X99008243Y-48682490D01*
X98996483Y-48667165D01*
X98995353Y-48665208D01*
X98960469Y-48604788D01*
X98895212Y-48539531D01*
X98895209Y-48539529D01*
X98895208Y-48539528D01*
X98815289Y-48493386D01*
X98815284Y-48493384D01*
X98726146Y-48469500D01*
X98726144Y-48469500D01*
X98686128Y-48469500D01*
X98633802Y-48447826D01*
X98221174Y-48035198D01*
X98199500Y-47982872D01*
X98199500Y-45055579D01*
X98221174Y-45003253D01*
X98273500Y-44981579D01*
X98292653Y-44984101D01*
X98327024Y-44993310D01*
X98353853Y-45000499D01*
X98353854Y-45000500D01*
X98353856Y-45000500D01*
X98446146Y-45000500D01*
X98446146Y-45000499D01*
X98535288Y-44976614D01*
X98615212Y-44930469D01*
X98680469Y-44865212D01*
X98726614Y-44785288D01*
X98750499Y-44696146D01*
X98750500Y-44696146D01*
X98750500Y-44603854D01*
X98750499Y-44603853D01*
X98726615Y-44514715D01*
X98726613Y-44514710D01*
X98680471Y-44434791D01*
X98680470Y-44434790D01*
X98680469Y-44434788D01*
X98615212Y-44369531D01*
X98615209Y-44369529D01*
X98615208Y-44369528D01*
X98535289Y-44323386D01*
X98535284Y-44323384D01*
X98446146Y-44299500D01*
X98446144Y-44299500D01*
X98353856Y-44299500D01*
X98292652Y-44315899D01*
X98236499Y-44308506D01*
X98202021Y-44263572D01*
X98199500Y-44244420D01*
X98199500Y-43509424D01*
X98221174Y-43457098D01*
X98254346Y-43437946D01*
X98277659Y-43431700D01*
X98357583Y-43385555D01*
X98422840Y-43320298D01*
X98468985Y-43240374D01*
X98477699Y-43207853D01*
X98478371Y-43205347D01*
X98512849Y-43160414D01*
X98549849Y-43150500D01*
X98646146Y-43150500D01*
X98646146Y-43150499D01*
X98735288Y-43126614D01*
X98815212Y-43080469D01*
X98880469Y-43015212D01*
X98926614Y-42935288D01*
X98950499Y-42846146D01*
X98950500Y-42846146D01*
X98950500Y-42753854D01*
X98950499Y-42753853D01*
X98926615Y-42664715D01*
X98926613Y-42664710D01*
X98880471Y-42584791D01*
X98880470Y-42584790D01*
X98880469Y-42584788D01*
X98815212Y-42519531D01*
X98815209Y-42519529D01*
X98815208Y-42519528D01*
X98795744Y-42508290D01*
X98761267Y-42463356D01*
X98767770Y-42413965D01*
X98765929Y-42413203D01*
X98767784Y-42408721D01*
X98767787Y-42408717D01*
X98791672Y-42319575D01*
X98791673Y-42319575D01*
X98791673Y-42227283D01*
X98791672Y-42227282D01*
X98767788Y-42138144D01*
X98767786Y-42138139D01*
X98721644Y-42058220D01*
X98721643Y-42058219D01*
X98721642Y-42058217D01*
X98656385Y-41992960D01*
X98656382Y-41992958D01*
X98656381Y-41992957D01*
X98576462Y-41946815D01*
X98576457Y-41946813D01*
X98487319Y-41922929D01*
X98487317Y-41922929D01*
X98395029Y-41922929D01*
X98303652Y-41947413D01*
X98247500Y-41940020D01*
X98213021Y-41895086D01*
X98210500Y-41875934D01*
X98210500Y-41194151D01*
X98208424Y-41189140D01*
X98208422Y-41189135D01*
X98192005Y-41149500D01*
X98192005Y-41149498D01*
X98177824Y-41115263D01*
X98175409Y-41109432D01*
X98110568Y-41044591D01*
X98106353Y-41040376D01*
X98106346Y-41040370D01*
X93234509Y-36168533D01*
X93212835Y-36116207D01*
X93234509Y-36063881D01*
X93267680Y-36044729D01*
X93335288Y-36026614D01*
X93415212Y-35980469D01*
X93480469Y-35915212D01*
X93526614Y-35835288D01*
X93550499Y-35746146D01*
X93550500Y-35746146D01*
X93550500Y-35718929D01*
X96063876Y-35718929D01*
X96063876Y-35811222D01*
X96087760Y-35900360D01*
X96087762Y-35900365D01*
X96133904Y-35980284D01*
X96133905Y-35980285D01*
X96133907Y-35980288D01*
X96199164Y-36045545D01*
X96199166Y-36045546D01*
X96199167Y-36045547D01*
X96279086Y-36091689D01*
X96279088Y-36091690D01*
X96279089Y-36091690D01*
X96279091Y-36091691D01*
X96286007Y-36093544D01*
X96368229Y-36115575D01*
X96368230Y-36115576D01*
X96368232Y-36115576D01*
X96460522Y-36115576D01*
X96460522Y-36115575D01*
X96549664Y-36091690D01*
X96629588Y-36045545D01*
X96694845Y-35980288D01*
X96740990Y-35900364D01*
X96764875Y-35811222D01*
X96764876Y-35811222D01*
X96764876Y-35718930D01*
X96764875Y-35718929D01*
X96740991Y-35629791D01*
X96740989Y-35629786D01*
X96694847Y-35549867D01*
X96694846Y-35549866D01*
X96694845Y-35549864D01*
X96629588Y-35484607D01*
X96629585Y-35484605D01*
X96629584Y-35484604D01*
X96549665Y-35438462D01*
X96549660Y-35438460D01*
X96460522Y-35414576D01*
X96460520Y-35414576D01*
X96368232Y-35414576D01*
X96368230Y-35414576D01*
X96279091Y-35438460D01*
X96279086Y-35438462D01*
X96199167Y-35484604D01*
X96133904Y-35549867D01*
X96087762Y-35629786D01*
X96087760Y-35629791D01*
X96063876Y-35718929D01*
X93550500Y-35718929D01*
X93550500Y-35653854D01*
X93550499Y-35653853D01*
X93526615Y-35564715D01*
X93526613Y-35564710D01*
X93480471Y-35484791D01*
X93480470Y-35484790D01*
X93480469Y-35484788D01*
X93415212Y-35419531D01*
X93415209Y-35419529D01*
X93415208Y-35419528D01*
X93335289Y-35373386D01*
X93335284Y-35373384D01*
X93246146Y-35349500D01*
X93246144Y-35349500D01*
X93153856Y-35349500D01*
X93153854Y-35349500D01*
X93064715Y-35373384D01*
X93064710Y-35373386D01*
X92984791Y-35419528D01*
X92919523Y-35484796D01*
X92917405Y-35487556D01*
X92868350Y-35515864D01*
X92813646Y-35501193D01*
X92787229Y-35461648D01*
X92766614Y-35384712D01*
X92720469Y-35304788D01*
X92655212Y-35239531D01*
X92655209Y-35239529D01*
X92655208Y-35239528D01*
X92653576Y-35238586D01*
X92652996Y-35237830D01*
X92651358Y-35236573D01*
X92651694Y-35236134D01*
X92619097Y-35193653D01*
X92626490Y-35137500D01*
X92671423Y-35103021D01*
X92690576Y-35100500D01*
X92740421Y-35100500D01*
X92740425Y-35100500D01*
X93019509Y-35069055D01*
X93293318Y-35006560D01*
X93558408Y-34913801D01*
X93811445Y-34791945D01*
X94049248Y-34642523D01*
X94268825Y-34467416D01*
X94467416Y-34268825D01*
X94642523Y-34049248D01*
X94791945Y-33811445D01*
X94913801Y-33558408D01*
X95006560Y-33293318D01*
X95038392Y-33153853D01*
X101049500Y-33153853D01*
X101049500Y-33246146D01*
X101073384Y-33335284D01*
X101073386Y-33335289D01*
X101119528Y-33415208D01*
X101119529Y-33415209D01*
X101119531Y-33415212D01*
X101184788Y-33480469D01*
X101184790Y-33480470D01*
X101184791Y-33480471D01*
X101199314Y-33488856D01*
X101264712Y-33526614D01*
X101264713Y-33526614D01*
X101264715Y-33526615D01*
X101309284Y-33538557D01*
X101353853Y-33550499D01*
X101353854Y-33550500D01*
X101353856Y-33550500D01*
X101446146Y-33550500D01*
X101446146Y-33550499D01*
X101535288Y-33526614D01*
X101615212Y-33480469D01*
X101680469Y-33415212D01*
X101726614Y-33335288D01*
X101750499Y-33246146D01*
X101750500Y-33246146D01*
X101750500Y-33153854D01*
X101750499Y-33153853D01*
X101746347Y-33138359D01*
X101726614Y-33064712D01*
X101722991Y-33058437D01*
X101680471Y-32984791D01*
X101680470Y-32984790D01*
X101680469Y-32984788D01*
X101615212Y-32919531D01*
X101615209Y-32919529D01*
X101615208Y-32919528D01*
X101535289Y-32873386D01*
X101535284Y-32873384D01*
X101446146Y-32849500D01*
X101446144Y-32849500D01*
X101353856Y-32849500D01*
X101353854Y-32849500D01*
X101264715Y-32873384D01*
X101264710Y-32873386D01*
X101184791Y-32919528D01*
X101119528Y-32984791D01*
X101073386Y-33064710D01*
X101073384Y-33064715D01*
X101049500Y-33153853D01*
X95038392Y-33153853D01*
X95041928Y-33138361D01*
X95043257Y-33132539D01*
X95043257Y-33132538D01*
X95045914Y-33120895D01*
X95069055Y-33019509D01*
X95100500Y-32740425D01*
X95100500Y-32576353D01*
X97095749Y-32576353D01*
X97095749Y-32668646D01*
X97119633Y-32757784D01*
X97119635Y-32757789D01*
X97165777Y-32837708D01*
X97165778Y-32837709D01*
X97165780Y-32837712D01*
X97231037Y-32902969D01*
X97231039Y-32902970D01*
X97231040Y-32902971D01*
X97307360Y-32947035D01*
X97310961Y-32949114D01*
X97310962Y-32949114D01*
X97310964Y-32949115D01*
X97355533Y-32961057D01*
X97400102Y-32972999D01*
X97400103Y-32973000D01*
X97400105Y-32973000D01*
X97492395Y-32973000D01*
X97492395Y-32972999D01*
X97581537Y-32949114D01*
X97661461Y-32902969D01*
X97726718Y-32837712D01*
X97772863Y-32757788D01*
X97796748Y-32668646D01*
X97796749Y-32668646D01*
X97796749Y-32576354D01*
X97796748Y-32576353D01*
X97772864Y-32487215D01*
X97772862Y-32487210D01*
X97726720Y-32407291D01*
X97726719Y-32407290D01*
X97726718Y-32407288D01*
X97661461Y-32342031D01*
X97661458Y-32342029D01*
X97661457Y-32342028D01*
X97581538Y-32295886D01*
X97581533Y-32295884D01*
X97492395Y-32272000D01*
X97492393Y-32272000D01*
X97400105Y-32272000D01*
X97400103Y-32272000D01*
X97310964Y-32295884D01*
X97310959Y-32295886D01*
X97231040Y-32342028D01*
X97165777Y-32407291D01*
X97119635Y-32487210D01*
X97119633Y-32487215D01*
X97095749Y-32576353D01*
X95100500Y-32576353D01*
X95100500Y-32459575D01*
X95069055Y-32180491D01*
X95057779Y-32131088D01*
X95006562Y-31906690D01*
X95006557Y-31906674D01*
X94943045Y-31725168D01*
X94913801Y-31641592D01*
X94791945Y-31388555D01*
X94642523Y-31150752D01*
X94467416Y-30931175D01*
X94268825Y-30732584D01*
X94049248Y-30557477D01*
X93811445Y-30408055D01*
X93811444Y-30408054D01*
X93811440Y-30408052D01*
X93672561Y-30341172D01*
X93634821Y-30298941D01*
X93637996Y-30242393D01*
X93680227Y-30204653D01*
X93704668Y-30200500D01*
X104460118Y-30200500D01*
X106925500Y-30200500D01*
X106977826Y-30222174D01*
G37*
%TD.AperFunction*%
%TA.AperFunction,Conductor*%
G36*
X90292346Y-42914182D02*
G01*
X90311500Y-42916704D01*
X90317587Y-42924637D01*
X90326826Y-42928464D01*
X90345978Y-42961636D01*
X90351110Y-42980790D01*
X90354286Y-42992643D01*
X90400428Y-43072562D01*
X90400429Y-43072563D01*
X90400431Y-43072566D01*
X90465688Y-43137823D01*
X90465690Y-43137824D01*
X90465691Y-43137825D01*
X90539004Y-43180153D01*
X90545612Y-43183968D01*
X90545613Y-43183968D01*
X90545615Y-43183969D01*
X90590184Y-43195911D01*
X90634753Y-43207853D01*
X90634754Y-43207854D01*
X90634756Y-43207854D01*
X90674772Y-43207854D01*
X90727098Y-43229528D01*
X90906826Y-43409256D01*
X90928500Y-43461582D01*
X90928500Y-50665218D01*
X90906826Y-50717544D01*
X90854500Y-50739218D01*
X90817500Y-50729304D01*
X90755289Y-50693386D01*
X90755284Y-50693384D01*
X90666146Y-50669500D01*
X90666144Y-50669500D01*
X90573856Y-50669500D01*
X90573854Y-50669500D01*
X90484715Y-50693384D01*
X90484710Y-50693386D01*
X90404791Y-50739528D01*
X90339527Y-50804792D01*
X90339527Y-50804793D01*
X90338583Y-50806428D01*
X90337827Y-50807007D01*
X90336573Y-50808642D01*
X90336135Y-50808305D01*
X90293647Y-50840903D01*
X90237495Y-50833506D01*
X90203020Y-50788570D01*
X90200500Y-50769423D01*
X90200500Y-46155850D01*
X90222174Y-46103524D01*
X90274500Y-46081850D01*
X90293653Y-46084372D01*
X90330187Y-46094160D01*
X90353853Y-46100502D01*
X90353854Y-46100503D01*
X90353856Y-46100503D01*
X90446146Y-46100503D01*
X90446146Y-46100502D01*
X90535288Y-46076617D01*
X90615212Y-46030472D01*
X90680469Y-45965215D01*
X90726614Y-45885291D01*
X90750499Y-45796149D01*
X90750500Y-45796149D01*
X90750500Y-45703857D01*
X90750499Y-45703856D01*
X90741561Y-45670500D01*
X90726614Y-45614715D01*
X90697048Y-45563506D01*
X90680471Y-45534794D01*
X90680470Y-45534793D01*
X90680469Y-45534791D01*
X90615212Y-45469534D01*
X90615209Y-45469532D01*
X90615208Y-45469531D01*
X90535289Y-45423389D01*
X90535284Y-45423387D01*
X90446146Y-45399503D01*
X90446144Y-45399503D01*
X90353856Y-45399503D01*
X90293652Y-45415634D01*
X90237499Y-45408241D01*
X90203021Y-45363307D01*
X90200500Y-45344155D01*
X90200500Y-42980790D01*
X90207892Y-42962943D01*
X90210414Y-42943790D01*
X90218347Y-42937702D01*
X90222174Y-42928464D01*
X90240021Y-42921071D01*
X90255348Y-42909311D01*
X90265262Y-42910616D01*
X90274500Y-42906790D01*
X90292346Y-42914182D01*
G37*
%TD.AperFunction*%
%TA.AperFunction,Conductor*%
G36*
X100645582Y-48275518D02*
G01*
X100667256Y-48327844D01*
X100664735Y-48346996D01*
X100649500Y-48403856D01*
X100649500Y-48496146D01*
X100673384Y-48585284D01*
X100673386Y-48585289D01*
X100719528Y-48665208D01*
X100719529Y-48665209D01*
X100719531Y-48665212D01*
X100784788Y-48730469D01*
X100839661Y-48762150D01*
X100874139Y-48807083D01*
X100866747Y-48863236D01*
X100854987Y-48878562D01*
X99825826Y-49907724D01*
X99773500Y-49929398D01*
X99721174Y-49907724D01*
X99699500Y-49855398D01*
X99699500Y-49147601D01*
X99721174Y-49095275D01*
X100130899Y-48685550D01*
X100540931Y-48275517D01*
X100593256Y-48253844D01*
X100645582Y-48275518D01*
G37*
%TD.AperFunction*%
%TA.AperFunction,Conductor*%
G36*
X90326826Y-33652342D02*
G01*
X90341172Y-33672561D01*
X90408052Y-33811440D01*
X90408054Y-33811444D01*
X90408055Y-33811445D01*
X90557477Y-34049248D01*
X90732584Y-34268825D01*
X90931175Y-34467416D01*
X91150752Y-34642523D01*
X91388555Y-34791945D01*
X91388558Y-34791946D01*
X91388559Y-34791947D01*
X91560672Y-34874832D01*
X91641592Y-34913801D01*
X91906682Y-35006560D01*
X91906687Y-35006561D01*
X91906690Y-35006562D01*
X92180486Y-35069054D01*
X92180487Y-35069054D01*
X92180491Y-35069055D01*
X92241143Y-35075888D01*
X92290712Y-35103284D01*
X92306392Y-35157708D01*
X92278996Y-35207278D01*
X92269858Y-35213508D01*
X92224792Y-35239527D01*
X92159528Y-35304791D01*
X92113386Y-35384710D01*
X92113384Y-35384715D01*
X92089500Y-35473853D01*
X92089500Y-35566146D01*
X92113384Y-35655284D01*
X92113386Y-35655289D01*
X92159528Y-35735208D01*
X92159529Y-35735209D01*
X92159531Y-35735212D01*
X92221524Y-35797205D01*
X92226902Y-35802583D01*
X92229572Y-35805397D01*
X92238078Y-35814845D01*
X92244591Y-35830568D01*
X92309432Y-35895409D01*
X92309433Y-35895409D01*
X92321211Y-35907187D01*
X97727826Y-41313802D01*
X97749500Y-41366128D01*
X97749500Y-41991569D01*
X97727826Y-42043895D01*
X97675500Y-42065569D01*
X97638500Y-42055655D01*
X97565289Y-42013386D01*
X97565284Y-42013384D01*
X97476146Y-41989500D01*
X97476144Y-41989500D01*
X97383856Y-41989500D01*
X97383854Y-41989500D01*
X97294715Y-42013384D01*
X97294710Y-42013386D01*
X97214791Y-42059528D01*
X97149528Y-42124791D01*
X97103386Y-42204710D01*
X97103384Y-42204715D01*
X97079500Y-42293853D01*
X97079500Y-42386146D01*
X97103384Y-42475284D01*
X97103386Y-42475289D01*
X97149528Y-42555208D01*
X97149529Y-42555209D01*
X97149531Y-42555212D01*
X97214788Y-42620469D01*
X97214790Y-42620470D01*
X97214791Y-42620471D01*
X97291423Y-42664715D01*
X97294712Y-42666614D01*
X97294713Y-42666614D01*
X97294715Y-42666615D01*
X97332596Y-42676765D01*
X97383853Y-42690499D01*
X97383854Y-42690500D01*
X97448909Y-42690500D01*
X97462508Y-42696133D01*
X97477228Y-42696133D01*
X97487635Y-42706541D01*
X97501235Y-42712174D01*
X97506868Y-42725774D01*
X97517276Y-42736182D01*
X97517276Y-42750900D01*
X97522909Y-42764500D01*
X97517276Y-42792819D01*
X97504105Y-42824616D01*
X97480870Y-42880708D01*
X97480870Y-42981020D01*
X97480871Y-42981029D01*
X97480871Y-43231791D01*
X97480870Y-43231805D01*
X97480870Y-43329463D01*
X97497869Y-43370501D01*
X97515960Y-43414178D01*
X97515963Y-43414182D01*
X97591210Y-43489429D01*
X97591212Y-43489430D01*
X97716826Y-43615044D01*
X97738500Y-43667370D01*
X97738500Y-48057178D01*
X97738499Y-48057192D01*
X97738499Y-48154850D01*
X97759055Y-48204476D01*
X97768090Y-48226289D01*
X97773591Y-48239568D01*
X97838432Y-48304409D01*
X97848839Y-48314816D01*
X97848841Y-48314817D01*
X98307826Y-48773802D01*
X98328602Y-48814637D01*
X98329500Y-48820349D01*
X98329500Y-48866144D01*
X98346913Y-48931133D01*
X98347523Y-48935009D01*
X98341730Y-48959013D01*
X98338507Y-48983500D01*
X98335211Y-48986028D01*
X98334237Y-48990066D01*
X98313167Y-49002943D01*
X98293574Y-49017978D01*
X98287194Y-49018817D01*
X98285912Y-49019602D01*
X98284262Y-49019204D01*
X98274421Y-49020500D01*
X93691196Y-49020500D01*
X93638870Y-48998826D01*
X93096674Y-48456630D01*
X93096674Y-48456629D01*
X93075329Y-48435284D01*
X93021425Y-48381380D01*
X93021423Y-48381379D01*
X93021421Y-48381378D01*
X92986333Y-48366844D01*
X92986333Y-48366843D01*
X92936707Y-48346288D01*
X92930805Y-48346288D01*
X92878480Y-48324615D01*
X92868577Y-48314712D01*
X92850185Y-48296320D01*
X92850182Y-48296318D01*
X92850181Y-48296317D01*
X92770262Y-48250175D01*
X92770257Y-48250173D01*
X92681119Y-48226289D01*
X92681117Y-48226289D01*
X92588829Y-48226289D01*
X92588827Y-48226289D01*
X92499688Y-48250173D01*
X92499683Y-48250175D01*
X92419764Y-48296317D01*
X92354501Y-48361580D01*
X92308359Y-48441499D01*
X92308357Y-48441504D01*
X92284473Y-48530642D01*
X92284473Y-48622935D01*
X92308357Y-48712073D01*
X92308359Y-48712078D01*
X92354501Y-48791997D01*
X92354502Y-48791998D01*
X92354504Y-48792001D01*
X92419761Y-48857258D01*
X92419763Y-48857259D01*
X92419764Y-48857260D01*
X92446418Y-48872649D01*
X92480897Y-48917583D01*
X92478135Y-48959746D01*
X92479182Y-48960027D01*
X92454041Y-49053853D01*
X92454041Y-49053856D01*
X92454041Y-49146144D01*
X92454943Y-49149511D01*
X92456878Y-49156734D01*
X92449482Y-49212886D01*
X92404547Y-49247363D01*
X92366246Y-49247362D01*
X92345981Y-49241932D01*
X92253693Y-49241932D01*
X92253691Y-49241932D01*
X92164552Y-49265816D01*
X92164547Y-49265818D01*
X92084628Y-49311960D01*
X92084625Y-49311962D01*
X92084625Y-49311963D01*
X92045824Y-49350763D01*
X91993500Y-49372437D01*
X91941174Y-49350763D01*
X91919500Y-49298437D01*
X91919500Y-48145579D01*
X91941174Y-48093253D01*
X91993500Y-48071579D01*
X92012653Y-48074101D01*
X92047024Y-48083310D01*
X92073853Y-48090499D01*
X92073854Y-48090500D01*
X92073856Y-48090500D01*
X92166146Y-48090500D01*
X92166146Y-48090499D01*
X92255288Y-48066614D01*
X92335212Y-48020469D01*
X92400469Y-47955212D01*
X92443017Y-47881516D01*
X92487949Y-47847040D01*
X92544102Y-47854432D01*
X92571187Y-47881516D01*
X92574049Y-47886473D01*
X92582511Y-47901130D01*
X92582514Y-47901134D01*
X92647771Y-47966391D01*
X92647773Y-47966392D01*
X92647774Y-47966393D01*
X92699307Y-47996146D01*
X92727695Y-48012536D01*
X92727696Y-48012536D01*
X92727698Y-48012537D01*
X92757301Y-48020469D01*
X92816836Y-48036421D01*
X92816837Y-48036422D01*
X92816839Y-48036422D01*
X92909129Y-48036422D01*
X92909129Y-48036421D01*
X92998271Y-48012536D01*
X93078195Y-47966391D01*
X93143452Y-47901134D01*
X93189597Y-47821210D01*
X93213482Y-47732068D01*
X93213483Y-47732068D01*
X93213483Y-47639776D01*
X93213482Y-47639775D01*
X93202958Y-47600500D01*
X93196558Y-47576612D01*
X93189598Y-47550637D01*
X93189596Y-47550632D01*
X93143454Y-47470713D01*
X93143453Y-47470712D01*
X93143452Y-47470710D01*
X93078195Y-47405453D01*
X93078192Y-47405451D01*
X93078191Y-47405450D01*
X92998272Y-47359308D01*
X92998267Y-47359306D01*
X92909129Y-47335422D01*
X92909127Y-47335422D01*
X92859550Y-47335422D01*
X92807224Y-47313748D01*
X92583174Y-47089698D01*
X92561500Y-47037372D01*
X92561500Y-46705836D01*
X92583174Y-46653510D01*
X92635500Y-46631836D01*
X92687824Y-46653509D01*
X92744786Y-46710471D01*
X92744788Y-46710472D01*
X92744789Y-46710473D01*
X92824708Y-46756615D01*
X92824710Y-46756616D01*
X92824711Y-46756616D01*
X92824713Y-46756617D01*
X92869282Y-46768559D01*
X92913851Y-46780501D01*
X92913852Y-46780502D01*
X92913854Y-46780502D01*
X93006144Y-46780502D01*
X93006144Y-46780501D01*
X93095286Y-46756616D01*
X93175210Y-46710471D01*
X93207972Y-46677708D01*
X93260295Y-46656035D01*
X93312621Y-46677708D01*
X93334296Y-46730034D01*
X93331776Y-46749181D01*
X93331560Y-46749985D01*
X93331560Y-46842281D01*
X93355444Y-46931419D01*
X93355446Y-46931424D01*
X93401588Y-47011343D01*
X93401589Y-47011344D01*
X93401591Y-47011347D01*
X93466848Y-47076604D01*
X93466850Y-47076605D01*
X93466851Y-47076606D01*
X93532857Y-47114715D01*
X93546772Y-47122749D01*
X93546773Y-47122749D01*
X93546775Y-47122750D01*
X93561196Y-47126614D01*
X93635913Y-47146634D01*
X93635914Y-47146635D01*
X93635916Y-47146635D01*
X93728206Y-47146635D01*
X93728206Y-47146634D01*
X93817348Y-47122749D01*
X93897272Y-47076604D01*
X93962529Y-47011347D01*
X94008674Y-46931423D01*
X94032559Y-46842281D01*
X94032560Y-46842281D01*
X94032560Y-46749992D01*
X94032343Y-46749181D01*
X94027435Y-46730866D01*
X94034825Y-46674716D01*
X94046583Y-46659391D01*
X94436377Y-46269598D01*
X95223534Y-46269598D01*
X95223534Y-46361891D01*
X95247418Y-46451029D01*
X95247420Y-46451034D01*
X95293562Y-46530953D01*
X95293563Y-46530954D01*
X95293565Y-46530957D01*
X95358822Y-46596214D01*
X95358824Y-46596215D01*
X95358825Y-46596216D01*
X95411475Y-46626614D01*
X95438746Y-46642359D01*
X95438747Y-46642359D01*
X95438749Y-46642360D01*
X95480362Y-46653510D01*
X95527887Y-46666244D01*
X95527888Y-46666245D01*
X95527890Y-46666245D01*
X95620180Y-46666245D01*
X95620180Y-46666244D01*
X95709322Y-46642359D01*
X95789246Y-46596214D01*
X95854503Y-46530957D01*
X95900648Y-46451033D01*
X95908518Y-46421660D01*
X95942995Y-46376729D01*
X95999148Y-46369335D01*
X96044081Y-46403813D01*
X96044082Y-46403814D01*
X96079528Y-46465208D01*
X96079529Y-46465209D01*
X96079531Y-46465212D01*
X96144788Y-46530469D01*
X96144790Y-46530470D01*
X96144791Y-46530471D01*
X96224710Y-46576613D01*
X96224712Y-46576614D01*
X96224713Y-46576614D01*
X96224715Y-46576615D01*
X96255210Y-46584786D01*
X96313853Y-46600499D01*
X96313854Y-46600500D01*
X96313856Y-46600500D01*
X96406146Y-46600500D01*
X96406146Y-46600499D01*
X96495288Y-46576614D01*
X96575212Y-46530469D01*
X96640469Y-46465212D01*
X96686614Y-46385288D01*
X96710500Y-46296144D01*
X96710500Y-46203856D01*
X96849500Y-46203856D01*
X96849500Y-46296144D01*
X96854000Y-46312938D01*
X96854000Y-46312940D01*
X96873384Y-46385284D01*
X96873386Y-46385289D01*
X96919529Y-46465209D01*
X96919531Y-46465213D01*
X96926995Y-46472677D01*
X96948667Y-46525003D01*
X96926995Y-46577323D01*
X96919531Y-46584786D01*
X96919529Y-46584790D01*
X96873386Y-46664710D01*
X96873384Y-46664715D01*
X96849500Y-46753853D01*
X96849500Y-46846146D01*
X96873384Y-46935284D01*
X96873386Y-46935289D01*
X96919528Y-47015208D01*
X96919529Y-47015209D01*
X96919531Y-47015212D01*
X96984788Y-47080469D01*
X96984790Y-47080470D01*
X96984791Y-47080471D01*
X97058019Y-47122750D01*
X97064712Y-47126614D01*
X97064713Y-47126614D01*
X97064715Y-47126615D01*
X97083801Y-47131729D01*
X97153853Y-47150499D01*
X97153854Y-47150500D01*
X97153856Y-47150500D01*
X97246146Y-47150500D01*
X97246146Y-47150499D01*
X97335288Y-47126614D01*
X97415212Y-47080469D01*
X97480469Y-47015212D01*
X97526614Y-46935288D01*
X97550499Y-46846146D01*
X97550500Y-46846146D01*
X97550500Y-46753854D01*
X97550499Y-46753853D01*
X97549464Y-46749992D01*
X97537633Y-46705836D01*
X97526615Y-46664715D01*
X97526613Y-46664710D01*
X97480471Y-46584791D01*
X97480470Y-46584790D01*
X97480469Y-46584788D01*
X97473005Y-46577324D01*
X97451332Y-46525000D01*
X97473005Y-46472675D01*
X97480469Y-46465212D01*
X97526614Y-46385288D01*
X97550499Y-46296146D01*
X97550500Y-46296146D01*
X97550500Y-46203854D01*
X97550499Y-46203853D01*
X97526615Y-46114715D01*
X97526613Y-46114710D01*
X97480471Y-46034791D01*
X97480470Y-46034790D01*
X97480469Y-46034788D01*
X97415212Y-45969531D01*
X97415209Y-45969529D01*
X97415208Y-45969528D01*
X97335289Y-45923386D01*
X97335284Y-45923384D01*
X97246146Y-45899500D01*
X97246144Y-45899500D01*
X97153856Y-45899500D01*
X97153854Y-45899500D01*
X97064715Y-45923384D01*
X97064710Y-45923386D01*
X96984791Y-45969528D01*
X96919528Y-46034791D01*
X96873386Y-46114710D01*
X96873384Y-46114715D01*
X96854000Y-46187058D01*
X96854000Y-46187061D01*
X96849500Y-46203856D01*
X96710500Y-46203856D01*
X96706000Y-46187061D01*
X96706000Y-46187058D01*
X96686615Y-46114715D01*
X96686613Y-46114710D01*
X96640471Y-46034791D01*
X96640470Y-46034790D01*
X96640469Y-46034788D01*
X96575212Y-45969531D01*
X96575209Y-45969529D01*
X96575208Y-45969528D01*
X96495289Y-45923386D01*
X96495284Y-45923384D01*
X96406146Y-45899500D01*
X96406144Y-45899500D01*
X96313856Y-45899500D01*
X96313854Y-45899500D01*
X96224715Y-45923384D01*
X96224710Y-45923386D01*
X96144791Y-45969528D01*
X96079528Y-46034791D01*
X96033386Y-46114710D01*
X96033386Y-46114713D01*
X96025515Y-46144084D01*
X95991036Y-46189017D01*
X95934883Y-46196408D01*
X95889951Y-46161930D01*
X95854505Y-46100536D01*
X95854504Y-46100535D01*
X95854503Y-46100533D01*
X95789246Y-46035276D01*
X95789243Y-46035274D01*
X95789242Y-46035273D01*
X95709323Y-45989131D01*
X95709318Y-45989129D01*
X95620180Y-45965245D01*
X95620178Y-45965245D01*
X95527890Y-45965245D01*
X95527888Y-45965245D01*
X95438749Y-45989129D01*
X95438744Y-45989131D01*
X95358825Y-46035273D01*
X95293562Y-46100536D01*
X95247420Y-46180455D01*
X95247418Y-46180460D01*
X95223534Y-46269598D01*
X94436377Y-46269598D01*
X94461566Y-46244409D01*
X94461568Y-46244409D01*
X94526409Y-46179568D01*
X94553273Y-46114712D01*
X94561501Y-46094849D01*
X94561501Y-46003150D01*
X94561501Y-45997192D01*
X94561500Y-45997178D01*
X94561500Y-45615832D01*
X94583174Y-45563506D01*
X94635500Y-45541832D01*
X94687824Y-45563505D01*
X94724788Y-45600469D01*
X94724790Y-45600470D01*
X94724791Y-45600471D01*
X94751397Y-45615832D01*
X94804712Y-45646614D01*
X94804713Y-45646614D01*
X94804715Y-45646615D01*
X94849284Y-45658557D01*
X94893853Y-45670499D01*
X94893854Y-45670500D01*
X94893856Y-45670500D01*
X94986146Y-45670500D01*
X94986146Y-45670499D01*
X95075288Y-45646614D01*
X95155212Y-45600469D01*
X95220469Y-45535212D01*
X95266614Y-45455288D01*
X95290499Y-45366146D01*
X95290500Y-45366146D01*
X95290500Y-45316353D01*
X96737000Y-45316353D01*
X96737000Y-45408646D01*
X96760884Y-45497784D01*
X96760886Y-45497789D01*
X96807028Y-45577708D01*
X96807029Y-45577709D01*
X96807031Y-45577712D01*
X96872288Y-45642969D01*
X96872290Y-45642970D01*
X96872291Y-45642971D01*
X96919970Y-45670499D01*
X96952212Y-45689114D01*
X96952213Y-45689114D01*
X96952215Y-45689115D01*
X96996784Y-45701057D01*
X97041353Y-45712999D01*
X97041354Y-45713000D01*
X97041356Y-45713000D01*
X97133646Y-45713000D01*
X97133646Y-45712999D01*
X97222788Y-45689114D01*
X97302712Y-45642969D01*
X97367969Y-45577712D01*
X97414114Y-45497788D01*
X97437999Y-45408646D01*
X97438000Y-45408646D01*
X97438000Y-45316354D01*
X97437999Y-45316353D01*
X97414115Y-45227215D01*
X97414113Y-45227210D01*
X97367971Y-45147291D01*
X97367970Y-45147290D01*
X97367969Y-45147288D01*
X97302712Y-45082031D01*
X97302709Y-45082029D01*
X97302708Y-45082028D01*
X97222789Y-45035886D01*
X97222784Y-45035884D01*
X97133646Y-45012000D01*
X97133644Y-45012000D01*
X97041356Y-45012000D01*
X97041354Y-45012000D01*
X96952215Y-45035884D01*
X96952210Y-45035886D01*
X96872291Y-45082028D01*
X96807028Y-45147291D01*
X96760886Y-45227210D01*
X96760884Y-45227215D01*
X96737000Y-45316353D01*
X95290500Y-45316353D01*
X95290500Y-45273854D01*
X95290499Y-45273853D01*
X95290373Y-45273384D01*
X95266614Y-45184712D01*
X95220469Y-45104788D01*
X95155212Y-45039531D01*
X95155209Y-45039529D01*
X95155208Y-45039528D01*
X95075289Y-44993386D01*
X95075284Y-44993384D01*
X94986146Y-44969500D01*
X94986144Y-44969500D01*
X94893856Y-44969500D01*
X94893854Y-44969500D01*
X94804715Y-44993384D01*
X94804710Y-44993386D01*
X94724791Y-45039528D01*
X94724788Y-45039530D01*
X94724788Y-45039531D01*
X94687824Y-45076494D01*
X94635500Y-45098168D01*
X94583174Y-45076494D01*
X94561500Y-45024168D01*
X94561500Y-44253853D01*
X96849500Y-44253853D01*
X96849500Y-44346146D01*
X96873384Y-44435284D01*
X96873386Y-44435289D01*
X96919528Y-44515208D01*
X96919529Y-44515209D01*
X96919531Y-44515212D01*
X96984788Y-44580469D01*
X96984790Y-44580470D01*
X96984791Y-44580471D01*
X97064710Y-44626613D01*
X97064712Y-44626614D01*
X97064713Y-44626614D01*
X97064715Y-44626615D01*
X97109284Y-44638557D01*
X97153853Y-44650499D01*
X97153854Y-44650500D01*
X97153856Y-44650500D01*
X97246146Y-44650500D01*
X97246146Y-44650499D01*
X97335288Y-44626614D01*
X97415212Y-44580469D01*
X97480469Y-44515212D01*
X97526614Y-44435288D01*
X97550499Y-44346146D01*
X97550500Y-44346146D01*
X97550500Y-44253854D01*
X97550499Y-44253853D01*
X97547971Y-44244420D01*
X97526614Y-44164712D01*
X97526613Y-44164710D01*
X97480471Y-44084791D01*
X97480470Y-44084790D01*
X97480469Y-44084788D01*
X97415212Y-44019531D01*
X97415209Y-44019529D01*
X97415208Y-44019528D01*
X97335289Y-43973386D01*
X97335284Y-43973384D01*
X97246146Y-43949500D01*
X97246144Y-43949500D01*
X97153856Y-43949500D01*
X97153854Y-43949500D01*
X97064715Y-43973384D01*
X97064710Y-43973386D01*
X96984791Y-44019528D01*
X96919528Y-44084791D01*
X96873386Y-44164710D01*
X96873384Y-44164715D01*
X96849500Y-44253853D01*
X94561500Y-44253853D01*
X94561500Y-41916353D01*
X95668249Y-41916353D01*
X95668249Y-42008646D01*
X95692133Y-42097784D01*
X95692135Y-42097789D01*
X95738277Y-42177708D01*
X95738278Y-42177709D01*
X95738280Y-42177712D01*
X95803537Y-42242969D01*
X95803539Y-42242970D01*
X95803540Y-42242971D01*
X95805066Y-42243852D01*
X95883461Y-42289114D01*
X95883462Y-42289114D01*
X95883464Y-42289115D01*
X95892944Y-42291655D01*
X95972602Y-42312999D01*
X95972603Y-42313000D01*
X95972605Y-42313000D01*
X96064895Y-42313000D01*
X96064895Y-42312999D01*
X96154037Y-42289114D01*
X96233961Y-42242969D01*
X96299218Y-42177712D01*
X96345363Y-42097788D01*
X96369248Y-42008646D01*
X96369249Y-42008646D01*
X96369249Y-41916354D01*
X96369248Y-41916353D01*
X96366806Y-41907241D01*
X96345363Y-41827212D01*
X96318376Y-41780470D01*
X96299220Y-41747291D01*
X96299219Y-41747290D01*
X96299218Y-41747288D01*
X96233961Y-41682031D01*
X96233958Y-41682029D01*
X96233957Y-41682028D01*
X96154038Y-41635886D01*
X96154033Y-41635884D01*
X96064895Y-41612000D01*
X96064893Y-41612000D01*
X95972605Y-41612000D01*
X95972603Y-41612000D01*
X95883464Y-41635884D01*
X95883459Y-41635886D01*
X95803540Y-41682028D01*
X95738277Y-41747291D01*
X95692135Y-41827210D01*
X95692133Y-41827215D01*
X95668249Y-41916353D01*
X94561500Y-41916353D01*
X94561500Y-39255474D01*
X94561501Y-39255465D01*
X94561501Y-39155154D01*
X94543954Y-39112794D01*
X94543953Y-39112793D01*
X94526409Y-39070436D01*
X94457353Y-39001380D01*
X94457346Y-39001374D01*
X91767172Y-36311200D01*
X91745498Y-36258874D01*
X91745498Y-36218856D01*
X91745497Y-36218855D01*
X91741157Y-36202659D01*
X91732660Y-36170946D01*
X91721613Y-36129717D01*
X91721611Y-36129712D01*
X91675469Y-36049793D01*
X91675468Y-36049792D01*
X91675467Y-36049790D01*
X91610210Y-35984533D01*
X91610207Y-35984531D01*
X91610206Y-35984530D01*
X91530287Y-35938388D01*
X91530282Y-35938386D01*
X91441144Y-35914502D01*
X91441142Y-35914502D01*
X91348854Y-35914502D01*
X91348852Y-35914502D01*
X91259713Y-35938386D01*
X91259708Y-35938388D01*
X91179789Y-35984530D01*
X91114525Y-36049794D01*
X91114525Y-36049795D01*
X91093917Y-36085488D01*
X91048983Y-36119966D01*
X90992831Y-36112572D01*
X90971131Y-36093544D01*
X90969202Y-36091031D01*
X90969197Y-36091026D01*
X90969196Y-36091024D01*
X90903939Y-36025767D01*
X90903936Y-36025765D01*
X90903935Y-36025764D01*
X90824016Y-35979622D01*
X90824011Y-35979620D01*
X90734873Y-35955736D01*
X90734871Y-35955736D01*
X90642583Y-35955736D01*
X90642581Y-35955736D01*
X90553442Y-35979620D01*
X90553437Y-35979622D01*
X90473518Y-36025764D01*
X90408255Y-36091027D01*
X90362113Y-36170946D01*
X90362111Y-36170951D01*
X90345978Y-36231162D01*
X90311500Y-36276095D01*
X90255347Y-36283487D01*
X90210414Y-36249009D01*
X90200500Y-36212009D01*
X90200500Y-33704668D01*
X90222174Y-33652342D01*
X90274500Y-33630668D01*
X90326826Y-33652342D01*
G37*
%TD.AperFunction*%
%TA.AperFunction,Conductor*%
G36*
X92657176Y-37871111D02*
G01*
X92687827Y-37883807D01*
X94078826Y-39274806D01*
X94100500Y-39327132D01*
X94100500Y-45922872D01*
X94078826Y-45975198D01*
X93921508Y-46132515D01*
X93869182Y-46154189D01*
X93816856Y-46132515D01*
X93805098Y-46117191D01*
X93763850Y-46045749D01*
X93763849Y-46045747D01*
X93763848Y-46045746D01*
X93763847Y-46045744D01*
X93698590Y-45980487D01*
X93698587Y-45980485D01*
X93698586Y-45980484D01*
X93618667Y-45934342D01*
X93618662Y-45934340D01*
X93529524Y-45910456D01*
X93529522Y-45910456D01*
X93437234Y-45910456D01*
X93437232Y-45910456D01*
X93348093Y-45934340D01*
X93348088Y-45934342D01*
X93268169Y-45980484D01*
X93202905Y-46045748D01*
X93202905Y-46045749D01*
X93187727Y-46072037D01*
X93142793Y-46106515D01*
X93100216Y-46103725D01*
X93099971Y-46104643D01*
X93095357Y-46103406D01*
X93095329Y-46103405D01*
X93095289Y-46103388D01*
X93006144Y-46079502D01*
X93006142Y-46079502D01*
X92913854Y-46079502D01*
X92913852Y-46079502D01*
X92824713Y-46103386D01*
X92824708Y-46103388D01*
X92744789Y-46149530D01*
X92744786Y-46149532D01*
X92744786Y-46149533D01*
X92687824Y-46206494D01*
X92635500Y-46228168D01*
X92583174Y-46206494D01*
X92561500Y-46154168D01*
X92561500Y-43363234D01*
X92583174Y-43310908D01*
X92635500Y-43289234D01*
X92672501Y-43299148D01*
X92674786Y-43300467D01*
X92674788Y-43300469D01*
X92754712Y-43346614D01*
X92754714Y-43346614D01*
X92754715Y-43346615D01*
X92799284Y-43358557D01*
X92843853Y-43370499D01*
X92843854Y-43370500D01*
X92843856Y-43370500D01*
X92936146Y-43370500D01*
X92936146Y-43370499D01*
X93025288Y-43346614D01*
X93105212Y-43300469D01*
X93170469Y-43235212D01*
X93216614Y-43155288D01*
X93240499Y-43066146D01*
X93240500Y-43066146D01*
X93240500Y-42973854D01*
X93240499Y-42973853D01*
X93216615Y-42884715D01*
X93216613Y-42884710D01*
X93170471Y-42804791D01*
X93170470Y-42804790D01*
X93170469Y-42804788D01*
X93105212Y-42739531D01*
X93105209Y-42739529D01*
X93105208Y-42739528D01*
X93025289Y-42693386D01*
X93025284Y-42693384D01*
X92936146Y-42669500D01*
X92936144Y-42669500D01*
X92843856Y-42669500D01*
X92843854Y-42669500D01*
X92754715Y-42693384D01*
X92754710Y-42693386D01*
X92672500Y-42740851D01*
X92616347Y-42748244D01*
X92571414Y-42713765D01*
X92561500Y-42676765D01*
X92561500Y-41835832D01*
X92583174Y-41783506D01*
X92635500Y-41761832D01*
X92679120Y-41779900D01*
X92680947Y-41777521D01*
X92684785Y-41780466D01*
X92684788Y-41780469D01*
X92764712Y-41826614D01*
X92764713Y-41826614D01*
X92764715Y-41826615D01*
X92799114Y-41835832D01*
X92853853Y-41850499D01*
X92853854Y-41850500D01*
X92853856Y-41850500D01*
X92946146Y-41850500D01*
X92946146Y-41850499D01*
X93035288Y-41826614D01*
X93115212Y-41780469D01*
X93180469Y-41715212D01*
X93226614Y-41635288D01*
X93250499Y-41546146D01*
X93250500Y-41546146D01*
X93250500Y-41453854D01*
X93250499Y-41453853D01*
X93249597Y-41450488D01*
X93232836Y-41387934D01*
X93226615Y-41364715D01*
X93226613Y-41364710D01*
X93180471Y-41284791D01*
X93180470Y-41284790D01*
X93180469Y-41284788D01*
X93115212Y-41219531D01*
X93115209Y-41219529D01*
X93115208Y-41219528D01*
X93035289Y-41173386D01*
X93035284Y-41173384D01*
X92946146Y-41149500D01*
X92946144Y-41149500D01*
X92853856Y-41149500D01*
X92853854Y-41149500D01*
X92764715Y-41173384D01*
X92764710Y-41173386D01*
X92684790Y-41219529D01*
X92680947Y-41222479D01*
X92679120Y-41220099D01*
X92635500Y-41238168D01*
X92583174Y-41216494D01*
X92561500Y-41164168D01*
X92561500Y-38002978D01*
X92561500Y-37994360D01*
X92561501Y-37994359D01*
X92561501Y-37936132D01*
X92583175Y-37883808D01*
X92583175Y-37883806D01*
X92583176Y-37883806D01*
X92613828Y-37871110D01*
X92635501Y-37862133D01*
X92635502Y-37862133D01*
X92657176Y-37871111D01*
G37*
%TD.AperFunction*%
%TA.AperFunction,Conductor*%
G36*
X100825826Y-41661329D02*
G01*
X101403826Y-42239329D01*
X101425500Y-42291655D01*
X101425500Y-43005399D01*
X101403826Y-43057725D01*
X101351500Y-43079399D01*
X101299174Y-43057725D01*
X100721174Y-42479725D01*
X100699500Y-42427399D01*
X100699500Y-41713655D01*
X100721174Y-41661329D01*
X100773500Y-41639655D01*
X100825826Y-41661329D01*
G37*
%TD.AperFunction*%
%TA.AperFunction,Conductor*%
G36*
X91079125Y-40881080D02*
G01*
X91436826Y-41238781D01*
X91458500Y-41291107D01*
X91458500Y-42520799D01*
X91436826Y-42573125D01*
X91384500Y-42594799D01*
X91332174Y-42573125D01*
X91002901Y-42243852D01*
X91002901Y-42243851D01*
X90986332Y-42227282D01*
X90927652Y-42168602D01*
X90927650Y-42168601D01*
X90927648Y-42168600D01*
X90892560Y-42154066D01*
X90892560Y-42154065D01*
X90842934Y-42133510D01*
X90751234Y-42133510D01*
X90742622Y-42133510D01*
X90742614Y-42133511D01*
X90733598Y-42133511D01*
X90681273Y-42111838D01*
X90667219Y-42097784D01*
X90652977Y-42083542D01*
X90652974Y-42083540D01*
X90652973Y-42083539D01*
X90573054Y-42037397D01*
X90573049Y-42037395D01*
X90483911Y-42013511D01*
X90483909Y-42013511D01*
X90391621Y-42013511D01*
X90391619Y-42013511D01*
X90297792Y-42038652D01*
X90297418Y-42037257D01*
X90246175Y-42037253D01*
X90206130Y-41997201D01*
X90200500Y-41968888D01*
X90200500Y-41115263D01*
X90222174Y-41062937D01*
X90274500Y-41041263D01*
X90326826Y-41062937D01*
X90329180Y-41065291D01*
X90329182Y-41065294D01*
X90394439Y-41130551D01*
X90394441Y-41130552D01*
X90394442Y-41130553D01*
X90468630Y-41173386D01*
X90474363Y-41176696D01*
X90474364Y-41176696D01*
X90474366Y-41176697D01*
X90485029Y-41179554D01*
X90563504Y-41200581D01*
X90563505Y-41200582D01*
X90563507Y-41200582D01*
X90655797Y-41200582D01*
X90655797Y-41200581D01*
X90744939Y-41176696D01*
X90824863Y-41130551D01*
X90890120Y-41065294D01*
X90936265Y-40985370D01*
X90955321Y-40914251D01*
X90989799Y-40869320D01*
X91045952Y-40861927D01*
X91079125Y-40881080D01*
G37*
%TD.AperFunction*%
%TA.AperFunction,Conductor*%
G36*
X90326826Y-36348136D02*
G01*
X90345978Y-36381309D01*
X90362111Y-36441520D01*
X90362113Y-36441525D01*
X90408255Y-36521444D01*
X90408256Y-36521445D01*
X90408258Y-36521448D01*
X90473515Y-36586705D01*
X90553439Y-36632850D01*
X90553440Y-36632850D01*
X90553442Y-36632851D01*
X90562541Y-36635289D01*
X90642580Y-36656735D01*
X90642581Y-36656736D01*
X90642583Y-36656736D01*
X90682599Y-36656736D01*
X90734925Y-36678410D01*
X92078826Y-38022311D01*
X92100500Y-38074637D01*
X92100500Y-39211498D01*
X92078826Y-39263824D01*
X92026500Y-39285498D01*
X91974175Y-39263824D01*
X91943989Y-39233638D01*
X91943986Y-39233636D01*
X91943985Y-39233635D01*
X91864066Y-39187493D01*
X91864061Y-39187491D01*
X91774923Y-39163607D01*
X91774921Y-39163607D01*
X91682633Y-39163607D01*
X91682631Y-39163607D01*
X91593492Y-39187491D01*
X91593487Y-39187493D01*
X91513568Y-39233635D01*
X91448305Y-39298898D01*
X91402163Y-39378817D01*
X91402161Y-39378822D01*
X91378277Y-39467960D01*
X91378277Y-39560253D01*
X91403418Y-39654080D01*
X91401246Y-39654662D01*
X91401246Y-39703819D01*
X91361197Y-39743867D01*
X91332879Y-39749500D01*
X91303851Y-39749500D01*
X91214712Y-39773384D01*
X91214707Y-39773386D01*
X91134788Y-39819528D01*
X91069524Y-39884792D01*
X91069524Y-39884793D01*
X91030294Y-39952739D01*
X90985360Y-39987217D01*
X90947057Y-39987217D01*
X90893543Y-39972878D01*
X90801255Y-39972878D01*
X90801253Y-39972878D01*
X90712114Y-39996762D01*
X90712109Y-39996764D01*
X90632190Y-40042906D01*
X90566927Y-40108169D01*
X90520785Y-40188088D01*
X90520783Y-40188093D01*
X90496899Y-40277231D01*
X90496899Y-40277234D01*
X90496899Y-40369522D01*
X90499832Y-40380469D01*
X90514980Y-40437002D01*
X90507587Y-40493154D01*
X90477630Y-40519427D01*
X90478563Y-40521043D01*
X90394442Y-40569610D01*
X90394439Y-40569612D01*
X90394439Y-40569613D01*
X90329182Y-40634870D01*
X90329180Y-40634872D01*
X90326826Y-40637227D01*
X90274500Y-40658901D01*
X90222174Y-40637227D01*
X90200500Y-40584901D01*
X90200500Y-36400462D01*
X90222174Y-36348136D01*
X90274500Y-36326462D01*
X90326826Y-36348136D01*
G37*
%TD.AperFunction*%
%TD*%
M02*
