%TF.GenerationSoftware,KiCad,Pcbnew,9.0.7*%
%TF.CreationDate,2026-02-19T22:00:42-05:00*%
%TF.ProjectId,OshEasyMini,4f736845-6173-4794-9d69-6e692e6b6963,rev?*%
%TF.SameCoordinates,Original*%
%TF.FileFunction,Copper,L5,Inr*%
%TF.FilePolarity,Positive*%
%FSLAX46Y46*%
G04 Gerber Fmt 4.6, Leading zero omitted, Abs format (unit mm)*
G04 Created by KiCad (PCBNEW 9.0.7) date 2026-02-19 22:00:42*
%MOMM*%
%LPD*%
G01*
G04 APERTURE LIST*
G04 Aperture macros list*
%AMRoundRect*
0 Rectangle with rounded corners*
0 $1 Rounding radius*
0 $2 $3 $4 $5 $6 $7 $8 $9 X,Y pos of 4 corners*
0 Add a 4 corners polygon primitive as box body*
4,1,4,$2,$3,$4,$5,$6,$7,$8,$9,$2,$3,0*
0 Add four circle primitives for the rounded corners*
1,1,$1+$1,$2,$3*
1,1,$1+$1,$4,$5*
1,1,$1+$1,$6,$7*
1,1,$1+$1,$8,$9*
0 Add four rect primitives between the rounded corners*
20,1,$1+$1,$2,$3,$4,$5,0*
20,1,$1+$1,$4,$5,$6,$7,0*
20,1,$1+$1,$6,$7,$8,$9,0*
20,1,$1+$1,$8,$9,$2,$3,0*%
G04 Aperture macros list end*
%TA.AperFunction,ComponentPad*%
%ADD10RoundRect,0.249999X-0.850001X-0.850001X0.850001X-0.850001X0.850001X0.850001X-0.850001X0.850001X0*%
%TD*%
%TA.AperFunction,ComponentPad*%
%ADD11C,2.200000*%
%TD*%
%TA.AperFunction,ComponentPad*%
%ADD12RoundRect,0.250000X0.350000X0.625000X-0.350000X0.625000X-0.350000X-0.625000X0.350000X-0.625000X0*%
%TD*%
%TA.AperFunction,ComponentPad*%
%ADD13O,1.200000X1.750000*%
%TD*%
%TA.AperFunction,ComponentPad*%
%ADD14C,4.700000*%
%TD*%
%TA.AperFunction,ViaPad*%
%ADD15C,0.400000*%
%TD*%
G04 APERTURE END LIST*
D10*
%TO.N,/FET_B*%
%TO.C,J4*%
X91620000Y-61850000D03*
D11*
%TO.N,/FET_A*%
X94160000Y-61850000D03*
%TO.N,V_LIPO*%
X96700000Y-61850000D03*
%TD*%
D12*
%TO.N,V_CHARGE*%
%TO.C,J6*%
X103180000Y-63250000D03*
D13*
%TO.N,GND*%
X101180000Y-63250000D03*
%TD*%
D14*
%TO.N,unconnected-(H2-Pad1)*%
%TO.C,H2*%
X92600000Y-32600000D03*
%TD*%
%TO.N,unconnected-(H1-Pad1)*%
%TO.C,H1*%
X104600000Y-57350000D03*
%TD*%
D15*
%TO.N,GND*%
X104600000Y-50200000D03*
X90610352Y-48518702D03*
X100326594Y-56745379D03*
X106100000Y-47600000D03*
X102438025Y-46363215D03*
X101225000Y-42700000D03*
X92400000Y-54050000D03*
X97960000Y-64690000D03*
X103100000Y-61000000D03*
X90575000Y-56425000D03*
X104330476Y-38454400D03*
X106700000Y-50250000D03*
X96370000Y-52480000D03*
X91304541Y-53150003D03*
X95661513Y-46940187D03*
X96002985Y-55366247D03*
X92910000Y-63700000D03*
X90400000Y-44900000D03*
X91850000Y-54000000D03*
X97794486Y-30771352D03*
X92150000Y-57425000D03*
X95187660Y-57017523D03*
X100966249Y-38462500D03*
X91088777Y-39514107D03*
X97740611Y-60140829D03*
X100000000Y-40200000D03*
X92804541Y-50100000D03*
X96132299Y-60277290D03*
X94060574Y-38053181D03*
X95300000Y-63900000D03*
X103600000Y-50600000D03*
X96180000Y-50350000D03*
X93010000Y-42120000D03*
X96043070Y-44590231D03*
X94000000Y-35200000D03*
X98100000Y-58200000D03*
X93675000Y-43575000D03*
X97643630Y-56131971D03*
X94910000Y-54120000D03*
X90600000Y-41400000D03*
X94450000Y-56300000D03*
X100714507Y-55961513D03*
X94863261Y-52227954D03*
X92800000Y-51100000D03*
X98600000Y-31600000D03*
X94304541Y-50100000D03*
X94737297Y-53340027D03*
X106500000Y-37900000D03*
X90640000Y-47490000D03*
X106600000Y-59600000D03*
X91000000Y-35200000D03*
X99050000Y-62720000D03*
X101041826Y-37772156D03*
X95255169Y-50967719D03*
X106302829Y-43000000D03*
X99900000Y-49200000D03*
%TO.N,+3V3*%
X96018749Y-41962500D03*
X92900000Y-41500000D03*
X97800000Y-55500000D03*
X106470391Y-36483131D03*
X97400000Y-54750000D03*
X97430000Y-42340000D03*
X97900000Y-54900000D03*
X92120000Y-47740000D03*
X101000000Y-48450000D03*
X103112500Y-45600000D03*
X96414376Y-35765076D03*
X97446249Y-32622500D03*
X102200000Y-41800000D03*
X106600000Y-39100000D03*
X106500000Y-46800000D03*
X100000000Y-52400000D03*
X91728777Y-39514107D03*
X97228341Y-55395349D03*
X96360000Y-46250000D03*
X104300000Y-54400000D03*
X92804541Y-49100000D03*
X91304541Y-52600000D03*
%TO.N,/NRST*%
X94814559Y-50305877D03*
X103431000Y-47950000D03*
X90847399Y-40323378D03*
%TO.N,/RADIO_MARC_ISR*%
X98600000Y-42800000D03*
X91349997Y-40100000D03*
%TO.N,/RADIO_INT*%
X91900000Y-40100000D03*
X98142371Y-43105086D03*
%TO.N,/CS_RADIO*%
X93200000Y-35700000D03*
X101725675Y-40464347D03*
%TO.N,Net-(J3-In)*%
X105856124Y-31919948D03*
X105941802Y-33273649D03*
X106600000Y-34600000D03*
X106600000Y-32000000D03*
X105907531Y-34678756D03*
X106600000Y-33200000D03*
%TO.N,/CS_BARO*%
X97087500Y-45362500D03*
X106300000Y-44000000D03*
%TO.N,VBUS*%
X101580000Y-57630000D03*
X105160000Y-47250000D03*
%TO.N,V_LIPO*%
X100628594Y-59228025D03*
X97089994Y-56826929D03*
X101146466Y-59296567D03*
X101159159Y-58682229D03*
X97042505Y-57362147D03*
X98886855Y-57732299D03*
X104200000Y-60400000D03*
X97113586Y-57869864D03*
X104200000Y-61400000D03*
X98827504Y-57034923D03*
%TO.N,/MGSW_IN*%
X104758812Y-61948127D03*
X103606013Y-51606666D03*
X106600000Y-62600000D03*
%TO.N,/HALL_OUT*%
X103450000Y-53250000D03*
X98745969Y-53591937D03*
%TO.N,Net-(JP1-A)*%
X98230000Y-50090000D03*
X91200000Y-54110000D03*
%TO.N,Net-(D4-A2)*%
X100200000Y-57900000D03*
X106700000Y-51100000D03*
X99200000Y-61150000D03*
%TO.N,Net-(D4-A1)*%
X106640000Y-52540000D03*
X101800000Y-61100000D03*
%TO.N,Net-(D4-K1)*%
X98090000Y-63140000D03*
X106600000Y-54300000D03*
%TO.N,/SWDIO*%
X103000000Y-49100000D03*
%TO.N,/SWCLK*%
X97680096Y-50100376D03*
X103950000Y-48300000D03*
%TO.N,Net-(Q1-G)*%
X104400000Y-62600000D03*
%TO.N,Net-(Q2-D)*%
X92400000Y-52600000D03*
X106620000Y-61950000D03*
%TO.N,/SENSE_A*%
X100900000Y-40200000D03*
X95187660Y-58927523D03*
%TO.N,/SENSE_B*%
X90614999Y-58700000D03*
X102200000Y-36700000D03*
%TO.N,/FIRE_A*%
X96139926Y-58913531D03*
X90680900Y-42857354D03*
%TO.N,/GATE_A*%
X93893463Y-56783325D03*
%TO.N,/FIRE_B*%
X90437765Y-42364011D03*
X91950000Y-54675000D03*
%TO.N,/GATE_B*%
X91800000Y-55600000D03*
%TO.N,/CMP_RAIL*%
X94381052Y-57369669D03*
X91365000Y-56740000D03*
%TO.N,/V_BATT*%
X97669934Y-59483948D03*
X102333581Y-39666605D03*
%TO.N,/USB_D+*%
X92959998Y-46430002D03*
%TO.N,/USB_D-*%
X93483378Y-46260956D03*
%TO.N,/AC_INT1*%
X98400000Y-44650000D03*
X103100000Y-40500000D03*
%TO.N,/SCK0*%
X101848255Y-41235281D03*
X104200000Y-36399999D03*
X105784060Y-41314842D03*
%TO.N,/MISO0*%
X101207465Y-41107465D03*
X103000000Y-37100000D03*
%TO.N,/CS_ACCEL*%
X104200000Y-40400000D03*
X101800000Y-39800000D03*
%TO.N,/MOSI0*%
X103300000Y-36500000D03*
X98441173Y-42273429D03*
%TO.N,/AC_INT2*%
X97200000Y-44300000D03*
X103200000Y-39600000D03*
%TO.N,/SCK3*%
X94940000Y-45320000D03*
X102300000Y-44000000D03*
%TO.N,/MISO3*%
X92890000Y-43020000D03*
X105100000Y-44000000D03*
%TO.N,/MOSI3*%
X103200000Y-46300000D03*
X90400000Y-45750003D03*
%TO.N,/TX1*%
X90620000Y-51020000D03*
X97200000Y-46800000D03*
%TO.N,/RX1*%
X92299837Y-49592432D03*
X97200000Y-46250000D03*
%TO.N,/MISO5*%
X98680000Y-48820000D03*
X92440000Y-35520000D03*
%TO.N,/MOSI5*%
X90688727Y-36306236D03*
X92862983Y-47685922D03*
%TO.N,/SCK5*%
X93682060Y-46796135D03*
X91394998Y-36265002D03*
%TO.N,/CS_FLASH*%
X101700000Y-52300000D03*
X95574034Y-46315745D03*
%TO.N,/BUZZ*%
X101400000Y-33200000D03*
X90609651Y-40850082D03*
%TO.N,Net-(J10-Pin_2)*%
X105200000Y-42800000D03*
%TO.N,Net-(J10-Pin_1)*%
X105690776Y-43048276D03*
%TO.N,Net-(U1-V_BCKP)*%
X98918131Y-64485309D03*
X92634973Y-48576789D03*
X100771675Y-47427018D03*
X105989336Y-47004266D03*
%TO.N,Net-(U1-VCC_RF)*%
X93800000Y-52600000D03*
X95854545Y-51000000D03*
%TD*%
%TA.AperFunction,Conductor*%
%TO.N,GND*%
G36*
X106977826Y-30222174D02*
G01*
X106999500Y-30274500D01*
X106999500Y-31725168D01*
X106977826Y-31777494D01*
X106925500Y-31799168D01*
X106873175Y-31777494D01*
X106815212Y-31719531D01*
X106815209Y-31719529D01*
X106815208Y-31719528D01*
X106735289Y-31673386D01*
X106735284Y-31673384D01*
X106646146Y-31649500D01*
X106646144Y-31649500D01*
X106553856Y-31649500D01*
X106553854Y-31649500D01*
X106464715Y-31673384D01*
X106464710Y-31673386D01*
X106384791Y-31719528D01*
X106319527Y-31784792D01*
X106319527Y-31784793D01*
X106314937Y-31792742D01*
X106270001Y-31827217D01*
X106213849Y-31819820D01*
X106186186Y-31788268D01*
X106185163Y-31788860D01*
X106136595Y-31704739D01*
X106136594Y-31704738D01*
X106136593Y-31704736D01*
X106071336Y-31639479D01*
X106071333Y-31639477D01*
X106071332Y-31639476D01*
X105991413Y-31593334D01*
X105991408Y-31593332D01*
X105902270Y-31569448D01*
X105902268Y-31569448D01*
X105809980Y-31569448D01*
X105809978Y-31569448D01*
X105720839Y-31593332D01*
X105720834Y-31593334D01*
X105640915Y-31639476D01*
X105575652Y-31704739D01*
X105529510Y-31784658D01*
X105529508Y-31784663D01*
X105505624Y-31873801D01*
X105505624Y-31966094D01*
X105529508Y-32055232D01*
X105529510Y-32055237D01*
X105575652Y-32135156D01*
X105575653Y-32135157D01*
X105575655Y-32135160D01*
X105640912Y-32200417D01*
X105640914Y-32200418D01*
X105640915Y-32200419D01*
X105720834Y-32246561D01*
X105720836Y-32246562D01*
X105720837Y-32246562D01*
X105720839Y-32246563D01*
X105765408Y-32258505D01*
X105809977Y-32270447D01*
X105809978Y-32270448D01*
X105809980Y-32270448D01*
X105902270Y-32270448D01*
X105902270Y-32270447D01*
X105991412Y-32246562D01*
X106071336Y-32200417D01*
X106136593Y-32135160D01*
X106141182Y-32127212D01*
X106186115Y-32092732D01*
X106242267Y-32100123D01*
X106269939Y-32131678D01*
X106270961Y-32131088D01*
X106319528Y-32215208D01*
X106319529Y-32215209D01*
X106319531Y-32215212D01*
X106384788Y-32280469D01*
X106384790Y-32280470D01*
X106384791Y-32280471D01*
X106464710Y-32326613D01*
X106464712Y-32326614D01*
X106464713Y-32326614D01*
X106464715Y-32326615D01*
X106509284Y-32338557D01*
X106553853Y-32350499D01*
X106553854Y-32350500D01*
X106553856Y-32350500D01*
X106646146Y-32350500D01*
X106646146Y-32350499D01*
X106735288Y-32326614D01*
X106815212Y-32280469D01*
X106873175Y-32222505D01*
X106925500Y-32200832D01*
X106977826Y-32222506D01*
X106999500Y-32274832D01*
X106999500Y-32925168D01*
X106977826Y-32977494D01*
X106925500Y-32999168D01*
X106873175Y-32977494D01*
X106815212Y-32919531D01*
X106815209Y-32919529D01*
X106815208Y-32919528D01*
X106735289Y-32873386D01*
X106735284Y-32873384D01*
X106646146Y-32849500D01*
X106646144Y-32849500D01*
X106553856Y-32849500D01*
X106553854Y-32849500D01*
X106464715Y-32873384D01*
X106464710Y-32873386D01*
X106384791Y-32919528D01*
X106319528Y-32984791D01*
X106305191Y-33009623D01*
X106260256Y-33044100D01*
X106204104Y-33036706D01*
X106188784Y-33024950D01*
X106157014Y-32993180D01*
X106157011Y-32993178D01*
X106157010Y-32993177D01*
X106077091Y-32947035D01*
X106077086Y-32947033D01*
X105987948Y-32923149D01*
X105987946Y-32923149D01*
X105895658Y-32923149D01*
X105895656Y-32923149D01*
X105806517Y-32947033D01*
X105806512Y-32947035D01*
X105726593Y-32993177D01*
X105661330Y-33058440D01*
X105615188Y-33138359D01*
X105615186Y-33138364D01*
X105591302Y-33227502D01*
X105591302Y-33319795D01*
X105615186Y-33408933D01*
X105615188Y-33408938D01*
X105661330Y-33488857D01*
X105661331Y-33488858D01*
X105661333Y-33488861D01*
X105726590Y-33554118D01*
X105726592Y-33554119D01*
X105726593Y-33554120D01*
X105734020Y-33558408D01*
X105806514Y-33600263D01*
X105806515Y-33600263D01*
X105806517Y-33600264D01*
X105851086Y-33612206D01*
X105895655Y-33624148D01*
X105895656Y-33624149D01*
X105895658Y-33624149D01*
X105987948Y-33624149D01*
X105987948Y-33624148D01*
X106077090Y-33600263D01*
X106157014Y-33554118D01*
X106222271Y-33488861D01*
X106236609Y-33464028D01*
X106281542Y-33429549D01*
X106337694Y-33436941D01*
X106353016Y-33448697D01*
X106384788Y-33480469D01*
X106384790Y-33480470D01*
X106384791Y-33480471D01*
X106399314Y-33488856D01*
X106464712Y-33526614D01*
X106464713Y-33526614D01*
X106464715Y-33526615D01*
X106509284Y-33538557D01*
X106553853Y-33550499D01*
X106553854Y-33550500D01*
X106553856Y-33550500D01*
X106646146Y-33550500D01*
X106646146Y-33550499D01*
X106735288Y-33526614D01*
X106815212Y-33480469D01*
X106873175Y-33422505D01*
X106925500Y-33400832D01*
X106977826Y-33422506D01*
X106999500Y-33474832D01*
X106999500Y-34325168D01*
X106977826Y-34377494D01*
X106925500Y-34399168D01*
X106873175Y-34377494D01*
X106815212Y-34319531D01*
X106815209Y-34319529D01*
X106815208Y-34319528D01*
X106735289Y-34273386D01*
X106735284Y-34273384D01*
X106646146Y-34249500D01*
X106646144Y-34249500D01*
X106553856Y-34249500D01*
X106553854Y-34249500D01*
X106464715Y-34273384D01*
X106464710Y-34273386D01*
X106384791Y-34319528D01*
X106319529Y-34384790D01*
X106290779Y-34434587D01*
X106245845Y-34469065D01*
X106189692Y-34461672D01*
X106174371Y-34449915D01*
X106122743Y-34398287D01*
X106122740Y-34398285D01*
X106122739Y-34398284D01*
X106042820Y-34352142D01*
X106042815Y-34352140D01*
X105953677Y-34328256D01*
X105953675Y-34328256D01*
X105861387Y-34328256D01*
X105861385Y-34328256D01*
X105772246Y-34352140D01*
X105772241Y-34352142D01*
X105692322Y-34398284D01*
X105627059Y-34463547D01*
X105580917Y-34543466D01*
X105580915Y-34543471D01*
X105557031Y-34632609D01*
X105557031Y-34724902D01*
X105580915Y-34814040D01*
X105580917Y-34814045D01*
X105627059Y-34893964D01*
X105627060Y-34893965D01*
X105627062Y-34893968D01*
X105692319Y-34959225D01*
X105772243Y-35005370D01*
X105772244Y-35005370D01*
X105772246Y-35005371D01*
X105816815Y-35017313D01*
X105861384Y-35029255D01*
X105861385Y-35029256D01*
X105861387Y-35029256D01*
X105953677Y-35029256D01*
X105953677Y-35029255D01*
X106042819Y-35005370D01*
X106122743Y-34959225D01*
X106188000Y-34893968D01*
X106216751Y-34844169D01*
X106261683Y-34809691D01*
X106317836Y-34817083D01*
X106333158Y-34828839D01*
X106384788Y-34880469D01*
X106384790Y-34880470D01*
X106384791Y-34880471D01*
X106464710Y-34926613D01*
X106464712Y-34926614D01*
X106464713Y-34926614D01*
X106464715Y-34926615D01*
X106509284Y-34938557D01*
X106553853Y-34950499D01*
X106553854Y-34950500D01*
X106553856Y-34950500D01*
X106646146Y-34950500D01*
X106646146Y-34950499D01*
X106735288Y-34926614D01*
X106815212Y-34880469D01*
X106873175Y-34822505D01*
X106925500Y-34800832D01*
X106977826Y-34822506D01*
X106999500Y-34874832D01*
X106999500Y-38825168D01*
X106977826Y-38877494D01*
X106925500Y-38899168D01*
X106873175Y-38877494D01*
X106815212Y-38819531D01*
X106815209Y-38819529D01*
X106815208Y-38819528D01*
X106735289Y-38773386D01*
X106735284Y-38773384D01*
X106646146Y-38749500D01*
X106646144Y-38749500D01*
X106553856Y-38749500D01*
X106553854Y-38749500D01*
X106464715Y-38773384D01*
X106464710Y-38773386D01*
X106384791Y-38819528D01*
X106319528Y-38884791D01*
X106273386Y-38964710D01*
X106273384Y-38964715D01*
X106249500Y-39053853D01*
X106249500Y-39146146D01*
X106273384Y-39235284D01*
X106273386Y-39235289D01*
X106319528Y-39315208D01*
X106319529Y-39315209D01*
X106319531Y-39315212D01*
X106384788Y-39380469D01*
X106384790Y-39380470D01*
X106384791Y-39380471D01*
X106394598Y-39386133D01*
X106464712Y-39426614D01*
X106464713Y-39426614D01*
X106464715Y-39426615D01*
X106509284Y-39438557D01*
X106553853Y-39450499D01*
X106553854Y-39450500D01*
X106553856Y-39450500D01*
X106646146Y-39450500D01*
X106646146Y-39450499D01*
X106735288Y-39426614D01*
X106815212Y-39380469D01*
X106873175Y-39322505D01*
X106925500Y-39300832D01*
X106977826Y-39322506D01*
X106999500Y-39374832D01*
X106999500Y-48818959D01*
X106977826Y-48871285D01*
X106925500Y-48892959D01*
X106873174Y-48871285D01*
X106863971Y-48860071D01*
X106862091Y-48857258D01*
X106821463Y-48796453D01*
X106724547Y-48699537D01*
X106610585Y-48623390D01*
X106610581Y-48623388D01*
X106610579Y-48623387D01*
X106610580Y-48623387D01*
X106483961Y-48570940D01*
X106483950Y-48570937D01*
X106382680Y-48550793D01*
X106349530Y-48544200D01*
X106212470Y-48544200D01*
X106185877Y-48549489D01*
X106078049Y-48570937D01*
X106078038Y-48570940D01*
X105951419Y-48623387D01*
X105837453Y-48699536D01*
X105837452Y-48699538D01*
X105740538Y-48796452D01*
X105740536Y-48796453D01*
X105664387Y-48910419D01*
X105611940Y-49037038D01*
X105611937Y-49037049D01*
X105585200Y-49171470D01*
X105585200Y-49308529D01*
X105611937Y-49442950D01*
X105611940Y-49442961D01*
X105664387Y-49569580D01*
X105664389Y-49569583D01*
X105664390Y-49569585D01*
X105740537Y-49683547D01*
X105837453Y-49780463D01*
X105951415Y-49856610D01*
X105951420Y-49856612D01*
X105951419Y-49856612D01*
X106078038Y-49909059D01*
X106078043Y-49909061D01*
X106212470Y-49935800D01*
X106212471Y-49935800D01*
X106349529Y-49935800D01*
X106349530Y-49935800D01*
X106483957Y-49909061D01*
X106610585Y-49856610D01*
X106724547Y-49780463D01*
X106821463Y-49683547D01*
X106863972Y-49619926D01*
X106911063Y-49588462D01*
X106966612Y-49599511D01*
X106998078Y-49646603D01*
X106999500Y-49661040D01*
X106999500Y-50740022D01*
X106977826Y-50792348D01*
X106925500Y-50814022D01*
X106888500Y-50804108D01*
X106835289Y-50773386D01*
X106835284Y-50773384D01*
X106746146Y-50749500D01*
X106746144Y-50749500D01*
X106653856Y-50749500D01*
X106653854Y-50749500D01*
X106564715Y-50773384D01*
X106564710Y-50773386D01*
X106484791Y-50819528D01*
X106419528Y-50884791D01*
X106373386Y-50964710D01*
X106373384Y-50964715D01*
X106349500Y-51053853D01*
X106349500Y-51146146D01*
X106373384Y-51235284D01*
X106373386Y-51235289D01*
X106419528Y-51315208D01*
X106419529Y-51315209D01*
X106419531Y-51315212D01*
X106484788Y-51380469D01*
X106484790Y-51380470D01*
X106484791Y-51380471D01*
X106564710Y-51426613D01*
X106564712Y-51426614D01*
X106564713Y-51426614D01*
X106564715Y-51426615D01*
X106609284Y-51438557D01*
X106653853Y-51450499D01*
X106653854Y-51450500D01*
X106653856Y-51450500D01*
X106746146Y-51450500D01*
X106746146Y-51450499D01*
X106835288Y-51426614D01*
X106888499Y-51395891D01*
X106944652Y-51388498D01*
X106989585Y-51422976D01*
X106999500Y-51459977D01*
X106999500Y-52225168D01*
X106977826Y-52277494D01*
X106925500Y-52299168D01*
X106873175Y-52277494D01*
X106855212Y-52259531D01*
X106855209Y-52259529D01*
X106855208Y-52259528D01*
X106775289Y-52213386D01*
X106775284Y-52213384D01*
X106686146Y-52189500D01*
X106686144Y-52189500D01*
X106593856Y-52189500D01*
X106593854Y-52189500D01*
X106504715Y-52213384D01*
X106504710Y-52213386D01*
X106424791Y-52259528D01*
X106359528Y-52324791D01*
X106313386Y-52404710D01*
X106313384Y-52404715D01*
X106289500Y-52493853D01*
X106289500Y-52586146D01*
X106313384Y-52675284D01*
X106313386Y-52675289D01*
X106359528Y-52755208D01*
X106359529Y-52755209D01*
X106359531Y-52755212D01*
X106424788Y-52820469D01*
X106504712Y-52866614D01*
X106504713Y-52866614D01*
X106504715Y-52866615D01*
X106549284Y-52878557D01*
X106593853Y-52890499D01*
X106593854Y-52890500D01*
X106593856Y-52890500D01*
X106686146Y-52890500D01*
X106686146Y-52890499D01*
X106775288Y-52866614D01*
X106855212Y-52820469D01*
X106873175Y-52802505D01*
X106925500Y-52780832D01*
X106977826Y-52802506D01*
X106999500Y-52854832D01*
X106999500Y-54025168D01*
X106977826Y-54077494D01*
X106925500Y-54099168D01*
X106873175Y-54077494D01*
X106815212Y-54019531D01*
X106815209Y-54019529D01*
X106815208Y-54019528D01*
X106735289Y-53973386D01*
X106735284Y-53973384D01*
X106646146Y-53949500D01*
X106646144Y-53949500D01*
X106553856Y-53949500D01*
X106553854Y-53949500D01*
X106464715Y-53973384D01*
X106464710Y-53973386D01*
X106384791Y-54019528D01*
X106319528Y-54084791D01*
X106273386Y-54164710D01*
X106273384Y-54164715D01*
X106249500Y-54253853D01*
X106249500Y-54346146D01*
X106273384Y-54435284D01*
X106273386Y-54435289D01*
X106319528Y-54515208D01*
X106319529Y-54515209D01*
X106319531Y-54515212D01*
X106384788Y-54580469D01*
X106384790Y-54580470D01*
X106384791Y-54580471D01*
X106452439Y-54619528D01*
X106464712Y-54626614D01*
X106464713Y-54626614D01*
X106464715Y-54626615D01*
X106473079Y-54628856D01*
X106553853Y-54650499D01*
X106553854Y-54650500D01*
X106553856Y-54650500D01*
X106646146Y-54650500D01*
X106646146Y-54650499D01*
X106735288Y-54626614D01*
X106815212Y-54580469D01*
X106873175Y-54522505D01*
X106925500Y-54500832D01*
X106977826Y-54522506D01*
X106999500Y-54574832D01*
X106999500Y-56245331D01*
X106977826Y-56297657D01*
X106925500Y-56319331D01*
X106873174Y-56297657D01*
X106858828Y-56277439D01*
X106847454Y-56253822D01*
X106791945Y-56138555D01*
X106642523Y-55900752D01*
X106467416Y-55681175D01*
X106268825Y-55482584D01*
X106246415Y-55464713D01*
X106049248Y-55307477D01*
X105956978Y-55249500D01*
X105811445Y-55158055D01*
X105811439Y-55158052D01*
X105609549Y-55060827D01*
X105571810Y-55018596D01*
X105574985Y-54962047D01*
X105600541Y-54932629D01*
X105708547Y-54860463D01*
X105805463Y-54763547D01*
X105881610Y-54649585D01*
X105934061Y-54522957D01*
X105960800Y-54388530D01*
X105960800Y-54251470D01*
X105934061Y-54117043D01*
X105912030Y-54063856D01*
X105881612Y-53990419D01*
X105881611Y-53990417D01*
X105881610Y-53990415D01*
X105805463Y-53876453D01*
X105708547Y-53779537D01*
X105594585Y-53703390D01*
X105594581Y-53703388D01*
X105594579Y-53703387D01*
X105594580Y-53703387D01*
X105467961Y-53650940D01*
X105467950Y-53650937D01*
X105366680Y-53630793D01*
X105333530Y-53624200D01*
X105196470Y-53624200D01*
X105169877Y-53629489D01*
X105062049Y-53650937D01*
X105062038Y-53650940D01*
X104935419Y-53703387D01*
X104821453Y-53779536D01*
X104821452Y-53779538D01*
X104724538Y-53876452D01*
X104724536Y-53876453D01*
X104648388Y-53990418D01*
X104611819Y-54078705D01*
X104571770Y-54118753D01*
X104515133Y-54118753D01*
X104506452Y-54114472D01*
X104435289Y-54073386D01*
X104435284Y-54073384D01*
X104346146Y-54049500D01*
X104346144Y-54049500D01*
X104253856Y-54049500D01*
X104253854Y-54049500D01*
X104164715Y-54073384D01*
X104164710Y-54073386D01*
X104084791Y-54119528D01*
X104019528Y-54184791D01*
X103973386Y-54264710D01*
X103973384Y-54264715D01*
X103949500Y-54353853D01*
X103949500Y-54446146D01*
X103973384Y-54535284D01*
X103973386Y-54535289D01*
X104019528Y-54615208D01*
X104019529Y-54615209D01*
X104019531Y-54615212D01*
X104084788Y-54680469D01*
X104084790Y-54680470D01*
X104084791Y-54680471D01*
X104155238Y-54721144D01*
X104164712Y-54726614D01*
X104197081Y-54735287D01*
X104242013Y-54769764D01*
X104249407Y-54825917D01*
X104214929Y-54870850D01*
X104186220Y-54880299D01*
X104180494Y-54880944D01*
X104180486Y-54880945D01*
X103906690Y-54943437D01*
X103906674Y-54943442D01*
X103641592Y-55036198D01*
X103388559Y-55158052D01*
X103150751Y-55307477D01*
X102931175Y-55482583D01*
X102732583Y-55681175D01*
X102557477Y-55900751D01*
X102408052Y-56138559D01*
X102286198Y-56391592D01*
X102193442Y-56656674D01*
X102193437Y-56656690D01*
X102130945Y-56930486D01*
X102130945Y-56930487D01*
X102118365Y-57042141D01*
X102099500Y-57209575D01*
X102099500Y-57490425D01*
X102109295Y-57577355D01*
X102130945Y-57769512D01*
X102130945Y-57769513D01*
X102193437Y-58043309D01*
X102193442Y-58043325D01*
X102286198Y-58308407D01*
X102408052Y-58561440D01*
X102557477Y-58799248D01*
X102727789Y-59012813D01*
X102732584Y-59018825D01*
X102931175Y-59217416D01*
X103150752Y-59392523D01*
X103388555Y-59541945D01*
X103641592Y-59663801D01*
X103906682Y-59756560D01*
X103906687Y-59756561D01*
X103906690Y-59756562D01*
X104180486Y-59819054D01*
X104180487Y-59819054D01*
X104180491Y-59819055D01*
X104459575Y-59850500D01*
X104459579Y-59850500D01*
X104740421Y-59850500D01*
X104740425Y-59850500D01*
X105019509Y-59819055D01*
X105293318Y-59756560D01*
X105558408Y-59663801D01*
X105811445Y-59541945D01*
X106049248Y-59392523D01*
X106268825Y-59217416D01*
X106467416Y-59018825D01*
X106642523Y-58799248D01*
X106791945Y-58561445D01*
X106858828Y-58422561D01*
X106901059Y-58384821D01*
X106957607Y-58387996D01*
X106995347Y-58430227D01*
X106999500Y-58454668D01*
X106999500Y-61655168D01*
X106977826Y-61707494D01*
X106925500Y-61729168D01*
X106873175Y-61707494D01*
X106835212Y-61669531D01*
X106835209Y-61669529D01*
X106835208Y-61669528D01*
X106755289Y-61623386D01*
X106755284Y-61623384D01*
X106666146Y-61599500D01*
X106666144Y-61599500D01*
X106573856Y-61599500D01*
X106573854Y-61599500D01*
X106484715Y-61623384D01*
X106484710Y-61623386D01*
X106404791Y-61669528D01*
X106339528Y-61734791D01*
X106293386Y-61814710D01*
X106293384Y-61814715D01*
X106269500Y-61903853D01*
X106269500Y-61996146D01*
X106293384Y-62085284D01*
X106293386Y-62085289D01*
X106339529Y-62165209D01*
X106339531Y-62165212D01*
X106386993Y-62212675D01*
X106408667Y-62265001D01*
X106386993Y-62317326D01*
X106319528Y-62384791D01*
X106273386Y-62464710D01*
X106273384Y-62464715D01*
X106249500Y-62553853D01*
X106249500Y-62646146D01*
X106273384Y-62735284D01*
X106273386Y-62735289D01*
X106319528Y-62815208D01*
X106319529Y-62815209D01*
X106319531Y-62815212D01*
X106384788Y-62880469D01*
X106384790Y-62880470D01*
X106384791Y-62880471D01*
X106464710Y-62926613D01*
X106464712Y-62926614D01*
X106464713Y-62926614D01*
X106464715Y-62926615D01*
X106508485Y-62938343D01*
X106553853Y-62950499D01*
X106553854Y-62950500D01*
X106553856Y-62950500D01*
X106646146Y-62950500D01*
X106646146Y-62950499D01*
X106735288Y-62926614D01*
X106815212Y-62880469D01*
X106873175Y-62822505D01*
X106925500Y-62800832D01*
X106977826Y-62822506D01*
X106999500Y-62874832D01*
X106999500Y-65125500D01*
X106977826Y-65177826D01*
X106925500Y-65199500D01*
X97078867Y-65199500D01*
X97026541Y-65177826D01*
X97004867Y-65125500D01*
X97026541Y-65073174D01*
X97050549Y-65057133D01*
X97052641Y-65056265D01*
X97055495Y-65055084D01*
X97178416Y-64972951D01*
X97282951Y-64868416D01*
X97365084Y-64745495D01*
X97421658Y-64608913D01*
X97450500Y-64463918D01*
X97450500Y-64439162D01*
X98567631Y-64439162D01*
X98567631Y-64531455D01*
X98591515Y-64620593D01*
X98591517Y-64620598D01*
X98637659Y-64700517D01*
X98637660Y-64700518D01*
X98637662Y-64700521D01*
X98702919Y-64765778D01*
X98782843Y-64811923D01*
X98782844Y-64811923D01*
X98782846Y-64811924D01*
X98827415Y-64823866D01*
X98871984Y-64835808D01*
X98871985Y-64835809D01*
X98871987Y-64835809D01*
X98964277Y-64835809D01*
X98964277Y-64835808D01*
X99053419Y-64811923D01*
X99133343Y-64765778D01*
X99198600Y-64700521D01*
X99244745Y-64620597D01*
X99268630Y-64531455D01*
X99268631Y-64531455D01*
X99268631Y-64439163D01*
X99268630Y-64439162D01*
X99244746Y-64350024D01*
X99244744Y-64350019D01*
X99198602Y-64270100D01*
X99198601Y-64270099D01*
X99198600Y-64270097D01*
X99133343Y-64204840D01*
X99133340Y-64204838D01*
X99133339Y-64204837D01*
X99053420Y-64158695D01*
X99053415Y-64158693D01*
X98964277Y-64134809D01*
X98964275Y-64134809D01*
X98871987Y-64134809D01*
X98871985Y-64134809D01*
X98782846Y-64158693D01*
X98782841Y-64158695D01*
X98702922Y-64204837D01*
X98637659Y-64270100D01*
X98591517Y-64350019D01*
X98591515Y-64350024D01*
X98567631Y-64439162D01*
X97450500Y-64439162D01*
X97450500Y-64316082D01*
X97421658Y-64171087D01*
X97365084Y-64034505D01*
X97282951Y-63911584D01*
X97178416Y-63807049D01*
X97055495Y-63724916D01*
X97055496Y-63724916D01*
X97055494Y-63724915D01*
X96918917Y-63668343D01*
X96918907Y-63668340D01*
X96821811Y-63649026D01*
X96773918Y-63639500D01*
X96626082Y-63639500D01*
X96584977Y-63647676D01*
X96481092Y-63668340D01*
X96481082Y-63668343D01*
X96344505Y-63724915D01*
X96221584Y-63807048D01*
X96221583Y-63807050D01*
X96117050Y-63911583D01*
X96117048Y-63911584D01*
X96034915Y-64034505D01*
X95978343Y-64171082D01*
X95978340Y-64171092D01*
X95949500Y-64316083D01*
X95949500Y-64463916D01*
X95978340Y-64608907D01*
X95978343Y-64608917D01*
X96034915Y-64745494D01*
X96117048Y-64868415D01*
X96221584Y-64972951D01*
X96344505Y-65055084D01*
X96349451Y-65057133D01*
X96389500Y-65097181D01*
X96389500Y-65153818D01*
X96349452Y-65193867D01*
X96321133Y-65199500D01*
X94538867Y-65199500D01*
X94486541Y-65177826D01*
X94464867Y-65125500D01*
X94486541Y-65073174D01*
X94510549Y-65057133D01*
X94512641Y-65056265D01*
X94515495Y-65055084D01*
X94638416Y-64972951D01*
X94742951Y-64868416D01*
X94825084Y-64745495D01*
X94881658Y-64608913D01*
X94910500Y-64463918D01*
X94910500Y-64316082D01*
X94881658Y-64171087D01*
X94825084Y-64034505D01*
X94742951Y-63911584D01*
X94638416Y-63807049D01*
X94515495Y-63724916D01*
X94515496Y-63724916D01*
X94515494Y-63724915D01*
X94378917Y-63668343D01*
X94378907Y-63668340D01*
X94281811Y-63649026D01*
X94233918Y-63639500D01*
X94086082Y-63639500D01*
X94044977Y-63647676D01*
X93941092Y-63668340D01*
X93941082Y-63668343D01*
X93804505Y-63724915D01*
X93681584Y-63807048D01*
X93681583Y-63807050D01*
X93577050Y-63911583D01*
X93577048Y-63911584D01*
X93494915Y-64034505D01*
X93438343Y-64171082D01*
X93438340Y-64171092D01*
X93409500Y-64316083D01*
X93409500Y-64463916D01*
X93438340Y-64608907D01*
X93438343Y-64608917D01*
X93494915Y-64745494D01*
X93577048Y-64868415D01*
X93681584Y-64972951D01*
X93804505Y-65055084D01*
X93809451Y-65057133D01*
X93849500Y-65097181D01*
X93849500Y-65153818D01*
X93809452Y-65193867D01*
X93781133Y-65199500D01*
X91998867Y-65199500D01*
X91946541Y-65177826D01*
X91924867Y-65125500D01*
X91946541Y-65073174D01*
X91970549Y-65057133D01*
X91972641Y-65056265D01*
X91975495Y-65055084D01*
X92098416Y-64972951D01*
X92202951Y-64868416D01*
X92285084Y-64745495D01*
X92341658Y-64608913D01*
X92370500Y-64463918D01*
X92370500Y-64316082D01*
X92341658Y-64171087D01*
X92285084Y-64034505D01*
X92202951Y-63911584D01*
X92098416Y-63807049D01*
X91975495Y-63724916D01*
X91975496Y-63724916D01*
X91975494Y-63724915D01*
X91838917Y-63668343D01*
X91838907Y-63668340D01*
X91741811Y-63649026D01*
X91693918Y-63639500D01*
X91546082Y-63639500D01*
X91504977Y-63647676D01*
X91401092Y-63668340D01*
X91401082Y-63668343D01*
X91264505Y-63724915D01*
X91141584Y-63807048D01*
X91141583Y-63807050D01*
X91037050Y-63911583D01*
X91037048Y-63911584D01*
X90954915Y-64034505D01*
X90898343Y-64171082D01*
X90898340Y-64171092D01*
X90869500Y-64316083D01*
X90869500Y-64463916D01*
X90898340Y-64608907D01*
X90898343Y-64608917D01*
X90954915Y-64745494D01*
X91037048Y-64868415D01*
X91141584Y-64972951D01*
X91264505Y-65055084D01*
X91269451Y-65057133D01*
X91309500Y-65097181D01*
X91309500Y-65153818D01*
X91269452Y-65193867D01*
X91241133Y-65199500D01*
X90274500Y-65199500D01*
X90222174Y-65177826D01*
X90200500Y-65125500D01*
X90200500Y-60968479D01*
X90369500Y-60968479D01*
X90369500Y-62731520D01*
X90384353Y-62825302D01*
X90384353Y-62825303D01*
X90384354Y-62825305D01*
X90441950Y-62938343D01*
X90531657Y-63028050D01*
X90644695Y-63085646D01*
X90707218Y-63095548D01*
X90738479Y-63100500D01*
X90738480Y-63100500D01*
X92501521Y-63100500D01*
X92524966Y-63096786D01*
X92595305Y-63085646D01*
X92708343Y-63028050D01*
X92798050Y-62938343D01*
X92855646Y-62825305D01*
X92870500Y-62731520D01*
X92870500Y-62381908D01*
X92892174Y-62329582D01*
X92944500Y-62307908D01*
X92996826Y-62329582D01*
X93010432Y-62348309D01*
X93047404Y-62420872D01*
X93090475Y-62505405D01*
X93202882Y-62660118D01*
X93206172Y-62664646D01*
X93345354Y-62803828D01*
X93504595Y-62919524D01*
X93679975Y-63008884D01*
X93679977Y-63008884D01*
X93679980Y-63008886D01*
X93867163Y-63069706D01*
X93867169Y-63069707D01*
X93867174Y-63069709D01*
X93996780Y-63090236D01*
X94061582Y-63100500D01*
X94061583Y-63100500D01*
X94258418Y-63100500D01*
X94307019Y-63092802D01*
X94452826Y-63069709D01*
X94452833Y-63069706D01*
X94452836Y-63069706D01*
X94640019Y-63008886D01*
X94640019Y-63008885D01*
X94640025Y-63008884D01*
X94815405Y-62919524D01*
X94974646Y-62803828D01*
X95113828Y-62664646D01*
X95229524Y-62505405D01*
X95318884Y-62330025D01*
X95329086Y-62298626D01*
X95359622Y-62204648D01*
X95396405Y-62161580D01*
X95452867Y-62157137D01*
X95495935Y-62193920D01*
X95500378Y-62204648D01*
X95541113Y-62330019D01*
X95630475Y-62505404D01*
X95694466Y-62593480D01*
X95746172Y-62664646D01*
X95885354Y-62803828D01*
X96044595Y-62919524D01*
X96219975Y-63008884D01*
X96219977Y-63008884D01*
X96219980Y-63008886D01*
X96407163Y-63069706D01*
X96407169Y-63069707D01*
X96407174Y-63069709D01*
X96536780Y-63090236D01*
X96601582Y-63100500D01*
X96601583Y-63100500D01*
X96798418Y-63100500D01*
X96840384Y-63093853D01*
X97739500Y-63093853D01*
X97739500Y-63186146D01*
X97763384Y-63275284D01*
X97763386Y-63275289D01*
X97809528Y-63355208D01*
X97809529Y-63355209D01*
X97809531Y-63355212D01*
X97874788Y-63420469D01*
X97954712Y-63466614D01*
X97954713Y-63466614D01*
X97954715Y-63466615D01*
X97999284Y-63478557D01*
X98043853Y-63490499D01*
X98043854Y-63490500D01*
X98043856Y-63490500D01*
X98136146Y-63490500D01*
X98136146Y-63490499D01*
X98225288Y-63466614D01*
X98305212Y-63420469D01*
X98370469Y-63355212D01*
X98416614Y-63275288D01*
X98440499Y-63186146D01*
X98440500Y-63186146D01*
X98440500Y-63093854D01*
X98440499Y-63093853D01*
X98416615Y-63004715D01*
X98416613Y-63004710D01*
X98370471Y-62924791D01*
X98370470Y-62924790D01*
X98370469Y-62924788D01*
X98305212Y-62859531D01*
X98305209Y-62859529D01*
X98305208Y-62859528D01*
X98225289Y-62813386D01*
X98225284Y-62813384D01*
X98136146Y-62789500D01*
X98136144Y-62789500D01*
X98043856Y-62789500D01*
X98043854Y-62789500D01*
X97954715Y-62813384D01*
X97954710Y-62813386D01*
X97874791Y-62859528D01*
X97809528Y-62924791D01*
X97763386Y-63004710D01*
X97763384Y-63004715D01*
X97739500Y-63093853D01*
X96840384Y-63093853D01*
X96847019Y-63092802D01*
X96992826Y-63069709D01*
X96992833Y-63069706D01*
X96992836Y-63069706D01*
X97121038Y-63028050D01*
X97150036Y-63018628D01*
X97150037Y-63018628D01*
X97158627Y-63015836D01*
X97180025Y-63008884D01*
X97355405Y-62919524D01*
X97514646Y-62803828D01*
X97653828Y-62664646D01*
X97705533Y-62593480D01*
X102429500Y-62593480D01*
X102429500Y-63906519D01*
X102444353Y-64000304D01*
X102444354Y-64000306D01*
X102461780Y-64034505D01*
X102501950Y-64113342D01*
X102591658Y-64203050D01*
X102704696Y-64260646D01*
X102798481Y-64275500D01*
X103561518Y-64275499D01*
X103561519Y-64275499D01*
X103655304Y-64260646D01*
X103655306Y-64260645D01*
X103657419Y-64259568D01*
X103768342Y-64203050D01*
X103858050Y-64113342D01*
X103915646Y-64000304D01*
X103930500Y-63906519D01*
X103930499Y-62762350D01*
X103952173Y-62710025D01*
X104004499Y-62688351D01*
X104056825Y-62710025D01*
X104070915Y-62731114D01*
X104070961Y-62731088D01*
X104071359Y-62731778D01*
X104072868Y-62734036D01*
X104073384Y-62735282D01*
X104073386Y-62735288D01*
X104073387Y-62735289D01*
X104073388Y-62735291D01*
X104119528Y-62815208D01*
X104119529Y-62815209D01*
X104119531Y-62815212D01*
X104184788Y-62880469D01*
X104184790Y-62880470D01*
X104184791Y-62880471D01*
X104264710Y-62926613D01*
X104264712Y-62926614D01*
X104264713Y-62926614D01*
X104264715Y-62926615D01*
X104308485Y-62938343D01*
X104353853Y-62950499D01*
X104353854Y-62950500D01*
X104353856Y-62950500D01*
X104446146Y-62950500D01*
X104446146Y-62950499D01*
X104535288Y-62926614D01*
X104615212Y-62880469D01*
X104680469Y-62815212D01*
X104726614Y-62735288D01*
X104750499Y-62646146D01*
X104750500Y-62646146D01*
X104750500Y-62553854D01*
X104750499Y-62553853D01*
X104726615Y-62464715D01*
X104726614Y-62464714D01*
X104726614Y-62464712D01*
X104694809Y-62409626D01*
X104687417Y-62353475D01*
X104721895Y-62308541D01*
X104758896Y-62298627D01*
X104804958Y-62298627D01*
X104804958Y-62298626D01*
X104894100Y-62274741D01*
X104974024Y-62228596D01*
X105039281Y-62163339D01*
X105085426Y-62083415D01*
X105109311Y-61994273D01*
X105109312Y-61994273D01*
X105109312Y-61901981D01*
X105109311Y-61901980D01*
X105085427Y-61812842D01*
X105085425Y-61812837D01*
X105039283Y-61732918D01*
X105039282Y-61732917D01*
X105039281Y-61732915D01*
X104974024Y-61667658D01*
X104974021Y-61667656D01*
X104974020Y-61667655D01*
X104894101Y-61621513D01*
X104894096Y-61621511D01*
X104804958Y-61597627D01*
X104804956Y-61597627D01*
X104712668Y-61597627D01*
X104712666Y-61597627D01*
X104618839Y-61622768D01*
X104618099Y-61620009D01*
X104570512Y-61620001D01*
X104530471Y-61579945D01*
X104527365Y-61532486D01*
X104542335Y-61476615D01*
X104550499Y-61446146D01*
X104550500Y-61446146D01*
X104550500Y-61353854D01*
X104550499Y-61353853D01*
X104549918Y-61351686D01*
X104526614Y-61264712D01*
X104526613Y-61264710D01*
X104480471Y-61184791D01*
X104480470Y-61184790D01*
X104480469Y-61184788D01*
X104415212Y-61119531D01*
X104415209Y-61119529D01*
X104415208Y-61119528D01*
X104335289Y-61073386D01*
X104335284Y-61073384D01*
X104246146Y-61049500D01*
X104246144Y-61049500D01*
X104153856Y-61049500D01*
X104153854Y-61049500D01*
X104064715Y-61073384D01*
X104064710Y-61073386D01*
X103984791Y-61119528D01*
X103919528Y-61184791D01*
X103873386Y-61264710D01*
X103873384Y-61264715D01*
X103849500Y-61353853D01*
X103849500Y-61446146D01*
X103873384Y-61535284D01*
X103873386Y-61535289D01*
X103919528Y-61615208D01*
X103919529Y-61615209D01*
X103919531Y-61615212D01*
X103984788Y-61680469D01*
X103984790Y-61680470D01*
X103984791Y-61680471D01*
X104062538Y-61725359D01*
X104064712Y-61726614D01*
X104064713Y-61726614D01*
X104064715Y-61726615D01*
X104088239Y-61732918D01*
X104153853Y-61750499D01*
X104153854Y-61750500D01*
X104153856Y-61750500D01*
X104246146Y-61750500D01*
X104246146Y-61750499D01*
X104311761Y-61732918D01*
X104339973Y-61725359D01*
X104340719Y-61728143D01*
X104388201Y-61728085D01*
X104428300Y-61768083D01*
X104431447Y-61815639D01*
X104408312Y-61901983D01*
X104408312Y-61994273D01*
X104432196Y-62083411D01*
X104432197Y-62083412D01*
X104432198Y-62083415D01*
X104464002Y-62138500D01*
X104471395Y-62194652D01*
X104436917Y-62239586D01*
X104399916Y-62249500D01*
X104353854Y-62249500D01*
X104264715Y-62273384D01*
X104264710Y-62273386D01*
X104184791Y-62319528D01*
X104119528Y-62384791D01*
X104073386Y-62464710D01*
X104073385Y-62464714D01*
X104060869Y-62511421D01*
X104026390Y-62556354D01*
X103970237Y-62563745D01*
X103925304Y-62529266D01*
X103916302Y-62503841D01*
X103915646Y-62499696D01*
X103915645Y-62499694D01*
X103915645Y-62499693D01*
X103858049Y-62386657D01*
X103768343Y-62296951D01*
X103768342Y-62296950D01*
X103655304Y-62239354D01*
X103655302Y-62239353D01*
X103655301Y-62239353D01*
X103561519Y-62224500D01*
X102798480Y-62224500D01*
X102704695Y-62239353D01*
X102704693Y-62239354D01*
X102591657Y-62296950D01*
X102501951Y-62386656D01*
X102444353Y-62499698D01*
X102429500Y-62593480D01*
X97705533Y-62593480D01*
X97707483Y-62590796D01*
X97739247Y-62547078D01*
X97769524Y-62505405D01*
X97790259Y-62464710D01*
X97858884Y-62330025D01*
X97869086Y-62298626D01*
X97919706Y-62142836D01*
X97919706Y-62142833D01*
X97919709Y-62142826D01*
X97950500Y-61948417D01*
X97950500Y-61751583D01*
X97950328Y-61750500D01*
X97937207Y-61667655D01*
X97919709Y-61557174D01*
X97919707Y-61557169D01*
X97919706Y-61557163D01*
X97858886Y-61369980D01*
X97858884Y-61369977D01*
X97858884Y-61369975D01*
X97769524Y-61194595D01*
X97703596Y-61103853D01*
X98849500Y-61103853D01*
X98849500Y-61196146D01*
X98873384Y-61285284D01*
X98873386Y-61285289D01*
X98919528Y-61365208D01*
X98919529Y-61365209D01*
X98919531Y-61365212D01*
X98984788Y-61430469D01*
X98984790Y-61430470D01*
X98984791Y-61430471D01*
X99019480Y-61450499D01*
X99064712Y-61476614D01*
X99064713Y-61476614D01*
X99064715Y-61476615D01*
X99109284Y-61488557D01*
X99153853Y-61500499D01*
X99153854Y-61500500D01*
X99153856Y-61500500D01*
X99246146Y-61500500D01*
X99246146Y-61500499D01*
X99335288Y-61476614D01*
X99415212Y-61430469D01*
X99480469Y-61365212D01*
X99526614Y-61285288D01*
X99550499Y-61196146D01*
X99550500Y-61196146D01*
X99550500Y-61103856D01*
X99540935Y-61068158D01*
X99540935Y-61068156D01*
X99537102Y-61053853D01*
X101449500Y-61053853D01*
X101449500Y-61146146D01*
X101473384Y-61235284D01*
X101473386Y-61235289D01*
X101519528Y-61315208D01*
X101519529Y-61315209D01*
X101519531Y-61315212D01*
X101584788Y-61380469D01*
X101584790Y-61380470D01*
X101584791Y-61380471D01*
X101598644Y-61388469D01*
X101664712Y-61426614D01*
X101664713Y-61426614D01*
X101664715Y-61426615D01*
X101709284Y-61438557D01*
X101753853Y-61450499D01*
X101753854Y-61450500D01*
X101753856Y-61450500D01*
X101846146Y-61450500D01*
X101846146Y-61450499D01*
X101935288Y-61426614D01*
X102015212Y-61380469D01*
X102080469Y-61315212D01*
X102126614Y-61235288D01*
X102150499Y-61146146D01*
X102150500Y-61146146D01*
X102150500Y-61053854D01*
X102150499Y-61053853D01*
X102126615Y-60964715D01*
X102126613Y-60964710D01*
X102080471Y-60884791D01*
X102080470Y-60884790D01*
X102080469Y-60884788D01*
X102015212Y-60819531D01*
X102015209Y-60819529D01*
X102015208Y-60819528D01*
X101935289Y-60773386D01*
X101935284Y-60773384D01*
X101846146Y-60749500D01*
X101846144Y-60749500D01*
X101753856Y-60749500D01*
X101753854Y-60749500D01*
X101664715Y-60773384D01*
X101664710Y-60773386D01*
X101584791Y-60819528D01*
X101519528Y-60884791D01*
X101473386Y-60964710D01*
X101473384Y-60964715D01*
X101449500Y-61053853D01*
X99537102Y-61053853D01*
X99526615Y-61014715D01*
X99526613Y-61014710D01*
X99480471Y-60934791D01*
X99480470Y-60934790D01*
X99480469Y-60934788D01*
X99415212Y-60869531D01*
X99415209Y-60869529D01*
X99415208Y-60869528D01*
X99335289Y-60823386D01*
X99335284Y-60823384D01*
X99246146Y-60799500D01*
X99246144Y-60799500D01*
X99153856Y-60799500D01*
X99153854Y-60799500D01*
X99064715Y-60823384D01*
X99064710Y-60823386D01*
X98984791Y-60869528D01*
X98919528Y-60934791D01*
X98873386Y-61014710D01*
X98873384Y-61014715D01*
X98849500Y-61103853D01*
X97703596Y-61103853D01*
X97653828Y-61035354D01*
X97514646Y-60896172D01*
X97514643Y-60896169D01*
X97514641Y-60896168D01*
X97355404Y-60780475D01*
X97180019Y-60691113D01*
X96992836Y-60630293D01*
X96992823Y-60630290D01*
X96798418Y-60599500D01*
X96798417Y-60599500D01*
X96601583Y-60599500D01*
X96601582Y-60599500D01*
X96407176Y-60630290D01*
X96407163Y-60630293D01*
X96219980Y-60691113D01*
X96044595Y-60780475D01*
X95885358Y-60896168D01*
X95746168Y-61035358D01*
X95630475Y-61194595D01*
X95541113Y-61369980D01*
X95500378Y-61495351D01*
X95463595Y-61538419D01*
X95407133Y-61542862D01*
X95364065Y-61506079D01*
X95359622Y-61495351D01*
X95318886Y-61369980D01*
X95318884Y-61369977D01*
X95318884Y-61369975D01*
X95229524Y-61194595D01*
X95113828Y-61035354D01*
X94974646Y-60896172D01*
X94974643Y-60896169D01*
X94974641Y-60896168D01*
X94815404Y-60780475D01*
X94640019Y-60691113D01*
X94452836Y-60630293D01*
X94452823Y-60630290D01*
X94258418Y-60599500D01*
X94258417Y-60599500D01*
X94061583Y-60599500D01*
X94061582Y-60599500D01*
X93867176Y-60630290D01*
X93867163Y-60630293D01*
X93679980Y-60691113D01*
X93504595Y-60780475D01*
X93345358Y-60896168D01*
X93206168Y-61035358D01*
X93090475Y-61194595D01*
X93054748Y-61264715D01*
X93015901Y-61340959D01*
X93010435Y-61351686D01*
X92967368Y-61388469D01*
X92910905Y-61384026D01*
X92874122Y-61340959D01*
X92870500Y-61318091D01*
X92870500Y-60968479D01*
X92859048Y-60896177D01*
X92855646Y-60874695D01*
X92798050Y-60761657D01*
X92708343Y-60671950D01*
X92595305Y-60614354D01*
X92595303Y-60614353D01*
X92595302Y-60614353D01*
X92501521Y-60599500D01*
X92501520Y-60599500D01*
X90738480Y-60599500D01*
X90738479Y-60599500D01*
X90644697Y-60614353D01*
X90531655Y-60671951D01*
X90441951Y-60761655D01*
X90384353Y-60874697D01*
X90369500Y-60968479D01*
X90200500Y-60968479D01*
X90200500Y-60353853D01*
X103849500Y-60353853D01*
X103849500Y-60446146D01*
X103873384Y-60535284D01*
X103873386Y-60535289D01*
X103919528Y-60615208D01*
X103919529Y-60615209D01*
X103919531Y-60615212D01*
X103984788Y-60680469D01*
X103984790Y-60680470D01*
X103984791Y-60680471D01*
X104064710Y-60726613D01*
X104064712Y-60726614D01*
X104064713Y-60726614D01*
X104064715Y-60726615D01*
X104109284Y-60738557D01*
X104153853Y-60750499D01*
X104153854Y-60750500D01*
X104153856Y-60750500D01*
X104246146Y-60750500D01*
X104246146Y-60750499D01*
X104335288Y-60726614D01*
X104415212Y-60680469D01*
X104480469Y-60615212D01*
X104526614Y-60535288D01*
X104550499Y-60446146D01*
X104550500Y-60446146D01*
X104550500Y-60353854D01*
X104550499Y-60353853D01*
X104526615Y-60264715D01*
X104526613Y-60264710D01*
X104480471Y-60184791D01*
X104480470Y-60184790D01*
X104480469Y-60184788D01*
X104415212Y-60119531D01*
X104415209Y-60119529D01*
X104415208Y-60119528D01*
X104335289Y-60073386D01*
X104335284Y-60073384D01*
X104246146Y-60049500D01*
X104246144Y-60049500D01*
X104153856Y-60049500D01*
X104153854Y-60049500D01*
X104064715Y-60073384D01*
X104064710Y-60073386D01*
X103984791Y-60119528D01*
X103919528Y-60184791D01*
X103873386Y-60264710D01*
X103873384Y-60264715D01*
X103849500Y-60353853D01*
X90200500Y-60353853D01*
X90200500Y-59437801D01*
X97319434Y-59437801D01*
X97319434Y-59530094D01*
X97343318Y-59619232D01*
X97343320Y-59619237D01*
X97389462Y-59699156D01*
X97389463Y-59699157D01*
X97389465Y-59699160D01*
X97454722Y-59764417D01*
X97534646Y-59810562D01*
X97534647Y-59810562D01*
X97534649Y-59810563D01*
X97566342Y-59819055D01*
X97623787Y-59834447D01*
X97623788Y-59834448D01*
X97623790Y-59834448D01*
X97716080Y-59834448D01*
X97716080Y-59834447D01*
X97805222Y-59810562D01*
X97885146Y-59764417D01*
X97950403Y-59699160D01*
X97996548Y-59619236D01*
X98020433Y-59530094D01*
X98020434Y-59530094D01*
X98020434Y-59437802D01*
X98020433Y-59437801D01*
X97996549Y-59348663D01*
X97996547Y-59348658D01*
X97950405Y-59268739D01*
X97950404Y-59268738D01*
X97950403Y-59268736D01*
X97885146Y-59203479D01*
X97885143Y-59203477D01*
X97885142Y-59203476D01*
X97847734Y-59181878D01*
X100278094Y-59181878D01*
X100278094Y-59274171D01*
X100301978Y-59363309D01*
X100301980Y-59363314D01*
X100348122Y-59443233D01*
X100348123Y-59443234D01*
X100348125Y-59443237D01*
X100413382Y-59508494D01*
X100413384Y-59508495D01*
X100413385Y-59508496D01*
X100471323Y-59541947D01*
X100493306Y-59554639D01*
X100493307Y-59554639D01*
X100493309Y-59554640D01*
X100537878Y-59566582D01*
X100582447Y-59578524D01*
X100582448Y-59578525D01*
X100582450Y-59578525D01*
X100674740Y-59578525D01*
X100674740Y-59578524D01*
X100763882Y-59554639D01*
X100806618Y-59529964D01*
X100862767Y-59522571D01*
X100895940Y-59541722D01*
X100931254Y-59577036D01*
X101011178Y-59623181D01*
X101011179Y-59623181D01*
X101011181Y-59623182D01*
X101055750Y-59635124D01*
X101100319Y-59647066D01*
X101100320Y-59647067D01*
X101100322Y-59647067D01*
X101192612Y-59647067D01*
X101192612Y-59647066D01*
X101281754Y-59623181D01*
X101361678Y-59577036D01*
X101426935Y-59511779D01*
X101473080Y-59431855D01*
X101496965Y-59342713D01*
X101496966Y-59342713D01*
X101496966Y-59250421D01*
X101496965Y-59250420D01*
X101473081Y-59161282D01*
X101473079Y-59161277D01*
X101426937Y-59081358D01*
X101426936Y-59081357D01*
X101426935Y-59081355D01*
X101393648Y-59048068D01*
X101371975Y-58995744D01*
X101393647Y-58943421D01*
X101439628Y-58897441D01*
X101485773Y-58817517D01*
X101509658Y-58728375D01*
X101509659Y-58728375D01*
X101509659Y-58636083D01*
X101509658Y-58636082D01*
X101485774Y-58546944D01*
X101485772Y-58546939D01*
X101439630Y-58467020D01*
X101439629Y-58467019D01*
X101439628Y-58467017D01*
X101374371Y-58401760D01*
X101374368Y-58401758D01*
X101374367Y-58401757D01*
X101294448Y-58355615D01*
X101294443Y-58355613D01*
X101205305Y-58331729D01*
X101205303Y-58331729D01*
X101113015Y-58331729D01*
X101113013Y-58331729D01*
X101023874Y-58355613D01*
X101023869Y-58355615D01*
X100943950Y-58401757D01*
X100878687Y-58467020D01*
X100832545Y-58546939D01*
X100832543Y-58546944D01*
X100808659Y-58636082D01*
X100808659Y-58636085D01*
X100808659Y-58728373D01*
X100825771Y-58792235D01*
X100828901Y-58803916D01*
X100821508Y-58860069D01*
X100776575Y-58894548D01*
X100738270Y-58894548D01*
X100674738Y-58877525D01*
X100582450Y-58877525D01*
X100582448Y-58877525D01*
X100493309Y-58901409D01*
X100493304Y-58901411D01*
X100413385Y-58947553D01*
X100348122Y-59012816D01*
X100301980Y-59092735D01*
X100301978Y-59092740D01*
X100278094Y-59181878D01*
X97847734Y-59181878D01*
X97805223Y-59157334D01*
X97805218Y-59157332D01*
X97716080Y-59133448D01*
X97716078Y-59133448D01*
X97623790Y-59133448D01*
X97623788Y-59133448D01*
X97534649Y-59157332D01*
X97534644Y-59157334D01*
X97454725Y-59203476D01*
X97389462Y-59268739D01*
X97343320Y-59348658D01*
X97343318Y-59348663D01*
X97319434Y-59437801D01*
X90200500Y-59437801D01*
X90200500Y-58958538D01*
X90222174Y-58906212D01*
X90274500Y-58884538D01*
X90326826Y-58906212D01*
X90333203Y-58913483D01*
X90334526Y-58915207D01*
X90334528Y-58915209D01*
X90334530Y-58915212D01*
X90399787Y-58980469D01*
X90399789Y-58980470D01*
X90399790Y-58980471D01*
X90466220Y-59018825D01*
X90479711Y-59026614D01*
X90479712Y-59026614D01*
X90479714Y-59026615D01*
X90488481Y-59028964D01*
X90568852Y-59050499D01*
X90568853Y-59050500D01*
X90568855Y-59050500D01*
X90661145Y-59050500D01*
X90661145Y-59050499D01*
X90750287Y-59026614D01*
X90830211Y-58980469D01*
X90895468Y-58915212D01*
X90915004Y-58881376D01*
X94837160Y-58881376D01*
X94837160Y-58973669D01*
X94861044Y-59062807D01*
X94861046Y-59062812D01*
X94907188Y-59142731D01*
X94907189Y-59142732D01*
X94907191Y-59142735D01*
X94972448Y-59207992D01*
X94972450Y-59207993D01*
X94972451Y-59207994D01*
X95028139Y-59240146D01*
X95052372Y-59254137D01*
X95052373Y-59254137D01*
X95052375Y-59254138D01*
X95089293Y-59264030D01*
X95141513Y-59278022D01*
X95141514Y-59278023D01*
X95141516Y-59278023D01*
X95233806Y-59278023D01*
X95233806Y-59278022D01*
X95322948Y-59254137D01*
X95402872Y-59207992D01*
X95468129Y-59142735D01*
X95514274Y-59062811D01*
X95538159Y-58973669D01*
X95538160Y-58973669D01*
X95538160Y-58881377D01*
X95538159Y-58881376D01*
X95534410Y-58867384D01*
X95789426Y-58867384D01*
X95789426Y-58959677D01*
X95813310Y-59048815D01*
X95813312Y-59048820D01*
X95859454Y-59128739D01*
X95859455Y-59128740D01*
X95859457Y-59128743D01*
X95924714Y-59194000D01*
X95924716Y-59194001D01*
X95924717Y-59194002D01*
X95965271Y-59217416D01*
X96004638Y-59240145D01*
X96004639Y-59240145D01*
X96004641Y-59240146D01*
X96042985Y-59250420D01*
X96093779Y-59264030D01*
X96093780Y-59264031D01*
X96093782Y-59264031D01*
X96186072Y-59264031D01*
X96186072Y-59264030D01*
X96275214Y-59240145D01*
X96355138Y-59194000D01*
X96420395Y-59128743D01*
X96466540Y-59048819D01*
X96490425Y-58959677D01*
X96490426Y-58959677D01*
X96490426Y-58867385D01*
X96490425Y-58867384D01*
X96466541Y-58778246D01*
X96466539Y-58778241D01*
X96420397Y-58698322D01*
X96420396Y-58698321D01*
X96420395Y-58698319D01*
X96355138Y-58633062D01*
X96355135Y-58633060D01*
X96355134Y-58633059D01*
X96275215Y-58586917D01*
X96275210Y-58586915D01*
X96186072Y-58563031D01*
X96186070Y-58563031D01*
X96093782Y-58563031D01*
X96093780Y-58563031D01*
X96004641Y-58586915D01*
X96004636Y-58586917D01*
X95924717Y-58633059D01*
X95859454Y-58698322D01*
X95813312Y-58778241D01*
X95813310Y-58778246D01*
X95789426Y-58867384D01*
X95534410Y-58867384D01*
X95514275Y-58792238D01*
X95514273Y-58792233D01*
X95468131Y-58712314D01*
X95468130Y-58712313D01*
X95468129Y-58712311D01*
X95402872Y-58647054D01*
X95402869Y-58647052D01*
X95402868Y-58647051D01*
X95322949Y-58600909D01*
X95322944Y-58600907D01*
X95233806Y-58577023D01*
X95233804Y-58577023D01*
X95141516Y-58577023D01*
X95141514Y-58577023D01*
X95052375Y-58600907D01*
X95052370Y-58600909D01*
X94972451Y-58647051D01*
X94907188Y-58712314D01*
X94861046Y-58792233D01*
X94861044Y-58792238D01*
X94837160Y-58881376D01*
X90915004Y-58881376D01*
X90941613Y-58835288D01*
X90965498Y-58746146D01*
X90965499Y-58746146D01*
X90965499Y-58653854D01*
X90965498Y-58653853D01*
X90963675Y-58647051D01*
X90941613Y-58564712D01*
X90941612Y-58564710D01*
X90895470Y-58484791D01*
X90895469Y-58484790D01*
X90895468Y-58484788D01*
X90830211Y-58419531D01*
X90830208Y-58419529D01*
X90830207Y-58419528D01*
X90750288Y-58373386D01*
X90750283Y-58373384D01*
X90661145Y-58349500D01*
X90661143Y-58349500D01*
X90568855Y-58349500D01*
X90568853Y-58349500D01*
X90479714Y-58373384D01*
X90479709Y-58373386D01*
X90399790Y-58419528D01*
X90334523Y-58484795D01*
X90333199Y-58486521D01*
X90332250Y-58487068D01*
X90331101Y-58488218D01*
X90330792Y-58487909D01*
X90284144Y-58514830D01*
X90229440Y-58500160D01*
X90201131Y-58451105D01*
X90200500Y-58441461D01*
X90200500Y-56693853D01*
X91014500Y-56693853D01*
X91014500Y-56786146D01*
X91038384Y-56875284D01*
X91038386Y-56875289D01*
X91084528Y-56955208D01*
X91084529Y-56955209D01*
X91084531Y-56955212D01*
X91149788Y-57020469D01*
X91149790Y-57020470D01*
X91149791Y-57020471D01*
X91224831Y-57063796D01*
X91229712Y-57066614D01*
X91229713Y-57066614D01*
X91229715Y-57066615D01*
X91244039Y-57070453D01*
X91318853Y-57090499D01*
X91318854Y-57090500D01*
X91318856Y-57090500D01*
X91411146Y-57090500D01*
X91411146Y-57090499D01*
X91500288Y-57066614D01*
X91580212Y-57020469D01*
X91645469Y-56955212D01*
X91691614Y-56875288D01*
X91715499Y-56786146D01*
X91715500Y-56786146D01*
X91715500Y-56737178D01*
X93542963Y-56737178D01*
X93542963Y-56829471D01*
X93566847Y-56918609D01*
X93566849Y-56918614D01*
X93612991Y-56998533D01*
X93612992Y-56998534D01*
X93612994Y-56998537D01*
X93678251Y-57063794D01*
X93678253Y-57063795D01*
X93678254Y-57063796D01*
X93724506Y-57090500D01*
X93758175Y-57109939D01*
X93758176Y-57109939D01*
X93758178Y-57109940D01*
X93790580Y-57118622D01*
X93847316Y-57133824D01*
X93847317Y-57133825D01*
X93847319Y-57133825D01*
X93939609Y-57133825D01*
X93939609Y-57133824D01*
X93963016Y-57127552D01*
X93971569Y-57125261D01*
X94027721Y-57132653D01*
X94062200Y-57177586D01*
X94055366Y-57229513D01*
X94056295Y-57229898D01*
X94054859Y-57233362D01*
X94054811Y-57233734D01*
X94054439Y-57234377D01*
X94054436Y-57234384D01*
X94030552Y-57323522D01*
X94030552Y-57415815D01*
X94054436Y-57504953D01*
X94054438Y-57504958D01*
X94100580Y-57584877D01*
X94100581Y-57584878D01*
X94100583Y-57584881D01*
X94165840Y-57650138D01*
X94165842Y-57650139D01*
X94165843Y-57650140D01*
X94228222Y-57686155D01*
X94245764Y-57696283D01*
X94245765Y-57696283D01*
X94245767Y-57696284D01*
X94290336Y-57708226D01*
X94334905Y-57720168D01*
X94334906Y-57720169D01*
X94334908Y-57720169D01*
X94427198Y-57720169D01*
X94427198Y-57720168D01*
X94516340Y-57696283D01*
X94596264Y-57650138D01*
X94661521Y-57584881D01*
X94707666Y-57504957D01*
X94731551Y-57415815D01*
X94731552Y-57415815D01*
X94731552Y-57323522D01*
X94729536Y-57316000D01*
X96692005Y-57316000D01*
X96692005Y-57408293D01*
X96715889Y-57497431D01*
X96715891Y-57497436D01*
X96762033Y-57577355D01*
X96762034Y-57577356D01*
X96762036Y-57577359D01*
X96795239Y-57610562D01*
X96816913Y-57662887D01*
X96806999Y-57699886D01*
X96786974Y-57734570D01*
X96786970Y-57734579D01*
X96763086Y-57823717D01*
X96763086Y-57916010D01*
X96786970Y-58005148D01*
X96786972Y-58005153D01*
X96833114Y-58085072D01*
X96833115Y-58085073D01*
X96833117Y-58085076D01*
X96898374Y-58150333D01*
X96898376Y-58150334D01*
X96898377Y-58150335D01*
X96978296Y-58196477D01*
X96978298Y-58196478D01*
X96978299Y-58196478D01*
X96978301Y-58196479D01*
X97022870Y-58208421D01*
X97067439Y-58220363D01*
X97067440Y-58220364D01*
X97067442Y-58220364D01*
X97159732Y-58220364D01*
X97159732Y-58220363D01*
X97248874Y-58196478D01*
X97328798Y-58150333D01*
X97394055Y-58085076D01*
X97440200Y-58005152D01*
X97464085Y-57916010D01*
X97464086Y-57916010D01*
X97464086Y-57823718D01*
X97464085Y-57823717D01*
X97440201Y-57734579D01*
X97440199Y-57734574D01*
X97394057Y-57654655D01*
X97394056Y-57654654D01*
X97394055Y-57654652D01*
X97360850Y-57621447D01*
X97339177Y-57569123D01*
X97349092Y-57532122D01*
X97357773Y-57517087D01*
X97369119Y-57497435D01*
X97393004Y-57408293D01*
X97393005Y-57408293D01*
X97393005Y-57316001D01*
X97393004Y-57316000D01*
X97369120Y-57226862D01*
X97369118Y-57226857D01*
X97330390Y-57159779D01*
X97322997Y-57103627D01*
X97342148Y-57070455D01*
X97370463Y-57042141D01*
X97401274Y-56988776D01*
X98477004Y-56988776D01*
X98477004Y-57081069D01*
X98500888Y-57170207D01*
X98500890Y-57170212D01*
X98547032Y-57250131D01*
X98547033Y-57250132D01*
X98547035Y-57250135D01*
X98612292Y-57315392D01*
X98612294Y-57315393D01*
X98612296Y-57315395D01*
X98652899Y-57338838D01*
X98687377Y-57383771D01*
X98679983Y-57439924D01*
X98668224Y-57455249D01*
X98606383Y-57517090D01*
X98560241Y-57597009D01*
X98560239Y-57597014D01*
X98536355Y-57686152D01*
X98536355Y-57778445D01*
X98560239Y-57867583D01*
X98560241Y-57867588D01*
X98606383Y-57947507D01*
X98606384Y-57947508D01*
X98606386Y-57947511D01*
X98671643Y-58012768D01*
X98671645Y-58012769D01*
X98671646Y-58012770D01*
X98724556Y-58043318D01*
X98751567Y-58058913D01*
X98751568Y-58058913D01*
X98751570Y-58058914D01*
X98796139Y-58070856D01*
X98840708Y-58082798D01*
X98840709Y-58082799D01*
X98840711Y-58082799D01*
X98933001Y-58082799D01*
X98933001Y-58082798D01*
X99022143Y-58058913D01*
X99102067Y-58012768D01*
X99167324Y-57947511D01*
X99213469Y-57867587D01*
X99217149Y-57853853D01*
X99849500Y-57853853D01*
X99849500Y-57946146D01*
X99873384Y-58035284D01*
X99873386Y-58035289D01*
X99919528Y-58115208D01*
X99919529Y-58115209D01*
X99919531Y-58115212D01*
X99984788Y-58180469D01*
X99984790Y-58180470D01*
X99984791Y-58180471D01*
X100053885Y-58220363D01*
X100064712Y-58226614D01*
X100064713Y-58226614D01*
X100064715Y-58226615D01*
X100109284Y-58238557D01*
X100153853Y-58250499D01*
X100153854Y-58250500D01*
X100153856Y-58250500D01*
X100246146Y-58250500D01*
X100246146Y-58250499D01*
X100335288Y-58226614D01*
X100415212Y-58180469D01*
X100480469Y-58115212D01*
X100526614Y-58035288D01*
X100550499Y-57946146D01*
X100550500Y-57946146D01*
X100550500Y-57853854D01*
X100550499Y-57853853D01*
X100526615Y-57764715D01*
X100526613Y-57764710D01*
X100480471Y-57684791D01*
X100480470Y-57684790D01*
X100480469Y-57684788D01*
X100415212Y-57619531D01*
X100415209Y-57619529D01*
X100415208Y-57619528D01*
X100353418Y-57583853D01*
X101229500Y-57583853D01*
X101229500Y-57676146D01*
X101253384Y-57765284D01*
X101253386Y-57765289D01*
X101299528Y-57845208D01*
X101299529Y-57845209D01*
X101299531Y-57845212D01*
X101364788Y-57910469D01*
X101364790Y-57910470D01*
X101364791Y-57910471D01*
X101428945Y-57947511D01*
X101444712Y-57956614D01*
X101444713Y-57956614D01*
X101444715Y-57956615D01*
X101489284Y-57968557D01*
X101533853Y-57980499D01*
X101533854Y-57980500D01*
X101533856Y-57980500D01*
X101626146Y-57980500D01*
X101626146Y-57980499D01*
X101715288Y-57956614D01*
X101795212Y-57910469D01*
X101860469Y-57845212D01*
X101906614Y-57765288D01*
X101930499Y-57676146D01*
X101930500Y-57676146D01*
X101930500Y-57583854D01*
X101930499Y-57583853D01*
X101927694Y-57573386D01*
X101912609Y-57517087D01*
X101906615Y-57494715D01*
X101906613Y-57494710D01*
X101860471Y-57414791D01*
X101860470Y-57414790D01*
X101860469Y-57414788D01*
X101795212Y-57349531D01*
X101795209Y-57349529D01*
X101795208Y-57349528D01*
X101715289Y-57303386D01*
X101715284Y-57303384D01*
X101626146Y-57279500D01*
X101626144Y-57279500D01*
X101533856Y-57279500D01*
X101533854Y-57279500D01*
X101444715Y-57303384D01*
X101444710Y-57303386D01*
X101364791Y-57349528D01*
X101299528Y-57414791D01*
X101253386Y-57494710D01*
X101253384Y-57494715D01*
X101229500Y-57583853D01*
X100353418Y-57583853D01*
X100335289Y-57573386D01*
X100335284Y-57573384D01*
X100246146Y-57549500D01*
X100246144Y-57549500D01*
X100153856Y-57549500D01*
X100153854Y-57549500D01*
X100064715Y-57573384D01*
X100064710Y-57573386D01*
X99984791Y-57619528D01*
X99919528Y-57684791D01*
X99873386Y-57764710D01*
X99873384Y-57764715D01*
X99849500Y-57853853D01*
X99217149Y-57853853D01*
X99237354Y-57778445D01*
X99237355Y-57778445D01*
X99237355Y-57686153D01*
X99237354Y-57686152D01*
X99236989Y-57684791D01*
X99213469Y-57597011D01*
X99202123Y-57577359D01*
X99167326Y-57517090D01*
X99167325Y-57517089D01*
X99167324Y-57517087D01*
X99102067Y-57451830D01*
X99102064Y-57451828D01*
X99102062Y-57451826D01*
X99061459Y-57428383D01*
X99026981Y-57383449D01*
X99034375Y-57327297D01*
X99046127Y-57311980D01*
X99107973Y-57250135D01*
X99154118Y-57170211D01*
X99178003Y-57081069D01*
X99178004Y-57081069D01*
X99178004Y-56988777D01*
X99178003Y-56988776D01*
X99154119Y-56899638D01*
X99154117Y-56899633D01*
X99107975Y-56819714D01*
X99107974Y-56819713D01*
X99107973Y-56819711D01*
X99042716Y-56754454D01*
X99042713Y-56754452D01*
X99042712Y-56754451D01*
X98962793Y-56708309D01*
X98962788Y-56708307D01*
X98873650Y-56684423D01*
X98873648Y-56684423D01*
X98781360Y-56684423D01*
X98781358Y-56684423D01*
X98692219Y-56708307D01*
X98692214Y-56708309D01*
X98612295Y-56754451D01*
X98547032Y-56819714D01*
X98500890Y-56899633D01*
X98500888Y-56899638D01*
X98477004Y-56988776D01*
X97401274Y-56988776D01*
X97416608Y-56962217D01*
X97440494Y-56873073D01*
X97440494Y-56780785D01*
X97440494Y-56780783D01*
X97440493Y-56780782D01*
X97416609Y-56691644D01*
X97416607Y-56691639D01*
X97370465Y-56611720D01*
X97370464Y-56611719D01*
X97370463Y-56611717D01*
X97305206Y-56546460D01*
X97305203Y-56546458D01*
X97305202Y-56546457D01*
X97225283Y-56500315D01*
X97225278Y-56500313D01*
X97136140Y-56476429D01*
X97136138Y-56476429D01*
X97043850Y-56476429D01*
X97043848Y-56476429D01*
X96954709Y-56500313D01*
X96954704Y-56500315D01*
X96874785Y-56546457D01*
X96809522Y-56611720D01*
X96763380Y-56691639D01*
X96763378Y-56691644D01*
X96739494Y-56780782D01*
X96739494Y-56873075D01*
X96763378Y-56962213D01*
X96763381Y-56962219D01*
X96802108Y-57029297D01*
X96809500Y-57085450D01*
X96790349Y-57118622D01*
X96762033Y-57146938D01*
X96715891Y-57226857D01*
X96715889Y-57226862D01*
X96692005Y-57316000D01*
X94729536Y-57316000D01*
X94707667Y-57234384D01*
X94707665Y-57234379D01*
X94661523Y-57154460D01*
X94661522Y-57154459D01*
X94661521Y-57154457D01*
X94596264Y-57089200D01*
X94596261Y-57089198D01*
X94596260Y-57089197D01*
X94516341Y-57043055D01*
X94516336Y-57043053D01*
X94427198Y-57019169D01*
X94427196Y-57019169D01*
X94334908Y-57019169D01*
X94334907Y-57019169D01*
X94302943Y-57027733D01*
X94246791Y-57020339D01*
X94212313Y-56975405D01*
X94219150Y-56923481D01*
X94218220Y-56923096D01*
X94219658Y-56919623D01*
X94219707Y-56919253D01*
X94220077Y-56918613D01*
X94243962Y-56829471D01*
X94243963Y-56829471D01*
X94243963Y-56737179D01*
X94243962Y-56737178D01*
X94220078Y-56648040D01*
X94220076Y-56648035D01*
X94173934Y-56568116D01*
X94173933Y-56568115D01*
X94173932Y-56568113D01*
X94108675Y-56502856D01*
X94108672Y-56502854D01*
X94108671Y-56502853D01*
X94028752Y-56456711D01*
X94028747Y-56456709D01*
X93939609Y-56432825D01*
X93939607Y-56432825D01*
X93847319Y-56432825D01*
X93847317Y-56432825D01*
X93758178Y-56456709D01*
X93758173Y-56456711D01*
X93678254Y-56502853D01*
X93612991Y-56568116D01*
X93566849Y-56648035D01*
X93566847Y-56648040D01*
X93542963Y-56737178D01*
X91715500Y-56737178D01*
X91715500Y-56693854D01*
X91715499Y-56693853D01*
X91691615Y-56604715D01*
X91691613Y-56604710D01*
X91645471Y-56524791D01*
X91645470Y-56524790D01*
X91645469Y-56524788D01*
X91580212Y-56459531D01*
X91580209Y-56459529D01*
X91580208Y-56459528D01*
X91500289Y-56413386D01*
X91500284Y-56413384D01*
X91411146Y-56389500D01*
X91411144Y-56389500D01*
X91318856Y-56389500D01*
X91318854Y-56389500D01*
X91229715Y-56413384D01*
X91229710Y-56413386D01*
X91149791Y-56459528D01*
X91084528Y-56524791D01*
X91038386Y-56604710D01*
X91038384Y-56604715D01*
X91014500Y-56693853D01*
X90200500Y-56693853D01*
X90200500Y-55553853D01*
X91449500Y-55553853D01*
X91449500Y-55646146D01*
X91473384Y-55735284D01*
X91473386Y-55735289D01*
X91519528Y-55815208D01*
X91519529Y-55815209D01*
X91519531Y-55815212D01*
X91584788Y-55880469D01*
X91584790Y-55880470D01*
X91584791Y-55880471D01*
X91664710Y-55926613D01*
X91664712Y-55926614D01*
X91664713Y-55926614D01*
X91664715Y-55926615D01*
X91709284Y-55938557D01*
X91753853Y-55950499D01*
X91753854Y-55950500D01*
X91753856Y-55950500D01*
X91846146Y-55950500D01*
X91846146Y-55950499D01*
X91935288Y-55926614D01*
X92015212Y-55880469D01*
X92080469Y-55815212D01*
X92126614Y-55735288D01*
X92150499Y-55646146D01*
X92150500Y-55646146D01*
X92150500Y-55553854D01*
X92150499Y-55553853D01*
X92148433Y-55546144D01*
X92126614Y-55464712D01*
X92080469Y-55384788D01*
X92044883Y-55349202D01*
X96877841Y-55349202D01*
X96877841Y-55441495D01*
X96901725Y-55530633D01*
X96901727Y-55530638D01*
X96947869Y-55610557D01*
X96947870Y-55610558D01*
X96947872Y-55610561D01*
X97013129Y-55675818D01*
X97013131Y-55675819D01*
X97013132Y-55675820D01*
X97081360Y-55715212D01*
X97093053Y-55721963D01*
X97093054Y-55721963D01*
X97093056Y-55721964D01*
X97137625Y-55733906D01*
X97182194Y-55745848D01*
X97182195Y-55745849D01*
X97182197Y-55745849D01*
X97274487Y-55745849D01*
X97274487Y-55745848D01*
X97363629Y-55721963D01*
X97419393Y-55689766D01*
X97475543Y-55682373D01*
X97514953Y-55712609D01*
X97516578Y-55711363D01*
X97519529Y-55715209D01*
X97519531Y-55715212D01*
X97584788Y-55780469D01*
X97584790Y-55780470D01*
X97584791Y-55780471D01*
X97664710Y-55826613D01*
X97664712Y-55826614D01*
X97664713Y-55826614D01*
X97664715Y-55826615D01*
X97709284Y-55838557D01*
X97753853Y-55850499D01*
X97753854Y-55850500D01*
X97753856Y-55850500D01*
X97846146Y-55850500D01*
X97846146Y-55850499D01*
X97935288Y-55826614D01*
X98015212Y-55780469D01*
X98080469Y-55715212D01*
X98126614Y-55635288D01*
X98150499Y-55546146D01*
X98150500Y-55546146D01*
X98150500Y-55453854D01*
X98150499Y-55453853D01*
X98126615Y-55364715D01*
X98126612Y-55364708D01*
X98080984Y-55285680D01*
X98073590Y-55229527D01*
X98108068Y-55184594D01*
X98108071Y-55184592D01*
X98109312Y-55183875D01*
X98115212Y-55180469D01*
X98180469Y-55115212D01*
X98226614Y-55035288D01*
X98250499Y-54946146D01*
X98250500Y-54946146D01*
X98250500Y-54853854D01*
X98250499Y-54853853D01*
X98226615Y-54764715D01*
X98226613Y-54764710D01*
X98180471Y-54684791D01*
X98180470Y-54684790D01*
X98180469Y-54684788D01*
X98115212Y-54619531D01*
X98115209Y-54619529D01*
X98115208Y-54619528D01*
X98035289Y-54573386D01*
X98035284Y-54573384D01*
X97946146Y-54549500D01*
X97946144Y-54549500D01*
X97853856Y-54549500D01*
X97765901Y-54573067D01*
X97709749Y-54565674D01*
X97682662Y-54538586D01*
X97680471Y-54534791D01*
X97680470Y-54534790D01*
X97680469Y-54534788D01*
X97615212Y-54469531D01*
X97615209Y-54469529D01*
X97615208Y-54469528D01*
X97535289Y-54423386D01*
X97535284Y-54423384D01*
X97446146Y-54399500D01*
X97446144Y-54399500D01*
X97353856Y-54399500D01*
X97353854Y-54399500D01*
X97264715Y-54423384D01*
X97264710Y-54423386D01*
X97184791Y-54469528D01*
X97119528Y-54534791D01*
X97073386Y-54614710D01*
X97073384Y-54614715D01*
X97049500Y-54703853D01*
X97049500Y-54796146D01*
X97073384Y-54885284D01*
X97073386Y-54885289D01*
X97120737Y-54967303D01*
X97128129Y-55023456D01*
X97093652Y-55068389D01*
X97013131Y-55114878D01*
X96947869Y-55180140D01*
X96901727Y-55260059D01*
X96901725Y-55260064D01*
X96877841Y-55349202D01*
X92044883Y-55349202D01*
X92015212Y-55319531D01*
X92015209Y-55319529D01*
X92015208Y-55319528D01*
X91935289Y-55273386D01*
X91935284Y-55273384D01*
X91846146Y-55249500D01*
X91846144Y-55249500D01*
X91753856Y-55249500D01*
X91753854Y-55249500D01*
X91664715Y-55273384D01*
X91664710Y-55273386D01*
X91584791Y-55319528D01*
X91519528Y-55384791D01*
X91473386Y-55464710D01*
X91473384Y-55464715D01*
X91449500Y-55553853D01*
X90200500Y-55553853D01*
X90200500Y-54628853D01*
X91599500Y-54628853D01*
X91599500Y-54721146D01*
X91623384Y-54810284D01*
X91623386Y-54810289D01*
X91669528Y-54890208D01*
X91669529Y-54890209D01*
X91669531Y-54890212D01*
X91734788Y-54955469D01*
X91734790Y-54955470D01*
X91734791Y-54955471D01*
X91814710Y-55001613D01*
X91814712Y-55001614D01*
X91814713Y-55001614D01*
X91814715Y-55001615D01*
X91859284Y-55013557D01*
X91903853Y-55025499D01*
X91903854Y-55025500D01*
X91903856Y-55025500D01*
X91996146Y-55025500D01*
X91996146Y-55025499D01*
X92085288Y-55001614D01*
X92165212Y-54955469D01*
X92230469Y-54890212D01*
X92276614Y-54810288D01*
X92300499Y-54721146D01*
X92300500Y-54721146D01*
X92300500Y-54628854D01*
X92300499Y-54628853D01*
X92299899Y-54626615D01*
X92285551Y-54573067D01*
X92276615Y-54539715D01*
X92276613Y-54539710D01*
X92230471Y-54459791D01*
X92230470Y-54459790D01*
X92230469Y-54459788D01*
X92165212Y-54394531D01*
X92165209Y-54394529D01*
X92165208Y-54394528D01*
X92085289Y-54348386D01*
X92085284Y-54348384D01*
X91996146Y-54324500D01*
X91996144Y-54324500D01*
X91903856Y-54324500D01*
X91903854Y-54324500D01*
X91814715Y-54348384D01*
X91814710Y-54348386D01*
X91734791Y-54394528D01*
X91669528Y-54459791D01*
X91623386Y-54539710D01*
X91623384Y-54539715D01*
X91599500Y-54628853D01*
X90200500Y-54628853D01*
X90200500Y-54063853D01*
X90849500Y-54063853D01*
X90849500Y-54156146D01*
X90873384Y-54245284D01*
X90873386Y-54245289D01*
X90919528Y-54325208D01*
X90919529Y-54325209D01*
X90919531Y-54325212D01*
X90984788Y-54390469D01*
X90984790Y-54390470D01*
X90984791Y-54390471D01*
X91041797Y-54423384D01*
X91064712Y-54436614D01*
X91064713Y-54436614D01*
X91064715Y-54436615D01*
X91100286Y-54446146D01*
X91153853Y-54460499D01*
X91153854Y-54460500D01*
X91153856Y-54460500D01*
X91246146Y-54460500D01*
X91246146Y-54460499D01*
X91335288Y-54436614D01*
X91415212Y-54390469D01*
X91480469Y-54325212D01*
X91526614Y-54245288D01*
X91550499Y-54156146D01*
X91550500Y-54156146D01*
X91550500Y-54063854D01*
X91550499Y-54063853D01*
X91526615Y-53974715D01*
X91526613Y-53974710D01*
X91480471Y-53894791D01*
X91480470Y-53894790D01*
X91480469Y-53894788D01*
X91415212Y-53829531D01*
X91415209Y-53829529D01*
X91415208Y-53829528D01*
X91335289Y-53783386D01*
X91335284Y-53783384D01*
X91246146Y-53759500D01*
X91246144Y-53759500D01*
X91153856Y-53759500D01*
X91153854Y-53759500D01*
X91064715Y-53783384D01*
X91064710Y-53783386D01*
X90984791Y-53829528D01*
X90919528Y-53894791D01*
X90873386Y-53974710D01*
X90873384Y-53974715D01*
X90849500Y-54063853D01*
X90200500Y-54063853D01*
X90200500Y-53545790D01*
X98395469Y-53545790D01*
X98395469Y-53638083D01*
X98419353Y-53727221D01*
X98419355Y-53727226D01*
X98465497Y-53807145D01*
X98465498Y-53807146D01*
X98465500Y-53807149D01*
X98530757Y-53872406D01*
X98530759Y-53872407D01*
X98530760Y-53872408D01*
X98537766Y-53876453D01*
X98610681Y-53918551D01*
X98610682Y-53918551D01*
X98610684Y-53918552D01*
X98655253Y-53930494D01*
X98699822Y-53942436D01*
X98699823Y-53942437D01*
X98699825Y-53942437D01*
X98792115Y-53942437D01*
X98792115Y-53942436D01*
X98881257Y-53918551D01*
X98961181Y-53872406D01*
X99026438Y-53807149D01*
X99072583Y-53727225D01*
X99096468Y-53638083D01*
X99096469Y-53638083D01*
X99096469Y-53545791D01*
X99096468Y-53545790D01*
X99072584Y-53456652D01*
X99072582Y-53456647D01*
X99026440Y-53376728D01*
X99026439Y-53376727D01*
X99026438Y-53376725D01*
X98961181Y-53311468D01*
X98961178Y-53311466D01*
X98961177Y-53311465D01*
X98881258Y-53265323D01*
X98881253Y-53265321D01*
X98792115Y-53241437D01*
X98792113Y-53241437D01*
X98699825Y-53241437D01*
X98699823Y-53241437D01*
X98610684Y-53265321D01*
X98610679Y-53265323D01*
X98530760Y-53311465D01*
X98465497Y-53376728D01*
X98419355Y-53456647D01*
X98419353Y-53456652D01*
X98395469Y-53545790D01*
X90200500Y-53545790D01*
X90200500Y-53203853D01*
X103099500Y-53203853D01*
X103099500Y-53296146D01*
X103123384Y-53385284D01*
X103123386Y-53385289D01*
X103169528Y-53465208D01*
X103169529Y-53465209D01*
X103169531Y-53465212D01*
X103234788Y-53530469D01*
X103314712Y-53576614D01*
X103314713Y-53576614D01*
X103314715Y-53576615D01*
X103359284Y-53588557D01*
X103403853Y-53600499D01*
X103403854Y-53600500D01*
X103403856Y-53600500D01*
X103496146Y-53600500D01*
X103496146Y-53600499D01*
X103585288Y-53576614D01*
X103665212Y-53530469D01*
X103730469Y-53465212D01*
X103776614Y-53385288D01*
X103800499Y-53296146D01*
X103800500Y-53296146D01*
X103800500Y-53203854D01*
X103800499Y-53203853D01*
X103776615Y-53114715D01*
X103776613Y-53114710D01*
X103730471Y-53034791D01*
X103730470Y-53034790D01*
X103730469Y-53034788D01*
X103665212Y-52969531D01*
X103665209Y-52969529D01*
X103665208Y-52969528D01*
X103585289Y-52923386D01*
X103585284Y-52923384D01*
X103496146Y-52899500D01*
X103496144Y-52899500D01*
X103403856Y-52899500D01*
X103403854Y-52899500D01*
X103314715Y-52923384D01*
X103314710Y-52923386D01*
X103234791Y-52969528D01*
X103169528Y-53034791D01*
X103123386Y-53114710D01*
X103123384Y-53114715D01*
X103099500Y-53203853D01*
X90200500Y-53203853D01*
X90200500Y-52553853D01*
X90954041Y-52553853D01*
X90954041Y-52646146D01*
X90977925Y-52735284D01*
X90977927Y-52735289D01*
X91024069Y-52815208D01*
X91024070Y-52815209D01*
X91024072Y-52815212D01*
X91089329Y-52880469D01*
X91089331Y-52880470D01*
X91089332Y-52880471D01*
X91163662Y-52923386D01*
X91169253Y-52926614D01*
X91169254Y-52926614D01*
X91169256Y-52926615D01*
X91213825Y-52938557D01*
X91258394Y-52950499D01*
X91258395Y-52950500D01*
X91258397Y-52950500D01*
X91350687Y-52950500D01*
X91350687Y-52950499D01*
X91439829Y-52926614D01*
X91519753Y-52880469D01*
X91585010Y-52815212D01*
X91631155Y-52735288D01*
X91655040Y-52646146D01*
X91655041Y-52646146D01*
X91655041Y-52553854D01*
X91655040Y-52553853D01*
X92049500Y-52553853D01*
X92049500Y-52646146D01*
X92073384Y-52735284D01*
X92073386Y-52735289D01*
X92119528Y-52815208D01*
X92119529Y-52815209D01*
X92119531Y-52815212D01*
X92184788Y-52880469D01*
X92184790Y-52880470D01*
X92184791Y-52880471D01*
X92259121Y-52923386D01*
X92264712Y-52926614D01*
X92264713Y-52926614D01*
X92264715Y-52926615D01*
X92309284Y-52938557D01*
X92353853Y-52950499D01*
X92353854Y-52950500D01*
X92353856Y-52950500D01*
X92446146Y-52950500D01*
X92446146Y-52950499D01*
X92535288Y-52926614D01*
X92615212Y-52880469D01*
X92680469Y-52815212D01*
X92726614Y-52735288D01*
X92750499Y-52646146D01*
X92750500Y-52646146D01*
X92750500Y-52553854D01*
X92750499Y-52553853D01*
X93449500Y-52553853D01*
X93449500Y-52646146D01*
X93473384Y-52735284D01*
X93473386Y-52735289D01*
X93519528Y-52815208D01*
X93519529Y-52815209D01*
X93519531Y-52815212D01*
X93584788Y-52880469D01*
X93584790Y-52880470D01*
X93584791Y-52880471D01*
X93659121Y-52923386D01*
X93664712Y-52926614D01*
X93664713Y-52926614D01*
X93664715Y-52926615D01*
X93709284Y-52938557D01*
X93753853Y-52950499D01*
X93753854Y-52950500D01*
X93753856Y-52950500D01*
X93846146Y-52950500D01*
X93846146Y-52950499D01*
X93935288Y-52926614D01*
X94015212Y-52880469D01*
X94080469Y-52815212D01*
X94126614Y-52735288D01*
X94150499Y-52646146D01*
X94150500Y-52646146D01*
X94150500Y-52553854D01*
X94150499Y-52553853D01*
X94126615Y-52464715D01*
X94126613Y-52464710D01*
X94081173Y-52386006D01*
X94081172Y-52386005D01*
X94080472Y-52384793D01*
X94080472Y-52384792D01*
X94080470Y-52384790D01*
X94080469Y-52384788D01*
X94049534Y-52353853D01*
X99649500Y-52353853D01*
X99649500Y-52446146D01*
X99673384Y-52535284D01*
X99673386Y-52535289D01*
X99719528Y-52615208D01*
X99719529Y-52615209D01*
X99719531Y-52615212D01*
X99784788Y-52680469D01*
X99864712Y-52726614D01*
X99864713Y-52726614D01*
X99864715Y-52726615D01*
X99909284Y-52738557D01*
X99953853Y-52750499D01*
X99953854Y-52750500D01*
X99953856Y-52750500D01*
X100046146Y-52750500D01*
X100046146Y-52750499D01*
X100135288Y-52726614D01*
X100215212Y-52680469D01*
X100280469Y-52615212D01*
X100326614Y-52535288D01*
X100350499Y-52446146D01*
X100350500Y-52446146D01*
X100350500Y-52353854D01*
X100350499Y-52353853D01*
X100348433Y-52346144D01*
X100341302Y-52319528D01*
X100327538Y-52268159D01*
X100326615Y-52264715D01*
X100326613Y-52264710D01*
X100320345Y-52253853D01*
X101349500Y-52253853D01*
X101349500Y-52346146D01*
X101373384Y-52435284D01*
X101373386Y-52435289D01*
X101419528Y-52515208D01*
X101419529Y-52515209D01*
X101419531Y-52515212D01*
X101484788Y-52580469D01*
X101484790Y-52580470D01*
X101484791Y-52580471D01*
X101564710Y-52626613D01*
X101564712Y-52626614D01*
X101564713Y-52626614D01*
X101564715Y-52626615D01*
X101609284Y-52638557D01*
X101653853Y-52650499D01*
X101653854Y-52650500D01*
X101653856Y-52650500D01*
X101746146Y-52650500D01*
X101746146Y-52650499D01*
X101835288Y-52626614D01*
X101915212Y-52580469D01*
X101980469Y-52515212D01*
X102026614Y-52435288D01*
X102050499Y-52346146D01*
X102050500Y-52346146D01*
X102050500Y-52253854D01*
X102050499Y-52253853D01*
X102026615Y-52164715D01*
X102026613Y-52164710D01*
X101980471Y-52084791D01*
X101980470Y-52084790D01*
X101980469Y-52084788D01*
X101915212Y-52019531D01*
X101915209Y-52019529D01*
X101915208Y-52019528D01*
X101835289Y-51973386D01*
X101835284Y-51973384D01*
X101746146Y-51949500D01*
X101746144Y-51949500D01*
X101653856Y-51949500D01*
X101653854Y-51949500D01*
X101564715Y-51973384D01*
X101564710Y-51973386D01*
X101484791Y-52019528D01*
X101419528Y-52084791D01*
X101373386Y-52164710D01*
X101373384Y-52164715D01*
X101349500Y-52253853D01*
X100320345Y-52253853D01*
X100280471Y-52184791D01*
X100280470Y-52184790D01*
X100280469Y-52184788D01*
X100215212Y-52119531D01*
X100215209Y-52119529D01*
X100215208Y-52119528D01*
X100135289Y-52073386D01*
X100135284Y-52073384D01*
X100046146Y-52049500D01*
X100046144Y-52049500D01*
X99953856Y-52049500D01*
X99953854Y-52049500D01*
X99864715Y-52073384D01*
X99864710Y-52073386D01*
X99784791Y-52119528D01*
X99719528Y-52184791D01*
X99673386Y-52264710D01*
X99673384Y-52264715D01*
X99649500Y-52353853D01*
X94049534Y-52353853D01*
X94015212Y-52319531D01*
X94015209Y-52319529D01*
X94015208Y-52319528D01*
X93935289Y-52273386D01*
X93935284Y-52273384D01*
X93846146Y-52249500D01*
X93846144Y-52249500D01*
X93753856Y-52249500D01*
X93753854Y-52249500D01*
X93664715Y-52273384D01*
X93664710Y-52273386D01*
X93584791Y-52319528D01*
X93519528Y-52384791D01*
X93473386Y-52464710D01*
X93473384Y-52464715D01*
X93449500Y-52553853D01*
X92750499Y-52553853D01*
X92726615Y-52464715D01*
X92726613Y-52464710D01*
X92680471Y-52384791D01*
X92680470Y-52384790D01*
X92680469Y-52384788D01*
X92615212Y-52319531D01*
X92615209Y-52319529D01*
X92615208Y-52319528D01*
X92535289Y-52273386D01*
X92535284Y-52273384D01*
X92446146Y-52249500D01*
X92446144Y-52249500D01*
X92353856Y-52249500D01*
X92353854Y-52249500D01*
X92264715Y-52273384D01*
X92264710Y-52273386D01*
X92184791Y-52319528D01*
X92119528Y-52384791D01*
X92073386Y-52464710D01*
X92073384Y-52464715D01*
X92049500Y-52553853D01*
X91655040Y-52553853D01*
X91631156Y-52464715D01*
X91631154Y-52464710D01*
X91585012Y-52384791D01*
X91585011Y-52384790D01*
X91585010Y-52384788D01*
X91519753Y-52319531D01*
X91519750Y-52319529D01*
X91519749Y-52319528D01*
X91439830Y-52273386D01*
X91439825Y-52273384D01*
X91350687Y-52249500D01*
X91350685Y-52249500D01*
X91258397Y-52249500D01*
X91258395Y-52249500D01*
X91169256Y-52273384D01*
X91169251Y-52273386D01*
X91089332Y-52319528D01*
X91024069Y-52384791D01*
X90977927Y-52464710D01*
X90977925Y-52464715D01*
X90954041Y-52553853D01*
X90200500Y-52553853D01*
X90200500Y-51560519D01*
X103255513Y-51560519D01*
X103255513Y-51652812D01*
X103279397Y-51741950D01*
X103279399Y-51741955D01*
X103325541Y-51821874D01*
X103325542Y-51821875D01*
X103325544Y-51821878D01*
X103390801Y-51887135D01*
X103470725Y-51933280D01*
X103470726Y-51933280D01*
X103470728Y-51933281D01*
X103515297Y-51945223D01*
X103559866Y-51957165D01*
X103559867Y-51957166D01*
X103559869Y-51957166D01*
X103652159Y-51957166D01*
X103652159Y-51957165D01*
X103741301Y-51933280D01*
X103821225Y-51887135D01*
X103886482Y-51821878D01*
X103932627Y-51741954D01*
X103956512Y-51652812D01*
X103956513Y-51652812D01*
X103956513Y-51560520D01*
X103956512Y-51560519D01*
X103932628Y-51471381D01*
X103932626Y-51471376D01*
X103886484Y-51391457D01*
X103886483Y-51391456D01*
X103886482Y-51391454D01*
X103821225Y-51326197D01*
X103821222Y-51326195D01*
X103821221Y-51326194D01*
X103741302Y-51280052D01*
X103741297Y-51280050D01*
X103652159Y-51256166D01*
X103652157Y-51256166D01*
X103559869Y-51256166D01*
X103559867Y-51256166D01*
X103470728Y-51280050D01*
X103470723Y-51280052D01*
X103390804Y-51326194D01*
X103325541Y-51391457D01*
X103279399Y-51471376D01*
X103279397Y-51471381D01*
X103255513Y-51560519D01*
X90200500Y-51560519D01*
X90200500Y-51270576D01*
X90222174Y-51218250D01*
X90274500Y-51196576D01*
X90326826Y-51218250D01*
X90338586Y-51233576D01*
X90339528Y-51235208D01*
X90339529Y-51235209D01*
X90339531Y-51235212D01*
X90404788Y-51300469D01*
X90404790Y-51300470D01*
X90404791Y-51300471D01*
X90450073Y-51326615D01*
X90484712Y-51346614D01*
X90484713Y-51346614D01*
X90484715Y-51346615D01*
X90529284Y-51358557D01*
X90573853Y-51370499D01*
X90573854Y-51370500D01*
X90573856Y-51370500D01*
X90666146Y-51370500D01*
X90666146Y-51370499D01*
X90755288Y-51346614D01*
X90835212Y-51300469D01*
X90900469Y-51235212D01*
X90946614Y-51155288D01*
X90970499Y-51066146D01*
X90970500Y-51066146D01*
X90970500Y-50973854D01*
X90968974Y-50968160D01*
X90968974Y-50968159D01*
X90965141Y-50953853D01*
X95504045Y-50953853D01*
X95504045Y-51046146D01*
X95527929Y-51135284D01*
X95527931Y-51135289D01*
X95574073Y-51215208D01*
X95574074Y-51215209D01*
X95574076Y-51215212D01*
X95639333Y-51280469D01*
X95639335Y-51280470D01*
X95639336Y-51280471D01*
X95719255Y-51326613D01*
X95719257Y-51326614D01*
X95719258Y-51326614D01*
X95719260Y-51326615D01*
X95763829Y-51338557D01*
X95808398Y-51350499D01*
X95808399Y-51350500D01*
X95808401Y-51350500D01*
X95900691Y-51350500D01*
X95900691Y-51350499D01*
X95989833Y-51326614D01*
X96069757Y-51280469D01*
X96135014Y-51215212D01*
X96181159Y-51135288D01*
X96205044Y-51046146D01*
X96205045Y-51046146D01*
X96205045Y-50953854D01*
X96205044Y-50953853D01*
X96181160Y-50864715D01*
X96181158Y-50864710D01*
X96135016Y-50784791D01*
X96135015Y-50784790D01*
X96135014Y-50784788D01*
X96069757Y-50719531D01*
X96069754Y-50719529D01*
X96069753Y-50719528D01*
X95989834Y-50673386D01*
X95989829Y-50673384D01*
X95900691Y-50649500D01*
X95900689Y-50649500D01*
X95808401Y-50649500D01*
X95808399Y-50649500D01*
X95719260Y-50673384D01*
X95719255Y-50673386D01*
X95639336Y-50719528D01*
X95574073Y-50784791D01*
X95527931Y-50864710D01*
X95527929Y-50864715D01*
X95504045Y-50953853D01*
X90965141Y-50953853D01*
X90946615Y-50884715D01*
X90946613Y-50884710D01*
X90900471Y-50804791D01*
X90900470Y-50804790D01*
X90900469Y-50804788D01*
X90835212Y-50739531D01*
X90835209Y-50739529D01*
X90835208Y-50739528D01*
X90755289Y-50693386D01*
X90755284Y-50693384D01*
X90666146Y-50669500D01*
X90666144Y-50669500D01*
X90573856Y-50669500D01*
X90573854Y-50669500D01*
X90484715Y-50693384D01*
X90484710Y-50693386D01*
X90404791Y-50739528D01*
X90339527Y-50804792D01*
X90339527Y-50804793D01*
X90338583Y-50806428D01*
X90337827Y-50807007D01*
X90336573Y-50808642D01*
X90336135Y-50808305D01*
X90293647Y-50840903D01*
X90237495Y-50833506D01*
X90203020Y-50788570D01*
X90200500Y-50769423D01*
X90200500Y-50259730D01*
X94464059Y-50259730D01*
X94464059Y-50352023D01*
X94487943Y-50441161D01*
X94487945Y-50441166D01*
X94534087Y-50521085D01*
X94534088Y-50521086D01*
X94534090Y-50521089D01*
X94599347Y-50586346D01*
X94679271Y-50632491D01*
X94679272Y-50632491D01*
X94679274Y-50632492D01*
X94723843Y-50644434D01*
X94768412Y-50656376D01*
X94768413Y-50656377D01*
X94768415Y-50656377D01*
X94860705Y-50656377D01*
X94860705Y-50656376D01*
X94949847Y-50632491D01*
X95029771Y-50586346D01*
X95095028Y-50521089D01*
X95141173Y-50441165D01*
X95165058Y-50352023D01*
X95165059Y-50352023D01*
X95165059Y-50259731D01*
X95165058Y-50259730D01*
X95155829Y-50225288D01*
X95141173Y-50170589D01*
X95127278Y-50146522D01*
X95095030Y-50090668D01*
X95095029Y-50090667D01*
X95095028Y-50090665D01*
X95058592Y-50054229D01*
X97329596Y-50054229D01*
X97329596Y-50146522D01*
X97353480Y-50235660D01*
X97353482Y-50235665D01*
X97399624Y-50315584D01*
X97399625Y-50315585D01*
X97399627Y-50315588D01*
X97464884Y-50380845D01*
X97464886Y-50380846D01*
X97464887Y-50380847D01*
X97526838Y-50416615D01*
X97544808Y-50426990D01*
X97544809Y-50426990D01*
X97544811Y-50426991D01*
X97589380Y-50438933D01*
X97633949Y-50450875D01*
X97633950Y-50450876D01*
X97633952Y-50450876D01*
X97726242Y-50450876D01*
X97726242Y-50450875D01*
X97815384Y-50426990D01*
X97895308Y-50380845D01*
X97907911Y-50368241D01*
X97960236Y-50346568D01*
X98010916Y-50367560D01*
X98010947Y-50367521D01*
X98011094Y-50367634D01*
X98012560Y-50368241D01*
X98014788Y-50370469D01*
X98014790Y-50370470D01*
X98014791Y-50370471D01*
X98094710Y-50416613D01*
X98094712Y-50416614D01*
X98094713Y-50416614D01*
X98094715Y-50416615D01*
X98139284Y-50428557D01*
X98183853Y-50440499D01*
X98183854Y-50440500D01*
X98183856Y-50440500D01*
X98276146Y-50440500D01*
X98276146Y-50440499D01*
X98365288Y-50416614D01*
X98445212Y-50370469D01*
X98510469Y-50305212D01*
X98556614Y-50225288D01*
X98580499Y-50136146D01*
X98580500Y-50136146D01*
X98580500Y-50043854D01*
X98580499Y-50043853D01*
X98556615Y-49954715D01*
X98556613Y-49954710D01*
X98510471Y-49874791D01*
X98510470Y-49874790D01*
X98510469Y-49874788D01*
X98445212Y-49809531D01*
X98445209Y-49809529D01*
X98445208Y-49809528D01*
X98365289Y-49763386D01*
X98365284Y-49763384D01*
X98276146Y-49739500D01*
X98276144Y-49739500D01*
X98183856Y-49739500D01*
X98183854Y-49739500D01*
X98094715Y-49763384D01*
X98094710Y-49763386D01*
X98014790Y-49809529D01*
X98002182Y-49822136D01*
X97949854Y-49843807D01*
X97899179Y-49822815D01*
X97899149Y-49822855D01*
X97899000Y-49822740D01*
X97897534Y-49822133D01*
X97895308Y-49819907D01*
X97895305Y-49819905D01*
X97895304Y-49819904D01*
X97815385Y-49773762D01*
X97815380Y-49773760D01*
X97726242Y-49749876D01*
X97726240Y-49749876D01*
X97633952Y-49749876D01*
X97633950Y-49749876D01*
X97544811Y-49773760D01*
X97544806Y-49773762D01*
X97464887Y-49819904D01*
X97399624Y-49885167D01*
X97353482Y-49965086D01*
X97353480Y-49965091D01*
X97329596Y-50054229D01*
X95058592Y-50054229D01*
X95029771Y-50025408D01*
X95029768Y-50025406D01*
X95029767Y-50025405D01*
X94949848Y-49979263D01*
X94949843Y-49979261D01*
X94860705Y-49955377D01*
X94860703Y-49955377D01*
X94768415Y-49955377D01*
X94768413Y-49955377D01*
X94679274Y-49979261D01*
X94679269Y-49979263D01*
X94599350Y-50025405D01*
X94534087Y-50090668D01*
X94487945Y-50170587D01*
X94487943Y-50170592D01*
X94464059Y-50259730D01*
X90200500Y-50259730D01*
X90200500Y-49546285D01*
X91949337Y-49546285D01*
X91949337Y-49638578D01*
X91973221Y-49727716D01*
X91973223Y-49727721D01*
X92019365Y-49807640D01*
X92019366Y-49807641D01*
X92019368Y-49807644D01*
X92084625Y-49872901D01*
X92084627Y-49872902D01*
X92084628Y-49872903D01*
X92164547Y-49919045D01*
X92164549Y-49919046D01*
X92164550Y-49919046D01*
X92164552Y-49919047D01*
X92209121Y-49930989D01*
X92253690Y-49942931D01*
X92253691Y-49942932D01*
X92253693Y-49942932D01*
X92345983Y-49942932D01*
X92345983Y-49942931D01*
X92435125Y-49919046D01*
X92515049Y-49872901D01*
X92580306Y-49807644D01*
X92626451Y-49727720D01*
X92650336Y-49638578D01*
X92650337Y-49638578D01*
X92650337Y-49546288D01*
X92647500Y-49535700D01*
X92654893Y-49479548D01*
X92699827Y-49445069D01*
X92738131Y-49445069D01*
X92748696Y-49447900D01*
X92758396Y-49450500D01*
X92758397Y-49450500D01*
X92850687Y-49450500D01*
X92850687Y-49450499D01*
X92939829Y-49426614D01*
X93019753Y-49380469D01*
X93085010Y-49315212D01*
X93131155Y-49235288D01*
X93155040Y-49146146D01*
X93155041Y-49146146D01*
X93155041Y-49053854D01*
X93155040Y-49053853D01*
X93150537Y-49037049D01*
X93131155Y-48964712D01*
X93103945Y-48917583D01*
X93085012Y-48884791D01*
X93085011Y-48884790D01*
X93085010Y-48884788D01*
X93019753Y-48819531D01*
X92991160Y-48803022D01*
X92989278Y-48801778D01*
X92974595Y-48780029D01*
X92969856Y-48773853D01*
X98329500Y-48773853D01*
X98329500Y-48866146D01*
X98353384Y-48955284D01*
X98353386Y-48955289D01*
X98399528Y-49035208D01*
X98399529Y-49035209D01*
X98399531Y-49035212D01*
X98464788Y-49100469D01*
X98544712Y-49146614D01*
X98544713Y-49146614D01*
X98544715Y-49146615D01*
X98582480Y-49156734D01*
X98633853Y-49170499D01*
X98633854Y-49170500D01*
X98633856Y-49170500D01*
X98726146Y-49170500D01*
X98726146Y-49170499D01*
X98815288Y-49146614D01*
X98895212Y-49100469D01*
X98941828Y-49053853D01*
X102649500Y-49053853D01*
X102649500Y-49146146D01*
X102673384Y-49235284D01*
X102673386Y-49235289D01*
X102719528Y-49315208D01*
X102719529Y-49315209D01*
X102719531Y-49315212D01*
X102784788Y-49380469D01*
X102864712Y-49426614D01*
X102864713Y-49426614D01*
X102864715Y-49426615D01*
X102909284Y-49438557D01*
X102953853Y-49450499D01*
X102953854Y-49450500D01*
X102953856Y-49450500D01*
X103046146Y-49450500D01*
X103046146Y-49450499D01*
X103135288Y-49426614D01*
X103215212Y-49380469D01*
X103280469Y-49315212D01*
X103326614Y-49235288D01*
X103350499Y-49146146D01*
X103350500Y-49146146D01*
X103350500Y-49053854D01*
X103350499Y-49053853D01*
X103345996Y-49037049D01*
X103326614Y-48964712D01*
X103299404Y-48917583D01*
X103280471Y-48884791D01*
X103280470Y-48884790D01*
X103280469Y-48884788D01*
X103215212Y-48819531D01*
X103215209Y-48819529D01*
X103215208Y-48819528D01*
X103135289Y-48773386D01*
X103135284Y-48773384D01*
X103046146Y-48749500D01*
X103046144Y-48749500D01*
X102953856Y-48749500D01*
X102953854Y-48749500D01*
X102864715Y-48773384D01*
X102864710Y-48773386D01*
X102784791Y-48819528D01*
X102719528Y-48884791D01*
X102673386Y-48964710D01*
X102673384Y-48964715D01*
X102649500Y-49053853D01*
X98941828Y-49053853D01*
X98960469Y-49035212D01*
X98960472Y-49035207D01*
X98973869Y-49012005D01*
X99006613Y-48955289D01*
X99006614Y-48955288D01*
X99030499Y-48866146D01*
X99030500Y-48866146D01*
X99030500Y-48773854D01*
X99030499Y-48773853D01*
X99030373Y-48773384D01*
X99006614Y-48684712D01*
X99006613Y-48684710D01*
X98960471Y-48604791D01*
X98960470Y-48604790D01*
X98960469Y-48604788D01*
X98895212Y-48539531D01*
X98895209Y-48539529D01*
X98895208Y-48539528D01*
X98815289Y-48493386D01*
X98815284Y-48493384D01*
X98729825Y-48470485D01*
X98729820Y-48470485D01*
X98726144Y-48469500D01*
X98633856Y-48469500D01*
X98633854Y-48469500D01*
X98544715Y-48493384D01*
X98544710Y-48493386D01*
X98464791Y-48539528D01*
X98399528Y-48604791D01*
X98353386Y-48684710D01*
X98353384Y-48684715D01*
X98329500Y-48773853D01*
X92969856Y-48773853D01*
X92958616Y-48759205D01*
X92958786Y-48756613D01*
X92957587Y-48754837D01*
X92959576Y-48744578D01*
X92961384Y-48717044D01*
X92960332Y-48716762D01*
X92979123Y-48646631D01*
X92985472Y-48622935D01*
X92985473Y-48622935D01*
X92985473Y-48530643D01*
X92985472Y-48530642D01*
X92976228Y-48496144D01*
X92961587Y-48441501D01*
X92958001Y-48435290D01*
X92939851Y-48403853D01*
X100649500Y-48403853D01*
X100649500Y-48496146D01*
X100673384Y-48585284D01*
X100673386Y-48585289D01*
X100719528Y-48665208D01*
X100719529Y-48665209D01*
X100719531Y-48665212D01*
X100784788Y-48730469D01*
X100784790Y-48730470D01*
X100784791Y-48730471D01*
X100859935Y-48773856D01*
X100864712Y-48776614D01*
X100864713Y-48776614D01*
X100864715Y-48776615D01*
X100909284Y-48788557D01*
X100953853Y-48800499D01*
X100953854Y-48800500D01*
X100953856Y-48800500D01*
X101046146Y-48800500D01*
X101046146Y-48800499D01*
X101135288Y-48776614D01*
X101215212Y-48730469D01*
X101280469Y-48665212D01*
X101326614Y-48585288D01*
X101350499Y-48496146D01*
X101350500Y-48496146D01*
X101350500Y-48403854D01*
X101350499Y-48403853D01*
X101326615Y-48314715D01*
X101326613Y-48314710D01*
X101280471Y-48234791D01*
X101280470Y-48234790D01*
X101280469Y-48234788D01*
X101215212Y-48169531D01*
X101215209Y-48169529D01*
X101215208Y-48169528D01*
X101135289Y-48123386D01*
X101135284Y-48123384D01*
X101046146Y-48099500D01*
X101046144Y-48099500D01*
X100953856Y-48099500D01*
X100953854Y-48099500D01*
X100864715Y-48123384D01*
X100864710Y-48123386D01*
X100784791Y-48169528D01*
X100719528Y-48234791D01*
X100673386Y-48314710D01*
X100673384Y-48314715D01*
X100649500Y-48403853D01*
X92939851Y-48403853D01*
X92915444Y-48361580D01*
X92915443Y-48361579D01*
X92915442Y-48361577D01*
X92850185Y-48296320D01*
X92850182Y-48296318D01*
X92850181Y-48296317D01*
X92770262Y-48250175D01*
X92770257Y-48250173D01*
X92681119Y-48226289D01*
X92681117Y-48226289D01*
X92588829Y-48226289D01*
X92588827Y-48226289D01*
X92499688Y-48250173D01*
X92499683Y-48250175D01*
X92419764Y-48296317D01*
X92354501Y-48361580D01*
X92308359Y-48441499D01*
X92308357Y-48441504D01*
X92284473Y-48530642D01*
X92284473Y-48622935D01*
X92308357Y-48712073D01*
X92308359Y-48712078D01*
X92354501Y-48791997D01*
X92354502Y-48791998D01*
X92354504Y-48792001D01*
X92419761Y-48857258D01*
X92419763Y-48857259D01*
X92419764Y-48857260D01*
X92446418Y-48872649D01*
X92480897Y-48917583D01*
X92478135Y-48959746D01*
X92479182Y-48960027D01*
X92454041Y-49053853D01*
X92454041Y-49146143D01*
X92456878Y-49156734D01*
X92449482Y-49212886D01*
X92404547Y-49247363D01*
X92366246Y-49247362D01*
X92345981Y-49241932D01*
X92253693Y-49241932D01*
X92253691Y-49241932D01*
X92164552Y-49265816D01*
X92164547Y-49265818D01*
X92084628Y-49311960D01*
X92019365Y-49377223D01*
X91973223Y-49457142D01*
X91973221Y-49457147D01*
X91949337Y-49546285D01*
X90200500Y-49546285D01*
X90200500Y-47693853D01*
X91769500Y-47693853D01*
X91769500Y-47786146D01*
X91793384Y-47875284D01*
X91793386Y-47875289D01*
X91839528Y-47955208D01*
X91839529Y-47955209D01*
X91839531Y-47955212D01*
X91904788Y-48020469D01*
X91904790Y-48020470D01*
X91904791Y-48020471D01*
X91984710Y-48066613D01*
X91984712Y-48066614D01*
X91984713Y-48066614D01*
X91984715Y-48066615D01*
X92029284Y-48078557D01*
X92073853Y-48090499D01*
X92073854Y-48090500D01*
X92073856Y-48090500D01*
X92166146Y-48090500D01*
X92166146Y-48090499D01*
X92255288Y-48066614D01*
X92335212Y-48020469D01*
X92400469Y-47955212D01*
X92443017Y-47881516D01*
X92487949Y-47847040D01*
X92544102Y-47854432D01*
X92571187Y-47881516D01*
X92574049Y-47886473D01*
X92582511Y-47901130D01*
X92582514Y-47901134D01*
X92647771Y-47966391D01*
X92647773Y-47966392D01*
X92647774Y-47966393D01*
X92699307Y-47996146D01*
X92727695Y-48012536D01*
X92727696Y-48012536D01*
X92727698Y-48012537D01*
X92757301Y-48020469D01*
X92816836Y-48036421D01*
X92816837Y-48036422D01*
X92816839Y-48036422D01*
X92909129Y-48036422D01*
X92909129Y-48036421D01*
X92998271Y-48012536D01*
X93078195Y-47966391D01*
X93140733Y-47903853D01*
X103080500Y-47903853D01*
X103080500Y-47996146D01*
X103104384Y-48085284D01*
X103104386Y-48085289D01*
X103150528Y-48165208D01*
X103150529Y-48165209D01*
X103150531Y-48165212D01*
X103215788Y-48230469D01*
X103215790Y-48230470D01*
X103215791Y-48230471D01*
X103295710Y-48276613D01*
X103295712Y-48276614D01*
X103295713Y-48276614D01*
X103295715Y-48276615D01*
X103340284Y-48288557D01*
X103384853Y-48300499D01*
X103384854Y-48300500D01*
X103384856Y-48300500D01*
X103477144Y-48300500D01*
X103508413Y-48292121D01*
X103564564Y-48299512D01*
X103599044Y-48344444D01*
X103599044Y-48344446D01*
X103623384Y-48435284D01*
X103623386Y-48435289D01*
X103669528Y-48515208D01*
X103669529Y-48515209D01*
X103669531Y-48515212D01*
X103734788Y-48580469D01*
X103734790Y-48580470D01*
X103734791Y-48580471D01*
X103771555Y-48601697D01*
X103806034Y-48646631D01*
X103798641Y-48702783D01*
X103786881Y-48718109D01*
X103708538Y-48796452D01*
X103708536Y-48796453D01*
X103632387Y-48910419D01*
X103579940Y-49037038D01*
X103579937Y-49037049D01*
X103553200Y-49171470D01*
X103553200Y-49308529D01*
X103579937Y-49442950D01*
X103579940Y-49442961D01*
X103632387Y-49569580D01*
X103632389Y-49569583D01*
X103632390Y-49569585D01*
X103708537Y-49683547D01*
X103805453Y-49780463D01*
X103919415Y-49856610D01*
X103919420Y-49856612D01*
X103919419Y-49856612D01*
X104046038Y-49909059D01*
X104046043Y-49909061D01*
X104180470Y-49935800D01*
X104180471Y-49935800D01*
X104317529Y-49935800D01*
X104317530Y-49935800D01*
X104451957Y-49909061D01*
X104578585Y-49856610D01*
X104692547Y-49780463D01*
X104789463Y-49683547D01*
X104865610Y-49569585D01*
X104918061Y-49442957D01*
X104944800Y-49308530D01*
X104944800Y-49171470D01*
X104918061Y-49037043D01*
X104886044Y-48959746D01*
X104865612Y-48910419D01*
X104865611Y-48910417D01*
X104865610Y-48910415D01*
X104789463Y-48796453D01*
X104692547Y-48699537D01*
X104578585Y-48623390D01*
X104578581Y-48623388D01*
X104578579Y-48623387D01*
X104578580Y-48623387D01*
X104451961Y-48570940D01*
X104451950Y-48570937D01*
X104344682Y-48549600D01*
X104325708Y-48545826D01*
X104278616Y-48514361D01*
X104267567Y-48458813D01*
X104276061Y-48436246D01*
X104276125Y-48436134D01*
X104276614Y-48435288D01*
X104300499Y-48346146D01*
X104300500Y-48346146D01*
X104300500Y-48253854D01*
X104300499Y-48253853D01*
X104295391Y-48234791D01*
X104277905Y-48169531D01*
X104276615Y-48164715D01*
X104276613Y-48164710D01*
X104230471Y-48084791D01*
X104230470Y-48084790D01*
X104230469Y-48084788D01*
X104165212Y-48019531D01*
X104165209Y-48019529D01*
X104165208Y-48019528D01*
X104085289Y-47973386D01*
X104085284Y-47973384D01*
X103996146Y-47949500D01*
X103996144Y-47949500D01*
X103903856Y-47949500D01*
X103872585Y-47957879D01*
X103816433Y-47950486D01*
X103781954Y-47905553D01*
X103781500Y-47903858D01*
X103781500Y-47903856D01*
X103757614Y-47814712D01*
X103734541Y-47774750D01*
X103711471Y-47734791D01*
X103711470Y-47734790D01*
X103711469Y-47734788D01*
X103646212Y-47669531D01*
X103646209Y-47669529D01*
X103646208Y-47669528D01*
X103566289Y-47623386D01*
X103566284Y-47623384D01*
X103477146Y-47599500D01*
X103477144Y-47599500D01*
X103384856Y-47599500D01*
X103384854Y-47599500D01*
X103295715Y-47623384D01*
X103295710Y-47623386D01*
X103215791Y-47669528D01*
X103150528Y-47734791D01*
X103104386Y-47814710D01*
X103104384Y-47814715D01*
X103080500Y-47903853D01*
X93140733Y-47903853D01*
X93143452Y-47901134D01*
X93189597Y-47821210D01*
X93213482Y-47732068D01*
X93213483Y-47732068D01*
X93213483Y-47639776D01*
X93213482Y-47639775D01*
X93202958Y-47600500D01*
X93192725Y-47562307D01*
X93189598Y-47550637D01*
X93189596Y-47550632D01*
X93143454Y-47470713D01*
X93143453Y-47470712D01*
X93143452Y-47470710D01*
X93078195Y-47405453D01*
X93078192Y-47405451D01*
X93078191Y-47405450D01*
X93035620Y-47380871D01*
X100421175Y-47380871D01*
X100421175Y-47473164D01*
X100445059Y-47562302D01*
X100445061Y-47562307D01*
X100491203Y-47642226D01*
X100491204Y-47642227D01*
X100491206Y-47642230D01*
X100556463Y-47707487D01*
X100556465Y-47707488D01*
X100556466Y-47707489D01*
X100603754Y-47734791D01*
X100636387Y-47753632D01*
X100636388Y-47753632D01*
X100636390Y-47753633D01*
X100680959Y-47765575D01*
X100725528Y-47777517D01*
X100725529Y-47777518D01*
X100725531Y-47777518D01*
X100817821Y-47777518D01*
X100817821Y-47777517D01*
X100906963Y-47753632D01*
X100986887Y-47707487D01*
X101052144Y-47642230D01*
X101098289Y-47562306D01*
X101122174Y-47473164D01*
X101122175Y-47473164D01*
X101122175Y-47380872D01*
X101122174Y-47380871D01*
X101098290Y-47291733D01*
X101098287Y-47291725D01*
X101066117Y-47236007D01*
X101066116Y-47236006D01*
X101066116Y-47236005D01*
X101052147Y-47211811D01*
X101052147Y-47211810D01*
X101052145Y-47211808D01*
X101052144Y-47211806D01*
X101044191Y-47203853D01*
X104809500Y-47203853D01*
X104809500Y-47296146D01*
X104833384Y-47385284D01*
X104833386Y-47385289D01*
X104879528Y-47465208D01*
X104879529Y-47465209D01*
X104879531Y-47465212D01*
X104944788Y-47530469D01*
X104944790Y-47530470D01*
X104944791Y-47530471D01*
X104979714Y-47550634D01*
X105024712Y-47576614D01*
X105024713Y-47576614D01*
X105024715Y-47576615D01*
X105033176Y-47578882D01*
X105113853Y-47600499D01*
X105113854Y-47600500D01*
X105113856Y-47600500D01*
X105206146Y-47600500D01*
X105206146Y-47600499D01*
X105295288Y-47576614D01*
X105375212Y-47530469D01*
X105440469Y-47465212D01*
X105486614Y-47385288D01*
X105510499Y-47296146D01*
X105510500Y-47296146D01*
X105510500Y-47203854D01*
X105510499Y-47203853D01*
X105486615Y-47114715D01*
X105486613Y-47114710D01*
X105440471Y-47034791D01*
X105440470Y-47034790D01*
X105440469Y-47034788D01*
X105375212Y-46969531D01*
X105375209Y-46969529D01*
X105375208Y-46969528D01*
X105355447Y-46958119D01*
X105638836Y-46958119D01*
X105638836Y-47050412D01*
X105662720Y-47139550D01*
X105662722Y-47139555D01*
X105708864Y-47219474D01*
X105708865Y-47219475D01*
X105708867Y-47219478D01*
X105774124Y-47284735D01*
X105774126Y-47284736D01*
X105774127Y-47284737D01*
X105793888Y-47296146D01*
X105854048Y-47330880D01*
X105854049Y-47330880D01*
X105854051Y-47330881D01*
X105870999Y-47335422D01*
X105943189Y-47354765D01*
X105943190Y-47354766D01*
X105943192Y-47354766D01*
X106035482Y-47354766D01*
X106035482Y-47354765D01*
X106124624Y-47330880D01*
X106204548Y-47284735D01*
X106269805Y-47219478D01*
X106300562Y-47166206D01*
X106345494Y-47131729D01*
X106383800Y-47131729D01*
X106430774Y-47144315D01*
X106453853Y-47150499D01*
X106453854Y-47150500D01*
X106453856Y-47150500D01*
X106546146Y-47150500D01*
X106546146Y-47150499D01*
X106635288Y-47126614D01*
X106715212Y-47080469D01*
X106780469Y-47015212D01*
X106826614Y-46935288D01*
X106850499Y-46846146D01*
X106850500Y-46846146D01*
X106850500Y-46753854D01*
X106850499Y-46753853D01*
X106849463Y-46749988D01*
X106838557Y-46709284D01*
X106826615Y-46664715D01*
X106826613Y-46664710D01*
X106780471Y-46584791D01*
X106780470Y-46584790D01*
X106780469Y-46584788D01*
X106715212Y-46519531D01*
X106715209Y-46519529D01*
X106715208Y-46519528D01*
X106635289Y-46473386D01*
X106635284Y-46473384D01*
X106546146Y-46449500D01*
X106546144Y-46449500D01*
X106453856Y-46449500D01*
X106453854Y-46449500D01*
X106364715Y-46473384D01*
X106364710Y-46473386D01*
X106284791Y-46519528D01*
X106219527Y-46584792D01*
X106188773Y-46638059D01*
X106143840Y-46672537D01*
X106105536Y-46672537D01*
X106035480Y-46653766D01*
X105943192Y-46653766D01*
X105943190Y-46653766D01*
X105854051Y-46677650D01*
X105854046Y-46677652D01*
X105774127Y-46723794D01*
X105708864Y-46789057D01*
X105662722Y-46868976D01*
X105662720Y-46868981D01*
X105638836Y-46958119D01*
X105355447Y-46958119D01*
X105295289Y-46923386D01*
X105295284Y-46923384D01*
X105206146Y-46899500D01*
X105206144Y-46899500D01*
X105113856Y-46899500D01*
X105113854Y-46899500D01*
X105024715Y-46923384D01*
X105024710Y-46923386D01*
X104944791Y-46969528D01*
X104879528Y-47034791D01*
X104833386Y-47114710D01*
X104833384Y-47114715D01*
X104809500Y-47203853D01*
X101044191Y-47203853D01*
X100986887Y-47146549D01*
X100986884Y-47146547D01*
X100986883Y-47146546D01*
X100906964Y-47100404D01*
X100906959Y-47100402D01*
X100817821Y-47076518D01*
X100817819Y-47076518D01*
X100725531Y-47076518D01*
X100725529Y-47076518D01*
X100636390Y-47100402D01*
X100636385Y-47100404D01*
X100556466Y-47146546D01*
X100491203Y-47211809D01*
X100445061Y-47291728D01*
X100445059Y-47291733D01*
X100421175Y-47380871D01*
X93035620Y-47380871D01*
X92998272Y-47359308D01*
X92998267Y-47359306D01*
X92909129Y-47335422D01*
X92909127Y-47335422D01*
X92816839Y-47335422D01*
X92816837Y-47335422D01*
X92727698Y-47359306D01*
X92727693Y-47359308D01*
X92647774Y-47405450D01*
X92582512Y-47470712D01*
X92539966Y-47544404D01*
X92495032Y-47578882D01*
X92438879Y-47571489D01*
X92411794Y-47544403D01*
X92400471Y-47524791D01*
X92400470Y-47524790D01*
X92400469Y-47524788D01*
X92335212Y-47459531D01*
X92335209Y-47459529D01*
X92335208Y-47459528D01*
X92255289Y-47413386D01*
X92255284Y-47413384D01*
X92166146Y-47389500D01*
X92166144Y-47389500D01*
X92073856Y-47389500D01*
X92073854Y-47389500D01*
X91984715Y-47413384D01*
X91984710Y-47413386D01*
X91904791Y-47459528D01*
X91839528Y-47524791D01*
X91793386Y-47604710D01*
X91793384Y-47604715D01*
X91769500Y-47693853D01*
X90200500Y-47693853D01*
X90200500Y-46383855D01*
X92609498Y-46383855D01*
X92609498Y-46476148D01*
X92633382Y-46565286D01*
X92633384Y-46565291D01*
X92679526Y-46645210D01*
X92679527Y-46645211D01*
X92679529Y-46645214D01*
X92744786Y-46710471D01*
X92744788Y-46710472D01*
X92744789Y-46710473D01*
X92824708Y-46756615D01*
X92824710Y-46756616D01*
X92824711Y-46756616D01*
X92824713Y-46756617D01*
X92869282Y-46768559D01*
X92913851Y-46780501D01*
X92913852Y-46780502D01*
X92913854Y-46780502D01*
X93006144Y-46780502D01*
X93006144Y-46780501D01*
X93095286Y-46756616D01*
X93175210Y-46710471D01*
X93207972Y-46677708D01*
X93260295Y-46656035D01*
X93312621Y-46677708D01*
X93334296Y-46730034D01*
X93331776Y-46749181D01*
X93331560Y-46749985D01*
X93331560Y-46842281D01*
X93355444Y-46931419D01*
X93355446Y-46931424D01*
X93401588Y-47011343D01*
X93401589Y-47011344D01*
X93401591Y-47011347D01*
X93466848Y-47076604D01*
X93466850Y-47076605D01*
X93466851Y-47076606D01*
X93532857Y-47114715D01*
X93546772Y-47122749D01*
X93546773Y-47122749D01*
X93546775Y-47122750D01*
X93561196Y-47126614D01*
X93635913Y-47146634D01*
X93635914Y-47146635D01*
X93635916Y-47146635D01*
X93728206Y-47146635D01*
X93728206Y-47146634D01*
X93817348Y-47122749D01*
X93897272Y-47076604D01*
X93962529Y-47011347D01*
X94008674Y-46931423D01*
X94032559Y-46842281D01*
X94032560Y-46842281D01*
X94032560Y-46749989D01*
X94032559Y-46749988D01*
X94027212Y-46730034D01*
X94019245Y-46700299D01*
X94008675Y-46660850D01*
X94008673Y-46660845D01*
X93962531Y-46580926D01*
X93962530Y-46580925D01*
X93962529Y-46580923D01*
X93897272Y-46515666D01*
X93843117Y-46484399D01*
X93808639Y-46439465D01*
X93811213Y-46401592D01*
X93808737Y-46400929D01*
X93833877Y-46307102D01*
X93833878Y-46307102D01*
X93833878Y-46269598D01*
X95223534Y-46269598D01*
X95223534Y-46361891D01*
X95247418Y-46451029D01*
X95247420Y-46451034D01*
X95293562Y-46530953D01*
X95293563Y-46530954D01*
X95293565Y-46530957D01*
X95358822Y-46596214D01*
X95358824Y-46596215D01*
X95358825Y-46596216D01*
X95411475Y-46626614D01*
X95438746Y-46642359D01*
X95438747Y-46642359D01*
X95438749Y-46642360D01*
X95481318Y-46653766D01*
X95527887Y-46666244D01*
X95527888Y-46666245D01*
X95527890Y-46666245D01*
X95620180Y-46666245D01*
X95620180Y-46666244D01*
X95709322Y-46642359D01*
X95789246Y-46596214D01*
X95854503Y-46530957D01*
X95900648Y-46451033D01*
X95908518Y-46421660D01*
X95942995Y-46376729D01*
X95999148Y-46369335D01*
X96044081Y-46403813D01*
X96044082Y-46403814D01*
X96079528Y-46465208D01*
X96079529Y-46465209D01*
X96079531Y-46465212D01*
X96144788Y-46530469D01*
X96144790Y-46530470D01*
X96144791Y-46530471D01*
X96205100Y-46565291D01*
X96224712Y-46576614D01*
X96224713Y-46576614D01*
X96224715Y-46576615D01*
X96255210Y-46584786D01*
X96313853Y-46600499D01*
X96313854Y-46600500D01*
X96313856Y-46600500D01*
X96406146Y-46600500D01*
X96406146Y-46600499D01*
X96495288Y-46576614D01*
X96575212Y-46530469D01*
X96640469Y-46465212D01*
X96686614Y-46385288D01*
X96710500Y-46296144D01*
X96710500Y-46203856D01*
X96849500Y-46203856D01*
X96849500Y-46296144D01*
X96854000Y-46312938D01*
X96854000Y-46312940D01*
X96873384Y-46385284D01*
X96873386Y-46385289D01*
X96919529Y-46465209D01*
X96919531Y-46465213D01*
X96926995Y-46472677D01*
X96948667Y-46525003D01*
X96926995Y-46577323D01*
X96919531Y-46584786D01*
X96919529Y-46584790D01*
X96873386Y-46664710D01*
X96873384Y-46664715D01*
X96849500Y-46753853D01*
X96849500Y-46846146D01*
X96873384Y-46935284D01*
X96873386Y-46935289D01*
X96919528Y-47015208D01*
X96919529Y-47015209D01*
X96919531Y-47015212D01*
X96984788Y-47080469D01*
X96984790Y-47080470D01*
X96984791Y-47080471D01*
X97058019Y-47122750D01*
X97064712Y-47126614D01*
X97064713Y-47126614D01*
X97064715Y-47126615D01*
X97083801Y-47131729D01*
X97153853Y-47150499D01*
X97153854Y-47150500D01*
X97153856Y-47150500D01*
X97246146Y-47150500D01*
X97246146Y-47150499D01*
X97335288Y-47126614D01*
X97415212Y-47080469D01*
X97480469Y-47015212D01*
X97526614Y-46935288D01*
X97550499Y-46846146D01*
X97550500Y-46846146D01*
X97550500Y-46753854D01*
X97550499Y-46753853D01*
X97549463Y-46749988D01*
X97538557Y-46709284D01*
X97526615Y-46664715D01*
X97526613Y-46664710D01*
X97480471Y-46584791D01*
X97480470Y-46584790D01*
X97480469Y-46584788D01*
X97473005Y-46577324D01*
X97451332Y-46525000D01*
X97473005Y-46472675D01*
X97480469Y-46465212D01*
X97526614Y-46385288D01*
X97550499Y-46296146D01*
X97550500Y-46296146D01*
X97550500Y-46203854D01*
X97550499Y-46203853D01*
X97526615Y-46114715D01*
X97526613Y-46114710D01*
X97480471Y-46034791D01*
X97480470Y-46034790D01*
X97480469Y-46034788D01*
X97415212Y-45969531D01*
X97415209Y-45969529D01*
X97415208Y-45969528D01*
X97335289Y-45923386D01*
X97335284Y-45923384D01*
X97246146Y-45899500D01*
X97246144Y-45899500D01*
X97153856Y-45899500D01*
X97153854Y-45899500D01*
X97064715Y-45923384D01*
X97064710Y-45923386D01*
X96984791Y-45969528D01*
X96919528Y-46034791D01*
X96873386Y-46114710D01*
X96873384Y-46114715D01*
X96854000Y-46187058D01*
X96854000Y-46187061D01*
X96849500Y-46203856D01*
X96710500Y-46203856D01*
X96706000Y-46187061D01*
X96706000Y-46187058D01*
X96686615Y-46114715D01*
X96686613Y-46114710D01*
X96640471Y-46034791D01*
X96640470Y-46034790D01*
X96640469Y-46034788D01*
X96575212Y-45969531D01*
X96575209Y-45969529D01*
X96575208Y-45969528D01*
X96495289Y-45923386D01*
X96495284Y-45923384D01*
X96406146Y-45899500D01*
X96406144Y-45899500D01*
X96313856Y-45899500D01*
X96313854Y-45899500D01*
X96224715Y-45923384D01*
X96224710Y-45923386D01*
X96144791Y-45969528D01*
X96079528Y-46034791D01*
X96033386Y-46114710D01*
X96033385Y-46114714D01*
X96025515Y-46144084D01*
X95991036Y-46189017D01*
X95934883Y-46196408D01*
X95889951Y-46161930D01*
X95854505Y-46100536D01*
X95854504Y-46100535D01*
X95854503Y-46100533D01*
X95789246Y-46035276D01*
X95789243Y-46035274D01*
X95789242Y-46035273D01*
X95709323Y-45989131D01*
X95709318Y-45989129D01*
X95620180Y-45965245D01*
X95620178Y-45965245D01*
X95527890Y-45965245D01*
X95527888Y-45965245D01*
X95438749Y-45989129D01*
X95438744Y-45989131D01*
X95358825Y-46035273D01*
X95293562Y-46100536D01*
X95247420Y-46180455D01*
X95247418Y-46180460D01*
X95223534Y-46269598D01*
X93833878Y-46269598D01*
X93833878Y-46214810D01*
X93833877Y-46214809D01*
X93830941Y-46203853D01*
X93814927Y-46144084D01*
X93809993Y-46125671D01*
X93809991Y-46125666D01*
X93763849Y-46045747D01*
X93763848Y-46045746D01*
X93763847Y-46045744D01*
X93698590Y-45980487D01*
X93698587Y-45980485D01*
X93698586Y-45980484D01*
X93618667Y-45934342D01*
X93618662Y-45934340D01*
X93529524Y-45910456D01*
X93529522Y-45910456D01*
X93437234Y-45910456D01*
X93437232Y-45910456D01*
X93348093Y-45934340D01*
X93348088Y-45934342D01*
X93268169Y-45980484D01*
X93202905Y-46045748D01*
X93202905Y-46045749D01*
X93187727Y-46072037D01*
X93142793Y-46106515D01*
X93100216Y-46103725D01*
X93099971Y-46104643D01*
X93095357Y-46103406D01*
X93095329Y-46103405D01*
X93095289Y-46103388D01*
X93006144Y-46079502D01*
X93006142Y-46079502D01*
X92913854Y-46079502D01*
X92913852Y-46079502D01*
X92824713Y-46103386D01*
X92824708Y-46103388D01*
X92744789Y-46149530D01*
X92679526Y-46214793D01*
X92633384Y-46294712D01*
X92633382Y-46294717D01*
X92609498Y-46383855D01*
X90200500Y-46383855D01*
X90200500Y-46155850D01*
X90222174Y-46103524D01*
X90274500Y-46081850D01*
X90293653Y-46084372D01*
X90330187Y-46094160D01*
X90353853Y-46100502D01*
X90353854Y-46100503D01*
X90353856Y-46100503D01*
X90446146Y-46100503D01*
X90446146Y-46100502D01*
X90535288Y-46076617D01*
X90615212Y-46030472D01*
X90680469Y-45965215D01*
X90726614Y-45885291D01*
X90750499Y-45796149D01*
X90750500Y-45796149D01*
X90750500Y-45703857D01*
X90750499Y-45703856D01*
X90741561Y-45670500D01*
X90726614Y-45614715D01*
X90705248Y-45577708D01*
X90680471Y-45534794D01*
X90680470Y-45534793D01*
X90680469Y-45534791D01*
X90615212Y-45469534D01*
X90615209Y-45469532D01*
X90615208Y-45469531D01*
X90535289Y-45423389D01*
X90535284Y-45423387D01*
X90446146Y-45399503D01*
X90446144Y-45399503D01*
X90353856Y-45399503D01*
X90293652Y-45415634D01*
X90283737Y-45414328D01*
X90274500Y-45418155D01*
X90256653Y-45410762D01*
X90237499Y-45408241D01*
X90231411Y-45400307D01*
X90222174Y-45396481D01*
X90214781Y-45378634D01*
X90203021Y-45363307D01*
X90200500Y-45344155D01*
X90200500Y-45273853D01*
X94589500Y-45273853D01*
X94589500Y-45366146D01*
X94613384Y-45455284D01*
X94613386Y-45455289D01*
X94659528Y-45535208D01*
X94659529Y-45535209D01*
X94659531Y-45535212D01*
X94724788Y-45600469D01*
X94724790Y-45600470D01*
X94724791Y-45600471D01*
X94798399Y-45642969D01*
X94804712Y-45646614D01*
X94804713Y-45646614D01*
X94804715Y-45646615D01*
X94849284Y-45658557D01*
X94893853Y-45670499D01*
X94893854Y-45670500D01*
X94893856Y-45670500D01*
X94986146Y-45670500D01*
X94986146Y-45670499D01*
X95075288Y-45646614D01*
X95155212Y-45600469D01*
X95220469Y-45535212D01*
X95266614Y-45455288D01*
X95290499Y-45366146D01*
X95290500Y-45366146D01*
X95290500Y-45316353D01*
X96737000Y-45316353D01*
X96737000Y-45408646D01*
X96760884Y-45497784D01*
X96760886Y-45497789D01*
X96807028Y-45577708D01*
X96807029Y-45577709D01*
X96807031Y-45577712D01*
X96872288Y-45642969D01*
X96872290Y-45642970D01*
X96872291Y-45642971D01*
X96919970Y-45670499D01*
X96952212Y-45689114D01*
X96952213Y-45689114D01*
X96952215Y-45689115D01*
X96996784Y-45701057D01*
X97041353Y-45712999D01*
X97041354Y-45713000D01*
X97041356Y-45713000D01*
X97133646Y-45713000D01*
X97133646Y-45712999D01*
X97222788Y-45689114D01*
X97302712Y-45642969D01*
X97367969Y-45577712D01*
X97381744Y-45553853D01*
X102762000Y-45553853D01*
X102762000Y-45646146D01*
X102785884Y-45735284D01*
X102785886Y-45735289D01*
X102832028Y-45815208D01*
X102832029Y-45815209D01*
X102832031Y-45815212D01*
X102897288Y-45880469D01*
X102897290Y-45880470D01*
X102897291Y-45880471D01*
X102915158Y-45890786D01*
X102957404Y-45915178D01*
X102991882Y-45960110D01*
X102984490Y-46016263D01*
X102972730Y-46031588D01*
X102919531Y-46084787D01*
X102919529Y-46084790D01*
X102873386Y-46164710D01*
X102873384Y-46164715D01*
X102849500Y-46253853D01*
X102849500Y-46346146D01*
X102873384Y-46435284D01*
X102873386Y-46435289D01*
X102919528Y-46515208D01*
X102919529Y-46515209D01*
X102919531Y-46515212D01*
X102984788Y-46580469D01*
X102984790Y-46580470D01*
X102984791Y-46580471D01*
X103019480Y-46600499D01*
X103064712Y-46626614D01*
X103064713Y-46626614D01*
X103064715Y-46626615D01*
X103107425Y-46638059D01*
X103153853Y-46650499D01*
X103153854Y-46650500D01*
X103153856Y-46650500D01*
X103246146Y-46650500D01*
X103246146Y-46650499D01*
X103335288Y-46626614D01*
X103415212Y-46580469D01*
X103480469Y-46515212D01*
X103526614Y-46435288D01*
X103550499Y-46346146D01*
X103550500Y-46346146D01*
X103550500Y-46253854D01*
X103550499Y-46253853D01*
X103526615Y-46164715D01*
X103526613Y-46164710D01*
X103480471Y-46084791D01*
X103480470Y-46084790D01*
X103480469Y-46084788D01*
X103415212Y-46019531D01*
X103415209Y-46019529D01*
X103415208Y-46019528D01*
X103369154Y-45992939D01*
X103355094Y-45984821D01*
X103320616Y-45939889D01*
X103328009Y-45883736D01*
X103339766Y-45868414D01*
X103392969Y-45815212D01*
X103439114Y-45735288D01*
X103462999Y-45646146D01*
X103463000Y-45646146D01*
X103463000Y-45553854D01*
X103462999Y-45553853D01*
X103457891Y-45534791D01*
X103451057Y-45509284D01*
X103439115Y-45464715D01*
X103439113Y-45464710D01*
X103392971Y-45384791D01*
X103392970Y-45384790D01*
X103392969Y-45384788D01*
X103327712Y-45319531D01*
X103327709Y-45319529D01*
X103327708Y-45319528D01*
X103247789Y-45273386D01*
X103247784Y-45273384D01*
X103158646Y-45249500D01*
X103158644Y-45249500D01*
X103066356Y-45249500D01*
X103066354Y-45249500D01*
X102977215Y-45273384D01*
X102977210Y-45273386D01*
X102897291Y-45319528D01*
X102832028Y-45384791D01*
X102785886Y-45464710D01*
X102785884Y-45464715D01*
X102762000Y-45553853D01*
X97381744Y-45553853D01*
X97414114Y-45497788D01*
X97437999Y-45408646D01*
X97438000Y-45408646D01*
X97438000Y-45316354D01*
X97437999Y-45316353D01*
X97414115Y-45227215D01*
X97414113Y-45227210D01*
X97367971Y-45147291D01*
X97367970Y-45147290D01*
X97367969Y-45147288D01*
X97302712Y-45082031D01*
X97302709Y-45082029D01*
X97302708Y-45082028D01*
X97222789Y-45035886D01*
X97222784Y-45035884D01*
X97133646Y-45012000D01*
X97133644Y-45012000D01*
X97041356Y-45012000D01*
X97041354Y-45012000D01*
X96952215Y-45035884D01*
X96952210Y-45035886D01*
X96872291Y-45082028D01*
X96807028Y-45147291D01*
X96760886Y-45227210D01*
X96760884Y-45227215D01*
X96737000Y-45316353D01*
X95290500Y-45316353D01*
X95290500Y-45273854D01*
X95290499Y-45273853D01*
X95290373Y-45273384D01*
X95266614Y-45184712D01*
X95220469Y-45104788D01*
X95155212Y-45039531D01*
X95155209Y-45039529D01*
X95155208Y-45039528D01*
X95075289Y-44993386D01*
X95075284Y-44993384D01*
X94986146Y-44969500D01*
X94986144Y-44969500D01*
X94893856Y-44969500D01*
X94893854Y-44969500D01*
X94804715Y-44993384D01*
X94804710Y-44993386D01*
X94724791Y-45039528D01*
X94659528Y-45104791D01*
X94613386Y-45184710D01*
X94613384Y-45184715D01*
X94589500Y-45273853D01*
X90200500Y-45273853D01*
X90200500Y-44253853D01*
X96849500Y-44253853D01*
X96849500Y-44346146D01*
X96873384Y-44435284D01*
X96873386Y-44435289D01*
X96919528Y-44515208D01*
X96919529Y-44515209D01*
X96919531Y-44515212D01*
X96984788Y-44580469D01*
X96984790Y-44580470D01*
X96984791Y-44580471D01*
X97064710Y-44626613D01*
X97064712Y-44626614D01*
X97064713Y-44626614D01*
X97064715Y-44626615D01*
X97109284Y-44638557D01*
X97153853Y-44650499D01*
X97153854Y-44650500D01*
X97153856Y-44650500D01*
X97246146Y-44650500D01*
X97246146Y-44650499D01*
X97335288Y-44626614D01*
X97374710Y-44603853D01*
X98049500Y-44603853D01*
X98049500Y-44696146D01*
X98073384Y-44785284D01*
X98073386Y-44785289D01*
X98119528Y-44865208D01*
X98119529Y-44865209D01*
X98119531Y-44865212D01*
X98184788Y-44930469D01*
X98264712Y-44976614D01*
X98264713Y-44976614D01*
X98264715Y-44976615D01*
X98309284Y-44988557D01*
X98353853Y-45000499D01*
X98353854Y-45000500D01*
X98353856Y-45000500D01*
X98446146Y-45000500D01*
X98446146Y-45000499D01*
X98535288Y-44976614D01*
X98615212Y-44930469D01*
X98680469Y-44865212D01*
X98726614Y-44785288D01*
X98750499Y-44696146D01*
X98750500Y-44696146D01*
X98750500Y-44603854D01*
X98750499Y-44603853D01*
X98726615Y-44514715D01*
X98726613Y-44514710D01*
X98680471Y-44434791D01*
X98680470Y-44434790D01*
X98680469Y-44434788D01*
X98615212Y-44369531D01*
X98615209Y-44369529D01*
X98615208Y-44369528D01*
X98535289Y-44323386D01*
X98535284Y-44323384D01*
X98446146Y-44299500D01*
X98446144Y-44299500D01*
X98353856Y-44299500D01*
X98353854Y-44299500D01*
X98264715Y-44323384D01*
X98264710Y-44323386D01*
X98184791Y-44369528D01*
X98119528Y-44434791D01*
X98073386Y-44514710D01*
X98073384Y-44514715D01*
X98049500Y-44603853D01*
X97374710Y-44603853D01*
X97415212Y-44580469D01*
X97480469Y-44515212D01*
X97526614Y-44435288D01*
X97550499Y-44346146D01*
X97550500Y-44346146D01*
X97550500Y-44253854D01*
X97550499Y-44253853D01*
X97526615Y-44164715D01*
X97526613Y-44164710D01*
X97480471Y-44084791D01*
X97480470Y-44084790D01*
X97480469Y-44084788D01*
X97415212Y-44019531D01*
X97415209Y-44019529D01*
X97415208Y-44019528D01*
X97404060Y-44013092D01*
X97335289Y-43973386D01*
X97335284Y-43973384D01*
X97262392Y-43953853D01*
X101949500Y-43953853D01*
X101949500Y-44046146D01*
X101973384Y-44135284D01*
X101973386Y-44135289D01*
X102019528Y-44215208D01*
X102019529Y-44215209D01*
X102019531Y-44215212D01*
X102084788Y-44280469D01*
X102084790Y-44280470D01*
X102084791Y-44280471D01*
X102159121Y-44323386D01*
X102164712Y-44326614D01*
X102164713Y-44326614D01*
X102164715Y-44326615D01*
X102209284Y-44338557D01*
X102253853Y-44350499D01*
X102253854Y-44350500D01*
X102253856Y-44350500D01*
X102346146Y-44350500D01*
X102346146Y-44350499D01*
X102435288Y-44326614D01*
X102515212Y-44280469D01*
X102580469Y-44215212D01*
X102626614Y-44135288D01*
X102650499Y-44046146D01*
X102650500Y-44046146D01*
X102650500Y-43953854D01*
X102650499Y-43953853D01*
X104749500Y-43953853D01*
X104749500Y-44046146D01*
X104773384Y-44135284D01*
X104773386Y-44135289D01*
X104819528Y-44215208D01*
X104819529Y-44215209D01*
X104819531Y-44215212D01*
X104884788Y-44280469D01*
X104884790Y-44280470D01*
X104884791Y-44280471D01*
X104959121Y-44323386D01*
X104964712Y-44326614D01*
X104964713Y-44326614D01*
X104964715Y-44326615D01*
X105009284Y-44338557D01*
X105053853Y-44350499D01*
X105053854Y-44350500D01*
X105053856Y-44350500D01*
X105146146Y-44350500D01*
X105146146Y-44350499D01*
X105235288Y-44326614D01*
X105315212Y-44280469D01*
X105380469Y-44215212D01*
X105426614Y-44135288D01*
X105450499Y-44046146D01*
X105450500Y-44046146D01*
X105450500Y-43953854D01*
X105450499Y-43953853D01*
X105949500Y-43953853D01*
X105949500Y-44046146D01*
X105973384Y-44135284D01*
X105973386Y-44135289D01*
X106019528Y-44215208D01*
X106019529Y-44215209D01*
X106019531Y-44215212D01*
X106084788Y-44280469D01*
X106084790Y-44280470D01*
X106084791Y-44280471D01*
X106159121Y-44323386D01*
X106164712Y-44326614D01*
X106164713Y-44326614D01*
X106164715Y-44326615D01*
X106209284Y-44338557D01*
X106253853Y-44350499D01*
X106253854Y-44350500D01*
X106253856Y-44350500D01*
X106346146Y-44350500D01*
X106346146Y-44350499D01*
X106435288Y-44326614D01*
X106515212Y-44280469D01*
X106580469Y-44215212D01*
X106626614Y-44135288D01*
X106650499Y-44046146D01*
X106650500Y-44046146D01*
X106650500Y-43953854D01*
X106650499Y-43953853D01*
X106626615Y-43864715D01*
X106626613Y-43864710D01*
X106580471Y-43784791D01*
X106580470Y-43784790D01*
X106580469Y-43784788D01*
X106515212Y-43719531D01*
X106515209Y-43719529D01*
X106515208Y-43719528D01*
X106435289Y-43673386D01*
X106435284Y-43673384D01*
X106346146Y-43649500D01*
X106346144Y-43649500D01*
X106253856Y-43649500D01*
X106253854Y-43649500D01*
X106164715Y-43673384D01*
X106164710Y-43673386D01*
X106084791Y-43719528D01*
X106019528Y-43784791D01*
X105973386Y-43864710D01*
X105973384Y-43864715D01*
X105949500Y-43953853D01*
X105450499Y-43953853D01*
X105426615Y-43864715D01*
X105426613Y-43864710D01*
X105380471Y-43784791D01*
X105380470Y-43784790D01*
X105380469Y-43784788D01*
X105315212Y-43719531D01*
X105315209Y-43719529D01*
X105315208Y-43719528D01*
X105235289Y-43673386D01*
X105235284Y-43673384D01*
X105146146Y-43649500D01*
X105146144Y-43649500D01*
X105053856Y-43649500D01*
X105053854Y-43649500D01*
X104964715Y-43673384D01*
X104964710Y-43673386D01*
X104884791Y-43719528D01*
X104819528Y-43784791D01*
X104773386Y-43864710D01*
X104773384Y-43864715D01*
X104749500Y-43953853D01*
X102650499Y-43953853D01*
X102626615Y-43864715D01*
X102626613Y-43864710D01*
X102580471Y-43784791D01*
X102580470Y-43784790D01*
X102580469Y-43784788D01*
X102515212Y-43719531D01*
X102515209Y-43719529D01*
X102515208Y-43719528D01*
X102435289Y-43673386D01*
X102435284Y-43673384D01*
X102346146Y-43649500D01*
X102346144Y-43649500D01*
X102253856Y-43649500D01*
X102253854Y-43649500D01*
X102164715Y-43673384D01*
X102164710Y-43673386D01*
X102084791Y-43719528D01*
X102019528Y-43784791D01*
X101973386Y-43864710D01*
X101973384Y-43864715D01*
X101949500Y-43953853D01*
X97262392Y-43953853D01*
X97246146Y-43949500D01*
X97246144Y-43949500D01*
X97153856Y-43949500D01*
X97153854Y-43949500D01*
X97064715Y-43973384D01*
X97064710Y-43973386D01*
X96984791Y-44019528D01*
X96919528Y-44084791D01*
X96873386Y-44164710D01*
X96873384Y-44164715D01*
X96849500Y-44253853D01*
X90200500Y-44253853D01*
X90200500Y-42980790D01*
X90222174Y-42928464D01*
X90274500Y-42906790D01*
X90326826Y-42928464D01*
X90345978Y-42961636D01*
X90351110Y-42980790D01*
X90354286Y-42992643D01*
X90400428Y-43072562D01*
X90400429Y-43072563D01*
X90400431Y-43072566D01*
X90465688Y-43137823D01*
X90465690Y-43137824D01*
X90465691Y-43137825D01*
X90539004Y-43180153D01*
X90545612Y-43183968D01*
X90545613Y-43183968D01*
X90545615Y-43183969D01*
X90590184Y-43195911D01*
X90634753Y-43207853D01*
X90634754Y-43207854D01*
X90634756Y-43207854D01*
X90727046Y-43207854D01*
X90727046Y-43207853D01*
X90816188Y-43183968D01*
X90896112Y-43137823D01*
X90961369Y-43072566D01*
X91007514Y-42992642D01*
X91012548Y-42973854D01*
X91012548Y-42973853D01*
X92539500Y-42973853D01*
X92539500Y-43066146D01*
X92563384Y-43155284D01*
X92563386Y-43155289D01*
X92609528Y-43235208D01*
X92609529Y-43235209D01*
X92609531Y-43235212D01*
X92674788Y-43300469D01*
X92674790Y-43300470D01*
X92674791Y-43300471D01*
X92723766Y-43328747D01*
X92754712Y-43346614D01*
X92754713Y-43346614D01*
X92754715Y-43346615D01*
X92799284Y-43358557D01*
X92843853Y-43370499D01*
X92843854Y-43370500D01*
X92843856Y-43370500D01*
X92936146Y-43370500D01*
X92936146Y-43370499D01*
X93025288Y-43346614D01*
X93105212Y-43300469D01*
X93170469Y-43235212D01*
X93216614Y-43155288D01*
X93240499Y-43066146D01*
X93240500Y-43066146D01*
X93240500Y-43058939D01*
X97791871Y-43058939D01*
X97791871Y-43151232D01*
X97815755Y-43240370D01*
X97815757Y-43240375D01*
X97861899Y-43320294D01*
X97861900Y-43320295D01*
X97861902Y-43320298D01*
X97927159Y-43385555D01*
X98007083Y-43431700D01*
X98007084Y-43431700D01*
X98007086Y-43431701D01*
X98051655Y-43443643D01*
X98096224Y-43455585D01*
X98096225Y-43455586D01*
X98096227Y-43455586D01*
X98188517Y-43455586D01*
X98188517Y-43455585D01*
X98277659Y-43431700D01*
X98357583Y-43385555D01*
X98422840Y-43320298D01*
X98468985Y-43240374D01*
X98477699Y-43207853D01*
X98478371Y-43205347D01*
X98512849Y-43160414D01*
X98549849Y-43150500D01*
X98646146Y-43150500D01*
X98646146Y-43150499D01*
X98735288Y-43126614D01*
X98815212Y-43080469D01*
X98880469Y-43015212D01*
X98926614Y-42935288D01*
X98950499Y-42846146D01*
X98950500Y-42846146D01*
X98950500Y-42753854D01*
X98950499Y-42753853D01*
X104849500Y-42753853D01*
X104849500Y-42846146D01*
X104873384Y-42935284D01*
X104873386Y-42935289D01*
X104919528Y-43015208D01*
X104919529Y-43015209D01*
X104919531Y-43015212D01*
X104984788Y-43080469D01*
X104984790Y-43080470D01*
X104984791Y-43080471D01*
X105052920Y-43119806D01*
X105064712Y-43126614D01*
X105064713Y-43126614D01*
X105064715Y-43126615D01*
X105092870Y-43134159D01*
X105153853Y-43150499D01*
X105153854Y-43150500D01*
X105153856Y-43150500D01*
X105246145Y-43150500D01*
X105262110Y-43146221D01*
X105277358Y-43142136D01*
X105333511Y-43149528D01*
X105360369Y-43180153D01*
X105361737Y-43179364D01*
X105410304Y-43263484D01*
X105410305Y-43263485D01*
X105410307Y-43263488D01*
X105475564Y-43328745D01*
X105475566Y-43328746D01*
X105475567Y-43328747D01*
X105547884Y-43370500D01*
X105555488Y-43374890D01*
X105555489Y-43374890D01*
X105555491Y-43374891D01*
X105595290Y-43385555D01*
X105644629Y-43398775D01*
X105644630Y-43398776D01*
X105644632Y-43398776D01*
X105736922Y-43398776D01*
X105736922Y-43398775D01*
X105826064Y-43374890D01*
X105905988Y-43328745D01*
X105971245Y-43263488D01*
X106017390Y-43183564D01*
X106041275Y-43094422D01*
X106041276Y-43094422D01*
X106041276Y-43002130D01*
X106041275Y-43002129D01*
X106017391Y-42912991D01*
X106017389Y-42912986D01*
X105971247Y-42833067D01*
X105971246Y-42833066D01*
X105971245Y-42833064D01*
X105905988Y-42767807D01*
X105905985Y-42767805D01*
X105905984Y-42767804D01*
X105826065Y-42721662D01*
X105826060Y-42721660D01*
X105736922Y-42697776D01*
X105736920Y-42697776D01*
X105644632Y-42697776D01*
X105644631Y-42697776D01*
X105613414Y-42706140D01*
X105557262Y-42698746D01*
X105530410Y-42668120D01*
X105529039Y-42668912D01*
X105480471Y-42584791D01*
X105480470Y-42584790D01*
X105480469Y-42584788D01*
X105415212Y-42519531D01*
X105415209Y-42519529D01*
X105415208Y-42519528D01*
X105335289Y-42473386D01*
X105335284Y-42473384D01*
X105246146Y-42449500D01*
X105246144Y-42449500D01*
X105153856Y-42449500D01*
X105153854Y-42449500D01*
X105064715Y-42473384D01*
X105064710Y-42473386D01*
X104984791Y-42519528D01*
X104919528Y-42584791D01*
X104873386Y-42664710D01*
X104873384Y-42664715D01*
X104849500Y-42753853D01*
X98950499Y-42753853D01*
X98926615Y-42664715D01*
X98926613Y-42664710D01*
X98880471Y-42584791D01*
X98880470Y-42584790D01*
X98880469Y-42584788D01*
X98815212Y-42519531D01*
X98815209Y-42519529D01*
X98815208Y-42519528D01*
X98795744Y-42508290D01*
X98761267Y-42463356D01*
X98767770Y-42413965D01*
X98765929Y-42413203D01*
X98767786Y-42408718D01*
X98767787Y-42408717D01*
X98791672Y-42319575D01*
X98791673Y-42319575D01*
X98791673Y-42227283D01*
X98791672Y-42227282D01*
X98767788Y-42138144D01*
X98767786Y-42138139D01*
X98721644Y-42058220D01*
X98721643Y-42058219D01*
X98721642Y-42058217D01*
X98656385Y-41992960D01*
X98656382Y-41992958D01*
X98656381Y-41992957D01*
X98576462Y-41946815D01*
X98576457Y-41946813D01*
X98487319Y-41922929D01*
X98487317Y-41922929D01*
X98395029Y-41922929D01*
X98395027Y-41922929D01*
X98305888Y-41946813D01*
X98305883Y-41946815D01*
X98225964Y-41992957D01*
X98160701Y-42058220D01*
X98114559Y-42138139D01*
X98114557Y-42138144D01*
X98090673Y-42227282D01*
X98090673Y-42319575D01*
X98114557Y-42408713D01*
X98114559Y-42408718D01*
X98160701Y-42488637D01*
X98160702Y-42488638D01*
X98160704Y-42488641D01*
X98225961Y-42553898D01*
X98225963Y-42553899D01*
X98225964Y-42553900D01*
X98245427Y-42565137D01*
X98279905Y-42610070D01*
X98279115Y-42651112D01*
X98276659Y-42659042D01*
X98273386Y-42664712D01*
X98263636Y-42701097D01*
X98263210Y-42702475D01*
X98245966Y-42723240D01*
X98229522Y-42744672D01*
X98227783Y-42745137D01*
X98227028Y-42746048D01*
X98222990Y-42746422D01*
X98192522Y-42754586D01*
X98096225Y-42754586D01*
X98007086Y-42778470D01*
X98007081Y-42778472D01*
X97927162Y-42824614D01*
X97861899Y-42889877D01*
X97815757Y-42969796D01*
X97815755Y-42969801D01*
X97791871Y-43058939D01*
X93240500Y-43058939D01*
X93240500Y-42973854D01*
X93240499Y-42973853D01*
X93239412Y-42969798D01*
X93221648Y-42903498D01*
X93216615Y-42884715D01*
X93216613Y-42884710D01*
X93170471Y-42804791D01*
X93170470Y-42804790D01*
X93170469Y-42804788D01*
X93105212Y-42739531D01*
X93105209Y-42739529D01*
X93105208Y-42739528D01*
X93025289Y-42693386D01*
X93025284Y-42693384D01*
X92936146Y-42669500D01*
X92936144Y-42669500D01*
X92843856Y-42669500D01*
X92843854Y-42669500D01*
X92754715Y-42693384D01*
X92754710Y-42693386D01*
X92674791Y-42739528D01*
X92609528Y-42804791D01*
X92563386Y-42884710D01*
X92563384Y-42884715D01*
X92539500Y-42973853D01*
X91012548Y-42973853D01*
X91018978Y-42949859D01*
X91018979Y-42949854D01*
X91028857Y-42912988D01*
X91031400Y-42903498D01*
X91031400Y-42811210D01*
X91031400Y-42811208D01*
X91031399Y-42811207D01*
X91007515Y-42722069D01*
X91007513Y-42722064D01*
X90961371Y-42642145D01*
X90961370Y-42642144D01*
X90961369Y-42642142D01*
X90896112Y-42576885D01*
X90896109Y-42576883D01*
X90896108Y-42576882D01*
X90813199Y-42529014D01*
X90778720Y-42484080D01*
X90778721Y-42445775D01*
X90788264Y-42410157D01*
X90788265Y-42410157D01*
X90788265Y-42317865D01*
X90788264Y-42317864D01*
X90786960Y-42312999D01*
X90764379Y-42228723D01*
X90718234Y-42148799D01*
X90652977Y-42083542D01*
X90652974Y-42083540D01*
X90652973Y-42083539D01*
X90573054Y-42037397D01*
X90573049Y-42037395D01*
X90483911Y-42013511D01*
X90483909Y-42013511D01*
X90391621Y-42013511D01*
X90391619Y-42013511D01*
X90297792Y-42038652D01*
X90297418Y-42037257D01*
X90246175Y-42037253D01*
X90206130Y-41997201D01*
X90200500Y-41968888D01*
X90200500Y-41916353D01*
X95668249Y-41916353D01*
X95668249Y-42008646D01*
X95692133Y-42097784D01*
X95692135Y-42097789D01*
X95738277Y-42177708D01*
X95738278Y-42177709D01*
X95738280Y-42177712D01*
X95803537Y-42242969D01*
X95883461Y-42289114D01*
X95883462Y-42289114D01*
X95883464Y-42289115D01*
X95901147Y-42293853D01*
X95972602Y-42312999D01*
X95972603Y-42313000D01*
X95972605Y-42313000D01*
X96064895Y-42313000D01*
X96064895Y-42312999D01*
X96136350Y-42293853D01*
X97079500Y-42293853D01*
X97079500Y-42386146D01*
X97103384Y-42475284D01*
X97103386Y-42475289D01*
X97149528Y-42555208D01*
X97149529Y-42555209D01*
X97149531Y-42555212D01*
X97214788Y-42620469D01*
X97214790Y-42620470D01*
X97214791Y-42620471D01*
X97291423Y-42664715D01*
X97294712Y-42666614D01*
X97294713Y-42666614D01*
X97294715Y-42666615D01*
X97339284Y-42678557D01*
X97383853Y-42690499D01*
X97383854Y-42690500D01*
X97383856Y-42690500D01*
X97476146Y-42690500D01*
X97476146Y-42690499D01*
X97565288Y-42666614D01*
X97645212Y-42620469D01*
X97710469Y-42555212D01*
X97756614Y-42475288D01*
X97780499Y-42386146D01*
X97780500Y-42386146D01*
X97780500Y-42293854D01*
X97780499Y-42293853D01*
X97779229Y-42289115D01*
X97756614Y-42204712D01*
X97718179Y-42138141D01*
X97710471Y-42124791D01*
X97710470Y-42124790D01*
X97710469Y-42124788D01*
X97645212Y-42059531D01*
X97645209Y-42059529D01*
X97645208Y-42059528D01*
X97565289Y-42013386D01*
X97565284Y-42013384D01*
X97476146Y-41989500D01*
X97476144Y-41989500D01*
X97383856Y-41989500D01*
X97383854Y-41989500D01*
X97294715Y-42013384D01*
X97294710Y-42013386D01*
X97214791Y-42059528D01*
X97149528Y-42124791D01*
X97103386Y-42204710D01*
X97103384Y-42204715D01*
X97079500Y-42293853D01*
X96136350Y-42293853D01*
X96154037Y-42289114D01*
X96233961Y-42242969D01*
X96299218Y-42177712D01*
X96345363Y-42097788D01*
X96369248Y-42008646D01*
X96369249Y-42008646D01*
X96369249Y-41916354D01*
X96369248Y-41916353D01*
X96345364Y-41827215D01*
X96345362Y-41827210D01*
X96299220Y-41747291D01*
X96299219Y-41747290D01*
X96299218Y-41747288D01*
X96233961Y-41682031D01*
X96233958Y-41682029D01*
X96233957Y-41682028D01*
X96154038Y-41635886D01*
X96154033Y-41635884D01*
X96064895Y-41612000D01*
X96064893Y-41612000D01*
X95972605Y-41612000D01*
X95972603Y-41612000D01*
X95883464Y-41635884D01*
X95883459Y-41635886D01*
X95803540Y-41682028D01*
X95738277Y-41747291D01*
X95692135Y-41827210D01*
X95692133Y-41827215D01*
X95668249Y-41916353D01*
X90200500Y-41916353D01*
X90200500Y-41453853D01*
X92549500Y-41453853D01*
X92549500Y-41546146D01*
X92573384Y-41635284D01*
X92573386Y-41635289D01*
X92619528Y-41715208D01*
X92619529Y-41715209D01*
X92619531Y-41715212D01*
X92684788Y-41780469D01*
X92764712Y-41826614D01*
X92764713Y-41826614D01*
X92764715Y-41826615D01*
X92809284Y-41838557D01*
X92853853Y-41850499D01*
X92853854Y-41850500D01*
X92853856Y-41850500D01*
X92946146Y-41850500D01*
X92946146Y-41850499D01*
X92964984Y-41845451D01*
X92985228Y-41840028D01*
X93035284Y-41826615D01*
X93035283Y-41826615D01*
X93035288Y-41826614D01*
X93115212Y-41780469D01*
X93180469Y-41715212D01*
X93226614Y-41635288D01*
X93250499Y-41546146D01*
X93250500Y-41546146D01*
X93250500Y-41453854D01*
X93250499Y-41453853D01*
X93249597Y-41450488D01*
X93232836Y-41387934D01*
X93226615Y-41364715D01*
X93226613Y-41364710D01*
X93180471Y-41284791D01*
X93180470Y-41284790D01*
X93180469Y-41284788D01*
X93115212Y-41219531D01*
X93115209Y-41219529D01*
X93115208Y-41219528D01*
X93035289Y-41173386D01*
X93035284Y-41173384D01*
X92946146Y-41149500D01*
X92946144Y-41149500D01*
X92853856Y-41149500D01*
X92853854Y-41149500D01*
X92764715Y-41173384D01*
X92764710Y-41173386D01*
X92684791Y-41219528D01*
X92619528Y-41284791D01*
X92573386Y-41364710D01*
X92573384Y-41364715D01*
X92549500Y-41453853D01*
X90200500Y-41453853D01*
X90200500Y-41115263D01*
X90222174Y-41062937D01*
X90274500Y-41041263D01*
X90326826Y-41062937D01*
X90329180Y-41065291D01*
X90329182Y-41065294D01*
X90394439Y-41130551D01*
X90394441Y-41130552D01*
X90394442Y-41130553D01*
X90468630Y-41173386D01*
X90474363Y-41176696D01*
X90474364Y-41176696D01*
X90474366Y-41176697D01*
X90485029Y-41179554D01*
X90563504Y-41200581D01*
X90563505Y-41200582D01*
X90563507Y-41200582D01*
X90655797Y-41200582D01*
X90655797Y-41200581D01*
X90744939Y-41176696D01*
X90824863Y-41130551D01*
X90890120Y-41065294D01*
X90892416Y-41061318D01*
X100856965Y-41061318D01*
X100856965Y-41153611D01*
X100880849Y-41242749D01*
X100880851Y-41242754D01*
X100926993Y-41322673D01*
X100926994Y-41322674D01*
X100926996Y-41322677D01*
X100992253Y-41387934D01*
X100992255Y-41387935D01*
X100992256Y-41387936D01*
X101072175Y-41434078D01*
X101072177Y-41434079D01*
X101072178Y-41434079D01*
X101072180Y-41434080D01*
X101116749Y-41446022D01*
X101161318Y-41457964D01*
X101161319Y-41457965D01*
X101161321Y-41457965D01*
X101253611Y-41457965D01*
X101253611Y-41457964D01*
X101342753Y-41434079D01*
X101422677Y-41387934D01*
X101423577Y-41387033D01*
X101424170Y-41386787D01*
X101426518Y-41384986D01*
X101427000Y-41385615D01*
X101475897Y-41365355D01*
X101528226Y-41387023D01*
X101539991Y-41402354D01*
X101567782Y-41450488D01*
X101567784Y-41450490D01*
X101567786Y-41450493D01*
X101633043Y-41515750D01*
X101633045Y-41515751D01*
X101633046Y-41515752D01*
X101685686Y-41546144D01*
X101712967Y-41561895D01*
X101712968Y-41561895D01*
X101712970Y-41561896D01*
X101757539Y-41573838D01*
X101802111Y-41585781D01*
X101802116Y-41585781D01*
X101806918Y-41586414D01*
X101806540Y-41589278D01*
X101850423Y-41607455D01*
X101872097Y-41659781D01*
X101869575Y-41678934D01*
X101849500Y-41753853D01*
X101849500Y-41846146D01*
X101873384Y-41935284D01*
X101873386Y-41935289D01*
X101919528Y-42015208D01*
X101919529Y-42015209D01*
X101919531Y-42015212D01*
X101984788Y-42080469D01*
X101984790Y-42080470D01*
X101984791Y-42080471D01*
X102064710Y-42126613D01*
X102064712Y-42126614D01*
X102064713Y-42126614D01*
X102064715Y-42126615D01*
X102107724Y-42138139D01*
X102153853Y-42150499D01*
X102153854Y-42150500D01*
X102153856Y-42150500D01*
X102246146Y-42150500D01*
X102246146Y-42150499D01*
X102335288Y-42126614D01*
X102415212Y-42080469D01*
X102480469Y-42015212D01*
X102526614Y-41935288D01*
X102550499Y-41846146D01*
X102550500Y-41846146D01*
X102550500Y-41753854D01*
X102550499Y-41753853D01*
X102526615Y-41664715D01*
X102526613Y-41664710D01*
X102480471Y-41584791D01*
X102480470Y-41584790D01*
X102480469Y-41584788D01*
X102415212Y-41519531D01*
X102415209Y-41519529D01*
X102415208Y-41519528D01*
X102335289Y-41473386D01*
X102335284Y-41473384D01*
X102246146Y-41449500D01*
X102241337Y-41448867D01*
X102241604Y-41446831D01*
X102235479Y-41448029D01*
X102217669Y-41436042D01*
X102197832Y-41427826D01*
X102194883Y-41420707D01*
X102188492Y-41416406D01*
X102185489Y-41398028D01*
X102176158Y-41375500D01*
X102177629Y-41360821D01*
X102178085Y-41358562D01*
X102198755Y-41281425D01*
X102198755Y-41268695D01*
X105433560Y-41268695D01*
X105433560Y-41360988D01*
X105457444Y-41450126D01*
X105457446Y-41450131D01*
X105503588Y-41530050D01*
X105503589Y-41530051D01*
X105503591Y-41530054D01*
X105568848Y-41595311D01*
X105568850Y-41595312D01*
X105568851Y-41595313D01*
X105648770Y-41641455D01*
X105648772Y-41641456D01*
X105648773Y-41641456D01*
X105648775Y-41641457D01*
X105693344Y-41653399D01*
X105737913Y-41665341D01*
X105737914Y-41665342D01*
X105737916Y-41665342D01*
X105830206Y-41665342D01*
X105830206Y-41665341D01*
X105919348Y-41641456D01*
X105999272Y-41595311D01*
X106064529Y-41530054D01*
X106110674Y-41450130D01*
X106134559Y-41360988D01*
X106134560Y-41360988D01*
X106134560Y-41268696D01*
X106134559Y-41268695D01*
X106110675Y-41179557D01*
X106110673Y-41179552D01*
X106064531Y-41099633D01*
X106064530Y-41099632D01*
X106064529Y-41099630D01*
X105999272Y-41034373D01*
X105999269Y-41034371D01*
X105999268Y-41034370D01*
X105919349Y-40988228D01*
X105919344Y-40988226D01*
X105830206Y-40964342D01*
X105830204Y-40964342D01*
X105737916Y-40964342D01*
X105737914Y-40964342D01*
X105648775Y-40988226D01*
X105648770Y-40988228D01*
X105568851Y-41034370D01*
X105503588Y-41099633D01*
X105457446Y-41179552D01*
X105457444Y-41179557D01*
X105433560Y-41268695D01*
X102198755Y-41268695D01*
X102198755Y-41189137D01*
X102198755Y-41189135D01*
X102198754Y-41189134D01*
X102194534Y-41173386D01*
X102174869Y-41099993D01*
X102174661Y-41099633D01*
X102128726Y-41020072D01*
X102128725Y-41020071D01*
X102128724Y-41020069D01*
X102063467Y-40954812D01*
X102063464Y-40954810D01*
X102063463Y-40954809D01*
X101983544Y-40908667D01*
X101983540Y-40908666D01*
X101933134Y-40895159D01*
X101888202Y-40860680D01*
X101880810Y-40804527D01*
X101915289Y-40759595D01*
X101915288Y-40759595D01*
X101940887Y-40744816D01*
X102006144Y-40679559D01*
X102052289Y-40599635D01*
X102076174Y-40510493D01*
X102076175Y-40510493D01*
X102076175Y-40453853D01*
X102749500Y-40453853D01*
X102749500Y-40546146D01*
X102773384Y-40635284D01*
X102773386Y-40635289D01*
X102819528Y-40715208D01*
X102819529Y-40715209D01*
X102819531Y-40715212D01*
X102884788Y-40780469D01*
X102884790Y-40780470D01*
X102884791Y-40780471D01*
X102926457Y-40804527D01*
X102964712Y-40826614D01*
X102964713Y-40826614D01*
X102964715Y-40826615D01*
X103009284Y-40838557D01*
X103053853Y-40850499D01*
X103053854Y-40850500D01*
X103053856Y-40850500D01*
X103146146Y-40850500D01*
X103146146Y-40850499D01*
X103235288Y-40826614D01*
X103315212Y-40780469D01*
X103380469Y-40715212D01*
X103426614Y-40635288D01*
X103450499Y-40546146D01*
X103450500Y-40546146D01*
X103450500Y-40453854D01*
X103450499Y-40453853D01*
X103448433Y-40446144D01*
X103430836Y-40380469D01*
X103427538Y-40368159D01*
X103426615Y-40364715D01*
X103426613Y-40364710D01*
X103420345Y-40353853D01*
X103849500Y-40353853D01*
X103849500Y-40446146D01*
X103873384Y-40535284D01*
X103873386Y-40535289D01*
X103919528Y-40615208D01*
X103919529Y-40615209D01*
X103919531Y-40615212D01*
X103984788Y-40680469D01*
X103984790Y-40680470D01*
X103984791Y-40680471D01*
X104064710Y-40726613D01*
X104064712Y-40726614D01*
X104064713Y-40726614D01*
X104064715Y-40726615D01*
X104101450Y-40736458D01*
X104153853Y-40750499D01*
X104153854Y-40750500D01*
X104153856Y-40750500D01*
X104246146Y-40750500D01*
X104246146Y-40750499D01*
X104335288Y-40726614D01*
X104415212Y-40680469D01*
X104480469Y-40615212D01*
X104526614Y-40535288D01*
X104550499Y-40446146D01*
X104550500Y-40446146D01*
X104550500Y-40353854D01*
X104550499Y-40353853D01*
X104526615Y-40264715D01*
X104526613Y-40264710D01*
X104480471Y-40184791D01*
X104480470Y-40184790D01*
X104480469Y-40184788D01*
X104415212Y-40119531D01*
X104415209Y-40119529D01*
X104415208Y-40119528D01*
X104335289Y-40073386D01*
X104335284Y-40073384D01*
X104246146Y-40049500D01*
X104246144Y-40049500D01*
X104153856Y-40049500D01*
X104153854Y-40049500D01*
X104064715Y-40073384D01*
X104064710Y-40073386D01*
X103984791Y-40119528D01*
X103919528Y-40184791D01*
X103873386Y-40264710D01*
X103873384Y-40264715D01*
X103849500Y-40353853D01*
X103420345Y-40353853D01*
X103380471Y-40284791D01*
X103380470Y-40284790D01*
X103380469Y-40284788D01*
X103315212Y-40219531D01*
X103315209Y-40219529D01*
X103315208Y-40219528D01*
X103235289Y-40173386D01*
X103235284Y-40173384D01*
X103146146Y-40149500D01*
X103146144Y-40149500D01*
X103053856Y-40149500D01*
X103053854Y-40149500D01*
X102964715Y-40173384D01*
X102964710Y-40173386D01*
X102884791Y-40219528D01*
X102819528Y-40284791D01*
X102773386Y-40364710D01*
X102773384Y-40364715D01*
X102749500Y-40453853D01*
X102076175Y-40453853D01*
X102076175Y-40418201D01*
X102076174Y-40418200D01*
X102075373Y-40415212D01*
X102058933Y-40353853D01*
X102052290Y-40329062D01*
X102052288Y-40329057D01*
X102006146Y-40249138D01*
X102006145Y-40249137D01*
X102006144Y-40249135D01*
X101970724Y-40213715D01*
X101949051Y-40161391D01*
X101970725Y-40109065D01*
X101986052Y-40097305D01*
X102015207Y-40080472D01*
X102015207Y-40080471D01*
X102015212Y-40080469D01*
X102080469Y-40015212D01*
X102082445Y-40011789D01*
X102127373Y-39977307D01*
X102183525Y-39984692D01*
X102198293Y-39993219D01*
X102198295Y-39993219D01*
X102198296Y-39993220D01*
X102211523Y-39996764D01*
X102287434Y-40017104D01*
X102287435Y-40017105D01*
X102287437Y-40017105D01*
X102379727Y-40017105D01*
X102379727Y-40017104D01*
X102468869Y-39993219D01*
X102548793Y-39947074D01*
X102614050Y-39881817D01*
X102660195Y-39801893D01*
X102684080Y-39712751D01*
X102684081Y-39712751D01*
X102684081Y-39620459D01*
X102684080Y-39620458D01*
X102670067Y-39568159D01*
X102670066Y-39568158D01*
X102667947Y-39560251D01*
X102666233Y-39553853D01*
X102849500Y-39553853D01*
X102849500Y-39646146D01*
X102873384Y-39735284D01*
X102873386Y-39735289D01*
X102919528Y-39815208D01*
X102919529Y-39815209D01*
X102919531Y-39815212D01*
X102984788Y-39880469D01*
X102984790Y-39880470D01*
X102984791Y-39880471D01*
X102992277Y-39884793D01*
X103064712Y-39926614D01*
X103064713Y-39926614D01*
X103064715Y-39926615D01*
X103109284Y-39938557D01*
X103153853Y-39950499D01*
X103153854Y-39950500D01*
X103153856Y-39950500D01*
X103246146Y-39950500D01*
X103246146Y-39950499D01*
X103335288Y-39926614D01*
X103415212Y-39880469D01*
X103480469Y-39815212D01*
X103526614Y-39735288D01*
X103550499Y-39646146D01*
X103550500Y-39646146D01*
X103550500Y-39553854D01*
X103550499Y-39553853D01*
X103526615Y-39464715D01*
X103526613Y-39464710D01*
X103480471Y-39384791D01*
X103480470Y-39384790D01*
X103480469Y-39384788D01*
X103415212Y-39319531D01*
X103415209Y-39319529D01*
X103415208Y-39319528D01*
X103335289Y-39273386D01*
X103335284Y-39273384D01*
X103246146Y-39249500D01*
X103246144Y-39249500D01*
X103153856Y-39249500D01*
X103153854Y-39249500D01*
X103064715Y-39273384D01*
X103064710Y-39273386D01*
X102984791Y-39319528D01*
X102919528Y-39384791D01*
X102873386Y-39464710D01*
X102873384Y-39464715D01*
X102849500Y-39553853D01*
X102666233Y-39553853D01*
X102660195Y-39531317D01*
X102653390Y-39519531D01*
X102614052Y-39451396D01*
X102614051Y-39451395D01*
X102614050Y-39451393D01*
X102548793Y-39386136D01*
X102548790Y-39386134D01*
X102548789Y-39386133D01*
X102468870Y-39339991D01*
X102468865Y-39339989D01*
X102379727Y-39316105D01*
X102379725Y-39316105D01*
X102287437Y-39316105D01*
X102287435Y-39316105D01*
X102198296Y-39339989D01*
X102198291Y-39339991D01*
X102118372Y-39386133D01*
X102053111Y-39451393D01*
X102053110Y-39451395D01*
X102051131Y-39454823D01*
X102006197Y-39489300D01*
X101950047Y-39481907D01*
X101935289Y-39473386D01*
X101935284Y-39473384D01*
X101846146Y-39449500D01*
X101846144Y-39449500D01*
X101753856Y-39449500D01*
X101753854Y-39449500D01*
X101664715Y-39473384D01*
X101664710Y-39473386D01*
X101584791Y-39519528D01*
X101519528Y-39584791D01*
X101473386Y-39664710D01*
X101473384Y-39664715D01*
X101449500Y-39753853D01*
X101449500Y-39846146D01*
X101473384Y-39935284D01*
X101473386Y-39935289D01*
X101519528Y-40015208D01*
X101519529Y-40015209D01*
X101519531Y-40015212D01*
X101554949Y-40050630D01*
X101576623Y-40102955D01*
X101554949Y-40155281D01*
X101539624Y-40167040D01*
X101510468Y-40183874D01*
X101510467Y-40183874D01*
X101445203Y-40249138D01*
X101399061Y-40329057D01*
X101399059Y-40329062D01*
X101375175Y-40418200D01*
X101375175Y-40510493D01*
X101399059Y-40599631D01*
X101399061Y-40599636D01*
X101446067Y-40681051D01*
X101453460Y-40737203D01*
X101418981Y-40782137D01*
X101362829Y-40789530D01*
X101344983Y-40782138D01*
X101342756Y-40780852D01*
X101342749Y-40780849D01*
X101253611Y-40756965D01*
X101253609Y-40756965D01*
X101161321Y-40756965D01*
X101161319Y-40756965D01*
X101072180Y-40780849D01*
X101072175Y-40780851D01*
X100992256Y-40826993D01*
X100926993Y-40892256D01*
X100880851Y-40972175D01*
X100880849Y-40972180D01*
X100856965Y-41061318D01*
X90892416Y-41061318D01*
X90936265Y-40985370D01*
X90960150Y-40896228D01*
X90960151Y-40896228D01*
X90960151Y-40803936D01*
X90960150Y-40803935D01*
X90953862Y-40780469D01*
X90944309Y-40744816D01*
X90942070Y-40736458D01*
X90949462Y-40680305D01*
X90979424Y-40654041D01*
X90978487Y-40652417D01*
X91008155Y-40635288D01*
X91062611Y-40603847D01*
X91127868Y-40538590D01*
X91167100Y-40470638D01*
X91212033Y-40436160D01*
X91250338Y-40436160D01*
X91303850Y-40450499D01*
X91303851Y-40450500D01*
X91303853Y-40450500D01*
X91396143Y-40450500D01*
X91396143Y-40450499D01*
X91485285Y-40426614D01*
X91565209Y-40380469D01*
X91572670Y-40373007D01*
X91624991Y-40351330D01*
X91677317Y-40372998D01*
X91684788Y-40380469D01*
X91684790Y-40380470D01*
X91684791Y-40380471D01*
X91764710Y-40426613D01*
X91764712Y-40426614D01*
X91764713Y-40426614D01*
X91764715Y-40426615D01*
X91800338Y-40436160D01*
X91853853Y-40450499D01*
X91853854Y-40450500D01*
X91853856Y-40450500D01*
X91946146Y-40450500D01*
X91946146Y-40450499D01*
X92035288Y-40426614D01*
X92115212Y-40380469D01*
X92180469Y-40315212D01*
X92226614Y-40235288D01*
X92248434Y-40153853D01*
X100549500Y-40153853D01*
X100549500Y-40246146D01*
X100573384Y-40335284D01*
X100573386Y-40335289D01*
X100619528Y-40415208D01*
X100619529Y-40415209D01*
X100619531Y-40415212D01*
X100684788Y-40480469D01*
X100684790Y-40480470D01*
X100684791Y-40480471D01*
X100736790Y-40510493D01*
X100764712Y-40526614D01*
X100764713Y-40526614D01*
X100764715Y-40526615D01*
X100809284Y-40538557D01*
X100853853Y-40550499D01*
X100853854Y-40550500D01*
X100853856Y-40550500D01*
X100946146Y-40550500D01*
X100946146Y-40550499D01*
X101035288Y-40526614D01*
X101115212Y-40480469D01*
X101180469Y-40415212D01*
X101226614Y-40335288D01*
X101250499Y-40246146D01*
X101250500Y-40246146D01*
X101250500Y-40153854D01*
X101250499Y-40153853D01*
X101248433Y-40146144D01*
X101226614Y-40064712D01*
X101220345Y-40053854D01*
X101180471Y-39984791D01*
X101180470Y-39984790D01*
X101180469Y-39984788D01*
X101115212Y-39919531D01*
X101115209Y-39919529D01*
X101115208Y-39919528D01*
X101035289Y-39873386D01*
X101035284Y-39873384D01*
X100946146Y-39849500D01*
X100946144Y-39849500D01*
X100853856Y-39849500D01*
X100853854Y-39849500D01*
X100764715Y-39873384D01*
X100764710Y-39873386D01*
X100684791Y-39919528D01*
X100619528Y-39984791D01*
X100573386Y-40064710D01*
X100573384Y-40064715D01*
X100549500Y-40153853D01*
X92248434Y-40153853D01*
X92250499Y-40146146D01*
X92250500Y-40146146D01*
X92250500Y-40053854D01*
X92250499Y-40053853D01*
X92226615Y-39964715D01*
X92226613Y-39964710D01*
X92180471Y-39884791D01*
X92180470Y-39884790D01*
X92180469Y-39884788D01*
X92115212Y-39819531D01*
X92115209Y-39819529D01*
X92115207Y-39819527D01*
X92060760Y-39788091D01*
X92026282Y-39743157D01*
X92033676Y-39687005D01*
X92055391Y-39649395D01*
X92079276Y-39560253D01*
X92079277Y-39560253D01*
X92079277Y-39467961D01*
X92079276Y-39467960D01*
X92074597Y-39450499D01*
X92056991Y-39384791D01*
X92055392Y-39378822D01*
X92055390Y-39378817D01*
X92009248Y-39298898D01*
X92009247Y-39298897D01*
X92009246Y-39298895D01*
X91943989Y-39233638D01*
X91943986Y-39233636D01*
X91943985Y-39233635D01*
X91864066Y-39187493D01*
X91864061Y-39187491D01*
X91774923Y-39163607D01*
X91774921Y-39163607D01*
X91682633Y-39163607D01*
X91682631Y-39163607D01*
X91593492Y-39187491D01*
X91593487Y-39187493D01*
X91513568Y-39233635D01*
X91448305Y-39298898D01*
X91402163Y-39378817D01*
X91402161Y-39378822D01*
X91378277Y-39467960D01*
X91378277Y-39560253D01*
X91403418Y-39654080D01*
X91401246Y-39654662D01*
X91401246Y-39703819D01*
X91361197Y-39743867D01*
X91332879Y-39749500D01*
X91303851Y-39749500D01*
X91214712Y-39773384D01*
X91214707Y-39773386D01*
X91134788Y-39819528D01*
X91069524Y-39884792D01*
X91069524Y-39884793D01*
X91030294Y-39952739D01*
X90985360Y-39987217D01*
X90947057Y-39987217D01*
X90893543Y-39972878D01*
X90801255Y-39972878D01*
X90801253Y-39972878D01*
X90712114Y-39996762D01*
X90712109Y-39996764D01*
X90632190Y-40042906D01*
X90566927Y-40108169D01*
X90520785Y-40188088D01*
X90520783Y-40188093D01*
X90496899Y-40277231D01*
X90496899Y-40277234D01*
X90496899Y-40369522D01*
X90499832Y-40380469D01*
X90514980Y-40437002D01*
X90507587Y-40493154D01*
X90477630Y-40519427D01*
X90478563Y-40521043D01*
X90394442Y-40569610D01*
X90394439Y-40569612D01*
X90394439Y-40569613D01*
X90329182Y-40634870D01*
X90329180Y-40634872D01*
X90326826Y-40637227D01*
X90274500Y-40658901D01*
X90222174Y-40637227D01*
X90200500Y-40584901D01*
X90200500Y-37053853D01*
X102649500Y-37053853D01*
X102649500Y-37146146D01*
X102673384Y-37235284D01*
X102673386Y-37235289D01*
X102719528Y-37315208D01*
X102719529Y-37315209D01*
X102719531Y-37315212D01*
X102784788Y-37380469D01*
X102864712Y-37426614D01*
X102864713Y-37426614D01*
X102864715Y-37426615D01*
X102909284Y-37438557D01*
X102953853Y-37450499D01*
X102953854Y-37450500D01*
X102953856Y-37450500D01*
X103046146Y-37450500D01*
X103046146Y-37450499D01*
X103135288Y-37426614D01*
X103215212Y-37380469D01*
X103280469Y-37315212D01*
X103326614Y-37235288D01*
X103350499Y-37146146D01*
X103350500Y-37146146D01*
X103350500Y-37053854D01*
X103350499Y-37053853D01*
X103343200Y-37026614D01*
X103332029Y-36984920D01*
X103326615Y-36964715D01*
X103326614Y-36964714D01*
X103326614Y-36964712D01*
X103320343Y-36953852D01*
X103312950Y-36897700D01*
X103347427Y-36852766D01*
X103365267Y-36845375D01*
X103435288Y-36826614D01*
X103515212Y-36780469D01*
X103580469Y-36715212D01*
X103626614Y-36635288D01*
X103650499Y-36546146D01*
X103650500Y-36546146D01*
X103650500Y-36453857D01*
X103650499Y-36453853D01*
X103626614Y-36364712D01*
X103620346Y-36353855D01*
X103620344Y-36353852D01*
X103849500Y-36353852D01*
X103849500Y-36446145D01*
X103873384Y-36535283D01*
X103873386Y-36535288D01*
X103919528Y-36615207D01*
X103919529Y-36615208D01*
X103919531Y-36615211D01*
X103984788Y-36680468D01*
X103984790Y-36680469D01*
X103984791Y-36680470D01*
X104022601Y-36702300D01*
X104064712Y-36726613D01*
X104064713Y-36726613D01*
X104064715Y-36726614D01*
X104109284Y-36738556D01*
X104153853Y-36750498D01*
X104153854Y-36750499D01*
X104153856Y-36750499D01*
X104246146Y-36750499D01*
X104246146Y-36750498D01*
X104335288Y-36726613D01*
X104415212Y-36680468D01*
X104480469Y-36615211D01*
X104526614Y-36535287D01*
X104550499Y-36446145D01*
X104550500Y-36446145D01*
X104550500Y-36436984D01*
X106119891Y-36436984D01*
X106119891Y-36529277D01*
X106143775Y-36618415D01*
X106143777Y-36618420D01*
X106189919Y-36698339D01*
X106189920Y-36698340D01*
X106189922Y-36698343D01*
X106255179Y-36763600D01*
X106255181Y-36763601D01*
X106255182Y-36763602D01*
X106335101Y-36809744D01*
X106335103Y-36809745D01*
X106335104Y-36809745D01*
X106335106Y-36809746D01*
X106371614Y-36819528D01*
X106424244Y-36833630D01*
X106424245Y-36833631D01*
X106424247Y-36833631D01*
X106516537Y-36833631D01*
X106516537Y-36833630D01*
X106605679Y-36809745D01*
X106685603Y-36763600D01*
X106750860Y-36698343D01*
X106797005Y-36618419D01*
X106820890Y-36529277D01*
X106820891Y-36529277D01*
X106820891Y-36436985D01*
X106820890Y-36436984D01*
X106797006Y-36347846D01*
X106797004Y-36347841D01*
X106750862Y-36267922D01*
X106750861Y-36267921D01*
X106750860Y-36267919D01*
X106685603Y-36202662D01*
X106685600Y-36202660D01*
X106685599Y-36202659D01*
X106605680Y-36156517D01*
X106605675Y-36156515D01*
X106516537Y-36132631D01*
X106516535Y-36132631D01*
X106424247Y-36132631D01*
X106424245Y-36132631D01*
X106335106Y-36156515D01*
X106335101Y-36156517D01*
X106255182Y-36202659D01*
X106189919Y-36267922D01*
X106143777Y-36347841D01*
X106143775Y-36347846D01*
X106119891Y-36436984D01*
X104550500Y-36436984D01*
X104550500Y-36353853D01*
X104550499Y-36353852D01*
X104548967Y-36348136D01*
X104538557Y-36309283D01*
X104526615Y-36264714D01*
X104526613Y-36264709D01*
X104480471Y-36184790D01*
X104480470Y-36184789D01*
X104480469Y-36184787D01*
X104415212Y-36119530D01*
X104415209Y-36119528D01*
X104415208Y-36119527D01*
X104335289Y-36073385D01*
X104335284Y-36073383D01*
X104246146Y-36049499D01*
X104246144Y-36049499D01*
X104153856Y-36049499D01*
X104153854Y-36049499D01*
X104064715Y-36073383D01*
X104064710Y-36073385D01*
X103984791Y-36119527D01*
X103919528Y-36184790D01*
X103873386Y-36264709D01*
X103873384Y-36264714D01*
X103849500Y-36353852D01*
X103620344Y-36353852D01*
X103580471Y-36284791D01*
X103580470Y-36284790D01*
X103580469Y-36284788D01*
X103515212Y-36219531D01*
X103515209Y-36219529D01*
X103515208Y-36219528D01*
X103435289Y-36173386D01*
X103435284Y-36173384D01*
X103346146Y-36149500D01*
X103346144Y-36149500D01*
X103253856Y-36149500D01*
X103253854Y-36149500D01*
X103164715Y-36173384D01*
X103164710Y-36173386D01*
X103084791Y-36219528D01*
X103019528Y-36284791D01*
X102973386Y-36364710D01*
X102973384Y-36364715D01*
X102949500Y-36453853D01*
X102949500Y-36546146D01*
X102973384Y-36635284D01*
X102973386Y-36635289D01*
X102979656Y-36646148D01*
X102987049Y-36702300D01*
X102952570Y-36747234D01*
X102934723Y-36754626D01*
X102864715Y-36773384D01*
X102864710Y-36773386D01*
X102784791Y-36819528D01*
X102719528Y-36884791D01*
X102673386Y-36964710D01*
X102673384Y-36964715D01*
X102649500Y-37053853D01*
X90200500Y-37053853D01*
X90200500Y-36400462D01*
X90222174Y-36348136D01*
X90274500Y-36326462D01*
X90326826Y-36348136D01*
X90345978Y-36381309D01*
X90362111Y-36441520D01*
X90362113Y-36441525D01*
X90408255Y-36521444D01*
X90408256Y-36521445D01*
X90408258Y-36521448D01*
X90473515Y-36586705D01*
X90473517Y-36586706D01*
X90473518Y-36586707D01*
X90522881Y-36615207D01*
X90553439Y-36632850D01*
X90553440Y-36632850D01*
X90553442Y-36632851D01*
X90562541Y-36635289D01*
X90642580Y-36656735D01*
X90642581Y-36656736D01*
X90642583Y-36656736D01*
X90734873Y-36656736D01*
X90734873Y-36656735D01*
X90745629Y-36653853D01*
X101849500Y-36653853D01*
X101849500Y-36746146D01*
X101873384Y-36835284D01*
X101873386Y-36835289D01*
X101919528Y-36915208D01*
X101919529Y-36915209D01*
X101919531Y-36915212D01*
X101984788Y-36980469D01*
X102064712Y-37026614D01*
X102064713Y-37026614D01*
X102064715Y-37026615D01*
X102109284Y-37038557D01*
X102153853Y-37050499D01*
X102153854Y-37050500D01*
X102153856Y-37050500D01*
X102246146Y-37050500D01*
X102246146Y-37050499D01*
X102335288Y-37026614D01*
X102362440Y-37010937D01*
X102407504Y-36984920D01*
X102407505Y-36984919D01*
X102410394Y-36983250D01*
X102415212Y-36980469D01*
X102480469Y-36915212D01*
X102526614Y-36835288D01*
X102550499Y-36746146D01*
X102550500Y-36746146D01*
X102550500Y-36653854D01*
X102550499Y-36653853D01*
X102548434Y-36646148D01*
X102526614Y-36564712D01*
X102480469Y-36484788D01*
X102415212Y-36419531D01*
X102415209Y-36419529D01*
X102415208Y-36419528D01*
X102335289Y-36373386D01*
X102335284Y-36373384D01*
X102246146Y-36349500D01*
X102246144Y-36349500D01*
X102153856Y-36349500D01*
X102153854Y-36349500D01*
X102064715Y-36373384D01*
X102064710Y-36373386D01*
X101984791Y-36419528D01*
X101919528Y-36484791D01*
X101873386Y-36564710D01*
X101873384Y-36564715D01*
X101849500Y-36653853D01*
X90745629Y-36653853D01*
X90824015Y-36632850D01*
X90903939Y-36586705D01*
X90969196Y-36521448D01*
X90989806Y-36485750D01*
X91034738Y-36451272D01*
X91090891Y-36458664D01*
X91112592Y-36477691D01*
X91114524Y-36480208D01*
X91114527Y-36480211D01*
X91114529Y-36480214D01*
X91179786Y-36545471D01*
X91179788Y-36545472D01*
X91179789Y-36545473D01*
X91259708Y-36591615D01*
X91259710Y-36591616D01*
X91259711Y-36591616D01*
X91259713Y-36591617D01*
X91304282Y-36603559D01*
X91348851Y-36615501D01*
X91348852Y-36615502D01*
X91348854Y-36615502D01*
X91441144Y-36615502D01*
X91441144Y-36615501D01*
X91530286Y-36591616D01*
X91537765Y-36587297D01*
X91541884Y-36584920D01*
X91576888Y-36564710D01*
X91610210Y-36545471D01*
X91675467Y-36480214D01*
X91721612Y-36400290D01*
X91745497Y-36311148D01*
X91745498Y-36311148D01*
X91745498Y-36218856D01*
X91745497Y-36218855D01*
X91741157Y-36202659D01*
X91721612Y-36129714D01*
X91715732Y-36119530D01*
X91675469Y-36049793D01*
X91675468Y-36049792D01*
X91675467Y-36049790D01*
X91610210Y-35984533D01*
X91610207Y-35984531D01*
X91610206Y-35984530D01*
X91530287Y-35938388D01*
X91530282Y-35938386D01*
X91441144Y-35914502D01*
X91441142Y-35914502D01*
X91348854Y-35914502D01*
X91348852Y-35914502D01*
X91259713Y-35938386D01*
X91259708Y-35938388D01*
X91179789Y-35984530D01*
X91114525Y-36049794D01*
X91114525Y-36049795D01*
X91093917Y-36085488D01*
X91048983Y-36119966D01*
X90992831Y-36112572D01*
X90971131Y-36093544D01*
X90969202Y-36091031D01*
X90969197Y-36091026D01*
X90969196Y-36091024D01*
X90903939Y-36025767D01*
X90903936Y-36025765D01*
X90903935Y-36025764D01*
X90824016Y-35979622D01*
X90824011Y-35979620D01*
X90734873Y-35955736D01*
X90734871Y-35955736D01*
X90642583Y-35955736D01*
X90642581Y-35955736D01*
X90553442Y-35979620D01*
X90553437Y-35979622D01*
X90473518Y-36025764D01*
X90408255Y-36091027D01*
X90362113Y-36170946D01*
X90362111Y-36170951D01*
X90345978Y-36231162D01*
X90311500Y-36276095D01*
X90255347Y-36283487D01*
X90210414Y-36249009D01*
X90200500Y-36212009D01*
X90200500Y-33704668D01*
X90222174Y-33652342D01*
X90274500Y-33630668D01*
X90326826Y-33652342D01*
X90341172Y-33672561D01*
X90408052Y-33811440D01*
X90408054Y-33811444D01*
X90408055Y-33811445D01*
X90557477Y-34049248D01*
X90732584Y-34268825D01*
X90931175Y-34467416D01*
X91150752Y-34642523D01*
X91388555Y-34791945D01*
X91388558Y-34791946D01*
X91388559Y-34791947D01*
X91560672Y-34874832D01*
X91641592Y-34913801D01*
X91906682Y-35006560D01*
X91906687Y-35006561D01*
X91906690Y-35006562D01*
X92180486Y-35069054D01*
X92180487Y-35069054D01*
X92180491Y-35069055D01*
X92241143Y-35075888D01*
X92290712Y-35103284D01*
X92306392Y-35157708D01*
X92278996Y-35207278D01*
X92269858Y-35213508D01*
X92224792Y-35239527D01*
X92159528Y-35304791D01*
X92113386Y-35384710D01*
X92113384Y-35384715D01*
X92089500Y-35473853D01*
X92089500Y-35566146D01*
X92113384Y-35655284D01*
X92113386Y-35655289D01*
X92159528Y-35735208D01*
X92159529Y-35735209D01*
X92159531Y-35735212D01*
X92224788Y-35800469D01*
X92304712Y-35846614D01*
X92304713Y-35846614D01*
X92304715Y-35846615D01*
X92349284Y-35858557D01*
X92393853Y-35870499D01*
X92393854Y-35870500D01*
X92393856Y-35870500D01*
X92486146Y-35870500D01*
X92486146Y-35870499D01*
X92575288Y-35846614D01*
X92655212Y-35800469D01*
X92720469Y-35735212D01*
X92720475Y-35735201D01*
X92722586Y-35732452D01*
X92771637Y-35704137D01*
X92826344Y-35718798D01*
X92852770Y-35758351D01*
X92873384Y-35835284D01*
X92873386Y-35835289D01*
X92919528Y-35915208D01*
X92919529Y-35915209D01*
X92919531Y-35915212D01*
X92984788Y-35980469D01*
X92984790Y-35980470D01*
X92984791Y-35980471D01*
X93063240Y-36025764D01*
X93064712Y-36026614D01*
X93064713Y-36026614D01*
X93064715Y-36026615D01*
X93109284Y-36038557D01*
X93153853Y-36050499D01*
X93153854Y-36050500D01*
X93153856Y-36050500D01*
X93246146Y-36050500D01*
X93246146Y-36050499D01*
X93335288Y-36026614D01*
X93415212Y-35980469D01*
X93480469Y-35915212D01*
X93526614Y-35835288D01*
X93550499Y-35746146D01*
X93550500Y-35746146D01*
X93550500Y-35718929D01*
X96063876Y-35718929D01*
X96063876Y-35811222D01*
X96087760Y-35900360D01*
X96087762Y-35900365D01*
X96133904Y-35980284D01*
X96133905Y-35980285D01*
X96133907Y-35980288D01*
X96199164Y-36045545D01*
X96199166Y-36045546D01*
X96199167Y-36045547D01*
X96279086Y-36091689D01*
X96279088Y-36091690D01*
X96279089Y-36091690D01*
X96279091Y-36091691D01*
X96286007Y-36093544D01*
X96368229Y-36115575D01*
X96368230Y-36115576D01*
X96368232Y-36115576D01*
X96460522Y-36115576D01*
X96460522Y-36115575D01*
X96549664Y-36091690D01*
X96629588Y-36045545D01*
X96694845Y-35980288D01*
X96740990Y-35900364D01*
X96764875Y-35811222D01*
X96764876Y-35811222D01*
X96764876Y-35718930D01*
X96764875Y-35718929D01*
X96740991Y-35629791D01*
X96740989Y-35629786D01*
X96694847Y-35549867D01*
X96694846Y-35549866D01*
X96694845Y-35549864D01*
X96629588Y-35484607D01*
X96629585Y-35484605D01*
X96629584Y-35484604D01*
X96549665Y-35438462D01*
X96549660Y-35438460D01*
X96460522Y-35414576D01*
X96460520Y-35414576D01*
X96368232Y-35414576D01*
X96368230Y-35414576D01*
X96279091Y-35438460D01*
X96279086Y-35438462D01*
X96199167Y-35484604D01*
X96133904Y-35549867D01*
X96087762Y-35629786D01*
X96087760Y-35629791D01*
X96063876Y-35718929D01*
X93550500Y-35718929D01*
X93550500Y-35653854D01*
X93550499Y-35653853D01*
X93526615Y-35564715D01*
X93526613Y-35564710D01*
X93480471Y-35484791D01*
X93480470Y-35484790D01*
X93480469Y-35484788D01*
X93415212Y-35419531D01*
X93415209Y-35419529D01*
X93415208Y-35419528D01*
X93335289Y-35373386D01*
X93335284Y-35373384D01*
X93246146Y-35349500D01*
X93246144Y-35349500D01*
X93153856Y-35349500D01*
X93153854Y-35349500D01*
X93064715Y-35373384D01*
X93064710Y-35373386D01*
X92984791Y-35419528D01*
X92919523Y-35484796D01*
X92917405Y-35487556D01*
X92868350Y-35515864D01*
X92813646Y-35501193D01*
X92787229Y-35461648D01*
X92766614Y-35384712D01*
X92720469Y-35304788D01*
X92655212Y-35239531D01*
X92655209Y-35239529D01*
X92655208Y-35239528D01*
X92653576Y-35238586D01*
X92652996Y-35237830D01*
X92651358Y-35236573D01*
X92651694Y-35236134D01*
X92619097Y-35193653D01*
X92626490Y-35137500D01*
X92671423Y-35103021D01*
X92690576Y-35100500D01*
X92740421Y-35100500D01*
X92740425Y-35100500D01*
X93019509Y-35069055D01*
X93293318Y-35006560D01*
X93558408Y-34913801D01*
X93811445Y-34791945D01*
X94049248Y-34642523D01*
X94268825Y-34467416D01*
X94467416Y-34268825D01*
X94642523Y-34049248D01*
X94791945Y-33811445D01*
X94913801Y-33558408D01*
X95006560Y-33293318D01*
X95038392Y-33153853D01*
X101049500Y-33153853D01*
X101049500Y-33246146D01*
X101073384Y-33335284D01*
X101073386Y-33335289D01*
X101119528Y-33415208D01*
X101119529Y-33415209D01*
X101119531Y-33415212D01*
X101184788Y-33480469D01*
X101184790Y-33480470D01*
X101184791Y-33480471D01*
X101199314Y-33488856D01*
X101264712Y-33526614D01*
X101264713Y-33526614D01*
X101264715Y-33526615D01*
X101309284Y-33538557D01*
X101353853Y-33550499D01*
X101353854Y-33550500D01*
X101353856Y-33550500D01*
X101446146Y-33550500D01*
X101446146Y-33550499D01*
X101535288Y-33526614D01*
X101615212Y-33480469D01*
X101680469Y-33415212D01*
X101726614Y-33335288D01*
X101750499Y-33246146D01*
X101750500Y-33246146D01*
X101750500Y-33153854D01*
X101750499Y-33153853D01*
X101746347Y-33138359D01*
X101726614Y-33064712D01*
X101722991Y-33058437D01*
X101680471Y-32984791D01*
X101680470Y-32984790D01*
X101680469Y-32984788D01*
X101615212Y-32919531D01*
X101615209Y-32919529D01*
X101615208Y-32919528D01*
X101535289Y-32873386D01*
X101535284Y-32873384D01*
X101446146Y-32849500D01*
X101446144Y-32849500D01*
X101353856Y-32849500D01*
X101353854Y-32849500D01*
X101264715Y-32873384D01*
X101264710Y-32873386D01*
X101184791Y-32919528D01*
X101119528Y-32984791D01*
X101073386Y-33064710D01*
X101073384Y-33064715D01*
X101049500Y-33153853D01*
X95038392Y-33153853D01*
X95041928Y-33138361D01*
X95043257Y-33132539D01*
X95043257Y-33132538D01*
X95045914Y-33120895D01*
X95069055Y-33019509D01*
X95100500Y-32740425D01*
X95100500Y-32576353D01*
X97095749Y-32576353D01*
X97095749Y-32668646D01*
X97119633Y-32757784D01*
X97119635Y-32757789D01*
X97165777Y-32837708D01*
X97165778Y-32837709D01*
X97165780Y-32837712D01*
X97231037Y-32902969D01*
X97231039Y-32902970D01*
X97231040Y-32902971D01*
X97307360Y-32947035D01*
X97310961Y-32949114D01*
X97310962Y-32949114D01*
X97310964Y-32949115D01*
X97355533Y-32961057D01*
X97400102Y-32972999D01*
X97400103Y-32973000D01*
X97400105Y-32973000D01*
X97492395Y-32973000D01*
X97492395Y-32972999D01*
X97581537Y-32949114D01*
X97661461Y-32902969D01*
X97726718Y-32837712D01*
X97772863Y-32757788D01*
X97796748Y-32668646D01*
X97796749Y-32668646D01*
X97796749Y-32576354D01*
X97796748Y-32576353D01*
X97772864Y-32487215D01*
X97772862Y-32487210D01*
X97726720Y-32407291D01*
X97726719Y-32407290D01*
X97726718Y-32407288D01*
X97661461Y-32342031D01*
X97661458Y-32342029D01*
X97661457Y-32342028D01*
X97581538Y-32295886D01*
X97581533Y-32295884D01*
X97492395Y-32272000D01*
X97492393Y-32272000D01*
X97400105Y-32272000D01*
X97400103Y-32272000D01*
X97310964Y-32295884D01*
X97310959Y-32295886D01*
X97231040Y-32342028D01*
X97165777Y-32407291D01*
X97119635Y-32487210D01*
X97119633Y-32487215D01*
X97095749Y-32576353D01*
X95100500Y-32576353D01*
X95100500Y-32459575D01*
X95069055Y-32180491D01*
X95057779Y-32131088D01*
X95006562Y-31906690D01*
X95006557Y-31906674D01*
X94943045Y-31725168D01*
X94913801Y-31641592D01*
X94791945Y-31388555D01*
X94642523Y-31150752D01*
X94467416Y-30931175D01*
X94268825Y-30732584D01*
X94049248Y-30557477D01*
X93811445Y-30408055D01*
X93811444Y-30408054D01*
X93811440Y-30408052D01*
X93672561Y-30341172D01*
X93634821Y-30298941D01*
X93637996Y-30242393D01*
X93680227Y-30204653D01*
X93704668Y-30200500D01*
X104460118Y-30200500D01*
X106925500Y-30200500D01*
X106977826Y-30222174D01*
G37*
%TD.AperFunction*%
%TD*%
M02*
