%TF.GenerationSoftware,KiCad,Pcbnew,9.0.1*%
%TF.CreationDate,2025-11-25T18:55:05-05:00*%
%TF.ProjectId,OshEasyMini,4f736845-6173-4794-9d69-6e692e6b6963,rev?*%
%TF.SameCoordinates,Original*%
%TF.FileFunction,Legend,Bot*%
%TF.FilePolarity,Positive*%
%FSLAX46Y46*%
G04 Gerber Fmt 4.6, Leading zero omitted, Abs format (unit mm)*
G04 Created by KiCad (PCBNEW 9.0.1) date 2025-11-25 18:55:05*
%MOMM*%
%LPD*%
G01*
G04 APERTURE LIST*
G04 Aperture macros list*
%AMRoundRect*
0 Rectangle with rounded corners*
0 $1 Rounding radius*
0 $2 $3 $4 $5 $6 $7 $8 $9 X,Y pos of 4 corners*
0 Add a 4 corners polygon primitive as box body*
4,1,4,$2,$3,$4,$5,$6,$7,$8,$9,$2,$3,0*
0 Add four circle primitives for the rounded corners*
1,1,$1+$1,$2,$3*
1,1,$1+$1,$4,$5*
1,1,$1+$1,$6,$7*
1,1,$1+$1,$8,$9*
0 Add four rect primitives between the rounded corners*
20,1,$1+$1,$2,$3,$4,$5,0*
20,1,$1+$1,$4,$5,$6,$7,0*
20,1,$1+$1,$6,$7,$8,$9,0*
20,1,$1+$1,$8,$9,$2,$3,0*%
%AMFreePoly0*
4,1,17,1.515000,0.170000,0.915000,0.170000,0.915000,-0.080000,1.515000,-0.080000,1.515000,-0.480000,0.915000,-0.480000,0.915000,-0.505000,-0.395000,-0.505000,-0.395000,-1.005000,-0.825000,-1.005000,-0.825000,-0.625000,-0.915000,-0.625000,-0.915000,0.505000,0.815000,0.505000,0.815000,0.570000,1.515000,0.570000,1.515000,0.170000,1.515000,0.170000,$1*%
%AMFreePoly1*
4,1,17,-0.395000,0.505000,0.915000,0.505000,0.915000,0.480000,1.515000,0.480000,1.515000,0.080000,0.915000,0.080000,0.915000,-0.170000,1.515000,-0.170000,1.515000,-0.570000,0.815000,-0.570000,0.815000,-0.505000,-0.915000,-0.505000,-0.915000,0.625000,-0.825000,0.625000,-0.825000,1.005000,-0.395000,1.005000,-0.395000,0.505000,-0.395000,0.505000,$1*%
%AMFreePoly2*
4,1,15,1.100000,0.175000,0.750000,0.175000,0.750000,-0.175000,1.100000,-0.175000,1.100000,-0.475000,0.750000,-0.475000,-0.750000,-0.475000,-1.100000,-0.475000,-1.100000,-0.175000,-0.750000,-0.175000,-0.750000,0.175000,-1.100000,0.175000,-1.100000,0.475000,1.100000,0.475000,1.100000,0.175000,1.100000,0.175000,$1*%
G04 Aperture macros list end*
%ADD10C,0.120000*%
%ADD11C,0.100000*%
%ADD12C,0.152400*%
%ADD13C,1.100000*%
%ADD14RoundRect,0.249999X-0.850001X-0.850001X0.850001X-0.850001X0.850001X0.850001X-0.850001X0.850001X0*%
%ADD15C,2.200000*%
%ADD16RoundRect,0.250000X0.350000X0.625000X-0.350000X0.625000X-0.350000X-0.625000X0.350000X-0.625000X0*%
%ADD17O,1.200000X1.750000*%
%ADD18C,4.700000*%
%ADD19RoundRect,0.140000X0.140000X0.170000X-0.140000X0.170000X-0.140000X-0.170000X0.140000X-0.170000X0*%
%ADD20RoundRect,0.150000X0.150000X0.450000X-0.150000X0.450000X-0.150000X-0.450000X0.150000X-0.450000X0*%
%ADD21RoundRect,0.100000X0.100000X-0.130000X0.100000X0.130000X-0.100000X0.130000X-0.100000X-0.130000X0*%
%ADD22RoundRect,0.135000X-0.185000X0.135000X-0.185000X-0.135000X0.185000X-0.135000X0.185000X0.135000X0*%
%ADD23RoundRect,0.135000X0.185000X-0.135000X0.185000X0.135000X-0.185000X0.135000X-0.185000X-0.135000X0*%
%ADD24RoundRect,0.140000X0.170000X-0.140000X0.170000X0.140000X-0.170000X0.140000X-0.170000X-0.140000X0*%
%ADD25R,0.550000X0.950000*%
%ADD26RoundRect,0.140000X-0.140000X-0.170000X0.140000X-0.170000X0.140000X0.170000X-0.140000X0.170000X0*%
%ADD27RoundRect,0.100000X-0.100000X0.130000X-0.100000X-0.130000X0.100000X-0.130000X0.100000X0.130000X0*%
%ADD28RoundRect,0.147500X0.172500X-0.147500X0.172500X0.147500X-0.172500X0.147500X-0.172500X-0.147500X0*%
%ADD29RoundRect,0.100000X-0.400000X0.400000X-0.400000X-0.400000X0.400000X-0.400000X0.400000X0.400000X0*%
%ADD30RoundRect,0.105000X-0.995000X0.420000X-0.995000X-0.420000X0.995000X-0.420000X0.995000X0.420000X0*%
%ADD31RoundRect,0.100000X0.130000X0.100000X-0.130000X0.100000X-0.130000X-0.100000X0.130000X-0.100000X0*%
%ADD32RoundRect,0.140000X-0.170000X0.140000X-0.170000X-0.140000X0.170000X-0.140000X0.170000X0.140000X0*%
%ADD33RoundRect,0.147500X0.147500X0.172500X-0.147500X0.172500X-0.147500X-0.172500X0.147500X-0.172500X0*%
%ADD34RoundRect,0.147500X-0.147500X-0.172500X0.147500X-0.172500X0.147500X0.172500X-0.147500X0.172500X0*%
%ADD35R,0.304800X0.762000*%
%ADD36R,3.098800X2.387600*%
%ADD37R,0.350000X0.760000*%
%ADD38FreePoly0,270.000000*%
%ADD39FreePoly1,270.000000*%
%ADD40R,2.000000X5.080000*%
%ADD41RoundRect,0.150000X-0.150000X0.512500X-0.150000X-0.512500X0.150000X-0.512500X0.150000X0.512500X0*%
%ADD42FreePoly2,180.000000*%
%ADD43RoundRect,0.075000X0.100000X0.075000X-0.100000X0.075000X-0.100000X-0.075000X0.100000X-0.075000X0*%
%ADD44RoundRect,0.058750X0.376250X0.058750X-0.376250X0.058750X-0.376250X-0.058750X0.376250X-0.058750X0*%
%ADD45RoundRect,0.150000X0.325000X0.150000X-0.325000X0.150000X-0.325000X-0.150000X0.325000X-0.150000X0*%
%ADD46RoundRect,0.150000X0.150000X0.325000X-0.150000X0.325000X-0.150000X-0.325000X0.150000X-0.325000X0*%
%ADD47RoundRect,0.150000X-0.587500X-0.150000X0.587500X-0.150000X0.587500X0.150000X-0.587500X0.150000X0*%
%ADD48RoundRect,0.100000X-0.130000X-0.100000X0.130000X-0.100000X0.130000X0.100000X-0.130000X0.100000X0*%
%ADD49C,0.370000*%
%ADD50C,0.990600*%
%ADD51C,0.787400*%
%ADD52RoundRect,0.150000X0.150000X-0.512500X0.150000X0.512500X-0.150000X0.512500X-0.150000X-0.512500X0*%
%ADD53R,0.900000X0.800000*%
%ADD54RoundRect,0.062500X-0.375000X-0.062500X0.375000X-0.062500X0.375000X0.062500X-0.375000X0.062500X0*%
%ADD55RoundRect,0.062500X-0.062500X-0.375000X0.062500X-0.375000X0.062500X0.375000X-0.062500X0.375000X0*%
%ADD56R,3.450000X3.450000*%
%ADD57FreePoly2,0.000000*%
%ADD58RoundRect,0.075000X-0.100000X-0.075000X0.100000X-0.075000X0.100000X0.075000X-0.100000X0.075000X0*%
%ADD59RoundRect,0.058750X-0.376250X-0.058750X0.376250X-0.058750X0.376250X0.058750X-0.376250X0.058750X0*%
G04 APERTURE END LIST*
D10*
%TO.C,C42*%
X99487342Y-31320235D02*
X99271670Y-31320235D01*
X99487342Y-32040235D02*
X99271670Y-32040235D01*
%TO.C,Y2*%
X93470203Y-54597890D02*
X93390203Y-54597890D01*
X93470203Y-56117890D02*
X93390203Y-56117890D01*
X94590203Y-54757890D02*
X94590203Y-55957890D01*
%TO.C,C39*%
X100623728Y-36220123D02*
X100408056Y-36220123D01*
X100623728Y-36940123D02*
X100408056Y-36940123D01*
%TO.C,R15*%
X94810000Y-57426359D02*
X94810000Y-57733641D01*
X95570000Y-57426359D02*
X95570000Y-57733641D01*
%TO.C,R54*%
X96662106Y-51254896D02*
X96662106Y-50947614D01*
X97422106Y-51254896D02*
X97422106Y-50947614D01*
%TO.C,C41*%
X99483127Y-32237834D02*
X99267455Y-32237834D01*
X99483127Y-32957834D02*
X99267455Y-32957834D01*
%TO.C,C7*%
X106110391Y-37070967D02*
X106110391Y-36855295D01*
X106830391Y-37070967D02*
X106830391Y-36855295D01*
%TO.C,U4*%
X101813365Y-41609904D02*
X101813364Y-42359904D01*
X101813365Y-44109904D02*
X101813365Y-44609904D01*
X101813365Y-44609904D02*
X102313365Y-44609904D01*
X106513365Y-44609904D02*
X107013365Y-44609904D01*
X107013365Y-41309904D02*
X106513365Y-41309904D01*
X107013365Y-41809904D02*
X107013365Y-41309904D01*
X107013365Y-44609904D02*
X107013365Y-44109904D01*
X101813365Y-41409904D02*
X101453364Y-41409904D01*
X101813364Y-41049904D01*
X101813365Y-41409904D01*
G36*
X101813365Y-41409904D02*
G01*
X101453364Y-41409904D01*
X101813364Y-41049904D01*
X101813365Y-41409904D01*
G37*
%TO.C,C27*%
X99462164Y-41770000D02*
X99677836Y-41770000D01*
X99462164Y-42490000D02*
X99677836Y-42490000D01*
%TO.C,C9*%
X100840000Y-42387836D02*
X100840000Y-42172164D01*
X101560000Y-42387836D02*
X101560000Y-42172164D01*
%TO.C,C13*%
X91123142Y-38300977D02*
X91338814Y-38300977D01*
X91123142Y-39020977D02*
X91338814Y-39020977D01*
%TO.C,C37*%
X100378413Y-38102500D02*
X100594085Y-38102500D01*
X100378413Y-38822500D02*
X100594085Y-38822500D01*
%TO.C,R19*%
X90520000Y-55580725D02*
X90520000Y-55273443D01*
X91280000Y-55580725D02*
X91280000Y-55273443D01*
%TO.C,J5*%
X98826594Y-53770378D02*
X98826594Y-54570378D01*
X98826594Y-55970378D02*
X98826594Y-56770378D01*
X98826594Y-56770378D02*
X99026594Y-56770378D01*
X99026594Y-53770378D02*
X98826594Y-53770378D01*
X101626594Y-56770378D02*
X101826594Y-56770378D01*
X101826594Y-53970378D02*
X101626594Y-53770378D01*
X101826594Y-54570378D02*
X101826594Y-53970378D01*
X101826594Y-54570378D02*
X102326594Y-54570378D01*
X101826594Y-55970378D02*
X102326594Y-55970378D01*
X101826594Y-56770378D02*
X101826594Y-55970378D01*
%TO.C,C36*%
X97598005Y-31562931D02*
X97598005Y-31778603D01*
X98318005Y-31562931D02*
X98318005Y-31778603D01*
D11*
%TO.C,D6*%
X96791183Y-56071328D02*
G75*
G02*
X96691185Y-56071328I-49999J0D01*
G01*
X96691185Y-56071328D02*
G75*
G02*
X96791183Y-56071328I49999J0D01*
G01*
D10*
%TO.C,R12*%
X95126249Y-35308859D02*
X95126249Y-35616141D01*
X95886249Y-35308859D02*
X95886249Y-35616141D01*
D12*
%TO.C,U19*%
X98278150Y-48246800D02*
X98764560Y-48246800D01*
X98278150Y-52590200D02*
X98278150Y-48246800D01*
X98764560Y-52590200D02*
X98278150Y-52590200D01*
X102135140Y-48246800D02*
X102621550Y-48246800D01*
X102621550Y-48246800D02*
X102621550Y-52590200D01*
X102621550Y-52590200D02*
X102135140Y-52590200D01*
X101751600Y-53618900D02*
G75*
G02*
X101548400Y-53618900I-101600J0D01*
G01*
X101548400Y-53618900D02*
G75*
G02*
X101751600Y-53618900I101600J0D01*
G01*
D11*
%TO.C,U20*%
X91318463Y-56703325D02*
X91318463Y-58103325D01*
X91318463Y-58103325D02*
X91318463Y-59903325D01*
X91318463Y-59903325D02*
X94518463Y-59903325D01*
X94518463Y-56703325D02*
X91318463Y-56703325D01*
X94518463Y-59903325D02*
X94518463Y-56703325D01*
X91509884Y-56303325D02*
G75*
G02*
X91227042Y-56303325I-141421J0D01*
G01*
X91227042Y-56303325D02*
G75*
G02*
X91509884Y-56303325I141421J0D01*
G01*
D10*
%TO.C,C31*%
X96646249Y-33434664D02*
X96646249Y-33650336D01*
X97366249Y-33434664D02*
X97366249Y-33650336D01*
%TO.C,U2*%
X97859999Y-44377500D02*
X97859999Y-46197500D01*
X97859999Y-46197500D02*
X97909999Y-46197500D01*
X97909999Y-44377500D02*
X97859999Y-44377500D01*
X100929999Y-46197500D02*
X100979999Y-46197500D01*
X100979999Y-44377500D02*
X100929999Y-44377500D01*
X100979999Y-46197500D02*
X100979999Y-44377500D01*
X97909999Y-43837500D02*
X97579999Y-44077500D01*
X97579999Y-43597500D01*
X97909999Y-43837500D01*
G36*
X97909999Y-43837500D02*
G01*
X97579999Y-44077500D01*
X97579999Y-43597500D01*
X97909999Y-43837500D01*
G37*
%TO.C,R21*%
X98538131Y-64128951D02*
X98538131Y-63821669D01*
X99298131Y-64128951D02*
X99298131Y-63821669D01*
%TO.C,C43*%
X96708908Y-49348362D02*
X96708908Y-49132690D01*
X97428908Y-49348362D02*
X97428908Y-49132690D01*
%TO.C,C33*%
X99818909Y-40008044D02*
X99603237Y-40008044D01*
X99818909Y-40728044D02*
X99603237Y-40728044D01*
%TO.C,C38*%
X99460660Y-35031932D02*
X99460660Y-34816260D01*
X100180660Y-35031932D02*
X100180660Y-34816260D01*
%TO.C,Q3*%
X104683812Y-62448127D02*
X106683812Y-62448127D01*
X106453812Y-60148127D02*
X104683812Y-60148127D01*
X107053812Y-60238127D02*
X106773812Y-60238127D01*
X106773812Y-59958127D01*
X107053812Y-60238127D01*
G36*
X107053812Y-60238127D02*
G01*
X106773812Y-60238127D01*
X106773812Y-59958127D01*
X107053812Y-60238127D01*
G37*
%TO.C,U3*%
X102590000Y-35790000D02*
X102590000Y-35840001D01*
X102590000Y-40959999D02*
X102590000Y-41010000D01*
X102590000Y-41010000D02*
X103640000Y-41010000D01*
X103640000Y-35790000D02*
X102590000Y-35790000D01*
X104760000Y-41010000D02*
X105810000Y-41010000D01*
X105810000Y-35790000D02*
X104760000Y-35790000D01*
X105810000Y-35840001D02*
X105810000Y-35790000D01*
X105810000Y-41010000D02*
X105810000Y-40959999D01*
X106270000Y-36640000D02*
X105940000Y-36400000D01*
X106270000Y-36160000D01*
X106270000Y-36640000D01*
G36*
X106270000Y-36640000D02*
G01*
X105940000Y-36400000D01*
X106270000Y-36160000D01*
X106270000Y-36640000D01*
G37*
%TO.C,R18*%
X95783770Y-59601015D02*
X95783770Y-59293733D01*
X96543770Y-59601015D02*
X96543770Y-59293733D01*
%TO.C,U6*%
X103290000Y-44990000D02*
X103290000Y-45040000D01*
X103290000Y-46160000D02*
X103290000Y-46940000D01*
X103290000Y-48060000D02*
X103290000Y-48110000D01*
X103290000Y-48110000D02*
X104810000Y-48110000D01*
X104810000Y-44990000D02*
X103290000Y-44990000D01*
X104810000Y-45990000D02*
X104810000Y-44990000D01*
X104810000Y-48110000D02*
X104810000Y-47110000D01*
X102750000Y-46930000D02*
X102510000Y-46600000D01*
X102990000Y-46600000D01*
X102750000Y-46930000D01*
G36*
X102750000Y-46930000D02*
G01*
X102510000Y-46600000D01*
X102990000Y-46600000D01*
X102750000Y-46930000D01*
G37*
%TO.C,R16*%
X90234999Y-57257368D02*
X90234999Y-57564650D01*
X90994999Y-57257368D02*
X90994999Y-57564650D01*
%TO.C,C25*%
X90240000Y-44127836D02*
X90240000Y-43912164D01*
X90960000Y-44127836D02*
X90960000Y-43912164D01*
%TO.C,C8*%
X106123237Y-38706137D02*
X106123237Y-38921809D01*
X106843237Y-38706137D02*
X106843237Y-38921809D01*
%TO.C,C26*%
X95670906Y-44230231D02*
X95455234Y-44230231D01*
X95670906Y-44950231D02*
X95455234Y-44950231D01*
%TO.C,U1*%
X90909541Y-48705000D02*
X90909541Y-52495000D01*
X91909541Y-53495000D02*
X95699541Y-53495000D01*
X95699541Y-48705000D02*
X90909541Y-48705000D01*
X95699541Y-53495000D02*
X95699541Y-48705000D01*
X90909541Y-53995000D02*
X90409541Y-53495000D01*
X90909541Y-53495000D01*
X90909541Y-53995000D01*
G36*
X90909541Y-53995000D02*
G01*
X90409541Y-53495000D01*
X90909541Y-53495000D01*
X90909541Y-53995000D01*
G37*
%TO.C,J1*%
X103995000Y-53050000D02*
X103995000Y-53685000D01*
X103995000Y-53685000D02*
X104630000Y-53685000D01*
%TO.C,U17*%
X99322500Y-59290000D02*
X99322500Y-61110000D01*
X99322500Y-61110000D02*
X99372500Y-61110000D01*
X99372500Y-59290000D02*
X99322500Y-59290000D01*
X101272500Y-59290000D02*
X100492500Y-59290000D01*
X102392500Y-61110000D02*
X102442500Y-61110000D01*
X102442500Y-59290000D02*
X102392500Y-59290000D01*
X102442500Y-61110000D02*
X102442500Y-59290000D01*
X102722500Y-61890000D02*
X102392500Y-61650000D01*
X102722500Y-61410000D01*
X102722500Y-61890000D01*
G36*
X102722500Y-61890000D02*
G01*
X102392500Y-61650000D01*
X102722500Y-61410000D01*
X102722500Y-61890000D01*
G37*
%TO.C,Y1*%
X92960000Y-43090000D02*
X92740000Y-43090000D01*
X92960000Y-45310000D02*
X92740000Y-45310000D01*
X93600000Y-45490000D02*
X94390000Y-45490000D01*
X94390000Y-44700000D02*
X94390000Y-45490000D01*
%TO.C,C35*%
X96657289Y-31561654D02*
X96657289Y-31777326D01*
X97377289Y-31561654D02*
X97377289Y-31777326D01*
%TO.C,R13*%
X94807660Y-59591164D02*
X94807660Y-59283882D01*
X95567660Y-59591164D02*
X95567660Y-59283882D01*
%TO.C,C40*%
X97974962Y-35281281D02*
X97974962Y-35496953D01*
X98694962Y-35281281D02*
X98694962Y-35496953D01*
%TO.C,C10*%
X106007836Y-45140000D02*
X105792164Y-45140000D01*
X106007836Y-45860000D02*
X105792164Y-45860000D01*
%TO.C,R37*%
X102700000Y-60683640D02*
X102700000Y-60376358D01*
X103460000Y-60683640D02*
X103460000Y-60376358D01*
%TO.C,C20*%
X98360000Y-59377836D02*
X98360000Y-59162164D01*
X99080000Y-59377836D02*
X99080000Y-59162164D01*
%TO.C,C21*%
X103292164Y-64440000D02*
X103507836Y-64440000D01*
X103292164Y-65160000D02*
X103507836Y-65160000D01*
%TO.C,U8*%
X92665000Y-36915000D02*
X92665000Y-37390000D01*
X92665000Y-41660000D02*
X92665000Y-42135000D01*
X92665000Y-42135000D02*
X93140000Y-42135000D01*
X93140000Y-36915000D02*
X92665000Y-36915000D01*
X97410000Y-42135000D02*
X97885000Y-42135000D01*
X97885000Y-36915000D02*
X97410000Y-36915000D01*
X97885000Y-37390000D02*
X97885000Y-36915000D01*
X97885000Y-42135000D02*
X97885000Y-41660000D01*
X92135000Y-41275000D02*
X91805000Y-41515000D01*
X91805000Y-41035000D01*
X92135000Y-41275000D01*
G36*
X92135000Y-41275000D02*
G01*
X91805000Y-41515000D01*
X91805000Y-41035000D01*
X92135000Y-41275000D01*
G37*
%TO.C,Q1*%
X104910271Y-65025000D02*
X106680271Y-65025000D01*
X106680271Y-62725000D02*
X104680271Y-62725000D01*
X104590271Y-65215000D02*
X104310271Y-64935000D01*
X104590271Y-64935000D01*
X104590271Y-65215000D01*
G36*
X104590271Y-65215000D02*
G01*
X104310271Y-64935000D01*
X104590271Y-64935000D01*
X104590271Y-65215000D01*
G37*
%TO.C,R14*%
X90234999Y-59474650D02*
X90234999Y-59167368D01*
X90994999Y-59474650D02*
X90994999Y-59167368D01*
%TO.C,R48*%
X97566249Y-33368859D02*
X97566249Y-33676141D01*
X98326249Y-33368859D02*
X98326249Y-33676141D01*
%TD*%
%LPC*%
D13*
%TO.C,J4*%
X91620000Y-64390000D03*
X94160000Y-64390000D03*
X96700000Y-64390000D03*
D14*
X91620000Y-61850000D03*
D15*
X94160000Y-61850000D03*
X96700000Y-61850000D03*
%TD*%
D16*
%TO.C,J6*%
X103180000Y-63250000D03*
D17*
X101180000Y-63250000D03*
%TD*%
D18*
%TO.C,H2*%
X92600000Y-32600000D03*
%TD*%
%TO.C,H1*%
X104600000Y-57350000D03*
%TD*%
D19*
%TO.C,C42*%
X99859506Y-31680235D03*
X98899506Y-31680235D03*
%TD*%
D20*
%TO.C,Y2*%
X94030203Y-55357890D03*
X92830203Y-55357890D03*
%TD*%
D19*
%TO.C,C39*%
X100995892Y-36580123D03*
X100035892Y-36580123D03*
%TD*%
D21*
%TO.C,R59*%
X98840000Y-61220000D03*
X98840000Y-60580000D03*
%TD*%
%TO.C,R9*%
X101560000Y-47230000D03*
X101560000Y-46590000D03*
%TD*%
D22*
%TO.C,R15*%
X95190000Y-57070000D03*
X95190000Y-58090000D03*
%TD*%
D23*
%TO.C,R54*%
X97042106Y-51611254D03*
X97042106Y-50591256D03*
%TD*%
D19*
%TO.C,C41*%
X99855291Y-32597834D03*
X98895291Y-32597834D03*
%TD*%
D24*
%TO.C,C7*%
X106470391Y-37443131D03*
X106470391Y-36483131D03*
%TD*%
D25*
%TO.C,U4*%
X102538365Y-41884904D03*
X103788365Y-41884904D03*
X105038365Y-41884904D03*
X106288365Y-41884904D03*
X106288365Y-44034904D03*
X105038365Y-44034904D03*
X103788365Y-44034904D03*
X102538365Y-44034904D03*
%TD*%
D26*
%TO.C,C27*%
X99090000Y-42130000D03*
X100050000Y-42130000D03*
%TD*%
D27*
%TO.C,R4*%
X96042992Y-57445294D03*
X96042992Y-58085294D03*
%TD*%
D21*
%TO.C,C50*%
X95030356Y-43724934D03*
X95030356Y-43084934D03*
%TD*%
D28*
%TO.C,L2*%
X97408749Y-35862499D03*
X97408749Y-34892499D03*
%TD*%
D24*
%TO.C,C9*%
X101200000Y-42760000D03*
X101200000Y-41800000D03*
%TD*%
D26*
%TO.C,C13*%
X90750978Y-38660977D03*
X91710978Y-38660977D03*
%TD*%
D21*
%TO.C,C51*%
X96790000Y-43700000D03*
X96790000Y-43060000D03*
%TD*%
D26*
%TO.C,C37*%
X100006249Y-38462500D03*
X100966249Y-38462500D03*
%TD*%
D28*
%TO.C,L1*%
X99106249Y-39362500D03*
X99106249Y-38392500D03*
%TD*%
D23*
%TO.C,R19*%
X90900000Y-55937083D03*
X90900000Y-54917085D03*
%TD*%
D29*
%TO.C,J5*%
X98826594Y-55270378D03*
D30*
X100326594Y-56745379D03*
D29*
X101826594Y-55270378D03*
D30*
X100326594Y-53795377D03*
%TD*%
D21*
%TO.C,R5*%
X91737569Y-55548425D03*
X91737569Y-54908425D03*
%TD*%
D31*
%TO.C,C49*%
X100079899Y-41200000D03*
X99439899Y-41200000D03*
%TD*%
D32*
%TO.C,C36*%
X97958005Y-31190767D03*
X97958005Y-32150767D03*
%TD*%
D33*
%TO.C,D6*%
X96136185Y-56071328D03*
X95166185Y-56071328D03*
%TD*%
D34*
%TO.C,L6*%
X98870408Y-33536292D03*
X99840408Y-33536292D03*
%TD*%
D22*
%TO.C,R12*%
X95506249Y-34952501D03*
X95506249Y-35972499D03*
%TD*%
D35*
%TO.C,U19*%
X101650000Y-52387000D03*
X100849900Y-52387000D03*
X100049800Y-52387000D03*
X99249700Y-52387000D03*
X99249700Y-48450000D03*
X100049800Y-48450000D03*
X100849900Y-48450000D03*
X101650000Y-48450000D03*
D36*
X100449850Y-50418500D03*
%TD*%
D27*
%TO.C,C48*%
X94677814Y-35353629D03*
X94677814Y-35993629D03*
%TD*%
D37*
%TO.C,U20*%
X91943463Y-56783325D03*
X92593463Y-56783325D03*
X93243463Y-56783325D03*
X93893463Y-56783325D03*
D38*
X92223463Y-58748325D03*
D39*
X93613463Y-58748325D03*
%TD*%
D40*
%TO.C,J3*%
X103600000Y-32800000D03*
%TD*%
D32*
%TO.C,C31*%
X97006249Y-33062500D03*
X97006249Y-34022500D03*
%TD*%
D41*
%TO.C,U2*%
X98470000Y-44150000D03*
X99419999Y-44150000D03*
X100369998Y-44150000D03*
X100369998Y-46425000D03*
X99419999Y-46425000D03*
X98470000Y-46425000D03*
%TD*%
D27*
%TO.C,R1*%
X101550000Y-45175000D03*
X101550000Y-45815000D03*
%TD*%
%TO.C,R46*%
X96992341Y-59471811D03*
X96992341Y-60111811D03*
%TD*%
D23*
%TO.C,R21*%
X98918131Y-64485309D03*
X98918131Y-63465311D03*
%TD*%
D24*
%TO.C,C43*%
X97068908Y-49720526D03*
X97068908Y-48760526D03*
%TD*%
D19*
%TO.C,C33*%
X100191073Y-40368044D03*
X99231073Y-40368044D03*
%TD*%
D24*
%TO.C,C38*%
X99820660Y-35404096D03*
X99820660Y-34444096D03*
%TD*%
D42*
%TO.C,Q3*%
X105683812Y-60973127D03*
D43*
X106608812Y-61948127D03*
D44*
X105643812Y-61948127D03*
D43*
X104758812Y-61948127D03*
%TD*%
D21*
%TO.C,C47*%
X95737384Y-43713246D03*
X95737384Y-43073246D03*
%TD*%
D33*
%TO.C,L4*%
X101026826Y-37522156D03*
X100056826Y-37522156D03*
%TD*%
D45*
%TO.C,U3*%
X105200000Y-36400000D03*
X105200000Y-37200000D03*
X105200000Y-38000000D03*
X105200000Y-38800000D03*
X105200000Y-39600000D03*
X105200000Y-40400000D03*
D46*
X104200000Y-40400001D03*
D45*
X103200000Y-40400000D03*
X103200000Y-39600000D03*
X103200000Y-38800000D03*
X103200000Y-38000000D03*
X103200000Y-37200000D03*
X103200000Y-36400000D03*
D46*
X104200000Y-36399999D03*
%TD*%
D28*
%TO.C,L7*%
X100806249Y-33747500D03*
X100806249Y-32777500D03*
%TD*%
%TO.C,L5*%
X100806249Y-35632500D03*
X100806249Y-34662500D03*
%TD*%
D23*
%TO.C,R18*%
X96163770Y-59957373D03*
X96163770Y-58937375D03*
%TD*%
D47*
%TO.C,U6*%
X103112500Y-47500000D03*
X103112500Y-45600000D03*
X104987501Y-46550000D03*
%TD*%
D27*
%TO.C,C29*%
X96325350Y-35169319D03*
X96325350Y-35809319D03*
%TD*%
D22*
%TO.C,R16*%
X90614999Y-56901009D03*
X90614999Y-57921009D03*
%TD*%
D24*
%TO.C,C25*%
X90600000Y-44500000D03*
X90600000Y-43540000D03*
%TD*%
D48*
%TO.C,R56*%
X97003630Y-56131971D03*
X97643630Y-56131971D03*
%TD*%
D32*
%TO.C,C8*%
X106483237Y-38333973D03*
X106483237Y-39293973D03*
%TD*%
D21*
%TO.C,R47*%
X97694626Y-60096616D03*
X97694626Y-59456616D03*
%TD*%
D19*
%TO.C,C26*%
X96043070Y-44590231D03*
X95083070Y-44590231D03*
%TD*%
D49*
%TO.C,U1*%
X91304541Y-53100000D03*
X91804541Y-53100000D03*
X92304541Y-53100000D03*
X92804541Y-53100000D03*
X93304541Y-53100001D03*
X93804541Y-53100000D03*
X94304541Y-53100000D03*
X94804541Y-53100000D03*
X95304541Y-53100000D03*
X91304541Y-52600000D03*
X91804541Y-52600000D03*
X94804541Y-52600000D03*
X95304541Y-52600000D03*
X91304541Y-52100000D03*
X92304541Y-52100000D03*
X92804541Y-52100000D03*
X93304541Y-52100000D03*
X93804541Y-52100000D03*
X94304541Y-52100000D03*
X95304541Y-52100000D03*
X91304541Y-51600000D03*
X91804541Y-51600000D03*
X95304541Y-51600000D03*
X91304540Y-51100000D03*
X91804541Y-51100000D03*
X92304541Y-51100000D03*
X92804542Y-51100000D03*
X94304541Y-51100000D03*
X95304542Y-51100000D03*
X91304541Y-50600000D03*
X92304541Y-50600000D03*
X92804541Y-50600000D03*
X94304541Y-50600000D03*
X95304541Y-50600000D03*
X91304541Y-50100000D03*
X92304541Y-50100000D03*
X92804541Y-50100000D03*
X93304541Y-50100000D03*
X93804541Y-50100000D03*
X94304541Y-50100000D03*
X95304541Y-50100000D03*
X91304541Y-49600000D03*
X94804541Y-49600000D03*
X95304541Y-49600000D03*
X91304541Y-49100000D03*
X91804541Y-49100000D03*
X92304541Y-49100000D03*
X92804541Y-49100000D03*
X93304541Y-49099999D03*
X93804541Y-49100000D03*
X94304541Y-49100000D03*
X94804541Y-49100000D03*
X95304541Y-49100000D03*
%TD*%
D50*
%TO.C,J1*%
X105265000Y-54320000D03*
X104249000Y-49240000D03*
X106281000Y-49240000D03*
D51*
X104630000Y-53050000D03*
X105900000Y-53050000D03*
X104630000Y-51780000D03*
X105900000Y-51780000D03*
X104630000Y-50510000D03*
X105900000Y-50510000D03*
%TD*%
D52*
%TO.C,U17*%
X101832500Y-61337500D03*
X100882500Y-61337500D03*
X99932500Y-61337500D03*
X99932500Y-59062500D03*
X101832500Y-59062500D03*
%TD*%
D48*
%TO.C,C32*%
X91097455Y-41311201D03*
X91737455Y-41311201D03*
%TD*%
D27*
%TO.C,R52*%
X98840000Y-62030000D03*
X98840000Y-62670000D03*
%TD*%
D53*
%TO.C,Y1*%
X93675000Y-44825000D03*
X92025000Y-44825000D03*
X92025000Y-43575000D03*
X93675000Y-43575000D03*
%TD*%
D32*
%TO.C,C35*%
X97017289Y-31189490D03*
X97017289Y-32149490D03*
%TD*%
D28*
%TO.C,FB2*%
X97059974Y-53456571D03*
X97059974Y-52486571D03*
%TD*%
%TO.C,L8*%
X100795707Y-31851209D03*
X100795707Y-30881209D03*
%TD*%
D23*
%TO.C,R13*%
X95187660Y-59947523D03*
X95187660Y-58927523D03*
%TD*%
D21*
%TO.C,C30*%
X97514460Y-43690672D03*
X97514460Y-43050672D03*
%TD*%
D32*
%TO.C,C40*%
X98334962Y-34909117D03*
X98334962Y-35869117D03*
%TD*%
D34*
%TO.C,L3*%
X100025425Y-39427157D03*
X100995425Y-39427157D03*
%TD*%
D48*
%TO.C,C34*%
X91088777Y-39514107D03*
X91728777Y-39514107D03*
%TD*%
D19*
%TO.C,C10*%
X106380000Y-45500000D03*
X105420000Y-45500000D03*
%TD*%
D23*
%TO.C,R37*%
X103080000Y-61039998D03*
X103080000Y-60020000D03*
%TD*%
D24*
%TO.C,C20*%
X98720000Y-59750000D03*
X98720000Y-58790000D03*
%TD*%
D26*
%TO.C,C21*%
X102920000Y-64800000D03*
X103880000Y-64800000D03*
%TD*%
D54*
%TO.C,U8*%
X92837500Y-41275000D03*
X92837500Y-40775000D03*
X92837500Y-40275000D03*
X92837500Y-39775000D03*
X92837500Y-39275000D03*
X92837500Y-38775000D03*
X92837500Y-38275000D03*
X92837500Y-37775000D03*
D55*
X93525000Y-37087500D03*
X94025000Y-37087500D03*
X94525000Y-37087500D03*
X95025000Y-37087500D03*
X95525000Y-37087500D03*
X96025000Y-37087500D03*
X96525000Y-37087500D03*
X97025000Y-37087500D03*
D54*
X97712500Y-37775000D03*
X97712500Y-38275000D03*
X97712500Y-38775000D03*
X97712500Y-39275000D03*
X97712500Y-39775000D03*
X97712500Y-40275000D03*
X97712500Y-40775000D03*
X97712500Y-41275000D03*
D55*
X97025000Y-41962500D03*
X96525000Y-41962500D03*
X96025000Y-41962500D03*
X95525000Y-41962500D03*
X95025000Y-41962500D03*
X94525000Y-41962500D03*
X94025000Y-41962500D03*
X93525000Y-41962500D03*
D56*
X95275000Y-39525000D03*
%TD*%
D57*
%TO.C,Q1*%
X105680271Y-64200000D03*
D58*
X104755271Y-63225000D03*
D59*
X105720271Y-63225000D03*
D58*
X106605271Y-63225000D03*
%TD*%
D23*
%TO.C,R14*%
X90614999Y-59831009D03*
X90614999Y-58811009D03*
%TD*%
D22*
%TO.C,R48*%
X97946249Y-33012501D03*
X97946249Y-34032499D03*
%TD*%
%LPD*%
M02*
