%TF.GenerationSoftware,KiCad,Pcbnew,9.0.7*%
%TF.CreationDate,2026-02-19T22:00:42-05:00*%
%TF.ProjectId,OshEasyMini,4f736845-6173-4794-9d69-6e692e6b6963,rev?*%
%TF.SameCoordinates,Original*%
%TF.FileFunction,Copper,L3,Inr*%
%TF.FilePolarity,Positive*%
%FSLAX46Y46*%
G04 Gerber Fmt 4.6, Leading zero omitted, Abs format (unit mm)*
G04 Created by KiCad (PCBNEW 9.0.7) date 2026-02-19 22:00:42*
%MOMM*%
%LPD*%
G01*
G04 APERTURE LIST*
G04 Aperture macros list*
%AMRoundRect*
0 Rectangle with rounded corners*
0 $1 Rounding radius*
0 $2 $3 $4 $5 $6 $7 $8 $9 X,Y pos of 4 corners*
0 Add a 4 corners polygon primitive as box body*
4,1,4,$2,$3,$4,$5,$6,$7,$8,$9,$2,$3,0*
0 Add four circle primitives for the rounded corners*
1,1,$1+$1,$2,$3*
1,1,$1+$1,$4,$5*
1,1,$1+$1,$6,$7*
1,1,$1+$1,$8,$9*
0 Add four rect primitives between the rounded corners*
20,1,$1+$1,$2,$3,$4,$5,0*
20,1,$1+$1,$4,$5,$6,$7,0*
20,1,$1+$1,$6,$7,$8,$9,0*
20,1,$1+$1,$8,$9,$2,$3,0*%
G04 Aperture macros list end*
%TA.AperFunction,ComponentPad*%
%ADD10RoundRect,0.249999X-0.850001X-0.850001X0.850001X-0.850001X0.850001X0.850001X-0.850001X0.850001X0*%
%TD*%
%TA.AperFunction,ComponentPad*%
%ADD11C,2.200000*%
%TD*%
%TA.AperFunction,ComponentPad*%
%ADD12RoundRect,0.250000X0.350000X0.625000X-0.350000X0.625000X-0.350000X-0.625000X0.350000X-0.625000X0*%
%TD*%
%TA.AperFunction,ComponentPad*%
%ADD13O,1.200000X1.750000*%
%TD*%
%TA.AperFunction,ComponentPad*%
%ADD14C,4.700000*%
%TD*%
%TA.AperFunction,ViaPad*%
%ADD15C,0.400000*%
%TD*%
%TA.AperFunction,Conductor*%
%ADD16C,0.160000*%
%TD*%
G04 APERTURE END LIST*
D10*
%TO.N,/FET_B*%
%TO.C,J4*%
X91620000Y-61850000D03*
D11*
%TO.N,/FET_A*%
X94160000Y-61850000D03*
%TO.N,V_LIPO*%
X96700000Y-61850000D03*
%TD*%
D12*
%TO.N,V_CHARGE*%
%TO.C,J6*%
X103180000Y-63250000D03*
D13*
%TO.N,GND*%
X101180000Y-63250000D03*
%TD*%
D14*
%TO.N,unconnected-(H2-Pad1)*%
%TO.C,H2*%
X92600000Y-32600000D03*
%TD*%
%TO.N,unconnected-(H1-Pad1)*%
%TO.C,H1*%
X104600000Y-57350000D03*
%TD*%
D15*
%TO.N,GND*%
X104600000Y-50200000D03*
X90610352Y-48518702D03*
X100326594Y-56745379D03*
X106100000Y-47600000D03*
X102438025Y-46363215D03*
X101225000Y-42700000D03*
X92400000Y-54050000D03*
X97960000Y-64690000D03*
X103100000Y-61000000D03*
X90575000Y-56425000D03*
X104330476Y-38454400D03*
X106700000Y-50250000D03*
X96370000Y-52480000D03*
X91304541Y-53150003D03*
X95661513Y-46940187D03*
X96002985Y-55366247D03*
X92910000Y-63700000D03*
X90400000Y-44900000D03*
X91850000Y-54000000D03*
X97794486Y-30771352D03*
X92150000Y-57425000D03*
X95187660Y-57017523D03*
X100966249Y-38462500D03*
X91088777Y-39514107D03*
X97740611Y-60140829D03*
X100000000Y-40200000D03*
X92804541Y-50100000D03*
X96132299Y-60277290D03*
X94060574Y-38053181D03*
X95300000Y-63900000D03*
X103600000Y-50600000D03*
X96180000Y-50350000D03*
X93010000Y-42120000D03*
X96043070Y-44590231D03*
X94000000Y-35200000D03*
X98100000Y-58200000D03*
X93675000Y-43575000D03*
X97643630Y-56131971D03*
X94910000Y-54120000D03*
X90600000Y-41400000D03*
X94450000Y-56300000D03*
X100714507Y-55961513D03*
X94863261Y-52227954D03*
X92800000Y-51100000D03*
X98600000Y-31600000D03*
X94304541Y-50100000D03*
X94737297Y-53340027D03*
X106500000Y-37900000D03*
X90640000Y-47490000D03*
X106600000Y-59600000D03*
X91000000Y-35200000D03*
X99050000Y-62720000D03*
X101041826Y-37772156D03*
X95255169Y-50967719D03*
X106302829Y-43000000D03*
X99900000Y-49200000D03*
%TO.N,+3V3*%
X96018749Y-41962500D03*
X92900000Y-41500000D03*
X97800000Y-55500000D03*
X106470391Y-36483131D03*
X97400000Y-54750000D03*
X97430000Y-42340000D03*
X97900000Y-54900000D03*
X92120000Y-47740000D03*
X101000000Y-48450000D03*
X103112500Y-45600000D03*
X96414376Y-35765076D03*
X97446249Y-32622500D03*
X102200000Y-41800000D03*
X106600000Y-39100000D03*
X106500000Y-46800000D03*
X100000000Y-52400000D03*
X91728777Y-39514107D03*
X97228341Y-55395349D03*
X96360000Y-46250000D03*
X104300000Y-54400000D03*
X92804541Y-49100000D03*
X91304541Y-52600000D03*
%TO.N,/NRST*%
X94814559Y-50305877D03*
X103431000Y-47950000D03*
X90847399Y-40323378D03*
%TO.N,/RADIO_MARC_ISR*%
X98600000Y-42800000D03*
X91349997Y-40100000D03*
%TO.N,/RADIO_INT*%
X91900000Y-40100000D03*
X98142371Y-43105086D03*
%TO.N,/CS_RADIO*%
X93200000Y-35700000D03*
X101725675Y-40464347D03*
%TO.N,Net-(J3-In)*%
X105856124Y-31919948D03*
X105941802Y-33273649D03*
X106600000Y-34600000D03*
X106600000Y-32000000D03*
X105907531Y-34678756D03*
X106600000Y-33200000D03*
%TO.N,/CS_BARO*%
X97087500Y-45362500D03*
X106300000Y-44000000D03*
%TO.N,VBUS*%
X101580000Y-57630000D03*
X105160000Y-47250000D03*
%TO.N,V_LIPO*%
X100628594Y-59228025D03*
X97089994Y-56826929D03*
X101146466Y-59296567D03*
X101159159Y-58682229D03*
X97042505Y-57362147D03*
X98886855Y-57732299D03*
X104200000Y-60400000D03*
X97113586Y-57869864D03*
X104200000Y-61400000D03*
X98827504Y-57034923D03*
%TO.N,/MGSW_IN*%
X104758812Y-61948127D03*
X103606013Y-51606666D03*
X106600000Y-62600000D03*
%TO.N,/HALL_OUT*%
X103450000Y-53250000D03*
X98745969Y-53591937D03*
%TO.N,Net-(JP1-A)*%
X98230000Y-50090000D03*
X91200000Y-54110000D03*
%TO.N,Net-(D4-A2)*%
X100200000Y-57900000D03*
X106700000Y-51100000D03*
X99200000Y-61150000D03*
%TO.N,Net-(D4-A1)*%
X106640000Y-52540000D03*
X101800000Y-61100000D03*
%TO.N,Net-(D4-K1)*%
X98090000Y-63140000D03*
X106600000Y-54300000D03*
%TO.N,/SWDIO*%
X103000000Y-49100000D03*
%TO.N,/SWCLK*%
X97680096Y-50100376D03*
X103950000Y-48300000D03*
%TO.N,Net-(Q1-G)*%
X104400000Y-62600000D03*
%TO.N,Net-(Q2-D)*%
X92400000Y-52600000D03*
X106620000Y-61950000D03*
%TO.N,/SENSE_A*%
X100900000Y-40200000D03*
X95187660Y-58927523D03*
%TO.N,/SENSE_B*%
X90614999Y-58700000D03*
X102200000Y-36700000D03*
%TO.N,/FIRE_A*%
X96139926Y-58913531D03*
X90680900Y-42857354D03*
%TO.N,/GATE_A*%
X93893463Y-56783325D03*
%TO.N,/FIRE_B*%
X90437765Y-42364011D03*
X91950000Y-54675000D03*
%TO.N,/GATE_B*%
X91800000Y-55600000D03*
%TO.N,/CMP_RAIL*%
X94381052Y-57369669D03*
X91365000Y-56740000D03*
%TO.N,/V_BATT*%
X97669934Y-59483948D03*
X102333581Y-39666605D03*
%TO.N,/USB_D+*%
X92959998Y-46430002D03*
%TO.N,/USB_D-*%
X93483378Y-46260956D03*
%TO.N,/AC_INT1*%
X98400000Y-44650000D03*
X103100000Y-40500000D03*
%TO.N,/SCK0*%
X101848255Y-41235281D03*
X104200000Y-36399999D03*
X105784060Y-41314842D03*
%TO.N,/MISO0*%
X101207465Y-41107465D03*
X103000000Y-37100000D03*
%TO.N,/CS_ACCEL*%
X104200000Y-40400000D03*
X101800000Y-39800000D03*
%TO.N,/MOSI0*%
X103300000Y-36500000D03*
X98441173Y-42273429D03*
%TO.N,/AC_INT2*%
X97200000Y-44300000D03*
X103200000Y-39600000D03*
%TO.N,/SCK3*%
X94940000Y-45320000D03*
X102300000Y-44000000D03*
%TO.N,/MISO3*%
X92890000Y-43020000D03*
X105100000Y-44000000D03*
%TO.N,/MOSI3*%
X103200000Y-46300000D03*
X90400000Y-45750003D03*
%TO.N,/TX1*%
X90620000Y-51020000D03*
X97200000Y-46800000D03*
%TO.N,/RX1*%
X92299837Y-49592432D03*
X97200000Y-46250000D03*
%TO.N,/MISO5*%
X98680000Y-48820000D03*
X92440000Y-35520000D03*
%TO.N,/MOSI5*%
X90688727Y-36306236D03*
X92862983Y-47685922D03*
%TO.N,/SCK5*%
X93682060Y-46796135D03*
X91394998Y-36265002D03*
%TO.N,/CS_FLASH*%
X101700000Y-52300000D03*
X95574034Y-46315745D03*
%TO.N,/BUZZ*%
X101400000Y-33200000D03*
X90609651Y-40850082D03*
%TO.N,Net-(J10-Pin_2)*%
X105200000Y-42800000D03*
%TO.N,Net-(J10-Pin_1)*%
X105690776Y-43048276D03*
%TO.N,Net-(U1-V_BCKP)*%
X98918131Y-64485309D03*
X92634973Y-48576789D03*
X100771675Y-47427018D03*
X105989336Y-47004266D03*
%TO.N,Net-(U1-VCC_RF)*%
X93800000Y-52600000D03*
X95854545Y-51000000D03*
%TD*%
D16*
%TO.N,/V_BATT*%
X97669934Y-57983037D02*
X97669934Y-59483948D01*
X99000000Y-55140473D02*
X98099000Y-56041473D01*
X102631000Y-39964024D02*
X102631000Y-42369000D01*
X102631000Y-42369000D02*
X99176969Y-45823031D01*
X98099000Y-57553971D02*
X97669934Y-57983037D01*
X98099000Y-56041473D02*
X98099000Y-57553971D01*
X99000000Y-54000000D02*
X99000000Y-55140473D01*
X102333581Y-39666605D02*
X102631000Y-39964024D01*
X99176969Y-45823031D02*
X99176969Y-53823031D01*
X99176969Y-53823031D02*
X99000000Y-54000000D01*
%TO.N,/MISO3*%
X104669000Y-43569000D02*
X105100000Y-44000000D01*
X101970000Y-37280000D02*
X104669000Y-39979000D01*
X104669000Y-39979000D02*
X104669000Y-43569000D01*
X92890000Y-43020000D02*
X98630000Y-37280000D01*
X98630000Y-37280000D02*
X101970000Y-37280000D01*
%TD*%
%TA.AperFunction,Conductor*%
%TO.N,+3V3*%
G36*
X106977826Y-30222174D02*
G01*
X106999500Y-30274500D01*
X106999500Y-31725168D01*
X106977826Y-31777494D01*
X106925500Y-31799168D01*
X106873175Y-31777494D01*
X106815212Y-31719531D01*
X106815209Y-31719529D01*
X106815208Y-31719528D01*
X106735289Y-31673386D01*
X106735284Y-31673384D01*
X106646146Y-31649500D01*
X106646144Y-31649500D01*
X106553856Y-31649500D01*
X106553854Y-31649500D01*
X106464715Y-31673384D01*
X106464710Y-31673386D01*
X106384791Y-31719528D01*
X106319527Y-31784792D01*
X106319527Y-31784793D01*
X106314937Y-31792742D01*
X106270001Y-31827217D01*
X106213849Y-31819820D01*
X106186186Y-31788268D01*
X106185163Y-31788860D01*
X106136595Y-31704739D01*
X106136594Y-31704738D01*
X106136593Y-31704736D01*
X106071336Y-31639479D01*
X106071333Y-31639477D01*
X106071332Y-31639476D01*
X105991413Y-31593334D01*
X105991408Y-31593332D01*
X105902270Y-31569448D01*
X105902268Y-31569448D01*
X105809980Y-31569448D01*
X105809978Y-31569448D01*
X105720839Y-31593332D01*
X105720834Y-31593334D01*
X105640915Y-31639476D01*
X105575652Y-31704739D01*
X105529510Y-31784658D01*
X105529508Y-31784663D01*
X105505624Y-31873801D01*
X105505624Y-31966094D01*
X105529508Y-32055232D01*
X105529510Y-32055237D01*
X105575652Y-32135156D01*
X105575653Y-32135157D01*
X105575655Y-32135160D01*
X105640912Y-32200417D01*
X105640914Y-32200418D01*
X105640915Y-32200419D01*
X105720834Y-32246561D01*
X105720836Y-32246562D01*
X105720837Y-32246562D01*
X105720839Y-32246563D01*
X105765408Y-32258505D01*
X105809977Y-32270447D01*
X105809978Y-32270448D01*
X105809980Y-32270448D01*
X105902270Y-32270448D01*
X105902270Y-32270447D01*
X105991412Y-32246562D01*
X106071336Y-32200417D01*
X106136593Y-32135160D01*
X106141182Y-32127212D01*
X106186115Y-32092732D01*
X106242267Y-32100123D01*
X106269939Y-32131678D01*
X106270961Y-32131088D01*
X106319528Y-32215208D01*
X106319529Y-32215209D01*
X106319531Y-32215212D01*
X106384788Y-32280469D01*
X106464712Y-32326614D01*
X106464713Y-32326614D01*
X106464715Y-32326615D01*
X106509284Y-32338557D01*
X106553853Y-32350499D01*
X106553854Y-32350500D01*
X106553856Y-32350500D01*
X106646146Y-32350500D01*
X106646146Y-32350499D01*
X106735288Y-32326614D01*
X106815212Y-32280469D01*
X106873175Y-32222505D01*
X106925500Y-32200832D01*
X106977826Y-32222506D01*
X106999500Y-32274832D01*
X106999500Y-32925168D01*
X106977826Y-32977494D01*
X106925500Y-32999168D01*
X106873175Y-32977494D01*
X106815212Y-32919531D01*
X106815209Y-32919529D01*
X106815208Y-32919528D01*
X106735289Y-32873386D01*
X106735284Y-32873384D01*
X106646146Y-32849500D01*
X106646144Y-32849500D01*
X106553856Y-32849500D01*
X106553854Y-32849500D01*
X106464715Y-32873384D01*
X106464710Y-32873386D01*
X106384791Y-32919528D01*
X106319528Y-32984791D01*
X106305191Y-33009623D01*
X106260256Y-33044100D01*
X106204104Y-33036706D01*
X106188784Y-33024950D01*
X106157014Y-32993180D01*
X106157011Y-32993178D01*
X106157010Y-32993177D01*
X106077091Y-32947035D01*
X106077086Y-32947033D01*
X105987948Y-32923149D01*
X105987946Y-32923149D01*
X105895658Y-32923149D01*
X105895656Y-32923149D01*
X105806517Y-32947033D01*
X105806512Y-32947035D01*
X105726593Y-32993177D01*
X105661330Y-33058440D01*
X105615188Y-33138359D01*
X105615186Y-33138364D01*
X105591302Y-33227502D01*
X105591302Y-33319795D01*
X105615186Y-33408933D01*
X105615188Y-33408938D01*
X105661330Y-33488857D01*
X105661331Y-33488858D01*
X105661333Y-33488861D01*
X105726590Y-33554118D01*
X105726592Y-33554119D01*
X105726593Y-33554120D01*
X105734020Y-33558408D01*
X105806514Y-33600263D01*
X105806515Y-33600263D01*
X105806517Y-33600264D01*
X105851086Y-33612206D01*
X105895655Y-33624148D01*
X105895656Y-33624149D01*
X105895658Y-33624149D01*
X105987948Y-33624149D01*
X105987948Y-33624148D01*
X106077090Y-33600263D01*
X106157014Y-33554118D01*
X106222271Y-33488861D01*
X106236609Y-33464028D01*
X106281542Y-33429549D01*
X106337694Y-33436941D01*
X106353016Y-33448697D01*
X106384788Y-33480469D01*
X106384790Y-33480470D01*
X106384791Y-33480471D01*
X106399314Y-33488856D01*
X106464712Y-33526614D01*
X106464713Y-33526614D01*
X106464715Y-33526615D01*
X106509284Y-33538557D01*
X106553853Y-33550499D01*
X106553854Y-33550500D01*
X106553856Y-33550500D01*
X106646146Y-33550500D01*
X106646146Y-33550499D01*
X106735288Y-33526614D01*
X106815212Y-33480469D01*
X106873175Y-33422505D01*
X106925500Y-33400832D01*
X106977826Y-33422506D01*
X106999500Y-33474832D01*
X106999500Y-34325168D01*
X106977826Y-34377494D01*
X106925500Y-34399168D01*
X106873175Y-34377494D01*
X106815212Y-34319531D01*
X106815209Y-34319529D01*
X106815208Y-34319528D01*
X106735289Y-34273386D01*
X106735284Y-34273384D01*
X106646146Y-34249500D01*
X106646144Y-34249500D01*
X106553856Y-34249500D01*
X106553854Y-34249500D01*
X106464715Y-34273384D01*
X106464710Y-34273386D01*
X106384791Y-34319528D01*
X106319529Y-34384790D01*
X106290779Y-34434587D01*
X106245845Y-34469065D01*
X106189692Y-34461672D01*
X106174371Y-34449915D01*
X106122743Y-34398287D01*
X106122740Y-34398285D01*
X106122739Y-34398284D01*
X106042820Y-34352142D01*
X106042815Y-34352140D01*
X105953677Y-34328256D01*
X105953675Y-34328256D01*
X105861387Y-34328256D01*
X105861385Y-34328256D01*
X105772246Y-34352140D01*
X105772241Y-34352142D01*
X105692322Y-34398284D01*
X105627059Y-34463547D01*
X105580917Y-34543466D01*
X105580915Y-34543471D01*
X105557031Y-34632609D01*
X105557031Y-34724902D01*
X105580915Y-34814040D01*
X105580917Y-34814045D01*
X105627059Y-34893964D01*
X105627060Y-34893965D01*
X105627062Y-34893968D01*
X105692319Y-34959225D01*
X105692321Y-34959226D01*
X105692322Y-34959227D01*
X105772241Y-35005369D01*
X105772243Y-35005370D01*
X105772244Y-35005370D01*
X105772246Y-35005371D01*
X105816815Y-35017313D01*
X105861384Y-35029255D01*
X105861385Y-35029256D01*
X105861387Y-35029256D01*
X105953677Y-35029256D01*
X105953677Y-35029255D01*
X106042819Y-35005370D01*
X106122743Y-34959225D01*
X106188000Y-34893968D01*
X106216751Y-34844169D01*
X106261683Y-34809691D01*
X106317836Y-34817083D01*
X106333158Y-34828839D01*
X106384788Y-34880469D01*
X106384790Y-34880470D01*
X106384791Y-34880471D01*
X106449172Y-34917642D01*
X106464712Y-34926614D01*
X106464713Y-34926614D01*
X106464715Y-34926615D01*
X106509284Y-34938557D01*
X106553853Y-34950499D01*
X106553854Y-34950500D01*
X106553856Y-34950500D01*
X106646146Y-34950500D01*
X106646146Y-34950499D01*
X106735288Y-34926614D01*
X106815212Y-34880469D01*
X106873175Y-34822505D01*
X106925500Y-34800832D01*
X106977826Y-34822506D01*
X106999500Y-34874832D01*
X106999500Y-48818959D01*
X106977826Y-48871285D01*
X106925500Y-48892959D01*
X106873174Y-48871285D01*
X106863971Y-48860071D01*
X106862091Y-48857258D01*
X106821463Y-48796453D01*
X106724547Y-48699537D01*
X106610585Y-48623390D01*
X106610581Y-48623388D01*
X106610579Y-48623387D01*
X106610580Y-48623387D01*
X106483961Y-48570940D01*
X106483950Y-48570937D01*
X106382680Y-48550793D01*
X106349530Y-48544200D01*
X106212470Y-48544200D01*
X106185877Y-48549489D01*
X106078049Y-48570937D01*
X106078038Y-48570940D01*
X105951419Y-48623387D01*
X105837453Y-48699536D01*
X105837452Y-48699538D01*
X105740538Y-48796452D01*
X105740536Y-48796453D01*
X105664387Y-48910419D01*
X105611940Y-49037038D01*
X105611937Y-49037049D01*
X105585200Y-49171470D01*
X105585200Y-49308529D01*
X105611937Y-49442950D01*
X105611940Y-49442961D01*
X105664387Y-49569580D01*
X105664389Y-49569583D01*
X105664390Y-49569585D01*
X105740537Y-49683547D01*
X105837453Y-49780463D01*
X105951415Y-49856610D01*
X105951420Y-49856612D01*
X105951419Y-49856612D01*
X106063297Y-49902953D01*
X106078043Y-49909061D01*
X106212470Y-49935800D01*
X106212471Y-49935800D01*
X106348509Y-49935800D01*
X106400835Y-49957474D01*
X106422509Y-50009800D01*
X106412595Y-50046800D01*
X106373386Y-50114710D01*
X106373384Y-50114715D01*
X106349500Y-50203853D01*
X106349500Y-50296146D01*
X106373384Y-50385284D01*
X106373386Y-50385289D01*
X106419528Y-50465208D01*
X106419529Y-50465209D01*
X106419531Y-50465212D01*
X106484788Y-50530469D01*
X106484790Y-50530470D01*
X106484791Y-50530471D01*
X106564710Y-50576613D01*
X106564712Y-50576614D01*
X106564713Y-50576614D01*
X106564715Y-50576615D01*
X106601032Y-50586346D01*
X106653853Y-50600499D01*
X106653854Y-50600500D01*
X106653856Y-50600500D01*
X106746146Y-50600500D01*
X106746146Y-50600499D01*
X106835288Y-50576614D01*
X106888499Y-50545891D01*
X106907651Y-50543370D01*
X106925500Y-50535977D01*
X106934737Y-50539803D01*
X106944652Y-50538498D01*
X106959978Y-50550258D01*
X106977826Y-50557651D01*
X106981652Y-50566889D01*
X106989585Y-50572976D01*
X106999500Y-50609977D01*
X106999500Y-50740022D01*
X106977826Y-50792348D01*
X106925500Y-50814022D01*
X106888500Y-50804108D01*
X106835289Y-50773386D01*
X106835284Y-50773384D01*
X106746146Y-50749500D01*
X106746144Y-50749500D01*
X106653856Y-50749500D01*
X106653854Y-50749500D01*
X106564715Y-50773384D01*
X106564710Y-50773386D01*
X106484791Y-50819528D01*
X106419528Y-50884791D01*
X106373386Y-50964710D01*
X106373384Y-50964715D01*
X106349500Y-51053853D01*
X106349500Y-51146146D01*
X106373384Y-51235284D01*
X106373386Y-51235289D01*
X106419528Y-51315208D01*
X106419529Y-51315209D01*
X106419531Y-51315212D01*
X106484788Y-51380469D01*
X106484790Y-51380470D01*
X106484791Y-51380471D01*
X106564710Y-51426613D01*
X106564712Y-51426614D01*
X106564713Y-51426614D01*
X106564715Y-51426615D01*
X106609284Y-51438557D01*
X106653853Y-51450499D01*
X106653854Y-51450500D01*
X106653856Y-51450500D01*
X106746146Y-51450500D01*
X106746146Y-51450499D01*
X106835288Y-51426614D01*
X106888499Y-51395891D01*
X106944652Y-51388498D01*
X106989585Y-51422976D01*
X106999500Y-51459977D01*
X106999500Y-52225168D01*
X106977826Y-52277494D01*
X106925500Y-52299168D01*
X106873175Y-52277494D01*
X106855212Y-52259531D01*
X106855209Y-52259529D01*
X106855208Y-52259528D01*
X106775289Y-52213386D01*
X106775284Y-52213384D01*
X106686146Y-52189500D01*
X106686144Y-52189500D01*
X106593856Y-52189500D01*
X106593854Y-52189500D01*
X106504715Y-52213384D01*
X106504710Y-52213386D01*
X106424791Y-52259528D01*
X106359528Y-52324791D01*
X106313386Y-52404710D01*
X106313384Y-52404715D01*
X106289500Y-52493853D01*
X106289500Y-52586146D01*
X106313384Y-52675284D01*
X106313386Y-52675289D01*
X106359528Y-52755208D01*
X106359529Y-52755209D01*
X106359531Y-52755212D01*
X106424788Y-52820469D01*
X106424790Y-52820470D01*
X106424791Y-52820471D01*
X106484305Y-52854832D01*
X106504712Y-52866614D01*
X106504713Y-52866614D01*
X106504715Y-52866615D01*
X106549284Y-52878557D01*
X106593853Y-52890499D01*
X106593854Y-52890500D01*
X106593856Y-52890500D01*
X106686146Y-52890500D01*
X106686146Y-52890499D01*
X106775288Y-52866614D01*
X106855212Y-52820469D01*
X106873175Y-52802505D01*
X106925500Y-52780832D01*
X106977826Y-52802506D01*
X106999500Y-52854832D01*
X106999500Y-54025168D01*
X106977826Y-54077494D01*
X106925500Y-54099168D01*
X106873175Y-54077494D01*
X106815212Y-54019531D01*
X106815209Y-54019529D01*
X106815208Y-54019528D01*
X106735289Y-53973386D01*
X106735284Y-53973384D01*
X106646146Y-53949500D01*
X106646144Y-53949500D01*
X106553856Y-53949500D01*
X106553854Y-53949500D01*
X106464715Y-53973384D01*
X106464710Y-53973386D01*
X106384791Y-54019528D01*
X106319528Y-54084791D01*
X106273386Y-54164710D01*
X106273384Y-54164715D01*
X106249500Y-54253853D01*
X106249500Y-54346146D01*
X106273384Y-54435284D01*
X106273386Y-54435289D01*
X106319528Y-54515208D01*
X106319529Y-54515209D01*
X106319531Y-54515212D01*
X106384788Y-54580469D01*
X106464712Y-54626614D01*
X106464713Y-54626614D01*
X106464715Y-54626615D01*
X106473079Y-54628856D01*
X106553853Y-54650499D01*
X106553854Y-54650500D01*
X106553856Y-54650500D01*
X106646146Y-54650500D01*
X106646146Y-54650499D01*
X106735288Y-54626614D01*
X106815212Y-54580469D01*
X106873175Y-54522505D01*
X106925500Y-54500832D01*
X106977826Y-54522506D01*
X106999500Y-54574832D01*
X106999500Y-56245331D01*
X106977826Y-56297657D01*
X106925500Y-56319331D01*
X106873174Y-56297657D01*
X106858828Y-56277439D01*
X106843589Y-56245796D01*
X106791945Y-56138555D01*
X106642523Y-55900752D01*
X106467416Y-55681175D01*
X106268825Y-55482584D01*
X106180808Y-55412393D01*
X106049248Y-55307477D01*
X105927475Y-55230962D01*
X105811445Y-55158055D01*
X105609549Y-55060827D01*
X105571810Y-55018596D01*
X105574985Y-54962047D01*
X105600541Y-54932629D01*
X105708547Y-54860463D01*
X105805463Y-54763547D01*
X105881610Y-54649585D01*
X105934061Y-54522957D01*
X105960800Y-54388530D01*
X105960800Y-54251470D01*
X105934061Y-54117043D01*
X105917679Y-54077494D01*
X105881612Y-53990419D01*
X105881611Y-53990417D01*
X105881610Y-53990415D01*
X105805463Y-53876453D01*
X105708547Y-53779537D01*
X105700257Y-53773998D01*
X105680343Y-53760691D01*
X105594585Y-53703390D01*
X105594581Y-53703388D01*
X105594579Y-53703387D01*
X105594580Y-53703387D01*
X105467961Y-53650940D01*
X105467950Y-53650937D01*
X105366680Y-53630793D01*
X105333530Y-53624200D01*
X105196470Y-53624200D01*
X105169877Y-53629489D01*
X105062049Y-53650937D01*
X105062038Y-53650940D01*
X104935419Y-53703387D01*
X104821453Y-53779536D01*
X104821452Y-53779538D01*
X104724538Y-53876452D01*
X104724536Y-53876453D01*
X104648387Y-53990419D01*
X104595940Y-54117038D01*
X104595937Y-54117049D01*
X104582365Y-54185284D01*
X104569200Y-54251470D01*
X104569200Y-54388530D01*
X104575793Y-54421680D01*
X104595937Y-54522950D01*
X104595940Y-54522961D01*
X104648387Y-54649580D01*
X104648389Y-54649583D01*
X104648390Y-54649585D01*
X104696204Y-54721144D01*
X104705054Y-54734388D01*
X104716103Y-54789937D01*
X104684637Y-54837029D01*
X104643525Y-54849500D01*
X104459575Y-54849500D01*
X104320033Y-54865222D01*
X104180487Y-54880945D01*
X104180486Y-54880945D01*
X103906690Y-54943437D01*
X103906674Y-54943442D01*
X103641592Y-55036198D01*
X103388559Y-55158052D01*
X103150751Y-55307477D01*
X102931175Y-55482583D01*
X102732583Y-55681175D01*
X102557477Y-55900751D01*
X102408052Y-56138559D01*
X102336025Y-56288127D01*
X102305920Y-56350642D01*
X102300319Y-56362272D01*
X102258088Y-56400012D01*
X102210799Y-56397454D01*
X102209928Y-56400137D01*
X102147129Y-56379733D01*
X102147125Y-56379732D01*
X102147124Y-56379732D01*
X102115313Y-56374694D01*
X102099074Y-56372122D01*
X102099073Y-56372122D01*
X100978113Y-56372122D01*
X100925787Y-56350448D01*
X100904113Y-56298122D01*
X100925787Y-56245796D01*
X100926736Y-56244963D01*
X100929714Y-56241984D01*
X100929719Y-56241982D01*
X100994976Y-56176725D01*
X101041121Y-56096801D01*
X101065006Y-56007659D01*
X101065007Y-56007659D01*
X101065007Y-55915367D01*
X101065006Y-55915366D01*
X101061847Y-55903578D01*
X101041121Y-55826225D01*
X101029073Y-55805357D01*
X100994978Y-55746304D01*
X100994977Y-55746303D01*
X100994976Y-55746301D01*
X100929719Y-55681044D01*
X100929716Y-55681042D01*
X100929715Y-55681041D01*
X100849796Y-55634899D01*
X100849791Y-55634897D01*
X100760653Y-55611013D01*
X100760651Y-55611013D01*
X100668363Y-55611013D01*
X100668361Y-55611013D01*
X100579222Y-55634897D01*
X100579217Y-55634899D01*
X100499298Y-55681041D01*
X100434035Y-55746304D01*
X100387893Y-55826223D01*
X100387891Y-55826228D01*
X100364007Y-55915366D01*
X100364007Y-56007659D01*
X100387891Y-56096797D01*
X100387893Y-56096802D01*
X100434035Y-56176721D01*
X100434036Y-56176722D01*
X100434038Y-56176725D01*
X100499295Y-56241982D01*
X100499297Y-56241983D01*
X100499298Y-56241984D01*
X100560707Y-56277439D01*
X100579219Y-56288127D01*
X100592329Y-56291639D01*
X100611953Y-56306697D01*
X100633045Y-56319622D01*
X100634003Y-56323615D01*
X100637263Y-56326116D01*
X100640492Y-56350642D01*
X100646267Y-56374694D01*
X100644120Y-56378196D01*
X100644657Y-56382268D01*
X100616674Y-56422985D01*
X100590249Y-56442184D01*
X100535177Y-56455406D01*
X100509753Y-56446403D01*
X100461883Y-56418765D01*
X100461878Y-56418763D01*
X100372740Y-56394879D01*
X100372738Y-56394879D01*
X100280450Y-56394879D01*
X100280448Y-56394879D01*
X100191309Y-56418763D01*
X100191304Y-56418765D01*
X100145342Y-56445302D01*
X100089189Y-56452694D01*
X100068040Y-56443278D01*
X99999300Y-56398639D01*
X99999294Y-56398636D01*
X99941114Y-56379733D01*
X99941110Y-56379732D01*
X99941109Y-56379732D01*
X99909298Y-56374694D01*
X99893059Y-56372122D01*
X99893058Y-56372122D01*
X98428500Y-56372122D01*
X98428498Y-56372122D01*
X98409304Y-56373632D01*
X98406359Y-56372675D01*
X98403500Y-56373860D01*
X98379819Y-56364051D01*
X98355439Y-56356129D01*
X98354033Y-56353370D01*
X98351174Y-56352186D01*
X98341365Y-56328504D01*
X98329728Y-56305664D01*
X98329500Y-56299860D01*
X98329500Y-56167600D01*
X98351173Y-56115275D01*
X99120159Y-55346288D01*
X99120162Y-55346287D01*
X99130567Y-55335882D01*
X99130568Y-55335882D01*
X99195409Y-55271041D01*
X99230500Y-55186322D01*
X99230500Y-54126127D01*
X99252174Y-54073802D01*
X99297125Y-54028850D01*
X99297127Y-54028849D01*
X99297129Y-54028847D01*
X99307536Y-54018440D01*
X99307537Y-54018440D01*
X99372378Y-53953599D01*
X99396738Y-53894788D01*
X99407470Y-53868880D01*
X99407470Y-53777181D01*
X99407470Y-53771223D01*
X99407469Y-53771209D01*
X99407469Y-53203853D01*
X103099500Y-53203853D01*
X103099500Y-53296146D01*
X103123384Y-53385284D01*
X103123386Y-53385289D01*
X103169528Y-53465208D01*
X103169529Y-53465209D01*
X103169531Y-53465212D01*
X103234788Y-53530469D01*
X103314712Y-53576614D01*
X103314713Y-53576614D01*
X103314715Y-53576615D01*
X103359284Y-53588557D01*
X103403853Y-53600499D01*
X103403854Y-53600500D01*
X103403856Y-53600500D01*
X103496146Y-53600500D01*
X103496146Y-53600499D01*
X103585288Y-53576614D01*
X103665212Y-53530469D01*
X103730469Y-53465212D01*
X103776614Y-53385288D01*
X103800499Y-53296146D01*
X103800500Y-53296146D01*
X103800500Y-53203854D01*
X103800499Y-53203853D01*
X103776615Y-53114715D01*
X103776613Y-53114710D01*
X103730471Y-53034791D01*
X103730470Y-53034790D01*
X103730469Y-53034788D01*
X103665212Y-52969531D01*
X103665209Y-52969529D01*
X103665208Y-52969528D01*
X103585289Y-52923386D01*
X103585284Y-52923384D01*
X103496146Y-52899500D01*
X103496144Y-52899500D01*
X103403856Y-52899500D01*
X103403854Y-52899500D01*
X103314715Y-52923384D01*
X103314710Y-52923386D01*
X103234791Y-52969528D01*
X103169528Y-53034791D01*
X103123386Y-53114710D01*
X103123384Y-53114715D01*
X103099500Y-53203853D01*
X99407469Y-53203853D01*
X99407469Y-52253853D01*
X101349500Y-52253853D01*
X101349500Y-52346146D01*
X101373384Y-52435284D01*
X101373386Y-52435289D01*
X101419528Y-52515208D01*
X101419529Y-52515209D01*
X101419531Y-52515212D01*
X101484788Y-52580469D01*
X101484790Y-52580470D01*
X101484791Y-52580471D01*
X101545088Y-52615284D01*
X101564712Y-52626614D01*
X101564713Y-52626614D01*
X101564715Y-52626615D01*
X101609284Y-52638557D01*
X101653853Y-52650499D01*
X101653854Y-52650500D01*
X101653856Y-52650500D01*
X101746146Y-52650500D01*
X101746146Y-52650499D01*
X101835288Y-52626614D01*
X101915212Y-52580469D01*
X101980469Y-52515212D01*
X102026614Y-52435288D01*
X102050499Y-52346146D01*
X102050500Y-52346146D01*
X102050500Y-52253854D01*
X102050499Y-52253853D01*
X102026615Y-52164715D01*
X102026613Y-52164710D01*
X101980471Y-52084791D01*
X101980470Y-52084790D01*
X101980469Y-52084788D01*
X101915212Y-52019531D01*
X101915209Y-52019529D01*
X101915208Y-52019528D01*
X101835289Y-51973386D01*
X101835284Y-51973384D01*
X101746146Y-51949500D01*
X101746144Y-51949500D01*
X101653856Y-51949500D01*
X101653854Y-51949500D01*
X101564715Y-51973384D01*
X101564710Y-51973386D01*
X101484791Y-52019528D01*
X101419528Y-52084791D01*
X101373386Y-52164710D01*
X101373384Y-52164715D01*
X101349500Y-52253853D01*
X99407469Y-52253853D01*
X99407469Y-51560519D01*
X103255513Y-51560519D01*
X103255513Y-51652812D01*
X103279397Y-51741950D01*
X103279399Y-51741955D01*
X103325541Y-51821874D01*
X103325542Y-51821875D01*
X103325544Y-51821878D01*
X103390801Y-51887135D01*
X103390803Y-51887136D01*
X103390804Y-51887137D01*
X103415404Y-51901340D01*
X103470725Y-51933280D01*
X103470726Y-51933280D01*
X103470728Y-51933281D01*
X103515297Y-51945223D01*
X103559866Y-51957165D01*
X103559867Y-51957166D01*
X103559869Y-51957166D01*
X103652159Y-51957166D01*
X103652159Y-51957165D01*
X103741301Y-51933280D01*
X103821225Y-51887135D01*
X103886482Y-51821878D01*
X103932627Y-51741954D01*
X103956512Y-51652812D01*
X103956513Y-51652812D01*
X103956513Y-51560520D01*
X103956512Y-51560519D01*
X103932628Y-51471381D01*
X103932626Y-51471376D01*
X103886484Y-51391457D01*
X103886483Y-51391456D01*
X103886482Y-51391454D01*
X103821225Y-51326197D01*
X103821222Y-51326195D01*
X103821221Y-51326194D01*
X103741302Y-51280052D01*
X103741297Y-51280050D01*
X103652159Y-51256166D01*
X103652157Y-51256166D01*
X103559869Y-51256166D01*
X103559867Y-51256166D01*
X103470728Y-51280050D01*
X103470723Y-51280052D01*
X103390804Y-51326194D01*
X103325541Y-51391457D01*
X103279399Y-51471376D01*
X103279397Y-51471381D01*
X103255513Y-51560519D01*
X99407469Y-51560519D01*
X99407469Y-50553853D01*
X103249500Y-50553853D01*
X103249500Y-50646146D01*
X103273384Y-50735284D01*
X103273386Y-50735289D01*
X103319528Y-50815208D01*
X103319529Y-50815209D01*
X103319531Y-50815212D01*
X103384788Y-50880469D01*
X103384790Y-50880470D01*
X103384791Y-50880471D01*
X103449359Y-50917750D01*
X103464712Y-50926614D01*
X103464713Y-50926614D01*
X103464715Y-50926615D01*
X103509284Y-50938557D01*
X103553853Y-50950499D01*
X103553854Y-50950500D01*
X103553856Y-50950500D01*
X103646146Y-50950500D01*
X103646146Y-50950499D01*
X103735288Y-50926614D01*
X103815212Y-50880469D01*
X103880469Y-50815212D01*
X103926614Y-50735288D01*
X103950499Y-50646146D01*
X103950500Y-50646146D01*
X103950500Y-50553854D01*
X103950499Y-50553853D01*
X103946734Y-50539803D01*
X103930836Y-50480469D01*
X103926615Y-50464715D01*
X103926613Y-50464710D01*
X103880471Y-50384791D01*
X103880470Y-50384790D01*
X103880469Y-50384788D01*
X103815212Y-50319531D01*
X103815209Y-50319529D01*
X103815208Y-50319528D01*
X103735289Y-50273386D01*
X103735284Y-50273384D01*
X103646146Y-50249500D01*
X103646144Y-50249500D01*
X103553856Y-50249500D01*
X103553854Y-50249500D01*
X103464715Y-50273384D01*
X103464710Y-50273386D01*
X103384791Y-50319528D01*
X103319528Y-50384791D01*
X103273386Y-50464710D01*
X103273384Y-50464715D01*
X103249500Y-50553853D01*
X99407469Y-50553853D01*
X99407469Y-49278163D01*
X99429143Y-49225837D01*
X99481469Y-49204163D01*
X99533795Y-49225837D01*
X99552946Y-49259008D01*
X99568006Y-49315208D01*
X99573387Y-49335290D01*
X99619528Y-49415208D01*
X99619529Y-49415209D01*
X99619531Y-49415212D01*
X99684788Y-49480469D01*
X99764712Y-49526614D01*
X99764713Y-49526614D01*
X99764715Y-49526615D01*
X99809284Y-49538557D01*
X99853853Y-49550499D01*
X99853854Y-49550500D01*
X99853856Y-49550500D01*
X99946146Y-49550500D01*
X99946146Y-49550499D01*
X100035288Y-49526614D01*
X100115212Y-49480469D01*
X100180469Y-49415212D01*
X100226614Y-49335288D01*
X100250499Y-49246146D01*
X100250500Y-49246146D01*
X100250500Y-49153854D01*
X100250499Y-49153853D01*
X100248559Y-49146614D01*
X100226614Y-49064712D01*
X100220345Y-49053854D01*
X100220344Y-49053853D01*
X102649500Y-49053853D01*
X102649500Y-49146146D01*
X102673384Y-49235284D01*
X102673386Y-49235289D01*
X102719528Y-49315208D01*
X102719529Y-49315209D01*
X102719531Y-49315212D01*
X102784788Y-49380469D01*
X102784790Y-49380470D01*
X102784791Y-49380471D01*
X102864710Y-49426613D01*
X102864712Y-49426614D01*
X102864713Y-49426614D01*
X102864715Y-49426615D01*
X102909284Y-49438557D01*
X102953853Y-49450499D01*
X102953854Y-49450500D01*
X102953856Y-49450500D01*
X103046146Y-49450500D01*
X103046146Y-49450499D01*
X103135288Y-49426614D01*
X103215212Y-49380469D01*
X103280469Y-49315212D01*
X103326614Y-49235288D01*
X103350499Y-49146146D01*
X103350500Y-49146146D01*
X103350500Y-49053854D01*
X103350499Y-49053853D01*
X103349255Y-49049212D01*
X103326614Y-48964712D01*
X103321171Y-48955284D01*
X103280471Y-48884791D01*
X103280470Y-48884790D01*
X103280469Y-48884788D01*
X103215212Y-48819531D01*
X103215209Y-48819529D01*
X103215208Y-48819528D01*
X103135289Y-48773386D01*
X103135284Y-48773384D01*
X103046146Y-48749500D01*
X103046144Y-48749500D01*
X102953856Y-48749500D01*
X102953854Y-48749500D01*
X102864715Y-48773384D01*
X102864710Y-48773386D01*
X102784791Y-48819528D01*
X102719528Y-48884791D01*
X102673386Y-48964710D01*
X102673384Y-48964715D01*
X102649500Y-49053853D01*
X100220344Y-49053853D01*
X100180471Y-48984791D01*
X100180470Y-48984790D01*
X100180469Y-48984788D01*
X100115212Y-48919531D01*
X100115209Y-48919529D01*
X100115208Y-48919528D01*
X100035289Y-48873386D01*
X100035284Y-48873384D01*
X99946146Y-48849500D01*
X99946144Y-48849500D01*
X99853856Y-48849500D01*
X99853854Y-48849500D01*
X99764715Y-48873384D01*
X99764710Y-48873386D01*
X99684791Y-48919528D01*
X99619528Y-48984791D01*
X99573386Y-49064710D01*
X99573384Y-49064715D01*
X99552947Y-49140989D01*
X99518469Y-49185922D01*
X99462316Y-49193314D01*
X99417383Y-49158836D01*
X99407469Y-49121836D01*
X99407469Y-47903853D01*
X103080500Y-47903853D01*
X103080500Y-47996146D01*
X103104384Y-48085284D01*
X103104386Y-48085289D01*
X103150528Y-48165208D01*
X103150529Y-48165209D01*
X103150531Y-48165212D01*
X103215788Y-48230469D01*
X103215790Y-48230470D01*
X103215791Y-48230471D01*
X103295710Y-48276613D01*
X103295712Y-48276614D01*
X103295713Y-48276614D01*
X103295715Y-48276615D01*
X103340284Y-48288557D01*
X103384853Y-48300499D01*
X103384854Y-48300500D01*
X103384856Y-48300500D01*
X103477144Y-48300500D01*
X103508413Y-48292121D01*
X103564564Y-48299512D01*
X103599044Y-48344444D01*
X103599044Y-48344446D01*
X103623384Y-48435284D01*
X103623386Y-48435289D01*
X103669528Y-48515208D01*
X103669529Y-48515209D01*
X103669531Y-48515212D01*
X103734788Y-48580469D01*
X103734790Y-48580470D01*
X103734791Y-48580471D01*
X103771555Y-48601697D01*
X103806034Y-48646631D01*
X103798641Y-48702783D01*
X103786881Y-48718109D01*
X103708538Y-48796452D01*
X103708536Y-48796453D01*
X103632387Y-48910419D01*
X103579940Y-49037038D01*
X103579937Y-49037049D01*
X103553200Y-49171470D01*
X103553200Y-49308529D01*
X103579937Y-49442950D01*
X103579940Y-49442961D01*
X103632387Y-49569580D01*
X103632389Y-49569583D01*
X103632390Y-49569585D01*
X103708537Y-49683547D01*
X103805453Y-49780463D01*
X103919415Y-49856610D01*
X103919420Y-49856612D01*
X103919419Y-49856612D01*
X104031297Y-49902953D01*
X104046043Y-49909061D01*
X104180470Y-49935800D01*
X104180471Y-49935800D01*
X104219642Y-49935800D01*
X104271968Y-49957474D01*
X104293642Y-50009800D01*
X104283727Y-50046801D01*
X104273387Y-50064708D01*
X104273384Y-50064715D01*
X104249500Y-50153853D01*
X104249500Y-50246146D01*
X104273384Y-50335284D01*
X104273386Y-50335289D01*
X104319528Y-50415208D01*
X104319529Y-50415209D01*
X104319531Y-50415212D01*
X104384788Y-50480469D01*
X104384790Y-50480470D01*
X104384791Y-50480471D01*
X104464710Y-50526613D01*
X104464712Y-50526614D01*
X104464713Y-50526614D01*
X104464715Y-50526615D01*
X104499655Y-50535977D01*
X104553853Y-50550499D01*
X104553854Y-50550500D01*
X104553856Y-50550500D01*
X104646146Y-50550500D01*
X104646146Y-50550499D01*
X104735288Y-50526614D01*
X104815212Y-50480469D01*
X104880469Y-50415212D01*
X104926614Y-50335288D01*
X104950499Y-50246146D01*
X104950500Y-50246146D01*
X104950500Y-50153854D01*
X104950499Y-50153853D01*
X104948433Y-50146144D01*
X104927905Y-50069531D01*
X104926615Y-50064715D01*
X104926613Y-50064710D01*
X104880471Y-49984791D01*
X104880470Y-49984790D01*
X104880469Y-49984788D01*
X104815212Y-49919531D01*
X104815209Y-49919529D01*
X104815208Y-49919528D01*
X104732798Y-49871948D01*
X104698319Y-49827014D01*
X104705712Y-49770862D01*
X104717466Y-49755543D01*
X104789463Y-49683547D01*
X104865610Y-49569585D01*
X104918061Y-49442957D01*
X104944800Y-49308530D01*
X104944800Y-49171470D01*
X104918061Y-49037043D01*
X104888100Y-48964710D01*
X104865612Y-48910419D01*
X104865611Y-48910417D01*
X104865610Y-48910415D01*
X104789463Y-48796453D01*
X104692547Y-48699537D01*
X104578585Y-48623390D01*
X104578581Y-48623388D01*
X104578579Y-48623387D01*
X104578580Y-48623387D01*
X104451961Y-48570940D01*
X104451950Y-48570937D01*
X104344682Y-48549600D01*
X104325708Y-48545826D01*
X104278616Y-48514361D01*
X104267567Y-48458813D01*
X104276061Y-48436246D01*
X104276125Y-48436134D01*
X104276614Y-48435288D01*
X104300499Y-48346146D01*
X104300500Y-48346146D01*
X104300500Y-48253854D01*
X104300499Y-48253853D01*
X104276615Y-48164715D01*
X104276613Y-48164710D01*
X104230471Y-48084791D01*
X104230470Y-48084790D01*
X104230469Y-48084788D01*
X104165212Y-48019531D01*
X104165209Y-48019529D01*
X104165208Y-48019528D01*
X104085289Y-47973386D01*
X104085284Y-47973384D01*
X103996146Y-47949500D01*
X103996144Y-47949500D01*
X103903856Y-47949500D01*
X103872585Y-47957879D01*
X103816433Y-47950486D01*
X103781954Y-47905553D01*
X103781500Y-47903858D01*
X103781500Y-47903856D01*
X103757614Y-47814712D01*
X103732070Y-47770469D01*
X103711471Y-47734791D01*
X103711470Y-47734790D01*
X103711469Y-47734788D01*
X103646212Y-47669531D01*
X103646209Y-47669529D01*
X103646208Y-47669528D01*
X103566289Y-47623386D01*
X103566284Y-47623384D01*
X103477146Y-47599500D01*
X103477144Y-47599500D01*
X103384856Y-47599500D01*
X103384854Y-47599500D01*
X103295715Y-47623384D01*
X103295710Y-47623386D01*
X103215791Y-47669528D01*
X103150528Y-47734791D01*
X103104386Y-47814710D01*
X103104384Y-47814715D01*
X103080500Y-47903853D01*
X99407469Y-47903853D01*
X99407469Y-47380871D01*
X100421175Y-47380871D01*
X100421175Y-47473164D01*
X100445059Y-47562302D01*
X100445061Y-47562307D01*
X100491203Y-47642226D01*
X100491204Y-47642227D01*
X100491206Y-47642230D01*
X100556463Y-47707487D01*
X100556465Y-47707488D01*
X100556466Y-47707489D01*
X100636385Y-47753631D01*
X100636387Y-47753632D01*
X100636388Y-47753632D01*
X100636390Y-47753633D01*
X100680959Y-47765575D01*
X100725528Y-47777517D01*
X100725529Y-47777518D01*
X100725531Y-47777518D01*
X100817821Y-47777518D01*
X100817821Y-47777517D01*
X100906963Y-47753632D01*
X100986887Y-47707487D01*
X101052144Y-47642230D01*
X101098289Y-47562306D01*
X101122174Y-47473164D01*
X101122175Y-47473164D01*
X101122175Y-47380872D01*
X101122174Y-47380871D01*
X101098290Y-47291733D01*
X101098287Y-47291725D01*
X101066117Y-47236007D01*
X101066116Y-47236006D01*
X101066116Y-47236005D01*
X101052147Y-47211811D01*
X101052147Y-47211810D01*
X101052145Y-47211808D01*
X101052144Y-47211806D01*
X101044191Y-47203853D01*
X104809500Y-47203853D01*
X104809500Y-47296146D01*
X104833384Y-47385284D01*
X104833386Y-47385289D01*
X104879528Y-47465208D01*
X104879529Y-47465209D01*
X104879531Y-47465212D01*
X104944788Y-47530469D01*
X104944790Y-47530470D01*
X104944791Y-47530471D01*
X104999923Y-47562302D01*
X105024712Y-47576614D01*
X105024713Y-47576614D01*
X105024715Y-47576615D01*
X105069284Y-47588557D01*
X105113853Y-47600499D01*
X105113854Y-47600500D01*
X105113856Y-47600500D01*
X105206146Y-47600500D01*
X105206146Y-47600499D01*
X105295288Y-47576614D01*
X105375212Y-47530469D01*
X105440469Y-47465212D01*
X105486614Y-47385288D01*
X105510499Y-47296146D01*
X105510500Y-47296146D01*
X105510500Y-47203854D01*
X105510499Y-47203853D01*
X105486615Y-47114715D01*
X105486613Y-47114710D01*
X105440471Y-47034791D01*
X105440470Y-47034790D01*
X105440469Y-47034788D01*
X105375212Y-46969531D01*
X105375209Y-46969529D01*
X105375208Y-46969528D01*
X105355447Y-46958119D01*
X105638836Y-46958119D01*
X105638836Y-47050412D01*
X105662720Y-47139550D01*
X105662722Y-47139555D01*
X105708864Y-47219474D01*
X105708865Y-47219475D01*
X105708867Y-47219478D01*
X105774124Y-47284735D01*
X105774126Y-47284736D01*
X105774128Y-47284738D01*
X105787417Y-47292411D01*
X105821895Y-47337345D01*
X105814502Y-47393496D01*
X105773386Y-47464710D01*
X105773384Y-47464715D01*
X105749500Y-47553853D01*
X105749500Y-47646146D01*
X105773384Y-47735284D01*
X105773386Y-47735289D01*
X105819528Y-47815208D01*
X105819529Y-47815209D01*
X105819531Y-47815212D01*
X105884788Y-47880469D01*
X105884790Y-47880470D01*
X105884791Y-47880471D01*
X105928234Y-47905553D01*
X105964712Y-47926614D01*
X105964713Y-47926614D01*
X105964715Y-47926615D01*
X106009284Y-47938557D01*
X106053853Y-47950499D01*
X106053854Y-47950500D01*
X106053856Y-47950500D01*
X106146146Y-47950500D01*
X106146146Y-47950499D01*
X106235288Y-47926614D01*
X106315212Y-47880469D01*
X106380469Y-47815212D01*
X106426614Y-47735288D01*
X106450499Y-47646146D01*
X106450500Y-47646146D01*
X106450500Y-47553854D01*
X106450499Y-47553853D01*
X106449636Y-47550634D01*
X106426614Y-47464712D01*
X106414573Y-47443856D01*
X106380471Y-47384791D01*
X106380470Y-47384790D01*
X106380469Y-47384788D01*
X106315212Y-47319531D01*
X106315209Y-47319529D01*
X106315207Y-47319527D01*
X106301917Y-47311854D01*
X106267439Y-47266921D01*
X106274832Y-47210769D01*
X106315950Y-47139554D01*
X106339835Y-47050412D01*
X106339836Y-47050412D01*
X106339836Y-46958120D01*
X106339835Y-46958119D01*
X106333716Y-46935284D01*
X106315950Y-46868978D01*
X106278955Y-46804902D01*
X106269807Y-46789057D01*
X106269806Y-46789056D01*
X106269805Y-46789054D01*
X106204548Y-46723797D01*
X106204545Y-46723795D01*
X106204544Y-46723794D01*
X106124625Y-46677652D01*
X106124620Y-46677650D01*
X106035482Y-46653766D01*
X106035480Y-46653766D01*
X105943192Y-46653766D01*
X105943190Y-46653766D01*
X105854051Y-46677650D01*
X105854046Y-46677652D01*
X105774127Y-46723794D01*
X105708864Y-46789057D01*
X105662722Y-46868976D01*
X105662720Y-46868981D01*
X105638836Y-46958119D01*
X105355447Y-46958119D01*
X105295289Y-46923386D01*
X105295284Y-46923384D01*
X105206146Y-46899500D01*
X105206144Y-46899500D01*
X105113856Y-46899500D01*
X105113854Y-46899500D01*
X105024715Y-46923384D01*
X105024710Y-46923386D01*
X104944791Y-46969528D01*
X104879528Y-47034791D01*
X104833386Y-47114710D01*
X104833384Y-47114715D01*
X104809500Y-47203853D01*
X101044191Y-47203853D01*
X100986887Y-47146549D01*
X100986884Y-47146547D01*
X100986883Y-47146546D01*
X100906964Y-47100404D01*
X100906959Y-47100402D01*
X100817821Y-47076518D01*
X100817819Y-47076518D01*
X100725531Y-47076518D01*
X100725529Y-47076518D01*
X100636390Y-47100402D01*
X100636385Y-47100404D01*
X100556466Y-47146546D01*
X100491203Y-47211809D01*
X100445061Y-47291728D01*
X100445059Y-47291733D01*
X100421175Y-47380871D01*
X99407469Y-47380871D01*
X99407469Y-46317068D01*
X102087525Y-46317068D01*
X102087525Y-46409361D01*
X102111409Y-46498499D01*
X102111411Y-46498504D01*
X102157553Y-46578423D01*
X102157554Y-46578424D01*
X102157556Y-46578427D01*
X102222813Y-46643684D01*
X102222815Y-46643685D01*
X102222816Y-46643686D01*
X102302735Y-46689828D01*
X102302737Y-46689829D01*
X102302738Y-46689829D01*
X102302740Y-46689830D01*
X102347309Y-46701772D01*
X102391878Y-46713714D01*
X102391879Y-46713715D01*
X102391881Y-46713715D01*
X102484171Y-46713715D01*
X102484171Y-46713714D01*
X102573313Y-46689829D01*
X102653237Y-46643684D01*
X102718494Y-46578427D01*
X102764639Y-46498503D01*
X102764640Y-46498498D01*
X102766494Y-46494024D01*
X102767976Y-46494638D01*
X102798910Y-46454313D01*
X102855062Y-46446913D01*
X102900000Y-46481385D01*
X102900004Y-46481393D01*
X102919527Y-46515207D01*
X102919529Y-46515209D01*
X102919531Y-46515212D01*
X102984788Y-46580469D01*
X102984790Y-46580470D01*
X102984791Y-46580471D01*
X103064710Y-46626613D01*
X103064712Y-46626614D01*
X103064713Y-46626614D01*
X103064715Y-46626615D01*
X103109284Y-46638557D01*
X103153853Y-46650499D01*
X103153854Y-46650500D01*
X103153856Y-46650500D01*
X103246146Y-46650500D01*
X103246146Y-46650499D01*
X103335288Y-46626614D01*
X103415212Y-46580469D01*
X103480469Y-46515212D01*
X103526614Y-46435288D01*
X103550499Y-46346146D01*
X103550500Y-46346146D01*
X103550500Y-46253854D01*
X103550499Y-46253853D01*
X103526615Y-46164715D01*
X103526613Y-46164710D01*
X103480471Y-46084791D01*
X103480470Y-46084790D01*
X103480469Y-46084788D01*
X103415212Y-46019531D01*
X103415209Y-46019529D01*
X103415208Y-46019528D01*
X103335289Y-45973386D01*
X103335284Y-45973384D01*
X103246146Y-45949500D01*
X103246144Y-45949500D01*
X103153856Y-45949500D01*
X103153854Y-45949500D01*
X103064715Y-45973384D01*
X103064710Y-45973386D01*
X102984791Y-46019528D01*
X102919528Y-46084791D01*
X102873386Y-46164710D01*
X102871531Y-46169191D01*
X102870053Y-46168578D01*
X102839095Y-46208912D01*
X102782941Y-46216295D01*
X102738019Y-46181820D01*
X102718496Y-46148006D01*
X102718495Y-46148005D01*
X102718494Y-46148003D01*
X102653237Y-46082746D01*
X102653234Y-46082744D01*
X102653233Y-46082743D01*
X102573314Y-46036601D01*
X102573309Y-46036599D01*
X102484171Y-46012715D01*
X102484169Y-46012715D01*
X102391881Y-46012715D01*
X102391879Y-46012715D01*
X102302740Y-46036599D01*
X102302735Y-46036601D01*
X102222816Y-46082743D01*
X102157553Y-46148006D01*
X102111411Y-46227925D01*
X102111409Y-46227930D01*
X102087525Y-46317068D01*
X99407469Y-46317068D01*
X99407469Y-45949158D01*
X99429142Y-45896833D01*
X101372121Y-43953853D01*
X101949500Y-43953853D01*
X101949500Y-44046146D01*
X101973384Y-44135284D01*
X101973386Y-44135289D01*
X102019528Y-44215208D01*
X102019529Y-44215209D01*
X102019531Y-44215212D01*
X102084788Y-44280469D01*
X102084790Y-44280470D01*
X102084791Y-44280471D01*
X102159121Y-44323386D01*
X102164712Y-44326614D01*
X102164713Y-44326614D01*
X102164715Y-44326615D01*
X102209284Y-44338557D01*
X102253853Y-44350499D01*
X102253854Y-44350500D01*
X102253856Y-44350500D01*
X102346146Y-44350500D01*
X102346146Y-44350499D01*
X102435288Y-44326614D01*
X102515212Y-44280469D01*
X102580469Y-44215212D01*
X102626614Y-44135288D01*
X102650499Y-44046146D01*
X102650500Y-44046146D01*
X102650500Y-43953854D01*
X102650499Y-43953853D01*
X102650485Y-43953802D01*
X102626614Y-43864712D01*
X102621279Y-43855471D01*
X102580471Y-43784791D01*
X102580470Y-43784790D01*
X102580469Y-43784788D01*
X102515212Y-43719531D01*
X102515209Y-43719529D01*
X102515208Y-43719528D01*
X102435289Y-43673386D01*
X102435284Y-43673384D01*
X102346146Y-43649500D01*
X102346144Y-43649500D01*
X102253856Y-43649500D01*
X102253854Y-43649500D01*
X102164715Y-43673384D01*
X102164710Y-43673386D01*
X102084791Y-43719528D01*
X102019528Y-43784791D01*
X101973386Y-43864710D01*
X101973384Y-43864715D01*
X101949500Y-43953853D01*
X101372121Y-43953853D01*
X102751159Y-42574815D01*
X102751162Y-42574814D01*
X102761567Y-42564409D01*
X102761568Y-42564409D01*
X102826409Y-42499568D01*
X102861500Y-42414849D01*
X102861500Y-40894611D01*
X102883174Y-40842285D01*
X102935500Y-40820611D01*
X102959993Y-40825483D01*
X102960027Y-40825359D01*
X102961920Y-40825866D01*
X102963819Y-40826244D01*
X102964710Y-40826613D01*
X102964712Y-40826614D01*
X102964713Y-40826614D01*
X102964715Y-40826615D01*
X103009284Y-40838557D01*
X103053853Y-40850499D01*
X103053854Y-40850500D01*
X103053856Y-40850500D01*
X103146146Y-40850500D01*
X103146146Y-40850499D01*
X103235288Y-40826614D01*
X103315212Y-40780469D01*
X103380469Y-40715212D01*
X103426614Y-40635288D01*
X103450499Y-40546146D01*
X103450500Y-40546146D01*
X103450500Y-40453854D01*
X103450499Y-40453853D01*
X103448433Y-40446144D01*
X103428837Y-40373009D01*
X103426615Y-40364715D01*
X103426613Y-40364710D01*
X103380471Y-40284791D01*
X103380470Y-40284790D01*
X103380469Y-40284788D01*
X103315212Y-40219531D01*
X103315209Y-40219529D01*
X103315208Y-40219528D01*
X103235289Y-40173386D01*
X103235284Y-40173384D01*
X103146146Y-40149500D01*
X103146144Y-40149500D01*
X103053856Y-40149500D01*
X103053854Y-40149500D01*
X102964712Y-40173385D01*
X102963808Y-40173760D01*
X102963315Y-40173759D01*
X102960027Y-40174641D01*
X102959790Y-40173759D01*
X102949092Y-40173757D01*
X102935500Y-40179388D01*
X102921896Y-40173753D01*
X102907171Y-40173751D01*
X102896767Y-40163344D01*
X102883174Y-40157714D01*
X102877539Y-40144110D01*
X102867128Y-40133696D01*
X102861500Y-40105388D01*
X102861500Y-40018494D01*
X102861501Y-40018485D01*
X102861501Y-39935833D01*
X102883175Y-39883507D01*
X102935501Y-39861833D01*
X102979120Y-39879900D01*
X102980947Y-39877521D01*
X102984785Y-39880466D01*
X102984788Y-39880469D01*
X103064712Y-39926614D01*
X103064713Y-39926614D01*
X103064715Y-39926615D01*
X103099118Y-39935833D01*
X103153853Y-39950499D01*
X103153854Y-39950500D01*
X103153856Y-39950500D01*
X103246146Y-39950500D01*
X103246146Y-39950499D01*
X103335288Y-39926614D01*
X103415212Y-39880469D01*
X103480469Y-39815212D01*
X103526614Y-39735288D01*
X103550499Y-39646146D01*
X103550500Y-39646146D01*
X103550500Y-39553854D01*
X103550499Y-39553853D01*
X103544461Y-39531320D01*
X103526614Y-39464712D01*
X103526613Y-39464710D01*
X103480471Y-39384791D01*
X103480470Y-39384790D01*
X103480469Y-39384788D01*
X103415212Y-39319531D01*
X103415209Y-39319529D01*
X103415208Y-39319528D01*
X103335289Y-39273386D01*
X103335284Y-39273384D01*
X103246146Y-39249500D01*
X103246144Y-39249500D01*
X103153856Y-39249500D01*
X103153854Y-39249500D01*
X103064715Y-39273384D01*
X103064710Y-39273386D01*
X102984791Y-39319528D01*
X102919528Y-39384791D01*
X102873386Y-39464710D01*
X102873384Y-39464715D01*
X102849500Y-39553853D01*
X102849500Y-39646145D01*
X102855034Y-39666800D01*
X102853728Y-39676713D01*
X102857555Y-39685951D01*
X102850161Y-39703799D01*
X102847640Y-39722952D01*
X102839707Y-39729038D01*
X102835881Y-39738277D01*
X102818032Y-39745670D01*
X102802706Y-39757430D01*
X102792792Y-39756124D01*
X102783555Y-39759951D01*
X102765706Y-39752557D01*
X102746554Y-39750036D01*
X102731229Y-39738277D01*
X102705755Y-39712803D01*
X102684081Y-39660477D01*
X102684081Y-39620459D01*
X102684080Y-39620458D01*
X102660196Y-39531320D01*
X102660194Y-39531315D01*
X102614052Y-39451396D01*
X102614051Y-39451395D01*
X102614050Y-39451393D01*
X102548793Y-39386136D01*
X102548790Y-39386134D01*
X102548789Y-39386133D01*
X102468870Y-39339991D01*
X102468865Y-39339989D01*
X102379727Y-39316105D01*
X102379725Y-39316105D01*
X102287437Y-39316105D01*
X102287435Y-39316105D01*
X102198296Y-39339989D01*
X102198291Y-39339991D01*
X102118372Y-39386133D01*
X102053111Y-39451393D01*
X102053110Y-39451395D01*
X102051131Y-39454823D01*
X102006197Y-39489300D01*
X101950047Y-39481907D01*
X101935289Y-39473386D01*
X101935284Y-39473384D01*
X101846146Y-39449500D01*
X101846144Y-39449500D01*
X101753856Y-39449500D01*
X101753854Y-39449500D01*
X101664715Y-39473384D01*
X101664710Y-39473386D01*
X101584791Y-39519528D01*
X101519528Y-39584791D01*
X101473386Y-39664710D01*
X101473384Y-39664715D01*
X101449500Y-39753853D01*
X101449500Y-39846146D01*
X101473384Y-39935284D01*
X101473386Y-39935289D01*
X101519528Y-40015208D01*
X101519529Y-40015209D01*
X101519531Y-40015212D01*
X101554949Y-40050630D01*
X101576623Y-40102955D01*
X101554949Y-40155281D01*
X101539624Y-40167040D01*
X101510468Y-40183874D01*
X101510467Y-40183874D01*
X101445203Y-40249138D01*
X101399061Y-40329057D01*
X101399059Y-40329062D01*
X101375175Y-40418200D01*
X101375175Y-40510493D01*
X101399059Y-40599631D01*
X101399061Y-40599636D01*
X101446067Y-40681051D01*
X101453460Y-40737203D01*
X101418981Y-40782137D01*
X101362829Y-40789530D01*
X101344983Y-40782138D01*
X101342756Y-40780852D01*
X101342749Y-40780849D01*
X101253611Y-40756965D01*
X101253609Y-40756965D01*
X101161321Y-40756965D01*
X101161319Y-40756965D01*
X101072180Y-40780849D01*
X101072175Y-40780851D01*
X100992256Y-40826993D01*
X100926993Y-40892256D01*
X100880851Y-40972175D01*
X100880849Y-40972180D01*
X100856965Y-41061318D01*
X100856965Y-41153611D01*
X100880849Y-41242749D01*
X100880851Y-41242754D01*
X100926993Y-41322673D01*
X100926994Y-41322674D01*
X100926996Y-41322677D01*
X100992253Y-41387934D01*
X100992255Y-41387935D01*
X100992256Y-41387936D01*
X101072175Y-41434078D01*
X101072177Y-41434079D01*
X101072178Y-41434079D01*
X101072180Y-41434080D01*
X101116749Y-41446022D01*
X101161318Y-41457964D01*
X101161319Y-41457965D01*
X101161321Y-41457965D01*
X101253611Y-41457965D01*
X101253611Y-41457964D01*
X101342753Y-41434079D01*
X101422677Y-41387934D01*
X101423577Y-41387033D01*
X101424170Y-41386787D01*
X101426518Y-41384986D01*
X101427000Y-41385615D01*
X101475897Y-41365355D01*
X101528226Y-41387023D01*
X101539991Y-41402354D01*
X101567782Y-41450488D01*
X101567784Y-41450490D01*
X101567786Y-41450493D01*
X101633043Y-41515750D01*
X101633045Y-41515751D01*
X101633046Y-41515752D01*
X101666876Y-41535284D01*
X101712967Y-41561895D01*
X101712968Y-41561895D01*
X101712970Y-41561896D01*
X101757539Y-41573838D01*
X101802108Y-41585780D01*
X101802109Y-41585781D01*
X101802111Y-41585781D01*
X101894401Y-41585781D01*
X101894401Y-41585780D01*
X101983543Y-41561895D01*
X102063467Y-41515750D01*
X102128724Y-41450493D01*
X102174869Y-41370569D01*
X102198754Y-41281427D01*
X102198755Y-41281427D01*
X102198755Y-41189135D01*
X102198754Y-41189134D01*
X102174870Y-41099996D01*
X102174868Y-41099991D01*
X102128726Y-41020072D01*
X102128725Y-41020071D01*
X102128724Y-41020069D01*
X102063467Y-40954812D01*
X102063464Y-40954810D01*
X102063463Y-40954809D01*
X101983544Y-40908667D01*
X101983540Y-40908666D01*
X101933134Y-40895159D01*
X101888202Y-40860680D01*
X101880810Y-40804527D01*
X101915289Y-40759595D01*
X101915288Y-40759595D01*
X101940887Y-40744816D01*
X102006144Y-40679559D01*
X102052289Y-40599635D01*
X102076174Y-40510493D01*
X102076175Y-40510493D01*
X102076175Y-40418201D01*
X102076174Y-40418200D01*
X102075373Y-40415212D01*
X102058933Y-40353853D01*
X102052290Y-40329062D01*
X102052288Y-40329057D01*
X102006146Y-40249138D01*
X102006145Y-40249137D01*
X102006144Y-40249135D01*
X101970724Y-40213715D01*
X101949051Y-40161391D01*
X101970725Y-40109065D01*
X101986052Y-40097305D01*
X102015207Y-40080472D01*
X102015207Y-40080471D01*
X102015212Y-40080469D01*
X102080469Y-40015212D01*
X102082445Y-40011789D01*
X102127373Y-39977307D01*
X102183525Y-39984692D01*
X102198293Y-39993219D01*
X102198295Y-39993219D01*
X102198296Y-39993220D01*
X102211523Y-39996764D01*
X102287434Y-40017104D01*
X102287435Y-40017105D01*
X102287437Y-40017105D01*
X102326500Y-40017105D01*
X102378826Y-40038779D01*
X102400500Y-40091105D01*
X102400500Y-42242871D01*
X102378826Y-42295197D01*
X98981559Y-45692464D01*
X98967023Y-45727556D01*
X98946468Y-45777179D01*
X98946468Y-45877492D01*
X98946469Y-45877501D01*
X98946469Y-48440951D01*
X98924795Y-48493277D01*
X98872469Y-48514951D01*
X98835470Y-48505037D01*
X98815293Y-48493388D01*
X98815284Y-48493384D01*
X98726146Y-48469500D01*
X98726144Y-48469500D01*
X98633856Y-48469500D01*
X98633854Y-48469500D01*
X98544715Y-48493384D01*
X98544710Y-48493386D01*
X98464791Y-48539528D01*
X98399528Y-48604791D01*
X98353386Y-48684710D01*
X98353384Y-48684715D01*
X98329500Y-48773853D01*
X98329500Y-48866146D01*
X98353384Y-48955284D01*
X98353386Y-48955289D01*
X98399528Y-49035208D01*
X98399529Y-49035209D01*
X98399531Y-49035212D01*
X98464788Y-49100469D01*
X98464790Y-49100470D01*
X98464791Y-49100471D01*
X98544710Y-49146613D01*
X98544712Y-49146614D01*
X98544713Y-49146614D01*
X98544715Y-49146615D01*
X98589284Y-49158557D01*
X98633853Y-49170499D01*
X98633854Y-49170500D01*
X98633856Y-49170500D01*
X98726146Y-49170500D01*
X98726146Y-49170499D01*
X98815288Y-49146614D01*
X98835468Y-49134963D01*
X98891620Y-49127569D01*
X98936554Y-49162047D01*
X98946469Y-49199048D01*
X98946469Y-53186357D01*
X98924795Y-53238683D01*
X98872469Y-53260357D01*
X98853317Y-53257836D01*
X98792113Y-53241437D01*
X98699825Y-53241437D01*
X98699823Y-53241437D01*
X98610684Y-53265321D01*
X98610679Y-53265323D01*
X98530760Y-53311465D01*
X98465497Y-53376728D01*
X98419355Y-53456647D01*
X98419353Y-53456652D01*
X98395469Y-53545790D01*
X98395469Y-53638083D01*
X98419353Y-53727221D01*
X98419355Y-53727226D01*
X98465497Y-53807145D01*
X98465498Y-53807146D01*
X98465500Y-53807149D01*
X98530757Y-53872406D01*
X98530759Y-53872407D01*
X98530760Y-53872408D01*
X98604037Y-53914715D01*
X98610681Y-53918551D01*
X98610682Y-53918551D01*
X98610684Y-53918552D01*
X98655253Y-53930494D01*
X98699825Y-53942437D01*
X98699830Y-53942437D01*
X98704632Y-53943070D01*
X98704238Y-53946057D01*
X98719373Y-53952326D01*
X98747824Y-53964110D01*
X98747825Y-53964111D01*
X98769499Y-54016435D01*
X98769499Y-54045850D01*
X98769499Y-54045851D01*
X98769500Y-54054466D01*
X98769500Y-55014344D01*
X98747826Y-55066670D01*
X97968427Y-55846069D01*
X97963238Y-55851257D01*
X97910910Y-55872926D01*
X97863558Y-55853309D01*
X97862683Y-55854450D01*
X97858839Y-55851500D01*
X97778919Y-55805357D01*
X97778914Y-55805355D01*
X97689776Y-55781471D01*
X97689774Y-55781471D01*
X97597486Y-55781471D01*
X97597484Y-55781471D01*
X97508345Y-55805355D01*
X97508340Y-55805357D01*
X97428421Y-55851499D01*
X97363158Y-55916762D01*
X97317016Y-55996681D01*
X97317014Y-55996686D01*
X97293130Y-56085824D01*
X97293130Y-56178117D01*
X97317013Y-56267252D01*
X97318070Y-56269802D01*
X97318070Y-56271193D01*
X97318271Y-56271944D01*
X97318070Y-56271997D01*
X97318071Y-56326439D01*
X97278023Y-56366489D01*
X97249703Y-56372122D01*
X95498999Y-56372122D01*
X95474685Y-56374035D01*
X95474675Y-56374036D01*
X95444085Y-56378880D01*
X95444080Y-56378882D01*
X95377006Y-56406664D01*
X95377004Y-56406665D01*
X95327523Y-56442615D01*
X95327497Y-56442635D01*
X95315299Y-56452514D01*
X95314856Y-56452873D01*
X95307039Y-56464910D01*
X95271015Y-56520383D01*
X95271014Y-56520385D01*
X95252111Y-56578565D01*
X95247988Y-56604599D01*
X95218395Y-56652890D01*
X95174899Y-56667023D01*
X95141514Y-56667023D01*
X95052375Y-56690907D01*
X95052370Y-56690909D01*
X94972451Y-56737051D01*
X94907188Y-56802314D01*
X94861046Y-56882233D01*
X94861044Y-56882238D01*
X94837160Y-56971376D01*
X94837160Y-57063669D01*
X94861044Y-57152807D01*
X94861046Y-57152812D01*
X94907188Y-57232731D01*
X94907189Y-57232732D01*
X94907191Y-57232735D01*
X94972448Y-57297992D01*
X94972450Y-57297993D01*
X94972451Y-57297994D01*
X95052370Y-57344136D01*
X95052372Y-57344137D01*
X95052373Y-57344137D01*
X95052375Y-57344138D01*
X95096944Y-57356080D01*
X95141513Y-57368022D01*
X95141514Y-57368023D01*
X95170500Y-57368023D01*
X95222826Y-57389697D01*
X95244500Y-57442023D01*
X95244500Y-58503023D01*
X95222826Y-58555349D01*
X95170500Y-58577023D01*
X95141514Y-58577023D01*
X95052375Y-58600907D01*
X95052370Y-58600909D01*
X94972451Y-58647051D01*
X94907188Y-58712314D01*
X94861046Y-58792233D01*
X94861044Y-58792238D01*
X94837160Y-58881376D01*
X94837160Y-58973669D01*
X94861044Y-59062807D01*
X94861046Y-59062812D01*
X94907188Y-59142731D01*
X94907189Y-59142732D01*
X94907191Y-59142735D01*
X94972448Y-59207992D01*
X94972450Y-59207993D01*
X94972451Y-59207994D01*
X95052370Y-59254136D01*
X95052372Y-59254137D01*
X95052373Y-59254137D01*
X95052375Y-59254138D01*
X95096944Y-59266080D01*
X95141513Y-59278022D01*
X95141514Y-59278023D01*
X95170500Y-59278023D01*
X95222826Y-59299697D01*
X95244500Y-59352023D01*
X95244500Y-60987765D01*
X95222826Y-61040091D01*
X95170500Y-61061765D01*
X95118174Y-61040091D01*
X95114232Y-61035827D01*
X95113827Y-61035353D01*
X94974651Y-60896177D01*
X94974646Y-60896172D01*
X94974643Y-60896169D01*
X94974641Y-60896168D01*
X94815404Y-60780475D01*
X94640019Y-60691113D01*
X94452836Y-60630293D01*
X94452823Y-60630290D01*
X94258418Y-60599500D01*
X94258417Y-60599500D01*
X94061583Y-60599500D01*
X94061582Y-60599500D01*
X93867176Y-60630290D01*
X93867163Y-60630293D01*
X93679980Y-60691113D01*
X93504595Y-60780475D01*
X93345358Y-60896168D01*
X93206168Y-61035358D01*
X93090475Y-61194595D01*
X93031135Y-61311058D01*
X93015901Y-61340959D01*
X93010435Y-61351686D01*
X92967368Y-61388469D01*
X92910905Y-61384026D01*
X92874122Y-61340959D01*
X92870500Y-61318091D01*
X92870500Y-60968479D01*
X92859048Y-60896177D01*
X92855646Y-60874695D01*
X92798050Y-60761657D01*
X92708343Y-60671950D01*
X92595305Y-60614354D01*
X92595303Y-60614353D01*
X92595302Y-60614353D01*
X92501521Y-60599500D01*
X92501520Y-60599500D01*
X90738480Y-60599500D01*
X90738479Y-60599500D01*
X90644697Y-60614353D01*
X90531655Y-60671951D01*
X90441951Y-60761655D01*
X90384353Y-60874697D01*
X90369500Y-60968479D01*
X90369500Y-62731520D01*
X90384353Y-62825302D01*
X90384353Y-62825303D01*
X90384354Y-62825305D01*
X90441950Y-62938343D01*
X90531657Y-63028050D01*
X90644695Y-63085646D01*
X90707218Y-63095548D01*
X90738479Y-63100500D01*
X90738480Y-63100500D01*
X92501521Y-63100500D01*
X92524966Y-63096786D01*
X92595305Y-63085646D01*
X92708343Y-63028050D01*
X92798050Y-62938343D01*
X92855646Y-62825305D01*
X92870500Y-62731520D01*
X92870500Y-62381908D01*
X92892174Y-62329582D01*
X92944500Y-62307908D01*
X92996826Y-62329582D01*
X93010432Y-62348309D01*
X93047404Y-62420872D01*
X93090475Y-62505405D01*
X93206168Y-62664641D01*
X93206172Y-62664646D01*
X93345354Y-62803828D01*
X93504595Y-62919524D01*
X93679975Y-63008884D01*
X93679977Y-63008884D01*
X93679980Y-63008886D01*
X93867163Y-63069706D01*
X93867169Y-63069707D01*
X93867174Y-63069709D01*
X93996780Y-63090236D01*
X94061582Y-63100500D01*
X94061583Y-63100500D01*
X94258418Y-63100500D01*
X94307019Y-63092802D01*
X94452826Y-63069709D01*
X94452833Y-63069706D01*
X94452836Y-63069706D01*
X94640019Y-63008886D01*
X94640019Y-63008885D01*
X94640025Y-63008884D01*
X94815405Y-62919524D01*
X94974646Y-62803828D01*
X95113828Y-62664646D01*
X95113835Y-62664636D01*
X95114223Y-62664183D01*
X95114361Y-62664112D01*
X95115884Y-62662590D01*
X95116378Y-62663084D01*
X95164684Y-62638463D01*
X95218551Y-62655957D01*
X95244271Y-62706418D01*
X95244500Y-62712234D01*
X95244500Y-63101000D01*
X95246413Y-63125314D01*
X95246414Y-63125324D01*
X95251258Y-63155914D01*
X95251260Y-63155919D01*
X95279042Y-63222993D01*
X95279043Y-63222995D01*
X95314993Y-63272476D01*
X95315013Y-63272502D01*
X95317270Y-63275289D01*
X95325251Y-63285144D01*
X95392758Y-63328983D01*
X95392760Y-63328983D01*
X95392761Y-63328984D01*
X95392763Y-63328985D01*
X95444042Y-63345645D01*
X95450949Y-63347890D01*
X95492699Y-63354502D01*
X95498999Y-63355500D01*
X95499000Y-63355500D01*
X97640501Y-63355500D01*
X97642932Y-63355308D01*
X97664823Y-63353586D01*
X97695416Y-63348741D01*
X97725852Y-63336133D01*
X97782485Y-63336133D01*
X97806494Y-63352175D01*
X97809530Y-63355211D01*
X97809531Y-63355212D01*
X97874788Y-63420469D01*
X97954712Y-63466614D01*
X97954713Y-63466614D01*
X97954715Y-63466615D01*
X97999284Y-63478557D01*
X98043853Y-63490499D01*
X98043854Y-63490500D01*
X98043856Y-63490500D01*
X98136146Y-63490500D01*
X98136146Y-63490499D01*
X98225288Y-63466614D01*
X98305212Y-63420469D01*
X98370469Y-63355212D01*
X98416614Y-63275288D01*
X98440499Y-63186146D01*
X98440500Y-63186146D01*
X98440500Y-63093854D01*
X98440499Y-63093853D01*
X98434241Y-63070499D01*
X98422867Y-63028048D01*
X98416615Y-63004715D01*
X98416613Y-63004710D01*
X98370471Y-62924791D01*
X98370470Y-62924790D01*
X98370469Y-62924788D01*
X98305212Y-62859531D01*
X98305209Y-62859529D01*
X98305208Y-62859528D01*
X98225289Y-62813386D01*
X98225287Y-62813385D01*
X98209966Y-62809280D01*
X98194489Y-62797403D01*
X98176508Y-62789839D01*
X98173337Y-62781172D01*
X98165034Y-62774800D01*
X98155122Y-62737394D01*
X98155150Y-62732290D01*
X98155500Y-62730081D01*
X98155500Y-62673853D01*
X98699500Y-62673853D01*
X98699500Y-62766146D01*
X98723384Y-62855284D01*
X98723386Y-62855289D01*
X98769528Y-62935208D01*
X98769529Y-62935209D01*
X98769531Y-62935212D01*
X98834788Y-63000469D01*
X98834790Y-63000470D01*
X98834791Y-63000471D01*
X98914710Y-63046613D01*
X98914712Y-63046614D01*
X98914713Y-63046614D01*
X98914715Y-63046615D01*
X98959284Y-63058557D01*
X99003853Y-63070499D01*
X99003854Y-63070500D01*
X99003856Y-63070500D01*
X99096146Y-63070500D01*
X99096146Y-63070499D01*
X99185288Y-63046614D01*
X99265212Y-63000469D01*
X99330469Y-62935212D01*
X99376614Y-62855288D01*
X99400499Y-62766146D01*
X99400500Y-62766146D01*
X99400500Y-62673854D01*
X99400499Y-62673853D01*
X99399139Y-62668779D01*
X99378964Y-62593481D01*
X99376615Y-62584715D01*
X99376613Y-62584710D01*
X99330471Y-62504791D01*
X99330470Y-62504790D01*
X99330469Y-62504788D01*
X99265212Y-62439531D01*
X99265209Y-62439529D01*
X99265208Y-62439528D01*
X99185289Y-62393386D01*
X99185284Y-62393384D01*
X99096146Y-62369500D01*
X99096144Y-62369500D01*
X99003856Y-62369500D01*
X99003854Y-62369500D01*
X98914715Y-62393384D01*
X98914710Y-62393386D01*
X98834791Y-62439528D01*
X98769528Y-62504791D01*
X98723386Y-62584710D01*
X98723384Y-62584715D01*
X98699500Y-62673853D01*
X98155500Y-62673853D01*
X98155500Y-62229500D01*
X98177174Y-62177174D01*
X98229500Y-62155500D01*
X100825275Y-62155500D01*
X100877601Y-62177174D01*
X100899275Y-62229500D01*
X100877601Y-62281826D01*
X100853594Y-62297867D01*
X100824504Y-62309916D01*
X100701584Y-62392048D01*
X100701583Y-62392050D01*
X100597050Y-62496583D01*
X100597048Y-62496584D01*
X100514915Y-62619505D01*
X100458343Y-62756082D01*
X100458340Y-62756092D01*
X100446581Y-62815212D01*
X100429500Y-62901082D01*
X100429500Y-63598918D01*
X100439026Y-63646811D01*
X100458340Y-63743907D01*
X100458343Y-63743917D01*
X100514915Y-63880494D01*
X100594970Y-64000304D01*
X100597049Y-64003416D01*
X100701584Y-64107951D01*
X100824505Y-64190084D01*
X100961087Y-64246658D01*
X101106082Y-64275500D01*
X101106084Y-64275500D01*
X101253916Y-64275500D01*
X101253918Y-64275500D01*
X101398913Y-64246658D01*
X101535495Y-64190084D01*
X101658416Y-64107951D01*
X101762951Y-64003416D01*
X101845084Y-63880495D01*
X101901658Y-63743913D01*
X101930500Y-63598918D01*
X101930500Y-62901082D01*
X101901658Y-62756087D01*
X101881084Y-62706418D01*
X101845084Y-62619505D01*
X101762951Y-62496584D01*
X101658415Y-62392048D01*
X101535495Y-62309916D01*
X101506406Y-62297867D01*
X101466358Y-62257819D01*
X101466358Y-62201181D01*
X101506406Y-62161133D01*
X101534725Y-62155500D01*
X102561037Y-62155500D01*
X102613363Y-62177174D01*
X102635037Y-62229500D01*
X102613363Y-62281826D01*
X102594635Y-62295432D01*
X102593412Y-62296056D01*
X102591657Y-62296950D01*
X102501951Y-62386656D01*
X102444353Y-62499698D01*
X102429500Y-62593480D01*
X102429500Y-63906519D01*
X102444353Y-64000304D01*
X102444354Y-64000306D01*
X102475899Y-64062215D01*
X102501950Y-64113342D01*
X102591658Y-64203050D01*
X102704696Y-64260646D01*
X102798481Y-64275500D01*
X103561518Y-64275499D01*
X103561519Y-64275499D01*
X103655304Y-64260646D01*
X103655306Y-64260645D01*
X103657419Y-64259568D01*
X103768342Y-64203050D01*
X103858050Y-64113342D01*
X103915646Y-64000304D01*
X103930500Y-63906519D01*
X103930499Y-62762350D01*
X103952173Y-62710025D01*
X104004499Y-62688351D01*
X104056825Y-62710025D01*
X104070915Y-62731114D01*
X104070961Y-62731088D01*
X104071359Y-62731778D01*
X104072868Y-62734036D01*
X104073384Y-62735282D01*
X104073386Y-62735288D01*
X104073387Y-62735289D01*
X104073388Y-62735291D01*
X104119528Y-62815208D01*
X104119529Y-62815209D01*
X104119531Y-62815212D01*
X104184788Y-62880469D01*
X104184790Y-62880470D01*
X104184791Y-62880471D01*
X104264710Y-62926613D01*
X104264712Y-62926614D01*
X104264713Y-62926614D01*
X104264715Y-62926615D01*
X104296785Y-62935208D01*
X104353853Y-62950499D01*
X104353854Y-62950500D01*
X104353856Y-62950500D01*
X104446146Y-62950500D01*
X104446146Y-62950499D01*
X104535288Y-62926614D01*
X104615212Y-62880469D01*
X104680469Y-62815212D01*
X104726614Y-62735288D01*
X104750499Y-62646146D01*
X104750500Y-62646146D01*
X104750500Y-62553854D01*
X104750499Y-62553853D01*
X104726615Y-62464715D01*
X104726614Y-62464714D01*
X104726614Y-62464712D01*
X104694809Y-62409626D01*
X104687417Y-62353475D01*
X104721895Y-62308541D01*
X104758896Y-62298627D01*
X104804958Y-62298627D01*
X104804958Y-62298626D01*
X104894100Y-62274741D01*
X104974024Y-62228596D01*
X105039281Y-62163339D01*
X105085426Y-62083415D01*
X105109311Y-61994273D01*
X105109312Y-61994273D01*
X105109312Y-61901981D01*
X105109311Y-61901980D01*
X105085427Y-61812842D01*
X105085425Y-61812837D01*
X105039283Y-61732918D01*
X105039282Y-61732917D01*
X105039281Y-61732915D01*
X104974024Y-61667658D01*
X104974021Y-61667656D01*
X104974020Y-61667655D01*
X104894101Y-61621513D01*
X104894096Y-61621511D01*
X104810347Y-61599070D01*
X104765414Y-61564591D01*
X104755500Y-61527592D01*
X104755500Y-59949499D01*
X104753587Y-59925196D01*
X104753586Y-59925177D01*
X104753581Y-59925145D01*
X104753440Y-59923955D01*
X104753478Y-59923816D01*
X104753472Y-59923728D01*
X104753504Y-59923725D01*
X104768788Y-59869437D01*
X104818190Y-59841739D01*
X104818469Y-59841706D01*
X105019509Y-59819055D01*
X105293318Y-59756560D01*
X105558408Y-59663801D01*
X105811445Y-59541945D01*
X106049248Y-59392523D01*
X106268825Y-59217416D01*
X106467416Y-59018825D01*
X106642523Y-58799248D01*
X106791945Y-58561445D01*
X106858828Y-58422561D01*
X106901059Y-58384821D01*
X106957607Y-58387996D01*
X106995347Y-58430227D01*
X106999500Y-58454668D01*
X106999500Y-59325168D01*
X106977826Y-59377494D01*
X106925500Y-59399168D01*
X106873175Y-59377494D01*
X106815212Y-59319531D01*
X106815209Y-59319529D01*
X106815208Y-59319528D01*
X106735289Y-59273386D01*
X106735284Y-59273384D01*
X106646146Y-59249500D01*
X106646144Y-59249500D01*
X106553856Y-59249500D01*
X106553854Y-59249500D01*
X106464715Y-59273384D01*
X106464710Y-59273386D01*
X106384791Y-59319528D01*
X106319528Y-59384791D01*
X106273386Y-59464710D01*
X106273384Y-59464715D01*
X106249500Y-59553853D01*
X106249500Y-59646146D01*
X106273384Y-59735284D01*
X106273386Y-59735289D01*
X106319528Y-59815208D01*
X106319529Y-59815209D01*
X106319531Y-59815212D01*
X106384788Y-59880469D01*
X106384790Y-59880470D01*
X106384791Y-59880471D01*
X106462223Y-59925177D01*
X106464712Y-59926614D01*
X106464713Y-59926614D01*
X106464715Y-59926615D01*
X106509284Y-59938557D01*
X106553853Y-59950499D01*
X106553854Y-59950500D01*
X106553856Y-59950500D01*
X106646146Y-59950500D01*
X106646146Y-59950499D01*
X106735288Y-59926614D01*
X106815212Y-59880469D01*
X106873175Y-59822505D01*
X106925500Y-59800832D01*
X106977826Y-59822506D01*
X106999500Y-59874832D01*
X106999500Y-61655168D01*
X106977826Y-61707494D01*
X106925500Y-61729168D01*
X106873175Y-61707494D01*
X106835212Y-61669531D01*
X106835209Y-61669529D01*
X106835208Y-61669528D01*
X106755289Y-61623386D01*
X106755284Y-61623384D01*
X106666146Y-61599500D01*
X106666144Y-61599500D01*
X106573856Y-61599500D01*
X106573854Y-61599500D01*
X106484715Y-61623384D01*
X106484710Y-61623386D01*
X106404791Y-61669528D01*
X106339528Y-61734791D01*
X106293386Y-61814710D01*
X106293384Y-61814715D01*
X106269500Y-61903853D01*
X106269500Y-61996146D01*
X106293384Y-62085284D01*
X106293386Y-62085289D01*
X106339529Y-62165209D01*
X106339531Y-62165212D01*
X106386993Y-62212675D01*
X106408667Y-62265001D01*
X106386993Y-62317326D01*
X106319528Y-62384791D01*
X106273386Y-62464710D01*
X106273384Y-62464715D01*
X106249500Y-62553853D01*
X106249500Y-62646146D01*
X106273384Y-62735284D01*
X106273386Y-62735289D01*
X106319528Y-62815208D01*
X106319529Y-62815209D01*
X106319531Y-62815212D01*
X106384788Y-62880469D01*
X106384790Y-62880470D01*
X106384791Y-62880471D01*
X106464710Y-62926613D01*
X106464712Y-62926614D01*
X106464713Y-62926614D01*
X106464715Y-62926615D01*
X106496785Y-62935208D01*
X106553853Y-62950499D01*
X106553854Y-62950500D01*
X106553856Y-62950500D01*
X106646146Y-62950500D01*
X106646146Y-62950499D01*
X106735288Y-62926614D01*
X106815212Y-62880469D01*
X106873175Y-62822505D01*
X106925500Y-62800832D01*
X106977826Y-62822506D01*
X106999500Y-62874832D01*
X106999500Y-65125500D01*
X106977826Y-65177826D01*
X106925500Y-65199500D01*
X97078867Y-65199500D01*
X97026541Y-65177826D01*
X97004867Y-65125500D01*
X97026541Y-65073174D01*
X97050549Y-65057133D01*
X97052641Y-65056265D01*
X97055495Y-65055084D01*
X97178416Y-64972951D01*
X97282951Y-64868416D01*
X97365084Y-64745495D01*
X97407185Y-64643853D01*
X97609500Y-64643853D01*
X97609500Y-64736146D01*
X97633384Y-64825284D01*
X97633386Y-64825289D01*
X97679528Y-64905208D01*
X97679529Y-64905209D01*
X97679531Y-64905212D01*
X97744788Y-64970469D01*
X97744790Y-64970470D01*
X97744791Y-64970471D01*
X97824710Y-65016613D01*
X97824712Y-65016614D01*
X97824713Y-65016614D01*
X97824715Y-65016615D01*
X97869284Y-65028557D01*
X97913853Y-65040499D01*
X97913854Y-65040500D01*
X97913856Y-65040500D01*
X98006146Y-65040500D01*
X98006146Y-65040499D01*
X98095288Y-65016614D01*
X98175212Y-64970469D01*
X98240469Y-64905212D01*
X98286614Y-64825288D01*
X98310499Y-64736146D01*
X98310500Y-64736146D01*
X98310500Y-64643854D01*
X98310499Y-64643853D01*
X98286615Y-64554715D01*
X98286613Y-64554710D01*
X98240470Y-64474790D01*
X98240469Y-64474788D01*
X98204843Y-64439162D01*
X98567631Y-64439162D01*
X98567631Y-64531455D01*
X98591515Y-64620593D01*
X98591517Y-64620598D01*
X98637659Y-64700517D01*
X98637660Y-64700518D01*
X98637662Y-64700521D01*
X98702919Y-64765778D01*
X98782843Y-64811923D01*
X98782844Y-64811923D01*
X98782846Y-64811924D01*
X98827415Y-64823866D01*
X98871984Y-64835808D01*
X98871985Y-64835809D01*
X98871987Y-64835809D01*
X98964277Y-64835809D01*
X98964277Y-64835808D01*
X99053419Y-64811923D01*
X99133343Y-64765778D01*
X99198600Y-64700521D01*
X99244745Y-64620597D01*
X99268630Y-64531455D01*
X99268631Y-64531455D01*
X99268631Y-64439163D01*
X99268630Y-64439162D01*
X99244746Y-64350024D01*
X99244744Y-64350019D01*
X99198602Y-64270100D01*
X99198601Y-64270099D01*
X99198600Y-64270097D01*
X99133343Y-64204840D01*
X99133340Y-64204838D01*
X99133339Y-64204837D01*
X99053420Y-64158695D01*
X99053415Y-64158693D01*
X98964277Y-64134809D01*
X98964275Y-64134809D01*
X98871987Y-64134809D01*
X98871985Y-64134809D01*
X98782846Y-64158693D01*
X98782841Y-64158695D01*
X98702922Y-64204837D01*
X98637659Y-64270100D01*
X98591517Y-64350019D01*
X98591515Y-64350024D01*
X98567631Y-64439162D01*
X98204843Y-64439162D01*
X98175212Y-64409531D01*
X98175209Y-64409529D01*
X98175208Y-64409528D01*
X98095289Y-64363386D01*
X98095284Y-64363384D01*
X98006146Y-64339500D01*
X98006144Y-64339500D01*
X97913856Y-64339500D01*
X97913854Y-64339500D01*
X97824715Y-64363384D01*
X97824710Y-64363386D01*
X97744791Y-64409528D01*
X97679528Y-64474791D01*
X97633386Y-64554710D01*
X97633384Y-64554715D01*
X97609500Y-64643853D01*
X97407185Y-64643853D01*
X97421658Y-64608913D01*
X97450500Y-64463918D01*
X97450500Y-64316082D01*
X97421658Y-64171087D01*
X97365084Y-64034505D01*
X97282951Y-63911584D01*
X97178416Y-63807049D01*
X97115055Y-63764712D01*
X97055494Y-63724915D01*
X96918917Y-63668343D01*
X96918907Y-63668340D01*
X96821811Y-63649026D01*
X96773918Y-63639500D01*
X96626082Y-63639500D01*
X96584977Y-63647676D01*
X96481092Y-63668340D01*
X96481082Y-63668343D01*
X96344505Y-63724915D01*
X96221584Y-63807048D01*
X96221583Y-63807050D01*
X96117050Y-63911583D01*
X96117048Y-63911584D01*
X96034915Y-64034505D01*
X95978343Y-64171082D01*
X95978340Y-64171092D01*
X95957573Y-64275499D01*
X95949500Y-64316082D01*
X95949500Y-64463918D01*
X95951663Y-64474790D01*
X95978340Y-64608907D01*
X95978343Y-64608917D01*
X96034915Y-64745494D01*
X96117048Y-64868415D01*
X96221584Y-64972951D01*
X96344505Y-65055084D01*
X96349451Y-65057133D01*
X96389500Y-65097181D01*
X96389500Y-65153818D01*
X96349452Y-65193867D01*
X96321133Y-65199500D01*
X94538867Y-65199500D01*
X94486541Y-65177826D01*
X94464867Y-65125500D01*
X94486541Y-65073174D01*
X94510549Y-65057133D01*
X94512641Y-65056265D01*
X94515495Y-65055084D01*
X94638416Y-64972951D01*
X94742951Y-64868416D01*
X94825084Y-64745495D01*
X94881658Y-64608913D01*
X94910500Y-64463918D01*
X94910500Y-64316082D01*
X94881658Y-64171087D01*
X94881656Y-64171082D01*
X94880603Y-64167611D01*
X94881743Y-64167265D01*
X94881736Y-64114659D01*
X94921779Y-64074605D01*
X94978416Y-64074597D01*
X95014192Y-64105966D01*
X95019528Y-64115208D01*
X95019529Y-64115209D01*
X95019531Y-64115212D01*
X95084788Y-64180469D01*
X95084790Y-64180470D01*
X95084791Y-64180471D01*
X95126999Y-64204840D01*
X95164712Y-64226614D01*
X95164713Y-64226614D01*
X95164715Y-64226615D01*
X95209284Y-64238557D01*
X95253853Y-64250499D01*
X95253854Y-64250500D01*
X95253856Y-64250500D01*
X95346146Y-64250500D01*
X95346146Y-64250499D01*
X95435288Y-64226614D01*
X95515212Y-64180469D01*
X95580469Y-64115212D01*
X95626614Y-64035288D01*
X95650499Y-63946146D01*
X95650500Y-63946146D01*
X95650500Y-63853854D01*
X95650499Y-63853853D01*
X95626615Y-63764715D01*
X95626613Y-63764710D01*
X95580471Y-63684791D01*
X95580470Y-63684790D01*
X95580469Y-63684788D01*
X95515212Y-63619531D01*
X95515209Y-63619529D01*
X95515208Y-63619528D01*
X95435289Y-63573386D01*
X95435284Y-63573384D01*
X95346146Y-63549500D01*
X95346144Y-63549500D01*
X95253856Y-63549500D01*
X95253854Y-63549500D01*
X95164715Y-63573384D01*
X95164710Y-63573386D01*
X95084791Y-63619528D01*
X95019528Y-63684791D01*
X94973386Y-63764710D01*
X94973384Y-63764715D01*
X94949500Y-63853853D01*
X94949500Y-63946145D01*
X94956316Y-63971585D01*
X94948922Y-64027737D01*
X94903988Y-64062215D01*
X94847836Y-64054821D01*
X94823309Y-64031849D01*
X94742951Y-63911584D01*
X94638416Y-63807049D01*
X94575055Y-63764712D01*
X94515494Y-63724915D01*
X94378917Y-63668343D01*
X94378907Y-63668340D01*
X94281811Y-63649026D01*
X94233918Y-63639500D01*
X94086082Y-63639500D01*
X94044977Y-63647676D01*
X93941092Y-63668340D01*
X93941082Y-63668343D01*
X93804505Y-63724915D01*
X93681584Y-63807048D01*
X93681583Y-63807050D01*
X93577050Y-63911583D01*
X93577048Y-63911584D01*
X93494915Y-64034505D01*
X93438343Y-64171082D01*
X93438340Y-64171092D01*
X93417573Y-64275499D01*
X93409500Y-64316082D01*
X93409500Y-64463918D01*
X93411663Y-64474790D01*
X93438340Y-64608907D01*
X93438343Y-64608917D01*
X93494915Y-64745494D01*
X93577048Y-64868415D01*
X93681584Y-64972951D01*
X93804505Y-65055084D01*
X93809451Y-65057133D01*
X93849500Y-65097181D01*
X93849500Y-65153818D01*
X93809452Y-65193867D01*
X93781133Y-65199500D01*
X91998867Y-65199500D01*
X91946541Y-65177826D01*
X91924867Y-65125500D01*
X91946541Y-65073174D01*
X91970549Y-65057133D01*
X91972641Y-65056265D01*
X91975495Y-65055084D01*
X92098416Y-64972951D01*
X92202951Y-64868416D01*
X92285084Y-64745495D01*
X92341658Y-64608913D01*
X92370500Y-64463918D01*
X92370500Y-64316082D01*
X92341658Y-64171087D01*
X92285084Y-64034505D01*
X92202951Y-63911584D01*
X92098416Y-63807049D01*
X92035055Y-63764712D01*
X91975494Y-63724915D01*
X91957285Y-63717373D01*
X91838917Y-63668343D01*
X91838907Y-63668340D01*
X91766077Y-63653853D01*
X92559500Y-63653853D01*
X92559500Y-63746146D01*
X92583384Y-63835284D01*
X92583386Y-63835289D01*
X92629528Y-63915208D01*
X92629529Y-63915209D01*
X92629531Y-63915212D01*
X92694788Y-63980469D01*
X92694790Y-63980470D01*
X92694791Y-63980471D01*
X92734534Y-64003417D01*
X92774712Y-64026614D01*
X92774713Y-64026614D01*
X92774715Y-64026615D01*
X92819284Y-64038557D01*
X92863853Y-64050499D01*
X92863854Y-64050500D01*
X92863856Y-64050500D01*
X92956146Y-64050500D01*
X92956146Y-64050499D01*
X93045288Y-64026614D01*
X93125212Y-63980469D01*
X93190469Y-63915212D01*
X93236614Y-63835288D01*
X93260499Y-63746146D01*
X93260500Y-63746146D01*
X93260500Y-63653854D01*
X93260499Y-63653853D01*
X93236615Y-63564715D01*
X93236613Y-63564710D01*
X93190471Y-63484791D01*
X93190470Y-63484790D01*
X93190469Y-63484788D01*
X93125212Y-63419531D01*
X93125209Y-63419529D01*
X93125208Y-63419528D01*
X93045289Y-63373386D01*
X93045284Y-63373384D01*
X92956146Y-63349500D01*
X92956144Y-63349500D01*
X92863856Y-63349500D01*
X92863854Y-63349500D01*
X92774715Y-63373384D01*
X92774710Y-63373386D01*
X92694791Y-63419528D01*
X92629528Y-63484791D01*
X92583386Y-63564710D01*
X92583384Y-63564715D01*
X92559500Y-63653853D01*
X91766077Y-63653853D01*
X91741811Y-63649026D01*
X91693918Y-63639500D01*
X91546082Y-63639500D01*
X91504977Y-63647676D01*
X91401092Y-63668340D01*
X91401082Y-63668343D01*
X91264505Y-63724915D01*
X91141584Y-63807048D01*
X91141583Y-63807050D01*
X91037050Y-63911583D01*
X91037048Y-63911584D01*
X90954915Y-64034505D01*
X90898343Y-64171082D01*
X90898340Y-64171092D01*
X90877573Y-64275499D01*
X90869500Y-64316082D01*
X90869500Y-64463918D01*
X90871663Y-64474790D01*
X90898340Y-64608907D01*
X90898343Y-64608917D01*
X90954915Y-64745494D01*
X91037048Y-64868415D01*
X91141584Y-64972951D01*
X91264505Y-65055084D01*
X91269451Y-65057133D01*
X91309500Y-65097181D01*
X91309500Y-65153818D01*
X91269452Y-65193867D01*
X91241133Y-65199500D01*
X90274500Y-65199500D01*
X90222174Y-65177826D01*
X90200500Y-65125500D01*
X90200500Y-58958538D01*
X90222174Y-58906212D01*
X90274500Y-58884538D01*
X90326826Y-58906212D01*
X90333203Y-58913483D01*
X90334526Y-58915207D01*
X90334528Y-58915209D01*
X90334530Y-58915212D01*
X90399787Y-58980469D01*
X90399789Y-58980470D01*
X90399790Y-58980471D01*
X90466220Y-59018825D01*
X90479711Y-59026614D01*
X90479712Y-59026614D01*
X90479714Y-59026615D01*
X90524283Y-59038557D01*
X90568852Y-59050499D01*
X90568853Y-59050500D01*
X90568855Y-59050500D01*
X90661145Y-59050500D01*
X90661145Y-59050499D01*
X90750287Y-59026614D01*
X90830211Y-58980469D01*
X90895468Y-58915212D01*
X90941613Y-58835288D01*
X90965498Y-58746146D01*
X90965499Y-58746146D01*
X90965499Y-58653854D01*
X90965498Y-58653853D01*
X90963675Y-58647051D01*
X90951311Y-58600907D01*
X90941614Y-58564715D01*
X90941612Y-58564710D01*
X90895470Y-58484791D01*
X90895469Y-58484790D01*
X90895468Y-58484788D01*
X90830211Y-58419531D01*
X90830208Y-58419529D01*
X90830207Y-58419528D01*
X90750288Y-58373386D01*
X90750283Y-58373384D01*
X90661145Y-58349500D01*
X90661143Y-58349500D01*
X90568855Y-58349500D01*
X90568853Y-58349500D01*
X90479714Y-58373384D01*
X90479709Y-58373386D01*
X90399790Y-58419528D01*
X90334523Y-58484795D01*
X90333199Y-58486521D01*
X90332250Y-58487068D01*
X90331101Y-58488218D01*
X90330792Y-58487909D01*
X90284144Y-58514830D01*
X90229440Y-58500160D01*
X90201131Y-58451105D01*
X90200500Y-58441461D01*
X90200500Y-57378853D01*
X91799500Y-57378853D01*
X91799500Y-57471146D01*
X91823384Y-57560284D01*
X91823386Y-57560289D01*
X91869528Y-57640208D01*
X91869529Y-57640209D01*
X91869531Y-57640212D01*
X91934788Y-57705469D01*
X91934790Y-57705470D01*
X91934791Y-57705471D01*
X92014710Y-57751613D01*
X92014712Y-57751614D01*
X92014713Y-57751614D01*
X92014715Y-57751615D01*
X92059284Y-57763557D01*
X92103853Y-57775499D01*
X92103854Y-57775500D01*
X92103856Y-57775500D01*
X92196146Y-57775500D01*
X92196146Y-57775499D01*
X92285288Y-57751614D01*
X92365212Y-57705469D01*
X92430469Y-57640212D01*
X92476614Y-57560288D01*
X92500499Y-57471146D01*
X92500500Y-57471146D01*
X92500500Y-57378854D01*
X92500499Y-57378853D01*
X92476615Y-57289715D01*
X92476613Y-57289710D01*
X92430471Y-57209791D01*
X92430470Y-57209790D01*
X92430469Y-57209788D01*
X92365212Y-57144531D01*
X92365209Y-57144529D01*
X92365208Y-57144528D01*
X92285289Y-57098386D01*
X92285284Y-57098384D01*
X92196146Y-57074500D01*
X92196144Y-57074500D01*
X92103856Y-57074500D01*
X92103854Y-57074500D01*
X92014715Y-57098384D01*
X92014710Y-57098386D01*
X91934791Y-57144528D01*
X91869528Y-57209791D01*
X91823386Y-57289710D01*
X91823384Y-57289715D01*
X91799500Y-57378853D01*
X90200500Y-57378853D01*
X90200500Y-56724832D01*
X90222174Y-56672506D01*
X90274500Y-56650832D01*
X90326824Y-56672505D01*
X90359788Y-56705469D01*
X90359790Y-56705470D01*
X90359791Y-56705471D01*
X90439710Y-56751613D01*
X90439712Y-56751614D01*
X90439713Y-56751614D01*
X90439715Y-56751615D01*
X90484284Y-56763557D01*
X90528853Y-56775499D01*
X90528854Y-56775500D01*
X90528856Y-56775500D01*
X90621146Y-56775500D01*
X90621146Y-56775499D01*
X90710288Y-56751614D01*
X90790212Y-56705469D01*
X90801825Y-56693856D01*
X91014500Y-56693856D01*
X91014500Y-56786146D01*
X91038384Y-56875284D01*
X91038386Y-56875289D01*
X91084528Y-56955208D01*
X91084529Y-56955209D01*
X91084531Y-56955212D01*
X91149788Y-57020469D01*
X91149790Y-57020470D01*
X91149791Y-57020471D01*
X91224831Y-57063796D01*
X91229712Y-57066614D01*
X91229713Y-57066614D01*
X91229715Y-57066615D01*
X91259143Y-57074500D01*
X91318853Y-57090499D01*
X91318854Y-57090500D01*
X91318856Y-57090500D01*
X91411146Y-57090500D01*
X91411146Y-57090499D01*
X91500288Y-57066614D01*
X91580212Y-57020469D01*
X91645469Y-56955212D01*
X91691614Y-56875288D01*
X91715499Y-56786146D01*
X91715500Y-56786146D01*
X91715500Y-56737178D01*
X93542963Y-56737178D01*
X93542963Y-56829471D01*
X93566847Y-56918609D01*
X93566849Y-56918614D01*
X93612991Y-56998533D01*
X93612992Y-56998534D01*
X93612994Y-56998537D01*
X93678251Y-57063794D01*
X93678253Y-57063795D01*
X93678254Y-57063796D01*
X93738165Y-57098386D01*
X93758175Y-57109939D01*
X93758176Y-57109939D01*
X93758178Y-57109940D01*
X93802747Y-57121882D01*
X93847316Y-57133824D01*
X93847317Y-57133825D01*
X93847319Y-57133825D01*
X93939609Y-57133825D01*
X93939609Y-57133824D01*
X93963016Y-57127552D01*
X93971569Y-57125261D01*
X94027721Y-57132653D01*
X94062200Y-57177586D01*
X94055366Y-57229513D01*
X94056295Y-57229898D01*
X94054859Y-57233362D01*
X94054811Y-57233734D01*
X94054439Y-57234377D01*
X94054436Y-57234384D01*
X94030552Y-57323522D01*
X94030552Y-57415815D01*
X94054436Y-57504953D01*
X94054438Y-57504958D01*
X94100580Y-57584877D01*
X94100581Y-57584878D01*
X94100583Y-57584881D01*
X94165840Y-57650138D01*
X94245764Y-57696283D01*
X94245765Y-57696283D01*
X94245767Y-57696284D01*
X94280047Y-57705469D01*
X94334905Y-57720168D01*
X94334906Y-57720169D01*
X94334908Y-57720169D01*
X94427198Y-57720169D01*
X94427198Y-57720168D01*
X94516340Y-57696283D01*
X94596264Y-57650138D01*
X94661521Y-57584881D01*
X94707666Y-57504957D01*
X94731551Y-57415815D01*
X94731552Y-57415815D01*
X94731552Y-57323523D01*
X94731551Y-57323522D01*
X94707667Y-57234384D01*
X94707665Y-57234379D01*
X94661523Y-57154460D01*
X94661522Y-57154459D01*
X94661521Y-57154457D01*
X94596264Y-57089200D01*
X94596261Y-57089198D01*
X94596260Y-57089197D01*
X94516341Y-57043055D01*
X94516336Y-57043053D01*
X94427198Y-57019169D01*
X94427196Y-57019169D01*
X94334908Y-57019169D01*
X94334907Y-57019169D01*
X94302943Y-57027733D01*
X94246791Y-57020339D01*
X94212313Y-56975405D01*
X94219150Y-56923481D01*
X94218220Y-56923096D01*
X94219658Y-56919623D01*
X94219707Y-56919253D01*
X94220077Y-56918613D01*
X94243962Y-56829471D01*
X94243963Y-56829471D01*
X94243963Y-56737179D01*
X94239746Y-56721443D01*
X94247137Y-56665290D01*
X94292070Y-56630811D01*
X94330375Y-56630811D01*
X94403853Y-56650499D01*
X94403854Y-56650500D01*
X94403856Y-56650500D01*
X94496146Y-56650500D01*
X94496146Y-56650499D01*
X94585288Y-56626614D01*
X94665212Y-56580469D01*
X94730469Y-56515212D01*
X94776614Y-56435288D01*
X94800499Y-56346146D01*
X94800500Y-56346146D01*
X94800500Y-56253854D01*
X94800499Y-56253853D01*
X94776615Y-56164715D01*
X94776613Y-56164710D01*
X94730471Y-56084791D01*
X94730470Y-56084790D01*
X94730469Y-56084788D01*
X94665212Y-56019531D01*
X94665209Y-56019529D01*
X94665208Y-56019528D01*
X94585289Y-55973386D01*
X94585284Y-55973384D01*
X94496146Y-55949500D01*
X94496144Y-55949500D01*
X94403856Y-55949500D01*
X94403854Y-55949500D01*
X94314715Y-55973384D01*
X94314710Y-55973386D01*
X94234791Y-56019528D01*
X94169528Y-56084791D01*
X94123386Y-56164710D01*
X94123384Y-56164715D01*
X94099500Y-56253853D01*
X94099500Y-56346144D01*
X94103717Y-56361883D01*
X94096323Y-56418036D01*
X94051390Y-56452514D01*
X94013085Y-56452513D01*
X93939609Y-56432825D01*
X93939607Y-56432825D01*
X93847319Y-56432825D01*
X93847317Y-56432825D01*
X93758178Y-56456709D01*
X93758173Y-56456711D01*
X93678254Y-56502853D01*
X93612991Y-56568116D01*
X93566849Y-56648035D01*
X93566847Y-56648040D01*
X93542963Y-56737178D01*
X91715500Y-56737178D01*
X91715500Y-56693854D01*
X91715499Y-56693853D01*
X91691615Y-56604715D01*
X91691613Y-56604710D01*
X91645471Y-56524791D01*
X91645470Y-56524790D01*
X91645469Y-56524788D01*
X91580212Y-56459531D01*
X91580209Y-56459529D01*
X91580208Y-56459528D01*
X91500289Y-56413386D01*
X91500284Y-56413384D01*
X91411146Y-56389500D01*
X91411144Y-56389500D01*
X91318856Y-56389500D01*
X91318854Y-56389500D01*
X91229715Y-56413384D01*
X91229710Y-56413386D01*
X91149791Y-56459528D01*
X91084528Y-56524791D01*
X91045036Y-56593193D01*
X91045034Y-56593196D01*
X91038386Y-56604712D01*
X91032636Y-56626170D01*
X91032630Y-56626187D01*
X91014500Y-56693856D01*
X90801825Y-56693856D01*
X90855469Y-56640212D01*
X90901614Y-56560288D01*
X90925499Y-56471146D01*
X90925500Y-56471146D01*
X90925500Y-56378854D01*
X90925499Y-56378853D01*
X90923695Y-56372122D01*
X90904333Y-56299860D01*
X90901615Y-56289715D01*
X90901613Y-56289710D01*
X90855471Y-56209791D01*
X90855470Y-56209790D01*
X90855469Y-56209788D01*
X90790212Y-56144531D01*
X90790209Y-56144529D01*
X90790208Y-56144528D01*
X90710289Y-56098386D01*
X90710284Y-56098384D01*
X90621146Y-56074500D01*
X90621144Y-56074500D01*
X90528856Y-56074500D01*
X90528854Y-56074500D01*
X90439715Y-56098384D01*
X90439710Y-56098386D01*
X90359791Y-56144528D01*
X90359788Y-56144530D01*
X90359788Y-56144531D01*
X90326824Y-56177494D01*
X90274500Y-56199168D01*
X90222174Y-56177494D01*
X90200500Y-56125168D01*
X90200500Y-55553853D01*
X91449500Y-55553853D01*
X91449500Y-55646146D01*
X91473384Y-55735284D01*
X91473386Y-55735289D01*
X91519528Y-55815208D01*
X91519529Y-55815209D01*
X91519531Y-55815212D01*
X91584788Y-55880469D01*
X91584790Y-55880470D01*
X91584791Y-55880471D01*
X91624813Y-55903578D01*
X91664712Y-55926614D01*
X91664713Y-55926614D01*
X91664715Y-55926615D01*
X91709284Y-55938557D01*
X91753853Y-55950499D01*
X91753854Y-55950500D01*
X91753856Y-55950500D01*
X91846146Y-55950500D01*
X91846146Y-55950499D01*
X91935288Y-55926614D01*
X92015212Y-55880469D01*
X92080469Y-55815212D01*
X92126614Y-55735288D01*
X92150499Y-55646146D01*
X92150500Y-55646146D01*
X92150500Y-55553854D01*
X92150499Y-55553853D01*
X92126615Y-55464715D01*
X92126613Y-55464710D01*
X92080471Y-55384791D01*
X92080470Y-55384790D01*
X92080469Y-55384788D01*
X92015781Y-55320100D01*
X95652485Y-55320100D01*
X95652485Y-55412393D01*
X95676369Y-55501531D01*
X95676371Y-55501536D01*
X95722513Y-55581455D01*
X95722514Y-55581456D01*
X95722516Y-55581459D01*
X95787773Y-55646716D01*
X95787775Y-55646717D01*
X95787776Y-55646718D01*
X95867695Y-55692860D01*
X95867697Y-55692861D01*
X95867698Y-55692861D01*
X95867700Y-55692862D01*
X95912269Y-55704804D01*
X95956838Y-55716746D01*
X95956839Y-55716747D01*
X95956841Y-55716747D01*
X96049131Y-55716747D01*
X96049131Y-55716746D01*
X96138273Y-55692861D01*
X96218197Y-55646716D01*
X96283454Y-55581459D01*
X96329599Y-55501535D01*
X96353484Y-55412393D01*
X96353485Y-55412393D01*
X96353485Y-55320101D01*
X96353484Y-55320100D01*
X96329600Y-55230962D01*
X96329598Y-55230957D01*
X96283456Y-55151038D01*
X96283455Y-55151037D01*
X96283454Y-55151035D01*
X96218197Y-55085778D01*
X96218194Y-55085776D01*
X96218193Y-55085775D01*
X96138274Y-55039633D01*
X96138269Y-55039631D01*
X96049131Y-55015747D01*
X96049129Y-55015747D01*
X95956841Y-55015747D01*
X95956839Y-55015747D01*
X95867700Y-55039631D01*
X95867695Y-55039633D01*
X95787776Y-55085775D01*
X95722513Y-55151038D01*
X95676371Y-55230957D01*
X95676369Y-55230962D01*
X95652485Y-55320100D01*
X92015781Y-55320100D01*
X92015212Y-55319531D01*
X92015209Y-55319529D01*
X92015208Y-55319528D01*
X91935289Y-55273386D01*
X91935284Y-55273384D01*
X91846146Y-55249500D01*
X91846144Y-55249500D01*
X91753856Y-55249500D01*
X91753854Y-55249500D01*
X91664715Y-55273384D01*
X91664710Y-55273386D01*
X91584791Y-55319528D01*
X91519528Y-55384791D01*
X91473386Y-55464710D01*
X91473384Y-55464715D01*
X91449500Y-55553853D01*
X90200500Y-55553853D01*
X90200500Y-54063853D01*
X90849500Y-54063853D01*
X90849500Y-54156146D01*
X90873384Y-54245284D01*
X90873386Y-54245289D01*
X90919528Y-54325208D01*
X90919529Y-54325209D01*
X90919531Y-54325212D01*
X90984788Y-54390469D01*
X90984790Y-54390470D01*
X90984791Y-54390471D01*
X91048083Y-54427013D01*
X91064712Y-54436614D01*
X91064713Y-54436614D01*
X91064715Y-54436615D01*
X91102036Y-54446615D01*
X91153853Y-54460499D01*
X91153854Y-54460500D01*
X91153856Y-54460500D01*
X91246146Y-54460500D01*
X91246146Y-54460499D01*
X91335288Y-54436614D01*
X91415212Y-54390469D01*
X91480469Y-54325212D01*
X91505112Y-54282530D01*
X91550045Y-54248051D01*
X91606198Y-54255444D01*
X91610926Y-54258417D01*
X91616632Y-54262313D01*
X91634788Y-54280469D01*
X91689400Y-54312000D01*
X91691707Y-54313575D01*
X91705786Y-54335111D01*
X91721458Y-54355535D01*
X91721069Y-54358489D01*
X91722698Y-54360981D01*
X91717425Y-54386166D01*
X91714065Y-54411688D01*
X91711337Y-54415242D01*
X91711092Y-54416416D01*
X91709778Y-54417274D01*
X91702306Y-54427013D01*
X91669528Y-54459791D01*
X91623386Y-54539710D01*
X91623384Y-54539715D01*
X91599500Y-54628853D01*
X91599500Y-54721146D01*
X91623384Y-54810284D01*
X91623386Y-54810289D01*
X91669528Y-54890208D01*
X91669529Y-54890209D01*
X91669531Y-54890212D01*
X91734788Y-54955469D01*
X91734790Y-54955470D01*
X91734791Y-54955471D01*
X91814710Y-55001613D01*
X91814712Y-55001614D01*
X91814713Y-55001614D01*
X91814715Y-55001615D01*
X91859284Y-55013557D01*
X91903853Y-55025499D01*
X91903854Y-55025500D01*
X91903856Y-55025500D01*
X91996146Y-55025500D01*
X91996146Y-55025499D01*
X92085288Y-55001614D01*
X92165212Y-54955469D01*
X92230469Y-54890212D01*
X92276614Y-54810288D01*
X92300499Y-54721146D01*
X92300500Y-54721146D01*
X92300500Y-54628854D01*
X92300499Y-54628853D01*
X92299899Y-54626615D01*
X92276614Y-54539712D01*
X92266943Y-54522961D01*
X92256720Y-54505254D01*
X92249328Y-54449101D01*
X92283806Y-54404168D01*
X92339958Y-54396776D01*
X92353856Y-54400500D01*
X92353857Y-54400500D01*
X92446146Y-54400500D01*
X92446146Y-54400499D01*
X92535288Y-54376614D01*
X92615212Y-54330469D01*
X92680469Y-54265212D01*
X92726614Y-54185288D01*
X92750499Y-54096146D01*
X92750500Y-54096146D01*
X92750500Y-54003854D01*
X92750499Y-54003853D01*
X92746899Y-53990419D01*
X92735013Y-53946057D01*
X92726615Y-53914715D01*
X92726613Y-53914710D01*
X92680471Y-53834791D01*
X92680470Y-53834790D01*
X92680469Y-53834788D01*
X92615212Y-53769531D01*
X92615209Y-53769529D01*
X92615208Y-53769528D01*
X92535289Y-53723386D01*
X92535284Y-53723384D01*
X92446146Y-53699500D01*
X92446144Y-53699500D01*
X92353856Y-53699500D01*
X92353854Y-53699500D01*
X92264715Y-53723384D01*
X92264710Y-53723386D01*
X92189852Y-53766606D01*
X92133699Y-53773998D01*
X92100528Y-53754847D01*
X92065212Y-53719531D01*
X92065209Y-53719529D01*
X92065208Y-53719528D01*
X91985289Y-53673386D01*
X91985284Y-53673384D01*
X91896146Y-53649500D01*
X91896144Y-53649500D01*
X91803856Y-53649500D01*
X91803854Y-53649500D01*
X91714715Y-53673384D01*
X91714710Y-53673386D01*
X91634791Y-53719528D01*
X91569528Y-53784791D01*
X91544886Y-53827471D01*
X91499952Y-53861948D01*
X91443799Y-53854554D01*
X91428479Y-53842798D01*
X91415212Y-53829531D01*
X91415209Y-53829529D01*
X91415208Y-53829528D01*
X91335289Y-53783386D01*
X91335284Y-53783384D01*
X91246146Y-53759500D01*
X91246144Y-53759500D01*
X91153856Y-53759500D01*
X91153854Y-53759500D01*
X91064715Y-53783384D01*
X91064710Y-53783386D01*
X90984791Y-53829528D01*
X90919528Y-53894791D01*
X90873386Y-53974710D01*
X90873384Y-53974715D01*
X90849500Y-54063853D01*
X90200500Y-54063853D01*
X90200500Y-53103856D01*
X90954041Y-53103856D01*
X90954041Y-53196149D01*
X90977925Y-53285287D01*
X90977927Y-53285292D01*
X91024069Y-53365211D01*
X91024070Y-53365212D01*
X91024072Y-53365215D01*
X91089329Y-53430472D01*
X91089331Y-53430473D01*
X91089332Y-53430474D01*
X91169251Y-53476616D01*
X91169253Y-53476617D01*
X91169254Y-53476617D01*
X91169256Y-53476618D01*
X91213825Y-53488560D01*
X91258394Y-53500502D01*
X91258395Y-53500503D01*
X91258397Y-53500503D01*
X91350687Y-53500503D01*
X91350687Y-53500502D01*
X91439829Y-53476617D01*
X91519753Y-53430472D01*
X91585010Y-53365215D01*
X91626196Y-53293880D01*
X94386797Y-53293880D01*
X94386797Y-53386173D01*
X94410681Y-53475311D01*
X94410683Y-53475316D01*
X94456825Y-53555235D01*
X94456826Y-53555236D01*
X94456828Y-53555239D01*
X94522085Y-53620496D01*
X94522087Y-53620497D01*
X94522088Y-53620498D01*
X94602007Y-53666640D01*
X94602009Y-53666641D01*
X94602010Y-53666641D01*
X94602012Y-53666642D01*
X94695838Y-53691783D01*
X94695189Y-53694204D01*
X94737180Y-53718438D01*
X94751849Y-53773143D01*
X94723539Y-53822197D01*
X94715482Y-53827582D01*
X94694791Y-53839528D01*
X94629528Y-53904791D01*
X94583386Y-53984710D01*
X94583384Y-53984715D01*
X94559500Y-54073853D01*
X94559500Y-54166146D01*
X94583384Y-54255284D01*
X94583386Y-54255289D01*
X94629528Y-54335208D01*
X94629529Y-54335209D01*
X94629531Y-54335212D01*
X94694788Y-54400469D01*
X94694790Y-54400470D01*
X94694791Y-54400471D01*
X94774710Y-54446613D01*
X94774712Y-54446614D01*
X94774713Y-54446614D01*
X94774715Y-54446615D01*
X94819284Y-54458557D01*
X94863853Y-54470499D01*
X94863854Y-54470500D01*
X94863856Y-54470500D01*
X94956146Y-54470500D01*
X94956146Y-54470499D01*
X95045288Y-54446614D01*
X95125212Y-54400469D01*
X95190469Y-54335212D01*
X95236614Y-54255288D01*
X95260499Y-54166146D01*
X95260500Y-54166146D01*
X95260500Y-54073854D01*
X95260499Y-54073853D01*
X95260485Y-54073802D01*
X95236614Y-53984712D01*
X95230842Y-53974715D01*
X95190471Y-53904791D01*
X95190470Y-53904790D01*
X95190469Y-53904788D01*
X95125212Y-53839531D01*
X95125209Y-53839529D01*
X95125208Y-53839528D01*
X95045289Y-53793386D01*
X95045284Y-53793384D01*
X94951459Y-53768244D01*
X94952105Y-53765831D01*
X94910094Y-53741560D01*
X94895452Y-53686848D01*
X94923785Y-53637807D01*
X94931808Y-53632447D01*
X94952509Y-53620496D01*
X95017766Y-53555239D01*
X95063911Y-53475315D01*
X95087796Y-53386173D01*
X95087797Y-53386173D01*
X95087797Y-53293881D01*
X95087796Y-53293880D01*
X95063912Y-53204742D01*
X95063910Y-53204737D01*
X95017768Y-53124818D01*
X95017767Y-53124817D01*
X95017766Y-53124815D01*
X94952509Y-53059558D01*
X94952506Y-53059556D01*
X94952505Y-53059555D01*
X94872586Y-53013413D01*
X94872581Y-53013411D01*
X94783443Y-52989527D01*
X94783441Y-52989527D01*
X94691153Y-52989527D01*
X94691151Y-52989527D01*
X94602012Y-53013411D01*
X94602007Y-53013413D01*
X94522088Y-53059555D01*
X94456825Y-53124818D01*
X94410683Y-53204737D01*
X94410681Y-53204742D01*
X94386797Y-53293880D01*
X91626196Y-53293880D01*
X91631155Y-53285291D01*
X91655041Y-53196147D01*
X91655041Y-53103859D01*
X91655041Y-53103857D01*
X91655040Y-53103856D01*
X91631156Y-53014718D01*
X91631154Y-53014713D01*
X91585012Y-52934794D01*
X91585011Y-52934793D01*
X91585010Y-52934791D01*
X91519753Y-52869534D01*
X91519750Y-52869532D01*
X91519749Y-52869531D01*
X91439830Y-52823389D01*
X91439825Y-52823387D01*
X91350687Y-52799503D01*
X91350685Y-52799503D01*
X91258397Y-52799503D01*
X91258395Y-52799503D01*
X91169256Y-52823387D01*
X91169251Y-52823389D01*
X91089332Y-52869531D01*
X91024069Y-52934794D01*
X90977927Y-53014713D01*
X90977925Y-53014718D01*
X90954041Y-53103856D01*
X90200500Y-53103856D01*
X90200500Y-52553853D01*
X92049500Y-52553853D01*
X92049500Y-52646146D01*
X92073384Y-52735284D01*
X92073386Y-52735289D01*
X92119528Y-52815208D01*
X92119529Y-52815209D01*
X92119531Y-52815212D01*
X92184788Y-52880469D01*
X92184790Y-52880470D01*
X92184791Y-52880471D01*
X92259121Y-52923386D01*
X92264712Y-52926614D01*
X92264713Y-52926614D01*
X92264715Y-52926615D01*
X92295229Y-52934791D01*
X92353853Y-52950499D01*
X92353854Y-52950500D01*
X92353856Y-52950500D01*
X92446146Y-52950500D01*
X92446146Y-52950499D01*
X92535288Y-52926614D01*
X92615212Y-52880469D01*
X92680469Y-52815212D01*
X92726614Y-52735288D01*
X92750499Y-52646146D01*
X92750500Y-52646146D01*
X92750500Y-52553854D01*
X92750499Y-52553853D01*
X93449500Y-52553853D01*
X93449500Y-52646146D01*
X93473384Y-52735284D01*
X93473386Y-52735289D01*
X93519528Y-52815208D01*
X93519529Y-52815209D01*
X93519531Y-52815212D01*
X93584788Y-52880469D01*
X93584790Y-52880470D01*
X93584791Y-52880471D01*
X93659121Y-52923386D01*
X93664712Y-52926614D01*
X93664713Y-52926614D01*
X93664715Y-52926615D01*
X93695229Y-52934791D01*
X93753853Y-52950499D01*
X93753854Y-52950500D01*
X93753856Y-52950500D01*
X93846146Y-52950500D01*
X93846146Y-52950499D01*
X93935288Y-52926614D01*
X94015212Y-52880469D01*
X94080469Y-52815212D01*
X94126614Y-52735288D01*
X94150499Y-52646146D01*
X94150500Y-52646146D01*
X94150500Y-52553854D01*
X94150499Y-52553853D01*
X94126615Y-52464715D01*
X94126613Y-52464710D01*
X94080471Y-52384791D01*
X94080470Y-52384790D01*
X94080469Y-52384788D01*
X94015212Y-52319531D01*
X94015209Y-52319529D01*
X94015208Y-52319528D01*
X93935289Y-52273386D01*
X93935284Y-52273384D01*
X93846146Y-52249500D01*
X93846144Y-52249500D01*
X93753856Y-52249500D01*
X93753854Y-52249500D01*
X93664715Y-52273384D01*
X93664710Y-52273386D01*
X93584791Y-52319528D01*
X93519528Y-52384791D01*
X93473386Y-52464710D01*
X93473384Y-52464715D01*
X93449500Y-52553853D01*
X92750499Y-52553853D01*
X92726615Y-52464715D01*
X92726613Y-52464710D01*
X92680471Y-52384791D01*
X92680470Y-52384790D01*
X92680469Y-52384788D01*
X92615212Y-52319531D01*
X92615209Y-52319529D01*
X92615208Y-52319528D01*
X92535289Y-52273386D01*
X92535284Y-52273384D01*
X92446146Y-52249500D01*
X92446144Y-52249500D01*
X92353856Y-52249500D01*
X92353854Y-52249500D01*
X92264715Y-52273384D01*
X92264710Y-52273386D01*
X92184791Y-52319528D01*
X92119528Y-52384791D01*
X92073386Y-52464710D01*
X92073384Y-52464715D01*
X92049500Y-52553853D01*
X90200500Y-52553853D01*
X90200500Y-52181807D01*
X94512761Y-52181807D01*
X94512761Y-52274100D01*
X94536645Y-52363238D01*
X94536647Y-52363243D01*
X94582789Y-52443162D01*
X94582790Y-52443163D01*
X94582792Y-52443166D01*
X94648049Y-52508423D01*
X94648051Y-52508424D01*
X94648052Y-52508425D01*
X94726736Y-52553854D01*
X94727973Y-52554568D01*
X94727974Y-52554568D01*
X94727976Y-52554569D01*
X94772545Y-52566511D01*
X94817114Y-52578453D01*
X94817115Y-52578454D01*
X94817117Y-52578454D01*
X94909407Y-52578454D01*
X94909407Y-52578453D01*
X94998549Y-52554568D01*
X95078473Y-52508423D01*
X95143730Y-52443166D01*
X95149107Y-52433853D01*
X96019500Y-52433853D01*
X96019500Y-52526146D01*
X96043384Y-52615284D01*
X96043386Y-52615289D01*
X96089528Y-52695208D01*
X96089529Y-52695209D01*
X96089531Y-52695212D01*
X96154788Y-52760469D01*
X96154790Y-52760470D01*
X96154791Y-52760471D01*
X96227597Y-52802506D01*
X96234712Y-52806614D01*
X96234713Y-52806614D01*
X96234715Y-52806615D01*
X96266785Y-52815208D01*
X96323853Y-52830499D01*
X96323854Y-52830500D01*
X96323856Y-52830500D01*
X96416146Y-52830500D01*
X96416146Y-52830499D01*
X96505288Y-52806614D01*
X96585212Y-52760469D01*
X96650469Y-52695212D01*
X96696614Y-52615288D01*
X96720499Y-52526146D01*
X96720500Y-52526146D01*
X96720500Y-52433854D01*
X96720499Y-52433853D01*
X96696615Y-52344715D01*
X96696613Y-52344710D01*
X96650471Y-52264791D01*
X96650470Y-52264790D01*
X96650469Y-52264788D01*
X96585212Y-52199531D01*
X96585209Y-52199529D01*
X96585208Y-52199528D01*
X96505289Y-52153386D01*
X96505284Y-52153384D01*
X96416146Y-52129500D01*
X96416144Y-52129500D01*
X96323856Y-52129500D01*
X96323854Y-52129500D01*
X96234715Y-52153384D01*
X96234710Y-52153386D01*
X96154791Y-52199528D01*
X96089528Y-52264791D01*
X96043386Y-52344710D01*
X96043384Y-52344715D01*
X96019500Y-52433853D01*
X95149107Y-52433853D01*
X95177434Y-52384791D01*
X95189874Y-52363243D01*
X95189875Y-52363242D01*
X95213760Y-52274100D01*
X95213761Y-52274100D01*
X95213761Y-52181808D01*
X95213760Y-52181807D01*
X95209179Y-52164712D01*
X95189875Y-52092666D01*
X95143730Y-52012742D01*
X95078473Y-51947485D01*
X95078470Y-51947483D01*
X95078469Y-51947482D01*
X94998550Y-51901340D01*
X94998545Y-51901338D01*
X94909407Y-51877454D01*
X94909405Y-51877454D01*
X94817117Y-51877454D01*
X94817115Y-51877454D01*
X94727976Y-51901338D01*
X94727971Y-51901340D01*
X94648052Y-51947482D01*
X94582789Y-52012745D01*
X94536647Y-52092664D01*
X94536645Y-52092669D01*
X94512761Y-52181807D01*
X90200500Y-52181807D01*
X90200500Y-51270576D01*
X90222174Y-51218250D01*
X90274500Y-51196576D01*
X90326826Y-51218250D01*
X90338586Y-51233576D01*
X90339528Y-51235208D01*
X90339529Y-51235209D01*
X90339531Y-51235212D01*
X90404788Y-51300469D01*
X90404790Y-51300470D01*
X90404791Y-51300471D01*
X90450073Y-51326615D01*
X90484712Y-51346614D01*
X90484713Y-51346614D01*
X90484715Y-51346615D01*
X90529284Y-51358557D01*
X90573853Y-51370499D01*
X90573854Y-51370500D01*
X90573856Y-51370500D01*
X90666146Y-51370500D01*
X90666146Y-51370499D01*
X90755288Y-51346614D01*
X90835212Y-51300469D01*
X90900469Y-51235212D01*
X90946614Y-51155288D01*
X90970499Y-51066146D01*
X90970500Y-51066146D01*
X90970500Y-51053853D01*
X92449500Y-51053853D01*
X92449500Y-51146146D01*
X92473384Y-51235284D01*
X92473386Y-51235289D01*
X92519528Y-51315208D01*
X92519529Y-51315209D01*
X92519531Y-51315212D01*
X92584788Y-51380469D01*
X92584790Y-51380470D01*
X92584791Y-51380471D01*
X92664710Y-51426613D01*
X92664712Y-51426614D01*
X92664713Y-51426614D01*
X92664715Y-51426615D01*
X92709284Y-51438557D01*
X92753853Y-51450499D01*
X92753854Y-51450500D01*
X92753856Y-51450500D01*
X92846146Y-51450500D01*
X92846146Y-51450499D01*
X92935288Y-51426614D01*
X93015212Y-51380469D01*
X93080469Y-51315212D01*
X93126614Y-51235288D01*
X93150499Y-51146146D01*
X93150500Y-51146146D01*
X93150500Y-51053854D01*
X93150499Y-51053853D01*
X93148433Y-51046144D01*
X93126614Y-50964712D01*
X93120345Y-50953854D01*
X93080471Y-50884791D01*
X93080470Y-50884790D01*
X93080469Y-50884788D01*
X93015212Y-50819531D01*
X93015209Y-50819529D01*
X93015208Y-50819528D01*
X92935289Y-50773386D01*
X92935284Y-50773384D01*
X92846146Y-50749500D01*
X92846144Y-50749500D01*
X92753856Y-50749500D01*
X92753854Y-50749500D01*
X92664715Y-50773384D01*
X92664710Y-50773386D01*
X92584791Y-50819528D01*
X92519528Y-50884791D01*
X92473386Y-50964710D01*
X92473384Y-50964715D01*
X92449500Y-51053853D01*
X90970500Y-51053853D01*
X90970500Y-50973854D01*
X90970499Y-50973853D01*
X90964241Y-50950499D01*
X90956491Y-50921572D01*
X90946615Y-50884715D01*
X90946613Y-50884710D01*
X90900471Y-50804791D01*
X90900470Y-50804790D01*
X90900469Y-50804788D01*
X90835212Y-50739531D01*
X90835209Y-50739529D01*
X90835208Y-50739528D01*
X90755289Y-50693386D01*
X90755284Y-50693384D01*
X90666146Y-50669500D01*
X90666144Y-50669500D01*
X90573856Y-50669500D01*
X90573854Y-50669500D01*
X90484715Y-50693384D01*
X90484710Y-50693386D01*
X90404791Y-50739528D01*
X90339527Y-50804792D01*
X90339527Y-50804793D01*
X90338583Y-50806428D01*
X90337827Y-50807007D01*
X90336573Y-50808642D01*
X90336135Y-50808305D01*
X90293647Y-50840903D01*
X90237495Y-50833506D01*
X90203020Y-50788570D01*
X90200500Y-50769423D01*
X90200500Y-49546285D01*
X91949337Y-49546285D01*
X91949337Y-49638578D01*
X91973221Y-49727716D01*
X91973223Y-49727721D01*
X92019365Y-49807640D01*
X92019366Y-49807641D01*
X92019368Y-49807644D01*
X92084625Y-49872901D01*
X92084627Y-49872902D01*
X92084628Y-49872903D01*
X92164547Y-49919045D01*
X92164549Y-49919046D01*
X92164550Y-49919046D01*
X92164552Y-49919047D01*
X92180746Y-49923386D01*
X92253690Y-49942931D01*
X92253691Y-49942932D01*
X92253693Y-49942932D01*
X92345981Y-49942932D01*
X92370615Y-49936331D01*
X92426766Y-49943722D01*
X92461246Y-49988654D01*
X92461247Y-50026960D01*
X92454041Y-50053854D01*
X92454041Y-50146146D01*
X92477925Y-50235284D01*
X92477927Y-50235289D01*
X92524069Y-50315208D01*
X92524070Y-50315209D01*
X92524072Y-50315212D01*
X92589329Y-50380469D01*
X92589331Y-50380470D01*
X92589332Y-50380471D01*
X92669251Y-50426613D01*
X92669253Y-50426614D01*
X92669254Y-50426614D01*
X92669256Y-50426615D01*
X92690283Y-50432249D01*
X92758394Y-50450499D01*
X92758395Y-50450500D01*
X92758397Y-50450500D01*
X92850687Y-50450500D01*
X92850687Y-50450499D01*
X92939829Y-50426614D01*
X93019753Y-50380469D01*
X93085010Y-50315212D01*
X93131155Y-50235288D01*
X93155040Y-50146146D01*
X93155041Y-50146146D01*
X93155041Y-50053854D01*
X93155040Y-50053853D01*
X93954041Y-50053853D01*
X93954041Y-50146146D01*
X93977925Y-50235284D01*
X93977927Y-50235289D01*
X94024069Y-50315208D01*
X94024070Y-50315209D01*
X94024072Y-50315212D01*
X94089329Y-50380469D01*
X94089331Y-50380470D01*
X94089332Y-50380471D01*
X94169251Y-50426613D01*
X94169253Y-50426614D01*
X94169254Y-50426614D01*
X94169256Y-50426615D01*
X94190283Y-50432249D01*
X94258394Y-50450499D01*
X94258395Y-50450500D01*
X94258397Y-50450500D01*
X94350686Y-50450500D01*
X94366631Y-50446227D01*
X94419376Y-50432094D01*
X94475527Y-50439486D01*
X94502614Y-50466572D01*
X94534087Y-50521085D01*
X94534088Y-50521086D01*
X94534090Y-50521089D01*
X94599347Y-50586346D01*
X94599349Y-50586347D01*
X94599350Y-50586348D01*
X94665792Y-50624709D01*
X94679271Y-50632491D01*
X94679272Y-50632491D01*
X94679274Y-50632492D01*
X94711419Y-50641105D01*
X94768412Y-50656376D01*
X94768413Y-50656377D01*
X94768415Y-50656377D01*
X94860703Y-50656377D01*
X94888655Y-50648887D01*
X94944806Y-50656278D01*
X94979286Y-50701210D01*
X94971895Y-50757363D01*
X94971894Y-50757365D01*
X94928555Y-50832429D01*
X94928553Y-50832434D01*
X94904669Y-50921572D01*
X94904669Y-51013865D01*
X94928553Y-51103003D01*
X94928555Y-51103008D01*
X94974697Y-51182927D01*
X94974698Y-51182928D01*
X94974700Y-51182931D01*
X95039957Y-51248188D01*
X95039959Y-51248189D01*
X95039960Y-51248190D01*
X95098951Y-51282249D01*
X95119881Y-51294333D01*
X95119882Y-51294333D01*
X95119884Y-51294334D01*
X95142781Y-51300469D01*
X95209022Y-51318218D01*
X95209023Y-51318219D01*
X95209025Y-51318219D01*
X95301315Y-51318219D01*
X95301315Y-51318218D01*
X95390457Y-51294333D01*
X95470381Y-51248188D01*
X95486392Y-51232176D01*
X95538714Y-51210503D01*
X95591039Y-51232175D01*
X95639333Y-51280469D01*
X95639335Y-51280470D01*
X95639336Y-51280471D01*
X95719255Y-51326613D01*
X95719257Y-51326614D01*
X95719258Y-51326614D01*
X95719260Y-51326615D01*
X95763829Y-51338557D01*
X95808398Y-51350499D01*
X95808399Y-51350500D01*
X95808401Y-51350500D01*
X95900691Y-51350500D01*
X95900691Y-51350499D01*
X95989833Y-51326614D01*
X96069757Y-51280469D01*
X96135014Y-51215212D01*
X96181159Y-51135288D01*
X96205044Y-51046146D01*
X96205045Y-51046146D01*
X96205045Y-50953854D01*
X96205044Y-50953853D01*
X96197745Y-50926614D01*
X96186518Y-50884712D01*
X96181160Y-50864715D01*
X96181158Y-50864710D01*
X96150437Y-50811500D01*
X96143044Y-50755348D01*
X96177523Y-50710414D01*
X96214523Y-50700500D01*
X96226146Y-50700500D01*
X96226146Y-50700499D01*
X96315288Y-50676614D01*
X96395212Y-50630469D01*
X96460469Y-50565212D01*
X96506614Y-50485288D01*
X96530499Y-50396146D01*
X96530500Y-50396146D01*
X96530500Y-50303854D01*
X96530499Y-50303853D01*
X96528433Y-50296144D01*
X96506614Y-50214712D01*
X96500346Y-50203856D01*
X96460471Y-50134791D01*
X96460470Y-50134790D01*
X96460469Y-50134788D01*
X96395212Y-50069531D01*
X96395209Y-50069529D01*
X96395208Y-50069528D01*
X96368710Y-50054229D01*
X97329596Y-50054229D01*
X97329596Y-50146522D01*
X97353480Y-50235660D01*
X97353482Y-50235665D01*
X97399624Y-50315584D01*
X97399625Y-50315585D01*
X97399627Y-50315588D01*
X97464884Y-50380845D01*
X97464886Y-50380846D01*
X97464887Y-50380847D01*
X97544158Y-50426615D01*
X97544808Y-50426990D01*
X97544809Y-50426990D01*
X97544811Y-50426991D01*
X97589380Y-50438933D01*
X97633949Y-50450875D01*
X97633950Y-50450876D01*
X97633952Y-50450876D01*
X97726242Y-50450876D01*
X97726242Y-50450875D01*
X97815384Y-50426990D01*
X97895308Y-50380845D01*
X97907911Y-50368241D01*
X97960236Y-50346568D01*
X98010916Y-50367560D01*
X98010947Y-50367521D01*
X98011094Y-50367634D01*
X98012560Y-50368241D01*
X98014788Y-50370469D01*
X98014790Y-50370470D01*
X98014791Y-50370471D01*
X98094710Y-50416613D01*
X98094712Y-50416614D01*
X98094713Y-50416614D01*
X98094715Y-50416615D01*
X98139284Y-50428557D01*
X98183853Y-50440499D01*
X98183854Y-50440500D01*
X98183856Y-50440500D01*
X98276146Y-50440500D01*
X98276146Y-50440499D01*
X98365288Y-50416614D01*
X98445212Y-50370469D01*
X98510469Y-50305212D01*
X98556614Y-50225288D01*
X98580499Y-50136146D01*
X98580500Y-50136146D01*
X98580500Y-50043854D01*
X98580499Y-50043853D01*
X98575014Y-50023384D01*
X98559294Y-49964715D01*
X98556615Y-49954715D01*
X98556613Y-49954710D01*
X98510471Y-49874791D01*
X98510470Y-49874790D01*
X98510469Y-49874788D01*
X98445212Y-49809531D01*
X98445209Y-49809529D01*
X98445208Y-49809528D01*
X98365289Y-49763386D01*
X98365284Y-49763384D01*
X98276146Y-49739500D01*
X98276144Y-49739500D01*
X98183856Y-49739500D01*
X98183854Y-49739500D01*
X98094715Y-49763384D01*
X98094710Y-49763386D01*
X98014790Y-49809529D01*
X98002182Y-49822136D01*
X97949854Y-49843807D01*
X97899179Y-49822815D01*
X97899149Y-49822855D01*
X97899000Y-49822740D01*
X97897534Y-49822133D01*
X97895308Y-49819907D01*
X97895305Y-49819905D01*
X97895304Y-49819904D01*
X97815385Y-49773762D01*
X97815380Y-49773760D01*
X97726242Y-49749876D01*
X97726240Y-49749876D01*
X97633952Y-49749876D01*
X97633950Y-49749876D01*
X97544811Y-49773760D01*
X97544806Y-49773762D01*
X97464887Y-49819904D01*
X97399624Y-49885167D01*
X97353482Y-49965086D01*
X97353480Y-49965091D01*
X97329596Y-50054229D01*
X96368710Y-50054229D01*
X96315289Y-50023386D01*
X96315284Y-50023384D01*
X96226146Y-49999500D01*
X96226144Y-49999500D01*
X96133856Y-49999500D01*
X96133854Y-49999500D01*
X96044715Y-50023384D01*
X96044710Y-50023386D01*
X95964791Y-50069528D01*
X95899528Y-50134791D01*
X95853386Y-50214710D01*
X95853384Y-50214715D01*
X95829500Y-50303853D01*
X95829500Y-50396146D01*
X95853384Y-50485284D01*
X95853386Y-50485289D01*
X95884108Y-50538500D01*
X95891501Y-50594652D01*
X95857022Y-50639586D01*
X95820022Y-50649500D01*
X95808399Y-50649500D01*
X95719260Y-50673384D01*
X95719255Y-50673386D01*
X95639336Y-50719528D01*
X95623322Y-50735542D01*
X95570995Y-50757215D01*
X95518672Y-50735541D01*
X95470381Y-50687250D01*
X95470378Y-50687248D01*
X95470377Y-50687247D01*
X95390458Y-50641105D01*
X95390453Y-50641103D01*
X95301315Y-50617219D01*
X95301313Y-50617219D01*
X95209025Y-50617219D01*
X95181071Y-50624709D01*
X95124918Y-50617316D01*
X95090440Y-50572382D01*
X95097832Y-50516231D01*
X95141173Y-50441165D01*
X95165058Y-50352023D01*
X95165059Y-50352023D01*
X95165059Y-50259731D01*
X95165058Y-50259730D01*
X95155829Y-50225288D01*
X95141173Y-50170589D01*
X95127278Y-50146522D01*
X95095030Y-50090668D01*
X95095029Y-50090667D01*
X95095028Y-50090665D01*
X95029771Y-50025408D01*
X95029768Y-50025406D01*
X95029767Y-50025405D01*
X94949848Y-49979263D01*
X94949843Y-49979261D01*
X94860705Y-49955377D01*
X94860703Y-49955377D01*
X94768415Y-49955377D01*
X94699723Y-49973782D01*
X94643571Y-49966390D01*
X94616485Y-49939304D01*
X94605067Y-49919528D01*
X94585010Y-49884788D01*
X94519753Y-49819531D01*
X94519750Y-49819529D01*
X94519749Y-49819528D01*
X94439830Y-49773386D01*
X94439825Y-49773384D01*
X94350687Y-49749500D01*
X94350685Y-49749500D01*
X94258397Y-49749500D01*
X94258395Y-49749500D01*
X94169256Y-49773384D01*
X94169251Y-49773386D01*
X94089332Y-49819528D01*
X94024069Y-49884791D01*
X93977927Y-49964710D01*
X93977925Y-49964715D01*
X93954041Y-50053853D01*
X93155040Y-50053853D01*
X93153150Y-50046801D01*
X93135054Y-49979263D01*
X93131156Y-49964715D01*
X93131154Y-49964710D01*
X93085012Y-49884791D01*
X93085011Y-49884790D01*
X93085010Y-49884788D01*
X93019753Y-49819531D01*
X93019750Y-49819529D01*
X93019749Y-49819528D01*
X92939830Y-49773386D01*
X92939825Y-49773384D01*
X92850687Y-49749500D01*
X92850685Y-49749500D01*
X92758397Y-49749500D01*
X92733761Y-49756101D01*
X92677608Y-49748708D01*
X92643130Y-49703774D01*
X92643131Y-49665468D01*
X92650337Y-49638577D01*
X92650337Y-49546286D01*
X92650336Y-49546285D01*
X92626452Y-49457147D01*
X92626450Y-49457142D01*
X92580308Y-49377223D01*
X92580307Y-49377222D01*
X92580306Y-49377220D01*
X92515049Y-49311963D01*
X92515046Y-49311961D01*
X92515045Y-49311960D01*
X92435126Y-49265818D01*
X92435121Y-49265816D01*
X92345983Y-49241932D01*
X92345981Y-49241932D01*
X92253693Y-49241932D01*
X92253691Y-49241932D01*
X92164552Y-49265816D01*
X92164547Y-49265818D01*
X92084628Y-49311960D01*
X92019365Y-49377223D01*
X91973223Y-49457142D01*
X91973221Y-49457147D01*
X91949337Y-49546285D01*
X90200500Y-49546285D01*
X90200500Y-48783182D01*
X90222174Y-48730856D01*
X90274500Y-48709182D01*
X90326826Y-48730856D01*
X90329881Y-48733911D01*
X90329883Y-48733914D01*
X90395140Y-48799171D01*
X90395142Y-48799172D01*
X90395143Y-48799173D01*
X90430404Y-48819531D01*
X90475064Y-48845316D01*
X90475065Y-48845316D01*
X90475067Y-48845317D01*
X90519632Y-48857258D01*
X90564205Y-48869201D01*
X90564206Y-48869202D01*
X90564208Y-48869202D01*
X90656498Y-48869202D01*
X90656498Y-48869201D01*
X90745640Y-48845316D01*
X90825564Y-48799171D01*
X90890821Y-48733914D01*
X90936966Y-48653990D01*
X90960851Y-48564848D01*
X90960852Y-48564848D01*
X90960852Y-48530642D01*
X92284473Y-48530642D01*
X92284473Y-48622935D01*
X92308357Y-48712073D01*
X92308359Y-48712078D01*
X92354501Y-48791997D01*
X92354502Y-48791998D01*
X92354504Y-48792001D01*
X92419761Y-48857258D01*
X92419763Y-48857259D01*
X92419764Y-48857260D01*
X92499683Y-48903402D01*
X92499685Y-48903403D01*
X92499686Y-48903403D01*
X92499688Y-48903404D01*
X92525854Y-48910415D01*
X92588826Y-48927288D01*
X92588827Y-48927289D01*
X92588829Y-48927289D01*
X92681119Y-48927289D01*
X92681119Y-48927288D01*
X92770261Y-48903403D01*
X92850185Y-48857258D01*
X92915442Y-48792001D01*
X92961587Y-48712077D01*
X92985472Y-48622935D01*
X92985473Y-48622935D01*
X92985473Y-48530643D01*
X92985472Y-48530642D01*
X92975489Y-48493386D01*
X92961587Y-48441501D01*
X92961586Y-48441499D01*
X92915444Y-48361580D01*
X92915443Y-48361579D01*
X92915442Y-48361577D01*
X92850185Y-48296320D01*
X92850182Y-48296318D01*
X92850181Y-48296317D01*
X92770262Y-48250175D01*
X92770257Y-48250173D01*
X92681119Y-48226289D01*
X92681117Y-48226289D01*
X92588829Y-48226289D01*
X92588827Y-48226289D01*
X92499688Y-48250173D01*
X92499683Y-48250175D01*
X92419764Y-48296317D01*
X92354501Y-48361580D01*
X92308359Y-48441499D01*
X92308357Y-48441504D01*
X92284473Y-48530642D01*
X90960852Y-48530642D01*
X90960852Y-48472556D01*
X90960851Y-48472555D01*
X90960032Y-48469500D01*
X90936966Y-48383414D01*
X90915448Y-48346144D01*
X90890823Y-48303493D01*
X90890822Y-48303492D01*
X90890821Y-48303490D01*
X90825564Y-48238233D01*
X90825561Y-48238231D01*
X90825560Y-48238230D01*
X90745641Y-48192088D01*
X90745636Y-48192086D01*
X90656498Y-48168202D01*
X90656496Y-48168202D01*
X90564208Y-48168202D01*
X90564206Y-48168202D01*
X90475067Y-48192086D01*
X90475062Y-48192088D01*
X90395143Y-48238230D01*
X90395140Y-48238232D01*
X90395140Y-48238233D01*
X90329883Y-48303490D01*
X90329881Y-48303492D01*
X90326826Y-48306548D01*
X90274500Y-48328222D01*
X90222174Y-48306548D01*
X90200500Y-48254222D01*
X90200500Y-47705935D01*
X90222174Y-47653609D01*
X90274500Y-47631935D01*
X90326826Y-47653609D01*
X90338586Y-47668935D01*
X90359528Y-47705208D01*
X90359529Y-47705209D01*
X90359531Y-47705212D01*
X90424788Y-47770469D01*
X90424790Y-47770470D01*
X90424791Y-47770471D01*
X90504710Y-47816613D01*
X90504712Y-47816614D01*
X90504713Y-47816614D01*
X90504715Y-47816615D01*
X90521868Y-47821211D01*
X90593853Y-47840499D01*
X90593854Y-47840500D01*
X90593856Y-47840500D01*
X90686146Y-47840500D01*
X90686146Y-47840499D01*
X90775288Y-47816614D01*
X90855212Y-47770469D01*
X90920469Y-47705212D01*
X90958250Y-47639775D01*
X92512483Y-47639775D01*
X92512483Y-47732068D01*
X92536367Y-47821206D01*
X92536369Y-47821211D01*
X92582511Y-47901130D01*
X92582512Y-47901131D01*
X92582514Y-47901134D01*
X92647771Y-47966391D01*
X92647773Y-47966392D01*
X92647774Y-47966393D01*
X92699307Y-47996146D01*
X92727695Y-48012536D01*
X92727696Y-48012536D01*
X92727698Y-48012537D01*
X92772267Y-48024479D01*
X92816836Y-48036421D01*
X92816837Y-48036422D01*
X92816839Y-48036422D01*
X92909129Y-48036422D01*
X92909129Y-48036421D01*
X92998271Y-48012536D01*
X93078195Y-47966391D01*
X93143452Y-47901134D01*
X93189597Y-47821210D01*
X93213482Y-47732068D01*
X93213483Y-47732068D01*
X93213483Y-47639776D01*
X93213482Y-47639775D01*
X93202958Y-47600500D01*
X93192725Y-47562307D01*
X93189598Y-47550637D01*
X93189596Y-47550632D01*
X93143454Y-47470713D01*
X93143453Y-47470712D01*
X93143452Y-47470710D01*
X93078195Y-47405453D01*
X93078192Y-47405451D01*
X93078191Y-47405450D01*
X92998272Y-47359308D01*
X92998267Y-47359306D01*
X92909129Y-47335422D01*
X92909127Y-47335422D01*
X92816839Y-47335422D01*
X92816837Y-47335422D01*
X92727698Y-47359306D01*
X92727693Y-47359308D01*
X92647774Y-47405450D01*
X92582511Y-47470713D01*
X92536369Y-47550632D01*
X92536367Y-47550637D01*
X92512483Y-47639775D01*
X90958250Y-47639775D01*
X90966614Y-47625288D01*
X90990499Y-47536146D01*
X90990500Y-47536146D01*
X90990500Y-47443854D01*
X90990499Y-47443853D01*
X90966615Y-47354715D01*
X90966613Y-47354710D01*
X90920471Y-47274791D01*
X90920470Y-47274790D01*
X90920469Y-47274788D01*
X90855212Y-47209531D01*
X90855209Y-47209529D01*
X90855208Y-47209528D01*
X90775289Y-47163386D01*
X90775284Y-47163384D01*
X90686146Y-47139500D01*
X90686144Y-47139500D01*
X90593856Y-47139500D01*
X90593854Y-47139500D01*
X90504715Y-47163384D01*
X90504710Y-47163386D01*
X90424791Y-47209528D01*
X90359527Y-47274792D01*
X90338585Y-47311065D01*
X90293652Y-47345543D01*
X90237499Y-47338149D01*
X90203021Y-47293216D01*
X90200500Y-47274064D01*
X90200500Y-46383855D01*
X92609498Y-46383855D01*
X92609498Y-46476148D01*
X92633382Y-46565286D01*
X92633384Y-46565291D01*
X92679526Y-46645210D01*
X92679527Y-46645211D01*
X92679529Y-46645214D01*
X92744786Y-46710471D01*
X92744788Y-46710472D01*
X92744789Y-46710473D01*
X92824708Y-46756615D01*
X92824710Y-46756616D01*
X92824711Y-46756616D01*
X92824713Y-46756617D01*
X92869282Y-46768559D01*
X92913851Y-46780501D01*
X92913852Y-46780502D01*
X92913854Y-46780502D01*
X93006144Y-46780502D01*
X93006144Y-46780501D01*
X93095286Y-46756616D01*
X93175210Y-46710471D01*
X93207972Y-46677708D01*
X93260295Y-46656035D01*
X93312621Y-46677708D01*
X93334296Y-46730034D01*
X93331776Y-46749181D01*
X93331560Y-46749985D01*
X93331560Y-46842281D01*
X93355444Y-46931419D01*
X93355446Y-46931424D01*
X93401588Y-47011343D01*
X93401589Y-47011344D01*
X93401591Y-47011347D01*
X93466848Y-47076604D01*
X93466850Y-47076605D01*
X93466851Y-47076606D01*
X93532857Y-47114715D01*
X93546772Y-47122749D01*
X93546773Y-47122749D01*
X93546775Y-47122750D01*
X93561196Y-47126614D01*
X93635913Y-47146634D01*
X93635914Y-47146635D01*
X93635916Y-47146635D01*
X93728206Y-47146635D01*
X93728206Y-47146634D01*
X93817348Y-47122749D01*
X93897272Y-47076604D01*
X93962529Y-47011347D01*
X94008674Y-46931423D01*
X94032559Y-46842281D01*
X94032560Y-46842281D01*
X94032560Y-46749989D01*
X94032559Y-46749988D01*
X94027212Y-46730034D01*
X94016439Y-46689828D01*
X94008675Y-46660850D01*
X94008673Y-46660845D01*
X93962531Y-46580926D01*
X93962530Y-46580925D01*
X93962529Y-46580923D01*
X93897272Y-46515666D01*
X93867545Y-46498503D01*
X93843117Y-46484399D01*
X93808639Y-46439465D01*
X93811213Y-46401592D01*
X93808737Y-46400929D01*
X93833877Y-46307102D01*
X93833878Y-46307102D01*
X93833878Y-46269598D01*
X95223534Y-46269598D01*
X95223534Y-46361891D01*
X95247418Y-46451029D01*
X95247420Y-46451034D01*
X95293562Y-46530953D01*
X95293563Y-46530954D01*
X95293565Y-46530957D01*
X95358822Y-46596214D01*
X95358824Y-46596215D01*
X95358825Y-46596216D01*
X95371021Y-46603257D01*
X95405501Y-46648189D01*
X95398110Y-46704342D01*
X95386352Y-46719667D01*
X95381042Y-46724977D01*
X95334899Y-46804897D01*
X95334897Y-46804902D01*
X95311013Y-46894040D01*
X95311013Y-46986333D01*
X95334897Y-47075471D01*
X95334899Y-47075476D01*
X95381041Y-47155395D01*
X95381042Y-47155396D01*
X95381044Y-47155399D01*
X95446301Y-47220656D01*
X95446303Y-47220657D01*
X95446304Y-47220658D01*
X95472887Y-47236006D01*
X95526225Y-47266801D01*
X95526226Y-47266801D01*
X95526228Y-47266802D01*
X95553331Y-47274064D01*
X95615366Y-47290686D01*
X95615367Y-47290687D01*
X95615369Y-47290687D01*
X95707659Y-47290687D01*
X95707659Y-47290686D01*
X95796801Y-47266801D01*
X95876725Y-47220656D01*
X95941982Y-47155399D01*
X95988127Y-47075475D01*
X96012012Y-46986333D01*
X96012013Y-46986333D01*
X96012013Y-46894041D01*
X96012012Y-46894040D01*
X95988128Y-46804902D01*
X95988126Y-46804897D01*
X95941984Y-46724978D01*
X95941983Y-46724977D01*
X95941982Y-46724975D01*
X95876725Y-46659718D01*
X95876722Y-46659716D01*
X95876720Y-46659714D01*
X95864524Y-46652673D01*
X95830045Y-46607741D01*
X95837437Y-46551588D01*
X95849193Y-46536266D01*
X95854503Y-46530957D01*
X95900648Y-46451033D01*
X95924533Y-46361891D01*
X95924534Y-46361891D01*
X95924534Y-46269601D01*
X95910750Y-46218158D01*
X95910750Y-46218156D01*
X95906917Y-46203853D01*
X96849500Y-46203853D01*
X96849500Y-46296146D01*
X96873384Y-46385284D01*
X96873386Y-46385289D01*
X96919529Y-46465209D01*
X96919531Y-46465213D01*
X96926995Y-46472677D01*
X96948667Y-46525003D01*
X96926995Y-46577323D01*
X96919531Y-46584786D01*
X96919529Y-46584790D01*
X96873386Y-46664710D01*
X96873384Y-46664715D01*
X96849500Y-46753853D01*
X96849500Y-46846146D01*
X96873384Y-46935284D01*
X96873386Y-46935289D01*
X96919528Y-47015208D01*
X96919529Y-47015209D01*
X96919531Y-47015212D01*
X96984788Y-47080469D01*
X96984790Y-47080470D01*
X96984791Y-47080471D01*
X97058019Y-47122750D01*
X97064712Y-47126614D01*
X97064713Y-47126614D01*
X97064715Y-47126615D01*
X97109284Y-47138557D01*
X97153853Y-47150499D01*
X97153854Y-47150500D01*
X97153856Y-47150500D01*
X97246146Y-47150500D01*
X97246146Y-47150499D01*
X97335288Y-47126614D01*
X97415212Y-47080469D01*
X97480469Y-47015212D01*
X97526614Y-46935288D01*
X97550499Y-46846146D01*
X97550500Y-46846146D01*
X97550500Y-46753854D01*
X97550499Y-46753853D01*
X97549463Y-46749988D01*
X97526614Y-46664712D01*
X97524384Y-46660850D01*
X97480471Y-46584791D01*
X97480470Y-46584790D01*
X97480469Y-46584788D01*
X97473005Y-46577324D01*
X97451332Y-46525000D01*
X97473005Y-46472675D01*
X97480469Y-46465212D01*
X97526614Y-46385288D01*
X97550499Y-46296146D01*
X97550500Y-46296146D01*
X97550500Y-46203854D01*
X97550499Y-46203853D01*
X97526615Y-46114715D01*
X97526613Y-46114710D01*
X97480471Y-46034791D01*
X97480470Y-46034790D01*
X97480469Y-46034788D01*
X97415212Y-45969531D01*
X97415209Y-45969529D01*
X97415208Y-45969528D01*
X97335289Y-45923386D01*
X97335284Y-45923384D01*
X97246146Y-45899500D01*
X97246144Y-45899500D01*
X97153856Y-45899500D01*
X97153854Y-45899500D01*
X97064715Y-45923384D01*
X97064710Y-45923386D01*
X96984791Y-45969528D01*
X96919528Y-46034791D01*
X96873386Y-46114710D01*
X96873384Y-46114715D01*
X96849500Y-46203853D01*
X95906917Y-46203853D01*
X95900649Y-46180460D01*
X95900647Y-46180455D01*
X95854505Y-46100536D01*
X95854504Y-46100535D01*
X95854503Y-46100533D01*
X95789246Y-46035276D01*
X95789243Y-46035274D01*
X95789242Y-46035273D01*
X95709323Y-45989131D01*
X95709318Y-45989129D01*
X95620180Y-45965245D01*
X95620178Y-45965245D01*
X95527890Y-45965245D01*
X95527888Y-45965245D01*
X95438749Y-45989129D01*
X95438744Y-45989131D01*
X95358825Y-46035273D01*
X95293562Y-46100536D01*
X95247420Y-46180455D01*
X95247418Y-46180460D01*
X95223534Y-46269598D01*
X93833878Y-46269598D01*
X93833878Y-46214810D01*
X93833877Y-46214809D01*
X93830941Y-46203853D01*
X93816386Y-46149530D01*
X93809993Y-46125671D01*
X93809991Y-46125666D01*
X93763849Y-46045747D01*
X93763848Y-46045746D01*
X93763847Y-46045744D01*
X93698590Y-45980487D01*
X93698587Y-45980485D01*
X93698586Y-45980484D01*
X93618667Y-45934342D01*
X93618662Y-45934340D01*
X93529524Y-45910456D01*
X93529522Y-45910456D01*
X93437234Y-45910456D01*
X93437232Y-45910456D01*
X93348093Y-45934340D01*
X93348088Y-45934342D01*
X93268169Y-45980484D01*
X93202905Y-46045748D01*
X93202905Y-46045749D01*
X93187727Y-46072037D01*
X93142793Y-46106515D01*
X93100216Y-46103725D01*
X93099971Y-46104643D01*
X93095357Y-46103406D01*
X93095329Y-46103405D01*
X93095289Y-46103388D01*
X93006144Y-46079502D01*
X93006142Y-46079502D01*
X92913854Y-46079502D01*
X92913852Y-46079502D01*
X92824713Y-46103386D01*
X92824708Y-46103388D01*
X92744789Y-46149530D01*
X92679526Y-46214793D01*
X92633384Y-46294712D01*
X92633382Y-46294717D01*
X92609498Y-46383855D01*
X90200500Y-46383855D01*
X90200500Y-46155850D01*
X90222174Y-46103524D01*
X90274500Y-46081850D01*
X90293653Y-46084372D01*
X90330187Y-46094160D01*
X90353853Y-46100502D01*
X90353854Y-46100503D01*
X90353856Y-46100503D01*
X90446146Y-46100503D01*
X90446146Y-46100502D01*
X90535288Y-46076617D01*
X90615212Y-46030472D01*
X90680469Y-45965215D01*
X90726614Y-45885291D01*
X90750499Y-45796149D01*
X90750500Y-45796149D01*
X90750500Y-45703857D01*
X90750499Y-45703856D01*
X90741561Y-45670500D01*
X90734185Y-45642969D01*
X90726615Y-45614718D01*
X90726613Y-45614713D01*
X90680471Y-45534794D01*
X90680470Y-45534793D01*
X90680469Y-45534791D01*
X90615212Y-45469534D01*
X90615209Y-45469532D01*
X90615208Y-45469531D01*
X90535289Y-45423389D01*
X90535284Y-45423387D01*
X90446146Y-45399503D01*
X90446144Y-45399503D01*
X90353856Y-45399503D01*
X90293652Y-45415634D01*
X90283737Y-45414328D01*
X90274500Y-45418155D01*
X90256653Y-45410762D01*
X90237499Y-45408241D01*
X90231411Y-45400307D01*
X90222174Y-45396481D01*
X90214781Y-45378634D01*
X90203021Y-45363307D01*
X90200500Y-45344155D01*
X90200500Y-45305847D01*
X90213752Y-45273853D01*
X94589500Y-45273853D01*
X94589500Y-45366146D01*
X94613384Y-45455284D01*
X94613386Y-45455289D01*
X94659528Y-45535208D01*
X94659529Y-45535209D01*
X94659531Y-45535212D01*
X94724788Y-45600469D01*
X94724790Y-45600470D01*
X94724791Y-45600471D01*
X94798399Y-45642969D01*
X94804712Y-45646614D01*
X94804713Y-45646614D01*
X94804715Y-45646615D01*
X94849284Y-45658557D01*
X94893853Y-45670499D01*
X94893854Y-45670500D01*
X94893856Y-45670500D01*
X94986146Y-45670500D01*
X94986146Y-45670499D01*
X95075288Y-45646614D01*
X95155212Y-45600469D01*
X95220469Y-45535212D01*
X95266614Y-45455288D01*
X95290499Y-45366146D01*
X95290500Y-45366146D01*
X95290500Y-45316353D01*
X96737000Y-45316353D01*
X96737000Y-45408646D01*
X96760884Y-45497784D01*
X96760886Y-45497789D01*
X96807028Y-45577708D01*
X96807029Y-45577709D01*
X96807031Y-45577712D01*
X96872288Y-45642969D01*
X96872290Y-45642970D01*
X96872291Y-45642971D01*
X96919970Y-45670499D01*
X96952212Y-45689114D01*
X96952213Y-45689114D01*
X96952215Y-45689115D01*
X96964714Y-45692464D01*
X97041353Y-45712999D01*
X97041354Y-45713000D01*
X97041356Y-45713000D01*
X97133646Y-45713000D01*
X97133646Y-45712999D01*
X97222788Y-45689114D01*
X97302712Y-45642969D01*
X97367969Y-45577712D01*
X97414114Y-45497788D01*
X97437999Y-45408646D01*
X97438000Y-45408646D01*
X97438000Y-45316354D01*
X97437999Y-45316353D01*
X97414115Y-45227215D01*
X97414113Y-45227210D01*
X97367971Y-45147291D01*
X97367970Y-45147290D01*
X97367969Y-45147288D01*
X97302712Y-45082031D01*
X97302709Y-45082029D01*
X97302708Y-45082028D01*
X97222789Y-45035886D01*
X97222784Y-45035884D01*
X97133646Y-45012000D01*
X97133644Y-45012000D01*
X97041356Y-45012000D01*
X97041354Y-45012000D01*
X96952215Y-45035884D01*
X96952210Y-45035886D01*
X96872291Y-45082028D01*
X96807028Y-45147291D01*
X96760886Y-45227210D01*
X96760884Y-45227215D01*
X96737000Y-45316353D01*
X95290500Y-45316353D01*
X95290500Y-45273854D01*
X95290499Y-45273853D01*
X95284241Y-45250499D01*
X95266614Y-45184712D01*
X95266613Y-45184710D01*
X95220471Y-45104791D01*
X95220470Y-45104790D01*
X95220469Y-45104788D01*
X95155212Y-45039531D01*
X95155209Y-45039529D01*
X95155208Y-45039528D01*
X95075289Y-44993386D01*
X95075284Y-44993384D01*
X94986146Y-44969500D01*
X94986144Y-44969500D01*
X94893856Y-44969500D01*
X94893854Y-44969500D01*
X94804715Y-44993384D01*
X94804710Y-44993386D01*
X94724791Y-45039528D01*
X94659528Y-45104791D01*
X94613386Y-45184710D01*
X94613384Y-45184715D01*
X94589500Y-45273853D01*
X90213752Y-45273853D01*
X90222174Y-45253521D01*
X90274500Y-45231847D01*
X90293653Y-45234369D01*
X90330187Y-45244157D01*
X90353853Y-45250499D01*
X90353854Y-45250500D01*
X90353856Y-45250500D01*
X90446146Y-45250500D01*
X90446146Y-45250499D01*
X90535288Y-45226614D01*
X90556130Y-45214580D01*
X90572863Y-45204920D01*
X90607863Y-45184712D01*
X90615212Y-45180469D01*
X90680469Y-45115212D01*
X90726614Y-45035288D01*
X90750499Y-44946146D01*
X90750500Y-44946146D01*
X90750500Y-44853854D01*
X90750499Y-44853853D01*
X90726615Y-44764715D01*
X90726613Y-44764710D01*
X90680471Y-44684791D01*
X90680470Y-44684790D01*
X90680469Y-44684788D01*
X90615212Y-44619531D01*
X90615209Y-44619529D01*
X90615208Y-44619528D01*
X90587140Y-44603323D01*
X90535289Y-44573386D01*
X90535284Y-44573384D01*
X90446146Y-44549500D01*
X90446144Y-44549500D01*
X90353856Y-44549500D01*
X90293652Y-44565631D01*
X90237499Y-44558238D01*
X90226639Y-44544084D01*
X95692570Y-44544084D01*
X95692570Y-44636377D01*
X95716454Y-44725515D01*
X95716456Y-44725520D01*
X95762598Y-44805439D01*
X95762599Y-44805440D01*
X95762601Y-44805443D01*
X95827858Y-44870700D01*
X95907782Y-44916845D01*
X95907783Y-44916845D01*
X95907785Y-44916846D01*
X95952354Y-44928788D01*
X95996923Y-44940730D01*
X95996924Y-44940731D01*
X95996926Y-44940731D01*
X96089216Y-44940731D01*
X96089216Y-44940730D01*
X96178358Y-44916845D01*
X96258282Y-44870700D01*
X96323539Y-44805443D01*
X96369684Y-44725519D01*
X96393569Y-44636377D01*
X96393570Y-44636377D01*
X96393570Y-44544085D01*
X96393569Y-44544084D01*
X96369685Y-44454946D01*
X96369683Y-44454941D01*
X96323541Y-44375022D01*
X96323540Y-44375021D01*
X96323539Y-44375019D01*
X96258282Y-44309762D01*
X96258279Y-44309760D01*
X96258278Y-44309759D01*
X96178359Y-44263617D01*
X96178354Y-44263615D01*
X96141921Y-44253853D01*
X96849500Y-44253853D01*
X96849500Y-44346146D01*
X96873384Y-44435284D01*
X96873386Y-44435289D01*
X96919528Y-44515208D01*
X96919529Y-44515209D01*
X96919531Y-44515212D01*
X96984788Y-44580469D01*
X96984790Y-44580470D01*
X96984791Y-44580471D01*
X97036731Y-44610459D01*
X97064712Y-44626614D01*
X97064713Y-44626614D01*
X97064715Y-44626615D01*
X97101141Y-44636375D01*
X97153853Y-44650499D01*
X97153854Y-44650500D01*
X97153856Y-44650500D01*
X97246146Y-44650500D01*
X97246146Y-44650499D01*
X97335288Y-44626614D01*
X97374710Y-44603853D01*
X98049500Y-44603853D01*
X98049500Y-44696146D01*
X98073384Y-44785284D01*
X98073386Y-44785289D01*
X98119528Y-44865208D01*
X98119529Y-44865209D01*
X98119531Y-44865212D01*
X98184788Y-44930469D01*
X98184790Y-44930470D01*
X98184791Y-44930471D01*
X98252390Y-44969500D01*
X98264712Y-44976614D01*
X98264713Y-44976614D01*
X98264715Y-44976615D01*
X98309284Y-44988557D01*
X98353853Y-45000499D01*
X98353854Y-45000500D01*
X98353856Y-45000500D01*
X98446146Y-45000500D01*
X98446146Y-45000499D01*
X98535288Y-44976614D01*
X98615212Y-44930469D01*
X98680469Y-44865212D01*
X98726614Y-44785288D01*
X98750499Y-44696146D01*
X98750500Y-44696146D01*
X98750500Y-44603854D01*
X98750499Y-44603853D01*
X98726615Y-44514715D01*
X98726613Y-44514710D01*
X98680471Y-44434791D01*
X98680470Y-44434790D01*
X98680469Y-44434788D01*
X98615212Y-44369531D01*
X98615209Y-44369529D01*
X98615208Y-44369528D01*
X98535289Y-44323386D01*
X98535284Y-44323384D01*
X98446146Y-44299500D01*
X98446144Y-44299500D01*
X98353856Y-44299500D01*
X98353854Y-44299500D01*
X98264715Y-44323384D01*
X98264710Y-44323386D01*
X98184791Y-44369528D01*
X98119528Y-44434791D01*
X98073386Y-44514710D01*
X98073384Y-44514715D01*
X98049500Y-44603853D01*
X97374710Y-44603853D01*
X97415212Y-44580469D01*
X97480469Y-44515212D01*
X97526614Y-44435288D01*
X97550499Y-44346146D01*
X97550500Y-44346146D01*
X97550500Y-44253854D01*
X97550499Y-44253853D01*
X97526615Y-44164715D01*
X97526613Y-44164710D01*
X97480471Y-44084791D01*
X97480470Y-44084790D01*
X97480469Y-44084788D01*
X97415212Y-44019531D01*
X97415209Y-44019529D01*
X97415208Y-44019528D01*
X97335289Y-43973386D01*
X97335284Y-43973384D01*
X97246146Y-43949500D01*
X97246144Y-43949500D01*
X97153856Y-43949500D01*
X97153854Y-43949500D01*
X97064715Y-43973384D01*
X97064710Y-43973386D01*
X96984791Y-44019528D01*
X96919528Y-44084791D01*
X96873386Y-44164710D01*
X96873384Y-44164715D01*
X96849500Y-44253853D01*
X96141921Y-44253853D01*
X96089216Y-44239731D01*
X96089214Y-44239731D01*
X95996926Y-44239731D01*
X95996924Y-44239731D01*
X95907785Y-44263615D01*
X95907780Y-44263617D01*
X95827861Y-44309759D01*
X95762598Y-44375022D01*
X95716456Y-44454941D01*
X95716454Y-44454946D01*
X95692570Y-44544084D01*
X90226639Y-44544084D01*
X90203021Y-44513304D01*
X90200500Y-44494152D01*
X90200500Y-43528853D01*
X93324500Y-43528853D01*
X93324500Y-43621146D01*
X93348384Y-43710284D01*
X93348386Y-43710289D01*
X93394528Y-43790208D01*
X93394529Y-43790209D01*
X93394531Y-43790212D01*
X93459788Y-43855469D01*
X93459790Y-43855470D01*
X93459791Y-43855471D01*
X93475797Y-43864712D01*
X93539712Y-43901614D01*
X93539713Y-43901614D01*
X93539715Y-43901615D01*
X93584284Y-43913557D01*
X93628853Y-43925499D01*
X93628854Y-43925500D01*
X93628856Y-43925500D01*
X93721146Y-43925500D01*
X93721146Y-43925499D01*
X93810288Y-43901614D01*
X93890212Y-43855469D01*
X93955469Y-43790212D01*
X94001614Y-43710288D01*
X94025499Y-43621146D01*
X94025500Y-43621146D01*
X94025500Y-43528854D01*
X94025499Y-43528853D01*
X94001615Y-43439715D01*
X94001613Y-43439710D01*
X93955471Y-43359791D01*
X93955470Y-43359790D01*
X93955469Y-43359788D01*
X93890212Y-43294531D01*
X93890209Y-43294529D01*
X93890208Y-43294528D01*
X93810289Y-43248386D01*
X93810284Y-43248384D01*
X93721146Y-43224500D01*
X93721144Y-43224500D01*
X93628856Y-43224500D01*
X93628854Y-43224500D01*
X93539715Y-43248384D01*
X93539710Y-43248386D01*
X93459791Y-43294528D01*
X93394528Y-43359791D01*
X93348386Y-43439710D01*
X93348384Y-43439715D01*
X93324500Y-43528853D01*
X90200500Y-43528853D01*
X90200500Y-42980790D01*
X90222174Y-42928464D01*
X90274500Y-42906790D01*
X90326826Y-42928464D01*
X90345978Y-42961636D01*
X90351024Y-42980469D01*
X90354286Y-42992643D01*
X90400428Y-43072562D01*
X90400429Y-43072563D01*
X90400431Y-43072566D01*
X90465688Y-43137823D01*
X90465690Y-43137824D01*
X90465691Y-43137825D01*
X90539004Y-43180153D01*
X90545612Y-43183968D01*
X90545613Y-43183968D01*
X90545615Y-43183969D01*
X90587094Y-43195083D01*
X90634753Y-43207853D01*
X90634754Y-43207854D01*
X90634756Y-43207854D01*
X90727046Y-43207854D01*
X90727046Y-43207853D01*
X90816188Y-43183968D01*
X90896112Y-43137823D01*
X90961369Y-43072566D01*
X91007514Y-42992642D01*
X91012548Y-42973856D01*
X91012549Y-42973853D01*
X92539500Y-42973853D01*
X92539500Y-43066146D01*
X92563384Y-43155284D01*
X92563386Y-43155289D01*
X92609528Y-43235208D01*
X92609529Y-43235209D01*
X92609531Y-43235212D01*
X92674788Y-43300469D01*
X92674790Y-43300470D01*
X92674791Y-43300471D01*
X92723766Y-43328747D01*
X92754712Y-43346614D01*
X92754713Y-43346614D01*
X92754715Y-43346615D01*
X92799284Y-43358557D01*
X92843853Y-43370499D01*
X92843854Y-43370500D01*
X92843856Y-43370500D01*
X92936146Y-43370500D01*
X92936146Y-43370499D01*
X93025288Y-43346614D01*
X93105212Y-43300469D01*
X93170469Y-43235212D01*
X93216614Y-43155288D01*
X93240499Y-43066146D01*
X93240500Y-43066146D01*
X93240500Y-43058939D01*
X97791871Y-43058939D01*
X97791871Y-43151232D01*
X97815755Y-43240370D01*
X97815757Y-43240375D01*
X97861899Y-43320294D01*
X97861900Y-43320295D01*
X97861902Y-43320298D01*
X97927159Y-43385555D01*
X98007083Y-43431700D01*
X98007084Y-43431700D01*
X98007086Y-43431701D01*
X98036977Y-43439710D01*
X98096224Y-43455585D01*
X98096225Y-43455586D01*
X98096227Y-43455586D01*
X98188517Y-43455586D01*
X98188517Y-43455585D01*
X98277659Y-43431700D01*
X98357583Y-43385555D01*
X98422840Y-43320298D01*
X98468985Y-43240374D01*
X98470369Y-43235208D01*
X98478371Y-43205347D01*
X98512849Y-43160414D01*
X98549849Y-43150500D01*
X98646146Y-43150500D01*
X98646146Y-43150499D01*
X98735288Y-43126614D01*
X98815212Y-43080469D01*
X98880469Y-43015212D01*
X98926614Y-42935288D01*
X98950499Y-42846146D01*
X98950500Y-42846146D01*
X98950500Y-42753854D01*
X98950499Y-42753853D01*
X98948433Y-42746144D01*
X98936733Y-42702475D01*
X98927538Y-42668159D01*
X98926615Y-42664715D01*
X98926613Y-42664710D01*
X98920345Y-42653853D01*
X100874500Y-42653853D01*
X100874500Y-42746146D01*
X100898384Y-42835284D01*
X100898386Y-42835289D01*
X100944528Y-42915208D01*
X100944529Y-42915209D01*
X100944531Y-42915212D01*
X101009788Y-42980469D01*
X101009790Y-42980470D01*
X101009791Y-42980471D01*
X101088870Y-43026128D01*
X101089712Y-43026614D01*
X101089713Y-43026614D01*
X101089715Y-43026615D01*
X101134284Y-43038557D01*
X101178853Y-43050499D01*
X101178854Y-43050500D01*
X101178856Y-43050500D01*
X101271146Y-43050500D01*
X101271146Y-43050499D01*
X101360288Y-43026614D01*
X101440212Y-42980469D01*
X101505469Y-42915212D01*
X101551614Y-42835288D01*
X101575499Y-42746146D01*
X101575500Y-42746146D01*
X101575500Y-42653854D01*
X101575499Y-42653853D01*
X101566289Y-42619482D01*
X101551614Y-42564712D01*
X101545372Y-42553900D01*
X101505471Y-42484791D01*
X101505470Y-42484790D01*
X101505469Y-42484788D01*
X101440212Y-42419531D01*
X101440209Y-42419529D01*
X101440208Y-42419528D01*
X101360289Y-42373386D01*
X101360284Y-42373384D01*
X101271146Y-42349500D01*
X101271144Y-42349500D01*
X101178856Y-42349500D01*
X101178854Y-42349500D01*
X101089715Y-42373384D01*
X101089710Y-42373386D01*
X101009791Y-42419528D01*
X100944528Y-42484791D01*
X100898386Y-42564710D01*
X100898384Y-42564715D01*
X100874500Y-42653853D01*
X98920345Y-42653853D01*
X98880471Y-42584791D01*
X98880470Y-42584790D01*
X98880469Y-42584788D01*
X98815212Y-42519531D01*
X98815209Y-42519529D01*
X98815208Y-42519528D01*
X98795744Y-42508290D01*
X98761267Y-42463356D01*
X98767770Y-42413965D01*
X98765929Y-42413203D01*
X98767786Y-42408718D01*
X98767787Y-42408717D01*
X98791672Y-42319575D01*
X98791673Y-42319575D01*
X98791673Y-42227283D01*
X98791672Y-42227282D01*
X98767788Y-42138144D01*
X98767786Y-42138139D01*
X98721644Y-42058220D01*
X98721643Y-42058219D01*
X98721642Y-42058217D01*
X98656385Y-41992960D01*
X98656382Y-41992958D01*
X98656381Y-41992957D01*
X98576462Y-41946815D01*
X98576457Y-41946813D01*
X98487319Y-41922929D01*
X98487317Y-41922929D01*
X98395029Y-41922929D01*
X98395027Y-41922929D01*
X98305888Y-41946813D01*
X98305883Y-41946815D01*
X98225964Y-41992957D01*
X98160701Y-42058220D01*
X98114559Y-42138139D01*
X98114557Y-42138144D01*
X98090673Y-42227282D01*
X98090673Y-42319575D01*
X98114557Y-42408713D01*
X98114559Y-42408718D01*
X98160701Y-42488637D01*
X98160702Y-42488638D01*
X98160704Y-42488641D01*
X98225961Y-42553898D01*
X98225963Y-42553899D01*
X98225964Y-42553900D01*
X98245427Y-42565137D01*
X98279905Y-42610070D01*
X98279115Y-42651112D01*
X98276659Y-42659042D01*
X98273386Y-42664712D01*
X98263636Y-42701097D01*
X98263210Y-42702475D01*
X98245966Y-42723240D01*
X98229522Y-42744672D01*
X98227783Y-42745137D01*
X98227028Y-42746048D01*
X98222990Y-42746422D01*
X98192522Y-42754586D01*
X98096225Y-42754586D01*
X98007086Y-42778470D01*
X98007081Y-42778472D01*
X97927162Y-42824614D01*
X97861899Y-42889877D01*
X97815757Y-42969796D01*
X97815755Y-42969801D01*
X97791871Y-43058939D01*
X93240500Y-43058939D01*
X93240500Y-43026128D01*
X93262174Y-42973802D01*
X96082123Y-40153853D01*
X99649500Y-40153853D01*
X99649500Y-40246146D01*
X99673384Y-40335284D01*
X99673386Y-40335289D01*
X99719528Y-40415208D01*
X99719529Y-40415209D01*
X99719531Y-40415212D01*
X99784788Y-40480469D01*
X99784790Y-40480470D01*
X99784791Y-40480471D01*
X99836790Y-40510493D01*
X99864712Y-40526614D01*
X99864713Y-40526614D01*
X99864715Y-40526615D01*
X99909284Y-40538557D01*
X99953853Y-40550499D01*
X99953854Y-40550500D01*
X99953856Y-40550500D01*
X100046146Y-40550500D01*
X100046146Y-40550499D01*
X100135288Y-40526614D01*
X100215212Y-40480469D01*
X100280469Y-40415212D01*
X100326614Y-40335288D01*
X100350499Y-40246146D01*
X100350500Y-40246146D01*
X100350500Y-40153854D01*
X100350499Y-40153853D01*
X100549500Y-40153853D01*
X100549500Y-40246146D01*
X100573384Y-40335284D01*
X100573386Y-40335289D01*
X100619528Y-40415208D01*
X100619529Y-40415209D01*
X100619531Y-40415212D01*
X100684788Y-40480469D01*
X100684790Y-40480470D01*
X100684791Y-40480471D01*
X100736790Y-40510493D01*
X100764712Y-40526614D01*
X100764713Y-40526614D01*
X100764715Y-40526615D01*
X100809284Y-40538557D01*
X100853853Y-40550499D01*
X100853854Y-40550500D01*
X100853856Y-40550500D01*
X100946146Y-40550500D01*
X100946146Y-40550499D01*
X101035288Y-40526614D01*
X101115212Y-40480469D01*
X101180469Y-40415212D01*
X101226614Y-40335288D01*
X101250499Y-40246146D01*
X101250500Y-40246146D01*
X101250500Y-40153854D01*
X101250499Y-40153853D01*
X101248433Y-40146144D01*
X101226614Y-40064712D01*
X101220345Y-40053854D01*
X101180471Y-39984791D01*
X101180470Y-39984790D01*
X101180469Y-39984788D01*
X101115212Y-39919531D01*
X101115209Y-39919529D01*
X101115208Y-39919528D01*
X101035289Y-39873386D01*
X101035284Y-39873384D01*
X100946146Y-39849500D01*
X100946144Y-39849500D01*
X100853856Y-39849500D01*
X100853854Y-39849500D01*
X100764715Y-39873384D01*
X100764710Y-39873386D01*
X100684791Y-39919528D01*
X100619528Y-39984791D01*
X100573386Y-40064710D01*
X100573384Y-40064715D01*
X100549500Y-40153853D01*
X100350499Y-40153853D01*
X100348433Y-40146144D01*
X100326614Y-40064712D01*
X100320345Y-40053854D01*
X100280471Y-39984791D01*
X100280470Y-39984790D01*
X100280469Y-39984788D01*
X100215212Y-39919531D01*
X100215209Y-39919529D01*
X100215208Y-39919528D01*
X100135289Y-39873386D01*
X100135284Y-39873384D01*
X100046146Y-39849500D01*
X100046144Y-39849500D01*
X99953856Y-39849500D01*
X99953854Y-39849500D01*
X99864715Y-39873384D01*
X99864710Y-39873386D01*
X99784791Y-39919528D01*
X99719528Y-39984791D01*
X99673386Y-40064710D01*
X99673384Y-40064715D01*
X99649500Y-40153853D01*
X96082123Y-40153853D01*
X98703802Y-37532174D01*
X98756128Y-37510500D01*
X100659999Y-37510500D01*
X100712325Y-37532174D01*
X100733999Y-37584500D01*
X100724084Y-37621501D01*
X100715213Y-37636864D01*
X100715210Y-37636871D01*
X100691326Y-37726009D01*
X100691326Y-37818302D01*
X100715210Y-37907440D01*
X100715212Y-37907445D01*
X100761354Y-37987364D01*
X100761355Y-37987365D01*
X100761357Y-37987368D01*
X100812798Y-38038809D01*
X100834472Y-38091134D01*
X100812798Y-38143460D01*
X100797473Y-38155219D01*
X100751042Y-38182027D01*
X100751041Y-38182027D01*
X100685777Y-38247291D01*
X100639635Y-38327210D01*
X100639633Y-38327215D01*
X100615749Y-38416353D01*
X100615749Y-38508646D01*
X100639633Y-38597784D01*
X100639635Y-38597789D01*
X100685777Y-38677708D01*
X100685778Y-38677709D01*
X100685780Y-38677712D01*
X100751037Y-38742969D01*
X100751039Y-38742970D01*
X100751040Y-38742971D01*
X100816933Y-38781015D01*
X100830961Y-38789114D01*
X100830962Y-38789114D01*
X100830964Y-38789115D01*
X100875533Y-38801057D01*
X100920102Y-38812999D01*
X100920103Y-38813000D01*
X100920105Y-38813000D01*
X101012395Y-38813000D01*
X101012395Y-38812999D01*
X101101537Y-38789114D01*
X101181461Y-38742969D01*
X101246718Y-38677712D01*
X101292863Y-38597788D01*
X101316748Y-38508646D01*
X101316749Y-38508646D01*
X101316749Y-38416354D01*
X101316748Y-38416353D01*
X101314578Y-38408256D01*
X101292863Y-38327212D01*
X101288188Y-38319115D01*
X101246720Y-38247291D01*
X101246719Y-38247290D01*
X101246718Y-38247288D01*
X101195275Y-38195845D01*
X101173602Y-38143521D01*
X101195276Y-38091195D01*
X101210600Y-38079436D01*
X101257038Y-38052625D01*
X101322295Y-37987368D01*
X101368440Y-37907444D01*
X101392325Y-37818302D01*
X101392326Y-37818302D01*
X101392326Y-37726010D01*
X101392325Y-37726009D01*
X101368441Y-37636871D01*
X101368438Y-37636864D01*
X101359568Y-37621501D01*
X101352174Y-37565349D01*
X101386652Y-37520415D01*
X101423653Y-37510500D01*
X101843872Y-37510500D01*
X101896198Y-37532174D01*
X104287198Y-39923174D01*
X104308872Y-39975500D01*
X104287198Y-40027826D01*
X104234872Y-40049500D01*
X104153854Y-40049500D01*
X104064715Y-40073384D01*
X104064710Y-40073386D01*
X103984791Y-40119528D01*
X103919528Y-40184791D01*
X103873386Y-40264710D01*
X103873384Y-40264715D01*
X103849500Y-40353853D01*
X103849500Y-40446146D01*
X103873384Y-40535284D01*
X103873386Y-40535289D01*
X103919528Y-40615208D01*
X103919529Y-40615209D01*
X103919531Y-40615212D01*
X103984788Y-40680469D01*
X103984790Y-40680470D01*
X103984791Y-40680471D01*
X104062538Y-40725359D01*
X104064712Y-40726614D01*
X104064713Y-40726614D01*
X104064715Y-40726615D01*
X104101450Y-40736458D01*
X104153853Y-40750499D01*
X104153854Y-40750500D01*
X104153856Y-40750500D01*
X104246146Y-40750500D01*
X104246146Y-40750499D01*
X104335288Y-40726614D01*
X104335291Y-40726611D01*
X104336181Y-40726244D01*
X104336670Y-40726244D01*
X104339973Y-40725359D01*
X104340210Y-40726244D01*
X104392818Y-40726244D01*
X104432867Y-40766292D01*
X104438500Y-40794611D01*
X104438500Y-43517178D01*
X104438499Y-43517192D01*
X104438499Y-43523150D01*
X104438499Y-43614850D01*
X104459055Y-43664476D01*
X104473591Y-43699568D01*
X104538432Y-43764409D01*
X104548839Y-43774816D01*
X104548841Y-43774817D01*
X104727826Y-43953802D01*
X104749500Y-44006128D01*
X104749500Y-44046146D01*
X104773384Y-44135284D01*
X104773386Y-44135289D01*
X104819528Y-44215208D01*
X104819529Y-44215209D01*
X104819531Y-44215212D01*
X104884788Y-44280469D01*
X104884790Y-44280470D01*
X104884791Y-44280471D01*
X104959121Y-44323386D01*
X104964712Y-44326614D01*
X104964713Y-44326614D01*
X104964715Y-44326615D01*
X105009284Y-44338557D01*
X105053853Y-44350499D01*
X105053854Y-44350500D01*
X105053856Y-44350500D01*
X105146146Y-44350500D01*
X105146146Y-44350499D01*
X105235288Y-44326614D01*
X105315212Y-44280469D01*
X105380469Y-44215212D01*
X105426614Y-44135288D01*
X105450499Y-44046146D01*
X105450500Y-44046146D01*
X105450500Y-43953854D01*
X105450499Y-43953853D01*
X105949500Y-43953853D01*
X105949500Y-44046146D01*
X105973384Y-44135284D01*
X105973386Y-44135289D01*
X106019528Y-44215208D01*
X106019529Y-44215209D01*
X106019531Y-44215212D01*
X106084788Y-44280469D01*
X106084790Y-44280470D01*
X106084791Y-44280471D01*
X106159121Y-44323386D01*
X106164712Y-44326614D01*
X106164713Y-44326614D01*
X106164715Y-44326615D01*
X106209284Y-44338557D01*
X106253853Y-44350499D01*
X106253854Y-44350500D01*
X106253856Y-44350500D01*
X106346146Y-44350500D01*
X106346146Y-44350499D01*
X106435288Y-44326614D01*
X106515212Y-44280469D01*
X106580469Y-44215212D01*
X106626614Y-44135288D01*
X106650499Y-44046146D01*
X106650500Y-44046146D01*
X106650500Y-43953854D01*
X106650499Y-43953853D01*
X106650485Y-43953802D01*
X106626614Y-43864712D01*
X106621279Y-43855471D01*
X106580471Y-43784791D01*
X106580470Y-43784790D01*
X106580469Y-43784788D01*
X106515212Y-43719531D01*
X106515209Y-43719529D01*
X106515208Y-43719528D01*
X106435289Y-43673386D01*
X106435284Y-43673384D01*
X106346146Y-43649500D01*
X106346144Y-43649500D01*
X106253856Y-43649500D01*
X106253854Y-43649500D01*
X106164715Y-43673384D01*
X106164710Y-43673386D01*
X106084791Y-43719528D01*
X106019528Y-43784791D01*
X105973386Y-43864710D01*
X105973384Y-43864715D01*
X105949500Y-43953853D01*
X105450499Y-43953853D01*
X105450485Y-43953802D01*
X105426614Y-43864712D01*
X105421279Y-43855471D01*
X105380471Y-43784791D01*
X105380470Y-43784790D01*
X105380469Y-43784788D01*
X105315212Y-43719531D01*
X105315209Y-43719529D01*
X105315208Y-43719528D01*
X105235289Y-43673386D01*
X105235284Y-43673384D01*
X105146146Y-43649500D01*
X105146144Y-43649500D01*
X105106128Y-43649500D01*
X105053802Y-43627826D01*
X104921174Y-43495198D01*
X104899500Y-43442872D01*
X104899500Y-43159400D01*
X104921174Y-43107074D01*
X104973500Y-43085400D01*
X105010501Y-43095315D01*
X105064707Y-43126612D01*
X105064715Y-43126615D01*
X105106545Y-43137823D01*
X105153853Y-43150499D01*
X105153854Y-43150500D01*
X105153856Y-43150500D01*
X105246145Y-43150500D01*
X105262110Y-43146221D01*
X105277358Y-43142136D01*
X105333511Y-43149528D01*
X105360369Y-43180153D01*
X105361737Y-43179364D01*
X105410304Y-43263484D01*
X105410305Y-43263485D01*
X105410307Y-43263488D01*
X105475564Y-43328745D01*
X105475566Y-43328746D01*
X105475567Y-43328747D01*
X105547884Y-43370500D01*
X105555488Y-43374890D01*
X105555489Y-43374890D01*
X105555491Y-43374891D01*
X105595290Y-43385555D01*
X105644629Y-43398775D01*
X105644630Y-43398776D01*
X105644632Y-43398776D01*
X105736922Y-43398776D01*
X105736922Y-43398775D01*
X105826064Y-43374890D01*
X105905988Y-43328745D01*
X105968615Y-43266117D01*
X106020940Y-43244444D01*
X106073264Y-43266117D01*
X106087616Y-43280468D01*
X106087617Y-43280469D01*
X106111973Y-43294531D01*
X106156601Y-43320298D01*
X106167541Y-43326614D01*
X106167542Y-43326614D01*
X106167544Y-43326615D01*
X106175501Y-43328747D01*
X106256682Y-43350499D01*
X106256683Y-43350500D01*
X106256685Y-43350500D01*
X106348975Y-43350500D01*
X106348975Y-43350499D01*
X106438117Y-43326614D01*
X106518041Y-43280469D01*
X106583298Y-43215212D01*
X106629443Y-43135288D01*
X106653328Y-43046146D01*
X106653329Y-43046146D01*
X106653329Y-42953854D01*
X106653328Y-42953853D01*
X106652256Y-42949854D01*
X106634802Y-42884712D01*
X106629444Y-42864715D01*
X106629442Y-42864710D01*
X106583300Y-42784791D01*
X106583299Y-42784790D01*
X106583298Y-42784788D01*
X106518041Y-42719531D01*
X106518038Y-42719529D01*
X106518037Y-42719528D01*
X106438118Y-42673386D01*
X106438113Y-42673384D01*
X106348975Y-42649500D01*
X106348973Y-42649500D01*
X106256685Y-42649500D01*
X106256683Y-42649500D01*
X106167544Y-42673384D01*
X106167539Y-42673386D01*
X106087620Y-42719528D01*
X106024990Y-42782158D01*
X105972663Y-42803832D01*
X105920339Y-42782158D01*
X105905988Y-42767807D01*
X105905985Y-42767805D01*
X105905984Y-42767804D01*
X105826065Y-42721662D01*
X105826060Y-42721660D01*
X105736922Y-42697776D01*
X105736920Y-42697776D01*
X105644632Y-42697776D01*
X105644631Y-42697776D01*
X105613414Y-42706140D01*
X105557262Y-42698746D01*
X105530410Y-42668120D01*
X105529039Y-42668912D01*
X105480471Y-42584791D01*
X105480470Y-42584790D01*
X105480469Y-42584788D01*
X105415212Y-42519531D01*
X105415209Y-42519529D01*
X105415208Y-42519528D01*
X105335289Y-42473386D01*
X105335284Y-42473384D01*
X105246146Y-42449500D01*
X105246144Y-42449500D01*
X105153856Y-42449500D01*
X105153854Y-42449500D01*
X105064715Y-42473384D01*
X105064710Y-42473386D01*
X105010500Y-42504685D01*
X104954347Y-42512077D01*
X104909414Y-42477599D01*
X104899500Y-42440599D01*
X104899500Y-41268695D01*
X105433560Y-41268695D01*
X105433560Y-41360988D01*
X105457444Y-41450126D01*
X105457446Y-41450131D01*
X105503588Y-41530050D01*
X105503589Y-41530051D01*
X105503591Y-41530054D01*
X105568848Y-41595311D01*
X105648772Y-41641456D01*
X105648773Y-41641456D01*
X105648775Y-41641457D01*
X105693344Y-41653399D01*
X105737913Y-41665341D01*
X105737914Y-41665342D01*
X105737916Y-41665342D01*
X105830206Y-41665342D01*
X105830206Y-41665341D01*
X105919348Y-41641456D01*
X105999272Y-41595311D01*
X106064529Y-41530054D01*
X106110674Y-41450130D01*
X106134559Y-41360988D01*
X106134560Y-41360988D01*
X106134560Y-41268696D01*
X106134559Y-41268695D01*
X106110675Y-41179557D01*
X106110673Y-41179552D01*
X106064531Y-41099633D01*
X106064530Y-41099632D01*
X106064529Y-41099630D01*
X105999272Y-41034373D01*
X105999269Y-41034371D01*
X105999268Y-41034370D01*
X105919349Y-40988228D01*
X105919344Y-40988226D01*
X105830206Y-40964342D01*
X105830204Y-40964342D01*
X105737916Y-40964342D01*
X105737914Y-40964342D01*
X105648775Y-40988226D01*
X105648770Y-40988228D01*
X105568851Y-41034370D01*
X105503588Y-41099633D01*
X105457446Y-41179552D01*
X105457444Y-41179557D01*
X105433560Y-41268695D01*
X104899500Y-41268695D01*
X104899500Y-39933152D01*
X104899500Y-39933151D01*
X104896792Y-39926614D01*
X104889221Y-39908337D01*
X104877678Y-39880469D01*
X104864409Y-39848432D01*
X104795353Y-39779376D01*
X104795346Y-39779370D01*
X103424229Y-38408253D01*
X103979976Y-38408253D01*
X103979976Y-38500546D01*
X104003860Y-38589684D01*
X104003862Y-38589689D01*
X104050004Y-38669608D01*
X104050005Y-38669609D01*
X104050007Y-38669612D01*
X104115264Y-38734869D01*
X104115266Y-38734870D01*
X104115267Y-38734871D01*
X104195186Y-38781013D01*
X104195188Y-38781014D01*
X104195189Y-38781014D01*
X104195191Y-38781015D01*
X104225421Y-38789115D01*
X104284329Y-38804899D01*
X104284330Y-38804900D01*
X104284332Y-38804900D01*
X104376622Y-38804900D01*
X104376622Y-38804899D01*
X104465764Y-38781014D01*
X104545688Y-38734869D01*
X104610945Y-38669612D01*
X104657090Y-38589688D01*
X104680975Y-38500546D01*
X104680976Y-38500546D01*
X104680976Y-38408254D01*
X104680975Y-38408253D01*
X104657091Y-38319115D01*
X104657089Y-38319110D01*
X104610947Y-38239191D01*
X104610946Y-38239190D01*
X104610945Y-38239188D01*
X104545688Y-38173931D01*
X104545685Y-38173929D01*
X104545684Y-38173928D01*
X104465765Y-38127786D01*
X104465760Y-38127784D01*
X104376622Y-38103900D01*
X104376620Y-38103900D01*
X104284332Y-38103900D01*
X104284330Y-38103900D01*
X104195191Y-38127784D01*
X104195186Y-38127786D01*
X104115267Y-38173928D01*
X104050004Y-38239191D01*
X104003862Y-38319110D01*
X104003860Y-38319115D01*
X103979976Y-38408253D01*
X103424229Y-38408253D01*
X102869829Y-37853853D01*
X106149500Y-37853853D01*
X106149500Y-37946146D01*
X106173384Y-38035284D01*
X106173386Y-38035289D01*
X106219528Y-38115208D01*
X106219529Y-38115209D01*
X106219531Y-38115212D01*
X106284788Y-38180469D01*
X106284790Y-38180470D01*
X106284791Y-38180471D01*
X106311423Y-38195847D01*
X106364712Y-38226614D01*
X106364713Y-38226614D01*
X106364715Y-38226615D01*
X106409284Y-38238557D01*
X106453853Y-38250499D01*
X106453854Y-38250500D01*
X106453856Y-38250500D01*
X106546146Y-38250500D01*
X106546146Y-38250499D01*
X106635288Y-38226614D01*
X106715212Y-38180469D01*
X106780469Y-38115212D01*
X106826614Y-38035288D01*
X106850499Y-37946146D01*
X106850500Y-37946146D01*
X106850500Y-37853854D01*
X106850499Y-37853853D01*
X106826615Y-37764715D01*
X106826613Y-37764710D01*
X106780471Y-37684791D01*
X106780470Y-37684790D01*
X106780469Y-37684788D01*
X106715212Y-37619531D01*
X106715209Y-37619529D01*
X106715208Y-37619528D01*
X106635289Y-37573386D01*
X106635284Y-37573384D01*
X106546146Y-37549500D01*
X106546144Y-37549500D01*
X106453856Y-37549500D01*
X106453854Y-37549500D01*
X106364715Y-37573384D01*
X106364710Y-37573386D01*
X106284791Y-37619528D01*
X106219528Y-37684791D01*
X106173386Y-37764710D01*
X106173384Y-37764715D01*
X106149500Y-37853853D01*
X102869829Y-37853853D01*
X102192802Y-37176826D01*
X102171128Y-37124500D01*
X102192802Y-37072174D01*
X102237030Y-37053853D01*
X102649500Y-37053853D01*
X102649500Y-37146146D01*
X102673384Y-37235284D01*
X102673386Y-37235289D01*
X102719528Y-37315208D01*
X102719529Y-37315209D01*
X102719531Y-37315212D01*
X102784788Y-37380469D01*
X102864712Y-37426614D01*
X102864713Y-37426614D01*
X102864715Y-37426615D01*
X102909284Y-37438557D01*
X102953853Y-37450499D01*
X102953854Y-37450500D01*
X102953856Y-37450500D01*
X103046146Y-37450500D01*
X103046146Y-37450499D01*
X103135288Y-37426614D01*
X103215212Y-37380469D01*
X103280469Y-37315212D01*
X103326614Y-37235288D01*
X103350499Y-37146146D01*
X103350500Y-37146146D01*
X103350500Y-37053854D01*
X103350499Y-37053853D01*
X103349332Y-37049499D01*
X103332029Y-36984920D01*
X103326615Y-36964715D01*
X103326614Y-36964714D01*
X103326614Y-36964712D01*
X103320343Y-36953852D01*
X103312950Y-36897700D01*
X103347427Y-36852766D01*
X103365267Y-36845375D01*
X103435288Y-36826614D01*
X103515212Y-36780469D01*
X103580469Y-36715212D01*
X103626614Y-36635288D01*
X103650499Y-36546146D01*
X103650500Y-36546146D01*
X103650500Y-36453857D01*
X103650499Y-36453853D01*
X103626614Y-36364712D01*
X103620346Y-36353855D01*
X103620344Y-36353852D01*
X103849500Y-36353852D01*
X103849500Y-36446145D01*
X103873384Y-36535283D01*
X103873386Y-36535288D01*
X103919528Y-36615207D01*
X103919529Y-36615208D01*
X103919531Y-36615211D01*
X103984788Y-36680468D01*
X104064712Y-36726613D01*
X104064713Y-36726613D01*
X104064715Y-36726614D01*
X104109284Y-36738556D01*
X104153853Y-36750498D01*
X104153854Y-36750499D01*
X104153856Y-36750499D01*
X104246146Y-36750499D01*
X104246146Y-36750498D01*
X104335288Y-36726613D01*
X104415212Y-36680468D01*
X104480469Y-36615211D01*
X104526614Y-36535287D01*
X104550499Y-36446145D01*
X104550500Y-36446145D01*
X104550500Y-36353853D01*
X104550499Y-36353852D01*
X104548967Y-36348136D01*
X104538557Y-36309283D01*
X104526615Y-36264714D01*
X104526613Y-36264709D01*
X104480471Y-36184790D01*
X104480470Y-36184789D01*
X104480469Y-36184787D01*
X104415212Y-36119530D01*
X104415209Y-36119528D01*
X104415208Y-36119527D01*
X104335289Y-36073385D01*
X104335284Y-36073383D01*
X104246146Y-36049499D01*
X104246144Y-36049499D01*
X104153856Y-36049499D01*
X104153854Y-36049499D01*
X104064715Y-36073383D01*
X104064710Y-36073385D01*
X103984791Y-36119527D01*
X103919528Y-36184790D01*
X103873386Y-36264709D01*
X103873384Y-36264714D01*
X103849500Y-36353852D01*
X103620344Y-36353852D01*
X103580471Y-36284791D01*
X103580470Y-36284790D01*
X103580469Y-36284788D01*
X103515212Y-36219531D01*
X103515209Y-36219529D01*
X103515208Y-36219528D01*
X103435289Y-36173386D01*
X103435284Y-36173384D01*
X103346146Y-36149500D01*
X103346144Y-36149500D01*
X103253856Y-36149500D01*
X103253854Y-36149500D01*
X103164715Y-36173384D01*
X103164710Y-36173386D01*
X103084791Y-36219528D01*
X103019528Y-36284791D01*
X102973386Y-36364710D01*
X102973384Y-36364715D01*
X102949500Y-36453853D01*
X102949500Y-36546146D01*
X102973384Y-36635284D01*
X102973386Y-36635289D01*
X102979656Y-36646148D01*
X102987049Y-36702300D01*
X102952570Y-36747234D01*
X102934723Y-36754626D01*
X102864715Y-36773384D01*
X102864710Y-36773386D01*
X102784791Y-36819528D01*
X102719528Y-36884791D01*
X102673386Y-36964710D01*
X102673384Y-36964715D01*
X102649500Y-37053853D01*
X102237030Y-37053853D01*
X102241453Y-37052021D01*
X102241337Y-37051133D01*
X102244653Y-37050696D01*
X102245128Y-37050500D01*
X102246146Y-37050500D01*
X102246146Y-37050499D01*
X102335288Y-37026614D01*
X102362440Y-37010937D01*
X102407504Y-36984920D01*
X102407505Y-36984919D01*
X102410394Y-36983250D01*
X102415212Y-36980469D01*
X102480469Y-36915212D01*
X102526614Y-36835288D01*
X102550499Y-36746146D01*
X102550500Y-36746146D01*
X102550500Y-36653854D01*
X102550499Y-36653853D01*
X102548434Y-36646148D01*
X102526614Y-36564712D01*
X102480469Y-36484788D01*
X102415212Y-36419531D01*
X102415209Y-36419529D01*
X102415208Y-36419528D01*
X102335289Y-36373386D01*
X102335284Y-36373384D01*
X102246146Y-36349500D01*
X102246144Y-36349500D01*
X102153856Y-36349500D01*
X102153854Y-36349500D01*
X102064715Y-36373384D01*
X102064710Y-36373386D01*
X101984791Y-36419528D01*
X101919528Y-36484791D01*
X101873386Y-36564710D01*
X101873384Y-36564715D01*
X101849500Y-36653853D01*
X101849500Y-36746146D01*
X101873384Y-36835284D01*
X101873386Y-36835289D01*
X101919528Y-36915208D01*
X101919529Y-36915209D01*
X101919531Y-36915212D01*
X101927494Y-36923175D01*
X101949168Y-36975500D01*
X101927494Y-37027826D01*
X101875168Y-37049500D01*
X98684470Y-37049500D01*
X98684462Y-37049499D01*
X98675850Y-37049499D01*
X98584151Y-37049499D01*
X98541790Y-37067044D01*
X98541791Y-37067045D01*
X98499433Y-37084590D01*
X98434590Y-37149433D01*
X93482759Y-42101263D01*
X93430433Y-42122937D01*
X93378107Y-42101263D01*
X93358955Y-42068091D01*
X93336614Y-41984712D01*
X93290469Y-41904788D01*
X93225212Y-41839531D01*
X93225209Y-41839529D01*
X93225208Y-41839528D01*
X93145289Y-41793386D01*
X93145284Y-41793384D01*
X93056146Y-41769500D01*
X93056144Y-41769500D01*
X92963856Y-41769500D01*
X92963854Y-41769500D01*
X92874715Y-41793384D01*
X92874710Y-41793386D01*
X92794791Y-41839528D01*
X92729528Y-41904791D01*
X92683386Y-41984710D01*
X92683384Y-41984715D01*
X92659500Y-42073853D01*
X92659500Y-42166146D01*
X92683384Y-42255284D01*
X92683386Y-42255289D01*
X92729528Y-42335208D01*
X92729529Y-42335209D01*
X92729531Y-42335212D01*
X92794788Y-42400469D01*
X92794790Y-42400470D01*
X92794791Y-42400471D01*
X92864294Y-42440599D01*
X92874712Y-42446614D01*
X92958090Y-42468955D01*
X92973414Y-42480713D01*
X92991262Y-42488106D01*
X92995089Y-42497345D01*
X93003023Y-42503433D01*
X93005544Y-42522586D01*
X93012937Y-42540432D01*
X93009110Y-42549670D01*
X93010416Y-42559585D01*
X92991264Y-42592758D01*
X92936199Y-42647825D01*
X92883873Y-42669500D01*
X92843854Y-42669500D01*
X92754715Y-42693384D01*
X92754710Y-42693386D01*
X92674791Y-42739528D01*
X92609528Y-42804791D01*
X92563386Y-42884710D01*
X92563384Y-42884715D01*
X92539500Y-42973853D01*
X91012549Y-42973853D01*
X91018978Y-42949859D01*
X91018979Y-42949854D01*
X91031400Y-42903497D01*
X91031400Y-42811208D01*
X91031399Y-42811207D01*
X91023615Y-42782158D01*
X91007514Y-42722066D01*
X91007280Y-42721660D01*
X90961371Y-42642145D01*
X90961370Y-42642144D01*
X90961369Y-42642142D01*
X90896112Y-42576885D01*
X90896109Y-42576883D01*
X90896108Y-42576882D01*
X90813199Y-42529014D01*
X90778720Y-42484080D01*
X90778721Y-42445775D01*
X90782652Y-42431101D01*
X90788264Y-42410157D01*
X90788265Y-42410157D01*
X90788265Y-42317865D01*
X90788264Y-42317864D01*
X90764380Y-42228726D01*
X90764378Y-42228721D01*
X90718236Y-42148802D01*
X90718235Y-42148801D01*
X90718234Y-42148799D01*
X90652977Y-42083542D01*
X90652974Y-42083540D01*
X90652973Y-42083539D01*
X90573054Y-42037397D01*
X90573049Y-42037395D01*
X90483911Y-42013511D01*
X90483909Y-42013511D01*
X90391621Y-42013511D01*
X90391619Y-42013511D01*
X90297792Y-42038652D01*
X90297418Y-42037257D01*
X90246175Y-42037253D01*
X90206130Y-41997201D01*
X90200500Y-41968888D01*
X90200500Y-41674832D01*
X90222174Y-41622506D01*
X90274500Y-41600832D01*
X90326824Y-41622505D01*
X90384788Y-41680469D01*
X90464712Y-41726614D01*
X90464713Y-41726614D01*
X90464715Y-41726615D01*
X90509284Y-41738557D01*
X90553853Y-41750499D01*
X90553854Y-41750500D01*
X90553856Y-41750500D01*
X90646146Y-41750500D01*
X90646146Y-41750499D01*
X90735288Y-41726614D01*
X90815212Y-41680469D01*
X90880469Y-41615212D01*
X90926614Y-41535288D01*
X90950499Y-41446146D01*
X90950500Y-41446146D01*
X90950500Y-41353854D01*
X90950499Y-41353853D01*
X90926615Y-41264715D01*
X90926613Y-41264710D01*
X90880471Y-41184791D01*
X90880470Y-41184790D01*
X90880469Y-41184788D01*
X90877871Y-41182190D01*
X90856198Y-41129866D01*
X90877870Y-41077543D01*
X90890120Y-41065294D01*
X90936265Y-40985370D01*
X90960150Y-40896228D01*
X90960151Y-40896228D01*
X90960151Y-40803936D01*
X90960150Y-40803935D01*
X90953862Y-40780469D01*
X90944309Y-40744816D01*
X90942070Y-40736458D01*
X90949462Y-40680305D01*
X90979424Y-40654041D01*
X90978487Y-40652417D01*
X91008155Y-40635288D01*
X91062611Y-40603847D01*
X91127868Y-40538590D01*
X91167100Y-40470638D01*
X91212033Y-40436160D01*
X91250338Y-40436160D01*
X91303850Y-40450499D01*
X91303851Y-40450500D01*
X91303853Y-40450500D01*
X91396143Y-40450500D01*
X91396143Y-40450499D01*
X91485285Y-40426614D01*
X91565209Y-40380469D01*
X91572670Y-40373007D01*
X91624991Y-40351330D01*
X91677317Y-40372998D01*
X91684788Y-40380469D01*
X91684790Y-40380470D01*
X91684791Y-40380471D01*
X91764710Y-40426613D01*
X91764712Y-40426614D01*
X91764713Y-40426614D01*
X91764715Y-40426615D01*
X91800338Y-40436160D01*
X91853853Y-40450499D01*
X91853854Y-40450500D01*
X91853856Y-40450500D01*
X91946146Y-40450500D01*
X91946146Y-40450499D01*
X92035288Y-40426614D01*
X92115212Y-40380469D01*
X92180469Y-40315212D01*
X92226614Y-40235288D01*
X92250499Y-40146146D01*
X92250500Y-40146146D01*
X92250500Y-40053854D01*
X92250499Y-40053853D01*
X92226615Y-39964715D01*
X92226613Y-39964710D01*
X92180471Y-39884791D01*
X92180470Y-39884790D01*
X92180469Y-39884788D01*
X92115212Y-39819531D01*
X92115209Y-39819529D01*
X92115208Y-39819528D01*
X92035289Y-39773386D01*
X92035284Y-39773384D01*
X91946146Y-39749500D01*
X91946144Y-39749500D01*
X91853856Y-39749500D01*
X91853854Y-39749500D01*
X91764715Y-39773384D01*
X91764710Y-39773386D01*
X91684788Y-39819530D01*
X91677322Y-39826996D01*
X91624995Y-39848668D01*
X91572675Y-39826996D01*
X91565210Y-39819531D01*
X91565206Y-39819529D01*
X91485286Y-39773386D01*
X91467479Y-39768615D01*
X91455911Y-39765515D01*
X91410978Y-39731037D01*
X91403585Y-39674885D01*
X91410981Y-39657033D01*
X91415389Y-39649398D01*
X91415390Y-39649396D01*
X91415391Y-39649395D01*
X91439276Y-39560253D01*
X91439277Y-39560253D01*
X91439277Y-39467961D01*
X91439276Y-39467960D01*
X91415392Y-39378822D01*
X91415390Y-39378817D01*
X91369248Y-39298898D01*
X91369247Y-39298897D01*
X91369246Y-39298895D01*
X91303989Y-39233638D01*
X91303986Y-39233636D01*
X91303985Y-39233635D01*
X91224066Y-39187493D01*
X91224061Y-39187491D01*
X91134923Y-39163607D01*
X91134921Y-39163607D01*
X91042633Y-39163607D01*
X91042631Y-39163607D01*
X90953492Y-39187491D01*
X90953487Y-39187493D01*
X90873568Y-39233635D01*
X90808305Y-39298898D01*
X90762163Y-39378817D01*
X90762161Y-39378822D01*
X90738277Y-39467960D01*
X90738277Y-39560253D01*
X90762161Y-39649391D01*
X90762163Y-39649396D01*
X90808305Y-39729315D01*
X90808306Y-39729316D01*
X90808308Y-39729319D01*
X90873565Y-39794576D01*
X90873567Y-39794577D01*
X90873568Y-39794578D01*
X90945759Y-39836258D01*
X90980238Y-39881192D01*
X90972845Y-39937344D01*
X90927911Y-39971823D01*
X90898575Y-39971830D01*
X90898354Y-39973511D01*
X90893545Y-39972878D01*
X90893543Y-39972878D01*
X90801255Y-39972878D01*
X90801253Y-39972878D01*
X90712114Y-39996762D01*
X90712109Y-39996764D01*
X90632190Y-40042906D01*
X90566927Y-40108169D01*
X90520785Y-40188088D01*
X90520783Y-40188093D01*
X90496899Y-40277231D01*
X90496899Y-40277234D01*
X90496899Y-40369522D01*
X90499832Y-40380469D01*
X90514980Y-40437002D01*
X90507587Y-40493154D01*
X90477630Y-40519427D01*
X90478563Y-40521043D01*
X90394442Y-40569610D01*
X90394439Y-40569612D01*
X90394439Y-40569613D01*
X90329182Y-40634870D01*
X90329180Y-40634872D01*
X90326826Y-40637227D01*
X90274500Y-40658901D01*
X90222174Y-40637227D01*
X90200500Y-40584901D01*
X90200500Y-38007034D01*
X93710074Y-38007034D01*
X93710074Y-38099327D01*
X93733958Y-38188465D01*
X93733960Y-38188470D01*
X93780102Y-38268389D01*
X93780103Y-38268390D01*
X93780105Y-38268393D01*
X93845362Y-38333650D01*
X93925286Y-38379795D01*
X93925287Y-38379795D01*
X93925289Y-38379796D01*
X93969858Y-38391738D01*
X94014427Y-38403680D01*
X94014428Y-38403681D01*
X94014430Y-38403681D01*
X94106720Y-38403681D01*
X94106720Y-38403680D01*
X94195862Y-38379795D01*
X94275786Y-38333650D01*
X94341043Y-38268393D01*
X94387188Y-38188469D01*
X94411073Y-38099327D01*
X94411074Y-38099327D01*
X94411074Y-38007035D01*
X94411073Y-38007034D01*
X94387189Y-37917896D01*
X94387187Y-37917891D01*
X94341045Y-37837972D01*
X94341044Y-37837971D01*
X94341043Y-37837969D01*
X94275786Y-37772712D01*
X94275783Y-37772710D01*
X94275782Y-37772709D01*
X94195863Y-37726567D01*
X94195858Y-37726565D01*
X94106720Y-37702681D01*
X94106718Y-37702681D01*
X94014430Y-37702681D01*
X94014428Y-37702681D01*
X93925289Y-37726565D01*
X93925284Y-37726567D01*
X93845365Y-37772709D01*
X93780102Y-37837972D01*
X93733960Y-37917891D01*
X93733958Y-37917896D01*
X93710074Y-38007034D01*
X90200500Y-38007034D01*
X90200500Y-36400462D01*
X90222174Y-36348136D01*
X90274500Y-36326462D01*
X90326826Y-36348136D01*
X90345978Y-36381309D01*
X90362111Y-36441520D01*
X90362113Y-36441525D01*
X90408255Y-36521444D01*
X90408256Y-36521445D01*
X90408258Y-36521448D01*
X90473515Y-36586705D01*
X90473517Y-36586706D01*
X90473518Y-36586707D01*
X90522881Y-36615207D01*
X90553439Y-36632850D01*
X90553440Y-36632850D01*
X90553442Y-36632851D01*
X90562541Y-36635289D01*
X90642580Y-36656735D01*
X90642581Y-36656736D01*
X90642583Y-36656736D01*
X90734873Y-36656736D01*
X90734873Y-36656735D01*
X90824015Y-36632850D01*
X90903939Y-36586705D01*
X90969196Y-36521448D01*
X90989806Y-36485750D01*
X91034738Y-36451272D01*
X91090891Y-36458664D01*
X91112592Y-36477691D01*
X91114524Y-36480208D01*
X91114527Y-36480211D01*
X91114529Y-36480214D01*
X91179786Y-36545471D01*
X91179788Y-36545472D01*
X91179789Y-36545473D01*
X91259708Y-36591615D01*
X91259710Y-36591616D01*
X91259711Y-36591616D01*
X91259713Y-36591617D01*
X91304282Y-36603559D01*
X91348851Y-36615501D01*
X91348852Y-36615502D01*
X91348854Y-36615502D01*
X91441144Y-36615502D01*
X91441144Y-36615501D01*
X91530286Y-36591616D01*
X91610210Y-36545471D01*
X91675467Y-36480214D01*
X91721612Y-36400290D01*
X91745497Y-36311148D01*
X91745498Y-36311148D01*
X91745498Y-36218856D01*
X91745497Y-36218855D01*
X91736369Y-36184790D01*
X91721612Y-36129714D01*
X91715732Y-36119530D01*
X91675469Y-36049793D01*
X91675468Y-36049792D01*
X91675467Y-36049790D01*
X91610210Y-35984533D01*
X91610207Y-35984531D01*
X91610206Y-35984530D01*
X91530287Y-35938388D01*
X91530282Y-35938386D01*
X91441144Y-35914502D01*
X91441142Y-35914502D01*
X91348854Y-35914502D01*
X91348852Y-35914502D01*
X91259713Y-35938386D01*
X91259708Y-35938388D01*
X91179789Y-35984530D01*
X91114525Y-36049794D01*
X91114525Y-36049795D01*
X91093917Y-36085488D01*
X91048983Y-36119966D01*
X90992831Y-36112572D01*
X90971131Y-36093544D01*
X90969202Y-36091031D01*
X90969197Y-36091026D01*
X90969196Y-36091024D01*
X90903939Y-36025767D01*
X90903936Y-36025765D01*
X90903935Y-36025764D01*
X90824016Y-35979622D01*
X90824011Y-35979620D01*
X90734873Y-35955736D01*
X90734871Y-35955736D01*
X90642583Y-35955736D01*
X90642581Y-35955736D01*
X90553442Y-35979620D01*
X90553437Y-35979622D01*
X90473518Y-36025764D01*
X90408255Y-36091027D01*
X90362113Y-36170946D01*
X90362111Y-36170951D01*
X90345978Y-36231162D01*
X90311500Y-36276095D01*
X90255347Y-36283487D01*
X90210414Y-36249009D01*
X90200500Y-36212009D01*
X90200500Y-35153853D01*
X90649500Y-35153853D01*
X90649500Y-35246146D01*
X90673384Y-35335284D01*
X90673386Y-35335289D01*
X90719528Y-35415208D01*
X90719529Y-35415209D01*
X90719531Y-35415212D01*
X90784788Y-35480469D01*
X90784790Y-35480470D01*
X90784791Y-35480471D01*
X90864710Y-35526613D01*
X90864712Y-35526614D01*
X90864713Y-35526614D01*
X90864715Y-35526615D01*
X90909284Y-35538557D01*
X90953853Y-35550499D01*
X90953854Y-35550500D01*
X90953856Y-35550500D01*
X91046146Y-35550500D01*
X91046146Y-35550499D01*
X91135288Y-35526614D01*
X91215212Y-35480469D01*
X91280469Y-35415212D01*
X91326614Y-35335288D01*
X91350499Y-35246146D01*
X91350500Y-35246146D01*
X91350500Y-35153854D01*
X91350499Y-35153853D01*
X91326615Y-35064715D01*
X91326613Y-35064710D01*
X91280471Y-34984791D01*
X91280470Y-34984790D01*
X91280469Y-34984788D01*
X91215212Y-34919531D01*
X91215209Y-34919529D01*
X91215208Y-34919528D01*
X91135289Y-34873386D01*
X91135284Y-34873384D01*
X91046146Y-34849500D01*
X91046144Y-34849500D01*
X90953856Y-34849500D01*
X90953854Y-34849500D01*
X90864715Y-34873384D01*
X90864710Y-34873386D01*
X90784791Y-34919528D01*
X90719528Y-34984791D01*
X90673386Y-35064710D01*
X90673384Y-35064715D01*
X90649500Y-35153853D01*
X90200500Y-35153853D01*
X90200500Y-33704668D01*
X90222174Y-33652342D01*
X90274500Y-33630668D01*
X90326826Y-33652342D01*
X90341172Y-33672561D01*
X90408052Y-33811440D01*
X90408054Y-33811444D01*
X90408055Y-33811445D01*
X90557477Y-34049248D01*
X90732584Y-34268825D01*
X90931175Y-34467416D01*
X91150752Y-34642523D01*
X91388555Y-34791945D01*
X91388558Y-34791946D01*
X91388559Y-34791947D01*
X91508069Y-34849500D01*
X91641592Y-34913801D01*
X91906682Y-35006560D01*
X91906687Y-35006561D01*
X91906690Y-35006562D01*
X92180486Y-35069054D01*
X92180487Y-35069054D01*
X92180491Y-35069055D01*
X92241143Y-35075888D01*
X92290712Y-35103284D01*
X92306392Y-35157708D01*
X92278996Y-35207278D01*
X92269858Y-35213508D01*
X92224792Y-35239527D01*
X92159528Y-35304791D01*
X92113386Y-35384710D01*
X92113384Y-35384715D01*
X92089500Y-35473853D01*
X92089500Y-35566146D01*
X92113384Y-35655284D01*
X92113386Y-35655289D01*
X92159528Y-35735208D01*
X92159529Y-35735209D01*
X92159531Y-35735212D01*
X92224788Y-35800469D01*
X92304712Y-35846614D01*
X92304713Y-35846614D01*
X92304715Y-35846615D01*
X92349284Y-35858557D01*
X92393853Y-35870499D01*
X92393854Y-35870500D01*
X92393856Y-35870500D01*
X92486146Y-35870500D01*
X92486146Y-35870499D01*
X92575288Y-35846614D01*
X92655212Y-35800469D01*
X92720469Y-35735212D01*
X92720475Y-35735201D01*
X92722586Y-35732452D01*
X92771637Y-35704137D01*
X92826344Y-35718798D01*
X92852770Y-35758351D01*
X92873384Y-35835284D01*
X92873386Y-35835289D01*
X92919528Y-35915208D01*
X92919529Y-35915209D01*
X92919531Y-35915212D01*
X92984788Y-35980469D01*
X92984790Y-35980470D01*
X92984791Y-35980471D01*
X93063240Y-36025764D01*
X93064712Y-36026614D01*
X93064713Y-36026614D01*
X93064715Y-36026615D01*
X93109284Y-36038557D01*
X93153853Y-36050499D01*
X93153854Y-36050500D01*
X93153856Y-36050500D01*
X93246146Y-36050500D01*
X93246146Y-36050499D01*
X93335288Y-36026614D01*
X93415212Y-35980469D01*
X93480469Y-35915212D01*
X93526614Y-35835288D01*
X93550499Y-35746146D01*
X93550500Y-35746146D01*
X93550500Y-35653854D01*
X93550499Y-35653853D01*
X93526615Y-35564715D01*
X93526613Y-35564710D01*
X93480471Y-35484791D01*
X93480470Y-35484790D01*
X93480469Y-35484788D01*
X93415212Y-35419531D01*
X93415209Y-35419529D01*
X93415208Y-35419528D01*
X93335289Y-35373386D01*
X93335284Y-35373384D01*
X93246146Y-35349500D01*
X93246144Y-35349500D01*
X93153856Y-35349500D01*
X93153854Y-35349500D01*
X93064715Y-35373384D01*
X93064710Y-35373386D01*
X92984791Y-35419528D01*
X92919523Y-35484796D01*
X92917405Y-35487556D01*
X92868350Y-35515864D01*
X92813646Y-35501193D01*
X92787229Y-35461648D01*
X92766614Y-35384712D01*
X92720469Y-35304788D01*
X92655212Y-35239531D01*
X92655209Y-35239529D01*
X92655208Y-35239528D01*
X92653576Y-35238586D01*
X92652996Y-35237830D01*
X92651358Y-35236573D01*
X92651694Y-35236134D01*
X92619097Y-35193653D01*
X92626490Y-35137500D01*
X92671423Y-35103021D01*
X92690576Y-35100500D01*
X92740421Y-35100500D01*
X92740425Y-35100500D01*
X93019509Y-35069055D01*
X93293318Y-35006560D01*
X93558408Y-34913801D01*
X93558407Y-34913801D01*
X93558411Y-34913800D01*
X93622203Y-34883079D01*
X93678751Y-34879902D01*
X93720982Y-34917642D01*
X93724159Y-34974190D01*
X93718397Y-34986750D01*
X93673386Y-35064710D01*
X93673384Y-35064715D01*
X93649500Y-35153853D01*
X93649500Y-35246146D01*
X93673384Y-35335284D01*
X93673386Y-35335289D01*
X93719528Y-35415208D01*
X93719529Y-35415209D01*
X93719531Y-35415212D01*
X93784788Y-35480469D01*
X93784790Y-35480470D01*
X93784791Y-35480471D01*
X93864710Y-35526613D01*
X93864712Y-35526614D01*
X93864713Y-35526614D01*
X93864715Y-35526615D01*
X93909284Y-35538557D01*
X93953853Y-35550499D01*
X93953854Y-35550500D01*
X93953856Y-35550500D01*
X94046146Y-35550500D01*
X94046146Y-35550499D01*
X94135288Y-35526614D01*
X94215212Y-35480469D01*
X94280469Y-35415212D01*
X94326614Y-35335288D01*
X94350499Y-35246146D01*
X94350500Y-35246146D01*
X94350500Y-35153854D01*
X94350499Y-35153853D01*
X94326615Y-35064715D01*
X94326613Y-35064710D01*
X94280471Y-34984791D01*
X94280470Y-34984790D01*
X94280469Y-34984788D01*
X94215212Y-34919531D01*
X94215209Y-34919529D01*
X94215208Y-34919528D01*
X94135289Y-34873386D01*
X94135284Y-34873384D01*
X94046146Y-34849500D01*
X94046144Y-34849500D01*
X93976706Y-34849500D01*
X93924380Y-34827826D01*
X93902706Y-34775500D01*
X93924380Y-34723174D01*
X93937335Y-34712843D01*
X93983381Y-34683909D01*
X94049248Y-34642523D01*
X94268825Y-34467416D01*
X94467416Y-34268825D01*
X94642523Y-34049248D01*
X94791945Y-33811445D01*
X94913801Y-33558408D01*
X95006560Y-33293318D01*
X95038392Y-33153853D01*
X101049500Y-33153853D01*
X101049500Y-33246146D01*
X101073384Y-33335284D01*
X101073386Y-33335289D01*
X101119528Y-33415208D01*
X101119529Y-33415209D01*
X101119531Y-33415212D01*
X101184788Y-33480469D01*
X101184790Y-33480470D01*
X101184791Y-33480471D01*
X101199314Y-33488856D01*
X101264712Y-33526614D01*
X101264713Y-33526614D01*
X101264715Y-33526615D01*
X101309284Y-33538557D01*
X101353853Y-33550499D01*
X101353854Y-33550500D01*
X101353856Y-33550500D01*
X101446146Y-33550500D01*
X101446146Y-33550499D01*
X101535288Y-33526614D01*
X101615212Y-33480469D01*
X101680469Y-33415212D01*
X101726614Y-33335288D01*
X101750499Y-33246146D01*
X101750500Y-33246146D01*
X101750500Y-33153854D01*
X101750499Y-33153853D01*
X101746347Y-33138359D01*
X101726614Y-33064712D01*
X101722991Y-33058437D01*
X101680471Y-32984791D01*
X101680470Y-32984790D01*
X101680469Y-32984788D01*
X101615212Y-32919531D01*
X101615209Y-32919529D01*
X101615208Y-32919528D01*
X101535289Y-32873386D01*
X101535284Y-32873384D01*
X101446146Y-32849500D01*
X101446144Y-32849500D01*
X101353856Y-32849500D01*
X101353854Y-32849500D01*
X101264715Y-32873384D01*
X101264710Y-32873386D01*
X101184791Y-32919528D01*
X101119528Y-32984791D01*
X101073386Y-33064710D01*
X101073384Y-33064715D01*
X101049500Y-33153853D01*
X95038392Y-33153853D01*
X95041928Y-33138361D01*
X95043257Y-33132539D01*
X95043257Y-33132538D01*
X95045914Y-33120895D01*
X95069055Y-33019509D01*
X95100500Y-32740425D01*
X95100500Y-32459575D01*
X95069055Y-32180491D01*
X95057779Y-32131088D01*
X95006562Y-31906690D01*
X95006557Y-31906674D01*
X94997387Y-31880469D01*
X94913801Y-31641592D01*
X94871548Y-31553853D01*
X98249500Y-31553853D01*
X98249500Y-31646146D01*
X98273384Y-31735284D01*
X98273386Y-31735289D01*
X98319528Y-31815208D01*
X98319529Y-31815209D01*
X98319531Y-31815212D01*
X98384788Y-31880469D01*
X98384790Y-31880470D01*
X98384791Y-31880471D01*
X98430189Y-31906682D01*
X98464712Y-31926614D01*
X98464713Y-31926614D01*
X98464715Y-31926615D01*
X98509284Y-31938557D01*
X98553853Y-31950499D01*
X98553854Y-31950500D01*
X98553856Y-31950500D01*
X98646146Y-31950500D01*
X98646146Y-31950499D01*
X98735288Y-31926614D01*
X98815212Y-31880469D01*
X98880469Y-31815212D01*
X98926614Y-31735288D01*
X98950499Y-31646146D01*
X98950500Y-31646146D01*
X98950500Y-31553854D01*
X98950499Y-31553853D01*
X98926615Y-31464715D01*
X98926613Y-31464710D01*
X98880471Y-31384791D01*
X98880470Y-31384790D01*
X98880469Y-31384788D01*
X98815212Y-31319531D01*
X98815209Y-31319529D01*
X98815208Y-31319528D01*
X98735289Y-31273386D01*
X98735284Y-31273384D01*
X98646146Y-31249500D01*
X98646144Y-31249500D01*
X98553856Y-31249500D01*
X98553854Y-31249500D01*
X98464715Y-31273384D01*
X98464710Y-31273386D01*
X98384791Y-31319528D01*
X98319528Y-31384791D01*
X98273386Y-31464710D01*
X98273384Y-31464715D01*
X98249500Y-31553853D01*
X94871548Y-31553853D01*
X94791945Y-31388555D01*
X94642523Y-31150752D01*
X94467416Y-30931175D01*
X94268825Y-30732584D01*
X94259573Y-30725206D01*
X94259572Y-30725205D01*
X97443986Y-30725205D01*
X97443986Y-30817498D01*
X97467870Y-30906636D01*
X97467872Y-30906641D01*
X97514014Y-30986560D01*
X97514015Y-30986561D01*
X97514017Y-30986564D01*
X97579274Y-31051821D01*
X97659198Y-31097966D01*
X97659199Y-31097966D01*
X97659201Y-31097967D01*
X97703770Y-31109909D01*
X97748339Y-31121851D01*
X97748340Y-31121852D01*
X97748342Y-31121852D01*
X97840632Y-31121852D01*
X97840632Y-31121851D01*
X97929774Y-31097966D01*
X98009698Y-31051821D01*
X98074955Y-30986564D01*
X98121100Y-30906640D01*
X98144985Y-30817498D01*
X98144986Y-30817498D01*
X98144986Y-30725206D01*
X98144985Y-30725205D01*
X98121101Y-30636067D01*
X98121099Y-30636062D01*
X98074957Y-30556143D01*
X98074956Y-30556142D01*
X98074955Y-30556140D01*
X98009698Y-30490883D01*
X98009695Y-30490881D01*
X98009694Y-30490880D01*
X97929775Y-30444738D01*
X97929770Y-30444736D01*
X97840632Y-30420852D01*
X97840630Y-30420852D01*
X97748342Y-30420852D01*
X97748340Y-30420852D01*
X97659201Y-30444736D01*
X97659196Y-30444738D01*
X97579277Y-30490880D01*
X97514014Y-30556143D01*
X97467872Y-30636062D01*
X97467870Y-30636067D01*
X97443986Y-30725205D01*
X94259572Y-30725205D01*
X94049248Y-30557477D01*
X94011657Y-30533857D01*
X93811445Y-30408055D01*
X93811444Y-30408054D01*
X93811440Y-30408052D01*
X93672561Y-30341172D01*
X93634821Y-30298941D01*
X93637996Y-30242393D01*
X93680227Y-30204653D01*
X93704668Y-30200500D01*
X104460118Y-30200500D01*
X106925500Y-30200500D01*
X106977826Y-30222174D01*
G37*
%TD.AperFunction*%
%TD*%
%TA.AperFunction,Conductor*%
%TO.N,V_LIPO*%
G36*
X97827691Y-56546529D02*
G01*
X97863655Y-56596029D01*
X97868500Y-56626622D01*
X97868500Y-57417487D01*
X97849593Y-57475678D01*
X97839503Y-57487491D01*
X97539366Y-57787626D01*
X97539367Y-57787627D01*
X97539366Y-57787628D01*
X97539365Y-57787627D01*
X97474524Y-57852469D01*
X97465861Y-57873385D01*
X97439433Y-57937187D01*
X97439433Y-58040409D01*
X97439434Y-58040418D01*
X97439434Y-59177759D01*
X97420527Y-59235950D01*
X97410439Y-59247761D01*
X97389463Y-59268737D01*
X97343321Y-59348657D01*
X97343320Y-59348659D01*
X97343320Y-59348660D01*
X97319434Y-59437804D01*
X97319434Y-59530092D01*
X97322612Y-59541952D01*
X97343321Y-59619238D01*
X97369049Y-59663800D01*
X97389465Y-59699160D01*
X97454722Y-59764417D01*
X97454724Y-59764418D01*
X97454725Y-59764419D01*
X97459441Y-59768038D01*
X97494096Y-59818463D01*
X97492493Y-59879628D01*
X97469178Y-59916580D01*
X97460143Y-59925614D01*
X97460140Y-59925618D01*
X97413998Y-60005538D01*
X97413997Y-60005540D01*
X97413997Y-60005541D01*
X97390111Y-60094685D01*
X97390111Y-60186973D01*
X97413997Y-60276117D01*
X97460142Y-60356041D01*
X97525399Y-60421298D01*
X97605323Y-60467443D01*
X97694467Y-60491329D01*
X97694469Y-60491329D01*
X97786753Y-60491329D01*
X97786755Y-60491329D01*
X97875899Y-60467443D01*
X97955823Y-60421298D01*
X98021080Y-60356041D01*
X98067225Y-60276117D01*
X98091111Y-60186973D01*
X98091111Y-60094685D01*
X98067225Y-60005541D01*
X98021080Y-59925617D01*
X97955823Y-59860360D01*
X97955820Y-59860358D01*
X97955817Y-59860355D01*
X97951102Y-59856737D01*
X97916448Y-59806311D01*
X97918052Y-59745147D01*
X97941369Y-59708193D01*
X97950403Y-59699160D01*
X97996548Y-59619236D01*
X98020434Y-59530092D01*
X98020434Y-59437804D01*
X97996548Y-59348660D01*
X97950403Y-59268736D01*
X97945698Y-59264031D01*
X97929429Y-59247761D01*
X97901653Y-59193244D01*
X97900434Y-59177759D01*
X97900434Y-58638409D01*
X97919341Y-58580218D01*
X97968841Y-58544254D01*
X98025055Y-58542783D01*
X98053856Y-58550500D01*
X98053857Y-58550500D01*
X98146142Y-58550500D01*
X98146144Y-58550500D01*
X98235288Y-58526614D01*
X98315212Y-58480469D01*
X98380469Y-58415212D01*
X98426614Y-58335288D01*
X98450500Y-58246144D01*
X98450500Y-58153856D01*
X98426614Y-58064712D01*
X98380469Y-57984788D01*
X98315212Y-57919531D01*
X98263408Y-57889621D01*
X98262067Y-57888789D01*
X98243293Y-57866551D01*
X98231862Y-57853856D01*
X99849500Y-57853856D01*
X99849500Y-57946144D01*
X99873386Y-58035288D01*
X99873387Y-58035290D01*
X99890372Y-58064709D01*
X99919531Y-58115212D01*
X99984788Y-58180469D01*
X100064712Y-58226614D01*
X100153856Y-58250500D01*
X100153858Y-58250500D01*
X100246142Y-58250500D01*
X100246144Y-58250500D01*
X100335288Y-58226614D01*
X100415212Y-58180469D01*
X100480469Y-58115212D01*
X100526614Y-58035288D01*
X100550500Y-57946144D01*
X100550500Y-57853856D01*
X100526614Y-57764712D01*
X100480469Y-57684788D01*
X100415212Y-57619531D01*
X100397519Y-57609316D01*
X100335290Y-57573387D01*
X100335289Y-57573386D01*
X100335288Y-57573386D01*
X100246144Y-57549500D01*
X100153856Y-57549500D01*
X100064712Y-57573386D01*
X100064711Y-57573386D01*
X100064709Y-57573387D01*
X99984790Y-57619529D01*
X99919529Y-57684790D01*
X99873387Y-57764709D01*
X99873386Y-57764711D01*
X99873386Y-57764712D01*
X99849500Y-57853856D01*
X98231862Y-57853856D01*
X98223837Y-57844943D01*
X98223664Y-57843300D01*
X98222598Y-57842037D01*
X98220481Y-57813018D01*
X98217441Y-57784092D01*
X98218261Y-57782581D01*
X98218147Y-57781013D01*
X98225858Y-57768588D01*
X98244273Y-57734674D01*
X98294409Y-57684539D01*
X98321336Y-57619531D01*
X98329501Y-57599820D01*
X98329501Y-57508121D01*
X98329500Y-57508118D01*
X98329500Y-56626622D01*
X98348407Y-56568431D01*
X98397907Y-56532467D01*
X98428500Y-56527622D01*
X99893058Y-56527622D01*
X99951249Y-56546529D01*
X99987213Y-56596029D01*
X99988685Y-56652244D01*
X99976094Y-56699235D01*
X99976094Y-56791523D01*
X99999980Y-56880667D01*
X99999981Y-56880669D01*
X100000883Y-56882232D01*
X100046125Y-56960591D01*
X100111382Y-57025848D01*
X100191306Y-57071993D01*
X100280450Y-57095879D01*
X100280452Y-57095879D01*
X100372736Y-57095879D01*
X100372738Y-57095879D01*
X100461882Y-57071993D01*
X100541806Y-57025848D01*
X100607063Y-56960591D01*
X100653208Y-56880667D01*
X100677094Y-56791523D01*
X100677094Y-56699235D01*
X100664503Y-56652244D01*
X100667706Y-56591143D01*
X100706211Y-56543593D01*
X100760130Y-56527622D01*
X102099073Y-56527622D01*
X102157264Y-56546529D01*
X102193228Y-56596029D01*
X102194205Y-56654025D01*
X102193439Y-56656681D01*
X102130944Y-56930492D01*
X102099500Y-57209573D01*
X102099500Y-57462673D01*
X102080593Y-57520864D01*
X102031093Y-57556828D01*
X101969907Y-57556828D01*
X101920407Y-57520864D01*
X101909036Y-57500558D01*
X101906615Y-57494714D01*
X101895625Y-57475678D01*
X101860469Y-57414788D01*
X101795212Y-57349531D01*
X101785869Y-57344137D01*
X101715290Y-57303387D01*
X101715289Y-57303386D01*
X101715288Y-57303386D01*
X101626144Y-57279500D01*
X101533856Y-57279500D01*
X101444712Y-57303386D01*
X101444711Y-57303386D01*
X101444709Y-57303387D01*
X101364790Y-57349529D01*
X101299529Y-57414790D01*
X101253387Y-57494709D01*
X101253386Y-57494711D01*
X101253386Y-57494712D01*
X101229500Y-57583856D01*
X101229500Y-57676144D01*
X101253231Y-57764709D01*
X101253387Y-57765290D01*
X101299375Y-57844943D01*
X101299531Y-57845212D01*
X101364788Y-57910469D01*
X101444712Y-57956614D01*
X101533856Y-57980500D01*
X101533858Y-57980500D01*
X101626142Y-57980500D01*
X101626144Y-57980500D01*
X101715288Y-57956614D01*
X101795212Y-57910469D01*
X101860469Y-57845212D01*
X101906614Y-57765288D01*
X101928782Y-57682555D01*
X101962105Y-57631243D01*
X102019227Y-57609316D01*
X102078327Y-57625151D01*
X102116832Y-57672701D01*
X102122786Y-57697096D01*
X102130944Y-57769507D01*
X102193440Y-58043319D01*
X102286198Y-58308406D01*
X102286199Y-58308409D01*
X102408047Y-58561430D01*
X102408051Y-58561437D01*
X102408055Y-58561445D01*
X102557477Y-58799248D01*
X102732584Y-59018825D01*
X102931175Y-59217416D01*
X103150752Y-59392523D01*
X103388555Y-59541945D01*
X103388566Y-59541950D01*
X103388569Y-59541952D01*
X103549052Y-59619236D01*
X103641592Y-59663801D01*
X103906682Y-59756560D01*
X104180491Y-59819055D01*
X104459575Y-59850500D01*
X104459576Y-59850500D01*
X104501000Y-59850500D01*
X104559191Y-59869407D01*
X104595155Y-59918907D01*
X104600000Y-59949500D01*
X104600000Y-61577937D01*
X104581093Y-61636128D01*
X104550505Y-61663671D01*
X104543597Y-61667659D01*
X104478343Y-61732914D01*
X104478341Y-61732916D01*
X104432199Y-61812836D01*
X104408311Y-61901985D01*
X104407465Y-61908417D01*
X104405966Y-61908219D01*
X104389405Y-61959191D01*
X104339905Y-61995155D01*
X104309312Y-62000000D01*
X98000000Y-62000000D01*
X98000000Y-62000001D01*
X98000000Y-62730081D01*
X97981093Y-62788272D01*
X97950501Y-62815817D01*
X97874790Y-62859529D01*
X97809529Y-62924790D01*
X97763387Y-63004709D01*
X97763386Y-63004711D01*
X97763386Y-63004712D01*
X97752159Y-63046614D01*
X97739500Y-63093857D01*
X97739500Y-63101000D01*
X97720593Y-63159191D01*
X97671093Y-63195155D01*
X97640500Y-63200000D01*
X95499000Y-63200000D01*
X95440809Y-63181093D01*
X95404845Y-63131593D01*
X95400000Y-63101000D01*
X95400000Y-62022502D01*
X95401219Y-62007014D01*
X95403098Y-61995155D01*
X95410500Y-61948417D01*
X95410500Y-61751583D01*
X95410500Y-61751579D01*
X95401219Y-61692983D01*
X95400000Y-61677496D01*
X95400000Y-61103856D01*
X98849500Y-61103856D01*
X98849500Y-61196144D01*
X98873386Y-61285288D01*
X98919531Y-61365212D01*
X98984788Y-61430469D01*
X99064712Y-61476614D01*
X99153856Y-61500500D01*
X99153858Y-61500500D01*
X99246142Y-61500500D01*
X99246144Y-61500500D01*
X99335288Y-61476614D01*
X99415212Y-61430469D01*
X99480469Y-61365212D01*
X99526614Y-61285288D01*
X99550500Y-61196144D01*
X99550500Y-61103856D01*
X99537103Y-61053856D01*
X101449500Y-61053856D01*
X101449500Y-61146144D01*
X101473386Y-61235288D01*
X101519531Y-61315212D01*
X101584788Y-61380469D01*
X101664712Y-61426614D01*
X101753856Y-61450500D01*
X101753858Y-61450500D01*
X101846142Y-61450500D01*
X101846144Y-61450500D01*
X101935288Y-61426614D01*
X102015212Y-61380469D01*
X102080469Y-61315212D01*
X102126614Y-61235288D01*
X102150500Y-61146144D01*
X102150500Y-61053856D01*
X102126614Y-60964712D01*
X102120346Y-60953856D01*
X102749500Y-60953856D01*
X102749500Y-61046144D01*
X102773386Y-61135288D01*
X102773387Y-61135290D01*
X102808520Y-61196142D01*
X102819531Y-61215212D01*
X102884788Y-61280469D01*
X102964712Y-61326614D01*
X103053856Y-61350500D01*
X103053858Y-61350500D01*
X103146142Y-61350500D01*
X103146144Y-61350500D01*
X103235288Y-61326614D01*
X103315212Y-61280469D01*
X103380469Y-61215212D01*
X103426614Y-61135288D01*
X103450500Y-61046144D01*
X103450500Y-60953856D01*
X103426614Y-60864712D01*
X103380469Y-60784788D01*
X103315212Y-60719531D01*
X103235288Y-60673386D01*
X103146144Y-60649500D01*
X103053856Y-60649500D01*
X102964712Y-60673386D01*
X102964711Y-60673386D01*
X102964709Y-60673387D01*
X102884790Y-60719529D01*
X102819529Y-60784790D01*
X102773387Y-60864709D01*
X102773386Y-60864711D01*
X102773386Y-60864712D01*
X102749500Y-60953856D01*
X102120346Y-60953856D01*
X102080469Y-60884788D01*
X102015212Y-60819531D01*
X101955036Y-60784788D01*
X101935290Y-60773387D01*
X101935289Y-60773386D01*
X101935288Y-60773386D01*
X101846144Y-60749500D01*
X101753856Y-60749500D01*
X101664712Y-60773386D01*
X101664711Y-60773386D01*
X101664709Y-60773387D01*
X101584790Y-60819529D01*
X101519529Y-60884790D01*
X101473387Y-60964709D01*
X101473387Y-60964710D01*
X101473386Y-60964712D01*
X101449500Y-61053856D01*
X99537103Y-61053856D01*
X99526614Y-61014712D01*
X99480469Y-60934788D01*
X99415212Y-60869531D01*
X99406865Y-60864712D01*
X99335290Y-60823387D01*
X99335289Y-60823386D01*
X99335288Y-60823386D01*
X99246144Y-60799500D01*
X99153856Y-60799500D01*
X99064712Y-60823386D01*
X99064711Y-60823386D01*
X99064709Y-60823387D01*
X98984790Y-60869529D01*
X98919529Y-60934790D01*
X98873387Y-61014709D01*
X98873386Y-61014711D01*
X98873386Y-61014712D01*
X98849500Y-61103856D01*
X95400000Y-61103856D01*
X95400000Y-60231146D01*
X95781799Y-60231146D01*
X95781799Y-60323434D01*
X95805685Y-60412578D01*
X95805686Y-60412580D01*
X95851152Y-60491329D01*
X95851830Y-60492502D01*
X95917087Y-60557759D01*
X95997011Y-60603904D01*
X96086155Y-60627790D01*
X96086157Y-60627790D01*
X96178441Y-60627790D01*
X96178443Y-60627790D01*
X96267587Y-60603904D01*
X96347511Y-60557759D01*
X96412768Y-60492502D01*
X96458913Y-60412578D01*
X96482799Y-60323434D01*
X96482799Y-60231146D01*
X96458913Y-60142002D01*
X96412768Y-60062078D01*
X96347511Y-59996821D01*
X96267587Y-59950676D01*
X96178443Y-59926790D01*
X96086155Y-59926790D01*
X95997011Y-59950676D01*
X95997010Y-59950676D01*
X95997008Y-59950677D01*
X95917089Y-59996819D01*
X95851828Y-60062080D01*
X95805686Y-60141999D01*
X95805685Y-60142001D01*
X95805685Y-60142002D01*
X95781799Y-60231146D01*
X95400000Y-60231146D01*
X95400000Y-59251871D01*
X95418907Y-59193680D01*
X95428990Y-59181873D01*
X95468129Y-59142735D01*
X95514274Y-59062811D01*
X95538160Y-58973667D01*
X95538160Y-58881379D01*
X95534411Y-58867387D01*
X95789426Y-58867387D01*
X95789426Y-58959675D01*
X95813312Y-59048819D01*
X95813313Y-59048821D01*
X95821391Y-59062813D01*
X95859457Y-59128743D01*
X95924714Y-59194000D01*
X96004638Y-59240145D01*
X96093782Y-59264031D01*
X96093784Y-59264031D01*
X96186068Y-59264031D01*
X96186070Y-59264031D01*
X96275214Y-59240145D01*
X96355138Y-59194000D01*
X96420395Y-59128743D01*
X96466540Y-59048819D01*
X96490426Y-58959675D01*
X96490426Y-58867387D01*
X96466540Y-58778243D01*
X96420395Y-58698319D01*
X96355138Y-58633062D01*
X96299448Y-58600909D01*
X96275216Y-58586918D01*
X96275215Y-58586917D01*
X96275214Y-58586917D01*
X96186070Y-58563031D01*
X96093782Y-58563031D01*
X96004638Y-58586917D01*
X96004637Y-58586917D01*
X96004635Y-58586918D01*
X95924716Y-58633060D01*
X95859455Y-58698321D01*
X95813313Y-58778240D01*
X95813312Y-58778242D01*
X95813312Y-58778243D01*
X95789426Y-58867387D01*
X95534411Y-58867387D01*
X95514274Y-58792235D01*
X95468129Y-58712311D01*
X95428994Y-58673176D01*
X95401219Y-58618662D01*
X95400000Y-58603175D01*
X95400000Y-57341871D01*
X95418907Y-57283680D01*
X95428990Y-57271873D01*
X95468129Y-57232735D01*
X95514274Y-57152811D01*
X95538160Y-57063667D01*
X95538160Y-56971379D01*
X95514274Y-56882235D01*
X95468129Y-56802311D01*
X95428994Y-56763176D01*
X95425369Y-56756061D01*
X95418907Y-56751366D01*
X95411743Y-56729317D01*
X95401219Y-56708662D01*
X95400000Y-56693175D01*
X95400000Y-56626622D01*
X95418907Y-56568431D01*
X95468407Y-56532467D01*
X95499000Y-56527622D01*
X97769500Y-56527622D01*
X97827691Y-56546529D01*
G37*
%TD.AperFunction*%
%TD*%
M02*
