%TF.GenerationSoftware,KiCad,Pcbnew,9.0.7*%
%TF.CreationDate,2026-02-19T22:00:42-05:00*%
%TF.ProjectId,OshEasyMini,4f736845-6173-4794-9d69-6e692e6b6963,rev?*%
%TF.SameCoordinates,Original*%
%TF.FileFunction,Copper,L4,Inr*%
%TF.FilePolarity,Positive*%
%FSLAX46Y46*%
G04 Gerber Fmt 4.6, Leading zero omitted, Abs format (unit mm)*
G04 Created by KiCad (PCBNEW 9.0.7) date 2026-02-19 22:00:42*
%MOMM*%
%LPD*%
G01*
G04 APERTURE LIST*
G04 Aperture macros list*
%AMRoundRect*
0 Rectangle with rounded corners*
0 $1 Rounding radius*
0 $2 $3 $4 $5 $6 $7 $8 $9 X,Y pos of 4 corners*
0 Add a 4 corners polygon primitive as box body*
4,1,4,$2,$3,$4,$5,$6,$7,$8,$9,$2,$3,0*
0 Add four circle primitives for the rounded corners*
1,1,$1+$1,$2,$3*
1,1,$1+$1,$4,$5*
1,1,$1+$1,$6,$7*
1,1,$1+$1,$8,$9*
0 Add four rect primitives between the rounded corners*
20,1,$1+$1,$2,$3,$4,$5,0*
20,1,$1+$1,$4,$5,$6,$7,0*
20,1,$1+$1,$6,$7,$8,$9,0*
20,1,$1+$1,$8,$9,$2,$3,0*%
G04 Aperture macros list end*
%TA.AperFunction,ComponentPad*%
%ADD10RoundRect,0.249999X-0.850001X-0.850001X0.850001X-0.850001X0.850001X0.850001X-0.850001X0.850001X0*%
%TD*%
%TA.AperFunction,ComponentPad*%
%ADD11C,2.200000*%
%TD*%
%TA.AperFunction,ComponentPad*%
%ADD12RoundRect,0.250000X0.350000X0.625000X-0.350000X0.625000X-0.350000X-0.625000X0.350000X-0.625000X0*%
%TD*%
%TA.AperFunction,ComponentPad*%
%ADD13O,1.200000X1.750000*%
%TD*%
%TA.AperFunction,ComponentPad*%
%ADD14C,4.700000*%
%TD*%
%TA.AperFunction,ViaPad*%
%ADD15C,0.400000*%
%TD*%
%TA.AperFunction,Conductor*%
%ADD16C,0.160000*%
%TD*%
%TA.AperFunction,Conductor*%
%ADD17C,0.156500*%
%TD*%
G04 APERTURE END LIST*
D10*
%TO.N,/FET_B*%
%TO.C,J4*%
X91620000Y-61850000D03*
D11*
%TO.N,/FET_A*%
X94160000Y-61850000D03*
%TO.N,V_LIPO*%
X96700000Y-61850000D03*
%TD*%
D12*
%TO.N,V_CHARGE*%
%TO.C,J6*%
X103180000Y-63250000D03*
D13*
%TO.N,GND*%
X101180000Y-63250000D03*
%TD*%
D14*
%TO.N,unconnected-(H2-Pad1)*%
%TO.C,H2*%
X92600000Y-32600000D03*
%TD*%
%TO.N,unconnected-(H1-Pad1)*%
%TO.C,H1*%
X104600000Y-57350000D03*
%TD*%
D15*
%TO.N,GND*%
X104600000Y-50200000D03*
X90610352Y-48518702D03*
X100326594Y-56745379D03*
X106100000Y-47600000D03*
X102438025Y-46363215D03*
X101225000Y-42700000D03*
X92400000Y-54050000D03*
X97960000Y-64690000D03*
X103100000Y-61000000D03*
X90575000Y-56425000D03*
X104330476Y-38454400D03*
X106700000Y-50250000D03*
X96370000Y-52480000D03*
X91304541Y-53150003D03*
X95661513Y-46940187D03*
X96002985Y-55366247D03*
X92910000Y-63700000D03*
X90400000Y-44900000D03*
X91850000Y-54000000D03*
X97794486Y-30771352D03*
X92150000Y-57425000D03*
X95187660Y-57017523D03*
X100966249Y-38462500D03*
X91088777Y-39514107D03*
X97740611Y-60140829D03*
X100000000Y-40200000D03*
X92804541Y-50100000D03*
X96132299Y-60277290D03*
X94060574Y-38053181D03*
X95300000Y-63900000D03*
X103600000Y-50600000D03*
X96180000Y-50350000D03*
X93010000Y-42120000D03*
X96043070Y-44590231D03*
X94000000Y-35200000D03*
X98100000Y-58200000D03*
X93675000Y-43575000D03*
X97643630Y-56131971D03*
X94910000Y-54120000D03*
X90600000Y-41400000D03*
X94450000Y-56300000D03*
X100714507Y-55961513D03*
X94863261Y-52227954D03*
X92800000Y-51100000D03*
X98600000Y-31600000D03*
X94304541Y-50100000D03*
X94737297Y-53340027D03*
X106500000Y-37900000D03*
X90640000Y-47490000D03*
X106600000Y-59600000D03*
X91000000Y-35200000D03*
X99050000Y-62720000D03*
X101041826Y-37772156D03*
X95255169Y-50967719D03*
X106302829Y-43000000D03*
X99900000Y-49200000D03*
%TO.N,+3V3*%
X96018749Y-41962500D03*
X92900000Y-41500000D03*
X97800000Y-55500000D03*
X106470391Y-36483131D03*
X97400000Y-54750000D03*
X97430000Y-42340000D03*
X97900000Y-54900000D03*
X92120000Y-47740000D03*
X101000000Y-48450000D03*
X103112500Y-45600000D03*
X96414376Y-35765076D03*
X97446249Y-32622500D03*
X102200000Y-41800000D03*
X106600000Y-39100000D03*
X106500000Y-46800000D03*
X100000000Y-52400000D03*
X91728777Y-39514107D03*
X97228341Y-55395349D03*
X96360000Y-46250000D03*
X104300000Y-54400000D03*
X92804541Y-49100000D03*
X91304541Y-52600000D03*
%TO.N,/NRST*%
X94814559Y-50305877D03*
X103431000Y-47950000D03*
X90847399Y-40323378D03*
%TO.N,/RADIO_MARC_ISR*%
X98600000Y-42800000D03*
X91349997Y-40100000D03*
%TO.N,/RADIO_INT*%
X91900000Y-40100000D03*
X98142371Y-43105086D03*
%TO.N,/CS_RADIO*%
X93200000Y-35700000D03*
X101725675Y-40464347D03*
%TO.N,Net-(J3-In)*%
X105856124Y-31919948D03*
X105941802Y-33273649D03*
X106600000Y-34600000D03*
X106600000Y-32000000D03*
X105907531Y-34678756D03*
X106600000Y-33200000D03*
%TO.N,/CS_BARO*%
X97087500Y-45362500D03*
X106300000Y-44000000D03*
%TO.N,VBUS*%
X101580000Y-57630000D03*
X105160000Y-47250000D03*
%TO.N,V_LIPO*%
X100628594Y-59228025D03*
X97089994Y-56826929D03*
X101146466Y-59296567D03*
X101159159Y-58682229D03*
X97042505Y-57362147D03*
X98886855Y-57732299D03*
X104200000Y-60400000D03*
X97113586Y-57869864D03*
X104200000Y-61400000D03*
X98827504Y-57034923D03*
%TO.N,/MGSW_IN*%
X104758812Y-61948127D03*
X103606013Y-51606666D03*
X106600000Y-62600000D03*
%TO.N,/HALL_OUT*%
X103450000Y-53250000D03*
X98745969Y-53591937D03*
%TO.N,Net-(JP1-A)*%
X98230000Y-50090000D03*
X91200000Y-54110000D03*
%TO.N,Net-(D4-A2)*%
X100200000Y-57900000D03*
X106700000Y-51100000D03*
X99200000Y-61150000D03*
%TO.N,Net-(D4-A1)*%
X106640000Y-52540000D03*
X101800000Y-61100000D03*
%TO.N,Net-(D4-K1)*%
X98090000Y-63140000D03*
X106600000Y-54300000D03*
%TO.N,/SWDIO*%
X103000000Y-49100000D03*
%TO.N,/SWCLK*%
X97680096Y-50100376D03*
X103950000Y-48300000D03*
%TO.N,Net-(Q1-G)*%
X104400000Y-62600000D03*
%TO.N,Net-(Q2-D)*%
X92400000Y-52600000D03*
X106620000Y-61950000D03*
%TO.N,/SENSE_A*%
X100900000Y-40200000D03*
X95187660Y-58927523D03*
%TO.N,/SENSE_B*%
X90614999Y-58700000D03*
X102200000Y-36700000D03*
%TO.N,/FIRE_A*%
X96139926Y-58913531D03*
X90680900Y-42857354D03*
%TO.N,/GATE_A*%
X93893463Y-56783325D03*
%TO.N,/FIRE_B*%
X90437765Y-42364011D03*
X91950000Y-54675000D03*
%TO.N,/GATE_B*%
X91800000Y-55600000D03*
%TO.N,/CMP_RAIL*%
X94381052Y-57369669D03*
X91365000Y-56740000D03*
%TO.N,/V_BATT*%
X97669934Y-59483948D03*
X102333581Y-39666605D03*
%TO.N,/USB_D+*%
X92959998Y-46430002D03*
%TO.N,/USB_D-*%
X93483378Y-46260956D03*
%TO.N,/AC_INT1*%
X98400000Y-44650000D03*
X103100000Y-40500000D03*
%TO.N,/SCK0*%
X101848255Y-41235281D03*
X104200000Y-36399999D03*
X105784060Y-41314842D03*
%TO.N,/MISO0*%
X101207465Y-41107465D03*
X103000000Y-37100000D03*
%TO.N,/CS_ACCEL*%
X104200000Y-40400000D03*
X101800000Y-39800000D03*
%TO.N,/MOSI0*%
X103300000Y-36500000D03*
X98441173Y-42273429D03*
%TO.N,/AC_INT2*%
X97200000Y-44300000D03*
X103200000Y-39600000D03*
%TO.N,/SCK3*%
X94940000Y-45320000D03*
X102300000Y-44000000D03*
%TO.N,/MISO3*%
X92890000Y-43020000D03*
X105100000Y-44000000D03*
%TO.N,/MOSI3*%
X103200000Y-46300000D03*
X90400000Y-45750003D03*
%TO.N,/TX1*%
X90620000Y-51020000D03*
X97200000Y-46800000D03*
%TO.N,/RX1*%
X92299837Y-49592432D03*
X97200000Y-46250000D03*
%TO.N,/MISO5*%
X98680000Y-48820000D03*
X92440000Y-35520000D03*
%TO.N,/MOSI5*%
X90688727Y-36306236D03*
X92862983Y-47685922D03*
%TO.N,/SCK5*%
X93682060Y-46796135D03*
X91394998Y-36265002D03*
%TO.N,/CS_FLASH*%
X101700000Y-52300000D03*
X95574034Y-46315745D03*
%TO.N,/BUZZ*%
X101400000Y-33200000D03*
X90609651Y-40850082D03*
%TO.N,Net-(J10-Pin_2)*%
X105200000Y-42800000D03*
%TO.N,Net-(J10-Pin_1)*%
X105690776Y-43048276D03*
%TO.N,Net-(U1-V_BCKP)*%
X98918131Y-64485309D03*
X92634973Y-48576789D03*
X100771675Y-47427018D03*
X105989336Y-47004266D03*
%TO.N,Net-(U1-VCC_RF)*%
X93800000Y-52600000D03*
X95854545Y-51000000D03*
%TD*%
D16*
%TO.N,/NRST*%
X102928583Y-52050054D02*
X101986637Y-52992000D01*
X103512000Y-47869000D02*
X104128527Y-47869000D01*
X105031000Y-50378527D02*
X104378527Y-51031000D01*
X105031000Y-48771473D02*
X105031000Y-50378527D01*
X95201436Y-49919000D02*
X94814559Y-50305877D01*
X99431527Y-52992000D02*
X96358527Y-49919000D01*
X104378527Y-51031000D02*
X102928583Y-51031000D01*
X101986637Y-52992000D02*
X99431527Y-52992000D01*
X102928583Y-51031000D02*
X102928583Y-52050054D01*
X104128527Y-47869000D02*
X105031000Y-48771473D01*
X103431000Y-47950000D02*
X103512000Y-47869000D01*
X96358527Y-49919000D02*
X95201436Y-49919000D01*
%TO.N,/RADIO_MARC_ISR*%
X91721473Y-40531000D02*
X91349997Y-40159524D01*
X96886086Y-43536086D02*
X93881000Y-40531000D01*
X91349997Y-40159524D02*
X91349997Y-40100000D01*
X98600000Y-43256984D02*
X98320898Y-43536086D01*
X98600000Y-42800000D02*
X98600000Y-43256984D01*
X93881000Y-40531000D02*
X91721473Y-40531000D01*
X98320898Y-43536086D02*
X96886086Y-43536086D01*
%TO.N,/RADIO_INT*%
X98010173Y-42160173D02*
X95950000Y-40100000D01*
X98010173Y-42451956D02*
X98010173Y-42160173D01*
X98142371Y-42584154D02*
X98010173Y-42451956D01*
X95950000Y-40100000D02*
X91900000Y-40100000D01*
X98142371Y-43105086D02*
X98142371Y-42584154D01*
%TO.N,/CS_RADIO*%
X94810313Y-35189687D02*
X94810313Y-34589687D01*
X93200000Y-35700000D02*
X94300000Y-35700000D01*
X101652549Y-39369000D02*
X101621473Y-39369000D01*
X94810313Y-34589687D02*
X98391000Y-31009000D01*
X103731000Y-38269000D02*
X103092000Y-38908000D01*
X102113549Y-38908000D02*
X101652549Y-39369000D01*
X103731000Y-32391473D02*
X103731000Y-38269000D01*
X94300000Y-35700000D02*
X94810313Y-35189687D01*
X102348527Y-31009000D02*
X103731000Y-32391473D01*
X101621473Y-39369000D02*
X101369000Y-39621473D01*
X103092000Y-38908000D02*
X102113549Y-38908000D01*
X101369000Y-40107672D02*
X101725675Y-40464347D01*
X98391000Y-31009000D02*
X102348527Y-31009000D01*
X101369000Y-39621473D02*
X101369000Y-40107672D01*
%TO.N,/CS_BARO*%
X97264000Y-45539000D02*
X100139000Y-45539000D01*
X103678527Y-47191000D02*
X106300000Y-44569527D01*
X101791000Y-47191000D02*
X103678527Y-47191000D01*
X97087500Y-45362500D02*
X97264000Y-45539000D01*
X106300000Y-44569527D02*
X106300000Y-44000000D01*
X100139000Y-45539000D02*
X101791000Y-47191000D01*
%TO.N,/MGSW_IN*%
X99769000Y-56211000D02*
X103606013Y-52373987D01*
X102038600Y-61948127D02*
X99769000Y-59678527D01*
X104758812Y-61948127D02*
X102038600Y-61948127D01*
X103606013Y-52373987D02*
X103606013Y-51606666D01*
X99769000Y-59678527D02*
X99769000Y-56211000D01*
%TO.N,Net-(D4-A2)*%
X100200000Y-57900000D02*
X100200000Y-57521363D01*
X106621363Y-51100000D02*
X106700000Y-51100000D01*
X100200000Y-57521363D02*
X106621363Y-51100000D01*
%TO.N,Net-(D4-A1)*%
X103869000Y-54221473D02*
X103869000Y-54231000D01*
X106640000Y-53260000D02*
X106400000Y-53500000D01*
X104590473Y-53500000D02*
X103869000Y-54221473D01*
X102069000Y-56031000D02*
X102069000Y-60831000D01*
X106400000Y-53500000D02*
X104590473Y-53500000D01*
X102069000Y-60831000D02*
X101800000Y-61100000D01*
X103869000Y-54231000D02*
X102069000Y-56031000D01*
X106640000Y-52540000D02*
X106640000Y-53260000D01*
%TO.N,/SWCLK*%
X102131000Y-51459473D02*
X102131000Y-52478527D01*
X101878527Y-52731000D02*
X101480527Y-52731000D01*
X98408527Y-49659000D02*
X98051473Y-49659000D01*
X102131000Y-52478527D02*
X101878527Y-52731000D01*
X101480527Y-52731000D02*
X98408527Y-49659000D01*
X98051473Y-49659000D02*
X97680096Y-50030377D01*
X103950000Y-48300000D02*
X103472700Y-48777300D01*
X103472700Y-48777300D02*
X103472700Y-50117773D01*
X103472700Y-50117773D02*
X102131000Y-51459473D01*
X97680096Y-50030377D02*
X97680096Y-50100376D01*
%TO.N,Net-(Q2-D)*%
X92400000Y-52600000D02*
X92400000Y-52650000D01*
X95800000Y-56000000D02*
X95800000Y-57200000D01*
X102644548Y-64306000D02*
X103715452Y-64306000D01*
X97940501Y-58631000D02*
X101961000Y-62651499D01*
X92400000Y-52600000D02*
X95800000Y-56000000D01*
X95800000Y-57200000D02*
X96978527Y-58378527D01*
X97669000Y-58378527D02*
X97921473Y-58631000D01*
X103721452Y-64300000D02*
X104270000Y-64300000D01*
X101961000Y-62651499D02*
X101961000Y-63622452D01*
X96978527Y-58378527D02*
X97669000Y-58378527D01*
X101961000Y-63622452D02*
X102644548Y-64306000D01*
X97921473Y-58631000D02*
X97940501Y-58631000D01*
X103715452Y-64306000D02*
X103721452Y-64300000D01*
X104270000Y-64300000D02*
X106620000Y-61950000D01*
%TO.N,/CMP_RAIL*%
X91365000Y-56615000D02*
X91365000Y-56740000D01*
%TO.N,/AC_INT1*%
X98524214Y-44650000D02*
X98874214Y-45000000D01*
X106438998Y-43561002D02*
X106800000Y-43200000D01*
X104631000Y-40578527D02*
X104378527Y-40831000D01*
X104378527Y-40831000D02*
X103431000Y-40831000D01*
X106800000Y-43200000D02*
X106800000Y-41200000D01*
X103431000Y-40831000D02*
X103100000Y-40500000D01*
X98400000Y-44650000D02*
X98524214Y-44650000D01*
X104638998Y-43561002D02*
X106438998Y-43561002D01*
X103200000Y-45000000D02*
X104638998Y-43561002D01*
X98874214Y-45000000D02*
X103200000Y-45000000D01*
X106100000Y-40500000D02*
X104700000Y-40500000D01*
X104700000Y-40500000D02*
X104631000Y-40569000D01*
X104631000Y-40569000D02*
X104631000Y-40578527D01*
X106800000Y-41200000D02*
X106100000Y-40500000D01*
%TO.N,/SCK0*%
X105784060Y-41314842D02*
X105690982Y-41407920D01*
X105392080Y-41407920D02*
X105100000Y-41700000D01*
X103000000Y-41700000D02*
X102535281Y-41235281D01*
X105100000Y-41700000D02*
X103000000Y-41700000D01*
X105690982Y-41407920D02*
X105392080Y-41407920D01*
X102535281Y-41235281D02*
X101848255Y-41235281D01*
%TO.N,/MISO0*%
X100469000Y-40378527D02*
X100469000Y-40021473D01*
X101197938Y-41107465D02*
X100469000Y-40378527D01*
X102221659Y-38647000D02*
X103000000Y-37868659D01*
X103000000Y-37868659D02*
X103000000Y-37100000D01*
X100831000Y-39769000D02*
X101953000Y-38647000D01*
X101207465Y-41107465D02*
X101197938Y-41107465D01*
X100721473Y-39769000D02*
X100831000Y-39769000D01*
X100469000Y-40021473D02*
X100721473Y-39769000D01*
X101953000Y-38647000D02*
X102221659Y-38647000D01*
%TO.N,/CS_ACCEL*%
X101800000Y-39590659D02*
X102221659Y-39169000D01*
X101800000Y-39800000D02*
X101800000Y-39590659D01*
X103378527Y-39169000D02*
X104100000Y-39890473D01*
X104100000Y-39890473D02*
X104100000Y-40300000D01*
X102221659Y-39169000D02*
X103378527Y-39169000D01*
X104100000Y-40300000D02*
X104200000Y-40400000D01*
%TO.N,/MOSI0*%
X103069000Y-36269000D02*
X103300000Y-36500000D01*
X101731000Y-36269000D02*
X103069000Y-36269000D01*
X98420000Y-39580000D02*
X101731000Y-36269000D01*
X98441173Y-42273429D02*
X98420000Y-42252256D01*
X98420000Y-42252256D02*
X98420000Y-39580000D01*
%TO.N,/AC_INT2*%
X104921474Y-42369000D02*
X105440592Y-42369000D01*
X104000000Y-43290474D02*
X104921474Y-42369000D01*
X102669000Y-40131000D02*
X103200000Y-39600000D01*
X102121473Y-44431000D02*
X103369000Y-44431000D01*
X101792598Y-44102125D02*
X102121473Y-44431000D01*
X106223145Y-41023145D02*
X105969000Y-40769000D01*
X97590473Y-44300000D02*
X97788348Y-44102125D01*
X97788348Y-44102125D02*
X101792598Y-44102125D01*
X105098473Y-41092000D02*
X103082473Y-41092000D01*
X103369000Y-44431000D02*
X104000000Y-43800000D01*
X97200000Y-44300000D02*
X97590473Y-44300000D01*
X103082473Y-41092000D02*
X102669000Y-40678527D01*
X104000000Y-43800000D02*
X104000000Y-43290474D01*
X105440592Y-42369000D02*
X106223145Y-41586447D01*
X102669000Y-40678527D02*
X102669000Y-40131000D01*
X105421473Y-40769000D02*
X105098473Y-41092000D01*
X105421473Y-40769000D02*
X105969000Y-40769000D01*
X106223145Y-41586447D02*
X106223145Y-41023145D01*
%TO.N,/SCK3*%
X96200000Y-43800000D02*
X94925000Y-45075000D01*
X102300000Y-44000000D02*
X102100000Y-43800000D01*
X102100000Y-43800000D02*
X96200000Y-43800000D01*
X94925000Y-45305000D02*
X94940000Y-45320000D01*
X94925000Y-45075000D02*
X94925000Y-45305000D01*
%TO.N,/MOSI3*%
X90400000Y-45750003D02*
X90400000Y-46350000D01*
X97240473Y-44750000D02*
X97768473Y-45278000D01*
X90400000Y-46350000D02*
X91296215Y-47246215D01*
X94023785Y-47246215D02*
X96520000Y-44750000D01*
X102681500Y-45778527D02*
X102800000Y-45897027D01*
X102800000Y-45897027D02*
X102800000Y-45900000D01*
X102600000Y-45400000D02*
X102681500Y-45481500D01*
X97768473Y-45278000D02*
X100247110Y-45278000D01*
X100247110Y-45278000D02*
X100369110Y-45400000D01*
X96520000Y-44750000D02*
X97240473Y-44750000D01*
X102681500Y-45481500D02*
X102681500Y-45778527D01*
X102800000Y-45900000D02*
X103200000Y-46300000D01*
X100369110Y-45400000D02*
X102600000Y-45400000D01*
X91296215Y-47246215D02*
X94023785Y-47246215D01*
%TO.N,/TX1*%
X93100000Y-50600000D02*
X91040000Y-50600000D01*
X97200000Y-46800000D02*
X96900000Y-46800000D01*
X91040000Y-50600000D02*
X90620000Y-51020000D01*
X96900000Y-46800000D02*
X93100000Y-50600000D01*
%TO.N,/RX1*%
X96791890Y-46539000D02*
X93680890Y-49650000D01*
X96950224Y-46382919D02*
X96794143Y-46539000D01*
X97067081Y-46382919D02*
X96950224Y-46382919D01*
X92357405Y-49650000D02*
X92299837Y-49592432D01*
X97200000Y-46250000D02*
X97067081Y-46382919D01*
X93680890Y-49650000D02*
X92357405Y-49650000D01*
X96794143Y-46539000D02*
X96791890Y-46539000D01*
%TO.N,/CS_FLASH*%
X96016500Y-45793500D02*
X97033500Y-45793500D01*
X101700000Y-49890473D02*
X101700000Y-52300000D01*
X95574034Y-46315745D02*
X95574034Y-46235966D01*
X95574034Y-46235966D02*
X96016500Y-45793500D01*
X97040000Y-45800000D02*
X97609527Y-45800000D01*
X97033500Y-45793500D02*
X97040000Y-45800000D01*
X97609527Y-45800000D02*
X101700000Y-49890473D01*
%TO.N,/BUZZ*%
X92679375Y-36500000D02*
X90400000Y-38779375D01*
X90400000Y-38779375D02*
X90400000Y-40640431D01*
X101400000Y-32040000D02*
X101400000Y-33200000D01*
X100800000Y-31440000D02*
X99460000Y-31440000D01*
X94400000Y-36500000D02*
X92679375Y-36500000D01*
X90400000Y-40640431D02*
X90609651Y-40850082D01*
X99460000Y-31440000D02*
X94400000Y-36500000D01*
X100800000Y-31440000D02*
X101400000Y-32040000D01*
%TO.N,Net-(U1-V_BCKP)*%
X100821574Y-47377119D02*
X100996584Y-47377119D01*
X101115938Y-47496473D02*
X103844000Y-47496473D01*
X104453527Y-47244000D02*
X105031000Y-47821473D01*
X104096473Y-47244000D02*
X104453527Y-47244000D01*
X100996584Y-47377119D02*
X101115938Y-47496473D01*
X105031000Y-47821473D02*
X105198054Y-47821473D01*
X105198054Y-47821473D02*
X105989336Y-47030191D01*
X100771675Y-47427018D02*
X100821574Y-47377119D01*
X103844000Y-47496473D02*
X104096473Y-47244000D01*
X105989336Y-47030191D02*
X105989336Y-47004266D01*
D17*
%TO.N,Net-(U1-VCC_RF)*%
X95500000Y-51700000D02*
X95854545Y-51345455D01*
X93800000Y-52600000D02*
X93800000Y-52547833D01*
X93800000Y-52547833D02*
X94647833Y-51700000D01*
X95854545Y-51345455D02*
X95854545Y-51000000D01*
X94647833Y-51700000D02*
X95500000Y-51700000D01*
%TD*%
%TA.AperFunction,Conductor*%
%TO.N,GND*%
G36*
X97676826Y-46193275D02*
G01*
X101447826Y-49964275D01*
X101469500Y-50016601D01*
X101469500Y-52004167D01*
X101447827Y-52056492D01*
X101419527Y-52084792D01*
X101372860Y-52165621D01*
X101327927Y-52200099D01*
X101271774Y-52192705D01*
X101256449Y-52180946D01*
X98614344Y-49538841D01*
X98614344Y-49538840D01*
X98603936Y-49528432D01*
X98539095Y-49463591D01*
X98539093Y-49463590D01*
X98539091Y-49463589D01*
X98504003Y-49449055D01*
X98504003Y-49449054D01*
X98454377Y-49428499D01*
X98362677Y-49428499D01*
X98354065Y-49428499D01*
X98354057Y-49428500D01*
X98005623Y-49428500D01*
X97980809Y-49438778D01*
X97920907Y-49463589D01*
X97648886Y-49735610D01*
X97615713Y-49754762D01*
X97544811Y-49773760D01*
X97544806Y-49773762D01*
X97464887Y-49819904D01*
X97399624Y-49885167D01*
X97353482Y-49965086D01*
X97353480Y-49965091D01*
X97329596Y-50054229D01*
X97329596Y-50146522D01*
X97353480Y-50235660D01*
X97353482Y-50235665D01*
X97399624Y-50315584D01*
X97399625Y-50315585D01*
X97399627Y-50315588D01*
X97464884Y-50380845D01*
X97464886Y-50380846D01*
X97464887Y-50380847D01*
X97526838Y-50416615D01*
X97544808Y-50426990D01*
X97544809Y-50426990D01*
X97544811Y-50426991D01*
X97589380Y-50438933D01*
X97633949Y-50450875D01*
X97633950Y-50450876D01*
X97633952Y-50450876D01*
X97726242Y-50450876D01*
X97726242Y-50450875D01*
X97815384Y-50426990D01*
X97895308Y-50380845D01*
X97907911Y-50368241D01*
X97960236Y-50346568D01*
X98010916Y-50367560D01*
X98010947Y-50367521D01*
X98011094Y-50367634D01*
X98012560Y-50368241D01*
X98014788Y-50370469D01*
X98014790Y-50370470D01*
X98014791Y-50370471D01*
X98043496Y-50387044D01*
X98094712Y-50416614D01*
X98094713Y-50416614D01*
X98094715Y-50416615D01*
X98139284Y-50428557D01*
X98183853Y-50440499D01*
X98183854Y-50440500D01*
X98183856Y-50440500D01*
X98276146Y-50440500D01*
X98276146Y-50440499D01*
X98365288Y-50416614D01*
X98445212Y-50370469D01*
X98510469Y-50305212D01*
X98542151Y-50250337D01*
X98587084Y-50215859D01*
X98643237Y-50223252D01*
X98658563Y-50235012D01*
X101058725Y-52635174D01*
X101080399Y-52687500D01*
X101058725Y-52739826D01*
X101006399Y-52761500D01*
X100312832Y-52761500D01*
X100260506Y-52739826D01*
X100238832Y-52687500D01*
X100260505Y-52635175D01*
X100280469Y-52615212D01*
X100326614Y-52535288D01*
X100350499Y-52446146D01*
X100350500Y-52446146D01*
X100350500Y-52353854D01*
X100350499Y-52353853D01*
X100326615Y-52264715D01*
X100326613Y-52264710D01*
X100280471Y-52184791D01*
X100280470Y-52184790D01*
X100280469Y-52184788D01*
X100215212Y-52119531D01*
X100215209Y-52119529D01*
X100215208Y-52119528D01*
X100135289Y-52073386D01*
X100135284Y-52073384D01*
X100046146Y-52049500D01*
X100046144Y-52049500D01*
X99953856Y-52049500D01*
X99953854Y-52049500D01*
X99864715Y-52073384D01*
X99864710Y-52073386D01*
X99784791Y-52119528D01*
X99719528Y-52184791D01*
X99673386Y-52264710D01*
X99673384Y-52264715D01*
X99649500Y-52353853D01*
X99649500Y-52446146D01*
X99673384Y-52535284D01*
X99673386Y-52535289D01*
X99719528Y-52615208D01*
X99719529Y-52615209D01*
X99719531Y-52615212D01*
X99739494Y-52635175D01*
X99761168Y-52687500D01*
X99739494Y-52739826D01*
X99687168Y-52761500D01*
X99557655Y-52761500D01*
X99505329Y-52739826D01*
X96564344Y-49798841D01*
X96564344Y-49798840D01*
X96539264Y-49773760D01*
X96489095Y-49723591D01*
X96489093Y-49723590D01*
X96489091Y-49723589D01*
X96454003Y-49709055D01*
X96454003Y-49709054D01*
X96404377Y-49688499D01*
X96312677Y-49688499D01*
X96304065Y-49688499D01*
X96304057Y-49688500D01*
X95255906Y-49688500D01*
X95255898Y-49688499D01*
X95247286Y-49688499D01*
X95155587Y-49688499D01*
X95116116Y-49704849D01*
X95116115Y-49704849D01*
X95070870Y-49723589D01*
X95006026Y-49788433D01*
X94860757Y-49933703D01*
X94808431Y-49955377D01*
X94768413Y-49955377D01*
X94679274Y-49979261D01*
X94679269Y-49979263D01*
X94599350Y-50025405D01*
X94534087Y-50090668D01*
X94487945Y-50170587D01*
X94487943Y-50170592D01*
X94464059Y-50259730D01*
X94464059Y-50352023D01*
X94487943Y-50441161D01*
X94487945Y-50441166D01*
X94534087Y-50521085D01*
X94534088Y-50521086D01*
X94534090Y-50521089D01*
X94599347Y-50586346D01*
X94679271Y-50632491D01*
X94679272Y-50632491D01*
X94679274Y-50632492D01*
X94723843Y-50644434D01*
X94768412Y-50656376D01*
X94768413Y-50656377D01*
X94768415Y-50656377D01*
X94860705Y-50656377D01*
X94860705Y-50656376D01*
X94949847Y-50632491D01*
X95029771Y-50586346D01*
X95095028Y-50521089D01*
X95141173Y-50441165D01*
X95165058Y-50352023D01*
X95165059Y-50352023D01*
X95165059Y-50312005D01*
X95186733Y-50259679D01*
X95275238Y-50171174D01*
X95327564Y-50149500D01*
X96232399Y-50149500D01*
X96284725Y-50171174D01*
X99231897Y-53118346D01*
X99231900Y-53118350D01*
X99300959Y-53187409D01*
X99300958Y-53187409D01*
X99360864Y-53212221D01*
X99360866Y-53212221D01*
X99374255Y-53217768D01*
X99385676Y-53222500D01*
X99385677Y-53222500D01*
X99385678Y-53222500D01*
X101932167Y-53222500D01*
X101932175Y-53222501D01*
X101940787Y-53222501D01*
X102032487Y-53222501D01*
X102071172Y-53206476D01*
X102082111Y-53201945D01*
X102082113Y-53201944D01*
X102117205Y-53187409D01*
X102182046Y-53122568D01*
X102182046Y-53122567D01*
X102192451Y-53112162D01*
X102192453Y-53112159D01*
X103048742Y-52255870D01*
X103048745Y-52255868D01*
X103059150Y-52245463D01*
X103059151Y-52245463D01*
X103123992Y-52180622D01*
X103141537Y-52138262D01*
X103159084Y-52095903D01*
X103159084Y-52004204D01*
X103159084Y-51998239D01*
X103159083Y-51998232D01*
X103159083Y-51809732D01*
X103180757Y-51757406D01*
X103233083Y-51735732D01*
X103285409Y-51757406D01*
X103297169Y-51772732D01*
X103325541Y-51821874D01*
X103325542Y-51821875D01*
X103325544Y-51821878D01*
X103353839Y-51850173D01*
X103362515Y-51871118D01*
X103374510Y-51890357D01*
X103373064Y-51896587D01*
X103375513Y-51902498D01*
X103375513Y-52247858D01*
X103353839Y-52300184D01*
X99573590Y-56080433D01*
X99559054Y-56115525D01*
X99538499Y-56165148D01*
X99538499Y-56265461D01*
X99538500Y-56265470D01*
X99538500Y-59632674D01*
X99538499Y-59632677D01*
X99538499Y-59663801D01*
X99538499Y-59689692D01*
X99538499Y-59724370D01*
X99516825Y-59776696D01*
X99464499Y-59798370D01*
X99464498Y-59798369D01*
X99464498Y-59798370D01*
X99449172Y-59792021D01*
X99412173Y-59776696D01*
X98146318Y-58510841D01*
X98146318Y-58510840D01*
X98120266Y-58484788D01*
X98071069Y-58435591D01*
X98058119Y-58430227D01*
X98052183Y-58427768D01*
X98028176Y-58411727D01*
X97874817Y-58258368D01*
X97874817Y-58258367D01*
X97843063Y-58226613D01*
X97799568Y-58183118D01*
X97799566Y-58183117D01*
X97799564Y-58183116D01*
X97764476Y-58168582D01*
X97764476Y-58168581D01*
X97714850Y-58148026D01*
X97623150Y-58148026D01*
X97614538Y-58148026D01*
X97614530Y-58148027D01*
X97485883Y-58148027D01*
X97433557Y-58126353D01*
X97411883Y-58074027D01*
X97421797Y-58037027D01*
X97435294Y-58013649D01*
X97440200Y-58005152D01*
X97464085Y-57916010D01*
X97464086Y-57916010D01*
X97464086Y-57823718D01*
X97464085Y-57823717D01*
X97440201Y-57734579D01*
X97440199Y-57734574D01*
X97394057Y-57654655D01*
X97394056Y-57654654D01*
X97394055Y-57654652D01*
X97360850Y-57621447D01*
X97339177Y-57569123D01*
X97349092Y-57532122D01*
X97357773Y-57517087D01*
X97369119Y-57497435D01*
X97393004Y-57408293D01*
X97393005Y-57408293D01*
X97393005Y-57316001D01*
X97393004Y-57316000D01*
X97391513Y-57310437D01*
X97371134Y-57234379D01*
X97369120Y-57226862D01*
X97369118Y-57226857D01*
X97330390Y-57159779D01*
X97322997Y-57103627D01*
X97342148Y-57070455D01*
X97370463Y-57042141D01*
X97401274Y-56988776D01*
X98477004Y-56988776D01*
X98477004Y-57081069D01*
X98500888Y-57170207D01*
X98500890Y-57170212D01*
X98547032Y-57250131D01*
X98547033Y-57250132D01*
X98547035Y-57250135D01*
X98612292Y-57315392D01*
X98612294Y-57315393D01*
X98612296Y-57315395D01*
X98652899Y-57338838D01*
X98687377Y-57383771D01*
X98679983Y-57439924D01*
X98668224Y-57455249D01*
X98606383Y-57517090D01*
X98560241Y-57597009D01*
X98560239Y-57597014D01*
X98536355Y-57686152D01*
X98536355Y-57778445D01*
X98560239Y-57867583D01*
X98560241Y-57867588D01*
X98606383Y-57947507D01*
X98606384Y-57947508D01*
X98606386Y-57947511D01*
X98671643Y-58012768D01*
X98671645Y-58012769D01*
X98671646Y-58012770D01*
X98713660Y-58037027D01*
X98751567Y-58058913D01*
X98751568Y-58058913D01*
X98751570Y-58058914D01*
X98796139Y-58070856D01*
X98840708Y-58082798D01*
X98840709Y-58082799D01*
X98840711Y-58082799D01*
X98933001Y-58082799D01*
X98933001Y-58082798D01*
X99022143Y-58058913D01*
X99102067Y-58012768D01*
X99167324Y-57947511D01*
X99213469Y-57867587D01*
X99237354Y-57778445D01*
X99237355Y-57778445D01*
X99237355Y-57686153D01*
X99237354Y-57686152D01*
X99236989Y-57684791D01*
X99213469Y-57597011D01*
X99202123Y-57577359D01*
X99167326Y-57517090D01*
X99167325Y-57517089D01*
X99167324Y-57517087D01*
X99102067Y-57451830D01*
X99102064Y-57451828D01*
X99102062Y-57451826D01*
X99061459Y-57428383D01*
X99026981Y-57383449D01*
X99034375Y-57327297D01*
X99046127Y-57311980D01*
X99107973Y-57250135D01*
X99154118Y-57170211D01*
X99178003Y-57081069D01*
X99178004Y-57081069D01*
X99178004Y-56988777D01*
X99178003Y-56988776D01*
X99154119Y-56899638D01*
X99154117Y-56899633D01*
X99107975Y-56819714D01*
X99107974Y-56819713D01*
X99107973Y-56819711D01*
X99042716Y-56754454D01*
X99042713Y-56754452D01*
X99042712Y-56754451D01*
X98962793Y-56708309D01*
X98962788Y-56708307D01*
X98873650Y-56684423D01*
X98873648Y-56684423D01*
X98781360Y-56684423D01*
X98781358Y-56684423D01*
X98692219Y-56708307D01*
X98692214Y-56708309D01*
X98612295Y-56754451D01*
X98547032Y-56819714D01*
X98500890Y-56899633D01*
X98500888Y-56899638D01*
X98477004Y-56988776D01*
X97401274Y-56988776D01*
X97416608Y-56962217D01*
X97440494Y-56873073D01*
X97440494Y-56780785D01*
X97440494Y-56780783D01*
X97440493Y-56780782D01*
X97416609Y-56691644D01*
X97416607Y-56691639D01*
X97370465Y-56611720D01*
X97370464Y-56611719D01*
X97370463Y-56611717D01*
X97305206Y-56546460D01*
X97305203Y-56546458D01*
X97305202Y-56546457D01*
X97225283Y-56500315D01*
X97225278Y-56500313D01*
X97136140Y-56476429D01*
X97136138Y-56476429D01*
X97043850Y-56476429D01*
X97043848Y-56476429D01*
X96954709Y-56500313D01*
X96954704Y-56500315D01*
X96874785Y-56546457D01*
X96809522Y-56611720D01*
X96763380Y-56691639D01*
X96763378Y-56691644D01*
X96739494Y-56780782D01*
X96739494Y-56873075D01*
X96763378Y-56962213D01*
X96763381Y-56962219D01*
X96802108Y-57029297D01*
X96809500Y-57085450D01*
X96790349Y-57118622D01*
X96762033Y-57146938D01*
X96715891Y-57226857D01*
X96715889Y-57226862D01*
X96692005Y-57316000D01*
X96692005Y-57408293D01*
X96715889Y-57497431D01*
X96715891Y-57497436D01*
X96762033Y-57577355D01*
X96762034Y-57577356D01*
X96762036Y-57577359D01*
X96795239Y-57610562D01*
X96802631Y-57628408D01*
X96814392Y-57643735D01*
X96813086Y-57653649D01*
X96816913Y-57662887D01*
X96806999Y-57699887D01*
X96788918Y-57731204D01*
X96743984Y-57765683D01*
X96687832Y-57758290D01*
X96672506Y-57746530D01*
X96052174Y-57126198D01*
X96030500Y-57073872D01*
X96030500Y-55954151D01*
X96030499Y-55954149D01*
X95995410Y-55869434D01*
X95995408Y-55869431D01*
X95926353Y-55800376D01*
X95926346Y-55800370D01*
X95475178Y-55349202D01*
X96877841Y-55349202D01*
X96877841Y-55441495D01*
X96901725Y-55530633D01*
X96901727Y-55530638D01*
X96947869Y-55610557D01*
X96947870Y-55610558D01*
X96947872Y-55610561D01*
X97013129Y-55675818D01*
X97013131Y-55675819D01*
X97013132Y-55675820D01*
X97081360Y-55715212D01*
X97093053Y-55721963D01*
X97093054Y-55721963D01*
X97093056Y-55721964D01*
X97137625Y-55733906D01*
X97182194Y-55745848D01*
X97182195Y-55745849D01*
X97182197Y-55745849D01*
X97274487Y-55745849D01*
X97274487Y-55745848D01*
X97363629Y-55721963D01*
X97419393Y-55689766D01*
X97475543Y-55682373D01*
X97514953Y-55712609D01*
X97516578Y-55711363D01*
X97519529Y-55715209D01*
X97519531Y-55715212D01*
X97584788Y-55780469D01*
X97584790Y-55780470D01*
X97584791Y-55780471D01*
X97664710Y-55826613D01*
X97664712Y-55826614D01*
X97664713Y-55826614D01*
X97664715Y-55826615D01*
X97709284Y-55838557D01*
X97753853Y-55850499D01*
X97753854Y-55850500D01*
X97753856Y-55850500D01*
X97846146Y-55850500D01*
X97846146Y-55850499D01*
X97935288Y-55826614D01*
X98015212Y-55780469D01*
X98080469Y-55715212D01*
X98126614Y-55635288D01*
X98150499Y-55546146D01*
X98150500Y-55546146D01*
X98150500Y-55453854D01*
X98150499Y-55453853D01*
X98126615Y-55364715D01*
X98126612Y-55364708D01*
X98080984Y-55285680D01*
X98073590Y-55229527D01*
X98108068Y-55184594D01*
X98108071Y-55184592D01*
X98109312Y-55183875D01*
X98115212Y-55180469D01*
X98180469Y-55115212D01*
X98226614Y-55035288D01*
X98250499Y-54946146D01*
X98250500Y-54946146D01*
X98250500Y-54853854D01*
X98250499Y-54853853D01*
X98226615Y-54764715D01*
X98226613Y-54764710D01*
X98180471Y-54684791D01*
X98180470Y-54684790D01*
X98180469Y-54684788D01*
X98115212Y-54619531D01*
X98115209Y-54619529D01*
X98115208Y-54619528D01*
X98035289Y-54573386D01*
X98035284Y-54573384D01*
X97946146Y-54549500D01*
X97946144Y-54549500D01*
X97853856Y-54549500D01*
X97765901Y-54573067D01*
X97709749Y-54565674D01*
X97682662Y-54538586D01*
X97680471Y-54534791D01*
X97680470Y-54534790D01*
X97680469Y-54534788D01*
X97615212Y-54469531D01*
X97615209Y-54469529D01*
X97615208Y-54469528D01*
X97535289Y-54423386D01*
X97535284Y-54423384D01*
X97446146Y-54399500D01*
X97446144Y-54399500D01*
X97353856Y-54399500D01*
X97353854Y-54399500D01*
X97264715Y-54423384D01*
X97264710Y-54423386D01*
X97184791Y-54469528D01*
X97119528Y-54534791D01*
X97073386Y-54614710D01*
X97073384Y-54614715D01*
X97049500Y-54703853D01*
X97049500Y-54796146D01*
X97073384Y-54885284D01*
X97073386Y-54885289D01*
X97120737Y-54967303D01*
X97128129Y-55023456D01*
X97093652Y-55068389D01*
X97013131Y-55114878D01*
X96947869Y-55180140D01*
X96901727Y-55260059D01*
X96901725Y-55260064D01*
X96877841Y-55349202D01*
X95475178Y-55349202D01*
X93671766Y-53545790D01*
X98395469Y-53545790D01*
X98395469Y-53638083D01*
X98419353Y-53727221D01*
X98419355Y-53727226D01*
X98465497Y-53807145D01*
X98465498Y-53807146D01*
X98465500Y-53807149D01*
X98530757Y-53872406D01*
X98610681Y-53918551D01*
X98610682Y-53918551D01*
X98610684Y-53918552D01*
X98655253Y-53930494D01*
X98699822Y-53942436D01*
X98699823Y-53942437D01*
X98699825Y-53942437D01*
X98792115Y-53942437D01*
X98792115Y-53942436D01*
X98881257Y-53918551D01*
X98961181Y-53872406D01*
X99026438Y-53807149D01*
X99072583Y-53727225D01*
X99096468Y-53638083D01*
X99096469Y-53638083D01*
X99096469Y-53545791D01*
X99096468Y-53545790D01*
X99094571Y-53538712D01*
X99075039Y-53465814D01*
X99072584Y-53456652D01*
X99072582Y-53456647D01*
X99026440Y-53376728D01*
X99026439Y-53376727D01*
X99026438Y-53376725D01*
X98961181Y-53311468D01*
X98961178Y-53311466D01*
X98961177Y-53311465D01*
X98881258Y-53265323D01*
X98881253Y-53265321D01*
X98792115Y-53241437D01*
X98792113Y-53241437D01*
X98699825Y-53241437D01*
X98699823Y-53241437D01*
X98610684Y-53265321D01*
X98610679Y-53265323D01*
X98530760Y-53311465D01*
X98465497Y-53376728D01*
X98419355Y-53456647D01*
X98419353Y-53456652D01*
X98395469Y-53545790D01*
X93671766Y-53545790D01*
X92772174Y-52646198D01*
X92750500Y-52593872D01*
X92750500Y-52553854D01*
X92750499Y-52553853D01*
X93449500Y-52553853D01*
X93449500Y-52646146D01*
X93473384Y-52735284D01*
X93473386Y-52735289D01*
X93519528Y-52815208D01*
X93519529Y-52815209D01*
X93519531Y-52815212D01*
X93584788Y-52880469D01*
X93584790Y-52880470D01*
X93584791Y-52880471D01*
X93659119Y-52923385D01*
X93664712Y-52926614D01*
X93664713Y-52926614D01*
X93664715Y-52926615D01*
X93709284Y-52938557D01*
X93753853Y-52950499D01*
X93753854Y-52950500D01*
X93753856Y-52950500D01*
X93846146Y-52950500D01*
X93846146Y-52950499D01*
X93935288Y-52926614D01*
X94015212Y-52880469D01*
X94080469Y-52815212D01*
X94126614Y-52735288D01*
X94150499Y-52646146D01*
X94150500Y-52646146D01*
X94150500Y-52551486D01*
X94172174Y-52499160D01*
X94446167Y-52225168D01*
X94720911Y-51950424D01*
X94773237Y-51928750D01*
X95545500Y-51928750D01*
X95545501Y-51928750D01*
X95580326Y-51914324D01*
X95629577Y-51893925D01*
X96048469Y-51475032D01*
X96058630Y-51450500D01*
X96058670Y-51450404D01*
X96058670Y-51450403D01*
X96059013Y-51449576D01*
X96083295Y-51390956D01*
X96083295Y-51297582D01*
X96104968Y-51245257D01*
X96135014Y-51215212D01*
X96181159Y-51135288D01*
X96205044Y-51046146D01*
X96205045Y-51046146D01*
X96205045Y-50953854D01*
X96205044Y-50953853D01*
X96181160Y-50864715D01*
X96181158Y-50864710D01*
X96135016Y-50784791D01*
X96135015Y-50784790D01*
X96135014Y-50784788D01*
X96069757Y-50719531D01*
X96069754Y-50719529D01*
X96069753Y-50719528D01*
X95989834Y-50673386D01*
X95989829Y-50673384D01*
X95900691Y-50649500D01*
X95900689Y-50649500D01*
X95808401Y-50649500D01*
X95808399Y-50649500D01*
X95719260Y-50673384D01*
X95719255Y-50673386D01*
X95639336Y-50719528D01*
X95574073Y-50784791D01*
X95527931Y-50864710D01*
X95527929Y-50864715D01*
X95504045Y-50953853D01*
X95504045Y-51046146D01*
X95527929Y-51135284D01*
X95527931Y-51135289D01*
X95576501Y-51219413D01*
X95574448Y-51220598D01*
X95587093Y-51267774D01*
X95566051Y-51310446D01*
X95426922Y-51449576D01*
X95374596Y-51471250D01*
X94602332Y-51471250D01*
X94567506Y-51485675D01*
X94518258Y-51506073D01*
X94518254Y-51506076D01*
X93795773Y-52228557D01*
X93758227Y-52247075D01*
X93758541Y-52248244D01*
X93664715Y-52273384D01*
X93664710Y-52273386D01*
X93584791Y-52319528D01*
X93519528Y-52384791D01*
X93473386Y-52464710D01*
X93473384Y-52464715D01*
X93449500Y-52553853D01*
X92750499Y-52553853D01*
X92726615Y-52464715D01*
X92726613Y-52464710D01*
X92680471Y-52384791D01*
X92680470Y-52384790D01*
X92680469Y-52384788D01*
X92615212Y-52319531D01*
X92615209Y-52319529D01*
X92615208Y-52319528D01*
X92535289Y-52273386D01*
X92535284Y-52273384D01*
X92446146Y-52249500D01*
X92446144Y-52249500D01*
X92353856Y-52249500D01*
X92353854Y-52249500D01*
X92264715Y-52273384D01*
X92264710Y-52273386D01*
X92184791Y-52319528D01*
X92119528Y-52384791D01*
X92073386Y-52464710D01*
X92073384Y-52464715D01*
X92049500Y-52553853D01*
X92049500Y-52646146D01*
X92073384Y-52735284D01*
X92073386Y-52735289D01*
X92119528Y-52815208D01*
X92119529Y-52815209D01*
X92119531Y-52815212D01*
X92184788Y-52880469D01*
X92184790Y-52880470D01*
X92184791Y-52880471D01*
X92259119Y-52923385D01*
X92264712Y-52926614D01*
X92264713Y-52926614D01*
X92264715Y-52926615D01*
X92309284Y-52938557D01*
X92353853Y-52950499D01*
X92353854Y-52950500D01*
X92353856Y-52950500D01*
X92393872Y-52950500D01*
X92446198Y-52972174D01*
X95547826Y-56073802D01*
X95569500Y-56126128D01*
X95569500Y-57148178D01*
X95569499Y-57148192D01*
X95569499Y-57245850D01*
X95583438Y-57279501D01*
X95604590Y-57330566D01*
X95604592Y-57330569D01*
X95679839Y-57405816D01*
X95679841Y-57405817D01*
X96778897Y-58504873D01*
X96778900Y-58504877D01*
X96783118Y-58509095D01*
X96847959Y-58573936D01*
X96879299Y-58586917D01*
X96932678Y-58609028D01*
X97032989Y-58609028D01*
X97032997Y-58609027D01*
X97542872Y-58609027D01*
X97595198Y-58630701D01*
X97726063Y-58761566D01*
X97726064Y-58761568D01*
X97790905Y-58826409D01*
X97820127Y-58838513D01*
X97828733Y-58845656D01*
X97829736Y-58847558D01*
X97833796Y-58850271D01*
X101708826Y-62725301D01*
X101730500Y-62777627D01*
X101730500Y-63570630D01*
X101730499Y-63570644D01*
X101730499Y-63668302D01*
X101747983Y-63710513D01*
X101747985Y-63710515D01*
X101765590Y-63753019D01*
X101840839Y-63828268D01*
X101840841Y-63828269D01*
X102444918Y-64432346D01*
X102444921Y-64432350D01*
X102513980Y-64501409D01*
X102556337Y-64518953D01*
X102556338Y-64518954D01*
X102598699Y-64536501D01*
X102699010Y-64536501D01*
X102699018Y-64536500D01*
X103669600Y-64536500D01*
X103669602Y-64536501D01*
X103761302Y-64536501D01*
X103774151Y-64531178D01*
X103787086Y-64530579D01*
X103788161Y-64530967D01*
X103790510Y-64530500D01*
X104215530Y-64530500D01*
X104215538Y-64530501D01*
X104224150Y-64530501D01*
X104315850Y-64530501D01*
X104365476Y-64509944D01*
X104400568Y-64495409D01*
X104465409Y-64430568D01*
X104465409Y-64430567D01*
X104475814Y-64420162D01*
X104475816Y-64420159D01*
X106163943Y-62732031D01*
X106216268Y-62710358D01*
X106268594Y-62732032D01*
X106280353Y-62747357D01*
X106319527Y-62815207D01*
X106319529Y-62815209D01*
X106319531Y-62815212D01*
X106384788Y-62880469D01*
X106384790Y-62880470D01*
X106384791Y-62880471D01*
X106464710Y-62926613D01*
X106464712Y-62926614D01*
X106464713Y-62926614D01*
X106464715Y-62926615D01*
X106508485Y-62938343D01*
X106553853Y-62950499D01*
X106553854Y-62950500D01*
X106553856Y-62950500D01*
X106646146Y-62950500D01*
X106646146Y-62950499D01*
X106735288Y-62926614D01*
X106815212Y-62880469D01*
X106873175Y-62822505D01*
X106925500Y-62800832D01*
X106977826Y-62822506D01*
X106999500Y-62874832D01*
X106999500Y-65125500D01*
X106977826Y-65177826D01*
X106925500Y-65199500D01*
X97078867Y-65199500D01*
X97026541Y-65177826D01*
X97004867Y-65125500D01*
X97026541Y-65073174D01*
X97050549Y-65057133D01*
X97052641Y-65056265D01*
X97055495Y-65055084D01*
X97178416Y-64972951D01*
X97282951Y-64868416D01*
X97365084Y-64745495D01*
X97421658Y-64608913D01*
X97450500Y-64463918D01*
X97450500Y-64439162D01*
X98567631Y-64439162D01*
X98567631Y-64531455D01*
X98591515Y-64620593D01*
X98591517Y-64620598D01*
X98637659Y-64700517D01*
X98637660Y-64700518D01*
X98637662Y-64700521D01*
X98702919Y-64765778D01*
X98782843Y-64811923D01*
X98782844Y-64811923D01*
X98782846Y-64811924D01*
X98827415Y-64823866D01*
X98871984Y-64835808D01*
X98871985Y-64835809D01*
X98871987Y-64835809D01*
X98964277Y-64835809D01*
X98964277Y-64835808D01*
X99053419Y-64811923D01*
X99133343Y-64765778D01*
X99198600Y-64700521D01*
X99244745Y-64620597D01*
X99268630Y-64531455D01*
X99268631Y-64531455D01*
X99268631Y-64439163D01*
X99268630Y-64439162D01*
X99267934Y-64436566D01*
X99244745Y-64350021D01*
X99198600Y-64270097D01*
X99133343Y-64204840D01*
X99133340Y-64204838D01*
X99133339Y-64204837D01*
X99053420Y-64158695D01*
X99053415Y-64158693D01*
X98964277Y-64134809D01*
X98964275Y-64134809D01*
X98871987Y-64134809D01*
X98871985Y-64134809D01*
X98782846Y-64158693D01*
X98782841Y-64158695D01*
X98702922Y-64204837D01*
X98637659Y-64270100D01*
X98591517Y-64350019D01*
X98591515Y-64350024D01*
X98567631Y-64439162D01*
X97450500Y-64439162D01*
X97450500Y-64316082D01*
X97421658Y-64171087D01*
X97365084Y-64034505D01*
X97282951Y-63911584D01*
X97178416Y-63807049D01*
X97115450Y-63764976D01*
X97055494Y-63724915D01*
X96918917Y-63668343D01*
X96918907Y-63668340D01*
X96821811Y-63649026D01*
X96773918Y-63639500D01*
X96626082Y-63639500D01*
X96584977Y-63647676D01*
X96481092Y-63668340D01*
X96481082Y-63668343D01*
X96344505Y-63724915D01*
X96221584Y-63807048D01*
X96221583Y-63807050D01*
X96117050Y-63911583D01*
X96117048Y-63911584D01*
X96034915Y-64034505D01*
X95978343Y-64171082D01*
X95978340Y-64171092D01*
X95949500Y-64316083D01*
X95949500Y-64463916D01*
X95978340Y-64608907D01*
X95978343Y-64608917D01*
X96034915Y-64745494D01*
X96117048Y-64868415D01*
X96221584Y-64972951D01*
X96344505Y-65055084D01*
X96349451Y-65057133D01*
X96389500Y-65097181D01*
X96389500Y-65153818D01*
X96349452Y-65193867D01*
X96321133Y-65199500D01*
X94538867Y-65199500D01*
X94486541Y-65177826D01*
X94464867Y-65125500D01*
X94486541Y-65073174D01*
X94510549Y-65057133D01*
X94512641Y-65056265D01*
X94515495Y-65055084D01*
X94638416Y-64972951D01*
X94742951Y-64868416D01*
X94825084Y-64745495D01*
X94881658Y-64608913D01*
X94910500Y-64463918D01*
X94910500Y-64316082D01*
X94881658Y-64171087D01*
X94825084Y-64034505D01*
X94742951Y-63911584D01*
X94638416Y-63807049D01*
X94575450Y-63764976D01*
X94515494Y-63724915D01*
X94378917Y-63668343D01*
X94378907Y-63668340D01*
X94281811Y-63649026D01*
X94233918Y-63639500D01*
X94086082Y-63639500D01*
X94044977Y-63647676D01*
X93941092Y-63668340D01*
X93941082Y-63668343D01*
X93804505Y-63724915D01*
X93681584Y-63807048D01*
X93681583Y-63807050D01*
X93577050Y-63911583D01*
X93577048Y-63911584D01*
X93494915Y-64034505D01*
X93438343Y-64171082D01*
X93438340Y-64171092D01*
X93409500Y-64316083D01*
X93409500Y-64463916D01*
X93438340Y-64608907D01*
X93438343Y-64608917D01*
X93494915Y-64745494D01*
X93577048Y-64868415D01*
X93681584Y-64972951D01*
X93804505Y-65055084D01*
X93809451Y-65057133D01*
X93849500Y-65097181D01*
X93849500Y-65153818D01*
X93809452Y-65193867D01*
X93781133Y-65199500D01*
X91998867Y-65199500D01*
X91946541Y-65177826D01*
X91924867Y-65125500D01*
X91946541Y-65073174D01*
X91970549Y-65057133D01*
X91972641Y-65056265D01*
X91975495Y-65055084D01*
X92098416Y-64972951D01*
X92202951Y-64868416D01*
X92285084Y-64745495D01*
X92341658Y-64608913D01*
X92370500Y-64463918D01*
X92370500Y-64316082D01*
X92341658Y-64171087D01*
X92285084Y-64034505D01*
X92202951Y-63911584D01*
X92098416Y-63807049D01*
X92035450Y-63764976D01*
X91975494Y-63724915D01*
X91838917Y-63668343D01*
X91838907Y-63668340D01*
X91741811Y-63649026D01*
X91693918Y-63639500D01*
X91546082Y-63639500D01*
X91504977Y-63647676D01*
X91401092Y-63668340D01*
X91401082Y-63668343D01*
X91264505Y-63724915D01*
X91141584Y-63807048D01*
X91141583Y-63807050D01*
X91037050Y-63911583D01*
X91037048Y-63911584D01*
X90954915Y-64034505D01*
X90898343Y-64171082D01*
X90898340Y-64171092D01*
X90869500Y-64316083D01*
X90869500Y-64463916D01*
X90898340Y-64608907D01*
X90898343Y-64608917D01*
X90954915Y-64745494D01*
X91037048Y-64868415D01*
X91141584Y-64972951D01*
X91264505Y-65055084D01*
X91269451Y-65057133D01*
X91309500Y-65097181D01*
X91309500Y-65153818D01*
X91269452Y-65193867D01*
X91241133Y-65199500D01*
X90274500Y-65199500D01*
X90222174Y-65177826D01*
X90200500Y-65125500D01*
X90200500Y-60968479D01*
X90369500Y-60968479D01*
X90369500Y-62731520D01*
X90384353Y-62825302D01*
X90384353Y-62825303D01*
X90384354Y-62825305D01*
X90441950Y-62938343D01*
X90531657Y-63028050D01*
X90644695Y-63085646D01*
X90707218Y-63095548D01*
X90738479Y-63100500D01*
X90738480Y-63100500D01*
X92501521Y-63100500D01*
X92524966Y-63096786D01*
X92595305Y-63085646D01*
X92708343Y-63028050D01*
X92798050Y-62938343D01*
X92855646Y-62825305D01*
X92870500Y-62731520D01*
X92870500Y-62381908D01*
X92892174Y-62329582D01*
X92944500Y-62307908D01*
X92996826Y-62329582D01*
X93010432Y-62348309D01*
X93047404Y-62420872D01*
X93090475Y-62505405D01*
X93192919Y-62646405D01*
X93206172Y-62664646D01*
X93345354Y-62803828D01*
X93504595Y-62919524D01*
X93679975Y-63008884D01*
X93679977Y-63008884D01*
X93679980Y-63008886D01*
X93867163Y-63069706D01*
X93867169Y-63069707D01*
X93867174Y-63069709D01*
X93996780Y-63090236D01*
X94061582Y-63100500D01*
X94061583Y-63100500D01*
X94258418Y-63100500D01*
X94307019Y-63092802D01*
X94452826Y-63069709D01*
X94452833Y-63069706D01*
X94452836Y-63069706D01*
X94640019Y-63008886D01*
X94640019Y-63008885D01*
X94640025Y-63008884D01*
X94815405Y-62919524D01*
X94974646Y-62803828D01*
X95113828Y-62664646D01*
X95229524Y-62505405D01*
X95318884Y-62330025D01*
X95326070Y-62307908D01*
X95359622Y-62204648D01*
X95396405Y-62161580D01*
X95452867Y-62157137D01*
X95495935Y-62193920D01*
X95500378Y-62204648D01*
X95541113Y-62330019D01*
X95630475Y-62505404D01*
X95703308Y-62605650D01*
X95746172Y-62664646D01*
X95885354Y-62803828D01*
X96044595Y-62919524D01*
X96219975Y-63008884D01*
X96219977Y-63008884D01*
X96219980Y-63008886D01*
X96407163Y-63069706D01*
X96407169Y-63069707D01*
X96407174Y-63069709D01*
X96536780Y-63090236D01*
X96601582Y-63100500D01*
X96601583Y-63100500D01*
X96798418Y-63100500D01*
X96840384Y-63093853D01*
X97739500Y-63093853D01*
X97739500Y-63186146D01*
X97763384Y-63275284D01*
X97763386Y-63275289D01*
X97809528Y-63355208D01*
X97809529Y-63355209D01*
X97809531Y-63355212D01*
X97874788Y-63420469D01*
X97954712Y-63466614D01*
X97954713Y-63466614D01*
X97954715Y-63466615D01*
X97999284Y-63478557D01*
X98043853Y-63490499D01*
X98043854Y-63490500D01*
X98043856Y-63490500D01*
X98136146Y-63490500D01*
X98136146Y-63490499D01*
X98225288Y-63466614D01*
X98305212Y-63420469D01*
X98370469Y-63355212D01*
X98416614Y-63275288D01*
X98440499Y-63186146D01*
X98440500Y-63186146D01*
X98440500Y-63093854D01*
X98440499Y-63093853D01*
X98416615Y-63004715D01*
X98416613Y-63004710D01*
X98370471Y-62924791D01*
X98370470Y-62924790D01*
X98370469Y-62924788D01*
X98305212Y-62859531D01*
X98305209Y-62859529D01*
X98305208Y-62859528D01*
X98225289Y-62813386D01*
X98225284Y-62813384D01*
X98136146Y-62789500D01*
X98136144Y-62789500D01*
X98043856Y-62789500D01*
X98043854Y-62789500D01*
X97954715Y-62813384D01*
X97954710Y-62813386D01*
X97874791Y-62859528D01*
X97809528Y-62924791D01*
X97763386Y-63004710D01*
X97763384Y-63004715D01*
X97739500Y-63093853D01*
X96840384Y-63093853D01*
X96847019Y-63092802D01*
X96992826Y-63069709D01*
X96992833Y-63069706D01*
X96992836Y-63069706D01*
X97121038Y-63028050D01*
X97150036Y-63018628D01*
X97150037Y-63018628D01*
X97158627Y-63015836D01*
X97180025Y-63008884D01*
X97355405Y-62919524D01*
X97514646Y-62803828D01*
X97653828Y-62664646D01*
X97769524Y-62505405D01*
X97858884Y-62330025D01*
X97866070Y-62307908D01*
X97919706Y-62142836D01*
X97919706Y-62142833D01*
X97919709Y-62142826D01*
X97950500Y-61948417D01*
X97950500Y-61751583D01*
X97947840Y-61734791D01*
X97936435Y-61662779D01*
X97919709Y-61557174D01*
X97919707Y-61557169D01*
X97919706Y-61557163D01*
X97858886Y-61369980D01*
X97858884Y-61369977D01*
X97858884Y-61369975D01*
X97769524Y-61194595D01*
X97703596Y-61103853D01*
X98849500Y-61103853D01*
X98849500Y-61196146D01*
X98873384Y-61285284D01*
X98873386Y-61285289D01*
X98919528Y-61365208D01*
X98919529Y-61365209D01*
X98919531Y-61365212D01*
X98984788Y-61430469D01*
X98984790Y-61430470D01*
X98984791Y-61430471D01*
X99064059Y-61476237D01*
X99064712Y-61476614D01*
X99064713Y-61476614D01*
X99064715Y-61476615D01*
X99109284Y-61488557D01*
X99153853Y-61500499D01*
X99153854Y-61500500D01*
X99153856Y-61500500D01*
X99246146Y-61500500D01*
X99246146Y-61500499D01*
X99335288Y-61476614D01*
X99415212Y-61430469D01*
X99480469Y-61365212D01*
X99526614Y-61285288D01*
X99550499Y-61196146D01*
X99550500Y-61196146D01*
X99550500Y-61103854D01*
X99550499Y-61103853D01*
X99526615Y-61014715D01*
X99526613Y-61014710D01*
X99480471Y-60934791D01*
X99480470Y-60934790D01*
X99480469Y-60934788D01*
X99415212Y-60869531D01*
X99415209Y-60869529D01*
X99415208Y-60869528D01*
X99335289Y-60823386D01*
X99335284Y-60823384D01*
X99246146Y-60799500D01*
X99246144Y-60799500D01*
X99153856Y-60799500D01*
X99153854Y-60799500D01*
X99064715Y-60823384D01*
X99064710Y-60823386D01*
X98984791Y-60869528D01*
X98919528Y-60934791D01*
X98873386Y-61014710D01*
X98873384Y-61014715D01*
X98849500Y-61103853D01*
X97703596Y-61103853D01*
X97653828Y-61035354D01*
X97514646Y-60896172D01*
X97514643Y-60896169D01*
X97514641Y-60896168D01*
X97355404Y-60780475D01*
X97180019Y-60691113D01*
X96992836Y-60630293D01*
X96992823Y-60630290D01*
X96798418Y-60599500D01*
X96798417Y-60599500D01*
X96601583Y-60599500D01*
X96601582Y-60599500D01*
X96407176Y-60630290D01*
X96407163Y-60630293D01*
X96219980Y-60691113D01*
X96044595Y-60780475D01*
X95885358Y-60896168D01*
X95746168Y-61035358D01*
X95630475Y-61194595D01*
X95541113Y-61369980D01*
X95500378Y-61495351D01*
X95463595Y-61538419D01*
X95407133Y-61542862D01*
X95364065Y-61506079D01*
X95359622Y-61495351D01*
X95318886Y-61369980D01*
X95318884Y-61369977D01*
X95318884Y-61369975D01*
X95229524Y-61194595D01*
X95113828Y-61035354D01*
X94974646Y-60896172D01*
X94974643Y-60896169D01*
X94974641Y-60896168D01*
X94815404Y-60780475D01*
X94640019Y-60691113D01*
X94452836Y-60630293D01*
X94452823Y-60630290D01*
X94258418Y-60599500D01*
X94258417Y-60599500D01*
X94061583Y-60599500D01*
X94061582Y-60599500D01*
X93867176Y-60630290D01*
X93867163Y-60630293D01*
X93679980Y-60691113D01*
X93504595Y-60780475D01*
X93345358Y-60896168D01*
X93206168Y-61035358D01*
X93090475Y-61194595D01*
X93054748Y-61264715D01*
X93015901Y-61340959D01*
X93010435Y-61351686D01*
X92967368Y-61388469D01*
X92910905Y-61384026D01*
X92874122Y-61340959D01*
X92870500Y-61318091D01*
X92870500Y-60968479D01*
X92859048Y-60896177D01*
X92855646Y-60874695D01*
X92798050Y-60761657D01*
X92708343Y-60671950D01*
X92595305Y-60614354D01*
X92595303Y-60614353D01*
X92595302Y-60614353D01*
X92501521Y-60599500D01*
X92501520Y-60599500D01*
X90738480Y-60599500D01*
X90738479Y-60599500D01*
X90644697Y-60614353D01*
X90531655Y-60671951D01*
X90441951Y-60761655D01*
X90384353Y-60874697D01*
X90369500Y-60968479D01*
X90200500Y-60968479D01*
X90200500Y-59437801D01*
X97319434Y-59437801D01*
X97319434Y-59530094D01*
X97343318Y-59619232D01*
X97343320Y-59619237D01*
X97389462Y-59699156D01*
X97389463Y-59699157D01*
X97389465Y-59699160D01*
X97454722Y-59764417D01*
X97454724Y-59764418D01*
X97454725Y-59764419D01*
X97513527Y-59798369D01*
X97534646Y-59810562D01*
X97534647Y-59810562D01*
X97534649Y-59810563D01*
X97566342Y-59819055D01*
X97623787Y-59834447D01*
X97623788Y-59834448D01*
X97623790Y-59834448D01*
X97716080Y-59834448D01*
X97716080Y-59834447D01*
X97805222Y-59810562D01*
X97885146Y-59764417D01*
X97950403Y-59699160D01*
X97996548Y-59619236D01*
X98020433Y-59530094D01*
X98020434Y-59530094D01*
X98020434Y-59437802D01*
X98020433Y-59437801D01*
X97996549Y-59348663D01*
X97996547Y-59348658D01*
X97950405Y-59268739D01*
X97950404Y-59268738D01*
X97950403Y-59268736D01*
X97885146Y-59203479D01*
X97885143Y-59203477D01*
X97885142Y-59203476D01*
X97805223Y-59157334D01*
X97805218Y-59157332D01*
X97716080Y-59133448D01*
X97716078Y-59133448D01*
X97623790Y-59133448D01*
X97623788Y-59133448D01*
X97534649Y-59157332D01*
X97534644Y-59157334D01*
X97454725Y-59203476D01*
X97389462Y-59268739D01*
X97343320Y-59348658D01*
X97343318Y-59348663D01*
X97319434Y-59437801D01*
X90200500Y-59437801D01*
X90200500Y-58958538D01*
X90222174Y-58906212D01*
X90274500Y-58884538D01*
X90326826Y-58906212D01*
X90333203Y-58913483D01*
X90334526Y-58915207D01*
X90334528Y-58915209D01*
X90334530Y-58915212D01*
X90399787Y-58980469D01*
X90399789Y-58980470D01*
X90399790Y-58980471D01*
X90466220Y-59018825D01*
X90479711Y-59026614D01*
X90479712Y-59026614D01*
X90479714Y-59026615D01*
X90488481Y-59028964D01*
X90568852Y-59050499D01*
X90568853Y-59050500D01*
X90568855Y-59050500D01*
X90661145Y-59050500D01*
X90661145Y-59050499D01*
X90750287Y-59026614D01*
X90830211Y-58980469D01*
X90895468Y-58915212D01*
X90915004Y-58881376D01*
X94837160Y-58881376D01*
X94837160Y-58973669D01*
X94861044Y-59062807D01*
X94861046Y-59062812D01*
X94907188Y-59142731D01*
X94907189Y-59142732D01*
X94907191Y-59142735D01*
X94972448Y-59207992D01*
X94972450Y-59207993D01*
X94972451Y-59207994D01*
X95028139Y-59240146D01*
X95052372Y-59254137D01*
X95052373Y-59254137D01*
X95052375Y-59254138D01*
X95089293Y-59264030D01*
X95141513Y-59278022D01*
X95141514Y-59278023D01*
X95141516Y-59278023D01*
X95233806Y-59278023D01*
X95233806Y-59278022D01*
X95322948Y-59254137D01*
X95402872Y-59207992D01*
X95468129Y-59142735D01*
X95514274Y-59062811D01*
X95538159Y-58973669D01*
X95538160Y-58973669D01*
X95538160Y-58881377D01*
X95538159Y-58881376D01*
X95534410Y-58867384D01*
X95789426Y-58867384D01*
X95789426Y-58959677D01*
X95813310Y-59048815D01*
X95813312Y-59048820D01*
X95859454Y-59128739D01*
X95859455Y-59128740D01*
X95859457Y-59128743D01*
X95924714Y-59194000D01*
X95924716Y-59194001D01*
X95924717Y-59194002D01*
X95965271Y-59217416D01*
X96004638Y-59240145D01*
X96004639Y-59240145D01*
X96004641Y-59240146D01*
X96042985Y-59250420D01*
X96093779Y-59264030D01*
X96093780Y-59264031D01*
X96093782Y-59264031D01*
X96186072Y-59264031D01*
X96186072Y-59264030D01*
X96275214Y-59240145D01*
X96355138Y-59194000D01*
X96420395Y-59128743D01*
X96466540Y-59048819D01*
X96490425Y-58959677D01*
X96490426Y-58959677D01*
X96490426Y-58867385D01*
X96490425Y-58867384D01*
X96466541Y-58778246D01*
X96466539Y-58778241D01*
X96420397Y-58698322D01*
X96420396Y-58698321D01*
X96420395Y-58698319D01*
X96355138Y-58633062D01*
X96355135Y-58633060D01*
X96355134Y-58633059D01*
X96275215Y-58586917D01*
X96275210Y-58586915D01*
X96186072Y-58563031D01*
X96186070Y-58563031D01*
X96093782Y-58563031D01*
X96093780Y-58563031D01*
X96004641Y-58586915D01*
X96004636Y-58586917D01*
X95924717Y-58633059D01*
X95859454Y-58698322D01*
X95813312Y-58778241D01*
X95813310Y-58778246D01*
X95789426Y-58867384D01*
X95534410Y-58867384D01*
X95514275Y-58792238D01*
X95514273Y-58792233D01*
X95468131Y-58712314D01*
X95468130Y-58712313D01*
X95468129Y-58712311D01*
X95402872Y-58647054D01*
X95402869Y-58647052D01*
X95402868Y-58647051D01*
X95322949Y-58600909D01*
X95322944Y-58600907D01*
X95233806Y-58577023D01*
X95233804Y-58577023D01*
X95141516Y-58577023D01*
X95141514Y-58577023D01*
X95052375Y-58600907D01*
X95052370Y-58600909D01*
X94972451Y-58647051D01*
X94907188Y-58712314D01*
X94861046Y-58792233D01*
X94861044Y-58792238D01*
X94837160Y-58881376D01*
X90915004Y-58881376D01*
X90941613Y-58835288D01*
X90965498Y-58746146D01*
X90965499Y-58746146D01*
X90965499Y-58653854D01*
X90965498Y-58653853D01*
X90963675Y-58647051D01*
X90941613Y-58564712D01*
X90941612Y-58564710D01*
X90895470Y-58484791D01*
X90895469Y-58484790D01*
X90895468Y-58484788D01*
X90830211Y-58419531D01*
X90830208Y-58419529D01*
X90830207Y-58419528D01*
X90750288Y-58373386D01*
X90750283Y-58373384D01*
X90661145Y-58349500D01*
X90661143Y-58349500D01*
X90568855Y-58349500D01*
X90568853Y-58349500D01*
X90479714Y-58373384D01*
X90479709Y-58373386D01*
X90399790Y-58419528D01*
X90334523Y-58484795D01*
X90333199Y-58486521D01*
X90332250Y-58487068D01*
X90331101Y-58488218D01*
X90330792Y-58487909D01*
X90284144Y-58514830D01*
X90229440Y-58500160D01*
X90201131Y-58451105D01*
X90200500Y-58441461D01*
X90200500Y-56693853D01*
X91014500Y-56693853D01*
X91014500Y-56786146D01*
X91038384Y-56875284D01*
X91038386Y-56875289D01*
X91084528Y-56955208D01*
X91084529Y-56955209D01*
X91084531Y-56955212D01*
X91149788Y-57020469D01*
X91149790Y-57020470D01*
X91149791Y-57020471D01*
X91224831Y-57063796D01*
X91229712Y-57066614D01*
X91229713Y-57066614D01*
X91229715Y-57066615D01*
X91244039Y-57070453D01*
X91318853Y-57090499D01*
X91318854Y-57090500D01*
X91318856Y-57090500D01*
X91411146Y-57090500D01*
X91411146Y-57090499D01*
X91500288Y-57066614D01*
X91580212Y-57020469D01*
X91645469Y-56955212D01*
X91691614Y-56875288D01*
X91715499Y-56786146D01*
X91715500Y-56786146D01*
X91715500Y-56737178D01*
X93542963Y-56737178D01*
X93542963Y-56829471D01*
X93566847Y-56918609D01*
X93566849Y-56918614D01*
X93612991Y-56998533D01*
X93612992Y-56998534D01*
X93612994Y-56998537D01*
X93678251Y-57063794D01*
X93678253Y-57063795D01*
X93678254Y-57063796D01*
X93724506Y-57090500D01*
X93758175Y-57109939D01*
X93758176Y-57109939D01*
X93758178Y-57109940D01*
X93790580Y-57118622D01*
X93847316Y-57133824D01*
X93847317Y-57133825D01*
X93847319Y-57133825D01*
X93939609Y-57133825D01*
X93939609Y-57133824D01*
X93963016Y-57127552D01*
X93971569Y-57125261D01*
X94027721Y-57132653D01*
X94062200Y-57177586D01*
X94055366Y-57229513D01*
X94056295Y-57229898D01*
X94054859Y-57233362D01*
X94054811Y-57233734D01*
X94054439Y-57234377D01*
X94054436Y-57234384D01*
X94030552Y-57323522D01*
X94030552Y-57415815D01*
X94054436Y-57504953D01*
X94054438Y-57504958D01*
X94100580Y-57584877D01*
X94100581Y-57584878D01*
X94100583Y-57584881D01*
X94165840Y-57650138D01*
X94165842Y-57650139D01*
X94165843Y-57650140D01*
X94228222Y-57686155D01*
X94245764Y-57696283D01*
X94245765Y-57696283D01*
X94245767Y-57696284D01*
X94259214Y-57699887D01*
X94334905Y-57720168D01*
X94334906Y-57720169D01*
X94334908Y-57720169D01*
X94427198Y-57720169D01*
X94427198Y-57720168D01*
X94516340Y-57696283D01*
X94596264Y-57650138D01*
X94661521Y-57584881D01*
X94707666Y-57504957D01*
X94731551Y-57415815D01*
X94731552Y-57415815D01*
X94731552Y-57323523D01*
X94731551Y-57323522D01*
X94729373Y-57315395D01*
X94707666Y-57234381D01*
X94707664Y-57234377D01*
X94661523Y-57154460D01*
X94661522Y-57154459D01*
X94661521Y-57154457D01*
X94596264Y-57089200D01*
X94596261Y-57089198D01*
X94596260Y-57089197D01*
X94516341Y-57043055D01*
X94516336Y-57043053D01*
X94427198Y-57019169D01*
X94427196Y-57019169D01*
X94334908Y-57019169D01*
X94334907Y-57019169D01*
X94302943Y-57027733D01*
X94246791Y-57020339D01*
X94212313Y-56975405D01*
X94219150Y-56923481D01*
X94218220Y-56923096D01*
X94219658Y-56919623D01*
X94219707Y-56919253D01*
X94220077Y-56918613D01*
X94243962Y-56829471D01*
X94243963Y-56829471D01*
X94243963Y-56737179D01*
X94243962Y-56737178D01*
X94220078Y-56648040D01*
X94220076Y-56648035D01*
X94173934Y-56568116D01*
X94173933Y-56568115D01*
X94173932Y-56568113D01*
X94108675Y-56502856D01*
X94108672Y-56502854D01*
X94108671Y-56502853D01*
X94028752Y-56456711D01*
X94028747Y-56456709D01*
X93939609Y-56432825D01*
X93939607Y-56432825D01*
X93847319Y-56432825D01*
X93847317Y-56432825D01*
X93758178Y-56456709D01*
X93758173Y-56456711D01*
X93678254Y-56502853D01*
X93612991Y-56568116D01*
X93566849Y-56648035D01*
X93566847Y-56648040D01*
X93542963Y-56737178D01*
X91715500Y-56737178D01*
X91715500Y-56693854D01*
X91715499Y-56693853D01*
X91691615Y-56604715D01*
X91691613Y-56604710D01*
X91645471Y-56524791D01*
X91645470Y-56524790D01*
X91645469Y-56524788D01*
X91580212Y-56459531D01*
X91580209Y-56459529D01*
X91580208Y-56459528D01*
X91500289Y-56413386D01*
X91487794Y-56410038D01*
X91449171Y-56399689D01*
X91440022Y-56396583D01*
X91410849Y-56384500D01*
X91319151Y-56384500D01*
X91319146Y-56384500D01*
X91289978Y-56396582D01*
X91280815Y-56399692D01*
X91229715Y-56413384D01*
X91229710Y-56413386D01*
X91149791Y-56459528D01*
X91084528Y-56524791D01*
X91038386Y-56604710D01*
X91038384Y-56604715D01*
X91014500Y-56693853D01*
X90200500Y-56693853D01*
X90200500Y-55553853D01*
X91449500Y-55553853D01*
X91449500Y-55646146D01*
X91473384Y-55735284D01*
X91473386Y-55735289D01*
X91519528Y-55815208D01*
X91519529Y-55815209D01*
X91519531Y-55815212D01*
X91584788Y-55880469D01*
X91584790Y-55880470D01*
X91584791Y-55880471D01*
X91664710Y-55926613D01*
X91664712Y-55926614D01*
X91664713Y-55926614D01*
X91664715Y-55926615D01*
X91709284Y-55938557D01*
X91753853Y-55950499D01*
X91753854Y-55950500D01*
X91753856Y-55950500D01*
X91846146Y-55950500D01*
X91846146Y-55950499D01*
X91935288Y-55926614D01*
X92015212Y-55880469D01*
X92080469Y-55815212D01*
X92126614Y-55735288D01*
X92150499Y-55646146D01*
X92150500Y-55646146D01*
X92150500Y-55553854D01*
X92150499Y-55553853D01*
X92148433Y-55546144D01*
X92126614Y-55464712D01*
X92120345Y-55453854D01*
X92080471Y-55384791D01*
X92080470Y-55384790D01*
X92080469Y-55384788D01*
X92015212Y-55319531D01*
X92015209Y-55319529D01*
X92015208Y-55319528D01*
X91935289Y-55273386D01*
X91935284Y-55273384D01*
X91846146Y-55249500D01*
X91846144Y-55249500D01*
X91753856Y-55249500D01*
X91753854Y-55249500D01*
X91664715Y-55273384D01*
X91664710Y-55273386D01*
X91584791Y-55319528D01*
X91519528Y-55384791D01*
X91473386Y-55464710D01*
X91473384Y-55464715D01*
X91449500Y-55553853D01*
X90200500Y-55553853D01*
X90200500Y-54628853D01*
X91599500Y-54628853D01*
X91599500Y-54721146D01*
X91623384Y-54810284D01*
X91623386Y-54810289D01*
X91669528Y-54890208D01*
X91669529Y-54890209D01*
X91669531Y-54890212D01*
X91734788Y-54955469D01*
X91734790Y-54955470D01*
X91734791Y-54955471D01*
X91814710Y-55001613D01*
X91814712Y-55001614D01*
X91814713Y-55001614D01*
X91814715Y-55001615D01*
X91859284Y-55013557D01*
X91903853Y-55025499D01*
X91903854Y-55025500D01*
X91903856Y-55025500D01*
X91996146Y-55025500D01*
X91996146Y-55025499D01*
X92085288Y-55001614D01*
X92165212Y-54955469D01*
X92230469Y-54890212D01*
X92276614Y-54810288D01*
X92300499Y-54721146D01*
X92300500Y-54721146D01*
X92300500Y-54628854D01*
X92300499Y-54628853D01*
X92299899Y-54626615D01*
X92283759Y-54566376D01*
X92276615Y-54539715D01*
X92276613Y-54539710D01*
X92230471Y-54459791D01*
X92230470Y-54459790D01*
X92230469Y-54459788D01*
X92165212Y-54394531D01*
X92165209Y-54394529D01*
X92165208Y-54394528D01*
X92085289Y-54348386D01*
X92085284Y-54348384D01*
X91996146Y-54324500D01*
X91996144Y-54324500D01*
X91903856Y-54324500D01*
X91903854Y-54324500D01*
X91814715Y-54348384D01*
X91814710Y-54348386D01*
X91734791Y-54394528D01*
X91669528Y-54459791D01*
X91623386Y-54539710D01*
X91623384Y-54539715D01*
X91599500Y-54628853D01*
X90200500Y-54628853D01*
X90200500Y-54063853D01*
X90849500Y-54063853D01*
X90849500Y-54156146D01*
X90873384Y-54245284D01*
X90873386Y-54245289D01*
X90919528Y-54325208D01*
X90919529Y-54325209D01*
X90919531Y-54325212D01*
X90984788Y-54390469D01*
X90984790Y-54390470D01*
X90984791Y-54390471D01*
X91041797Y-54423384D01*
X91064712Y-54436614D01*
X91064713Y-54436614D01*
X91064715Y-54436615D01*
X91109284Y-54448557D01*
X91153853Y-54460499D01*
X91153854Y-54460500D01*
X91153856Y-54460500D01*
X91246146Y-54460500D01*
X91246146Y-54460499D01*
X91335288Y-54436614D01*
X91415212Y-54390469D01*
X91480469Y-54325212D01*
X91526614Y-54245288D01*
X91550499Y-54156146D01*
X91550500Y-54156146D01*
X91550500Y-54063854D01*
X91550499Y-54063853D01*
X91526615Y-53974715D01*
X91526613Y-53974710D01*
X91480471Y-53894791D01*
X91480470Y-53894790D01*
X91480469Y-53894788D01*
X91415212Y-53829531D01*
X91415209Y-53829529D01*
X91415208Y-53829528D01*
X91335289Y-53783386D01*
X91335284Y-53783384D01*
X91246146Y-53759500D01*
X91246144Y-53759500D01*
X91153856Y-53759500D01*
X91153854Y-53759500D01*
X91064715Y-53783384D01*
X91064710Y-53783386D01*
X90984791Y-53829528D01*
X90919528Y-53894791D01*
X90873386Y-53974710D01*
X90873384Y-53974715D01*
X90849500Y-54063853D01*
X90200500Y-54063853D01*
X90200500Y-52553853D01*
X90954041Y-52553853D01*
X90954041Y-52646146D01*
X90977925Y-52735284D01*
X90977927Y-52735289D01*
X91024069Y-52815208D01*
X91024070Y-52815209D01*
X91024072Y-52815212D01*
X91089329Y-52880469D01*
X91089331Y-52880470D01*
X91089332Y-52880471D01*
X91163660Y-52923385D01*
X91169253Y-52926614D01*
X91169254Y-52926614D01*
X91169256Y-52926615D01*
X91213825Y-52938557D01*
X91258394Y-52950499D01*
X91258395Y-52950500D01*
X91258397Y-52950500D01*
X91350687Y-52950500D01*
X91350687Y-52950499D01*
X91439829Y-52926614D01*
X91519753Y-52880469D01*
X91585010Y-52815212D01*
X91631155Y-52735288D01*
X91655040Y-52646146D01*
X91655041Y-52646146D01*
X91655041Y-52553854D01*
X91655040Y-52553853D01*
X91631156Y-52464715D01*
X91631154Y-52464710D01*
X91585012Y-52384791D01*
X91585011Y-52384790D01*
X91585010Y-52384788D01*
X91519753Y-52319531D01*
X91519750Y-52319529D01*
X91519749Y-52319528D01*
X91439830Y-52273386D01*
X91439825Y-52273384D01*
X91350687Y-52249500D01*
X91350685Y-52249500D01*
X91258397Y-52249500D01*
X91258395Y-52249500D01*
X91169256Y-52273384D01*
X91169251Y-52273386D01*
X91089332Y-52319528D01*
X91024069Y-52384791D01*
X90977927Y-52464710D01*
X90977925Y-52464715D01*
X90954041Y-52553853D01*
X90200500Y-52553853D01*
X90200500Y-51270576D01*
X90222174Y-51218250D01*
X90274500Y-51196576D01*
X90326826Y-51218250D01*
X90338586Y-51233576D01*
X90339528Y-51235208D01*
X90339529Y-51235209D01*
X90339531Y-51235212D01*
X90404788Y-51300469D01*
X90404790Y-51300470D01*
X90404791Y-51300471D01*
X90465462Y-51335500D01*
X90484712Y-51346614D01*
X90484713Y-51346614D01*
X90484715Y-51346615D01*
X90529284Y-51358557D01*
X90573853Y-51370499D01*
X90573854Y-51370500D01*
X90573856Y-51370500D01*
X90666146Y-51370500D01*
X90666146Y-51370499D01*
X90755288Y-51346614D01*
X90835212Y-51300469D01*
X90900469Y-51235212D01*
X90946614Y-51155288D01*
X90970499Y-51066146D01*
X90970500Y-51066146D01*
X90970500Y-51026128D01*
X90992174Y-50973802D01*
X91113802Y-50852174D01*
X91166128Y-50830500D01*
X93045530Y-50830500D01*
X93045538Y-50830501D01*
X93054150Y-50830501D01*
X93145850Y-50830501D01*
X93195476Y-50809944D01*
X93230568Y-50795409D01*
X93295409Y-50730568D01*
X93295409Y-50730567D01*
X93305814Y-50720162D01*
X93305816Y-50720159D01*
X95252121Y-48773853D01*
X98329500Y-48773853D01*
X98329500Y-48866146D01*
X98353384Y-48955284D01*
X98353386Y-48955289D01*
X98399528Y-49035208D01*
X98399529Y-49035209D01*
X98399531Y-49035212D01*
X98464788Y-49100469D01*
X98544712Y-49146614D01*
X98544713Y-49146614D01*
X98544715Y-49146615D01*
X98582480Y-49156734D01*
X98633853Y-49170499D01*
X98633854Y-49170500D01*
X98633856Y-49170500D01*
X98726146Y-49170500D01*
X98726146Y-49170499D01*
X98815288Y-49146614D01*
X98895212Y-49100469D01*
X98960469Y-49035212D01*
X99006614Y-48955288D01*
X99030499Y-48866146D01*
X99030500Y-48866146D01*
X99030500Y-48773854D01*
X99030499Y-48773853D01*
X99030373Y-48773384D01*
X99006614Y-48684712D01*
X99004946Y-48681823D01*
X98960471Y-48604791D01*
X98960470Y-48604790D01*
X98960469Y-48604788D01*
X98895212Y-48539531D01*
X98895209Y-48539529D01*
X98895208Y-48539528D01*
X98815289Y-48493386D01*
X98815284Y-48493384D01*
X98726146Y-48469500D01*
X98726144Y-48469500D01*
X98633856Y-48469500D01*
X98633854Y-48469500D01*
X98544715Y-48493384D01*
X98544710Y-48493386D01*
X98464791Y-48539528D01*
X98399528Y-48604791D01*
X98353386Y-48684710D01*
X98353384Y-48684715D01*
X98329500Y-48773853D01*
X95252121Y-48773853D01*
X96919733Y-47106241D01*
X96972058Y-47084568D01*
X97009058Y-47094482D01*
X97044101Y-47114714D01*
X97064712Y-47126614D01*
X97064713Y-47126614D01*
X97064715Y-47126615D01*
X97102368Y-47136704D01*
X97153853Y-47150499D01*
X97153854Y-47150500D01*
X97153856Y-47150500D01*
X97246146Y-47150500D01*
X97246146Y-47150499D01*
X97335288Y-47126614D01*
X97415212Y-47080469D01*
X97480469Y-47015212D01*
X97526614Y-46935288D01*
X97550499Y-46846146D01*
X97550500Y-46846146D01*
X97550500Y-46753854D01*
X97550499Y-46753853D01*
X97526615Y-46664715D01*
X97526613Y-46664710D01*
X97480471Y-46584791D01*
X97480470Y-46584790D01*
X97480469Y-46584788D01*
X97473005Y-46577324D01*
X97451332Y-46525000D01*
X97473005Y-46472675D01*
X97480469Y-46465212D01*
X97526614Y-46385288D01*
X97550499Y-46296146D01*
X97550500Y-46296146D01*
X97550500Y-46245601D01*
X97572174Y-46193275D01*
X97624500Y-46171601D01*
X97676826Y-46193275D01*
G37*
%TD.AperFunction*%
%TA.AperFunction,Conductor*%
G36*
X106957607Y-58387996D02*
G01*
X106995347Y-58430227D01*
X106999500Y-58454668D01*
X106999500Y-61655168D01*
X106977826Y-61707494D01*
X106925500Y-61729168D01*
X106873175Y-61707494D01*
X106835212Y-61669531D01*
X106835209Y-61669529D01*
X106835208Y-61669528D01*
X106755289Y-61623386D01*
X106755284Y-61623384D01*
X106666146Y-61599500D01*
X106666144Y-61599500D01*
X106573856Y-61599500D01*
X106573854Y-61599500D01*
X106484715Y-61623384D01*
X106484710Y-61623386D01*
X106404791Y-61669528D01*
X106339528Y-61734791D01*
X106293386Y-61814710D01*
X106293384Y-61814715D01*
X106269500Y-61903853D01*
X106269500Y-61943872D01*
X106247826Y-61996198D01*
X104196198Y-64047826D01*
X104143872Y-64069500D01*
X103991329Y-64069500D01*
X103939003Y-64047826D01*
X103917329Y-63995500D01*
X103918240Y-63983924D01*
X103930500Y-63906519D01*
X103930499Y-62762350D01*
X103952173Y-62710025D01*
X104004499Y-62688351D01*
X104056825Y-62710025D01*
X104070915Y-62731114D01*
X104070961Y-62731088D01*
X104071359Y-62731778D01*
X104072868Y-62734036D01*
X104073384Y-62735282D01*
X104073386Y-62735288D01*
X104073387Y-62735289D01*
X104073388Y-62735291D01*
X104119528Y-62815208D01*
X104119529Y-62815209D01*
X104119531Y-62815212D01*
X104184788Y-62880469D01*
X104184790Y-62880470D01*
X104184791Y-62880471D01*
X104264710Y-62926613D01*
X104264712Y-62926614D01*
X104264713Y-62926614D01*
X104264715Y-62926615D01*
X104308485Y-62938343D01*
X104353853Y-62950499D01*
X104353854Y-62950500D01*
X104353856Y-62950500D01*
X104446146Y-62950500D01*
X104446146Y-62950499D01*
X104535288Y-62926614D01*
X104615212Y-62880469D01*
X104680469Y-62815212D01*
X104726614Y-62735288D01*
X104750499Y-62646146D01*
X104750500Y-62646146D01*
X104750500Y-62553854D01*
X104750499Y-62553853D01*
X104741677Y-62520930D01*
X104737517Y-62505404D01*
X104726615Y-62464715D01*
X104726614Y-62464714D01*
X104726614Y-62464712D01*
X104694809Y-62409626D01*
X104687417Y-62353475D01*
X104721895Y-62308541D01*
X104758896Y-62298627D01*
X104804958Y-62298627D01*
X104804958Y-62298626D01*
X104894100Y-62274741D01*
X104974024Y-62228596D01*
X105039281Y-62163339D01*
X105085426Y-62083415D01*
X105109311Y-61994273D01*
X105109312Y-61994273D01*
X105109312Y-61901981D01*
X105109311Y-61901980D01*
X105085427Y-61812842D01*
X105085425Y-61812837D01*
X105039283Y-61732918D01*
X105039282Y-61732917D01*
X105039281Y-61732915D01*
X104974024Y-61667658D01*
X104974021Y-61667656D01*
X104974020Y-61667655D01*
X104894101Y-61621513D01*
X104894096Y-61621511D01*
X104804958Y-61597627D01*
X104804956Y-61597627D01*
X104712668Y-61597627D01*
X104712666Y-61597627D01*
X104618839Y-61622768D01*
X104618099Y-61620009D01*
X104570512Y-61620001D01*
X104530471Y-61579945D01*
X104527365Y-61532486D01*
X104542335Y-61476615D01*
X104550499Y-61446146D01*
X104550500Y-61446146D01*
X104550500Y-61353854D01*
X104550499Y-61353853D01*
X104549918Y-61351686D01*
X104526614Y-61264712D01*
X104526613Y-61264710D01*
X104480471Y-61184791D01*
X104480470Y-61184790D01*
X104480469Y-61184788D01*
X104415212Y-61119531D01*
X104415209Y-61119529D01*
X104415208Y-61119528D01*
X104335289Y-61073386D01*
X104335284Y-61073384D01*
X104246146Y-61049500D01*
X104246144Y-61049500D01*
X104153856Y-61049500D01*
X104153854Y-61049500D01*
X104064715Y-61073384D01*
X104064710Y-61073386D01*
X103984791Y-61119528D01*
X103919528Y-61184791D01*
X103873386Y-61264710D01*
X103873384Y-61264715D01*
X103849500Y-61353853D01*
X103849500Y-61446146D01*
X103873384Y-61535284D01*
X103873386Y-61535289D01*
X103914574Y-61606627D01*
X103921967Y-61662779D01*
X103887488Y-61707713D01*
X103850488Y-61717627D01*
X102164728Y-61717627D01*
X102112402Y-61695953D01*
X101945012Y-61528563D01*
X101923338Y-61476237D01*
X101945012Y-61423911D01*
X101960338Y-61412151D01*
X102015212Y-61380469D01*
X102080469Y-61315212D01*
X102126614Y-61235288D01*
X102150499Y-61146146D01*
X102150500Y-61146146D01*
X102150500Y-61106126D01*
X102172172Y-61053802D01*
X102189157Y-61036817D01*
X102189160Y-61036816D01*
X102199567Y-61026409D01*
X102199568Y-61026409D01*
X102264409Y-60961568D01*
X102299500Y-60876849D01*
X102299500Y-60353853D01*
X103849500Y-60353853D01*
X103849500Y-60446146D01*
X103873384Y-60535284D01*
X103873386Y-60535289D01*
X103919528Y-60615208D01*
X103919529Y-60615209D01*
X103919531Y-60615212D01*
X103984788Y-60680469D01*
X103984790Y-60680470D01*
X103984791Y-60680471D01*
X104064710Y-60726613D01*
X104064712Y-60726614D01*
X104064713Y-60726614D01*
X104064715Y-60726615D01*
X104109284Y-60738557D01*
X104153853Y-60750499D01*
X104153854Y-60750500D01*
X104153856Y-60750500D01*
X104246146Y-60750500D01*
X104246146Y-60750499D01*
X104335288Y-60726614D01*
X104415212Y-60680469D01*
X104480469Y-60615212D01*
X104526614Y-60535288D01*
X104550499Y-60446146D01*
X104550500Y-60446146D01*
X104550500Y-60353854D01*
X104550499Y-60353853D01*
X104526615Y-60264715D01*
X104526613Y-60264710D01*
X104480471Y-60184791D01*
X104480470Y-60184790D01*
X104480469Y-60184788D01*
X104415212Y-60119531D01*
X104415209Y-60119529D01*
X104415208Y-60119528D01*
X104335289Y-60073386D01*
X104335284Y-60073384D01*
X104246146Y-60049500D01*
X104246144Y-60049500D01*
X104153856Y-60049500D01*
X104153854Y-60049500D01*
X104064715Y-60073384D01*
X104064710Y-60073386D01*
X103984791Y-60119528D01*
X103919528Y-60184791D01*
X103873386Y-60264710D01*
X103873384Y-60264715D01*
X103849500Y-60353853D01*
X102299500Y-60353853D01*
X102299500Y-58645539D01*
X102321174Y-58593213D01*
X102373500Y-58571539D01*
X102425826Y-58593213D01*
X102436153Y-58606163D01*
X102524111Y-58746146D01*
X102557477Y-58799248D01*
X102727789Y-59012813D01*
X102732584Y-59018825D01*
X102931175Y-59217416D01*
X103150752Y-59392523D01*
X103388555Y-59541945D01*
X103641592Y-59663801D01*
X103906682Y-59756560D01*
X103906687Y-59756561D01*
X103906690Y-59756562D01*
X104180486Y-59819054D01*
X104180487Y-59819054D01*
X104180491Y-59819055D01*
X104459575Y-59850500D01*
X104459579Y-59850500D01*
X104740421Y-59850500D01*
X104740425Y-59850500D01*
X105019509Y-59819055D01*
X105293318Y-59756560D01*
X105558408Y-59663801D01*
X105811445Y-59541945D01*
X106049248Y-59392523D01*
X106268825Y-59217416D01*
X106467416Y-59018825D01*
X106642523Y-58799248D01*
X106791945Y-58561445D01*
X106852553Y-58435591D01*
X106858828Y-58422561D01*
X106901059Y-58384821D01*
X106957607Y-58387996D01*
G37*
%TD.AperFunction*%
%TA.AperFunction,Conductor*%
G36*
X103060093Y-53301775D02*
G01*
X103079244Y-53304296D01*
X103085331Y-53312228D01*
X103094571Y-53316056D01*
X103113723Y-53349228D01*
X103123385Y-53385285D01*
X103123386Y-53385289D01*
X103169528Y-53465208D01*
X103169529Y-53465209D01*
X103169531Y-53465212D01*
X103234788Y-53530469D01*
X103234790Y-53530470D01*
X103234791Y-53530471D01*
X103314710Y-53576613D01*
X103314712Y-53576614D01*
X103314713Y-53576614D01*
X103314715Y-53576615D01*
X103359284Y-53588557D01*
X103403853Y-53600499D01*
X103403854Y-53600500D01*
X103403856Y-53600500D01*
X103496146Y-53600500D01*
X103496146Y-53600499D01*
X103585288Y-53576614D01*
X103650935Y-53538711D01*
X103707087Y-53531319D01*
X103752021Y-53565797D01*
X103759414Y-53621950D01*
X103740261Y-53655124D01*
X100125826Y-57269559D01*
X100073500Y-57291233D01*
X100021174Y-57269559D01*
X99999500Y-57217233D01*
X99999500Y-56337128D01*
X100021174Y-56284802D01*
X101495692Y-54810284D01*
X102989920Y-53316055D01*
X103007766Y-53308663D01*
X103023091Y-53296904D01*
X103033005Y-53298209D01*
X103042245Y-53294382D01*
X103060093Y-53301775D01*
G37*
%TD.AperFunction*%
%TA.AperFunction,Conductor*%
G36*
X106977826Y-43452801D02*
G01*
X106999500Y-43505127D01*
X106999500Y-48818959D01*
X106977826Y-48871285D01*
X106925500Y-48892959D01*
X106873174Y-48871285D01*
X106863971Y-48860071D01*
X106862091Y-48857258D01*
X106821463Y-48796453D01*
X106724547Y-48699537D01*
X106610585Y-48623390D01*
X106610581Y-48623388D01*
X106610579Y-48623387D01*
X106610580Y-48623387D01*
X106483961Y-48570940D01*
X106483950Y-48570937D01*
X106382680Y-48550793D01*
X106349530Y-48544200D01*
X106212470Y-48544200D01*
X106185877Y-48549489D01*
X106078049Y-48570937D01*
X106078038Y-48570940D01*
X105951419Y-48623387D01*
X105837453Y-48699536D01*
X105837452Y-48699538D01*
X105740538Y-48796452D01*
X105740536Y-48796453D01*
X105664387Y-48910419D01*
X105611940Y-49037038D01*
X105611937Y-49037049D01*
X105585200Y-49171470D01*
X105585200Y-49308529D01*
X105611937Y-49442950D01*
X105611940Y-49442961D01*
X105664387Y-49569580D01*
X105735199Y-49675559D01*
X105740537Y-49683547D01*
X105837453Y-49780463D01*
X105951415Y-49856610D01*
X105951420Y-49856612D01*
X105951419Y-49856612D01*
X106061416Y-49902174D01*
X106078043Y-49909061D01*
X106212470Y-49935800D01*
X106212471Y-49935800D01*
X106349529Y-49935800D01*
X106349530Y-49935800D01*
X106483957Y-49909061D01*
X106610585Y-49856610D01*
X106724547Y-49780463D01*
X106821463Y-49683547D01*
X106863972Y-49619926D01*
X106911063Y-49588462D01*
X106966612Y-49599511D01*
X106998078Y-49646603D01*
X106999500Y-49661040D01*
X106999500Y-50740022D01*
X106977826Y-50792348D01*
X106925500Y-50814022D01*
X106888500Y-50804108D01*
X106835289Y-50773386D01*
X106835284Y-50773384D01*
X106746146Y-50749500D01*
X106746144Y-50749500D01*
X106653856Y-50749500D01*
X106653854Y-50749500D01*
X106564715Y-50773384D01*
X106564710Y-50773386D01*
X106484791Y-50819528D01*
X106419528Y-50884791D01*
X106373386Y-50964710D01*
X106373384Y-50964715D01*
X106357549Y-51023814D01*
X106338397Y-51056987D01*
X103855124Y-53540261D01*
X103802798Y-53561935D01*
X103750472Y-53540261D01*
X103728798Y-53487935D01*
X103738711Y-53450935D01*
X103776614Y-53385288D01*
X103800499Y-53296146D01*
X103800500Y-53296146D01*
X103800500Y-53203854D01*
X103800499Y-53203853D01*
X103799987Y-53201944D01*
X103778719Y-53122568D01*
X103776615Y-53114715D01*
X103776613Y-53114710D01*
X103730471Y-53034791D01*
X103730470Y-53034790D01*
X103730469Y-53034788D01*
X103665212Y-52969531D01*
X103665209Y-52969529D01*
X103665208Y-52969528D01*
X103585289Y-52923386D01*
X103585285Y-52923385D01*
X103549228Y-52913723D01*
X103504296Y-52879244D01*
X103496904Y-52823091D01*
X103516055Y-52789920D01*
X103726172Y-52579802D01*
X103726175Y-52579801D01*
X103736580Y-52569396D01*
X103736581Y-52569396D01*
X103801422Y-52504555D01*
X103825616Y-52446146D01*
X103825718Y-52445899D01*
X103825718Y-52445898D01*
X103830113Y-52435288D01*
X103836514Y-52419836D01*
X103836514Y-52328137D01*
X103836513Y-52328134D01*
X103836513Y-51902498D01*
X103858186Y-51850173D01*
X103886482Y-51821878D01*
X103932627Y-51741954D01*
X103956512Y-51652812D01*
X103956513Y-51652812D01*
X103956513Y-51560520D01*
X103956512Y-51560519D01*
X103932628Y-51471381D01*
X103932626Y-51471376D01*
X103886484Y-51391457D01*
X103886483Y-51391456D01*
X103886482Y-51391454D01*
X103882852Y-51387824D01*
X103861179Y-51335500D01*
X103882853Y-51283174D01*
X103935179Y-51261500D01*
X104324057Y-51261500D01*
X104324065Y-51261501D01*
X104332677Y-51261501D01*
X104424377Y-51261501D01*
X104474003Y-51240944D01*
X104509095Y-51226409D01*
X104573936Y-51161568D01*
X104573936Y-51161567D01*
X104584341Y-51151162D01*
X104584343Y-51151159D01*
X105151159Y-50584343D01*
X105151162Y-50584341D01*
X105161567Y-50573936D01*
X105161568Y-50573936D01*
X105226409Y-50509095D01*
X105254546Y-50441165D01*
X105261500Y-50424377D01*
X105261500Y-50332678D01*
X105261500Y-48825943D01*
X105261501Y-48825934D01*
X105261501Y-48725624D01*
X105226409Y-48640905D01*
X105226408Y-48640904D01*
X104334344Y-47748841D01*
X104334344Y-47748840D01*
X104259096Y-47673592D01*
X104259092Y-47673589D01*
X104220294Y-47657519D01*
X104183374Y-47642226D01*
X104174377Y-47638499D01*
X104173155Y-47637993D01*
X104133107Y-47597944D01*
X104133107Y-47541307D01*
X104149147Y-47517301D01*
X104170276Y-47496173D01*
X104177961Y-47492989D01*
X104182718Y-47486168D01*
X104203289Y-47482498D01*
X104222601Y-47474500D01*
X104327399Y-47474500D01*
X104379725Y-47496174D01*
X104831370Y-47947819D01*
X104831373Y-47947823D01*
X104835591Y-47952041D01*
X104900432Y-48016882D01*
X104947607Y-48036422D01*
X104985150Y-48051973D01*
X104985151Y-48051973D01*
X105143584Y-48051973D01*
X105143592Y-48051974D01*
X105152204Y-48051974D01*
X105243904Y-48051974D01*
X105293530Y-48031417D01*
X105328622Y-48016882D01*
X105393463Y-47952041D01*
X105393463Y-47952040D01*
X105403868Y-47941635D01*
X105403869Y-47941632D01*
X105969063Y-47376440D01*
X106021389Y-47354766D01*
X106035482Y-47354766D01*
X106035482Y-47354765D01*
X106124624Y-47330880D01*
X106204548Y-47284735D01*
X106269805Y-47219478D01*
X106300562Y-47166206D01*
X106345494Y-47131729D01*
X106383800Y-47131729D01*
X106430774Y-47144315D01*
X106453853Y-47150499D01*
X106453854Y-47150500D01*
X106453856Y-47150500D01*
X106546146Y-47150500D01*
X106546146Y-47150499D01*
X106635288Y-47126614D01*
X106715212Y-47080469D01*
X106780469Y-47015212D01*
X106826614Y-46935288D01*
X106850499Y-46846146D01*
X106850500Y-46846146D01*
X106850500Y-46753854D01*
X106850499Y-46753853D01*
X106826615Y-46664715D01*
X106826613Y-46664710D01*
X106780471Y-46584791D01*
X106780470Y-46584790D01*
X106780469Y-46584788D01*
X106715212Y-46519531D01*
X106715209Y-46519529D01*
X106715208Y-46519528D01*
X106635289Y-46473386D01*
X106635284Y-46473384D01*
X106546146Y-46449500D01*
X106546144Y-46449500D01*
X106453856Y-46449500D01*
X106453854Y-46449500D01*
X106364715Y-46473384D01*
X106364710Y-46473386D01*
X106284791Y-46519528D01*
X106219527Y-46584792D01*
X106188773Y-46638059D01*
X106143840Y-46672537D01*
X106105536Y-46672537D01*
X106035480Y-46653766D01*
X105943192Y-46653766D01*
X105943190Y-46653766D01*
X105854051Y-46677650D01*
X105854046Y-46677652D01*
X105774127Y-46723794D01*
X105708864Y-46789057D01*
X105662722Y-46868976D01*
X105662720Y-46868981D01*
X105638836Y-46958119D01*
X105638836Y-47024063D01*
X105632797Y-47038642D01*
X105617162Y-47076388D01*
X105617161Y-47076389D01*
X105588561Y-47104988D01*
X105536235Y-47126661D01*
X105483909Y-47104986D01*
X105472152Y-47089663D01*
X105440469Y-47034788D01*
X105375212Y-46969531D01*
X105375209Y-46969529D01*
X105375208Y-46969528D01*
X105295289Y-46923386D01*
X105295284Y-46923384D01*
X105206146Y-46899500D01*
X105206144Y-46899500D01*
X105113856Y-46899500D01*
X105113854Y-46899500D01*
X105024715Y-46923384D01*
X105024710Y-46923386D01*
X104944791Y-46969528D01*
X104879528Y-47034791D01*
X104833386Y-47114710D01*
X104833385Y-47114714D01*
X104827850Y-47135371D01*
X104816090Y-47150695D01*
X104808698Y-47168543D01*
X104799458Y-47172370D01*
X104793371Y-47180303D01*
X104774220Y-47182823D01*
X104756372Y-47190217D01*
X104747132Y-47186389D01*
X104737218Y-47187695D01*
X104704046Y-47168543D01*
X104659344Y-47123841D01*
X104659344Y-47123840D01*
X104584096Y-47048592D01*
X104584092Y-47048589D01*
X104540420Y-47030500D01*
X104499377Y-47013499D01*
X104407677Y-47013499D01*
X104399065Y-47013499D01*
X104399057Y-47013500D01*
X104360655Y-47013500D01*
X104308329Y-46991826D01*
X104286655Y-46939500D01*
X104308329Y-46887174D01*
X104833614Y-46361889D01*
X106420159Y-44775342D01*
X106420162Y-44775341D01*
X106430567Y-44764936D01*
X106430568Y-44764936D01*
X106495409Y-44700095D01*
X106512954Y-44657735D01*
X106530501Y-44615376D01*
X106530501Y-44523677D01*
X106530501Y-44517719D01*
X106530500Y-44517705D01*
X106530500Y-44295832D01*
X106552173Y-44243507D01*
X106580469Y-44215212D01*
X106626614Y-44135288D01*
X106650499Y-44046146D01*
X106650500Y-44046146D01*
X106650500Y-43953854D01*
X106650499Y-43953853D01*
X106626615Y-43864715D01*
X106626613Y-43864710D01*
X106594483Y-43809059D01*
X106591961Y-43789908D01*
X106584569Y-43772061D01*
X106588396Y-43762821D01*
X106587091Y-43752906D01*
X106606240Y-43719736D01*
X106634407Y-43691570D01*
X106634407Y-43691568D01*
X106873174Y-43452801D01*
X106925500Y-43431127D01*
X106977826Y-43452801D01*
G37*
%TD.AperFunction*%
%TA.AperFunction,Conductor*%
G36*
X96044081Y-46403813D02*
G01*
X96044082Y-46403814D01*
X96079528Y-46465208D01*
X96079529Y-46465209D01*
X96079531Y-46465212D01*
X96144788Y-46530469D01*
X96144790Y-46530470D01*
X96144791Y-46530471D01*
X96205100Y-46565291D01*
X96224712Y-46576614D01*
X96261472Y-46586463D01*
X96306405Y-46620942D01*
X96313798Y-46677094D01*
X96294645Y-46710268D01*
X93607088Y-49397826D01*
X93554762Y-49419500D01*
X93152972Y-49419500D01*
X93100646Y-49397826D01*
X93078972Y-49345500D01*
X93088886Y-49308500D01*
X93131154Y-49235289D01*
X93131155Y-49235288D01*
X93155040Y-49146146D01*
X93155041Y-49146146D01*
X93155041Y-49053854D01*
X93155040Y-49053853D01*
X93150537Y-49037049D01*
X93131155Y-48964712D01*
X93103945Y-48917583D01*
X93085012Y-48884791D01*
X93085011Y-48884790D01*
X93085010Y-48884788D01*
X93019753Y-48819531D01*
X93019750Y-48819529D01*
X93019748Y-48819527D01*
X92993094Y-48804138D01*
X92958616Y-48759205D01*
X92961384Y-48717044D01*
X92960332Y-48716762D01*
X92980657Y-48640905D01*
X92985472Y-48622935D01*
X92985473Y-48622935D01*
X92985473Y-48530643D01*
X92985472Y-48530642D01*
X92976228Y-48496144D01*
X92961587Y-48441501D01*
X92915442Y-48361577D01*
X92850185Y-48296320D01*
X92850182Y-48296318D01*
X92850181Y-48296317D01*
X92770262Y-48250175D01*
X92770257Y-48250173D01*
X92681119Y-48226289D01*
X92681117Y-48226289D01*
X92588829Y-48226289D01*
X92588827Y-48226289D01*
X92499688Y-48250173D01*
X92499683Y-48250175D01*
X92419764Y-48296317D01*
X92354501Y-48361580D01*
X92308359Y-48441499D01*
X92308357Y-48441504D01*
X92284473Y-48530642D01*
X92284473Y-48622935D01*
X92308357Y-48712073D01*
X92308359Y-48712078D01*
X92354501Y-48791997D01*
X92354502Y-48791998D01*
X92354504Y-48792001D01*
X92419761Y-48857258D01*
X92419763Y-48857259D01*
X92419764Y-48857260D01*
X92446418Y-48872649D01*
X92480897Y-48917583D01*
X92478135Y-48959746D01*
X92479182Y-48960027D01*
X92454041Y-49053853D01*
X92454041Y-49146143D01*
X92456878Y-49156734D01*
X92449482Y-49212886D01*
X92404547Y-49247363D01*
X92366246Y-49247362D01*
X92345981Y-49241932D01*
X92253693Y-49241932D01*
X92253691Y-49241932D01*
X92164552Y-49265816D01*
X92164547Y-49265818D01*
X92084628Y-49311960D01*
X92019365Y-49377223D01*
X91973223Y-49457142D01*
X91973221Y-49457147D01*
X91949337Y-49546285D01*
X91949337Y-49638578D01*
X91973221Y-49727716D01*
X91973223Y-49727721D01*
X92019365Y-49807640D01*
X92019366Y-49807641D01*
X92019368Y-49807644D01*
X92084625Y-49872901D01*
X92084627Y-49872902D01*
X92084628Y-49872903D01*
X92164547Y-49919045D01*
X92164549Y-49919046D01*
X92164550Y-49919046D01*
X92164552Y-49919047D01*
X92209121Y-49930989D01*
X92253690Y-49942931D01*
X92253691Y-49942932D01*
X92253693Y-49942932D01*
X92345983Y-49942932D01*
X92345983Y-49942931D01*
X92435125Y-49919046D01*
X92484714Y-49890414D01*
X92521715Y-49880500D01*
X93314872Y-49880500D01*
X93367198Y-49902174D01*
X93388872Y-49954500D01*
X93367198Y-50006826D01*
X93026198Y-50347826D01*
X92973872Y-50369500D01*
X91094470Y-50369500D01*
X91094462Y-50369499D01*
X91085850Y-50369499D01*
X90994151Y-50369499D01*
X90951790Y-50387044D01*
X90951791Y-50387045D01*
X90909433Y-50404590D01*
X90844590Y-50469433D01*
X90666198Y-50647826D01*
X90613872Y-50669500D01*
X90573854Y-50669500D01*
X90484715Y-50693384D01*
X90484710Y-50693386D01*
X90404791Y-50739528D01*
X90339527Y-50804792D01*
X90339527Y-50804793D01*
X90338583Y-50806428D01*
X90337827Y-50807007D01*
X90336573Y-50808642D01*
X90336135Y-50808305D01*
X90293647Y-50840903D01*
X90237495Y-50833506D01*
X90203020Y-50788570D01*
X90200500Y-50769423D01*
X90200500Y-46655128D01*
X90222174Y-46602802D01*
X90274500Y-46581128D01*
X90326826Y-46602802D01*
X91096585Y-47372561D01*
X91096588Y-47372565D01*
X91100806Y-47376783D01*
X91165647Y-47441624D01*
X91222595Y-47465212D01*
X91250365Y-47476715D01*
X91250366Y-47476715D01*
X91739113Y-47476715D01*
X91791439Y-47498389D01*
X91813113Y-47550715D01*
X91803199Y-47587715D01*
X91793386Y-47604710D01*
X91793384Y-47604715D01*
X91769500Y-47693853D01*
X91769500Y-47786146D01*
X91793384Y-47875284D01*
X91793386Y-47875289D01*
X91839528Y-47955208D01*
X91839529Y-47955209D01*
X91839531Y-47955212D01*
X91904788Y-48020469D01*
X91904790Y-48020470D01*
X91904791Y-48020471D01*
X91959355Y-48051974D01*
X91984712Y-48066614D01*
X91984713Y-48066614D01*
X91984715Y-48066615D01*
X92029284Y-48078557D01*
X92073853Y-48090499D01*
X92073854Y-48090500D01*
X92073856Y-48090500D01*
X92166146Y-48090500D01*
X92166146Y-48090499D01*
X92255288Y-48066614D01*
X92335212Y-48020469D01*
X92400469Y-47955212D01*
X92443017Y-47881516D01*
X92487949Y-47847040D01*
X92544102Y-47854432D01*
X92571187Y-47881516D01*
X92574049Y-47886473D01*
X92582511Y-47901130D01*
X92582514Y-47901134D01*
X92647771Y-47966391D01*
X92647773Y-47966392D01*
X92647774Y-47966393D01*
X92699307Y-47996146D01*
X92727695Y-48012536D01*
X92727696Y-48012536D01*
X92727698Y-48012537D01*
X92757301Y-48020469D01*
X92816836Y-48036421D01*
X92816837Y-48036422D01*
X92816839Y-48036422D01*
X92909129Y-48036422D01*
X92909129Y-48036421D01*
X92998271Y-48012536D01*
X93078195Y-47966391D01*
X93143452Y-47901134D01*
X93189597Y-47821210D01*
X93213482Y-47732068D01*
X93213483Y-47732068D01*
X93213483Y-47639776D01*
X93213482Y-47639775D01*
X93213140Y-47638500D01*
X93194751Y-47569868D01*
X93202143Y-47513715D01*
X93247076Y-47479237D01*
X93266229Y-47476715D01*
X93969315Y-47476715D01*
X93969323Y-47476716D01*
X93977935Y-47476716D01*
X94069635Y-47476716D01*
X94119261Y-47456159D01*
X94154353Y-47441624D01*
X94219194Y-47376783D01*
X94219194Y-47376782D01*
X94229599Y-47366377D01*
X94229601Y-47366374D01*
X95141718Y-46454256D01*
X95194043Y-46432583D01*
X95246369Y-46454257D01*
X95258128Y-46469582D01*
X95293561Y-46530952D01*
X95293563Y-46530954D01*
X95293565Y-46530957D01*
X95358822Y-46596214D01*
X95358824Y-46596215D01*
X95358825Y-46596216D01*
X95411475Y-46626614D01*
X95438746Y-46642359D01*
X95438747Y-46642359D01*
X95438749Y-46642360D01*
X95481318Y-46653766D01*
X95527887Y-46666244D01*
X95527888Y-46666245D01*
X95527890Y-46666245D01*
X95620180Y-46666245D01*
X95620180Y-46666244D01*
X95709322Y-46642359D01*
X95789246Y-46596214D01*
X95854503Y-46530957D01*
X95900648Y-46451033D01*
X95908518Y-46421660D01*
X95942995Y-46376729D01*
X95999148Y-46369335D01*
X96044081Y-46403813D01*
G37*
%TD.AperFunction*%
%TA.AperFunction,Conductor*%
G36*
X104788029Y-49805663D02*
G01*
X104800500Y-49846775D01*
X104800500Y-50252399D01*
X104778826Y-50304725D01*
X104304725Y-50778826D01*
X104252399Y-50800500D01*
X103294601Y-50800500D01*
X103242275Y-50778826D01*
X103220601Y-50726500D01*
X103242275Y-50674174D01*
X103313242Y-50603206D01*
X103592859Y-50323588D01*
X103592862Y-50323587D01*
X103603267Y-50313182D01*
X103603268Y-50313182D01*
X103668109Y-50248341D01*
X103698359Y-50175309D01*
X103703200Y-50163623D01*
X103703200Y-50071924D01*
X103703200Y-49850583D01*
X103724874Y-49798257D01*
X103777200Y-49776583D01*
X103818308Y-49789053D01*
X103919415Y-49856610D01*
X103919420Y-49856612D01*
X103919419Y-49856612D01*
X104029416Y-49902174D01*
X104046043Y-49909061D01*
X104180470Y-49935800D01*
X104180471Y-49935800D01*
X104317529Y-49935800D01*
X104317530Y-49935800D01*
X104451957Y-49909061D01*
X104578585Y-49856610D01*
X104685389Y-49785245D01*
X104740937Y-49774197D01*
X104788029Y-49805663D01*
G37*
%TD.AperFunction*%
%TA.AperFunction,Conductor*%
G36*
X91299926Y-40449447D02*
G01*
X91333096Y-40468599D01*
X91521843Y-40657346D01*
X91521846Y-40657350D01*
X91526064Y-40661568D01*
X91590905Y-40726409D01*
X91649067Y-40750500D01*
X91675623Y-40761500D01*
X91675624Y-40761500D01*
X93754872Y-40761500D01*
X93807198Y-40783174D01*
X96467198Y-43443174D01*
X96488872Y-43495500D01*
X96467198Y-43547826D01*
X96414872Y-43569500D01*
X96154150Y-43569500D01*
X96129336Y-43579778D01*
X96069434Y-43604589D01*
X96069431Y-43604592D01*
X94729591Y-44944431D01*
X94719208Y-44969499D01*
X94694499Y-45029149D01*
X94694499Y-45039168D01*
X94672826Y-45091492D01*
X94659531Y-45104787D01*
X94659529Y-45104790D01*
X94613386Y-45184710D01*
X94613384Y-45184715D01*
X94589500Y-45273853D01*
X94589500Y-45366146D01*
X94613384Y-45455284D01*
X94613386Y-45455289D01*
X94659528Y-45535208D01*
X94659529Y-45535209D01*
X94659531Y-45535212D01*
X94724788Y-45600469D01*
X94724790Y-45600470D01*
X94724791Y-45600471D01*
X94804710Y-45646613D01*
X94804712Y-45646614D01*
X94804713Y-45646614D01*
X94804715Y-45646615D01*
X94822271Y-45651319D01*
X94893853Y-45670499D01*
X94893854Y-45670500D01*
X94893856Y-45670500D01*
X94986146Y-45670500D01*
X94986146Y-45670499D01*
X95075288Y-45646614D01*
X95114049Y-45624235D01*
X95170202Y-45616841D01*
X95215135Y-45651319D01*
X95222529Y-45707472D01*
X95203376Y-45740646D01*
X94157314Y-46786708D01*
X94104988Y-46808382D01*
X94052662Y-46786708D01*
X94033509Y-46753535D01*
X94032560Y-46749993D01*
X94032560Y-46749991D01*
X94008674Y-46660847D01*
X93971359Y-46596216D01*
X93962531Y-46580926D01*
X93962530Y-46580925D01*
X93962529Y-46580923D01*
X93897272Y-46515666D01*
X93843117Y-46484399D01*
X93808639Y-46439465D01*
X93811213Y-46401592D01*
X93808737Y-46400929D01*
X93833877Y-46307102D01*
X93833878Y-46307102D01*
X93833878Y-46214810D01*
X93833877Y-46214809D01*
X93809993Y-46125671D01*
X93809991Y-46125666D01*
X93763849Y-46045747D01*
X93763848Y-46045746D01*
X93763847Y-46045744D01*
X93698590Y-45980487D01*
X93698587Y-45980485D01*
X93698586Y-45980484D01*
X93618667Y-45934342D01*
X93618662Y-45934340D01*
X93529524Y-45910456D01*
X93529522Y-45910456D01*
X93437234Y-45910456D01*
X93437232Y-45910456D01*
X93348093Y-45934340D01*
X93348088Y-45934342D01*
X93268169Y-45980484D01*
X93202905Y-46045748D01*
X93202905Y-46045749D01*
X93187727Y-46072037D01*
X93142793Y-46106515D01*
X93100216Y-46103725D01*
X93099971Y-46104643D01*
X93095357Y-46103406D01*
X93095329Y-46103405D01*
X93095289Y-46103388D01*
X93006144Y-46079502D01*
X93006142Y-46079502D01*
X92913854Y-46079502D01*
X92913852Y-46079502D01*
X92824713Y-46103386D01*
X92824708Y-46103388D01*
X92744789Y-46149530D01*
X92679526Y-46214793D01*
X92633384Y-46294712D01*
X92633382Y-46294717D01*
X92609498Y-46383855D01*
X92609498Y-46476148D01*
X92633382Y-46565286D01*
X92633384Y-46565291D01*
X92679526Y-46645210D01*
X92679527Y-46645211D01*
X92679529Y-46645214D01*
X92744786Y-46710471D01*
X92744788Y-46710472D01*
X92744789Y-46710473D01*
X92824708Y-46756615D01*
X92824710Y-46756616D01*
X92824711Y-46756616D01*
X92824713Y-46756617D01*
X92869282Y-46768559D01*
X92913851Y-46780501D01*
X92913852Y-46780502D01*
X92913854Y-46780502D01*
X93006144Y-46780502D01*
X93006144Y-46780501D01*
X93095286Y-46756616D01*
X93175210Y-46710471D01*
X93207972Y-46677708D01*
X93260295Y-46656035D01*
X93312621Y-46677708D01*
X93334296Y-46730034D01*
X93331776Y-46749181D01*
X93331560Y-46749985D01*
X93331560Y-46749991D01*
X93331560Y-46842279D01*
X93353072Y-46922562D01*
X93345679Y-46978715D01*
X93300746Y-47013194D01*
X93281593Y-47015715D01*
X91422343Y-47015715D01*
X91370017Y-46994041D01*
X90652174Y-46276198D01*
X90630500Y-46223872D01*
X90630500Y-46045835D01*
X90652173Y-45993510D01*
X90680469Y-45965215D01*
X90726614Y-45885291D01*
X90750499Y-45796149D01*
X90750500Y-45796149D01*
X90750500Y-45703857D01*
X90750499Y-45703856D01*
X90741561Y-45670500D01*
X90726614Y-45614715D01*
X90695300Y-45560478D01*
X90680471Y-45534794D01*
X90680470Y-45534793D01*
X90680469Y-45534791D01*
X90615212Y-45469534D01*
X90615209Y-45469532D01*
X90615208Y-45469531D01*
X90535289Y-45423389D01*
X90535284Y-45423387D01*
X90446146Y-45399503D01*
X90446144Y-45399503D01*
X90353856Y-45399503D01*
X90293652Y-45415634D01*
X90237499Y-45408241D01*
X90203021Y-45363307D01*
X90200500Y-45344155D01*
X90200500Y-42980790D01*
X90222174Y-42928464D01*
X90274500Y-42906790D01*
X90326826Y-42928464D01*
X90345978Y-42961636D01*
X90351110Y-42980790D01*
X90354286Y-42992643D01*
X90400428Y-43072562D01*
X90400429Y-43072563D01*
X90400431Y-43072566D01*
X90465688Y-43137823D01*
X90465690Y-43137824D01*
X90465691Y-43137825D01*
X90539004Y-43180153D01*
X90545612Y-43183968D01*
X90545613Y-43183968D01*
X90545615Y-43183969D01*
X90586773Y-43194997D01*
X90634753Y-43207853D01*
X90634754Y-43207854D01*
X90634756Y-43207854D01*
X90727046Y-43207854D01*
X90727046Y-43207853D01*
X90816188Y-43183968D01*
X90896112Y-43137823D01*
X90961369Y-43072566D01*
X91007514Y-42992642D01*
X91012548Y-42973854D01*
X91012548Y-42973853D01*
X92539500Y-42973853D01*
X92539500Y-43066146D01*
X92563384Y-43155284D01*
X92563386Y-43155289D01*
X92609528Y-43235208D01*
X92609529Y-43235209D01*
X92609531Y-43235212D01*
X92674788Y-43300469D01*
X92674790Y-43300470D01*
X92674791Y-43300471D01*
X92754710Y-43346613D01*
X92754712Y-43346614D01*
X92754713Y-43346614D01*
X92754715Y-43346615D01*
X92799284Y-43358557D01*
X92843853Y-43370499D01*
X92843854Y-43370500D01*
X92843856Y-43370500D01*
X92936146Y-43370500D01*
X92936146Y-43370499D01*
X93025288Y-43346614D01*
X93105212Y-43300469D01*
X93170469Y-43235212D01*
X93216614Y-43155288D01*
X93240499Y-43066146D01*
X93240500Y-43066146D01*
X93240500Y-42973854D01*
X93240499Y-42973853D01*
X93239412Y-42969798D01*
X93221648Y-42903498D01*
X93216615Y-42884715D01*
X93216613Y-42884710D01*
X93170471Y-42804791D01*
X93170470Y-42804790D01*
X93170469Y-42804788D01*
X93105212Y-42739531D01*
X93105209Y-42739529D01*
X93105208Y-42739528D01*
X93025289Y-42693386D01*
X93025284Y-42693384D01*
X92936146Y-42669500D01*
X92936144Y-42669500D01*
X92843856Y-42669500D01*
X92843854Y-42669500D01*
X92754715Y-42693384D01*
X92754710Y-42693386D01*
X92674791Y-42739528D01*
X92609528Y-42804791D01*
X92563386Y-42884710D01*
X92563384Y-42884715D01*
X92539500Y-42973853D01*
X91012548Y-42973853D01*
X91018978Y-42949859D01*
X91018979Y-42949854D01*
X91028857Y-42912988D01*
X91031400Y-42903498D01*
X91031400Y-42811210D01*
X91031400Y-42811208D01*
X91031399Y-42811207D01*
X91030875Y-42809253D01*
X91007514Y-42722066D01*
X91007280Y-42721660D01*
X90961371Y-42642145D01*
X90961370Y-42642144D01*
X90961369Y-42642142D01*
X90896112Y-42576885D01*
X90896109Y-42576883D01*
X90896108Y-42576882D01*
X90813199Y-42529014D01*
X90778720Y-42484080D01*
X90778721Y-42445775D01*
X90788264Y-42410157D01*
X90788265Y-42410157D01*
X90788265Y-42317865D01*
X90788264Y-42317864D01*
X90764380Y-42228726D01*
X90764378Y-42228721D01*
X90718236Y-42148802D01*
X90718235Y-42148801D01*
X90718234Y-42148799D01*
X90652977Y-42083542D01*
X90652974Y-42083540D01*
X90652973Y-42083539D01*
X90573054Y-42037397D01*
X90573049Y-42037395D01*
X90483911Y-42013511D01*
X90483909Y-42013511D01*
X90391621Y-42013511D01*
X90391619Y-42013511D01*
X90297792Y-42038652D01*
X90297418Y-42037257D01*
X90246175Y-42037253D01*
X90206130Y-41997201D01*
X90200500Y-41968888D01*
X90200500Y-41453853D01*
X92549500Y-41453853D01*
X92549500Y-41546146D01*
X92573384Y-41635284D01*
X92573386Y-41635289D01*
X92619528Y-41715208D01*
X92619529Y-41715209D01*
X92619531Y-41715212D01*
X92684788Y-41780469D01*
X92684790Y-41780470D01*
X92684791Y-41780471D01*
X92764710Y-41826613D01*
X92764712Y-41826614D01*
X92764713Y-41826614D01*
X92764715Y-41826615D01*
X92809284Y-41838557D01*
X92853853Y-41850499D01*
X92853854Y-41850500D01*
X92853856Y-41850500D01*
X92946146Y-41850500D01*
X92946146Y-41850499D01*
X93035288Y-41826614D01*
X93115212Y-41780469D01*
X93180469Y-41715212D01*
X93226614Y-41635288D01*
X93250499Y-41546146D01*
X93250500Y-41546146D01*
X93250500Y-41453854D01*
X93250499Y-41453853D01*
X93249597Y-41450488D01*
X93232836Y-41387934D01*
X93226615Y-41364715D01*
X93226613Y-41364710D01*
X93180471Y-41284791D01*
X93180470Y-41284790D01*
X93180469Y-41284788D01*
X93115212Y-41219531D01*
X93115209Y-41219529D01*
X93115208Y-41219528D01*
X93035289Y-41173386D01*
X93035284Y-41173384D01*
X92946146Y-41149500D01*
X92946144Y-41149500D01*
X92853856Y-41149500D01*
X92853854Y-41149500D01*
X92764715Y-41173384D01*
X92764710Y-41173386D01*
X92684791Y-41219528D01*
X92619528Y-41284791D01*
X92573386Y-41364710D01*
X92573384Y-41364715D01*
X92549500Y-41453853D01*
X90200500Y-41453853D01*
X90200500Y-41115263D01*
X90222174Y-41062937D01*
X90274500Y-41041263D01*
X90326826Y-41062937D01*
X90329180Y-41065291D01*
X90329182Y-41065294D01*
X90394439Y-41130551D01*
X90394441Y-41130552D01*
X90394442Y-41130553D01*
X90468630Y-41173386D01*
X90474363Y-41176696D01*
X90474364Y-41176696D01*
X90474366Y-41176697D01*
X90518935Y-41188639D01*
X90563504Y-41200581D01*
X90563505Y-41200582D01*
X90563507Y-41200582D01*
X90655797Y-41200582D01*
X90655797Y-41200581D01*
X90744939Y-41176696D01*
X90824863Y-41130551D01*
X90890120Y-41065294D01*
X90936265Y-40985370D01*
X90960150Y-40896228D01*
X90960151Y-40896228D01*
X90960151Y-40803936D01*
X90960150Y-40803935D01*
X90942070Y-40736458D01*
X90949462Y-40680305D01*
X90979424Y-40654041D01*
X90978487Y-40652417D01*
X91022996Y-40626719D01*
X91062611Y-40603847D01*
X91127868Y-40538590D01*
X91167100Y-40470638D01*
X91212033Y-40436160D01*
X91250335Y-40436160D01*
X91299926Y-40449447D01*
G37*
%TD.AperFunction*%
%TA.AperFunction,Conductor*%
G36*
X105905803Y-43795329D02*
G01*
X105915717Y-43794024D01*
X105931041Y-43805783D01*
X105948890Y-43813176D01*
X105952716Y-43822414D01*
X105960650Y-43828502D01*
X105963171Y-43847654D01*
X105970564Y-43865502D01*
X105968042Y-43884655D01*
X105949500Y-43953853D01*
X105949500Y-44046146D01*
X105973384Y-44135284D01*
X105973386Y-44135289D01*
X106019528Y-44215208D01*
X106019529Y-44215209D01*
X106019531Y-44215212D01*
X106047826Y-44243507D01*
X106069500Y-44295832D01*
X106069500Y-44443399D01*
X106047826Y-44495725D01*
X103604725Y-46938826D01*
X103552399Y-46960500D01*
X101917128Y-46960500D01*
X101864802Y-46938826D01*
X100682802Y-45756826D01*
X100661128Y-45704500D01*
X100682802Y-45652174D01*
X100735128Y-45630500D01*
X102377000Y-45630500D01*
X102429326Y-45652174D01*
X102451000Y-45704500D01*
X102451000Y-45726705D01*
X102450999Y-45726719D01*
X102450999Y-45824377D01*
X102471555Y-45874003D01*
X102480594Y-45895826D01*
X102486091Y-45909095D01*
X102550932Y-45973936D01*
X102561339Y-45984343D01*
X102561341Y-45984344D01*
X102593449Y-46016452D01*
X102602649Y-46027662D01*
X102604589Y-46030565D01*
X102604590Y-46030566D01*
X102604591Y-46030568D01*
X102669432Y-46095409D01*
X102679839Y-46105816D01*
X102679841Y-46105817D01*
X102827826Y-46253802D01*
X102849500Y-46306128D01*
X102849500Y-46346146D01*
X102873384Y-46435284D01*
X102873386Y-46435289D01*
X102919528Y-46515208D01*
X102919529Y-46515209D01*
X102919531Y-46515212D01*
X102984788Y-46580469D01*
X102984790Y-46580470D01*
X102984791Y-46580471D01*
X103019482Y-46600500D01*
X103064712Y-46626614D01*
X103064713Y-46626614D01*
X103064715Y-46626615D01*
X103107425Y-46638059D01*
X103153853Y-46650499D01*
X103153854Y-46650500D01*
X103153856Y-46650500D01*
X103246146Y-46650500D01*
X103246146Y-46650499D01*
X103335288Y-46626614D01*
X103415212Y-46580469D01*
X103480469Y-46515212D01*
X103526614Y-46435288D01*
X103550499Y-46346146D01*
X103550500Y-46346146D01*
X103550500Y-46253854D01*
X103550499Y-46253853D01*
X103550485Y-46253802D01*
X103526614Y-46164712D01*
X103504072Y-46125668D01*
X103480471Y-46084791D01*
X103480470Y-46084790D01*
X103480469Y-46084788D01*
X103415212Y-46019531D01*
X103415209Y-46019529D01*
X103415208Y-46019528D01*
X103355095Y-45984822D01*
X103320616Y-45939889D01*
X103328009Y-45883736D01*
X103339766Y-45868414D01*
X103392969Y-45815212D01*
X103439114Y-45735288D01*
X103462999Y-45646146D01*
X103463000Y-45646146D01*
X103463000Y-45553854D01*
X103462999Y-45553853D01*
X103459642Y-45541326D01*
X103439114Y-45464712D01*
X103415255Y-45423387D01*
X103392971Y-45384791D01*
X103392970Y-45384790D01*
X103392969Y-45384788D01*
X103327712Y-45319531D01*
X103327709Y-45319529D01*
X103327706Y-45319526D01*
X103324492Y-45317059D01*
X103296182Y-45268005D01*
X103310851Y-45213300D01*
X103318046Y-45205225D01*
X103326384Y-45197141D01*
X103330568Y-45195409D01*
X103395409Y-45130568D01*
X103395409Y-45130566D01*
X104623175Y-43902800D01*
X104675500Y-43881127D01*
X104727826Y-43902801D01*
X104749500Y-43955127D01*
X104749500Y-44046146D01*
X104773384Y-44135284D01*
X104773386Y-44135289D01*
X104819528Y-44215208D01*
X104819529Y-44215209D01*
X104819531Y-44215212D01*
X104884788Y-44280469D01*
X104964712Y-44326614D01*
X104964713Y-44326614D01*
X104964715Y-44326615D01*
X104987145Y-44332625D01*
X105053853Y-44350499D01*
X105053854Y-44350500D01*
X105053856Y-44350500D01*
X105146146Y-44350500D01*
X105146146Y-44350499D01*
X105235288Y-44326614D01*
X105315212Y-44280469D01*
X105380469Y-44215212D01*
X105426614Y-44135288D01*
X105450499Y-44046146D01*
X105450500Y-44046146D01*
X105450500Y-43953854D01*
X105450499Y-43953853D01*
X105431958Y-43884655D01*
X105439350Y-43828502D01*
X105484283Y-43794024D01*
X105503436Y-43791502D01*
X105896564Y-43791502D01*
X105905803Y-43795329D01*
G37*
%TD.AperFunction*%
%TA.AperFunction,Conductor*%
G36*
X96875027Y-44052174D02*
G01*
X96896701Y-44104500D01*
X96886787Y-44141499D01*
X96873388Y-44164706D01*
X96873384Y-44164715D01*
X96849500Y-44253853D01*
X96849500Y-44346146D01*
X96870990Y-44426347D01*
X96863598Y-44482500D01*
X96818665Y-44516978D01*
X96799512Y-44519500D01*
X96474150Y-44519500D01*
X96449336Y-44529778D01*
X96389434Y-44554589D01*
X96324590Y-44619433D01*
X95360646Y-45583376D01*
X95308320Y-45605050D01*
X95255994Y-45583376D01*
X95234320Y-45531050D01*
X95244235Y-45494049D01*
X95266612Y-45455291D01*
X95266613Y-45455289D01*
X95266614Y-45455288D01*
X95290499Y-45366146D01*
X95290500Y-45366146D01*
X95290500Y-45273854D01*
X95290499Y-45273853D01*
X95289314Y-45269432D01*
X95272202Y-45205568D01*
X95266615Y-45184715D01*
X95266613Y-45184710D01*
X95249123Y-45154417D01*
X95241730Y-45098265D01*
X95260881Y-45065093D01*
X96273802Y-44052174D01*
X96326128Y-44030500D01*
X96822701Y-44030500D01*
X96875027Y-44052174D01*
G37*
%TD.AperFunction*%
%TA.AperFunction,Conductor*%
G36*
X102896451Y-36506223D02*
G01*
X102913964Y-36507642D01*
X102921621Y-36516649D01*
X102932545Y-36521174D01*
X102947520Y-36547113D01*
X102950649Y-36550793D01*
X102951221Y-36552568D01*
X102973386Y-36635288D01*
X102983586Y-36652955D01*
X102986000Y-36660441D01*
X102981428Y-36716893D01*
X102938277Y-36753578D01*
X102934723Y-36754626D01*
X102864715Y-36773384D01*
X102864710Y-36773386D01*
X102784791Y-36819528D01*
X102719528Y-36884791D01*
X102673386Y-36964710D01*
X102673384Y-36964715D01*
X102649500Y-37053853D01*
X102649500Y-37146146D01*
X102673384Y-37235284D01*
X102673386Y-37235289D01*
X102719528Y-37315208D01*
X102719529Y-37315209D01*
X102719531Y-37315212D01*
X102747826Y-37343507D01*
X102769500Y-37395832D01*
X102769500Y-37742531D01*
X102747826Y-37794857D01*
X102147857Y-38394826D01*
X102095531Y-38416500D01*
X102007470Y-38416500D01*
X102007462Y-38416499D01*
X101998850Y-38416499D01*
X101907151Y-38416499D01*
X101882337Y-38426776D01*
X101822432Y-38451590D01*
X101822431Y-38451591D01*
X100757199Y-39516825D01*
X100720995Y-39536722D01*
X100713034Y-39538499D01*
X100675624Y-39538499D01*
X100637838Y-39554151D01*
X100631907Y-39556607D01*
X100631901Y-39556609D01*
X100590907Y-39573589D01*
X100590904Y-39573592D01*
X100273590Y-39890905D01*
X100273590Y-39890906D01*
X100267923Y-39904589D01*
X100267922Y-39904592D01*
X100238499Y-39975622D01*
X100238499Y-40075934D01*
X100238500Y-40075943D01*
X100238500Y-40326705D01*
X100238499Y-40326719D01*
X100238499Y-40332677D01*
X100238499Y-40424377D01*
X100252703Y-40458666D01*
X100273589Y-40509092D01*
X100273592Y-40509096D01*
X100348839Y-40584343D01*
X100348841Y-40584344D01*
X100835291Y-41070794D01*
X100856965Y-41123120D01*
X100856965Y-41153611D01*
X100880849Y-41242749D01*
X100880851Y-41242754D01*
X100926993Y-41322673D01*
X100926994Y-41322674D01*
X100926996Y-41322677D01*
X100992253Y-41387934D01*
X100992255Y-41387935D01*
X100992256Y-41387936D01*
X101072175Y-41434078D01*
X101072177Y-41434079D01*
X101072178Y-41434079D01*
X101072180Y-41434080D01*
X101116749Y-41446022D01*
X101161318Y-41457964D01*
X101161319Y-41457965D01*
X101161321Y-41457965D01*
X101253611Y-41457965D01*
X101253611Y-41457964D01*
X101342753Y-41434079D01*
X101422677Y-41387934D01*
X101423577Y-41387033D01*
X101424170Y-41386787D01*
X101426518Y-41384986D01*
X101427000Y-41385615D01*
X101475897Y-41365355D01*
X101528226Y-41387023D01*
X101539991Y-41402354D01*
X101567782Y-41450488D01*
X101567784Y-41450490D01*
X101567786Y-41450493D01*
X101633043Y-41515750D01*
X101633045Y-41515751D01*
X101633046Y-41515752D01*
X101676075Y-41540595D01*
X101712967Y-41561895D01*
X101712968Y-41561895D01*
X101712970Y-41561896D01*
X101757539Y-41573838D01*
X101802111Y-41585781D01*
X101802116Y-41585781D01*
X101806918Y-41586414D01*
X101806540Y-41589278D01*
X101850423Y-41607455D01*
X101872097Y-41659781D01*
X101869575Y-41678934D01*
X101849500Y-41753853D01*
X101849500Y-41846146D01*
X101873384Y-41935284D01*
X101873386Y-41935289D01*
X101919528Y-42015208D01*
X101919529Y-42015209D01*
X101919531Y-42015212D01*
X101984788Y-42080469D01*
X101984790Y-42080470D01*
X101984791Y-42080471D01*
X102064710Y-42126613D01*
X102064712Y-42126614D01*
X102064713Y-42126614D01*
X102064715Y-42126615D01*
X102107724Y-42138139D01*
X102153853Y-42150499D01*
X102153854Y-42150500D01*
X102153856Y-42150500D01*
X102246146Y-42150500D01*
X102246146Y-42150499D01*
X102335288Y-42126614D01*
X102415212Y-42080469D01*
X102480469Y-42015212D01*
X102526614Y-41935288D01*
X102550499Y-41846146D01*
X102550500Y-41846146D01*
X102550500Y-41755128D01*
X102572174Y-41702802D01*
X102624500Y-41681128D01*
X102676826Y-41702802D01*
X102800370Y-41826346D01*
X102800373Y-41826350D01*
X102804591Y-41830568D01*
X102869432Y-41895409D01*
X102904526Y-41909945D01*
X102911789Y-41912953D01*
X102911790Y-41912954D01*
X102954151Y-41930501D01*
X103054462Y-41930501D01*
X103054470Y-41930500D01*
X105045530Y-41930500D01*
X105045534Y-41930501D01*
X105054150Y-41930501D01*
X105145850Y-41930501D01*
X105195476Y-41909944D01*
X105230568Y-41895409D01*
X105295409Y-41830568D01*
X105295409Y-41830567D01*
X105305814Y-41820162D01*
X105305815Y-41820159D01*
X105465882Y-41660094D01*
X105518208Y-41638420D01*
X105627699Y-41638420D01*
X105646850Y-41640941D01*
X105648771Y-41641455D01*
X105648772Y-41641456D01*
X105677487Y-41649150D01*
X105722420Y-41683626D01*
X105729814Y-41739779D01*
X105710661Y-41772954D01*
X105366790Y-42116826D01*
X105314464Y-42138500D01*
X104975943Y-42138500D01*
X104975935Y-42138499D01*
X104967323Y-42138499D01*
X104875624Y-42138499D01*
X104825998Y-42159053D01*
X104825999Y-42159054D01*
X104790907Y-42173590D01*
X103804590Y-43159907D01*
X103790054Y-43194999D01*
X103769499Y-43244622D01*
X103769499Y-43344935D01*
X103769500Y-43344944D01*
X103769500Y-43673872D01*
X103747826Y-43726198D01*
X103295198Y-44178826D01*
X103242872Y-44200500D01*
X102705579Y-44200500D01*
X102653253Y-44178826D01*
X102631579Y-44126500D01*
X102634101Y-44107347D01*
X102650499Y-44046146D01*
X102650500Y-44046146D01*
X102650500Y-43953854D01*
X102650499Y-43953853D01*
X102626615Y-43864715D01*
X102626613Y-43864710D01*
X102580471Y-43784791D01*
X102580470Y-43784790D01*
X102580469Y-43784788D01*
X102515212Y-43719531D01*
X102515209Y-43719529D01*
X102515208Y-43719528D01*
X102435289Y-43673386D01*
X102435284Y-43673384D01*
X102346146Y-43649500D01*
X102346144Y-43649500D01*
X102306129Y-43649500D01*
X102253804Y-43627827D01*
X102230567Y-43604590D01*
X102230564Y-43604589D01*
X102195476Y-43590055D01*
X102195476Y-43590054D01*
X102145850Y-43569499D01*
X102054150Y-43569499D01*
X102045538Y-43569499D01*
X102045530Y-43569500D01*
X98792113Y-43569500D01*
X98739787Y-43547826D01*
X98718113Y-43495500D01*
X98739787Y-43443174D01*
X98795408Y-43387553D01*
X98795409Y-43387552D01*
X98819012Y-43330568D01*
X98830501Y-43302833D01*
X98830501Y-43211134D01*
X98830501Y-43205176D01*
X98830500Y-43205162D01*
X98830500Y-43095832D01*
X98852173Y-43043507D01*
X98880469Y-43015212D01*
X98926614Y-42935288D01*
X98950499Y-42846146D01*
X98950500Y-42846146D01*
X98950500Y-42753854D01*
X98950499Y-42753853D01*
X98926615Y-42664715D01*
X98926613Y-42664710D01*
X98880471Y-42584791D01*
X98880470Y-42584790D01*
X98880469Y-42584788D01*
X98815212Y-42519531D01*
X98815209Y-42519529D01*
X98815208Y-42519528D01*
X98795744Y-42508290D01*
X98761267Y-42463356D01*
X98767770Y-42413965D01*
X98765929Y-42413203D01*
X98767784Y-42408721D01*
X98767787Y-42408717D01*
X98791672Y-42319575D01*
X98791673Y-42319575D01*
X98791673Y-42227283D01*
X98791672Y-42227282D01*
X98767788Y-42138144D01*
X98767786Y-42138139D01*
X98721643Y-42058219D01*
X98721641Y-42058216D01*
X98672174Y-42008748D01*
X98650500Y-41956423D01*
X98650500Y-39706128D01*
X98672174Y-39653802D01*
X101723174Y-36602802D01*
X101775500Y-36581128D01*
X101827826Y-36602802D01*
X101849500Y-36655128D01*
X101849500Y-36746146D01*
X101873384Y-36835284D01*
X101873386Y-36835289D01*
X101919528Y-36915208D01*
X101919529Y-36915209D01*
X101919531Y-36915212D01*
X101984788Y-36980469D01*
X102064712Y-37026614D01*
X102064713Y-37026614D01*
X102064715Y-37026615D01*
X102109284Y-37038557D01*
X102153853Y-37050499D01*
X102153854Y-37050500D01*
X102153856Y-37050500D01*
X102246146Y-37050500D01*
X102246146Y-37050499D01*
X102335288Y-37026614D01*
X102415212Y-36980469D01*
X102480469Y-36915212D01*
X102526614Y-36835288D01*
X102550499Y-36746146D01*
X102550500Y-36746146D01*
X102550500Y-36653854D01*
X102550499Y-36653853D01*
X102534101Y-36592653D01*
X102541493Y-36536500D01*
X102586426Y-36502022D01*
X102605579Y-36499500D01*
X102880219Y-36499500D01*
X102896451Y-36506223D01*
G37*
%TD.AperFunction*%
%TA.AperFunction,Conductor*%
G36*
X106563867Y-41696300D02*
G01*
X106569500Y-41724620D01*
X106569500Y-43073872D01*
X106547826Y-43126198D01*
X106365196Y-43308828D01*
X106312870Y-43330502D01*
X106060727Y-43330502D01*
X106008401Y-43308828D01*
X105986727Y-43256502D01*
X105996641Y-43219502D01*
X106017156Y-43183969D01*
X106017390Y-43183564D01*
X106041275Y-43094422D01*
X106041276Y-43094422D01*
X106041276Y-43002130D01*
X106041275Y-43002129D01*
X106017391Y-42912991D01*
X106017389Y-42912986D01*
X105971247Y-42833067D01*
X105971246Y-42833066D01*
X105971245Y-42833064D01*
X105905988Y-42767807D01*
X105905985Y-42767805D01*
X105905984Y-42767804D01*
X105826065Y-42721662D01*
X105826060Y-42721660D01*
X105736922Y-42697776D01*
X105736920Y-42697776D01*
X105644632Y-42697776D01*
X105644631Y-42697776D01*
X105615287Y-42705638D01*
X105559135Y-42698244D01*
X105524657Y-42653310D01*
X105532051Y-42597158D01*
X105546533Y-42579245D01*
X105556010Y-42570683D01*
X105571160Y-42564409D01*
X105636001Y-42499568D01*
X105636001Y-42499566D01*
X106343304Y-41792263D01*
X106343307Y-41792261D01*
X106353712Y-41781856D01*
X106353713Y-41781856D01*
X106418554Y-41717015D01*
X106427133Y-41696301D01*
X106467180Y-41656253D01*
X106523817Y-41656252D01*
X106563867Y-41696300D01*
G37*
%TD.AperFunction*%
%TA.AperFunction,Conductor*%
G36*
X102274725Y-31261174D02*
G01*
X103478826Y-32465275D01*
X103500500Y-32517601D01*
X103500500Y-36094420D01*
X103498180Y-36100019D01*
X103499602Y-36105910D01*
X103487620Y-36125513D01*
X103478826Y-36146746D01*
X103473226Y-36149065D01*
X103470066Y-36154236D01*
X103453148Y-36157382D01*
X103426500Y-36168420D01*
X103415010Y-36167522D01*
X103411123Y-36166911D01*
X103346144Y-36149500D01*
X103300352Y-36149500D01*
X103294639Y-36148602D01*
X103275034Y-36136620D01*
X103253804Y-36127826D01*
X103199569Y-36073592D01*
X103199568Y-36073591D01*
X103199565Y-36073590D01*
X103199564Y-36073589D01*
X103164476Y-36059055D01*
X103164476Y-36059054D01*
X103114850Y-36038499D01*
X103023150Y-36038499D01*
X103014538Y-36038499D01*
X103014530Y-36038500D01*
X101685150Y-36038500D01*
X101668141Y-36045545D01*
X101600434Y-36073589D01*
X98224589Y-39449434D01*
X98216307Y-39469431D01*
X98216307Y-39469432D01*
X98189499Y-39534149D01*
X98189499Y-39634461D01*
X98189500Y-39634470D01*
X98189500Y-41834871D01*
X98167826Y-41887197D01*
X98115500Y-41908871D01*
X98063174Y-41887197D01*
X96155817Y-39979841D01*
X96155817Y-39979840D01*
X96118796Y-39942819D01*
X96080568Y-39904591D01*
X96080566Y-39904590D01*
X96080564Y-39904589D01*
X96045476Y-39890055D01*
X96045476Y-39890054D01*
X95995850Y-39869499D01*
X95904150Y-39869499D01*
X95895538Y-39869499D01*
X95895530Y-39869500D01*
X92195833Y-39869500D01*
X92152241Y-39855297D01*
X92147580Y-39851899D01*
X92115212Y-39819531D01*
X92057361Y-39786130D01*
X92054169Y-39783803D01*
X92041307Y-39762739D01*
X92026282Y-39743157D01*
X92026826Y-39739022D01*
X92024654Y-39735465D01*
X92030453Y-39711478D01*
X92033676Y-39687005D01*
X92055391Y-39649395D01*
X92079276Y-39560253D01*
X92079277Y-39560253D01*
X92079277Y-39467961D01*
X92079276Y-39467960D01*
X92074597Y-39450499D01*
X92067334Y-39423391D01*
X92055392Y-39378822D01*
X92055390Y-39378817D01*
X92009248Y-39298898D01*
X92009247Y-39298897D01*
X92009246Y-39298895D01*
X91943989Y-39233638D01*
X91943986Y-39233636D01*
X91943985Y-39233635D01*
X91864066Y-39187493D01*
X91864061Y-39187491D01*
X91774923Y-39163607D01*
X91774921Y-39163607D01*
X91682633Y-39163607D01*
X91682631Y-39163607D01*
X91593492Y-39187491D01*
X91593487Y-39187493D01*
X91513568Y-39233635D01*
X91448305Y-39298898D01*
X91402163Y-39378817D01*
X91402161Y-39378822D01*
X91378277Y-39467960D01*
X91378277Y-39560253D01*
X91403418Y-39654080D01*
X91401246Y-39654662D01*
X91401246Y-39703819D01*
X91361197Y-39743867D01*
X91332879Y-39749500D01*
X91303851Y-39749500D01*
X91214712Y-39773384D01*
X91214707Y-39773386D01*
X91134788Y-39819528D01*
X91069524Y-39884792D01*
X91069524Y-39884793D01*
X91030294Y-39952739D01*
X90985360Y-39987217D01*
X90947057Y-39987217D01*
X90893543Y-39972878D01*
X90801255Y-39972878D01*
X90723652Y-39993671D01*
X90667499Y-39986278D01*
X90633021Y-39941344D01*
X90630500Y-39922192D01*
X90630500Y-38905503D01*
X90652174Y-38853177D01*
X92753177Y-36752174D01*
X92805503Y-36730500D01*
X94345530Y-36730500D01*
X94345538Y-36730501D01*
X94354150Y-36730501D01*
X94445850Y-36730501D01*
X94495476Y-36709944D01*
X94530568Y-36695409D01*
X94595409Y-36630568D01*
X94595409Y-36630567D01*
X94605814Y-36620162D01*
X94605815Y-36620159D01*
X95507046Y-35718929D01*
X96063876Y-35718929D01*
X96063876Y-35811222D01*
X96087760Y-35900360D01*
X96087762Y-35900365D01*
X96133904Y-35980284D01*
X96133905Y-35980285D01*
X96133907Y-35980288D01*
X96199164Y-36045545D01*
X96199166Y-36045546D01*
X96199167Y-36045547D01*
X96279086Y-36091689D01*
X96279088Y-36091690D01*
X96279089Y-36091690D01*
X96279091Y-36091691D01*
X96310172Y-36100019D01*
X96368229Y-36115575D01*
X96368230Y-36115576D01*
X96368232Y-36115576D01*
X96460522Y-36115576D01*
X96460522Y-36115575D01*
X96549664Y-36091690D01*
X96629588Y-36045545D01*
X96694845Y-35980288D01*
X96740990Y-35900364D01*
X96764875Y-35811222D01*
X96764876Y-35811222D01*
X96764876Y-35718930D01*
X96764875Y-35718929D01*
X96740991Y-35629791D01*
X96740989Y-35629786D01*
X96694847Y-35549867D01*
X96694846Y-35549866D01*
X96694845Y-35549864D01*
X96629588Y-35484607D01*
X96629585Y-35484605D01*
X96629584Y-35484604D01*
X96549665Y-35438462D01*
X96549660Y-35438460D01*
X96460522Y-35414576D01*
X96460520Y-35414576D01*
X96368232Y-35414576D01*
X96368230Y-35414576D01*
X96279091Y-35438460D01*
X96279086Y-35438462D01*
X96199167Y-35484604D01*
X96133904Y-35549867D01*
X96087762Y-35629786D01*
X96087760Y-35629791D01*
X96063876Y-35718929D01*
X95507046Y-35718929D01*
X99533803Y-31692174D01*
X99586129Y-31670500D01*
X100673872Y-31670500D01*
X100726198Y-31692174D01*
X101147826Y-32113802D01*
X101169500Y-32166128D01*
X101169500Y-32904167D01*
X101147827Y-32956492D01*
X101119528Y-32984791D01*
X101073386Y-33064710D01*
X101073384Y-33064715D01*
X101049500Y-33153853D01*
X101049500Y-33246146D01*
X101073384Y-33335284D01*
X101073386Y-33335289D01*
X101119528Y-33415208D01*
X101119529Y-33415209D01*
X101119531Y-33415212D01*
X101184788Y-33480469D01*
X101184790Y-33480470D01*
X101184791Y-33480471D01*
X101199314Y-33488856D01*
X101264712Y-33526614D01*
X101264713Y-33526614D01*
X101264715Y-33526615D01*
X101309284Y-33538557D01*
X101353853Y-33550499D01*
X101353854Y-33550500D01*
X101353856Y-33550500D01*
X101446146Y-33550500D01*
X101446146Y-33550499D01*
X101535288Y-33526614D01*
X101615212Y-33480469D01*
X101680469Y-33415212D01*
X101726614Y-33335288D01*
X101750499Y-33246146D01*
X101750500Y-33246146D01*
X101750500Y-33153854D01*
X101750499Y-33153853D01*
X101746347Y-33138359D01*
X101726614Y-33064712D01*
X101716388Y-33047000D01*
X101680471Y-32984791D01*
X101680470Y-32984790D01*
X101680469Y-32984788D01*
X101652173Y-32956492D01*
X101630500Y-32904167D01*
X101630500Y-31994151D01*
X101630499Y-31994149D01*
X101595410Y-31909434D01*
X101595408Y-31909431D01*
X101526353Y-31840376D01*
X101526346Y-31840370D01*
X101051802Y-31365826D01*
X101030128Y-31313500D01*
X101051802Y-31261174D01*
X101104128Y-31239500D01*
X102222399Y-31239500D01*
X102274725Y-31261174D01*
G37*
%TD.AperFunction*%
%TA.AperFunction,Conductor*%
G36*
X106977826Y-30222174D02*
G01*
X106999500Y-30274500D01*
X106999500Y-31725168D01*
X106977826Y-31777494D01*
X106925500Y-31799168D01*
X106873175Y-31777494D01*
X106815212Y-31719531D01*
X106815209Y-31719529D01*
X106815208Y-31719528D01*
X106735289Y-31673386D01*
X106735284Y-31673384D01*
X106646146Y-31649500D01*
X106646144Y-31649500D01*
X106553856Y-31649500D01*
X106553854Y-31649500D01*
X106464715Y-31673384D01*
X106464710Y-31673386D01*
X106384791Y-31719528D01*
X106319527Y-31784792D01*
X106319527Y-31784793D01*
X106314937Y-31792742D01*
X106270001Y-31827217D01*
X106213849Y-31819820D01*
X106186186Y-31788268D01*
X106185163Y-31788860D01*
X106136595Y-31704739D01*
X106136594Y-31704738D01*
X106136593Y-31704736D01*
X106071336Y-31639479D01*
X106071333Y-31639477D01*
X106071332Y-31639476D01*
X105991413Y-31593334D01*
X105991408Y-31593332D01*
X105902270Y-31569448D01*
X105902268Y-31569448D01*
X105809980Y-31569448D01*
X105809978Y-31569448D01*
X105720839Y-31593332D01*
X105720834Y-31593334D01*
X105640915Y-31639476D01*
X105575652Y-31704739D01*
X105529510Y-31784658D01*
X105529508Y-31784663D01*
X105505624Y-31873801D01*
X105505624Y-31966094D01*
X105529508Y-32055232D01*
X105529510Y-32055237D01*
X105575652Y-32135156D01*
X105575653Y-32135157D01*
X105575655Y-32135160D01*
X105640912Y-32200417D01*
X105640914Y-32200418D01*
X105640915Y-32200419D01*
X105720834Y-32246561D01*
X105720836Y-32246562D01*
X105720837Y-32246562D01*
X105720839Y-32246563D01*
X105765408Y-32258505D01*
X105809977Y-32270447D01*
X105809978Y-32270448D01*
X105809980Y-32270448D01*
X105902270Y-32270448D01*
X105902270Y-32270447D01*
X105991412Y-32246562D01*
X106071336Y-32200417D01*
X106136593Y-32135160D01*
X106141182Y-32127212D01*
X106186115Y-32092732D01*
X106242267Y-32100123D01*
X106269939Y-32131678D01*
X106270961Y-32131088D01*
X106319528Y-32215208D01*
X106319529Y-32215209D01*
X106319531Y-32215212D01*
X106384788Y-32280469D01*
X106384790Y-32280470D01*
X106384791Y-32280471D01*
X106464710Y-32326613D01*
X106464712Y-32326614D01*
X106464713Y-32326614D01*
X106464715Y-32326615D01*
X106509284Y-32338557D01*
X106553853Y-32350499D01*
X106553854Y-32350500D01*
X106553856Y-32350500D01*
X106646146Y-32350500D01*
X106646146Y-32350499D01*
X106735288Y-32326614D01*
X106815212Y-32280469D01*
X106873175Y-32222505D01*
X106925500Y-32200832D01*
X106977826Y-32222506D01*
X106999500Y-32274832D01*
X106999500Y-32925168D01*
X106977826Y-32977494D01*
X106925500Y-32999168D01*
X106873175Y-32977494D01*
X106815212Y-32919531D01*
X106815209Y-32919529D01*
X106815208Y-32919528D01*
X106735289Y-32873386D01*
X106735284Y-32873384D01*
X106646146Y-32849500D01*
X106646144Y-32849500D01*
X106553856Y-32849500D01*
X106553854Y-32849500D01*
X106464715Y-32873384D01*
X106464710Y-32873386D01*
X106384791Y-32919528D01*
X106319528Y-32984791D01*
X106305191Y-33009623D01*
X106260256Y-33044100D01*
X106204104Y-33036706D01*
X106188784Y-33024950D01*
X106157014Y-32993180D01*
X106157011Y-32993178D01*
X106157010Y-32993177D01*
X106077091Y-32947035D01*
X106077086Y-32947033D01*
X105987948Y-32923149D01*
X105987946Y-32923149D01*
X105895658Y-32923149D01*
X105895656Y-32923149D01*
X105806517Y-32947033D01*
X105806512Y-32947035D01*
X105726593Y-32993177D01*
X105661330Y-33058440D01*
X105615188Y-33138359D01*
X105615186Y-33138364D01*
X105591302Y-33227502D01*
X105591302Y-33319795D01*
X105615186Y-33408933D01*
X105615188Y-33408938D01*
X105661330Y-33488857D01*
X105661331Y-33488858D01*
X105661333Y-33488861D01*
X105726590Y-33554118D01*
X105726592Y-33554119D01*
X105726593Y-33554120D01*
X105734020Y-33558408D01*
X105806514Y-33600263D01*
X105806515Y-33600263D01*
X105806517Y-33600264D01*
X105851086Y-33612206D01*
X105895655Y-33624148D01*
X105895656Y-33624149D01*
X105895658Y-33624149D01*
X105987948Y-33624149D01*
X105987948Y-33624148D01*
X106077090Y-33600263D01*
X106157014Y-33554118D01*
X106222271Y-33488861D01*
X106236609Y-33464028D01*
X106281542Y-33429549D01*
X106337694Y-33436941D01*
X106353016Y-33448697D01*
X106384788Y-33480469D01*
X106384790Y-33480470D01*
X106384791Y-33480471D01*
X106399314Y-33488856D01*
X106464712Y-33526614D01*
X106464713Y-33526614D01*
X106464715Y-33526615D01*
X106509284Y-33538557D01*
X106553853Y-33550499D01*
X106553854Y-33550500D01*
X106553856Y-33550500D01*
X106646146Y-33550500D01*
X106646146Y-33550499D01*
X106735288Y-33526614D01*
X106815212Y-33480469D01*
X106873175Y-33422505D01*
X106925500Y-33400832D01*
X106977826Y-33422506D01*
X106999500Y-33474832D01*
X106999500Y-34325168D01*
X106977826Y-34377494D01*
X106925500Y-34399168D01*
X106873175Y-34377494D01*
X106815212Y-34319531D01*
X106815209Y-34319529D01*
X106815208Y-34319528D01*
X106735289Y-34273386D01*
X106735284Y-34273384D01*
X106646146Y-34249500D01*
X106646144Y-34249500D01*
X106553856Y-34249500D01*
X106553854Y-34249500D01*
X106464715Y-34273384D01*
X106464710Y-34273386D01*
X106384791Y-34319528D01*
X106319529Y-34384790D01*
X106290779Y-34434587D01*
X106245845Y-34469065D01*
X106189692Y-34461672D01*
X106174371Y-34449915D01*
X106122743Y-34398287D01*
X106122740Y-34398285D01*
X106122739Y-34398284D01*
X106042820Y-34352142D01*
X106042815Y-34352140D01*
X105953677Y-34328256D01*
X105953675Y-34328256D01*
X105861387Y-34328256D01*
X105861385Y-34328256D01*
X105772246Y-34352140D01*
X105772241Y-34352142D01*
X105692322Y-34398284D01*
X105627059Y-34463547D01*
X105580917Y-34543466D01*
X105580915Y-34543471D01*
X105557031Y-34632609D01*
X105557031Y-34724902D01*
X105580915Y-34814040D01*
X105580917Y-34814045D01*
X105627059Y-34893964D01*
X105627060Y-34893965D01*
X105627062Y-34893968D01*
X105692319Y-34959225D01*
X105772243Y-35005370D01*
X105772244Y-35005370D01*
X105772246Y-35005371D01*
X105816815Y-35017313D01*
X105861384Y-35029255D01*
X105861385Y-35029256D01*
X105861387Y-35029256D01*
X105953677Y-35029256D01*
X105953677Y-35029255D01*
X106042819Y-35005370D01*
X106122743Y-34959225D01*
X106188000Y-34893968D01*
X106216751Y-34844169D01*
X106261683Y-34809691D01*
X106317836Y-34817083D01*
X106333158Y-34828839D01*
X106384788Y-34880469D01*
X106384790Y-34880470D01*
X106384791Y-34880471D01*
X106464710Y-34926613D01*
X106464712Y-34926614D01*
X106464713Y-34926614D01*
X106464715Y-34926615D01*
X106509284Y-34938557D01*
X106553853Y-34950499D01*
X106553854Y-34950500D01*
X106553856Y-34950500D01*
X106646146Y-34950500D01*
X106646146Y-34950499D01*
X106735288Y-34926614D01*
X106815212Y-34880469D01*
X106873175Y-34822505D01*
X106925500Y-34800832D01*
X106977826Y-34822506D01*
X106999500Y-34874832D01*
X106999500Y-38825168D01*
X106977826Y-38877494D01*
X106925500Y-38899168D01*
X106873175Y-38877494D01*
X106815212Y-38819531D01*
X106815209Y-38819529D01*
X106815208Y-38819528D01*
X106735289Y-38773386D01*
X106735284Y-38773384D01*
X106646146Y-38749500D01*
X106646144Y-38749500D01*
X106553856Y-38749500D01*
X106553854Y-38749500D01*
X106464715Y-38773384D01*
X106464710Y-38773386D01*
X106384791Y-38819528D01*
X106319528Y-38884791D01*
X106273386Y-38964710D01*
X106273384Y-38964715D01*
X106249500Y-39053853D01*
X106249500Y-39146146D01*
X106273384Y-39235284D01*
X106273386Y-39235289D01*
X106319528Y-39315208D01*
X106319529Y-39315209D01*
X106319531Y-39315212D01*
X106384788Y-39380469D01*
X106384790Y-39380470D01*
X106384791Y-39380471D01*
X106391927Y-39384591D01*
X106464712Y-39426614D01*
X106464713Y-39426614D01*
X106464715Y-39426615D01*
X106509284Y-39438557D01*
X106553853Y-39450499D01*
X106553854Y-39450500D01*
X106553856Y-39450500D01*
X106646146Y-39450500D01*
X106646146Y-39450499D01*
X106735288Y-39426614D01*
X106815212Y-39380469D01*
X106873175Y-39322505D01*
X106925500Y-39300832D01*
X106977826Y-39322506D01*
X106999500Y-39374832D01*
X106999500Y-40894872D01*
X106977826Y-40947198D01*
X106925500Y-40968872D01*
X106873174Y-40947198D01*
X106305817Y-40379841D01*
X106305817Y-40379840D01*
X106278151Y-40352174D01*
X106230568Y-40304591D01*
X106230566Y-40304590D01*
X106230564Y-40304589D01*
X106195476Y-40290055D01*
X106195476Y-40290054D01*
X106145850Y-40269499D01*
X106054150Y-40269499D01*
X106045538Y-40269499D01*
X106045530Y-40269500D01*
X104754470Y-40269500D01*
X104754462Y-40269499D01*
X104745850Y-40269499D01*
X104654151Y-40269499D01*
X104636885Y-40276650D01*
X104613412Y-40286373D01*
X104556775Y-40286372D01*
X104521010Y-40255005D01*
X104493639Y-40207599D01*
X104480471Y-40184791D01*
X104480470Y-40184790D01*
X104480469Y-40184788D01*
X104415212Y-40119531D01*
X104415209Y-40119529D01*
X104415207Y-40119527D01*
X104367499Y-40091982D01*
X104361412Y-40084049D01*
X104352174Y-40080223D01*
X104344781Y-40062375D01*
X104333021Y-40047049D01*
X104330500Y-40027897D01*
X104330500Y-39944943D01*
X104330501Y-39944934D01*
X104330501Y-39844625D01*
X104330501Y-39844624D01*
X104309770Y-39794576D01*
X104295588Y-39760338D01*
X104295410Y-39759907D01*
X104295408Y-39759904D01*
X104226353Y-39690849D01*
X104226346Y-39690843D01*
X103586012Y-39050509D01*
X103573936Y-39038433D01*
X103573936Y-39038432D01*
X103509095Y-38973591D01*
X103489256Y-38965373D01*
X103480037Y-38957261D01*
X103472555Y-38942026D01*
X103460554Y-38930025D01*
X103460554Y-38917587D01*
X103455072Y-38906424D01*
X103460554Y-38890361D01*
X103460554Y-38873388D01*
X103472395Y-38855664D01*
X103473366Y-38852822D01*
X103474749Y-38852142D01*
X103476593Y-38849382D01*
X103851159Y-38474815D01*
X103851162Y-38474814D01*
X103861567Y-38464409D01*
X103861568Y-38464409D01*
X103926409Y-38399568D01*
X103961500Y-38314849D01*
X103961500Y-36794610D01*
X103983174Y-36742284D01*
X104035500Y-36720610D01*
X104059993Y-36725482D01*
X104060027Y-36725358D01*
X104061920Y-36725865D01*
X104063819Y-36726243D01*
X104064710Y-36726612D01*
X104064712Y-36726613D01*
X104064713Y-36726613D01*
X104064715Y-36726614D01*
X104079222Y-36730501D01*
X104153853Y-36750498D01*
X104153854Y-36750499D01*
X104153856Y-36750499D01*
X104246146Y-36750499D01*
X104246146Y-36750498D01*
X104335288Y-36726613D01*
X104415212Y-36680468D01*
X104480469Y-36615211D01*
X104526614Y-36535287D01*
X104550499Y-36446145D01*
X104550500Y-36446145D01*
X104550500Y-36436984D01*
X106119891Y-36436984D01*
X106119891Y-36529277D01*
X106143775Y-36618415D01*
X106143777Y-36618420D01*
X106189919Y-36698339D01*
X106189920Y-36698340D01*
X106189922Y-36698343D01*
X106255179Y-36763600D01*
X106255181Y-36763601D01*
X106255182Y-36763602D01*
X106299108Y-36788963D01*
X106335103Y-36809745D01*
X106335104Y-36809745D01*
X106335106Y-36809746D01*
X106371614Y-36819528D01*
X106424244Y-36833630D01*
X106424245Y-36833631D01*
X106424247Y-36833631D01*
X106516537Y-36833631D01*
X106516537Y-36833630D01*
X106605679Y-36809745D01*
X106685603Y-36763600D01*
X106750860Y-36698343D01*
X106797005Y-36618419D01*
X106820890Y-36529277D01*
X106820891Y-36529277D01*
X106820891Y-36436985D01*
X106820890Y-36436984D01*
X106797006Y-36347846D01*
X106797004Y-36347841D01*
X106750862Y-36267922D01*
X106750861Y-36267921D01*
X106750860Y-36267919D01*
X106685603Y-36202662D01*
X106685600Y-36202660D01*
X106685599Y-36202659D01*
X106605680Y-36156517D01*
X106605675Y-36156515D01*
X106516537Y-36132631D01*
X106516535Y-36132631D01*
X106424247Y-36132631D01*
X106424245Y-36132631D01*
X106335106Y-36156515D01*
X106335101Y-36156517D01*
X106255182Y-36202659D01*
X106189919Y-36267922D01*
X106143777Y-36347841D01*
X106143775Y-36347846D01*
X106119891Y-36436984D01*
X104550500Y-36436984D01*
X104550500Y-36353853D01*
X104550499Y-36353852D01*
X104548967Y-36348136D01*
X104527897Y-36269499D01*
X104526615Y-36264714D01*
X104526613Y-36264709D01*
X104480471Y-36184790D01*
X104480470Y-36184789D01*
X104480469Y-36184787D01*
X104415212Y-36119530D01*
X104415209Y-36119528D01*
X104415208Y-36119527D01*
X104335289Y-36073385D01*
X104335284Y-36073383D01*
X104246146Y-36049499D01*
X104246144Y-36049499D01*
X104153856Y-36049499D01*
X104153854Y-36049499D01*
X104064712Y-36073384D01*
X104063808Y-36073759D01*
X104063315Y-36073758D01*
X104060027Y-36074640D01*
X104059790Y-36073758D01*
X104007171Y-36073750D01*
X103967128Y-36033695D01*
X103961500Y-36005387D01*
X103961500Y-32445942D01*
X103961501Y-32445933D01*
X103961501Y-32345622D01*
X103940898Y-32295886D01*
X103934512Y-32280469D01*
X103926409Y-32260905D01*
X103861568Y-32196064D01*
X103861566Y-32196063D01*
X102554344Y-30888841D01*
X102554344Y-30888840D01*
X102543936Y-30878432D01*
X102479095Y-30813591D01*
X102479093Y-30813590D01*
X102479091Y-30813589D01*
X102444003Y-30799055D01*
X102444003Y-30799054D01*
X102394377Y-30778499D01*
X102302677Y-30778499D01*
X102294065Y-30778499D01*
X102294057Y-30778500D01*
X98345150Y-30778500D01*
X98320336Y-30788778D01*
X98260434Y-30813589D01*
X94614903Y-34459120D01*
X94600367Y-34494212D01*
X94579812Y-34543835D01*
X94579812Y-34644148D01*
X94579813Y-34644157D01*
X94579813Y-35063558D01*
X94558139Y-35115884D01*
X94226198Y-35447826D01*
X94173872Y-35469500D01*
X93495833Y-35469500D01*
X93443508Y-35447827D01*
X93434141Y-35438460D01*
X93415212Y-35419531D01*
X93415209Y-35419529D01*
X93415208Y-35419528D01*
X93335289Y-35373386D01*
X93335284Y-35373384D01*
X93246146Y-35349500D01*
X93246144Y-35349500D01*
X93153856Y-35349500D01*
X93153854Y-35349500D01*
X93064715Y-35373384D01*
X93064710Y-35373386D01*
X92984791Y-35419528D01*
X92919523Y-35484796D01*
X92917405Y-35487556D01*
X92868350Y-35515864D01*
X92813646Y-35501193D01*
X92787229Y-35461648D01*
X92766614Y-35384712D01*
X92720469Y-35304788D01*
X92655212Y-35239531D01*
X92655209Y-35239529D01*
X92655208Y-35239528D01*
X92653576Y-35238586D01*
X92652996Y-35237830D01*
X92651358Y-35236573D01*
X92651694Y-35236134D01*
X92619097Y-35193653D01*
X92626490Y-35137500D01*
X92671423Y-35103021D01*
X92690576Y-35100500D01*
X92740421Y-35100500D01*
X92740425Y-35100500D01*
X93019509Y-35069055D01*
X93293318Y-35006560D01*
X93558408Y-34913801D01*
X93811445Y-34791945D01*
X94049248Y-34642523D01*
X94268825Y-34467416D01*
X94467416Y-34268825D01*
X94642523Y-34049248D01*
X94791945Y-33811445D01*
X94913801Y-33558408D01*
X95006560Y-33293318D01*
X95069055Y-33019509D01*
X95100500Y-32740425D01*
X95100500Y-32459575D01*
X95069055Y-32180491D01*
X95057779Y-32131088D01*
X95006562Y-31906690D01*
X95006557Y-31906674D01*
X94983358Y-31840376D01*
X94913801Y-31641592D01*
X94791945Y-31388555D01*
X94642523Y-31150752D01*
X94467416Y-30931175D01*
X94268825Y-30732584D01*
X94049248Y-30557477D01*
X93811445Y-30408055D01*
X93811444Y-30408054D01*
X93811440Y-30408052D01*
X93672561Y-30341172D01*
X93634821Y-30298941D01*
X93637996Y-30242393D01*
X93680227Y-30204653D01*
X93704668Y-30200500D01*
X104460118Y-30200500D01*
X106925500Y-30200500D01*
X106977826Y-30222174D01*
G37*
%TD.AperFunction*%
%TA.AperFunction,Conductor*%
G36*
X97101651Y-32728976D02*
G01*
X97116108Y-32754001D01*
X97117780Y-32753309D01*
X97119635Y-32757789D01*
X97165777Y-32837708D01*
X97165778Y-32837709D01*
X97165780Y-32837712D01*
X97231037Y-32902969D01*
X97231039Y-32902970D01*
X97231040Y-32902971D01*
X97307360Y-32947035D01*
X97310961Y-32949114D01*
X97310962Y-32949114D01*
X97310964Y-32949115D01*
X97338496Y-32956492D01*
X97400102Y-32972999D01*
X97400103Y-32973000D01*
X97422371Y-32973000D01*
X97474697Y-32994674D01*
X97496371Y-33047000D01*
X97474697Y-33099326D01*
X94326198Y-36247826D01*
X94273872Y-36269500D01*
X92733844Y-36269500D01*
X92733836Y-36269499D01*
X92725224Y-36269499D01*
X92633525Y-36269499D01*
X92583899Y-36290053D01*
X92583900Y-36290054D01*
X92548808Y-36304590D01*
X90326826Y-38526572D01*
X90274500Y-38548246D01*
X90222174Y-38526572D01*
X90200500Y-38474246D01*
X90200500Y-36400462D01*
X90222174Y-36348136D01*
X90274500Y-36326462D01*
X90326826Y-36348136D01*
X90345978Y-36381309D01*
X90362111Y-36441520D01*
X90362113Y-36441525D01*
X90408255Y-36521444D01*
X90408256Y-36521445D01*
X90408258Y-36521448D01*
X90473515Y-36586705D01*
X90473517Y-36586706D01*
X90473518Y-36586707D01*
X90553437Y-36632849D01*
X90553439Y-36632850D01*
X90553440Y-36632850D01*
X90553442Y-36632851D01*
X90598011Y-36644793D01*
X90642580Y-36656735D01*
X90642581Y-36656736D01*
X90642583Y-36656736D01*
X90734873Y-36656736D01*
X90734873Y-36656735D01*
X90824015Y-36632850D01*
X90903939Y-36586705D01*
X90969196Y-36521448D01*
X90989806Y-36485750D01*
X91034738Y-36451272D01*
X91090891Y-36458664D01*
X91112592Y-36477691D01*
X91114524Y-36480208D01*
X91114527Y-36480211D01*
X91114529Y-36480214D01*
X91179786Y-36545471D01*
X91179788Y-36545472D01*
X91179789Y-36545473D01*
X91259708Y-36591615D01*
X91259710Y-36591616D01*
X91259711Y-36591616D01*
X91259713Y-36591617D01*
X91301457Y-36602802D01*
X91348851Y-36615501D01*
X91348852Y-36615502D01*
X91348854Y-36615502D01*
X91441144Y-36615502D01*
X91441144Y-36615501D01*
X91530286Y-36591616D01*
X91610210Y-36545471D01*
X91675467Y-36480214D01*
X91721612Y-36400290D01*
X91745497Y-36311148D01*
X91745498Y-36311148D01*
X91745498Y-36218856D01*
X91745497Y-36218855D01*
X91741157Y-36202659D01*
X91723948Y-36138432D01*
X91721613Y-36129717D01*
X91721611Y-36129712D01*
X91675469Y-36049793D01*
X91675468Y-36049792D01*
X91675467Y-36049790D01*
X91610210Y-35984533D01*
X91610207Y-35984531D01*
X91610206Y-35984530D01*
X91530287Y-35938388D01*
X91530282Y-35938386D01*
X91441144Y-35914502D01*
X91441142Y-35914502D01*
X91348854Y-35914502D01*
X91348852Y-35914502D01*
X91259713Y-35938386D01*
X91259708Y-35938388D01*
X91179789Y-35984530D01*
X91114525Y-36049794D01*
X91114525Y-36049795D01*
X91093917Y-36085488D01*
X91048983Y-36119966D01*
X90992831Y-36112572D01*
X90971131Y-36093544D01*
X90969202Y-36091031D01*
X90969197Y-36091026D01*
X90969196Y-36091024D01*
X90903939Y-36025767D01*
X90903936Y-36025765D01*
X90903935Y-36025764D01*
X90824016Y-35979622D01*
X90824011Y-35979620D01*
X90734873Y-35955736D01*
X90734871Y-35955736D01*
X90642583Y-35955736D01*
X90642581Y-35955736D01*
X90553442Y-35979620D01*
X90553437Y-35979622D01*
X90473518Y-36025764D01*
X90408255Y-36091027D01*
X90362113Y-36170946D01*
X90362111Y-36170951D01*
X90345978Y-36231162D01*
X90311500Y-36276095D01*
X90255347Y-36283487D01*
X90210414Y-36249009D01*
X90200500Y-36212009D01*
X90200500Y-33704668D01*
X90222174Y-33652342D01*
X90274500Y-33630668D01*
X90326826Y-33652342D01*
X90341172Y-33672561D01*
X90408052Y-33811440D01*
X90408054Y-33811444D01*
X90408055Y-33811445D01*
X90557477Y-34049248D01*
X90732584Y-34268825D01*
X90931175Y-34467416D01*
X91150752Y-34642523D01*
X91388555Y-34791945D01*
X91388558Y-34791946D01*
X91388559Y-34791947D01*
X91560672Y-34874832D01*
X91641592Y-34913801D01*
X91906682Y-35006560D01*
X91906687Y-35006561D01*
X91906690Y-35006562D01*
X92180486Y-35069054D01*
X92180487Y-35069054D01*
X92180491Y-35069055D01*
X92241143Y-35075888D01*
X92290712Y-35103284D01*
X92306392Y-35157708D01*
X92278996Y-35207278D01*
X92269858Y-35213508D01*
X92224792Y-35239527D01*
X92159528Y-35304791D01*
X92113386Y-35384710D01*
X92113384Y-35384715D01*
X92089500Y-35473853D01*
X92089500Y-35566146D01*
X92113384Y-35655284D01*
X92113386Y-35655289D01*
X92159528Y-35735208D01*
X92159529Y-35735209D01*
X92159531Y-35735212D01*
X92224788Y-35800469D01*
X92224790Y-35800470D01*
X92224791Y-35800471D01*
X92276920Y-35830568D01*
X92304712Y-35846614D01*
X92304713Y-35846614D01*
X92304715Y-35846615D01*
X92349284Y-35858557D01*
X92393853Y-35870499D01*
X92393854Y-35870500D01*
X92393856Y-35870500D01*
X92486146Y-35870500D01*
X92486146Y-35870499D01*
X92575288Y-35846614D01*
X92655212Y-35800469D01*
X92720469Y-35735212D01*
X92720475Y-35735201D01*
X92722586Y-35732452D01*
X92771637Y-35704137D01*
X92826344Y-35718798D01*
X92852770Y-35758351D01*
X92873384Y-35835284D01*
X92873386Y-35835289D01*
X92919528Y-35915208D01*
X92919529Y-35915209D01*
X92919531Y-35915212D01*
X92984788Y-35980469D01*
X92984790Y-35980470D01*
X92984791Y-35980471D01*
X93027946Y-36005387D01*
X93064712Y-36026614D01*
X93064713Y-36026614D01*
X93064715Y-36026615D01*
X93109068Y-36038499D01*
X93153853Y-36050499D01*
X93153854Y-36050500D01*
X93153856Y-36050500D01*
X93246146Y-36050500D01*
X93246146Y-36050499D01*
X93335288Y-36026614D01*
X93415212Y-35980469D01*
X93443508Y-35952173D01*
X93495833Y-35930500D01*
X94245530Y-35930500D01*
X94245538Y-35930501D01*
X94254150Y-35930501D01*
X94345850Y-35930501D01*
X94395476Y-35909944D01*
X94430568Y-35895409D01*
X94495409Y-35830568D01*
X94495409Y-35830567D01*
X94505814Y-35820162D01*
X94505815Y-35820159D01*
X95005722Y-35320255D01*
X95040814Y-35235536D01*
X95040814Y-35143837D01*
X95040814Y-35137879D01*
X95040813Y-35137865D01*
X95040813Y-34715815D01*
X95062487Y-34663489D01*
X96021308Y-33704668D01*
X96997000Y-32728975D01*
X97049325Y-32707302D01*
X97101651Y-32728976D01*
G37*
%TD.AperFunction*%
%TA.AperFunction,Conductor*%
G36*
X99208197Y-31261174D02*
G01*
X99229871Y-31313500D01*
X99208197Y-31365826D01*
X97923075Y-32650948D01*
X97870749Y-32672622D01*
X97818423Y-32650948D01*
X97796749Y-32598622D01*
X97796749Y-32576354D01*
X97796748Y-32576353D01*
X97772864Y-32487215D01*
X97772862Y-32487210D01*
X97726720Y-32407291D01*
X97726719Y-32407290D01*
X97726718Y-32407288D01*
X97661461Y-32342031D01*
X97661458Y-32342029D01*
X97661457Y-32342028D01*
X97581538Y-32295886D01*
X97577058Y-32294031D01*
X97578235Y-32291187D01*
X97540945Y-32262542D01*
X97533583Y-32206385D01*
X97552723Y-32173252D01*
X98464802Y-31261174D01*
X98517128Y-31239500D01*
X99155871Y-31239500D01*
X99208197Y-31261174D01*
G37*
%TD.AperFunction*%
%TD*%
M02*
