%TF.GenerationSoftware,KiCad,Pcbnew,9.0.2*%
%TF.CreationDate,2025-12-22T17:06:25+08:00*%
%TF.ProjectId,OshEasyMini,4f736845-6173-4794-9d69-6e692e6b6963,rev?*%
%TF.SameCoordinates,Original*%
%TF.FileFunction,Copper,L6,Bot*%
%TF.FilePolarity,Positive*%
%FSLAX46Y46*%
G04 Gerber Fmt 4.6, Leading zero omitted, Abs format (unit mm)*
G04 Created by KiCad (PCBNEW 9.0.2) date 2025-12-22 17:06:25*
%MOMM*%
%LPD*%
G01*
G04 APERTURE LIST*
G04 Aperture macros list*
%AMRoundRect*
0 Rectangle with rounded corners*
0 $1 Rounding radius*
0 $2 $3 $4 $5 $6 $7 $8 $9 X,Y pos of 4 corners*
0 Add a 4 corners polygon primitive as box body*
4,1,4,$2,$3,$4,$5,$6,$7,$8,$9,$2,$3,0*
0 Add four circle primitives for the rounded corners*
1,1,$1+$1,$2,$3*
1,1,$1+$1,$4,$5*
1,1,$1+$1,$6,$7*
1,1,$1+$1,$8,$9*
0 Add four rect primitives between the rounded corners*
20,1,$1+$1,$2,$3,$4,$5,0*
20,1,$1+$1,$4,$5,$6,$7,0*
20,1,$1+$1,$6,$7,$8,$9,0*
20,1,$1+$1,$8,$9,$2,$3,0*%
%AMFreePoly0*
4,1,17,1.515000,0.170000,0.915000,0.170000,0.915000,-0.080000,1.515000,-0.080000,1.515000,-0.480000,0.915000,-0.480000,0.915000,-0.505000,-0.395000,-0.505000,-0.395000,-1.005000,-0.825000,-1.005000,-0.825000,-0.625000,-0.915000,-0.625000,-0.915000,0.505000,0.815000,0.505000,0.815000,0.570000,1.515000,0.570000,1.515000,0.170000,1.515000,0.170000,$1*%
%AMFreePoly1*
4,1,17,-0.395000,0.505000,0.915000,0.505000,0.915000,0.480000,1.515000,0.480000,1.515000,0.080000,0.915000,0.080000,0.915000,-0.170000,1.515000,-0.170000,1.515000,-0.570000,0.815000,-0.570000,0.815000,-0.505000,-0.915000,-0.505000,-0.915000,0.625000,-0.825000,0.625000,-0.825000,1.005000,-0.395000,1.005000,-0.395000,0.505000,-0.395000,0.505000,$1*%
%AMFreePoly2*
4,1,15,1.100000,0.175000,0.750000,0.175000,0.750000,-0.175000,1.100000,-0.175000,1.100000,-0.475000,0.750000,-0.475000,-0.750000,-0.475000,-1.100000,-0.475000,-1.100000,-0.175000,-0.750000,-0.175000,-0.750000,0.175000,-1.100000,0.175000,-1.100000,0.475000,1.100000,0.475000,1.100000,0.175000,1.100000,0.175000,$1*%
G04 Aperture macros list end*
%TA.AperFunction,SMDPad,CuDef*%
%ADD10R,2.000000X5.080000*%
%TD*%
%TA.AperFunction,SMDPad,CuDef*%
%ADD11R,1.400000X5.080000*%
%TD*%
%TA.AperFunction,ComponentPad*%
%ADD12RoundRect,0.249999X-0.850001X-0.850001X0.850001X-0.850001X0.850001X0.850001X-0.850001X0.850001X0*%
%TD*%
%TA.AperFunction,ComponentPad*%
%ADD13C,2.200000*%
%TD*%
%TA.AperFunction,ComponentPad*%
%ADD14RoundRect,0.250000X0.350000X0.625000X-0.350000X0.625000X-0.350000X-0.625000X0.350000X-0.625000X0*%
%TD*%
%TA.AperFunction,ComponentPad*%
%ADD15O,1.200000X1.750000*%
%TD*%
%TA.AperFunction,ComponentPad*%
%ADD16C,4.700000*%
%TD*%
%TA.AperFunction,SMDPad,CuDef*%
%ADD17RoundRect,0.140000X0.140000X0.170000X-0.140000X0.170000X-0.140000X-0.170000X0.140000X-0.170000X0*%
%TD*%
%TA.AperFunction,SMDPad,CuDef*%
%ADD18RoundRect,0.150000X0.150000X0.450000X-0.150000X0.450000X-0.150000X-0.450000X0.150000X-0.450000X0*%
%TD*%
%TA.AperFunction,SMDPad,CuDef*%
%ADD19RoundRect,0.100000X0.100000X-0.130000X0.100000X0.130000X-0.100000X0.130000X-0.100000X-0.130000X0*%
%TD*%
%TA.AperFunction,SMDPad,CuDef*%
%ADD20RoundRect,0.135000X-0.185000X0.135000X-0.185000X-0.135000X0.185000X-0.135000X0.185000X0.135000X0*%
%TD*%
%TA.AperFunction,SMDPad,CuDef*%
%ADD21RoundRect,0.135000X0.185000X-0.135000X0.185000X0.135000X-0.185000X0.135000X-0.185000X-0.135000X0*%
%TD*%
%TA.AperFunction,SMDPad,CuDef*%
%ADD22RoundRect,0.140000X0.170000X-0.140000X0.170000X0.140000X-0.170000X0.140000X-0.170000X-0.140000X0*%
%TD*%
%TA.AperFunction,SMDPad,CuDef*%
%ADD23R,0.550000X0.950000*%
%TD*%
%TA.AperFunction,SMDPad,CuDef*%
%ADD24RoundRect,0.140000X-0.140000X-0.170000X0.140000X-0.170000X0.140000X0.170000X-0.140000X0.170000X0*%
%TD*%
%TA.AperFunction,SMDPad,CuDef*%
%ADD25RoundRect,0.100000X-0.100000X0.130000X-0.100000X-0.130000X0.100000X-0.130000X0.100000X0.130000X0*%
%TD*%
%TA.AperFunction,SMDPad,CuDef*%
%ADD26RoundRect,0.147500X0.172500X-0.147500X0.172500X0.147500X-0.172500X0.147500X-0.172500X-0.147500X0*%
%TD*%
%TA.AperFunction,SMDPad,CuDef*%
%ADD27RoundRect,0.100000X-0.400000X0.400000X-0.400000X-0.400000X0.400000X-0.400000X0.400000X0.400000X0*%
%TD*%
%TA.AperFunction,SMDPad,CuDef*%
%ADD28RoundRect,0.105000X-0.995000X0.420000X-0.995000X-0.420000X0.995000X-0.420000X0.995000X0.420000X0*%
%TD*%
%TA.AperFunction,SMDPad,CuDef*%
%ADD29RoundRect,0.100000X0.130000X0.100000X-0.130000X0.100000X-0.130000X-0.100000X0.130000X-0.100000X0*%
%TD*%
%TA.AperFunction,SMDPad,CuDef*%
%ADD30RoundRect,0.140000X-0.170000X0.140000X-0.170000X-0.140000X0.170000X-0.140000X0.170000X0.140000X0*%
%TD*%
%TA.AperFunction,SMDPad,CuDef*%
%ADD31RoundRect,0.147500X0.147500X0.172500X-0.147500X0.172500X-0.147500X-0.172500X0.147500X-0.172500X0*%
%TD*%
%TA.AperFunction,SMDPad,CuDef*%
%ADD32RoundRect,0.147500X-0.147500X-0.172500X0.147500X-0.172500X0.147500X0.172500X-0.147500X0.172500X0*%
%TD*%
%TA.AperFunction,SMDPad,CuDef*%
%ADD33R,0.304800X0.762000*%
%TD*%
%TA.AperFunction,SMDPad,CuDef*%
%ADD34R,3.098800X2.387600*%
%TD*%
%TA.AperFunction,SMDPad,CuDef*%
%ADD35R,0.350000X0.760000*%
%TD*%
%TA.AperFunction,SMDPad,CuDef*%
%ADD36FreePoly0,270.000000*%
%TD*%
%TA.AperFunction,SMDPad,CuDef*%
%ADD37FreePoly1,270.000000*%
%TD*%
%TA.AperFunction,SMDPad,CuDef*%
%ADD38RoundRect,0.150000X-0.150000X0.512500X-0.150000X-0.512500X0.150000X-0.512500X0.150000X0.512500X0*%
%TD*%
%TA.AperFunction,SMDPad,CuDef*%
%ADD39FreePoly2,180.000000*%
%TD*%
%TA.AperFunction,SMDPad,CuDef*%
%ADD40RoundRect,0.075000X0.100000X0.075000X-0.100000X0.075000X-0.100000X-0.075000X0.100000X-0.075000X0*%
%TD*%
%TA.AperFunction,SMDPad,CuDef*%
%ADD41RoundRect,0.058750X0.376250X0.058750X-0.376250X0.058750X-0.376250X-0.058750X0.376250X-0.058750X0*%
%TD*%
%TA.AperFunction,SMDPad,CuDef*%
%ADD42RoundRect,0.150000X0.325000X0.150000X-0.325000X0.150000X-0.325000X-0.150000X0.325000X-0.150000X0*%
%TD*%
%TA.AperFunction,SMDPad,CuDef*%
%ADD43RoundRect,0.150000X0.150000X0.325000X-0.150000X0.325000X-0.150000X-0.325000X0.150000X-0.325000X0*%
%TD*%
%TA.AperFunction,SMDPad,CuDef*%
%ADD44RoundRect,0.150000X-0.587500X-0.150000X0.587500X-0.150000X0.587500X0.150000X-0.587500X0.150000X0*%
%TD*%
%TA.AperFunction,SMDPad,CuDef*%
%ADD45RoundRect,0.100000X-0.130000X-0.100000X0.130000X-0.100000X0.130000X0.100000X-0.130000X0.100000X0*%
%TD*%
%TA.AperFunction,BGAPad,CuDef*%
%ADD46C,0.270000*%
%TD*%
%TA.AperFunction,ConnectorPad*%
%ADD47C,0.787400*%
%TD*%
%TA.AperFunction,SMDPad,CuDef*%
%ADD48RoundRect,0.150000X0.150000X-0.512500X0.150000X0.512500X-0.150000X0.512500X-0.150000X-0.512500X0*%
%TD*%
%TA.AperFunction,SMDPad,CuDef*%
%ADD49R,0.900000X0.800000*%
%TD*%
%TA.AperFunction,SMDPad,CuDef*%
%ADD50RoundRect,0.062500X-0.375000X-0.062500X0.375000X-0.062500X0.375000X0.062500X-0.375000X0.062500X0*%
%TD*%
%TA.AperFunction,SMDPad,CuDef*%
%ADD51RoundRect,0.062500X-0.062500X-0.375000X0.062500X-0.375000X0.062500X0.375000X-0.062500X0.375000X0*%
%TD*%
%TA.AperFunction,HeatsinkPad*%
%ADD52R,3.450000X3.450000*%
%TD*%
%TA.AperFunction,SMDPad,CuDef*%
%ADD53FreePoly2,0.000000*%
%TD*%
%TA.AperFunction,SMDPad,CuDef*%
%ADD54RoundRect,0.075000X-0.100000X-0.075000X0.100000X-0.075000X0.100000X0.075000X-0.100000X0.075000X0*%
%TD*%
%TA.AperFunction,SMDPad,CuDef*%
%ADD55RoundRect,0.058750X-0.376250X-0.058750X0.376250X-0.058750X0.376250X0.058750X-0.376250X0.058750X0*%
%TD*%
%TA.AperFunction,ViaPad*%
%ADD56C,0.400000*%
%TD*%
%TA.AperFunction,Conductor*%
%ADD57C,0.156500*%
%TD*%
%TA.AperFunction,Conductor*%
%ADD58C,0.400000*%
%TD*%
%TA.AperFunction,Conductor*%
%ADD59C,0.100000*%
%TD*%
%TA.AperFunction,Conductor*%
%ADD60C,0.160000*%
%TD*%
%TA.AperFunction,Conductor*%
%ADD61C,0.640000*%
%TD*%
G04 APERTURE END LIST*
D10*
%TO.P,J3,1,In*%
%TO.N,Net-(J3-In)*%
X103200000Y-32800000D03*
%TD*%
D11*
%TO.P,J3,1,In*%
%TO.N,GND*%
X106300000Y-32800000D03*
%TD*%
D12*
%TO.P,J4,1,Pin_1*%
%TO.N,/FET_B*%
X91620000Y-61850000D03*
D13*
%TO.P,J4,2,Pin_2*%
%TO.N,/FET_A*%
X94160000Y-61850000D03*
%TO.P,J4,3,Pin_3*%
%TO.N,V_LIPO*%
X96700000Y-61850000D03*
%TD*%
D14*
%TO.P,J6,1,Pin_1*%
%TO.N,V_CHARGE*%
X103180000Y-63250000D03*
D15*
%TO.P,J6,2,Pin_2*%
%TO.N,GND*%
X101180000Y-63250000D03*
%TD*%
D16*
%TO.P,H2,1,1*%
%TO.N,GND*%
X92600000Y-32600000D03*
%TD*%
%TO.P,H1,1,1*%
%TO.N,GND*%
X104600000Y-57350000D03*
%TD*%
D17*
%TO.P,C42,1*%
%TO.N,Net-(C42-Pad1)*%
X99859506Y-31680235D03*
%TO.P,C42,2*%
%TO.N,GND*%
X98899506Y-31680235D03*
%TD*%
D18*
%TO.P,Y2,1,1*%
%TO.N,Net-(U1-RTC_O)*%
X94030203Y-55357890D03*
%TO.P,Y2,2,2*%
%TO.N,Net-(U1-RTC_I)*%
X92830203Y-55357890D03*
%TD*%
D17*
%TO.P,C39,1*%
%TO.N,Net-(C39-Pad1)*%
X100995892Y-36580123D03*
%TO.P,C39,2*%
%TO.N,/LNA_P*%
X100035892Y-36580123D03*
%TD*%
D19*
%TO.P,R59,1*%
%TO.N,Net-(D4-A2)*%
X98840000Y-61220000D03*
%TO.P,R59,2*%
%TO.N,VBUS*%
X98840000Y-60580000D03*
%TD*%
%TO.P,R9,1*%
%TO.N,Net-(R9-Pad1)*%
X97950000Y-46825002D03*
%TO.P,R9,2*%
%TO.N,/USB_D-*%
X97950000Y-46185002D03*
%TD*%
D20*
%TO.P,R15,1*%
%TO.N,GND*%
X95190000Y-57070000D03*
%TO.P,R15,2*%
%TO.N,/SENSE_A*%
X95190000Y-58090000D03*
%TD*%
D21*
%TO.P,R54,1*%
%TO.N,Net-(U1-VCC_RF)*%
X97042106Y-51611254D03*
%TO.P,R54,2*%
%TO.N,Net-(C43-Pad1)*%
X97042106Y-50591256D03*
%TD*%
D17*
%TO.P,C41,1*%
%TO.N,Net-(C38-Pad2)*%
X99855291Y-32597834D03*
%TO.P,C41,2*%
%TO.N,Net-(C40-Pad1)*%
X98895291Y-32597834D03*
%TD*%
D22*
%TO.P,C7,1*%
%TO.N,GND*%
X106470391Y-37443131D03*
%TO.P,C7,2*%
%TO.N,+3V3*%
X106470391Y-36483131D03*
%TD*%
D23*
%TO.P,U4,1,VDD*%
%TO.N,+3V3*%
X102650000Y-41884904D03*
%TO.P,U4,2,PS*%
%TO.N,GND*%
X103900000Y-41884904D03*
%TO.P,U4,3,GND*%
X105150000Y-41884904D03*
%TO.P,U4,4,CSB*%
%TO.N,/CS_BARO*%
X106400000Y-41884904D03*
%TO.P,U4,5,CSB*%
X106400000Y-44034904D03*
%TO.P,U4,6,SDO*%
%TO.N,/MISO3*%
X105150000Y-44034904D03*
%TO.P,U4,7,SDI/SDA*%
%TO.N,/MOSI3*%
X103900000Y-44034904D03*
%TO.P,U4,8,SCLK*%
%TO.N,/SCK3*%
X102650000Y-44034904D03*
%TD*%
D24*
%TO.P,C27,1*%
%TO.N,Net-(U8-LPF1)*%
X99090000Y-42130000D03*
%TO.P,C27,2*%
%TO.N,Net-(U8-LPF0)*%
X100050000Y-42130000D03*
%TD*%
D25*
%TO.P,R4,1*%
%TO.N,/GATE_A*%
X96042992Y-57445294D03*
%TO.P,R4,2*%
%TO.N,/FIRE_A*%
X96042992Y-58085294D03*
%TD*%
D19*
%TO.P,C50,1*%
%TO.N,GND*%
X95030356Y-43724934D03*
%TO.P,C50,2*%
%TO.N,Net-(U8-DCPL_XOSC)*%
X95030356Y-43084934D03*
%TD*%
D26*
%TO.P,L2,1*%
%TO.N,/PA*%
X97408749Y-35862499D03*
%TO.P,L2,2*%
%TO.N,Net-(C31-Pad2)*%
X97408749Y-34892499D03*
%TD*%
D22*
%TO.P,C9,1*%
%TO.N,GND*%
X101200000Y-42760000D03*
%TO.P,C9,2*%
%TO.N,+3V3*%
X101200000Y-41800000D03*
%TD*%
D24*
%TO.P,C13,1*%
%TO.N,GND*%
X90750978Y-38660977D03*
%TO.P,C13,2*%
%TO.N,Net-(U8-DCPL)*%
X91710978Y-38660977D03*
%TD*%
D19*
%TO.P,C51,1*%
%TO.N,GND*%
X96790000Y-43700000D03*
%TO.P,C51,2*%
%TO.N,Net-(U8-DCPL_PFD_CHP)*%
X96790000Y-43060000D03*
%TD*%
D24*
%TO.P,C37,1*%
%TO.N,/LNA_N*%
X100006249Y-38462500D03*
%TO.P,C37,2*%
%TO.N,GND*%
X100966249Y-38462500D03*
%TD*%
D26*
%TO.P,L1,1*%
%TO.N,/LNA_N*%
X99106249Y-39362500D03*
%TO.P,L1,2*%
%TO.N,/LNA_P*%
X99106249Y-38392500D03*
%TD*%
D21*
%TO.P,R19,1*%
%TO.N,GND*%
X90900000Y-55937083D03*
%TO.P,R19,2*%
%TO.N,/FIRE_B*%
X90900000Y-54917085D03*
%TD*%
D27*
%TO.P,J5,1,In*%
%TO.N,Net-(J5-In)*%
X98826594Y-55270378D03*
D28*
%TO.P,J5,2,Ext*%
%TO.N,GND*%
X100326594Y-56745379D03*
D27*
X101826594Y-55270378D03*
D28*
X100326594Y-53795377D03*
%TD*%
D19*
%TO.P,R5,1*%
%TO.N,/GATE_B*%
X91737569Y-55548425D03*
%TO.P,R5,2*%
%TO.N,/FIRE_B*%
X91737569Y-54908425D03*
%TD*%
D29*
%TO.P,C49,1*%
%TO.N,GND*%
X100079899Y-41200000D03*
%TO.P,C49,2*%
%TO.N,+3V3*%
X99439899Y-41200000D03*
%TD*%
D30*
%TO.P,C36,1*%
%TO.N,GND*%
X97958005Y-31190767D03*
%TO.P,C36,2*%
%TO.N,+3V3*%
X97958005Y-32150767D03*
%TD*%
D31*
%TO.P,D6,1,K*%
%TO.N,Net-(D6-K)*%
X96136185Y-56071328D03*
%TO.P,D6,2,A*%
%TO.N,Net-(D6-A)*%
X95166185Y-56071328D03*
%TD*%
D32*
%TO.P,L6,1*%
%TO.N,Net-(C40-Pad1)*%
X98870408Y-33536292D03*
%TO.P,L6,2*%
%TO.N,Net-(C38-Pad2)*%
X99840408Y-33536292D03*
%TD*%
D20*
%TO.P,R12,1*%
%TO.N,GND*%
X95506249Y-34952501D03*
%TO.P,R12,2*%
%TO.N,Net-(U8-RBIAS)*%
X95506249Y-35972499D03*
%TD*%
D33*
%TO.P,U19,1,~{CS}*%
%TO.N,/CS_FLASH*%
X101650000Y-52387000D03*
%TO.P,U19,2,DO/IO_{1}*%
%TO.N,/MISO5*%
X100849900Y-52387000D03*
%TO.P,U19,3,~{WP}/IO_{2}*%
%TO.N,+3V3*%
X100049800Y-52387000D03*
%TO.P,U19,4,GND*%
%TO.N,GND*%
X99249700Y-52387000D03*
%TO.P,U19,5,DI/IO_{0}*%
%TO.N,/MOSI5*%
X99249700Y-48450000D03*
%TO.P,U19,6,CLK*%
%TO.N,/SCK5*%
X100049800Y-48450000D03*
%TO.P,U19,7,~{HOLD}/~{RESET}/IO_{3}*%
%TO.N,+3V3*%
X100849900Y-48450000D03*
%TO.P,U19,8,VCC*%
X101650000Y-48450000D03*
D34*
%TO.P,U19,9,EP*%
%TO.N,GND*%
X100449850Y-50418500D03*
%TD*%
D25*
%TO.P,C48,1*%
%TO.N,GND*%
X94677814Y-35353629D03*
%TO.P,C48,2*%
%TO.N,+3V3*%
X94677814Y-35993629D03*
%TD*%
D35*
%TO.P,U20,1,S*%
%TO.N,GND*%
X91943463Y-56783325D03*
%TO.P,U20,2,G*%
%TO.N,/GATE_B*%
X92593463Y-56783325D03*
%TO.P,U20,3,S*%
%TO.N,GND*%
X93243463Y-56783325D03*
%TO.P,U20,4,G*%
%TO.N,/GATE_A*%
X93893463Y-56783325D03*
D36*
%TO.P,U20,5,D*%
%TO.N,/FET_B*%
X92223463Y-58748325D03*
D37*
%TO.P,U20,6,D*%
%TO.N,/FET_A*%
X93613463Y-58748325D03*
%TD*%
D30*
%TO.P,C31,1*%
%TO.N,+3V3*%
X97006249Y-33062500D03*
%TO.P,C31,2*%
%TO.N,Net-(C31-Pad2)*%
X97006249Y-34022500D03*
%TD*%
D38*
%TO.P,U2,1*%
%TO.N,Net-(J10-Pin_2)*%
X99087501Y-44112500D03*
%TO.P,U2,2*%
%TO.N,GND*%
X100037500Y-44112500D03*
%TO.P,U2,3*%
%TO.N,Net-(J10-Pin_1)*%
X100987499Y-44112500D03*
%TO.P,U2,4*%
%TO.N,Net-(R1-Pad1)*%
X100987499Y-46387500D03*
%TO.P,U2,5*%
%TO.N,VBUS*%
X100037500Y-46387500D03*
%TO.P,U2,6*%
%TO.N,Net-(R9-Pad1)*%
X99087501Y-46387500D03*
%TD*%
D25*
%TO.P,R1,1*%
%TO.N,Net-(R1-Pad1)*%
X97800000Y-44730000D03*
%TO.P,R1,2*%
%TO.N,/USB_D+*%
X97800000Y-45370000D03*
%TD*%
%TO.P,R46,1*%
%TO.N,/V_BATT*%
X96992341Y-59471811D03*
%TO.P,R46,2*%
%TO.N,V_LIPO*%
X96992341Y-60111811D03*
%TD*%
D21*
%TO.P,R21,1*%
%TO.N,Net-(U1-V_BCKP)*%
X98918131Y-64485309D03*
%TO.P,R21,2*%
%TO.N,V_CHARGE*%
X98918131Y-63465311D03*
%TD*%
D22*
%TO.P,C43,1*%
%TO.N,Net-(C43-Pad1)*%
X97068908Y-49720526D03*
%TO.P,C43,2*%
%TO.N,GND*%
X97068908Y-48760526D03*
%TD*%
D17*
%TO.P,C33,1*%
%TO.N,GND*%
X100191073Y-40368044D03*
%TO.P,C33,2*%
%TO.N,Net-(U8-DCPL_VCO)*%
X99231073Y-40368044D03*
%TD*%
D22*
%TO.P,C38,1*%
%TO.N,/TRX_SW*%
X99820660Y-35404096D03*
%TO.P,C38,2*%
%TO.N,Net-(C38-Pad2)*%
X99820660Y-34444096D03*
%TD*%
D39*
%TO.P,Q3,1,D*%
%TO.N,V_LIPO*%
X105683812Y-60973127D03*
D40*
%TO.P,Q3,3,G*%
%TO.N,Net-(Q2-D)*%
X106608812Y-61948127D03*
D41*
%TO.P,Q3,4,S*%
%TO.N,/MGSW_IN*%
X105643812Y-61948127D03*
D40*
X104758812Y-61948127D03*
%TD*%
D19*
%TO.P,C47,1*%
%TO.N,GND*%
X95737384Y-43713246D03*
%TO.P,C47,2*%
%TO.N,+3V3*%
X95737384Y-43073246D03*
%TD*%
D31*
%TO.P,L4,1*%
%TO.N,GND*%
X101026826Y-37522156D03*
%TO.P,L4,2*%
%TO.N,/LNA_P*%
X100056826Y-37522156D03*
%TD*%
D42*
%TO.P,U3,1,Vdd_I/O*%
%TO.N,+3V3*%
X105200000Y-36400000D03*
%TO.P,U3,2,GND*%
%TO.N,GND*%
X105200000Y-37200000D03*
%TO.P,U3,3,RES*%
%TO.N,unconnected-(U3-RES-Pad3)*%
X105200000Y-38000000D03*
%TO.P,U3,4,GND*%
%TO.N,GND*%
X105200000Y-38800000D03*
%TO.P,U3,5,GND*%
X105200000Y-39600000D03*
%TO.P,U3,6,Vs*%
%TO.N,+3V3*%
X105200000Y-40400000D03*
D43*
%TO.P,U3,7,~{CS}*%
%TO.N,/CS_ACCEL*%
X104200000Y-40400001D03*
D42*
%TO.P,U3,8,INT1*%
%TO.N,/AC_INT1*%
X103200000Y-40400000D03*
%TO.P,U3,9,INT2*%
%TO.N,/AC_INT2*%
X103200000Y-39600000D03*
%TO.P,U3,10,NC*%
%TO.N,unconnected-(U3-NC-Pad10)*%
X103200000Y-38800000D03*
%TO.P,U3,11,RES*%
%TO.N,unconnected-(U3-RES-Pad11)*%
X103200000Y-38000000D03*
%TO.P,U3,12,SDO/ADDR*%
%TO.N,/MISO0*%
X103200000Y-37200000D03*
%TO.P,U3,13,SDA/SDI/SDIO*%
%TO.N,/MOSI0*%
X103200000Y-36400000D03*
D43*
%TO.P,U3,14,SCL/SCLK*%
%TO.N,/SCK0*%
X104200000Y-36399999D03*
%TD*%
D26*
%TO.P,L7,1*%
%TO.N,Net-(C38-Pad2)*%
X100806249Y-33747500D03*
%TO.P,L7,2*%
%TO.N,Net-(C42-Pad1)*%
X100806249Y-32777500D03*
%TD*%
%TO.P,L5,1*%
%TO.N,Net-(C39-Pad1)*%
X100806249Y-35632500D03*
%TO.P,L5,2*%
%TO.N,/TRX_SW*%
X100806249Y-34662500D03*
%TD*%
D21*
%TO.P,R18,1*%
%TO.N,GND*%
X96163770Y-59957373D03*
%TO.P,R18,2*%
%TO.N,/FIRE_A*%
X96163770Y-58937375D03*
%TD*%
D44*
%TO.P,U6,1,~{RST}*%
%TO.N,/NRST*%
X103112500Y-47500000D03*
%TO.P,U6,2,VDD*%
%TO.N,+3V3*%
X103112500Y-45600000D03*
%TO.P,U6,3,VSS*%
%TO.N,GND*%
X104987501Y-46550000D03*
%TD*%
D25*
%TO.P,C29,1*%
%TO.N,GND*%
X96325350Y-35169319D03*
%TO.P,C29,2*%
%TO.N,+3V3*%
X96325350Y-35809319D03*
%TD*%
D20*
%TO.P,R16,1*%
%TO.N,GND*%
X90614999Y-56901009D03*
%TO.P,R16,2*%
%TO.N,/SENSE_B*%
X90614999Y-57921009D03*
%TD*%
D22*
%TO.P,C25,1*%
%TO.N,GND*%
X90600000Y-44500000D03*
%TO.P,C25,2*%
%TO.N,Net-(U8-XOSC_Q2)*%
X90600000Y-43540000D03*
%TD*%
D45*
%TO.P,R56,1*%
%TO.N,Net-(D6-K)*%
X97003630Y-56131971D03*
%TO.P,R56,2*%
%TO.N,GND*%
X97643630Y-56131971D03*
%TD*%
D30*
%TO.P,C8,1*%
%TO.N,GND*%
X106483237Y-38333973D03*
%TO.P,C8,2*%
%TO.N,+3V3*%
X106483237Y-39293973D03*
%TD*%
D19*
%TO.P,R47,1*%
%TO.N,GND*%
X97694626Y-60096616D03*
%TO.P,R47,2*%
%TO.N,/V_BATT*%
X97694626Y-59456616D03*
%TD*%
D17*
%TO.P,C26,1*%
%TO.N,GND*%
X96043070Y-44590231D03*
%TO.P,C26,2*%
%TO.N,Net-(U8-XOSC_Q1)*%
X95083070Y-44590231D03*
%TD*%
D46*
%TO.P,U1,A1,GND*%
%TO.N,GND*%
X91304541Y-53100000D03*
%TO.P,U1,A2,GND*%
X91804541Y-53100000D03*
%TO.P,U1,A3,GND*%
X92304541Y-53100000D03*
%TO.P,U1,A4,RTC_I*%
%TO.N,Net-(U1-RTC_I)*%
X92804541Y-53100000D03*
%TO.P,U1,A5,RTC_O*%
%TO.N,Net-(U1-RTC_O)*%
X93304541Y-53100001D03*
%TO.P,U1,A6,EXTINT*%
%TO.N,unconnected-(U1-EXTINT-PadA6)*%
X93804541Y-53100000D03*
%TO.P,U1,A7,TIMEPULSE*%
%TO.N,Net-(D6-A)*%
X94304541Y-53100000D03*
%TO.P,U1,A8,GND*%
%TO.N,GND*%
X94804541Y-53100000D03*
%TO.P,U1,A9,GND*%
X95304541Y-53100000D03*
%TO.P,U1,B1,VCC*%
%TO.N,+3V3*%
X91304541Y-52600000D03*
%TO.P,U1,B2,GND*%
%TO.N,GND*%
X91804541Y-52600000D03*
%TO.P,U1,B8,GND*%
X94804541Y-52600000D03*
%TO.P,U1,B9,RF_IN*%
%TO.N,Net-(J5-In)*%
X95304541Y-52600000D03*
%TO.P,U1,C1,Reserved*%
%TO.N,unconnected-(U1-Reserved-PadC1)*%
X91304541Y-52100000D03*
%TO.P,U1,C3,GND*%
%TO.N,GND*%
X92304541Y-52100000D03*
%TO.P,U1,C4,~{RESET}*%
%TO.N,/NRST*%
X92804541Y-52100000D03*
%TO.P,U1,C5,Reserved*%
%TO.N,unconnected-(U1-Reserved-PadC5)*%
X93304541Y-52100000D03*
%TO.P,U1,C6,VCC_RF*%
%TO.N,Net-(U1-VCC_RF)*%
X93804541Y-52100000D03*
%TO.P,U1,C7,~{SAFEBOOT}*%
%TO.N,unconnected-(U1-~{SAFEBOOT}-PadC7)*%
X94304541Y-52100000D03*
%TO.P,U1,C9,GND*%
%TO.N,GND*%
X95304541Y-52100000D03*
%TO.P,U1,D1,SDA*%
%TO.N,unconnected-(U1-SDA-PadD1)*%
X91304541Y-51600000D03*
%TO.P,U1,D2,Reserved*%
%TO.N,unconnected-(U1-Reserved-PadD2)*%
X91804541Y-51600000D03*
%TO.P,U1,D9,Reserved*%
%TO.N,unconnected-(U1-Reserved-PadD9)*%
X95304541Y-51600000D03*
%TO.P,U1,E1,SCL*%
%TO.N,unconnected-(U1-SCL-PadE1)*%
X91304540Y-51100000D03*
%TO.P,U1,E2,Reserved*%
%TO.N,unconnected-(U1-Reserved-PadE2)*%
X91804541Y-51100000D03*
%TO.P,U1,E3,GND*%
%TO.N,GND*%
X92304541Y-51100000D03*
%TO.P,U1,E4,GND*%
X92804542Y-51100000D03*
%TO.P,U1,E7,Reserved*%
%TO.N,unconnected-(U1-Reserved-PadE7)*%
X94304541Y-51100000D03*
%TO.P,U1,E9,GND*%
%TO.N,GND*%
X95304542Y-51100000D03*
%TO.P,U1,F1,GND*%
X91304541Y-50600000D03*
%TO.P,U1,F3,GND*%
X92304541Y-50600000D03*
%TO.P,U1,F4,GND*%
X92804541Y-50600000D03*
%TO.P,U1,F7,PIO6*%
%TO.N,unconnected-(U1-PIO6-PadF7)*%
X94304541Y-50600000D03*
%TO.P,U1,F9,Reserved*%
%TO.N,GND*%
X95304541Y-50600000D03*
%TO.P,U1,G1,TX*%
%TO.N,/TX1*%
X91304541Y-50100000D03*
%TO.P,U1,G3,GND*%
%TO.N,GND*%
X92304541Y-50100000D03*
%TO.P,U1,G4,GND*%
X92804541Y-50100000D03*
%TO.P,U1,G5,GND*%
X93304541Y-50100000D03*
%TO.P,U1,G6,GND*%
X93804541Y-50100000D03*
%TO.P,U1,G7,Reserved*%
X94304541Y-50100000D03*
%TO.P,U1,G9,Reserved*%
%TO.N,unconnected-(U1-Reserved-PadG9)*%
X95304541Y-50100000D03*
%TO.P,U1,H1,RX*%
%TO.N,/RX1*%
X91304541Y-49600000D03*
%TO.P,U1,H8,GND*%
%TO.N,GND*%
X94804541Y-49600000D03*
%TO.P,U1,H9,LNA_EN*%
%TO.N,unconnected-(U1-LNA_EN-PadH9)*%
X95304541Y-49600000D03*
%TO.P,U1,J1,Reserved*%
%TO.N,unconnected-(U1-Reserved-PadJ1)*%
X91304541Y-49100000D03*
%TO.P,U1,J2,Reserved*%
%TO.N,unconnected-(U1-Reserved-PadJ2)*%
X91804541Y-49100000D03*
%TO.P,U1,J3,Reserved*%
%TO.N,unconnected-(U1-Reserved-PadJ3)*%
X92304541Y-49100000D03*
%TO.P,U1,J4,V_IO*%
%TO.N,+3V3*%
X92804541Y-49100000D03*
%TO.P,U1,J5,V_BCKP*%
%TO.N,Net-(U1-V_BCKP)*%
X93304541Y-49099999D03*
%TO.P,U1,J6,VIO_SEL*%
%TO.N,unconnected-(U1-VIO_SEL-PadJ6)*%
X93804541Y-49100000D03*
%TO.P,U1,J7,Reserved*%
%TO.N,unconnected-(U1-Reserved-PadJ7)*%
X94304541Y-49100000D03*
%TO.P,U1,J8,GND*%
%TO.N,GND*%
X94804541Y-49100000D03*
%TO.P,U1,J9,GND*%
X95304541Y-49100000D03*
%TD*%
D47*
%TO.P,J1,1,VCC*%
%TO.N,+3V3*%
X104630000Y-53050000D03*
%TO.P,J1,2,SWDIO*%
%TO.N,/SWDIO*%
X105900000Y-53050000D03*
%TO.P,J1,3,~{RESET}*%
%TO.N,/NRST*%
X104630000Y-51780000D03*
%TO.P,J1,4,SWCLK*%
%TO.N,/SWCLK*%
X105900000Y-51780000D03*
%TO.P,J1,5,GND*%
%TO.N,GND*%
X104630000Y-50510000D03*
%TO.P,J1,6,SWO*%
%TO.N,unconnected-(J1-SWO-Pad6)*%
X105900000Y-50510000D03*
%TD*%
D48*
%TO.P,U17,1,STAT*%
%TO.N,Net-(D4-A1)*%
X101832500Y-61337500D03*
%TO.P,U17,2,V_{SS}*%
%TO.N,GND*%
X100882500Y-61337500D03*
%TO.P,U17,3,V_{BAT}*%
%TO.N,V_CHARGE*%
X99932500Y-61337500D03*
%TO.P,U17,4,V_{DD}*%
%TO.N,VBUS*%
X99932500Y-59062500D03*
%TO.P,U17,5,PROG*%
%TO.N,Net-(U17-PROG)*%
X101832500Y-59062500D03*
%TD*%
D45*
%TO.P,C32,1*%
%TO.N,GND*%
X91097455Y-41311201D03*
%TO.P,C32,2*%
%TO.N,+3V3*%
X91737455Y-41311201D03*
%TD*%
D25*
%TO.P,R52,1*%
%TO.N,Net-(D4-K1)*%
X98840000Y-62030000D03*
%TO.P,R52,2*%
%TO.N,GND*%
X98840000Y-62670000D03*
%TD*%
D49*
%TO.P,Y1,1,1*%
%TO.N,Net-(U8-XOSC_Q1)*%
X93675000Y-44825000D03*
%TO.P,Y1,2,2*%
%TO.N,GND*%
X92025000Y-44825000D03*
%TO.P,Y1,3,3*%
%TO.N,Net-(U8-XOSC_Q2)*%
X92025000Y-43575000D03*
%TO.P,Y1,4,4*%
%TO.N,GND*%
X93675000Y-43575000D03*
%TD*%
D30*
%TO.P,C35,1*%
%TO.N,GND*%
X97017289Y-31189490D03*
%TO.P,C35,2*%
%TO.N,+3V3*%
X97017289Y-32149490D03*
%TD*%
D26*
%TO.P,FB2,1*%
%TO.N,Net-(J5-In)*%
X97059974Y-53456571D03*
%TO.P,FB2,2*%
%TO.N,Net-(C43-Pad1)*%
X97059974Y-52486571D03*
%TD*%
%TO.P,L8,1*%
%TO.N,Net-(C42-Pad1)*%
X100795707Y-31851209D03*
%TO.P,L8,2*%
%TO.N,Net-(J3-In)*%
X100795707Y-30881209D03*
%TD*%
D21*
%TO.P,R13,1*%
%TO.N,/FET_A*%
X95187660Y-59947523D03*
%TO.P,R13,2*%
%TO.N,/SENSE_A*%
X95187660Y-58927523D03*
%TD*%
D19*
%TO.P,C30,1*%
%TO.N,GND*%
X97514460Y-43690672D03*
%TO.P,C30,2*%
%TO.N,+3V3*%
X97514460Y-43050672D03*
%TD*%
D30*
%TO.P,C40,1*%
%TO.N,Net-(C40-Pad1)*%
X98334962Y-34909117D03*
%TO.P,C40,2*%
%TO.N,/PA*%
X98334962Y-35869117D03*
%TD*%
D32*
%TO.P,L3,1*%
%TO.N,/LNA_N*%
X100025425Y-39427157D03*
%TO.P,L3,2*%
%TO.N,Net-(C39-Pad1)*%
X100995425Y-39427157D03*
%TD*%
D45*
%TO.P,C34,1*%
%TO.N,GND*%
X91088777Y-39514107D03*
%TO.P,C34,2*%
%TO.N,+3V3*%
X91728777Y-39514107D03*
%TD*%
D17*
%TO.P,C10,1*%
%TO.N,GND*%
X106380000Y-45500000D03*
%TO.P,C10,2*%
%TO.N,+3V3*%
X105420000Y-45500000D03*
%TD*%
D21*
%TO.P,R37,1*%
%TO.N,GND*%
X103080000Y-61039998D03*
%TO.P,R37,2*%
%TO.N,Net-(U17-PROG)*%
X103080000Y-60020000D03*
%TD*%
D22*
%TO.P,C20,1*%
%TO.N,GND*%
X98720000Y-59750000D03*
%TO.P,C20,2*%
%TO.N,VBUS*%
X98720000Y-58790000D03*
%TD*%
D24*
%TO.P,C21,1*%
%TO.N,GND*%
X102920000Y-64800000D03*
%TO.P,C21,2*%
%TO.N,V_CHARGE*%
X103880000Y-64800000D03*
%TD*%
D50*
%TO.P,U8,1,VDD_GUARD*%
%TO.N,+3V3*%
X92837500Y-41275000D03*
%TO.P,U8,2,~{RESET}*%
%TO.N,/NRST*%
X92837500Y-40775000D03*
%TO.P,U8,3,GPIO3*%
%TO.N,/RADIO_MARC_ISR*%
X92837500Y-40275000D03*
%TO.P,U8,4,GPIO2*%
%TO.N,/RADIO_INT*%
X92837500Y-39775000D03*
%TO.P,U8,5,DVDD*%
%TO.N,+3V3*%
X92837500Y-39275000D03*
%TO.P,U8,6,DCPL*%
%TO.N,Net-(U8-DCPL)*%
X92837500Y-38775000D03*
%TO.P,U8,7,SI*%
%TO.N,/MOSI5*%
X92837500Y-38275000D03*
%TO.P,U8,8,SCLK*%
%TO.N,/SCK5*%
X92837500Y-37775000D03*
D51*
%TO.P,U8,9,SO(GPIO1)*%
%TO.N,/MISO5*%
X93525000Y-37087500D03*
%TO.P,U8,10,GPIO0*%
%TO.N,unconnected-(U8-GPIO0-Pad10)*%
X94025000Y-37087500D03*
%TO.P,U8,11,~{CS}*%
%TO.N,/CS_RADIO*%
X94525000Y-37087500D03*
%TO.P,U8,12,DVDD*%
%TO.N,+3V3*%
X95025000Y-37087500D03*
%TO.P,U8,13,AVDD_IF*%
X95525000Y-37087500D03*
%TO.P,U8,14,RBIAS*%
%TO.N,Net-(U8-RBIAS)*%
X96025000Y-37087500D03*
%TO.P,U8,15,AVDD_RF*%
%TO.N,+3V3*%
X96525000Y-37087500D03*
%TO.P,U8,16*%
%TO.N,N/C*%
X97025000Y-37087500D03*
D50*
%TO.P,U8,17,PA*%
%TO.N,/PA*%
X97712500Y-37775000D03*
%TO.P,U8,18,TRX_SW*%
%TO.N,/TRX_SW*%
X97712500Y-38275000D03*
%TO.P,U8,19,LNA_P*%
%TO.N,/LNA_P*%
X97712500Y-38775000D03*
%TO.P,U8,20,LNA_N*%
%TO.N,/LNA_N*%
X97712500Y-39275000D03*
%TO.P,U8,21,DCPL_VCO*%
%TO.N,Net-(U8-DCPL_VCO)*%
X97712500Y-39775000D03*
%TO.P,U8,22,AVDD_SYNTH1*%
%TO.N,+3V3*%
X97712500Y-40275000D03*
%TO.P,U8,23,LPF0*%
%TO.N,Net-(U8-LPF0)*%
X97712500Y-40775000D03*
%TO.P,U8,24,LPF1*%
%TO.N,Net-(U8-LPF1)*%
X97712500Y-41275000D03*
D51*
%TO.P,U8,25,AVDD_PFD_CHP*%
%TO.N,+3V3*%
X97025000Y-41962500D03*
%TO.P,U8,26,DCPL_PFD_CHP*%
%TO.N,Net-(U8-DCPL_PFD_CHP)*%
X96525000Y-41962500D03*
%TO.P,U8,27,AVDD_SYNTH2*%
%TO.N,+3V3*%
X96025000Y-41962500D03*
%TO.P,U8,28,AVDD_XOSC*%
X95525000Y-41962500D03*
%TO.P,U8,29,DCPL_XOSC*%
%TO.N,Net-(U8-DCPL_XOSC)*%
X95025000Y-41962500D03*
%TO.P,U8,30,XOSC_Q1*%
%TO.N,Net-(U8-XOSC_Q1)*%
X94525000Y-41962500D03*
%TO.P,U8,31,XOSC_Q2*%
%TO.N,Net-(U8-XOSC_Q2)*%
X94025000Y-41962500D03*
%TO.P,U8,32,EXT_XOSC*%
%TO.N,GND*%
X93525000Y-41962500D03*
D52*
%TO.P,U8,33,GND_EP*%
X95275000Y-39525000D03*
%TD*%
D53*
%TO.P,Q1,1,D*%
%TO.N,V_CHARGE*%
X105680271Y-64200000D03*
D54*
%TO.P,Q1,3,G*%
%TO.N,Net-(Q1-G)*%
X104755271Y-63225000D03*
D55*
%TO.P,Q1,4,S*%
%TO.N,/MGSW_IN*%
X105720271Y-63225000D03*
D54*
X106605271Y-63225000D03*
%TD*%
D21*
%TO.P,R14,1*%
%TO.N,/FET_B*%
X90614999Y-59831009D03*
%TO.P,R14,2*%
%TO.N,/SENSE_B*%
X90614999Y-58811009D03*
%TD*%
D20*
%TO.P,R48,1*%
%TO.N,+3V3*%
X97946249Y-33012501D03*
%TO.P,R48,2*%
%TO.N,Net-(C31-Pad2)*%
X97946249Y-34032499D03*
%TD*%
D56*
%TO.N,GND*%
X94863261Y-52227954D03*
X95255169Y-50967719D03*
X104600000Y-50200000D03*
X90610352Y-48518702D03*
X100326594Y-56745379D03*
X106100000Y-47600000D03*
X102438025Y-46363215D03*
X101225000Y-42700000D03*
X92400000Y-54050000D03*
X97960000Y-64690000D03*
X103100000Y-61000000D03*
X90575000Y-56425000D03*
X104330476Y-38454400D03*
X106700000Y-50250000D03*
X96370000Y-52480000D03*
X91304541Y-53150003D03*
X95661513Y-46940187D03*
X96002985Y-55366247D03*
X92910000Y-63700000D03*
X105856124Y-31919948D03*
X105941802Y-33273649D03*
X90400000Y-44900000D03*
X91850000Y-54000000D03*
X97794486Y-30771352D03*
X106600000Y-34600000D03*
X92150000Y-57425000D03*
X95187660Y-57017523D03*
X100966249Y-38462500D03*
X91088777Y-39514107D03*
X97740611Y-60140829D03*
X100000000Y-40200000D03*
X92804541Y-50100000D03*
X96132299Y-60277290D03*
X94060574Y-38053181D03*
X95300000Y-63900000D03*
X103600000Y-50600000D03*
X96180000Y-50350000D03*
X93010000Y-42120000D03*
X96043070Y-44590231D03*
X106600000Y-32000000D03*
X98100000Y-58200000D03*
X93675000Y-43575000D03*
X97643630Y-56131971D03*
X94910000Y-54120000D03*
X90600000Y-41400000D03*
X94450000Y-56300000D03*
X100714507Y-55961513D03*
X92800000Y-51100000D03*
X98600000Y-31600000D03*
X94304541Y-50100000D03*
X94737297Y-53340027D03*
X106500000Y-37900000D03*
X90640000Y-47490000D03*
X99050000Y-62720000D03*
X105907531Y-34678756D03*
X106600000Y-33200000D03*
X101041826Y-37772156D03*
X106302829Y-43000000D03*
X99900000Y-49200000D03*
%TO.N,+3V3*%
X96018749Y-41962500D03*
X92900000Y-41500000D03*
X97800000Y-55500000D03*
X106470391Y-36483131D03*
X97400000Y-54750000D03*
X97430000Y-42340000D03*
X97900000Y-54900000D03*
X92120000Y-47740000D03*
X101000000Y-48450000D03*
X103112500Y-45600000D03*
X96414376Y-35765076D03*
X97446249Y-32622500D03*
X102200000Y-41800000D03*
X106600000Y-39100000D03*
X106500000Y-46800000D03*
X100000000Y-52400000D03*
X91728777Y-39514107D03*
X97228341Y-55395349D03*
X96360000Y-46250000D03*
X104300000Y-54400000D03*
X92804541Y-49100000D03*
X91304541Y-52600000D03*
%TO.N,/NRST*%
X94814559Y-50305877D03*
X103431000Y-47950000D03*
X90847399Y-40323378D03*
%TO.N,/RADIO_MARC_ISR*%
X98600000Y-42800000D03*
X91349997Y-40100000D03*
%TO.N,/RADIO_INT*%
X91900000Y-40100000D03*
X98142371Y-43105086D03*
%TO.N,/CS_RADIO*%
X93200000Y-35700000D03*
X101725675Y-40464347D03*
%TO.N,/CS_BARO*%
X97087500Y-45362500D03*
X106300000Y-44000000D03*
%TO.N,VBUS*%
X101580000Y-57630000D03*
X105160000Y-47250000D03*
%TO.N,V_LIPO*%
X100628594Y-59228025D03*
X97089994Y-56826929D03*
X101146466Y-59296567D03*
X101159159Y-58682229D03*
X97042505Y-57362147D03*
X98886855Y-57732299D03*
X104200000Y-60400000D03*
X97113586Y-57869864D03*
X104200000Y-61400000D03*
X98827504Y-57034923D03*
%TO.N,/MGSW_IN*%
X104758812Y-61948127D03*
X103606013Y-51606666D03*
X106600000Y-62600000D03*
%TO.N,/HALL_OUT*%
X103450000Y-53250000D03*
X98745969Y-53591937D03*
%TO.N,Net-(JP1-A)*%
X98230000Y-50090000D03*
X91200000Y-54110000D03*
%TO.N,Net-(D4-A2)*%
X100200000Y-57900000D03*
X106700000Y-51100000D03*
X99200000Y-61150000D03*
%TO.N,Net-(D4-A1)*%
X106640000Y-52540000D03*
X101800000Y-61100000D03*
%TO.N,Net-(D4-K1)*%
X98090000Y-63140000D03*
X106600000Y-54300000D03*
%TO.N,/SWDIO*%
X103000000Y-49100000D03*
%TO.N,/SWCLK*%
X97680096Y-50100376D03*
X103950000Y-48300000D03*
%TO.N,Net-(Q1-G)*%
X104400000Y-62600000D03*
%TO.N,Net-(Q2-D)*%
X92400000Y-52600000D03*
X106620000Y-61950000D03*
%TO.N,/SENSE_A*%
X100900000Y-40200000D03*
X95187660Y-58927523D03*
%TO.N,/SENSE_B*%
X90614999Y-58700000D03*
X102200000Y-36700000D03*
%TO.N,/FIRE_A*%
X96139926Y-58913531D03*
X90680900Y-42857354D03*
%TO.N,/GATE_A*%
X93893463Y-56783325D03*
%TO.N,/FIRE_B*%
X90437765Y-42364011D03*
X91950000Y-54675000D03*
%TO.N,/GATE_B*%
X91800000Y-55600000D03*
%TO.N,/CMP_RAIL*%
X94381052Y-57369669D03*
X91365000Y-56740000D03*
%TO.N,/V_BATT*%
X97669934Y-59483948D03*
X102333581Y-39666605D03*
%TO.N,/USB_D+*%
X92959998Y-46430002D03*
%TO.N,/USB_D-*%
X93483378Y-46260956D03*
%TO.N,/AC_INT1*%
X98400000Y-44650000D03*
X103100000Y-40500000D03*
%TO.N,/SCK0*%
X101848255Y-41235281D03*
X104200000Y-36399999D03*
X105784060Y-41314842D03*
%TO.N,/MISO0*%
X101207465Y-41107465D03*
X103000000Y-37100000D03*
%TO.N,/CS_ACCEL*%
X104200000Y-40400000D03*
X101800000Y-39800000D03*
%TO.N,/MOSI0*%
X103300000Y-36500000D03*
X98441173Y-42273429D03*
%TO.N,/AC_INT2*%
X97200000Y-44300000D03*
X103200000Y-39600000D03*
%TO.N,/SCK3*%
X94940000Y-45320000D03*
X102300000Y-44000000D03*
%TO.N,/MISO3*%
X92890000Y-43020000D03*
X105100000Y-44000000D03*
%TO.N,/MOSI3*%
X103200000Y-46300000D03*
X90400000Y-45750003D03*
%TO.N,/TX1*%
X90620000Y-51020000D03*
X97200000Y-46800000D03*
%TO.N,/RX1*%
X92299837Y-49592432D03*
X97200000Y-46250000D03*
%TO.N,/MISO5*%
X98680000Y-48820000D03*
X92440000Y-35520000D03*
%TO.N,/MOSI5*%
X90688727Y-36306236D03*
X92862983Y-47685922D03*
%TO.N,/SCK5*%
X93682060Y-46796135D03*
X91394998Y-36265002D03*
%TO.N,/CS_FLASH*%
X101700000Y-52300000D03*
X95574034Y-46315745D03*
%TO.N,/BUZZ*%
X101400000Y-33200000D03*
X90609651Y-40850082D03*
%TO.N,Net-(J10-Pin_2)*%
X105200000Y-42800000D03*
%TO.N,Net-(J10-Pin_1)*%
X105690776Y-43048276D03*
%TO.N,Net-(U1-V_BCKP)*%
X98918131Y-64485309D03*
X92634973Y-48576789D03*
X100771675Y-47427018D03*
X105989336Y-47004266D03*
%TO.N,Net-(U1-VCC_RF)*%
X93800000Y-52600000D03*
X95854545Y-51000000D03*
%TD*%
D57*
%TO.N,Net-(U1-VCC_RF)*%
X93804541Y-52595459D02*
X93800000Y-52600000D01*
X93804541Y-52100000D02*
X93804541Y-52595459D01*
X93800000Y-52104541D02*
X93804541Y-52100000D01*
X96430852Y-51000000D02*
X97042106Y-51611254D01*
X95854545Y-51000000D02*
X96430852Y-51000000D01*
%TO.N,Net-(C43-Pad1)*%
X97637756Y-51186906D02*
X97042106Y-50591256D01*
X97637756Y-51920092D02*
X97637756Y-51186906D01*
X97071277Y-52486571D02*
X97637756Y-51920092D01*
X97059974Y-52486571D02*
X97071277Y-52486571D01*
%TO.N,Net-(J5-In)*%
X97059974Y-53456571D02*
X96603189Y-53456571D01*
X96603189Y-53456571D02*
X95746618Y-52600000D01*
X95746618Y-52600000D02*
X95304541Y-52600000D01*
X97512786Y-53456571D02*
X97059974Y-53456571D01*
X98826594Y-54770379D02*
X97512786Y-53456571D01*
X98826594Y-55270378D02*
X98826594Y-54770379D01*
%TO.N,Net-(J3-In)*%
X103081209Y-30881209D02*
X103100000Y-30900000D01*
X100795707Y-30881209D02*
X103081209Y-30881209D01*
D58*
X103108791Y-30881209D02*
X103110000Y-30880000D01*
%TO.N,VBUS*%
X99932500Y-58970530D02*
X101273030Y-57630000D01*
X99932500Y-59062500D02*
X99932500Y-58970530D01*
X101273030Y-57630000D02*
X101580000Y-57630000D01*
%TO.N,V_CHARGE*%
X102004000Y-64426000D02*
X100706000Y-64426000D01*
X100706000Y-64426000D02*
X99932500Y-63652500D01*
X103180000Y-63250000D02*
X102004000Y-64426000D01*
X99932500Y-63652500D02*
X99932500Y-61337500D01*
D59*
%TO.N,GND*%
X106000000Y-34400000D02*
X106000000Y-32800000D01*
X105907531Y-34492469D02*
X106000000Y-34400000D01*
X105907531Y-34678756D02*
X105907531Y-34492469D01*
D60*
%TO.N,/SWDIO*%
X105325300Y-52475300D02*
X105900000Y-53050000D01*
X103865120Y-52475300D02*
X105325300Y-52475300D01*
X103000000Y-51610180D02*
X103865120Y-52475300D01*
X103000000Y-49100000D02*
X103000000Y-51610180D01*
D57*
%TO.N,GND*%
X97376348Y-31189490D02*
X97794486Y-30771352D01*
D60*
X99000000Y-62670000D02*
X99050000Y-62720000D01*
X106470391Y-37443131D02*
X106470391Y-37870391D01*
X93518749Y-41275000D02*
X95268749Y-39525000D01*
X91097455Y-41311201D02*
X90688799Y-41311201D01*
X93694371Y-43681973D02*
X93294371Y-43681973D01*
X106483237Y-37916763D02*
X106500000Y-37900000D01*
X106483237Y-38333973D02*
X106483237Y-37916763D01*
X100079899Y-40479218D02*
X100191073Y-40368044D01*
X90688799Y-41311201D02*
X90600000Y-41400000D01*
X103080000Y-61039998D02*
X103080000Y-61020000D01*
X106470391Y-37870391D02*
X106500000Y-37900000D01*
X93518749Y-41962500D02*
X93518749Y-41275000D01*
X95348157Y-50643616D02*
X95304541Y-50600000D01*
X103080000Y-61020000D02*
X103100000Y-61000000D01*
X100168044Y-40368044D02*
X100000000Y-40200000D01*
X98840000Y-62670000D02*
X99000000Y-62670000D01*
X97755787Y-59955787D02*
X97800000Y-60000000D01*
D57*
X97017289Y-31189490D02*
X97376348Y-31189490D01*
D60*
X93294371Y-43681973D02*
X92044371Y-44931973D01*
X97754015Y-59955787D02*
X97755787Y-59955787D01*
X95723067Y-35169319D02*
X95506249Y-34952501D01*
D57*
X97958005Y-30934871D02*
X97794486Y-30771352D01*
D60*
X96325350Y-35169319D02*
X95723067Y-35169319D01*
D57*
X97958005Y-31190767D02*
X97958005Y-30934871D01*
D60*
X100191073Y-40368044D02*
X100168044Y-40368044D01*
X100079899Y-41200000D02*
X100079899Y-40479218D01*
%TO.N,+3V3*%
X106483237Y-39293973D02*
X106483237Y-39216763D01*
X98518749Y-40275000D02*
X98706825Y-40463076D01*
X101000000Y-41600000D02*
X101200000Y-41800000D01*
X101650000Y-48450000D02*
X101000000Y-48450000D01*
D57*
X97446249Y-32622500D02*
X97556249Y-32622500D01*
X97556249Y-32622500D02*
X97946249Y-33012500D01*
D60*
X91696037Y-39624462D02*
X92045499Y-39275000D01*
X106470391Y-36483131D02*
X105283131Y-36483131D01*
X105283131Y-36483131D02*
X105200000Y-36400000D01*
X98706825Y-40463076D02*
X98706825Y-40802757D01*
X105420000Y-45500000D02*
X105420000Y-45720000D01*
D57*
X97958005Y-32150767D02*
X97917982Y-32150768D01*
D60*
X104630000Y-53050000D02*
X104300000Y-53380000D01*
X95149944Y-35521499D02*
X94677814Y-35993629D01*
X92831249Y-41275000D02*
X91705203Y-41275000D01*
X96414376Y-35765076D02*
X96414376Y-35652977D01*
X96476249Y-36362499D02*
X96476249Y-35872500D01*
X106483237Y-39216763D02*
X106600000Y-39100000D01*
X95737384Y-42181135D02*
X95518749Y-41962500D01*
X97025000Y-41962500D02*
X97052500Y-41962500D01*
X101000000Y-48450000D02*
X100849900Y-48450000D01*
X99820000Y-41600000D02*
X101000000Y-41600000D01*
X106483237Y-39293973D02*
X105377210Y-40400000D01*
X91705203Y-41275000D02*
X91691180Y-41260977D01*
D57*
X97446249Y-32622500D02*
X97006249Y-33062500D01*
D60*
X92045499Y-39275000D02*
X92831249Y-39275000D01*
X105420000Y-45720000D02*
X106500000Y-46800000D01*
X99439899Y-41200000D02*
X99439899Y-41219899D01*
X102538365Y-41884904D02*
X102284904Y-41884904D01*
X102284904Y-41884904D02*
X102200000Y-41800000D01*
X99104068Y-41200000D02*
X98706825Y-40802757D01*
X97706249Y-40275000D02*
X98518749Y-40275000D01*
X96037530Y-35521499D02*
X95149944Y-35521499D01*
X95018749Y-36334564D02*
X94677814Y-35993629D01*
X99439899Y-41200000D02*
X99104068Y-41200000D01*
X101200000Y-41800000D02*
X102200000Y-41800000D01*
X97018749Y-42554961D02*
X97514460Y-43050672D01*
X99439899Y-41219899D02*
X99820000Y-41600000D01*
X95006248Y-37425000D02*
X95006248Y-36962500D01*
X105377210Y-40400000D02*
X105200000Y-40400000D01*
X97052500Y-41962500D02*
X97430000Y-42340000D01*
X96476248Y-36362500D02*
X96476249Y-36362499D01*
D57*
X97917982Y-32150768D02*
X97446249Y-32622500D01*
D60*
X96018749Y-41962500D02*
X95800114Y-42181135D01*
X95018749Y-37087500D02*
X95018749Y-36334564D01*
D57*
X97017289Y-32149489D02*
X97017289Y-32193540D01*
D60*
X100013000Y-52387000D02*
X100000000Y-52400000D01*
X100049800Y-52387000D02*
X100013000Y-52387000D01*
X104300000Y-53380000D02*
X104300000Y-54400000D01*
X95800114Y-42181135D02*
X95737384Y-42181135D01*
X97018749Y-41962500D02*
X97018749Y-42554961D01*
D57*
X97017289Y-32193540D02*
X97446249Y-32622500D01*
D60*
X92831249Y-41431249D02*
X92900000Y-41500000D01*
X103612500Y-45500000D02*
X103512500Y-45600000D01*
X95737384Y-42181135D02*
X95737384Y-43073246D01*
X102350000Y-41800000D02*
X102550000Y-42000000D01*
X96518748Y-36405000D02*
X96518749Y-37087500D01*
X96476248Y-36362500D02*
X96518748Y-36405000D01*
X92831249Y-41275000D02*
X92831249Y-41431249D01*
X96325350Y-35809319D02*
X96037530Y-35521499D01*
X103212500Y-45500000D02*
X103112500Y-45600000D01*
X95518749Y-37087500D02*
X95018749Y-37087500D01*
X102200000Y-41800000D02*
X102350000Y-41800000D01*
%TO.N,/NRST*%
X103431000Y-49781000D02*
X104055300Y-50405300D01*
X94814559Y-51036874D02*
X94107083Y-51744350D01*
X94107083Y-51744350D02*
X93160191Y-51744350D01*
X103700000Y-47500000D02*
X103112500Y-47500000D01*
X104630000Y-51780000D02*
X104200000Y-51350000D01*
X91424021Y-40900000D02*
X90847399Y-40323378D01*
X103431000Y-47950000D02*
X103431000Y-47818500D01*
X93160191Y-51744350D02*
X92804541Y-52100000D01*
X104055300Y-51205300D02*
X104200000Y-51350000D01*
X104055300Y-50405300D02*
X104055300Y-51205300D01*
X103450000Y-47750000D02*
X103700000Y-47500000D01*
X92481187Y-40775000D02*
X92831249Y-40775000D01*
X103431000Y-47818500D02*
X103112500Y-47500000D01*
X92831249Y-40775000D02*
X92706249Y-40900000D01*
X92706249Y-40900000D02*
X91424021Y-40900000D01*
X103431000Y-47950000D02*
X103431000Y-49781000D01*
X94814559Y-50305877D02*
X94814559Y-51036874D01*
%TO.N,Net-(U8-DCPL_VCO)*%
X97706249Y-39775000D02*
X98143748Y-39775000D01*
X98143748Y-39775000D02*
X98315748Y-39947000D01*
X98315748Y-39947000D02*
X98654611Y-39947000D01*
X99231073Y-40368044D02*
X99075655Y-40368044D01*
X99075655Y-40368044D02*
X98654611Y-39947000D01*
%TO.N,Net-(U8-LPF0)*%
X100106824Y-42336824D02*
X100189658Y-42336824D01*
X99000000Y-41600000D02*
X99370000Y-41600000D01*
X98175000Y-40775000D02*
X99000000Y-41600000D01*
X97706249Y-40775000D02*
X98175000Y-40775000D01*
X99370000Y-41600000D02*
X100106824Y-42336824D01*
%TO.N,Net-(U8-DCPL_PFD_CHP)*%
X96518749Y-42788749D02*
X96790000Y-43060000D01*
X96518749Y-41962500D02*
X96518749Y-42788749D01*
X96518748Y-41962500D02*
X96518749Y-42312562D01*
%TO.N,Net-(U8-XOSC_Q2)*%
X94025000Y-41962500D02*
X94025000Y-42399999D01*
X92025000Y-43165000D02*
X92025000Y-43575000D01*
X94018748Y-41962500D02*
X94018749Y-42399999D01*
X93839701Y-42585298D02*
X92604702Y-42585298D01*
X92604702Y-42585298D02*
X92025000Y-43165000D01*
X94018749Y-42246095D02*
X94018749Y-41962500D01*
X94025000Y-42399999D02*
X93839701Y-42585298D01*
X92025000Y-43575000D02*
X90635000Y-43575000D01*
X90635000Y-43575000D02*
X90600000Y-43540000D01*
%TO.N,Net-(U8-XOSC_Q1)*%
X93694371Y-44931973D02*
X94518749Y-44107595D01*
X94741328Y-44931973D02*
X95083070Y-44590231D01*
X93694371Y-44931973D02*
X94741328Y-44931973D01*
X94518749Y-44107595D02*
X94518749Y-41962500D01*
%TO.N,Net-(U8-LPF1)*%
X98245001Y-41275000D02*
X97706249Y-41275000D01*
X97706249Y-41275000D02*
X97985825Y-41275000D01*
X99230978Y-42260977D02*
X98245001Y-41275000D01*
D57*
%TO.N,Net-(C31-Pad2)*%
X97016249Y-34032500D02*
X97006249Y-34022500D01*
X97408749Y-34570001D02*
X97946249Y-34032500D01*
X97408748Y-34892500D02*
X97408749Y-34570001D01*
X97946249Y-34032500D02*
X97016249Y-34032500D01*
%TO.N,/PA*%
X97408749Y-35862500D02*
X98328346Y-35862500D01*
X97706249Y-36160000D02*
X97706249Y-37775000D01*
X98328346Y-35862500D02*
X98334962Y-35869116D01*
X97408749Y-35862500D02*
X97706249Y-36160000D01*
%TO.N,Net-(C38-Pad2)*%
X99840408Y-32612717D02*
X99855291Y-32597834D01*
X99820660Y-34444097D02*
X99820660Y-33556040D01*
X99840408Y-33536292D02*
X99840408Y-32612717D01*
X100595041Y-33536292D02*
X100806249Y-33747500D01*
X99840408Y-33536292D02*
X100595041Y-33536292D01*
X99820660Y-33556040D02*
X99840408Y-33536292D01*
D60*
%TO.N,Net-(U8-DCPL_XOSC)*%
X95018749Y-41962500D02*
X95018749Y-42399999D01*
X95030356Y-41974107D02*
X95018749Y-41962500D01*
X95030356Y-43084934D02*
X95030356Y-41974107D01*
D57*
%TO.N,/LNA_N*%
X100025425Y-39427156D02*
X100025425Y-38481676D01*
X99018749Y-39275000D02*
X99106249Y-39362500D01*
X100025425Y-38481676D02*
X100006249Y-38462500D01*
X97706249Y-39275000D02*
X99018749Y-39275000D01*
X99960769Y-39362499D02*
X100025425Y-39427156D01*
X99106249Y-39362500D02*
X99960769Y-39362499D01*
%TO.N,Net-(C39-Pad1)*%
X101941899Y-38775681D02*
X101941899Y-37344768D01*
X100995893Y-35822143D02*
X100806249Y-35632500D01*
X100995892Y-36580123D02*
X100995893Y-35822143D01*
X101290424Y-39427156D02*
X101941899Y-38775681D01*
X101941899Y-37344768D02*
X101177254Y-36580123D01*
X100995425Y-39427156D02*
X101290424Y-39427156D01*
X101177254Y-36580123D02*
X100995892Y-36580123D01*
%TO.N,/TRX_SW*%
X99480242Y-36926171D02*
X99480242Y-35744514D01*
X97706249Y-38275000D02*
X98131413Y-38275000D01*
X99480242Y-35744514D02*
X99820660Y-35404096D01*
X100064653Y-35404096D02*
X100806249Y-34662500D01*
X98131413Y-38275000D02*
X99480242Y-36926171D01*
X99820660Y-35404096D02*
X100064653Y-35404096D01*
%TO.N,Net-(C40-Pad1)*%
X98870408Y-34373669D02*
X98334962Y-34909115D01*
X98895291Y-33511409D02*
X98870408Y-33536292D01*
X98895291Y-32597834D02*
X98895291Y-33511409D01*
X98870408Y-33536292D02*
X98870408Y-34373669D01*
%TO.N,/LNA_P*%
X99106249Y-38392500D02*
X99976593Y-37522156D01*
X100056826Y-36601057D02*
X100035892Y-36580123D01*
X98723749Y-38775000D02*
X99106249Y-38392500D01*
X100056826Y-37522156D02*
X100056826Y-36601057D01*
X99976593Y-37522156D02*
X100056826Y-37522156D01*
X97706249Y-38775000D02*
X98723749Y-38775000D01*
D60*
%TO.N,/RADIO_MARC_ISR*%
X91721473Y-40531000D02*
X91349997Y-40159524D01*
X92831249Y-40275000D02*
X92334527Y-40275000D01*
X92493749Y-40275000D02*
X92831249Y-40275000D01*
X91349997Y-40159524D02*
X91349997Y-40100000D01*
X92078527Y-40531000D02*
X91721473Y-40531000D01*
X92334527Y-40275000D02*
X92078527Y-40531000D01*
%TO.N,/RADIO_INT*%
X92831249Y-39775000D02*
X92225000Y-39775000D01*
X92225000Y-39775000D02*
X91900000Y-40100000D01*
%TO.N,/CS_RADIO*%
X93568748Y-35700000D02*
X93200000Y-35700000D01*
X94518749Y-36650001D02*
X94518749Y-37087500D01*
X94518749Y-36650001D02*
X93568748Y-35700000D01*
%TO.N,Net-(U8-DCPL)*%
X91825001Y-38775000D02*
X91710978Y-38660977D01*
X92831249Y-38775000D02*
X91825001Y-38775000D01*
D57*
%TO.N,Net-(C42-Pad1)*%
X100906249Y-31762500D02*
X100906249Y-32677500D01*
X99941770Y-31762500D02*
X99859506Y-31680236D01*
X100906249Y-31762500D02*
X99941770Y-31762500D01*
X100906249Y-32677500D02*
X100806249Y-32777500D01*
%TO.N,Net-(C43-Pad1)*%
X97042106Y-49747328D02*
X97068908Y-49720526D01*
X97042106Y-50591256D02*
X97042106Y-49747328D01*
D60*
%TO.N,Net-(U8-RBIAS)*%
X96018749Y-37087499D02*
X96018749Y-36650001D01*
X96018749Y-36650001D02*
X95506249Y-36137501D01*
X95506249Y-36137501D02*
X95506249Y-35972500D01*
%TO.N,/CS_BARO*%
X106734477Y-43565523D02*
X106734477Y-42434477D01*
X106288365Y-41988365D02*
X106300000Y-42000000D01*
X106288365Y-44034904D02*
X106288365Y-44011635D01*
X106300000Y-44000000D02*
X106734477Y-43565523D01*
X106288365Y-44011635D02*
X106300000Y-44000000D01*
X106734477Y-42434477D02*
X106288365Y-41988365D01*
%TO.N,Net-(D6-A)*%
X95166185Y-56071328D02*
X95166185Y-55176762D01*
X94304541Y-54315118D02*
X94304541Y-53100000D01*
X95166185Y-55176762D02*
X94304541Y-54315118D01*
%TO.N,VBUS*%
X100470546Y-47870546D02*
X101520454Y-47870546D01*
X102620000Y-46771000D02*
X103998739Y-46771000D01*
X104477739Y-47250000D02*
X105160000Y-47250000D01*
X102395500Y-46995500D02*
X102620000Y-46771000D01*
X101520454Y-47870546D02*
X102395500Y-46995500D01*
X100037500Y-46387500D02*
X100037500Y-47437500D01*
X99932500Y-59062500D02*
X98992500Y-59062500D01*
X98992500Y-59062500D02*
X98720000Y-58790000D01*
X100037500Y-47437500D02*
X100470546Y-47870546D01*
X98840000Y-60580000D02*
X99932500Y-59487500D01*
X99932500Y-59487500D02*
X99932500Y-59062500D01*
X103998739Y-46771000D02*
X104477739Y-47250000D01*
D61*
%TO.N,V_CHARGE*%
X104130000Y-64200000D02*
X104130000Y-64550000D01*
D60*
X99745311Y-63465311D02*
X99932500Y-63652500D01*
D61*
X104130000Y-64200000D02*
X103180000Y-63250000D01*
X104130000Y-64550000D02*
X103880000Y-64800000D01*
X105525000Y-64200000D02*
X104130000Y-64200000D01*
D60*
X98871142Y-63465311D02*
X99745311Y-63465311D01*
%TO.N,V_LIPO*%
X97051730Y-59970982D02*
X96530000Y-60492712D01*
X96530000Y-60492712D02*
X96530000Y-61680000D01*
D61*
X104773127Y-60973127D02*
X104626873Y-60973127D01*
X104773127Y-60973127D02*
X104200000Y-60400000D01*
X105683812Y-60973127D02*
X104773127Y-60973127D01*
D60*
X96530000Y-61680000D02*
X96700000Y-61850000D01*
D61*
X104626873Y-60973127D02*
X104200000Y-61400000D01*
%TO.N,/MGSW_IN*%
X105720271Y-62024586D02*
X105643812Y-61948127D01*
X105720271Y-63225000D02*
X105720271Y-62024586D01*
X105643812Y-61948127D02*
X104758812Y-61948127D01*
X106605271Y-63225000D02*
X105720271Y-63225000D01*
D60*
X106600000Y-63219729D02*
X106605271Y-63225000D01*
X106600000Y-62600000D02*
X106600000Y-63219729D01*
%TO.N,Net-(D4-A2)*%
X99130000Y-61220000D02*
X98840000Y-61220000D01*
X99200000Y-61150000D02*
X99130000Y-61220000D01*
%TO.N,Net-(D4-A1)*%
X101832500Y-61337500D02*
X101832500Y-61132500D01*
X101832500Y-61132500D02*
X101800000Y-61100000D01*
%TO.N,Net-(D4-K1)*%
X98840000Y-62030000D02*
X98090000Y-62780000D01*
X98090000Y-62780000D02*
X98090000Y-63140000D01*
%TO.N,Net-(D6-K)*%
X96942987Y-56071328D02*
X97018120Y-56146461D01*
X96136185Y-56071328D02*
X96942987Y-56071328D01*
%TO.N,/SWCLK*%
X104406854Y-48300000D02*
X103950000Y-48300000D01*
X105325300Y-49218446D02*
X104406854Y-48300000D01*
X105325300Y-51205300D02*
X105325300Y-49218446D01*
X105900000Y-51780000D02*
X105325300Y-51205300D01*
%TO.N,Net-(Q1-G)*%
X104755271Y-62955271D02*
X104400000Y-62600000D01*
X104755271Y-63225000D02*
X104755271Y-62955271D01*
%TO.N,Net-(Q2-D)*%
X106618127Y-61948127D02*
X106620000Y-61950000D01*
X106608812Y-61948127D02*
X106618127Y-61948127D01*
%TO.N,Net-(R1-Pad1)*%
X98151000Y-45081000D02*
X99865762Y-45081000D01*
X99865762Y-45081000D02*
X100987499Y-46202737D01*
X97800000Y-44730000D02*
X98151000Y-45081000D01*
X100987499Y-46202737D02*
X100987499Y-46387500D01*
%TO.N,/FET_A*%
X94812661Y-59947523D02*
X93613463Y-58748325D01*
X95187660Y-59947523D02*
X94812661Y-59947523D01*
%TO.N,/SENSE_A*%
X95187660Y-58927523D02*
X95187660Y-58900000D01*
X95187660Y-58037523D02*
X95187660Y-58927523D01*
%TO.N,/FET_B*%
X91140779Y-59831009D02*
X92223463Y-58748325D01*
X90614999Y-59831009D02*
X91140779Y-59831009D01*
%TO.N,/SENSE_B*%
X90614999Y-58811009D02*
X90614999Y-58700000D01*
X90614999Y-57921009D02*
X90614999Y-58700000D01*
%TO.N,/FIRE_A*%
X96139926Y-58057566D02*
X96139926Y-58913531D01*
X96163770Y-58937375D02*
X96139926Y-58913531D01*
%TO.N,/GATE_A*%
X96042992Y-57445294D02*
X96042992Y-56940634D01*
X94773004Y-56586523D02*
X95688881Y-56586523D01*
X94628527Y-56731000D02*
X94773004Y-56586523D01*
X93893463Y-56783325D02*
X93945788Y-56731000D01*
X96042992Y-56940634D02*
X95688881Y-56586523D01*
X93945788Y-56731000D02*
X94628527Y-56731000D01*
%TO.N,/FIRE_B*%
X91673644Y-54951356D02*
X91950000Y-54675000D01*
X91643268Y-54951356D02*
X91673644Y-54951356D01*
X90672895Y-54844482D02*
X90668324Y-54849053D01*
X91644741Y-54844482D02*
X90672895Y-54844482D01*
%TO.N,/GATE_B*%
X91941618Y-55741618D02*
X91800000Y-55600000D01*
X91941618Y-55864480D02*
X92593463Y-56516325D01*
X92593463Y-56516325D02*
X92593463Y-56783325D01*
X91941618Y-55864480D02*
X91941618Y-55741618D01*
%TO.N,Net-(U17-PROG)*%
X102790000Y-60020000D02*
X101832500Y-59062500D01*
X103080000Y-60020000D02*
X102790000Y-60020000D01*
%TO.N,/V_BATT*%
X97177364Y-59456616D02*
X97051730Y-59330982D01*
X97613186Y-59456616D02*
X97177364Y-59456616D01*
X97754015Y-59315787D02*
X97613186Y-59456616D01*
%TO.N,/USB_D+*%
X92959998Y-45930475D02*
X93109473Y-45781000D01*
X93109473Y-45781000D02*
X95103527Y-45781000D01*
X96270000Y-45550000D02*
X96888500Y-44931500D01*
X92959998Y-46430002D02*
X92959998Y-45930475D01*
X95103527Y-45781000D02*
X95334527Y-45550000D01*
X95334527Y-45550000D02*
X96270000Y-45550000D01*
X97704527Y-45370000D02*
X97266027Y-44931500D01*
X96888500Y-44931500D02*
X97266027Y-44931500D01*
X97800000Y-45370000D02*
X97704527Y-45370000D01*
%TO.N,/USB_D-*%
X97374653Y-45815126D02*
X97744529Y-46185002D01*
X93483378Y-46158675D02*
X93511053Y-46131000D01*
X95465126Y-45815126D02*
X97374653Y-45815126D01*
X93483378Y-46260956D02*
X93483378Y-46158675D01*
X95149252Y-46131000D02*
X95465126Y-45815126D01*
X93511053Y-46131000D02*
X95149252Y-46131000D01*
X97744529Y-46185002D02*
X97950000Y-46185002D01*
%TO.N,/AC_INT1*%
X103200000Y-40400000D02*
X103100000Y-40500000D01*
%TO.N,/MISO0*%
X103100000Y-37200000D02*
X103000000Y-37100000D01*
X103200000Y-37200000D02*
X103100000Y-37200000D01*
%TO.N,/CS_ACCEL*%
X104200000Y-40400001D02*
X104200000Y-40400000D01*
%TO.N,/MOSI0*%
X103200000Y-36400000D02*
X103300000Y-36500000D01*
%TO.N,/SCK3*%
X102334904Y-44034904D02*
X102538365Y-44034904D01*
X102300000Y-44000000D02*
X102615096Y-44000000D01*
X102300000Y-44000000D02*
X102334904Y-44034904D01*
X102615096Y-44000000D02*
X102650000Y-44034904D01*
%TO.N,/MISO3*%
X105065096Y-44034904D02*
X105100000Y-44000000D01*
X105038365Y-44034904D02*
X105065096Y-44034904D01*
%TO.N,/MOSI3*%
X103200000Y-46300000D02*
X103622262Y-46300000D01*
X103622262Y-46300000D02*
X104031000Y-45891262D01*
X104031000Y-44277539D02*
X103788365Y-44034904D01*
X104031000Y-45891262D02*
X104031000Y-44277539D01*
%TO.N,/TX1*%
X91304541Y-50100000D02*
X90620000Y-50784541D01*
X90620000Y-50784541D02*
X90620000Y-51020000D01*
%TO.N,/RX1*%
X91304541Y-49600000D02*
X92292269Y-49600000D01*
X92292269Y-49600000D02*
X92299837Y-49592432D01*
%TO.N,/MISO5*%
X98916300Y-52949000D02*
X98680000Y-52712700D01*
X100849900Y-52387000D02*
X100287900Y-52949000D01*
X92440000Y-35520000D02*
X92440000Y-36008751D01*
X98680000Y-48820000D02*
X98680000Y-49542000D01*
X100287900Y-52949000D02*
X98916300Y-52949000D01*
X98680000Y-52712700D02*
X98680000Y-49542000D01*
X92440000Y-36008751D02*
X93518749Y-37087500D01*
%TO.N,/MOSI5*%
X90688727Y-36306236D02*
X90688727Y-36569977D01*
X92393750Y-38275000D02*
X92831249Y-38275000D01*
X97905922Y-47685922D02*
X92862983Y-47685922D01*
X99249700Y-48450000D02*
X98919527Y-48450000D01*
X98609000Y-48389000D02*
X97905922Y-47685922D01*
X98858527Y-48389000D02*
X98609000Y-48389000D01*
X98919527Y-48450000D02*
X98858527Y-48389000D01*
X90688727Y-36569977D02*
X92393750Y-38275000D01*
%TO.N,/SCK5*%
X91394998Y-36338749D02*
X92831249Y-37775000D01*
X98744410Y-47888000D02*
X99748000Y-47888000D01*
X93682060Y-46796135D02*
X93816135Y-46796135D01*
X94410267Y-47390267D02*
X98246677Y-47390267D01*
X93816135Y-46796135D02*
X94410267Y-47390267D01*
X91394998Y-36265002D02*
X91394998Y-36338749D01*
X98246677Y-47390267D02*
X98744410Y-47888000D01*
X100049800Y-48189800D02*
X100049800Y-48450000D01*
X99748000Y-47888000D02*
X100049800Y-48189800D01*
%TO.N,/CS_FLASH*%
X101650000Y-52350000D02*
X101650000Y-52387000D01*
X101700000Y-52300000D02*
X101650000Y-52350000D01*
%TO.N,Net-(J10-Pin_2)*%
X101930889Y-42800000D02*
X101461889Y-43269000D01*
X101461889Y-43269000D02*
X99746238Y-43269000D01*
X105200000Y-42800000D02*
X101930889Y-42800000D01*
X99087501Y-43927737D02*
X99087501Y-44112500D01*
X99746238Y-43269000D02*
X99087501Y-43927737D01*
%TO.N,Net-(J10-Pin_1)*%
X105230623Y-43378904D02*
X101721095Y-43378904D01*
X101721095Y-43378904D02*
X100987499Y-44112500D01*
X105561251Y-43048276D02*
X105230623Y-43378904D01*
X105690776Y-43048276D02*
X105561251Y-43048276D01*
%TO.N,Net-(U1-V_BCKP)*%
X92634973Y-48576789D02*
X92664801Y-48606617D01*
X92664801Y-48606617D02*
X93002077Y-48606617D01*
X93304541Y-48909081D02*
X93304541Y-49099999D01*
X93002077Y-48606617D02*
X93304541Y-48909081D01*
D57*
%TO.N,Net-(J5-In)*%
X97061441Y-53458038D02*
X97059974Y-53456571D01*
D60*
%TO.N,Net-(U1-RTC_O)*%
X93304541Y-53100001D02*
X93304541Y-54632228D01*
X93304541Y-54632228D02*
X94030203Y-55357890D01*
%TO.N,Net-(U1-RTC_I)*%
X92830203Y-55357890D02*
X92830203Y-53125662D01*
X92830203Y-53125662D02*
X92804541Y-53100000D01*
%TO.N,Net-(R9-Pad1)*%
X98649999Y-46825002D02*
X99087501Y-46387500D01*
X97950000Y-46825002D02*
X98649999Y-46825002D01*
%TD*%
%TA.AperFunction,Conductor*%
%TO.N,/FET_B*%
G36*
X92796789Y-57821674D02*
G01*
X92818463Y-57874000D01*
X92818463Y-63132351D01*
X92796789Y-63184677D01*
X92747183Y-63206301D01*
X90277220Y-63297158D01*
X90224133Y-63277422D01*
X90200550Y-63225928D01*
X90200500Y-63223208D01*
X90200500Y-59474000D01*
X90222174Y-59421674D01*
X90274500Y-59400000D01*
X91100000Y-59400000D01*
X91100000Y-57874000D01*
X91121674Y-57821674D01*
X91174000Y-57800000D01*
X92744463Y-57800000D01*
X92796789Y-57821674D01*
G37*
%TD.AperFunction*%
%TD*%
%TA.AperFunction,Conductor*%
%TO.N,/FET_A*%
G36*
X94578326Y-57821674D02*
G01*
X94600000Y-57874000D01*
X94600000Y-59400000D01*
X95187660Y-59437523D01*
X95526000Y-59437523D01*
X95578326Y-59459197D01*
X95600000Y-59511523D01*
X95600000Y-60382530D01*
X95592188Y-60415624D01*
X95400000Y-60800000D01*
X95400000Y-63126000D01*
X95378326Y-63178326D01*
X95326000Y-63200000D01*
X93047963Y-63200000D01*
X92995637Y-63178326D01*
X92973963Y-63126000D01*
X92973963Y-57874000D01*
X92995637Y-57821674D01*
X93047963Y-57800000D01*
X94526000Y-57800000D01*
X94578326Y-57821674D01*
G37*
%TD.AperFunction*%
%TD*%
%TA.AperFunction,Conductor*%
%TO.N,GND*%
G36*
X102202826Y-47618800D02*
G01*
X102224500Y-47671123D01*
X102224500Y-47694863D01*
X102227414Y-47719986D01*
X102227415Y-47719992D01*
X102243947Y-47757433D01*
X102272794Y-47822765D01*
X102352235Y-47902206D01*
X102455009Y-47947585D01*
X102480135Y-47950500D01*
X103011487Y-47950499D01*
X103063813Y-47972173D01*
X103082965Y-48005346D01*
X103104384Y-48085284D01*
X103104386Y-48085289D01*
X103150528Y-48165208D01*
X103150529Y-48165209D01*
X103150531Y-48165212D01*
X103178826Y-48193507D01*
X103200500Y-48245832D01*
X103200500Y-48694420D01*
X103178826Y-48746746D01*
X103126500Y-48768420D01*
X103107348Y-48765899D01*
X103046144Y-48749500D01*
X102953856Y-48749500D01*
X102953854Y-48749500D01*
X102864715Y-48773384D01*
X102864710Y-48773386D01*
X102784791Y-48819528D01*
X102719528Y-48884791D01*
X102673386Y-48964710D01*
X102673384Y-48964715D01*
X102649500Y-49053853D01*
X102649500Y-49146146D01*
X102673384Y-49235284D01*
X102673386Y-49235289D01*
X102719528Y-49315208D01*
X102719529Y-49315209D01*
X102719531Y-49315212D01*
X102747826Y-49343507D01*
X102769500Y-49395832D01*
X102769500Y-51558358D01*
X102769499Y-51558372D01*
X102769499Y-51656030D01*
X102787092Y-51698502D01*
X102804589Y-51740745D01*
X102804592Y-51740749D01*
X102879839Y-51815996D01*
X102879841Y-51815997D01*
X103665490Y-52601646D01*
X103665493Y-52601650D01*
X103734552Y-52670709D01*
X103734551Y-52670709D01*
X103794457Y-52695521D01*
X103794459Y-52695521D01*
X103807848Y-52701068D01*
X103819269Y-52705800D01*
X103819270Y-52705800D01*
X103819271Y-52705800D01*
X104072164Y-52705800D01*
X104124490Y-52727474D01*
X104146164Y-52779800D01*
X104136250Y-52816800D01*
X104122888Y-52839943D01*
X104122884Y-52839951D01*
X104085800Y-52978352D01*
X104085800Y-52978354D01*
X104085800Y-52978355D01*
X104085800Y-53121645D01*
X104091900Y-53144409D01*
X104107470Y-53202521D01*
X104104360Y-53249987D01*
X104098011Y-53265318D01*
X104098009Y-53265323D01*
X104069499Y-53334149D01*
X104069499Y-53434461D01*
X104069500Y-53434470D01*
X104069500Y-54104167D01*
X104047827Y-54156492D01*
X104019528Y-54184791D01*
X103973386Y-54264710D01*
X103973384Y-54264715D01*
X103949500Y-54353853D01*
X103949500Y-54446146D01*
X103973384Y-54535284D01*
X103973386Y-54535289D01*
X104019528Y-54615208D01*
X104019529Y-54615209D01*
X104019531Y-54615212D01*
X104084788Y-54680469D01*
X104084790Y-54680470D01*
X104084791Y-54680471D01*
X104145611Y-54715586D01*
X104164712Y-54726614D01*
X104164713Y-54726614D01*
X104164715Y-54726615D01*
X104200846Y-54736296D01*
X104253853Y-54750499D01*
X104253854Y-54750500D01*
X104253856Y-54750500D01*
X104346146Y-54750500D01*
X104346146Y-54750499D01*
X104435288Y-54726614D01*
X104515212Y-54680469D01*
X104543658Y-54652022D01*
X104595983Y-54630349D01*
X104648309Y-54652023D01*
X104657512Y-54663237D01*
X104720810Y-54757970D01*
X104724537Y-54763547D01*
X104821453Y-54860463D01*
X104935415Y-54936610D01*
X104935420Y-54936612D01*
X104935419Y-54936612D01*
X105036899Y-54978646D01*
X105062043Y-54989061D01*
X105196470Y-55015800D01*
X105196471Y-55015800D01*
X105333529Y-55015800D01*
X105333530Y-55015800D01*
X105467957Y-54989061D01*
X105594585Y-54936610D01*
X105708547Y-54860463D01*
X105805463Y-54763547D01*
X105881610Y-54649585D01*
X105934061Y-54522957D01*
X105960800Y-54388530D01*
X105960800Y-54251470D01*
X105934061Y-54117043D01*
X105912030Y-54063856D01*
X105881612Y-53990419D01*
X105881611Y-53990417D01*
X105881610Y-53990415D01*
X105805463Y-53876453D01*
X105708547Y-53779537D01*
X105594585Y-53703390D01*
X105594581Y-53703388D01*
X105594579Y-53703387D01*
X105594580Y-53703387D01*
X105467961Y-53650940D01*
X105467950Y-53650937D01*
X105366680Y-53630793D01*
X105333530Y-53624200D01*
X105196470Y-53624200D01*
X105169877Y-53629489D01*
X105062049Y-53650937D01*
X105062038Y-53650940D01*
X104935419Y-53703387D01*
X104821453Y-53779536D01*
X104821452Y-53779538D01*
X104724538Y-53876452D01*
X104724536Y-53876453D01*
X104666029Y-53964017D01*
X104618937Y-53995483D01*
X104563388Y-53984434D01*
X104531922Y-53937342D01*
X104530500Y-53922905D01*
X104530500Y-53668200D01*
X104552174Y-53615874D01*
X104604500Y-53594200D01*
X104701647Y-53594200D01*
X104701647Y-53594199D01*
X104840053Y-53557114D01*
X104964147Y-53485468D01*
X105065468Y-53384147D01*
X105137114Y-53260053D01*
X105174200Y-53121645D01*
X105174200Y-53121639D01*
X105174833Y-53116838D01*
X105177045Y-53117129D01*
X105195874Y-53071674D01*
X105248200Y-53050000D01*
X105281800Y-53050000D01*
X105334126Y-53071674D01*
X105352954Y-53117129D01*
X105355167Y-53116838D01*
X105355800Y-53121647D01*
X105392884Y-53260048D01*
X105392888Y-53260057D01*
X105454078Y-53366041D01*
X105464532Y-53384147D01*
X105565853Y-53485468D01*
X105689947Y-53557114D01*
X105828352Y-53594199D01*
X105828353Y-53594200D01*
X105828355Y-53594200D01*
X105971647Y-53594200D01*
X105971647Y-53594199D01*
X106110053Y-53557114D01*
X106234147Y-53485468D01*
X106335468Y-53384147D01*
X106407114Y-53260053D01*
X106444199Y-53121647D01*
X106444200Y-53121647D01*
X106444200Y-52978354D01*
X106440436Y-52964308D01*
X106447827Y-52908156D01*
X106492760Y-52873676D01*
X106531067Y-52873676D01*
X106555860Y-52880319D01*
X106593853Y-52890499D01*
X106593854Y-52890500D01*
X106593856Y-52890500D01*
X106686146Y-52890500D01*
X106686146Y-52890499D01*
X106775288Y-52866614D01*
X106855212Y-52820469D01*
X106873175Y-52802505D01*
X106925500Y-52780832D01*
X106977826Y-52802506D01*
X106999500Y-52854832D01*
X106999500Y-54025168D01*
X106977826Y-54077494D01*
X106925500Y-54099168D01*
X106873175Y-54077494D01*
X106815212Y-54019531D01*
X106815209Y-54019529D01*
X106815208Y-54019528D01*
X106735289Y-53973386D01*
X106735284Y-53973384D01*
X106646146Y-53949500D01*
X106646144Y-53949500D01*
X106553856Y-53949500D01*
X106553854Y-53949500D01*
X106464715Y-53973384D01*
X106464710Y-53973386D01*
X106384791Y-54019528D01*
X106319528Y-54084791D01*
X106273386Y-54164710D01*
X106273384Y-54164715D01*
X106249500Y-54253853D01*
X106249500Y-54346146D01*
X106273384Y-54435284D01*
X106273386Y-54435289D01*
X106319528Y-54515208D01*
X106319529Y-54515209D01*
X106319531Y-54515212D01*
X106384788Y-54580469D01*
X106384790Y-54580470D01*
X106384791Y-54580471D01*
X106449692Y-54617942D01*
X106464712Y-54626614D01*
X106464713Y-54626614D01*
X106464715Y-54626615D01*
X106473079Y-54628856D01*
X106553853Y-54650499D01*
X106553854Y-54650500D01*
X106553856Y-54650500D01*
X106646146Y-54650500D01*
X106646146Y-54650499D01*
X106735288Y-54626614D01*
X106815212Y-54580469D01*
X106873175Y-54522505D01*
X106925500Y-54500832D01*
X106977826Y-54522506D01*
X106999500Y-54574832D01*
X106999500Y-60322746D01*
X106977826Y-60375072D01*
X106925500Y-60396746D01*
X106873174Y-60375072D01*
X106861561Y-60363459D01*
X106783814Y-60342627D01*
X106783812Y-60342627D01*
X104838666Y-60342627D01*
X104786340Y-60320953D01*
X104488893Y-60023506D01*
X104381607Y-59961564D01*
X104381602Y-59961562D01*
X104261945Y-59929500D01*
X104261943Y-59929500D01*
X104138057Y-59929500D01*
X104138055Y-59929500D01*
X104018397Y-59961562D01*
X104018392Y-59961564D01*
X103911106Y-60023506D01*
X103823506Y-60111106D01*
X103761564Y-60218392D01*
X103761562Y-60218397D01*
X103729500Y-60338054D01*
X103729500Y-60461945D01*
X103761562Y-60581602D01*
X103761564Y-60581607D01*
X103823506Y-60688893D01*
X103982287Y-60847674D01*
X104003961Y-60900000D01*
X103982287Y-60952326D01*
X103823506Y-61111106D01*
X103761564Y-61218392D01*
X103761562Y-61218397D01*
X103729500Y-61338054D01*
X103729500Y-61461945D01*
X103761562Y-61581602D01*
X103761564Y-61581607D01*
X103802893Y-61653190D01*
X103823506Y-61688893D01*
X103911107Y-61776494D01*
X104018394Y-61838436D01*
X104018395Y-61838436D01*
X104018397Y-61838437D01*
X104064969Y-61850916D01*
X104138054Y-61870499D01*
X104138055Y-61870500D01*
X104214312Y-61870500D01*
X104266638Y-61892174D01*
X104288312Y-61944500D01*
X104288312Y-62010072D01*
X104320375Y-62129732D01*
X104336525Y-62157705D01*
X104343917Y-62213857D01*
X104309438Y-62258790D01*
X104291594Y-62266182D01*
X104264713Y-62273385D01*
X104264710Y-62273386D01*
X104184791Y-62319528D01*
X104119528Y-62384791D01*
X104073386Y-62464710D01*
X104073385Y-62464714D01*
X104060869Y-62511421D01*
X104026390Y-62556354D01*
X103970237Y-62563745D01*
X103925304Y-62529266D01*
X103916302Y-62503841D01*
X103915646Y-62499696D01*
X103915645Y-62499694D01*
X103915645Y-62499693D01*
X103875104Y-62420128D01*
X103858050Y-62386658D01*
X103768342Y-62296950D01*
X103655304Y-62239354D01*
X103655302Y-62239353D01*
X103655301Y-62239353D01*
X103561519Y-62224500D01*
X102798480Y-62224500D01*
X102704695Y-62239353D01*
X102704693Y-62239354D01*
X102591657Y-62296950D01*
X102501951Y-62386656D01*
X102444353Y-62499698D01*
X102429500Y-62593480D01*
X102429500Y-63474165D01*
X102407826Y-63526491D01*
X101880492Y-64053826D01*
X101828166Y-64075500D01*
X100881834Y-64075500D01*
X100829508Y-64053826D01*
X100304674Y-63528992D01*
X100283000Y-63476666D01*
X100283000Y-62105123D01*
X100304674Y-62052797D01*
X100334706Y-62022765D01*
X100380085Y-61919991D01*
X100383000Y-61894865D01*
X100382999Y-60780136D01*
X100382999Y-60780133D01*
X101382000Y-60780133D01*
X101382000Y-61894863D01*
X101384914Y-61919986D01*
X101384915Y-61919992D01*
X101430294Y-62022765D01*
X101509735Y-62102206D01*
X101612509Y-62147585D01*
X101637635Y-62150500D01*
X102027364Y-62150499D01*
X102052491Y-62147585D01*
X102155265Y-62102206D01*
X102234706Y-62022765D01*
X102280085Y-61919991D01*
X102283000Y-61894865D01*
X102282999Y-60780136D01*
X102280085Y-60755009D01*
X102234706Y-60652235D01*
X102155265Y-60572794D01*
X102052491Y-60527415D01*
X102052490Y-60527414D01*
X102052488Y-60527414D01*
X102031159Y-60524940D01*
X102027365Y-60524500D01*
X102027364Y-60524500D01*
X101637636Y-60524500D01*
X101612513Y-60527414D01*
X101612507Y-60527415D01*
X101509734Y-60572794D01*
X101430294Y-60652234D01*
X101384914Y-60755011D01*
X101382000Y-60780133D01*
X100382999Y-60780133D01*
X100380085Y-60755009D01*
X100334706Y-60652235D01*
X100255265Y-60572794D01*
X100152491Y-60527415D01*
X100152490Y-60527414D01*
X100152488Y-60527414D01*
X100131159Y-60524940D01*
X100127365Y-60524500D01*
X100127364Y-60524500D01*
X99737636Y-60524500D01*
X99712513Y-60527414D01*
X99712507Y-60527415D01*
X99609734Y-60572794D01*
X99530294Y-60652234D01*
X99484914Y-60755011D01*
X99482000Y-60780133D01*
X99481876Y-60782273D01*
X99481044Y-60782224D01*
X99460326Y-60832244D01*
X99408000Y-60853918D01*
X99371000Y-60844004D01*
X99335289Y-60823386D01*
X99335284Y-60823384D01*
X99245347Y-60799285D01*
X99230023Y-60787526D01*
X99212174Y-60780133D01*
X99208346Y-60770893D01*
X99200414Y-60764806D01*
X99190500Y-60727807D01*
X99190500Y-60586127D01*
X99212173Y-60533802D01*
X99848802Y-59897172D01*
X99901128Y-59875499D01*
X100127363Y-59875499D01*
X100127364Y-59875499D01*
X100152491Y-59872585D01*
X100255265Y-59827206D01*
X100334706Y-59747765D01*
X100380085Y-59644991D01*
X100383000Y-59619865D01*
X100382999Y-59619148D01*
X100383048Y-59619031D01*
X100383124Y-59617727D01*
X100383577Y-59617753D01*
X100404655Y-59566817D01*
X100456973Y-59545125D01*
X100488497Y-59553567D01*
X100488823Y-59552782D01*
X100493304Y-59554638D01*
X100493306Y-59554639D01*
X100493307Y-59554639D01*
X100493309Y-59554640D01*
X100501046Y-59556713D01*
X100582447Y-59578524D01*
X100582448Y-59578525D01*
X100582450Y-59578525D01*
X100674740Y-59578525D01*
X100674740Y-59578524D01*
X100763882Y-59554639D01*
X100806618Y-59529964D01*
X100862767Y-59522571D01*
X100895940Y-59541722D01*
X100931254Y-59577036D01*
X100931256Y-59577037D01*
X100931257Y-59577038D01*
X101011176Y-59623180D01*
X101011178Y-59623181D01*
X101011179Y-59623181D01*
X101011181Y-59623182D01*
X101050421Y-59633696D01*
X101100319Y-59647066D01*
X101100320Y-59647067D01*
X101100322Y-59647067D01*
X101192612Y-59647067D01*
X101192612Y-59647066D01*
X101281754Y-59623181D01*
X101284884Y-59621373D01*
X101341033Y-59613975D01*
X101385971Y-59648449D01*
X101389584Y-59655566D01*
X101409006Y-59699552D01*
X101430294Y-59747765D01*
X101509735Y-59827206D01*
X101612509Y-59872585D01*
X101637635Y-59875500D01*
X102027364Y-59875499D01*
X102052491Y-59872585D01*
X102155265Y-59827206D01*
X102160919Y-59821552D01*
X102213243Y-59799875D01*
X102265570Y-59821547D01*
X102265573Y-59821549D01*
X102587826Y-60143802D01*
X102609243Y-60195489D01*
X102609377Y-60195482D01*
X102609399Y-60195864D01*
X102609500Y-60196108D01*
X102609500Y-60197621D01*
X102612269Y-60221495D01*
X102612269Y-60221497D01*
X102612270Y-60221498D01*
X102655384Y-60319141D01*
X102730859Y-60394616D01*
X102828502Y-60437730D01*
X102852377Y-60440500D01*
X103307622Y-60440499D01*
X103331498Y-60437730D01*
X103429141Y-60394616D01*
X103504616Y-60319141D01*
X103547730Y-60221498D01*
X103550500Y-60197623D01*
X103550499Y-59842378D01*
X103547730Y-59818502D01*
X103504616Y-59720859D01*
X103429141Y-59645384D01*
X103331498Y-59602270D01*
X103307623Y-59599500D01*
X103307619Y-59599500D01*
X102852377Y-59599500D01*
X102828504Y-59602269D01*
X102784515Y-59621692D01*
X102727893Y-59623000D01*
X102702299Y-59606323D01*
X102304673Y-59208697D01*
X102282999Y-59156371D01*
X102282999Y-58505136D01*
X102282606Y-58501751D01*
X102280085Y-58480009D01*
X102234706Y-58377235D01*
X102155265Y-58297794D01*
X102052491Y-58252415D01*
X102052490Y-58252414D01*
X102052488Y-58252414D01*
X102031159Y-58249940D01*
X102027365Y-58249500D01*
X102027364Y-58249500D01*
X101637636Y-58249500D01*
X101612513Y-58252414D01*
X101612507Y-58252415D01*
X101509734Y-58297794D01*
X101434428Y-58373101D01*
X101382102Y-58394775D01*
X101345102Y-58384861D01*
X101294448Y-58355615D01*
X101294443Y-58355613D01*
X101220017Y-58335671D01*
X101175084Y-58301193D01*
X101167692Y-58245040D01*
X101186844Y-58211867D01*
X101248377Y-58150335D01*
X101396538Y-58002174D01*
X101448864Y-57980500D01*
X101626146Y-57980500D01*
X101626146Y-57980499D01*
X101715288Y-57956614D01*
X101795212Y-57910469D01*
X101860469Y-57845212D01*
X101906614Y-57765288D01*
X101930499Y-57676146D01*
X101930500Y-57676146D01*
X101930500Y-57583854D01*
X101930499Y-57583853D01*
X101927694Y-57573386D01*
X101912609Y-57517087D01*
X101906615Y-57494715D01*
X101906613Y-57494710D01*
X101860471Y-57414791D01*
X101860470Y-57414790D01*
X101860469Y-57414788D01*
X101795212Y-57349531D01*
X101795209Y-57349529D01*
X101795208Y-57349528D01*
X101715289Y-57303386D01*
X101715284Y-57303384D01*
X101626146Y-57279500D01*
X101626144Y-57279500D01*
X101226886Y-57279500D01*
X101226884Y-57279500D01*
X101137745Y-57303384D01*
X101137740Y-57303386D01*
X101057817Y-57349530D01*
X100637273Y-57770074D01*
X100584947Y-57791748D01*
X100532621Y-57770074D01*
X100520861Y-57754748D01*
X100514150Y-57743125D01*
X100481796Y-57687086D01*
X100480471Y-57684791D01*
X100480470Y-57684790D01*
X100480469Y-57684788D01*
X100415212Y-57619531D01*
X100415209Y-57619529D01*
X100415208Y-57619528D01*
X100335289Y-57573386D01*
X100335284Y-57573384D01*
X100246146Y-57549500D01*
X100246144Y-57549500D01*
X100153856Y-57549500D01*
X100153854Y-57549500D01*
X100064715Y-57573384D01*
X100064710Y-57573386D01*
X99984791Y-57619528D01*
X99919528Y-57684791D01*
X99873386Y-57764710D01*
X99873384Y-57764715D01*
X99849500Y-57853853D01*
X99849500Y-57946146D01*
X99873384Y-58035284D01*
X99873386Y-58035289D01*
X99919528Y-58115208D01*
X99919529Y-58115209D01*
X99919531Y-58115212D01*
X99927494Y-58123175D01*
X99949168Y-58175500D01*
X99927494Y-58227826D01*
X99875169Y-58249500D01*
X99737636Y-58249500D01*
X99712513Y-58252414D01*
X99712507Y-58252415D01*
X99609734Y-58297794D01*
X99530294Y-58377234D01*
X99484914Y-58480011D01*
X99482000Y-58505135D01*
X99482000Y-58758000D01*
X99460326Y-58810326D01*
X99408000Y-58832000D01*
X99254500Y-58832000D01*
X99202174Y-58810326D01*
X99180500Y-58758000D01*
X99180499Y-58606627D01*
X99177682Y-58582340D01*
X99177682Y-58582338D01*
X99133813Y-58482984D01*
X99057016Y-58406187D01*
X98957662Y-58362318D01*
X98957663Y-58362318D01*
X98952804Y-58361754D01*
X98933373Y-58359500D01*
X98933369Y-58359500D01*
X98506627Y-58359500D01*
X98482340Y-58362317D01*
X98382983Y-58406187D01*
X98306187Y-58482983D01*
X98262318Y-58582337D01*
X98259500Y-58606630D01*
X98259500Y-58973372D01*
X98262317Y-58997659D01*
X98262317Y-58997661D01*
X98262318Y-58997662D01*
X98306187Y-59097016D01*
X98382984Y-59173813D01*
X98482338Y-59217682D01*
X98506627Y-59220500D01*
X98793870Y-59220499D01*
X98831431Y-59230740D01*
X98839540Y-59235517D01*
X98861932Y-59257909D01*
X98909742Y-59277712D01*
X98914530Y-59279695D01*
X98914533Y-59279697D01*
X98932532Y-59287152D01*
X98946650Y-59293000D01*
X98946651Y-59293000D01*
X99408001Y-59293000D01*
X99460327Y-59314674D01*
X99482001Y-59367000D01*
X99482000Y-59581370D01*
X99460326Y-59633696D01*
X98916198Y-60177826D01*
X98863872Y-60199500D01*
X98715326Y-60199500D01*
X98666615Y-60209189D01*
X98642259Y-60214034D01*
X98559399Y-60269398D01*
X98559398Y-60269399D01*
X98504034Y-60352259D01*
X98501806Y-60363459D01*
X98489500Y-60425326D01*
X98489500Y-60734674D01*
X98493546Y-60755013D01*
X98504034Y-60807741D01*
X98538209Y-60858889D01*
X98549258Y-60914438D01*
X98538209Y-60941111D01*
X98504034Y-60992258D01*
X98489500Y-61065327D01*
X98489500Y-61374672D01*
X98504034Y-61447740D01*
X98559398Y-61530600D01*
X98559399Y-61530601D01*
X98608593Y-61563471D01*
X98640059Y-61610563D01*
X98629010Y-61666112D01*
X98608593Y-61686529D01*
X98559399Y-61719398D01*
X98559398Y-61719399D01*
X98504034Y-61802259D01*
X98489500Y-61875327D01*
X98489500Y-62023871D01*
X98467826Y-62076197D01*
X97894591Y-62649431D01*
X97884208Y-62674499D01*
X97859499Y-62734149D01*
X97859499Y-62834461D01*
X97859500Y-62834470D01*
X97859500Y-62844167D01*
X97837827Y-62896492D01*
X97809528Y-62924791D01*
X97763386Y-63004710D01*
X97763384Y-63004715D01*
X97739500Y-63093853D01*
X97739500Y-63186146D01*
X97763384Y-63275284D01*
X97763386Y-63275289D01*
X97809528Y-63355208D01*
X97809529Y-63355209D01*
X97809531Y-63355212D01*
X97874788Y-63420469D01*
X97874790Y-63420470D01*
X97874791Y-63420471D01*
X97930358Y-63452553D01*
X97954712Y-63466614D01*
X97954713Y-63466614D01*
X97954715Y-63466615D01*
X97981609Y-63473821D01*
X98043853Y-63490499D01*
X98043854Y-63490500D01*
X98043856Y-63490500D01*
X98136146Y-63490500D01*
X98136146Y-63490499D01*
X98225288Y-63466614D01*
X98305212Y-63420469D01*
X98321307Y-63404373D01*
X98373629Y-63382700D01*
X98425956Y-63404373D01*
X98447631Y-63456698D01*
X98447631Y-63642933D01*
X98450400Y-63666806D01*
X98450400Y-63666808D01*
X98450401Y-63666809D01*
X98493515Y-63764452D01*
X98568990Y-63839927D01*
X98666633Y-63883041D01*
X98690508Y-63885811D01*
X99145753Y-63885810D01*
X99169629Y-63883041D01*
X99267272Y-63839927D01*
X99342747Y-63764452D01*
X99353578Y-63739920D01*
X99363628Y-63730323D01*
X99368947Y-63717485D01*
X99383302Y-63711538D01*
X99394541Y-63700808D01*
X99421273Y-63695811D01*
X99524459Y-63695811D01*
X99576785Y-63717485D01*
X99595936Y-63750656D01*
X99599633Y-63764452D01*
X99604210Y-63781536D01*
X99605886Y-63787789D01*
X99635987Y-63839925D01*
X99652030Y-63867712D01*
X100490788Y-64706470D01*
X100570712Y-64752614D01*
X100570713Y-64752614D01*
X100570715Y-64752615D01*
X100615284Y-64764557D01*
X100659853Y-64776499D01*
X100659854Y-64776500D01*
X100659856Y-64776500D01*
X102050146Y-64776500D01*
X102050146Y-64776499D01*
X102139288Y-64752614D01*
X102219212Y-64706470D01*
X102643797Y-64281883D01*
X102696122Y-64260210D01*
X102707691Y-64261120D01*
X102798481Y-64275500D01*
X103505019Y-64275499D01*
X103557345Y-64297173D01*
X103579019Y-64349499D01*
X103557345Y-64401825D01*
X103496187Y-64462983D01*
X103452318Y-64562337D01*
X103449499Y-64586639D01*
X103449376Y-64588765D01*
X103448458Y-64588711D01*
X103441882Y-64613274D01*
X103443421Y-64613912D01*
X103441562Y-64618398D01*
X103409500Y-64738054D01*
X103409500Y-64861945D01*
X103441563Y-64981604D01*
X103443420Y-64986087D01*
X103443119Y-64986211D01*
X103446089Y-64992971D01*
X103449500Y-65003813D01*
X103449501Y-65013372D01*
X103452318Y-65037662D01*
X103479566Y-65099375D01*
X103480799Y-65103291D01*
X103478646Y-65127718D01*
X103479213Y-65152232D01*
X103476209Y-65155377D01*
X103475828Y-65159709D01*
X103457035Y-65175458D01*
X103440100Y-65193195D01*
X103434450Y-65194386D01*
X103432419Y-65196089D01*
X103428159Y-65195713D01*
X103410210Y-65199500D01*
X97078867Y-65199500D01*
X97026541Y-65177826D01*
X97004867Y-65125500D01*
X97026541Y-65073174D01*
X97050549Y-65057133D01*
X97052641Y-65056265D01*
X97055495Y-65055084D01*
X97178416Y-64972951D01*
X97282951Y-64868416D01*
X97365084Y-64745495D01*
X97421658Y-64608913D01*
X97450500Y-64463918D01*
X97450500Y-64316082D01*
X97448830Y-64307689D01*
X98447631Y-64307689D01*
X98447631Y-64662931D01*
X98450400Y-64686804D01*
X98450400Y-64686806D01*
X98450401Y-64686807D01*
X98493515Y-64784450D01*
X98568990Y-64859925D01*
X98666633Y-64903039D01*
X98690508Y-64905809D01*
X99145753Y-64905808D01*
X99169629Y-64903039D01*
X99267272Y-64859925D01*
X99342747Y-64784450D01*
X99385861Y-64686807D01*
X99388631Y-64662932D01*
X99388630Y-64307687D01*
X99385861Y-64283811D01*
X99342747Y-64186168D01*
X99267272Y-64110693D01*
X99169629Y-64067579D01*
X99145754Y-64064809D01*
X99145750Y-64064809D01*
X98690508Y-64064809D01*
X98666635Y-64067578D01*
X98568989Y-64110693D01*
X98493516Y-64186166D01*
X98450401Y-64283810D01*
X98447631Y-64307689D01*
X97448830Y-64307689D01*
X97421658Y-64171087D01*
X97365084Y-64034505D01*
X97282951Y-63911584D01*
X97178416Y-63807049D01*
X97149592Y-63787789D01*
X97055494Y-63724915D01*
X96918917Y-63668343D01*
X96918907Y-63668340D01*
X96812874Y-63647249D01*
X96773918Y-63639500D01*
X96626082Y-63639500D01*
X96587126Y-63647249D01*
X96481092Y-63668340D01*
X96481082Y-63668343D01*
X96344505Y-63724915D01*
X96221584Y-63807048D01*
X96221583Y-63807050D01*
X96117050Y-63911583D01*
X96117048Y-63911584D01*
X96034915Y-64034505D01*
X95978343Y-64171082D01*
X95978340Y-64171092D01*
X95949500Y-64316083D01*
X95949500Y-64463916D01*
X95978340Y-64608907D01*
X95978343Y-64608917D01*
X96034915Y-64745494D01*
X96117048Y-64868415D01*
X96221584Y-64972951D01*
X96344505Y-65055084D01*
X96349451Y-65057133D01*
X96389500Y-65097181D01*
X96389500Y-65153818D01*
X96349452Y-65193867D01*
X96321133Y-65199500D01*
X94538867Y-65199500D01*
X94486541Y-65177826D01*
X94464867Y-65125500D01*
X94486541Y-65073174D01*
X94510549Y-65057133D01*
X94512641Y-65056265D01*
X94515495Y-65055084D01*
X94638416Y-64972951D01*
X94742951Y-64868416D01*
X94825084Y-64745495D01*
X94881658Y-64608913D01*
X94910500Y-64463918D01*
X94910500Y-64316082D01*
X94881658Y-64171087D01*
X94825084Y-64034505D01*
X94742951Y-63911584D01*
X94638416Y-63807049D01*
X94609592Y-63787789D01*
X94515494Y-63724915D01*
X94378917Y-63668343D01*
X94378907Y-63668340D01*
X94272874Y-63647249D01*
X94233918Y-63639500D01*
X94086082Y-63639500D01*
X94047126Y-63647249D01*
X93941092Y-63668340D01*
X93941082Y-63668343D01*
X93804505Y-63724915D01*
X93681584Y-63807048D01*
X93681583Y-63807050D01*
X93577050Y-63911583D01*
X93577048Y-63911584D01*
X93494915Y-64034505D01*
X93438343Y-64171082D01*
X93438340Y-64171092D01*
X93409500Y-64316083D01*
X93409500Y-64463916D01*
X93438340Y-64608907D01*
X93438343Y-64608917D01*
X93494915Y-64745494D01*
X93577048Y-64868415D01*
X93681584Y-64972951D01*
X93804505Y-65055084D01*
X93809451Y-65057133D01*
X93849500Y-65097181D01*
X93849500Y-65153818D01*
X93809452Y-65193867D01*
X93781133Y-65199500D01*
X91998867Y-65199500D01*
X91946541Y-65177826D01*
X91924867Y-65125500D01*
X91946541Y-65073174D01*
X91970549Y-65057133D01*
X91972641Y-65056265D01*
X91975495Y-65055084D01*
X92098416Y-64972951D01*
X92202951Y-64868416D01*
X92285084Y-64745495D01*
X92341658Y-64608913D01*
X92370500Y-64463918D01*
X92370500Y-64316082D01*
X92341658Y-64171087D01*
X92285084Y-64034505D01*
X92202951Y-63911584D01*
X92098416Y-63807049D01*
X92069592Y-63787789D01*
X91975494Y-63724915D01*
X91838917Y-63668343D01*
X91838907Y-63668340D01*
X91732874Y-63647249D01*
X91693918Y-63639500D01*
X91546082Y-63639500D01*
X91507126Y-63647249D01*
X91401092Y-63668340D01*
X91401082Y-63668343D01*
X91264505Y-63724915D01*
X91141584Y-63807048D01*
X91141583Y-63807050D01*
X91037050Y-63911583D01*
X91037048Y-63911584D01*
X90954915Y-64034505D01*
X90898343Y-64171082D01*
X90898340Y-64171092D01*
X90869500Y-64316083D01*
X90869500Y-64463916D01*
X90898340Y-64608907D01*
X90898343Y-64608917D01*
X90954915Y-64745494D01*
X91037048Y-64868415D01*
X91141584Y-64972951D01*
X91264505Y-65055084D01*
X91269451Y-65057133D01*
X91309500Y-65097181D01*
X91309500Y-65153818D01*
X91269452Y-65193867D01*
X91241133Y-65199500D01*
X90274500Y-65199500D01*
X90222174Y-65177826D01*
X90200500Y-65125500D01*
X90200500Y-63526147D01*
X90222174Y-63473821D01*
X90274500Y-63452147D01*
X90279302Y-63452532D01*
X90279315Y-63452330D01*
X90282934Y-63452552D01*
X90282936Y-63452553D01*
X90282937Y-63452552D01*
X90282939Y-63452553D01*
X91592717Y-63404373D01*
X92752899Y-63361696D01*
X92809321Y-63348846D01*
X92858927Y-63327222D01*
X92864405Y-63323991D01*
X92920484Y-63316076D01*
X92931468Y-63320567D01*
X92931649Y-63320133D01*
X92967812Y-63335112D01*
X92988456Y-63343663D01*
X93047963Y-63355500D01*
X93047965Y-63355500D01*
X95325998Y-63355500D01*
X95326000Y-63355500D01*
X95385507Y-63343663D01*
X95437833Y-63321989D01*
X95472989Y-63301692D01*
X95521989Y-63237833D01*
X95543663Y-63185507D01*
X95555500Y-63126000D01*
X95555500Y-62629957D01*
X95577174Y-62577631D01*
X95629500Y-62555957D01*
X95681826Y-62577631D01*
X95689367Y-62586461D01*
X95735117Y-62649431D01*
X95746172Y-62664646D01*
X95885354Y-62803828D01*
X95885357Y-62803830D01*
X95885358Y-62803831D01*
X95946846Y-62848505D01*
X96044595Y-62919524D01*
X96219975Y-63008884D01*
X96219977Y-63008884D01*
X96219980Y-63008886D01*
X96407163Y-63069706D01*
X96407169Y-63069707D01*
X96407174Y-63069709D01*
X96501225Y-63084605D01*
X96601582Y-63100500D01*
X96601583Y-63100500D01*
X96798418Y-63100500D01*
X96847019Y-63092802D01*
X96992826Y-63069709D01*
X96992833Y-63069706D01*
X96992836Y-63069706D01*
X97180019Y-63008886D01*
X97180019Y-63008885D01*
X97180025Y-63008884D01*
X97355405Y-62919524D01*
X97514646Y-62803828D01*
X97653828Y-62664646D01*
X97769524Y-62505405D01*
X97858884Y-62330025D01*
X97862295Y-62319528D01*
X97919706Y-62142836D01*
X97919706Y-62142833D01*
X97919709Y-62142826D01*
X97950500Y-61948417D01*
X97950500Y-61751583D01*
X97948430Y-61738516D01*
X97930196Y-61623386D01*
X97919709Y-61557174D01*
X97919707Y-61557169D01*
X97919706Y-61557163D01*
X97858886Y-61369980D01*
X97858884Y-61369977D01*
X97858884Y-61369975D01*
X97769524Y-61194595D01*
X97679274Y-61070377D01*
X97653831Y-61035358D01*
X97653830Y-61035357D01*
X97653828Y-61035354D01*
X97514646Y-60896172D01*
X97514643Y-60896169D01*
X97514641Y-60896168D01*
X97355404Y-60780475D01*
X97180019Y-60691113D01*
X97012519Y-60636689D01*
X96969451Y-60599906D01*
X96965008Y-60543444D01*
X97001791Y-60500376D01*
X97035386Y-60492311D01*
X97117013Y-60492311D01*
X97117015Y-60492311D01*
X97190081Y-60477777D01*
X97272942Y-60422412D01*
X97328307Y-60339551D01*
X97342841Y-60266485D01*
X97342841Y-59957137D01*
X97328307Y-59884071D01*
X97324798Y-59878820D01*
X97313750Y-59823272D01*
X97345216Y-59776180D01*
X97400765Y-59765131D01*
X97427438Y-59776179D01*
X97496886Y-59822582D01*
X97569952Y-59837116D01*
X97569954Y-59837116D01*
X97819298Y-59837116D01*
X97819300Y-59837116D01*
X97892366Y-59822582D01*
X97975227Y-59767217D01*
X98030592Y-59684356D01*
X98045126Y-59611290D01*
X98045126Y-59301942D01*
X98030592Y-59228876D01*
X97975227Y-59146015D01*
X97949793Y-59129021D01*
X97892366Y-59090650D01*
X97819300Y-59076116D01*
X97569952Y-59076116D01*
X97521241Y-59085805D01*
X97496885Y-59090650D01*
X97414025Y-59146014D01*
X97414023Y-59146016D01*
X97399935Y-59167101D01*
X97352843Y-59198566D01*
X97297294Y-59187516D01*
X97276879Y-59167101D01*
X97272943Y-59161211D01*
X97272941Y-59161209D01*
X97190081Y-59105845D01*
X97186567Y-59105146D01*
X97117015Y-59091311D01*
X96867667Y-59091311D01*
X96838987Y-59097016D01*
X96794599Y-59105845D01*
X96749379Y-59136059D01*
X96693830Y-59147107D01*
X96646739Y-59115639D01*
X96634269Y-59074531D01*
X96634269Y-58759753D01*
X96631500Y-58735877D01*
X96588386Y-58638234D01*
X96512911Y-58562759D01*
X96512910Y-58562758D01*
X96414535Y-58519320D01*
X96404939Y-58509270D01*
X96392100Y-58503952D01*
X96386153Y-58489594D01*
X96375423Y-58478357D01*
X96370426Y-58451626D01*
X96370426Y-58348250D01*
X96378766Y-58320843D01*
X96376169Y-58319768D01*
X96378957Y-58313035D01*
X96378956Y-58313035D01*
X96378958Y-58313034D01*
X96393492Y-58239968D01*
X96393492Y-57930620D01*
X96378958Y-57857554D01*
X96344781Y-57806404D01*
X96333733Y-57750857D01*
X96344781Y-57724184D01*
X96378958Y-57673034D01*
X96393492Y-57599968D01*
X96393492Y-57290620D01*
X96378958Y-57217554D01*
X96323593Y-57134693D01*
X96323592Y-57134692D01*
X96323591Y-57134691D01*
X96306379Y-57123190D01*
X96302168Y-57116888D01*
X96295166Y-57113988D01*
X96286905Y-57094044D01*
X96274914Y-57076098D01*
X96273492Y-57061662D01*
X96273492Y-56995104D01*
X96273493Y-56995095D01*
X96273493Y-56894785D01*
X96238401Y-56810066D01*
X96096488Y-56668153D01*
X96074814Y-56615827D01*
X96096488Y-56563501D01*
X96148814Y-56541827D01*
X96328175Y-56541827D01*
X96353087Y-56538938D01*
X96353087Y-56538937D01*
X96353094Y-56538937D01*
X96455013Y-56493936D01*
X96533793Y-56415156D01*
X96533795Y-56415150D01*
X96534441Y-56414209D01*
X96535299Y-56413649D01*
X96538642Y-56410307D01*
X96539346Y-56411011D01*
X96540442Y-56410297D01*
X96543186Y-56403680D01*
X96563484Y-56395279D01*
X96581890Y-56383284D01*
X96595517Y-56382023D01*
X96633094Y-56382035D01*
X96685413Y-56403726D01*
X96691036Y-56410579D01*
X96693029Y-56412572D01*
X96775890Y-56467937D01*
X96788085Y-56470362D01*
X96835177Y-56501825D01*
X96846229Y-56557373D01*
X96825977Y-56595265D01*
X96809522Y-56611720D01*
X96763380Y-56691639D01*
X96763378Y-56691644D01*
X96739494Y-56780782D01*
X96739494Y-56873075D01*
X96763378Y-56962213D01*
X96763381Y-56962219D01*
X96802108Y-57029297D01*
X96809500Y-57085450D01*
X96790349Y-57118622D01*
X96762033Y-57146938D01*
X96715891Y-57226857D01*
X96715889Y-57226862D01*
X96692005Y-57316000D01*
X96692005Y-57408293D01*
X96715889Y-57497431D01*
X96715891Y-57497436D01*
X96762033Y-57577355D01*
X96762034Y-57577356D01*
X96762036Y-57577359D01*
X96795239Y-57610562D01*
X96816913Y-57662887D01*
X96806999Y-57699886D01*
X96786974Y-57734570D01*
X96786970Y-57734579D01*
X96763086Y-57823717D01*
X96763086Y-57916010D01*
X96786970Y-58005148D01*
X96786972Y-58005153D01*
X96833114Y-58085072D01*
X96833115Y-58085073D01*
X96833117Y-58085076D01*
X96898374Y-58150333D01*
X96898376Y-58150334D01*
X96898377Y-58150335D01*
X96950570Y-58180469D01*
X96978298Y-58196478D01*
X96978299Y-58196478D01*
X96978301Y-58196479D01*
X97022870Y-58208421D01*
X97067439Y-58220363D01*
X97067440Y-58220364D01*
X97067442Y-58220364D01*
X97159732Y-58220364D01*
X97159732Y-58220363D01*
X97248874Y-58196478D01*
X97328798Y-58150333D01*
X97394055Y-58085076D01*
X97440200Y-58005152D01*
X97464085Y-57916010D01*
X97464086Y-57916010D01*
X97464086Y-57823718D01*
X97464085Y-57823717D01*
X97461613Y-57814493D01*
X97445605Y-57754748D01*
X97440201Y-57734579D01*
X97440199Y-57734574D01*
X97394057Y-57654655D01*
X97394056Y-57654654D01*
X97394055Y-57654652D01*
X97360850Y-57621447D01*
X97339177Y-57569123D01*
X97349092Y-57532122D01*
X97357773Y-57517087D01*
X97369119Y-57497435D01*
X97393004Y-57408293D01*
X97393005Y-57408293D01*
X97393005Y-57316001D01*
X97393004Y-57316000D01*
X97369120Y-57226862D01*
X97369118Y-57226857D01*
X97330390Y-57159779D01*
X97322997Y-57103627D01*
X97342148Y-57070455D01*
X97370463Y-57042141D01*
X97401274Y-56988776D01*
X98477004Y-56988776D01*
X98477004Y-57081069D01*
X98500888Y-57170207D01*
X98500890Y-57170212D01*
X98547032Y-57250131D01*
X98547033Y-57250132D01*
X98547035Y-57250135D01*
X98612292Y-57315392D01*
X98612294Y-57315393D01*
X98612296Y-57315395D01*
X98652899Y-57338838D01*
X98687377Y-57383771D01*
X98679983Y-57439924D01*
X98668224Y-57455249D01*
X98606383Y-57517090D01*
X98560241Y-57597009D01*
X98560239Y-57597014D01*
X98536355Y-57686152D01*
X98536355Y-57778445D01*
X98560239Y-57867583D01*
X98560241Y-57867588D01*
X98606383Y-57947507D01*
X98606384Y-57947508D01*
X98606386Y-57947511D01*
X98671643Y-58012768D01*
X98671645Y-58012769D01*
X98671646Y-58012770D01*
X98751565Y-58058912D01*
X98751567Y-58058913D01*
X98751568Y-58058913D01*
X98751570Y-58058914D01*
X98796139Y-58070856D01*
X98840708Y-58082798D01*
X98840709Y-58082799D01*
X98840711Y-58082799D01*
X98933001Y-58082799D01*
X98933001Y-58082798D01*
X99022143Y-58058913D01*
X99102067Y-58012768D01*
X99167324Y-57947511D01*
X99213469Y-57867587D01*
X99237354Y-57778445D01*
X99237355Y-57778445D01*
X99237355Y-57686153D01*
X99237354Y-57686152D01*
X99236989Y-57684791D01*
X99217100Y-57610561D01*
X99213470Y-57597014D01*
X99213468Y-57597009D01*
X99167326Y-57517090D01*
X99167325Y-57517089D01*
X99167324Y-57517087D01*
X99102067Y-57451830D01*
X99102064Y-57451828D01*
X99102062Y-57451826D01*
X99061459Y-57428383D01*
X99026981Y-57383449D01*
X99034375Y-57327297D01*
X99046127Y-57311980D01*
X99107973Y-57250135D01*
X99154118Y-57170211D01*
X99178003Y-57081069D01*
X99178004Y-57081069D01*
X99178004Y-56988777D01*
X99178003Y-56988776D01*
X99177389Y-56986486D01*
X99154118Y-56899635D01*
X99132140Y-56861568D01*
X99107975Y-56819714D01*
X99107974Y-56819713D01*
X99107973Y-56819711D01*
X99042716Y-56754454D01*
X99042713Y-56754452D01*
X99042712Y-56754451D01*
X98962793Y-56708309D01*
X98962788Y-56708307D01*
X98873650Y-56684423D01*
X98873648Y-56684423D01*
X98781360Y-56684423D01*
X98781358Y-56684423D01*
X98692219Y-56708307D01*
X98692214Y-56708309D01*
X98612295Y-56754451D01*
X98547032Y-56819714D01*
X98500890Y-56899633D01*
X98500888Y-56899638D01*
X98477004Y-56988776D01*
X97401274Y-56988776D01*
X97416608Y-56962217D01*
X97440494Y-56873073D01*
X97440494Y-56780785D01*
X97440494Y-56780783D01*
X97440493Y-56780782D01*
X97416609Y-56691644D01*
X97416607Y-56691639D01*
X97370465Y-56611720D01*
X97370464Y-56611719D01*
X97370463Y-56611717D01*
X97305206Y-56546460D01*
X97305203Y-56546458D01*
X97305201Y-56546456D01*
X97301352Y-56543502D01*
X97302256Y-56542323D01*
X97297584Y-56536234D01*
X97285897Y-56530142D01*
X97281019Y-56514643D01*
X97271131Y-56501754D01*
X97272852Y-56488688D01*
X97268896Y-56476116D01*
X97276113Y-56463932D01*
X97278528Y-56445602D01*
X97295076Y-56425893D01*
X97298148Y-56423317D01*
X97314231Y-56412572D01*
X97318382Y-56406359D01*
X97326494Y-56399560D01*
X97344173Y-56393996D01*
X97359579Y-56383699D01*
X97374044Y-56382274D01*
X99400000Y-56382932D01*
X99400000Y-55884194D01*
X99412470Y-55843083D01*
X99462560Y-55768118D01*
X99477094Y-55695052D01*
X99477094Y-54845704D01*
X99462560Y-54772638D01*
X99412471Y-54697673D01*
X99400000Y-54656561D01*
X99400000Y-53253500D01*
X99420564Y-53203853D01*
X103099500Y-53203853D01*
X103099500Y-53296146D01*
X103123384Y-53385284D01*
X103123386Y-53385289D01*
X103169528Y-53465208D01*
X103169529Y-53465209D01*
X103169531Y-53465212D01*
X103234788Y-53530469D01*
X103234790Y-53530470D01*
X103234791Y-53530471D01*
X103280939Y-53557115D01*
X103314712Y-53576614D01*
X103314713Y-53576614D01*
X103314715Y-53576615D01*
X103352488Y-53586736D01*
X103403853Y-53600499D01*
X103403854Y-53600500D01*
X103403856Y-53600500D01*
X103496146Y-53600500D01*
X103496146Y-53600499D01*
X103585288Y-53576614D01*
X103665212Y-53530469D01*
X103730469Y-53465212D01*
X103776614Y-53385288D01*
X103800499Y-53296146D01*
X103800500Y-53296146D01*
X103800500Y-53203854D01*
X103800499Y-53203853D01*
X103776615Y-53114715D01*
X103776613Y-53114710D01*
X103730471Y-53034791D01*
X103730470Y-53034790D01*
X103730469Y-53034788D01*
X103665212Y-52969531D01*
X103665209Y-52969529D01*
X103665208Y-52969528D01*
X103585289Y-52923386D01*
X103585284Y-52923384D01*
X103496146Y-52899500D01*
X103496144Y-52899500D01*
X103403856Y-52899500D01*
X103403854Y-52899500D01*
X103314715Y-52923384D01*
X103314710Y-52923386D01*
X103234791Y-52969528D01*
X103169528Y-53034791D01*
X103123386Y-53114710D01*
X103123384Y-53114715D01*
X103099500Y-53203853D01*
X99420564Y-53203853D01*
X99421674Y-53201174D01*
X99474000Y-53179500D01*
X100233430Y-53179500D01*
X100233438Y-53179501D01*
X100242050Y-53179501D01*
X100333750Y-53179501D01*
X100383376Y-53158944D01*
X100418468Y-53144409D01*
X100483309Y-53079568D01*
X100483309Y-53079567D01*
X100493714Y-53069162D01*
X100493716Y-53069159D01*
X100623062Y-52939812D01*
X100675387Y-52918139D01*
X100682657Y-52918497D01*
X100682672Y-52918498D01*
X100682680Y-52918500D01*
X100682687Y-52918500D01*
X101017119Y-52918500D01*
X101017120Y-52918500D01*
X101061022Y-52909767D01*
X101110804Y-52876504D01*
X101144067Y-52826722D01*
X101152800Y-52782820D01*
X101152800Y-51991180D01*
X101347100Y-51991180D01*
X101347100Y-52782820D01*
X101353402Y-52814500D01*
X101355833Y-52826722D01*
X101366888Y-52843268D01*
X101389096Y-52876504D01*
X101438878Y-52909767D01*
X101482780Y-52918500D01*
X101482781Y-52918500D01*
X101817219Y-52918500D01*
X101817220Y-52918500D01*
X101861122Y-52909767D01*
X101910904Y-52876504D01*
X101944167Y-52826722D01*
X101952900Y-52782820D01*
X101952900Y-52573432D01*
X101974573Y-52521107D01*
X101980469Y-52515212D01*
X102026614Y-52435288D01*
X102050499Y-52346146D01*
X102050500Y-52346146D01*
X102050500Y-52253854D01*
X102050499Y-52253853D01*
X102026615Y-52164715D01*
X102026613Y-52164710D01*
X101980470Y-52084790D01*
X101980471Y-52084790D01*
X101974571Y-52078890D01*
X101952900Y-52026567D01*
X101952900Y-51991180D01*
X101952625Y-51989796D01*
X101944167Y-51947278D01*
X101910904Y-51897496D01*
X101861122Y-51864233D01*
X101817220Y-51855500D01*
X101482780Y-51855500D01*
X101460829Y-51859866D01*
X101438877Y-51864233D01*
X101389096Y-51897495D01*
X101389095Y-51897496D01*
X101355833Y-51947277D01*
X101355833Y-51947278D01*
X101347100Y-51991180D01*
X101152800Y-51991180D01*
X101144067Y-51947278D01*
X101110804Y-51897496D01*
X101061022Y-51864233D01*
X101017120Y-51855500D01*
X100682680Y-51855500D01*
X100660729Y-51859866D01*
X100638777Y-51864233D01*
X100588996Y-51897495D01*
X100588995Y-51897496D01*
X100555733Y-51947277D01*
X100547000Y-51991180D01*
X100547000Y-52333272D01*
X100525326Y-52385598D01*
X100479026Y-52431898D01*
X100426700Y-52453572D01*
X100374374Y-52431898D01*
X100352700Y-52379572D01*
X100352700Y-51991180D01*
X100352425Y-51989796D01*
X100343967Y-51947278D01*
X100310704Y-51897496D01*
X100260922Y-51864233D01*
X100217020Y-51855500D01*
X99882580Y-51855500D01*
X99860629Y-51859866D01*
X99838677Y-51864233D01*
X99788896Y-51897495D01*
X99788895Y-51897496D01*
X99755633Y-51947277D01*
X99746900Y-51991180D01*
X99746900Y-52126767D01*
X99725229Y-52179090D01*
X99719529Y-52184790D01*
X99673386Y-52264710D01*
X99673384Y-52264715D01*
X99649500Y-52353853D01*
X99649500Y-52446146D01*
X99673384Y-52535284D01*
X99673386Y-52535289D01*
X99715078Y-52607500D01*
X99722471Y-52663652D01*
X99687992Y-52708586D01*
X99650992Y-52718500D01*
X99042428Y-52718500D01*
X98990102Y-52696826D01*
X98932174Y-52638898D01*
X98910500Y-52586572D01*
X98910500Y-49115832D01*
X98932173Y-49063507D01*
X98960469Y-49035212D01*
X98974340Y-49011185D01*
X99019272Y-48976708D01*
X99052860Y-48975608D01*
X99082480Y-48981500D01*
X99082482Y-48981500D01*
X99416919Y-48981500D01*
X99416920Y-48981500D01*
X99460822Y-48972767D01*
X99510604Y-48939504D01*
X99543867Y-48889722D01*
X99552600Y-48845820D01*
X99552600Y-48197228D01*
X99574274Y-48144902D01*
X99626600Y-48123228D01*
X99678926Y-48144902D01*
X99725226Y-48191202D01*
X99746900Y-48243528D01*
X99746900Y-48845819D01*
X99755633Y-48889722D01*
X99779005Y-48924702D01*
X99788896Y-48939504D01*
X99838678Y-48972767D01*
X99882580Y-48981500D01*
X99882581Y-48981500D01*
X100217019Y-48981500D01*
X100217020Y-48981500D01*
X100260922Y-48972767D01*
X100310704Y-48939504D01*
X100343967Y-48889722D01*
X100352700Y-48845820D01*
X100352700Y-48175047D01*
X100374374Y-48122721D01*
X100426700Y-48101047D01*
X100473000Y-48101047D01*
X100525326Y-48122721D01*
X100547000Y-48175047D01*
X100547000Y-48845819D01*
X100555733Y-48889722D01*
X100579105Y-48924702D01*
X100588996Y-48939504D01*
X100638778Y-48972767D01*
X100682680Y-48981500D01*
X100682681Y-48981500D01*
X101017119Y-48981500D01*
X101017120Y-48981500D01*
X101061022Y-48972767D01*
X101110804Y-48939504D01*
X101144067Y-48889722D01*
X101152800Y-48845820D01*
X101152800Y-48809227D01*
X101155476Y-48802764D01*
X101154005Y-48795927D01*
X101164443Y-48781116D01*
X101174474Y-48756901D01*
X101184731Y-48748349D01*
X101187207Y-48746637D01*
X101215212Y-48730469D01*
X101225515Y-48720165D01*
X101231031Y-48716354D01*
X101252658Y-48711699D01*
X101273100Y-48703232D01*
X101279562Y-48705908D01*
X101286400Y-48704437D01*
X101304984Y-48716438D01*
X101325426Y-48724906D01*
X101328103Y-48731368D01*
X101333978Y-48735163D01*
X101338632Y-48756790D01*
X101347100Y-48777232D01*
X101347100Y-48845819D01*
X101355833Y-48889722D01*
X101379205Y-48924702D01*
X101389096Y-48939504D01*
X101438878Y-48972767D01*
X101482780Y-48981500D01*
X101482781Y-48981500D01*
X101817219Y-48981500D01*
X101817220Y-48981500D01*
X101861122Y-48972767D01*
X101910904Y-48939504D01*
X101944167Y-48889722D01*
X101952900Y-48845820D01*
X101952900Y-48054180D01*
X101944167Y-48010278D01*
X101910904Y-47960496D01*
X101910902Y-47960494D01*
X101893305Y-47948736D01*
X101861840Y-47901644D01*
X101872890Y-47846095D01*
X101882083Y-47834892D01*
X102098176Y-47618799D01*
X102150500Y-47597126D01*
X102202826Y-47618800D01*
G37*
%TD.AperFunction*%
%TA.AperFunction,Conductor*%
G36*
X99472085Y-61483080D02*
G01*
X99482000Y-61520081D01*
X99482000Y-61894863D01*
X99484914Y-61919986D01*
X99484915Y-61919992D01*
X99530294Y-62022765D01*
X99560326Y-62052797D01*
X99582000Y-62105123D01*
X99582000Y-63160811D01*
X99560326Y-63213137D01*
X99508000Y-63234811D01*
X99421273Y-63234811D01*
X99368947Y-63213137D01*
X99353579Y-63190703D01*
X99342747Y-63166170D01*
X99267272Y-63090695D01*
X99169629Y-63047581D01*
X99145754Y-63044811D01*
X99145750Y-63044811D01*
X98690508Y-63044811D01*
X98666635Y-63047580D01*
X98568989Y-63090695D01*
X98557614Y-63102070D01*
X98505288Y-63123742D01*
X98452962Y-63102066D01*
X98433811Y-63068894D01*
X98430163Y-63055280D01*
X98416614Y-63004712D01*
X98370469Y-62924788D01*
X98370466Y-62924785D01*
X98367521Y-62920947D01*
X98369743Y-62919241D01*
X98351479Y-62875147D01*
X98373152Y-62822822D01*
X98763802Y-62432174D01*
X98816128Y-62410500D01*
X98964672Y-62410500D01*
X98964674Y-62410500D01*
X99037740Y-62395966D01*
X99120601Y-62340601D01*
X99175966Y-62257740D01*
X99190500Y-62184674D01*
X99190500Y-61875326D01*
X99175966Y-61802260D01*
X99120601Y-61719399D01*
X99120600Y-61719398D01*
X99120598Y-61719396D01*
X99071407Y-61686529D01*
X99064251Y-61675820D01*
X99053187Y-61669225D01*
X99049129Y-61653190D01*
X99039940Y-61639438D01*
X99042452Y-61626804D01*
X99039293Y-61614318D01*
X99047530Y-61601274D01*
X99050989Y-61583889D01*
X99068293Y-61565669D01*
X99069814Y-61564534D01*
X99120601Y-61530601D01*
X99125821Y-61522788D01*
X99136043Y-61515169D01*
X99152079Y-61511111D01*
X99165832Y-61501922D01*
X99180268Y-61500500D01*
X99246146Y-61500500D01*
X99246146Y-61500499D01*
X99335288Y-61476614D01*
X99370999Y-61455996D01*
X99427152Y-61448602D01*
X99472085Y-61483080D01*
G37*
%TD.AperFunction*%
%TA.AperFunction,Conductor*%
G36*
X96620167Y-59309387D02*
G01*
X96641841Y-59361713D01*
X96641841Y-59626485D01*
X96645601Y-59645385D01*
X96656375Y-59699552D01*
X96690550Y-59750700D01*
X96701599Y-59806249D01*
X96690550Y-59832922D01*
X96656375Y-59884069D01*
X96641841Y-59957138D01*
X96641841Y-60024242D01*
X96620167Y-60076568D01*
X96334589Y-60362146D01*
X96326147Y-60382529D01*
X96326147Y-60382530D01*
X96299499Y-60446861D01*
X96299499Y-60547173D01*
X96299500Y-60547182D01*
X96299500Y-60611512D01*
X96277826Y-60663838D01*
X96248368Y-60681890D01*
X96219980Y-60691113D01*
X96044595Y-60780475D01*
X95885358Y-60896168D01*
X95746177Y-61035349D01*
X95746173Y-61035352D01*
X95689367Y-61113539D01*
X95641075Y-61143131D01*
X95586003Y-61129909D01*
X95556411Y-61081617D01*
X95555500Y-61070042D01*
X95555500Y-60854178D01*
X95563312Y-60821084D01*
X95731271Y-60485166D01*
X95743529Y-60451349D01*
X95751341Y-60418255D01*
X95755500Y-60382530D01*
X95755500Y-59511523D01*
X95743663Y-59452016D01*
X95727460Y-59412898D01*
X95727460Y-59356264D01*
X95767507Y-59316215D01*
X95824145Y-59316215D01*
X95825717Y-59316887D01*
X95912269Y-59355104D01*
X95912272Y-59355105D01*
X95936147Y-59357875D01*
X96391392Y-59357874D01*
X96415268Y-59355105D01*
X96512911Y-59311991D01*
X96515515Y-59309387D01*
X96518546Y-59308131D01*
X96518569Y-59308116D01*
X96518572Y-59308120D01*
X96567841Y-59287713D01*
X96620167Y-59309387D01*
G37*
%TD.AperFunction*%
%TA.AperFunction,Conductor*%
G36*
X95615079Y-56838697D02*
G01*
X95787761Y-57011379D01*
X95809435Y-57063705D01*
X95787761Y-57116031D01*
X95776547Y-57125234D01*
X95762391Y-57134692D01*
X95762390Y-57134693D01*
X95707026Y-57217553D01*
X95707026Y-57217554D01*
X95692492Y-57290620D01*
X95692492Y-57599968D01*
X95705008Y-57662887D01*
X95707026Y-57673034D01*
X95712950Y-57681900D01*
X95723999Y-57737449D01*
X95692533Y-57784541D01*
X95636984Y-57795590D01*
X95599095Y-57775338D01*
X95539142Y-57715385D01*
X95539141Y-57715384D01*
X95441498Y-57672270D01*
X95417623Y-57669500D01*
X95417619Y-57669500D01*
X94962377Y-57669500D01*
X94938504Y-57672269D01*
X94840858Y-57715384D01*
X94816566Y-57739676D01*
X94764240Y-57761349D01*
X94715610Y-57743125D01*
X94706317Y-57735022D01*
X94701692Y-57727011D01*
X94663648Y-57697819D01*
X94661901Y-57696296D01*
X94650257Y-57672854D01*
X94637165Y-57650179D01*
X94637805Y-57647787D01*
X94636705Y-57645572D01*
X94645047Y-57620761D01*
X94651824Y-57595472D01*
X94654625Y-57592277D01*
X94654756Y-57591889D01*
X94655128Y-57591704D01*
X94658195Y-57588206D01*
X94661521Y-57584881D01*
X94707666Y-57504957D01*
X94731551Y-57415815D01*
X94731552Y-57415815D01*
X94731552Y-57323523D01*
X94731551Y-57323522D01*
X94729373Y-57315395D01*
X94707666Y-57234381D01*
X94675197Y-57178144D01*
X94661523Y-57154460D01*
X94661522Y-57154459D01*
X94661521Y-57154457D01*
X94596264Y-57089200D01*
X94596261Y-57089198D01*
X94594890Y-57087827D01*
X94573216Y-57035501D01*
X94594890Y-56983175D01*
X94629324Y-56963697D01*
X94638137Y-56961501D01*
X94674377Y-56961501D01*
X94724003Y-56940944D01*
X94759095Y-56926409D01*
X94823936Y-56861568D01*
X94823936Y-56861567D01*
X94834344Y-56851160D01*
X94834346Y-56851156D01*
X94846809Y-56838692D01*
X94899131Y-56817023D01*
X95562753Y-56817023D01*
X95615079Y-56838697D01*
G37*
%TD.AperFunction*%
%TA.AperFunction,Conductor*%
G36*
X94266575Y-42589053D02*
G01*
X94288249Y-42641379D01*
X94288249Y-43981466D01*
X94266575Y-44033792D01*
X94047541Y-44252826D01*
X93995215Y-44274500D01*
X93210180Y-44274500D01*
X93188229Y-44278866D01*
X93166277Y-44283233D01*
X93116496Y-44316495D01*
X93116495Y-44316496D01*
X93083233Y-44366277D01*
X93074500Y-44410180D01*
X93074500Y-45239819D01*
X93083233Y-45283722D01*
X93116275Y-45333174D01*
X93116496Y-45333504D01*
X93166278Y-45366767D01*
X93210180Y-45375500D01*
X93210181Y-45375500D01*
X94139819Y-45375500D01*
X94139820Y-45375500D01*
X94183722Y-45366767D01*
X94233504Y-45333504D01*
X94266767Y-45283722D01*
X94275500Y-45239820D01*
X94275500Y-45236473D01*
X94297174Y-45184147D01*
X94349500Y-45162473D01*
X94522906Y-45162473D01*
X94575232Y-45184147D01*
X94596906Y-45236473D01*
X94594385Y-45255624D01*
X94589500Y-45273856D01*
X94589500Y-45366144D01*
X94609544Y-45440949D01*
X94613938Y-45457347D01*
X94606545Y-45513500D01*
X94561612Y-45547979D01*
X94542459Y-45550500D01*
X93163943Y-45550500D01*
X93163935Y-45550499D01*
X93155323Y-45550499D01*
X93063624Y-45550499D01*
X93038810Y-45560776D01*
X92978905Y-45585590D01*
X92978904Y-45585592D01*
X92764588Y-45799908D01*
X92752068Y-45830135D01*
X92729497Y-45884624D01*
X92729497Y-45984936D01*
X92729498Y-45984945D01*
X92729498Y-46134169D01*
X92707825Y-46186494D01*
X92679526Y-46214793D01*
X92633384Y-46294712D01*
X92633382Y-46294717D01*
X92609498Y-46383855D01*
X92609498Y-46476148D01*
X92633382Y-46565286D01*
X92633384Y-46565291D01*
X92679526Y-46645210D01*
X92679527Y-46645211D01*
X92679529Y-46645214D01*
X92744786Y-46710471D01*
X92744788Y-46710472D01*
X92744789Y-46710473D01*
X92824708Y-46756615D01*
X92824710Y-46756616D01*
X92824711Y-46756616D01*
X92824713Y-46756617D01*
X92869282Y-46768559D01*
X92913851Y-46780501D01*
X92913852Y-46780502D01*
X92913854Y-46780502D01*
X93006144Y-46780502D01*
X93006144Y-46780501D01*
X93095286Y-46756616D01*
X93175210Y-46710471D01*
X93207972Y-46677708D01*
X93260295Y-46656035D01*
X93312621Y-46677708D01*
X93334296Y-46730034D01*
X93331776Y-46749181D01*
X93331560Y-46749985D01*
X93331560Y-46842281D01*
X93355444Y-46931419D01*
X93355446Y-46931424D01*
X93401588Y-47011343D01*
X93401589Y-47011344D01*
X93401591Y-47011347D01*
X93466848Y-47076604D01*
X93466850Y-47076605D01*
X93466851Y-47076606D01*
X93532857Y-47114715D01*
X93546772Y-47122749D01*
X93546773Y-47122749D01*
X93546775Y-47122750D01*
X93561196Y-47126614D01*
X93635913Y-47146634D01*
X93635914Y-47146635D01*
X93635916Y-47146635D01*
X93728205Y-47146635D01*
X93754626Y-47139555D01*
X93775625Y-47133928D01*
X93831777Y-47141319D01*
X93847104Y-47153080D01*
X94023119Y-47329096D01*
X94044793Y-47381422D01*
X94023119Y-47433748D01*
X93970793Y-47455422D01*
X93158816Y-47455422D01*
X93106491Y-47433749D01*
X93106490Y-47433748D01*
X93078195Y-47405453D01*
X93078192Y-47405451D01*
X93078191Y-47405450D01*
X92998272Y-47359308D01*
X92998267Y-47359306D01*
X92909129Y-47335422D01*
X92909127Y-47335422D01*
X92816839Y-47335422D01*
X92816837Y-47335422D01*
X92727698Y-47359306D01*
X92727693Y-47359308D01*
X92647774Y-47405450D01*
X92582512Y-47470712D01*
X92539966Y-47544404D01*
X92495032Y-47578882D01*
X92438879Y-47571489D01*
X92411794Y-47544403D01*
X92400471Y-47524791D01*
X92400470Y-47524790D01*
X92400469Y-47524788D01*
X92335212Y-47459531D01*
X92335209Y-47459529D01*
X92335208Y-47459528D01*
X92255289Y-47413386D01*
X92255284Y-47413384D01*
X92166146Y-47389500D01*
X92166144Y-47389500D01*
X92073856Y-47389500D01*
X92073854Y-47389500D01*
X91984715Y-47413384D01*
X91984710Y-47413386D01*
X91904791Y-47459528D01*
X91839528Y-47524791D01*
X91793386Y-47604710D01*
X91793384Y-47604715D01*
X91769500Y-47693853D01*
X91769500Y-47786146D01*
X91793384Y-47875284D01*
X91793386Y-47875289D01*
X91839528Y-47955208D01*
X91839529Y-47955209D01*
X91839531Y-47955212D01*
X91904788Y-48020469D01*
X91904790Y-48020470D01*
X91904791Y-48020471D01*
X91963176Y-48054180D01*
X91984712Y-48066614D01*
X91984713Y-48066614D01*
X91984715Y-48066615D01*
X92029284Y-48078557D01*
X92073853Y-48090499D01*
X92073854Y-48090500D01*
X92073856Y-48090500D01*
X92166146Y-48090500D01*
X92166146Y-48090499D01*
X92255288Y-48066614D01*
X92335212Y-48020469D01*
X92400469Y-47955212D01*
X92443017Y-47881516D01*
X92487949Y-47847040D01*
X92544102Y-47854432D01*
X92571187Y-47881516D01*
X92582514Y-47901134D01*
X92647771Y-47966391D01*
X92647773Y-47966392D01*
X92647774Y-47966393D01*
X92723782Y-48010277D01*
X92727695Y-48012536D01*
X92727696Y-48012536D01*
X92727698Y-48012537D01*
X92757301Y-48020469D01*
X92816836Y-48036421D01*
X92816837Y-48036422D01*
X92816839Y-48036422D01*
X92909129Y-48036422D01*
X92909129Y-48036421D01*
X92998271Y-48012536D01*
X93078195Y-47966391D01*
X93106491Y-47938095D01*
X93158816Y-47916422D01*
X97779794Y-47916422D01*
X97832120Y-47938096D01*
X98396845Y-48502821D01*
X98418519Y-48555147D01*
X98400281Y-48599260D01*
X98402479Y-48600947D01*
X98399529Y-48604790D01*
X98353386Y-48684710D01*
X98353384Y-48684715D01*
X98329500Y-48773853D01*
X98329500Y-48866146D01*
X98353384Y-48955284D01*
X98353386Y-48955289D01*
X98399528Y-49035208D01*
X98399529Y-49035209D01*
X98399531Y-49035212D01*
X98427826Y-49063507D01*
X98449500Y-49115832D01*
X98449500Y-49689511D01*
X98427826Y-49741837D01*
X98375500Y-49763511D01*
X98356348Y-49760990D01*
X98276144Y-49739500D01*
X98183856Y-49739500D01*
X98094712Y-49763386D01*
X98094711Y-49763386D01*
X98093153Y-49763804D01*
X98037000Y-49756411D01*
X98002521Y-49711478D01*
X98000000Y-49692325D01*
X98000000Y-49300000D01*
X97338387Y-49300000D01*
X97308498Y-49293695D01*
X97306573Y-49292845D01*
X97306571Y-49292844D01*
X97301433Y-49292248D01*
X97282281Y-49290026D01*
X97282277Y-49290026D01*
X96855535Y-49290026D01*
X96831252Y-49292842D01*
X96831243Y-49292845D01*
X96829319Y-49293695D01*
X96799430Y-49300000D01*
X95900000Y-49300000D01*
X95900000Y-50575500D01*
X95878326Y-50627826D01*
X95826000Y-50649500D01*
X95808399Y-50649500D01*
X95719260Y-50673384D01*
X95719255Y-50673386D01*
X95639336Y-50719528D01*
X95574073Y-50784791D01*
X95527931Y-50864710D01*
X95527929Y-50864715D01*
X95504045Y-50953853D01*
X95504045Y-51046146D01*
X95527929Y-51135284D01*
X95527931Y-51135289D01*
X95574073Y-51215208D01*
X95574074Y-51215209D01*
X95574076Y-51215212D01*
X95639333Y-51280469D01*
X95639335Y-51280470D01*
X95639336Y-51280471D01*
X95719255Y-51326613D01*
X95719257Y-51326614D01*
X95719258Y-51326614D01*
X95719260Y-51326615D01*
X95746665Y-51333958D01*
X95808398Y-51350499D01*
X95808399Y-51350500D01*
X95808401Y-51350500D01*
X95826000Y-51350500D01*
X95878326Y-51372174D01*
X95900000Y-51424500D01*
X95900000Y-52226000D01*
X95878326Y-52278326D01*
X95826000Y-52300000D01*
X95051290Y-52300000D01*
X95051290Y-52447814D01*
X95041376Y-52484813D01*
X95038500Y-52489792D01*
X95038498Y-52489798D01*
X95038497Y-52489800D01*
X95038497Y-52489801D01*
X95019041Y-52562413D01*
X95019041Y-52637587D01*
X95026025Y-52663652D01*
X95038497Y-52710200D01*
X95038498Y-52710201D01*
X95041373Y-52715180D01*
X95051290Y-52752185D01*
X95051290Y-52877094D01*
X95225839Y-52877094D01*
X95244990Y-52879614D01*
X95266954Y-52885500D01*
X95266955Y-52885500D01*
X95342127Y-52885500D01*
X95342128Y-52885500D01*
X95364091Y-52879614D01*
X95383243Y-52877094D01*
X95423836Y-52877094D01*
X95476162Y-52898768D01*
X95497836Y-52951094D01*
X95497836Y-55006149D01*
X95476162Y-55058475D01*
X95423836Y-55080149D01*
X95371510Y-55058475D01*
X95362307Y-55047261D01*
X95361594Y-55046194D01*
X94556715Y-54241315D01*
X94535041Y-54188989D01*
X94535041Y-53291590D01*
X94544956Y-53254589D01*
X94554541Y-53237987D01*
X94570585Y-53210199D01*
X94590041Y-53137587D01*
X94590041Y-53062413D01*
X94570585Y-52989801D01*
X94556592Y-52965564D01*
X94533000Y-52924702D01*
X94532999Y-52924701D01*
X94532998Y-52924699D01*
X94479842Y-52871543D01*
X94479839Y-52871541D01*
X94479838Y-52871540D01*
X94414744Y-52833958D01*
X94414742Y-52833957D01*
X94414741Y-52833956D01*
X94414740Y-52833956D01*
X94342128Y-52814500D01*
X94266954Y-52814500D01*
X94216694Y-52827966D01*
X94160542Y-52820572D01*
X94126064Y-52775638D01*
X94126065Y-52737333D01*
X94126613Y-52735289D01*
X94126614Y-52735288D01*
X94146552Y-52660878D01*
X94150500Y-52646145D01*
X94150500Y-52553854D01*
X94150499Y-52553853D01*
X94147561Y-52542888D01*
X94126614Y-52464712D01*
X94126613Y-52464710D01*
X94126065Y-52462665D01*
X94133457Y-52406513D01*
X94178390Y-52372034D01*
X94216693Y-52372033D01*
X94266954Y-52385500D01*
X94266955Y-52385500D01*
X94342126Y-52385500D01*
X94342128Y-52385500D01*
X94414740Y-52366044D01*
X94479842Y-52328457D01*
X94532998Y-52275301D01*
X94570585Y-52210199D01*
X94590041Y-52137587D01*
X94590041Y-52062413D01*
X94570585Y-51989801D01*
X94539616Y-51936161D01*
X94533000Y-51924702D01*
X94532999Y-51924701D01*
X94532998Y-51924699D01*
X94479842Y-51871543D01*
X94479839Y-51871541D01*
X94479838Y-51871540D01*
X94453063Y-51856082D01*
X94418585Y-51811149D01*
X94425977Y-51754996D01*
X94437733Y-51739674D01*
X94614994Y-51562413D01*
X95019041Y-51562413D01*
X95019041Y-51637587D01*
X95038003Y-51708355D01*
X95038498Y-51710201D01*
X95038499Y-51710203D01*
X95076081Y-51775297D01*
X95076082Y-51775298D01*
X95076084Y-51775301D01*
X95129240Y-51828457D01*
X95129242Y-51828458D01*
X95129243Y-51828459D01*
X95166553Y-51850000D01*
X95194342Y-51866044D01*
X95266954Y-51885500D01*
X95266956Y-51885500D01*
X95342126Y-51885500D01*
X95342128Y-51885500D01*
X95414740Y-51866044D01*
X95479842Y-51828457D01*
X95532998Y-51775301D01*
X95570585Y-51710199D01*
X95590041Y-51637587D01*
X95590041Y-51562413D01*
X95570585Y-51489801D01*
X95545213Y-51445855D01*
X95533000Y-51424702D01*
X95532999Y-51424701D01*
X95532998Y-51424699D01*
X95479842Y-51371543D01*
X95479839Y-51371541D01*
X95479838Y-51371540D01*
X95414744Y-51333958D01*
X95414742Y-51333957D01*
X95414741Y-51333956D01*
X95414740Y-51333956D01*
X95342128Y-51314500D01*
X95266954Y-51314500D01*
X95194342Y-51333956D01*
X95194341Y-51333956D01*
X95194339Y-51333957D01*
X95194337Y-51333958D01*
X95129243Y-51371540D01*
X95076081Y-51424702D01*
X95038499Y-51489796D01*
X95038498Y-51489798D01*
X95038497Y-51489800D01*
X95038497Y-51489801D01*
X95019041Y-51562413D01*
X94614994Y-51562413D01*
X94934718Y-51242690D01*
X94934721Y-51242688D01*
X94945126Y-51232283D01*
X94945127Y-51232283D01*
X95009968Y-51167442D01*
X95045059Y-51082723D01*
X95045059Y-50601709D01*
X95066732Y-50549384D01*
X95095028Y-50521089D01*
X95141173Y-50441165D01*
X95144362Y-50429261D01*
X95178836Y-50384330D01*
X95234986Y-50376934D01*
X95266954Y-50385500D01*
X95342126Y-50385500D01*
X95342128Y-50385500D01*
X95414740Y-50366044D01*
X95479842Y-50328457D01*
X95532998Y-50275301D01*
X95570585Y-50210199D01*
X95590041Y-50137587D01*
X95590041Y-50062413D01*
X95570585Y-49989801D01*
X95550710Y-49955377D01*
X95533000Y-49924702D01*
X95532999Y-49924701D01*
X95532998Y-49924699D01*
X95510623Y-49902324D01*
X95488950Y-49850000D01*
X95510623Y-49797675D01*
X95532998Y-49775301D01*
X95570585Y-49710199D01*
X95590041Y-49637587D01*
X95590041Y-49562413D01*
X95570585Y-49489801D01*
X95543542Y-49442961D01*
X95533000Y-49424702D01*
X95532999Y-49424701D01*
X95532998Y-49424699D01*
X95479842Y-49371543D01*
X95479839Y-49371541D01*
X95479838Y-49371540D01*
X95414744Y-49333958D01*
X95414742Y-49333957D01*
X95414741Y-49333956D01*
X95414740Y-49333956D01*
X95342128Y-49314500D01*
X95266954Y-49314500D01*
X95194342Y-49333956D01*
X95194341Y-49333956D01*
X95194339Y-49333957D01*
X95194337Y-49333958D01*
X95129243Y-49371540D01*
X95076081Y-49424702D01*
X95038499Y-49489796D01*
X95038498Y-49489798D01*
X95038497Y-49489800D01*
X95038497Y-49489801D01*
X95019041Y-49562413D01*
X95019041Y-49637587D01*
X95032954Y-49689511D01*
X95038498Y-49710201D01*
X95038499Y-49710203D01*
X95076081Y-49775297D01*
X95076082Y-49775298D01*
X95076084Y-49775301D01*
X95098458Y-49797675D01*
X95107486Y-49819471D01*
X95119429Y-49839821D01*
X95117856Y-49844507D01*
X95120132Y-49850000D01*
X95105158Y-49894631D01*
X95102076Y-49898706D01*
X95076084Y-49924699D01*
X95055610Y-49960160D01*
X95052837Y-49963828D01*
X95032067Y-49976016D01*
X95012962Y-49990676D01*
X95008164Y-49990044D01*
X95003990Y-49992494D01*
X94980690Y-49986427D01*
X94956813Y-49983284D01*
X94949851Y-49979264D01*
X94949843Y-49979261D01*
X94860705Y-49955377D01*
X94860703Y-49955377D01*
X94768415Y-49955377D01*
X94768413Y-49955377D01*
X94679274Y-49979261D01*
X94679269Y-49979263D01*
X94599350Y-50025405D01*
X94534087Y-50090668D01*
X94487945Y-50170587D01*
X94487943Y-50170592D01*
X94464058Y-50259733D01*
X94463952Y-50260540D01*
X94463746Y-50260895D01*
X94462803Y-50264418D01*
X94461858Y-50264164D01*
X94435629Y-50309587D01*
X94380920Y-50324240D01*
X94371433Y-50322352D01*
X94342129Y-50314500D01*
X94342128Y-50314500D01*
X94266954Y-50314500D01*
X94194342Y-50333956D01*
X94194341Y-50333956D01*
X94194339Y-50333957D01*
X94194337Y-50333958D01*
X94129243Y-50371540D01*
X94076081Y-50424702D01*
X94038499Y-50489796D01*
X94038498Y-50489798D01*
X94038497Y-50489800D01*
X94038497Y-50489801D01*
X94019041Y-50562413D01*
X94019041Y-50637587D01*
X94038497Y-50710199D01*
X94038498Y-50710201D01*
X94038499Y-50710203D01*
X94076081Y-50775297D01*
X94076082Y-50775298D01*
X94076084Y-50775301D01*
X94098458Y-50797675D01*
X94120132Y-50850000D01*
X94098458Y-50902324D01*
X94085192Y-50915591D01*
X94076081Y-50924702D01*
X94038499Y-50989796D01*
X94038498Y-50989798D01*
X94038497Y-50989800D01*
X94038497Y-50989801D01*
X94019041Y-51062413D01*
X94019041Y-51137587D01*
X94038497Y-51210199D01*
X94038498Y-51210201D01*
X94038499Y-51210203D01*
X94076081Y-51275297D01*
X94076082Y-51275298D01*
X94076084Y-51275301D01*
X94110794Y-51310011D01*
X94132468Y-51362336D01*
X94110794Y-51414662D01*
X94033281Y-51492176D01*
X93980955Y-51513850D01*
X93214660Y-51513850D01*
X93214652Y-51513849D01*
X93206040Y-51513849D01*
X93114341Y-51513849D01*
X93064715Y-51534403D01*
X93064716Y-51534404D01*
X93029624Y-51548940D01*
X92964781Y-51613783D01*
X92777026Y-51801537D01*
X92743853Y-51820689D01*
X92694345Y-51833954D01*
X92694340Y-51833956D01*
X92629243Y-51871540D01*
X92576081Y-51924702D01*
X92538499Y-51989796D01*
X92538498Y-51989798D01*
X92538497Y-51989800D01*
X92538497Y-51989801D01*
X92519041Y-52062413D01*
X92519041Y-52062415D01*
X92519041Y-52137587D01*
X92524126Y-52156566D01*
X92516732Y-52212718D01*
X92471798Y-52247196D01*
X92450994Y-52248562D01*
X92450994Y-52249500D01*
X92353854Y-52249500D01*
X92264715Y-52273384D01*
X92264710Y-52273386D01*
X92184791Y-52319528D01*
X92119528Y-52384791D01*
X92073386Y-52464710D01*
X92073384Y-52464715D01*
X92049500Y-52553853D01*
X92049500Y-52646146D01*
X92073384Y-52735284D01*
X92073386Y-52735289D01*
X92119528Y-52815208D01*
X92119529Y-52815209D01*
X92119531Y-52815212D01*
X92184788Y-52880469D01*
X92184790Y-52880470D01*
X92184791Y-52880471D01*
X92259121Y-52923386D01*
X92264712Y-52926614D01*
X92264713Y-52926614D01*
X92264715Y-52926615D01*
X92309284Y-52938557D01*
X92353853Y-52950499D01*
X92353854Y-52950500D01*
X92450994Y-52950500D01*
X92450994Y-52953064D01*
X92497682Y-52965564D01*
X92526012Y-53014607D01*
X92524126Y-53043432D01*
X92519041Y-53062410D01*
X92519041Y-53062413D01*
X92519041Y-53137587D01*
X92538497Y-53210199D01*
X92538498Y-53210201D01*
X92538499Y-53210203D01*
X92576081Y-53275297D01*
X92576082Y-53275298D01*
X92576084Y-53275301D01*
X92578029Y-53277246D01*
X92578560Y-53278527D01*
X92579032Y-53279142D01*
X92578867Y-53279268D01*
X92599703Y-53329571D01*
X92599703Y-54566726D01*
X92578029Y-54619052D01*
X92555594Y-54634420D01*
X92507438Y-54655683D01*
X92426826Y-54736296D01*
X92374500Y-54757970D01*
X92322174Y-54736296D01*
X92300500Y-54683970D01*
X92300500Y-54628854D01*
X92300499Y-54628853D01*
X92299899Y-54626615D01*
X92282337Y-54561072D01*
X92276615Y-54539715D01*
X92276613Y-54539710D01*
X92230471Y-54459791D01*
X92230470Y-54459790D01*
X92230469Y-54459788D01*
X92165212Y-54394531D01*
X92165209Y-54394529D01*
X92165208Y-54394528D01*
X92085289Y-54348386D01*
X92085284Y-54348384D01*
X91996146Y-54324500D01*
X91996144Y-54324500D01*
X91903856Y-54324500D01*
X91903854Y-54324500D01*
X91814715Y-54348384D01*
X91814710Y-54348386D01*
X91734791Y-54394528D01*
X91669530Y-54459789D01*
X91649199Y-54495003D01*
X91604265Y-54529480D01*
X91599551Y-54530579D01*
X91539828Y-54542459D01*
X91451450Y-54601511D01*
X91410338Y-54613982D01*
X91351306Y-54613982D01*
X91298980Y-54592308D01*
X91274491Y-54567819D01*
X91252817Y-54515493D01*
X91274491Y-54463167D01*
X91307663Y-54444015D01*
X91335288Y-54436614D01*
X91415212Y-54390469D01*
X91480469Y-54325212D01*
X91526614Y-54245288D01*
X91550499Y-54156146D01*
X91550500Y-54156146D01*
X91550500Y-54063854D01*
X91550499Y-54063853D01*
X91526615Y-53974715D01*
X91526613Y-53974710D01*
X91480471Y-53894791D01*
X91480470Y-53894790D01*
X91480469Y-53894788D01*
X91415212Y-53829531D01*
X91415209Y-53829529D01*
X91415208Y-53829528D01*
X91335289Y-53783386D01*
X91335284Y-53783384D01*
X91246146Y-53759500D01*
X91246144Y-53759500D01*
X91153856Y-53759500D01*
X91153854Y-53759500D01*
X91064715Y-53783384D01*
X91064710Y-53783386D01*
X90984791Y-53829528D01*
X90919528Y-53894791D01*
X90873386Y-53974710D01*
X90873384Y-53974715D01*
X90849500Y-54063853D01*
X90849500Y-54156146D01*
X90873384Y-54245284D01*
X90873386Y-54245289D01*
X90919528Y-54325208D01*
X90919529Y-54325209D01*
X90919531Y-54325212D01*
X90964579Y-54370260D01*
X90986253Y-54422585D01*
X90964579Y-54474911D01*
X90912253Y-54496585D01*
X90672377Y-54496585D01*
X90648504Y-54499354D01*
X90550858Y-54542469D01*
X90475385Y-54617942D01*
X90446917Y-54682416D01*
X90432270Y-54715587D01*
X90429868Y-54736296D01*
X90429500Y-54739465D01*
X90429500Y-55094707D01*
X90432269Y-55118580D01*
X90432269Y-55118582D01*
X90432270Y-55118583D01*
X90475384Y-55216226D01*
X90550859Y-55291701D01*
X90648502Y-55334815D01*
X90672377Y-55337585D01*
X91127622Y-55337584D01*
X91151498Y-55334815D01*
X91249141Y-55291701D01*
X91274161Y-55266680D01*
X91326486Y-55245006D01*
X91378812Y-55266679D01*
X91400487Y-55319005D01*
X91399065Y-55333442D01*
X91398241Y-55337585D01*
X91387069Y-55393751D01*
X91387069Y-55703099D01*
X91400002Y-55768118D01*
X91401603Y-55776165D01*
X91452776Y-55852753D01*
X91456968Y-55859026D01*
X91539829Y-55914391D01*
X91612895Y-55928925D01*
X91663594Y-55928925D01*
X91682744Y-55931446D01*
X91689246Y-55933188D01*
X91734181Y-55967665D01*
X91738463Y-55976348D01*
X91746208Y-55995046D01*
X91746210Y-55995049D01*
X91821457Y-56070296D01*
X91821459Y-56070297D01*
X92246289Y-56495127D01*
X92267963Y-56547453D01*
X92267963Y-57178144D01*
X92276696Y-57222047D01*
X92295463Y-57250135D01*
X92309959Y-57271829D01*
X92359741Y-57305092D01*
X92403643Y-57313825D01*
X92403644Y-57313825D01*
X92783282Y-57313825D01*
X92783283Y-57313825D01*
X92827185Y-57305092D01*
X92876967Y-57271829D01*
X92910230Y-57222047D01*
X92918963Y-57178145D01*
X92918963Y-56388505D01*
X92910230Y-56344603D01*
X92876967Y-56294821D01*
X92867234Y-56288318D01*
X92827185Y-56261558D01*
X92794052Y-56254967D01*
X92746960Y-56223500D01*
X92735912Y-56167951D01*
X92767379Y-56120859D01*
X92808488Y-56108389D01*
X93025067Y-56108389D01*
X93050194Y-56105475D01*
X93152968Y-56060096D01*
X93232409Y-55980655D01*
X93277788Y-55877881D01*
X93280703Y-55852755D01*
X93280702Y-55113016D01*
X93302376Y-55060691D01*
X93354702Y-55039017D01*
X93407028Y-55060691D01*
X93558029Y-55211692D01*
X93579703Y-55264018D01*
X93579703Y-55852753D01*
X93582617Y-55877876D01*
X93582618Y-55877882D01*
X93605156Y-55928925D01*
X93627997Y-55980655D01*
X93707438Y-56060096D01*
X93810212Y-56105475D01*
X93810215Y-56105475D01*
X93810217Y-56105476D01*
X93815586Y-56106938D01*
X93815082Y-56108787D01*
X93858334Y-56132876D01*
X93873835Y-56187351D01*
X93846277Y-56236831D01*
X93800328Y-56252825D01*
X93703643Y-56252825D01*
X93692875Y-56254967D01*
X93659740Y-56261558D01*
X93609959Y-56294820D01*
X93609958Y-56294821D01*
X93576696Y-56344602D01*
X93567963Y-56388505D01*
X93567963Y-56634135D01*
X93565442Y-56653287D01*
X93554573Y-56693853D01*
X93542963Y-56737181D01*
X93542963Y-56829469D01*
X93561764Y-56899635D01*
X93565442Y-56913361D01*
X93567963Y-56932514D01*
X93567963Y-57178144D01*
X93576696Y-57222047D01*
X93595463Y-57250135D01*
X93609959Y-57271829D01*
X93659741Y-57305092D01*
X93703643Y-57313825D01*
X93956552Y-57313825D01*
X94008878Y-57335499D01*
X94030552Y-57387825D01*
X94030552Y-57415815D01*
X94054436Y-57504953D01*
X94054438Y-57504958D01*
X94070917Y-57533500D01*
X94078309Y-57589653D01*
X94043831Y-57634586D01*
X94006831Y-57644500D01*
X93047963Y-57644500D01*
X93031439Y-57647787D01*
X92988461Y-57656335D01*
X92988451Y-57656338D01*
X92936136Y-57678008D01*
X92936121Y-57678015D01*
X92933209Y-57679697D01*
X92877056Y-57687086D01*
X92859217Y-57679697D01*
X92856296Y-57678011D01*
X92803974Y-57656338D01*
X92803964Y-57656335D01*
X92760987Y-57647787D01*
X92744463Y-57644500D01*
X91174000Y-57644500D01*
X91117265Y-57655785D01*
X91061716Y-57644735D01*
X91041779Y-57625027D01*
X91039615Y-57621868D01*
X90964141Y-57546394D01*
X90964140Y-57546393D01*
X90866497Y-57503279D01*
X90842622Y-57500509D01*
X90842618Y-57500509D01*
X90387376Y-57500509D01*
X90363503Y-57503278D01*
X90304390Y-57529379D01*
X90247768Y-57530687D01*
X90206805Y-57491574D01*
X90200500Y-57461684D01*
X90200500Y-56693853D01*
X91014500Y-56693853D01*
X91014500Y-56786146D01*
X91038384Y-56875284D01*
X91038386Y-56875289D01*
X91084528Y-56955208D01*
X91084529Y-56955209D01*
X91084531Y-56955212D01*
X91149788Y-57020469D01*
X91149790Y-57020470D01*
X91149791Y-57020471D01*
X91229710Y-57066613D01*
X91229712Y-57066614D01*
X91229713Y-57066614D01*
X91229715Y-57066615D01*
X91244039Y-57070453D01*
X91318853Y-57090499D01*
X91318854Y-57090500D01*
X91318856Y-57090500D01*
X91411146Y-57090500D01*
X91411146Y-57090499D01*
X91500288Y-57066614D01*
X91580212Y-57020469D01*
X91645469Y-56955212D01*
X91691614Y-56875288D01*
X91715499Y-56786146D01*
X91715500Y-56786146D01*
X91715500Y-56693854D01*
X91715499Y-56693853D01*
X91691615Y-56604715D01*
X91691613Y-56604710D01*
X91645471Y-56524791D01*
X91645470Y-56524790D01*
X91645469Y-56524788D01*
X91580212Y-56459531D01*
X91580209Y-56459529D01*
X91580208Y-56459528D01*
X91500289Y-56413386D01*
X91500284Y-56413384D01*
X91411146Y-56389500D01*
X91411144Y-56389500D01*
X91318856Y-56389500D01*
X91318854Y-56389500D01*
X91229715Y-56413384D01*
X91229710Y-56413386D01*
X91149791Y-56459528D01*
X91084528Y-56524791D01*
X91038386Y-56604710D01*
X91038384Y-56604715D01*
X91014500Y-56693853D01*
X90200500Y-56693853D01*
X90200500Y-51270576D01*
X90222174Y-51218250D01*
X90274500Y-51196576D01*
X90326826Y-51218250D01*
X90338586Y-51233576D01*
X90339528Y-51235208D01*
X90339529Y-51235209D01*
X90339531Y-51235212D01*
X90404788Y-51300469D01*
X90404790Y-51300470D01*
X90404791Y-51300471D01*
X90481102Y-51344530D01*
X90484712Y-51346614D01*
X90484713Y-51346614D01*
X90484715Y-51346615D01*
X90520469Y-51356195D01*
X90573853Y-51370499D01*
X90573854Y-51370500D01*
X90573856Y-51370500D01*
X90666146Y-51370500D01*
X90666146Y-51370499D01*
X90755288Y-51346614D01*
X90835212Y-51300469D01*
X90900469Y-51235212D01*
X90910262Y-51218250D01*
X90912617Y-51214172D01*
X90925476Y-51204304D01*
X90934165Y-51190619D01*
X90947064Y-51187738D01*
X90957549Y-51179693D01*
X90973620Y-51181808D01*
X90989441Y-51178276D01*
X90999337Y-51185194D01*
X91013702Y-51187085D01*
X91037255Y-51208633D01*
X91039145Y-51211324D01*
X91076083Y-51275301D01*
X91102996Y-51302214D01*
X91106683Y-51307462D01*
X91111562Y-51329313D01*
X91120131Y-51350000D01*
X91117564Y-51356195D01*
X91119026Y-51362738D01*
X91107026Y-51381637D01*
X91098458Y-51402325D01*
X91076081Y-51424702D01*
X91038499Y-51489796D01*
X91038498Y-51489798D01*
X91038497Y-51489800D01*
X91038497Y-51489801D01*
X91019041Y-51562413D01*
X91019041Y-51637587D01*
X91038003Y-51708355D01*
X91038498Y-51710201D01*
X91038499Y-51710203D01*
X91076081Y-51775297D01*
X91076082Y-51775298D01*
X91076084Y-51775301D01*
X91098458Y-51797675D01*
X91120132Y-51850000D01*
X91098458Y-51902324D01*
X91081966Y-51918817D01*
X91076081Y-51924702D01*
X91038499Y-51989796D01*
X91038498Y-51989798D01*
X91038497Y-51989800D01*
X91038497Y-51989801D01*
X91019041Y-52062413D01*
X91019041Y-52137587D01*
X91031689Y-52184790D01*
X91038498Y-52210201D01*
X91038499Y-52210203D01*
X91068730Y-52262564D01*
X91076123Y-52318716D01*
X91056971Y-52351889D01*
X91024069Y-52384791D01*
X90977927Y-52464710D01*
X90977925Y-52464715D01*
X90954041Y-52553853D01*
X90954041Y-52646146D01*
X90977925Y-52735284D01*
X90977927Y-52735289D01*
X91024069Y-52815208D01*
X91024070Y-52815209D01*
X91024072Y-52815212D01*
X91089329Y-52880469D01*
X91089331Y-52880470D01*
X91089332Y-52880471D01*
X91163662Y-52923386D01*
X91169253Y-52926614D01*
X91169254Y-52926614D01*
X91169256Y-52926615D01*
X91213825Y-52938557D01*
X91258394Y-52950499D01*
X91258395Y-52950500D01*
X91258397Y-52950500D01*
X91350687Y-52950500D01*
X91350687Y-52950499D01*
X91439829Y-52926614D01*
X91519753Y-52880469D01*
X91585010Y-52815212D01*
X91631155Y-52735288D01*
X91655040Y-52646146D01*
X91655041Y-52646146D01*
X91655041Y-52553854D01*
X91655040Y-52553853D01*
X91652101Y-52542886D01*
X91636357Y-52484126D01*
X91631156Y-52464715D01*
X91631154Y-52464710D01*
X91585012Y-52384791D01*
X91585011Y-52384790D01*
X91585010Y-52384788D01*
X91552110Y-52351888D01*
X91530437Y-52299564D01*
X91540352Y-52262563D01*
X91542103Y-52259531D01*
X91570585Y-52210199D01*
X91590041Y-52137587D01*
X91590041Y-52062413D01*
X91570585Y-51989801D01*
X91563027Y-51976710D01*
X91539616Y-51936161D01*
X91532223Y-51880008D01*
X91566702Y-51835075D01*
X91622855Y-51827682D01*
X91640702Y-51835075D01*
X91666553Y-51850000D01*
X91694342Y-51866044D01*
X91766954Y-51885500D01*
X91766956Y-51885500D01*
X91842126Y-51885500D01*
X91842128Y-51885500D01*
X91914740Y-51866044D01*
X91979842Y-51828457D01*
X92032998Y-51775301D01*
X92070585Y-51710199D01*
X92090041Y-51637587D01*
X92090041Y-51562413D01*
X92070585Y-51489801D01*
X92045213Y-51445855D01*
X92033000Y-51424702D01*
X92032999Y-51424701D01*
X92032998Y-51424699D01*
X92010623Y-51402324D01*
X91988950Y-51350000D01*
X92010623Y-51297675D01*
X92032998Y-51275301D01*
X92070585Y-51210199D01*
X92090041Y-51137587D01*
X92090041Y-51062413D01*
X92070585Y-50989801D01*
X92049830Y-50953853D01*
X92033000Y-50924702D01*
X92032999Y-50924701D01*
X92032998Y-50924699D01*
X91979842Y-50871543D01*
X91979839Y-50871541D01*
X91979838Y-50871540D01*
X91914744Y-50833958D01*
X91914742Y-50833957D01*
X91914741Y-50833956D01*
X91914740Y-50833956D01*
X91842128Y-50814500D01*
X91766954Y-50814500D01*
X91694342Y-50833956D01*
X91694341Y-50833956D01*
X91694339Y-50833957D01*
X91694337Y-50833958D01*
X91629243Y-50871540D01*
X91606865Y-50893918D01*
X91554539Y-50915591D01*
X91502215Y-50893917D01*
X91479841Y-50871543D01*
X91479838Y-50871541D01*
X91479837Y-50871540D01*
X91414743Y-50833958D01*
X91414741Y-50833957D01*
X91414740Y-50833956D01*
X91414739Y-50833956D01*
X91342127Y-50814500D01*
X91266953Y-50814500D01*
X91194341Y-50833956D01*
X91194340Y-50833956D01*
X91194338Y-50833957D01*
X91194336Y-50833958D01*
X91129241Y-50871541D01*
X91129238Y-50871543D01*
X91073054Y-50927727D01*
X91020728Y-50949401D01*
X90968403Y-50927726D01*
X90952920Y-50905031D01*
X90950692Y-50899933D01*
X90946614Y-50884712D01*
X90936035Y-50866390D01*
X90934382Y-50862606D01*
X90933910Y-50838110D01*
X90930712Y-50813827D01*
X90933354Y-50809250D01*
X90933291Y-50805979D01*
X90938169Y-50800908D01*
X90949863Y-50780652D01*
X91332054Y-50398461D01*
X91365224Y-50379310D01*
X91414740Y-50366044D01*
X91479842Y-50328457D01*
X91532998Y-50275301D01*
X91570585Y-50210199D01*
X91590041Y-50137587D01*
X91590041Y-50062413D01*
X91570585Y-49989801D01*
X91566822Y-49983284D01*
X91542699Y-49941500D01*
X91535307Y-49885347D01*
X91569785Y-49840414D01*
X91606785Y-49830500D01*
X92011572Y-49830500D01*
X92063897Y-49852173D01*
X92084625Y-49872901D01*
X92084627Y-49872902D01*
X92084628Y-49872903D01*
X92164547Y-49919045D01*
X92164549Y-49919046D01*
X92164550Y-49919046D01*
X92164552Y-49919047D01*
X92209121Y-49930989D01*
X92253690Y-49942931D01*
X92253691Y-49942932D01*
X92253693Y-49942932D01*
X92345983Y-49942932D01*
X92345983Y-49942931D01*
X92435125Y-49919046D01*
X92515049Y-49872901D01*
X92580306Y-49807644D01*
X92626451Y-49727720D01*
X92650336Y-49638578D01*
X92650337Y-49638578D01*
X92650337Y-49546288D01*
X92647500Y-49535700D01*
X92654893Y-49479548D01*
X92699827Y-49445069D01*
X92738131Y-49445069D01*
X92748696Y-49447900D01*
X92758396Y-49450500D01*
X92758397Y-49450500D01*
X92850687Y-49450500D01*
X92850687Y-49450499D01*
X92939829Y-49426614D01*
X93019753Y-49380469D01*
X93052652Y-49347569D01*
X93104977Y-49325896D01*
X93141977Y-49335810D01*
X93194342Y-49366043D01*
X93266954Y-49385499D01*
X93266956Y-49385499D01*
X93342126Y-49385499D01*
X93342128Y-49385499D01*
X93414740Y-49366043D01*
X93479842Y-49328456D01*
X93502216Y-49306081D01*
X93554539Y-49284408D01*
X93606863Y-49306080D01*
X93629240Y-49328457D01*
X93629242Y-49328458D01*
X93629243Y-49328459D01*
X93655305Y-49343506D01*
X93694342Y-49366044D01*
X93766954Y-49385500D01*
X93766956Y-49385500D01*
X93842126Y-49385500D01*
X93842128Y-49385500D01*
X93914740Y-49366044D01*
X93979842Y-49328457D01*
X94002216Y-49306082D01*
X94054541Y-49284409D01*
X94106865Y-49306082D01*
X94129240Y-49328457D01*
X94129242Y-49328458D01*
X94129243Y-49328459D01*
X94155305Y-49343506D01*
X94194342Y-49366044D01*
X94266954Y-49385500D01*
X94266956Y-49385500D01*
X94342126Y-49385500D01*
X94342128Y-49385500D01*
X94414740Y-49366044D01*
X94479842Y-49328457D01*
X94532998Y-49275301D01*
X94570585Y-49210199D01*
X94590041Y-49137587D01*
X94590041Y-49062413D01*
X94570585Y-48989801D01*
X94550659Y-48955288D01*
X94533000Y-48924702D01*
X94532999Y-48924701D01*
X94532998Y-48924699D01*
X94479842Y-48871543D01*
X94479839Y-48871541D01*
X94479838Y-48871540D01*
X94414744Y-48833958D01*
X94414742Y-48833957D01*
X94414741Y-48833956D01*
X94414740Y-48833956D01*
X94342128Y-48814500D01*
X94266954Y-48814500D01*
X94194342Y-48833956D01*
X94194341Y-48833956D01*
X94194339Y-48833957D01*
X94194337Y-48833958D01*
X94129243Y-48871540D01*
X94129240Y-48871542D01*
X94129240Y-48871543D01*
X94106865Y-48893917D01*
X94054541Y-48915591D01*
X94002216Y-48893917D01*
X93979842Y-48871543D01*
X93979839Y-48871541D01*
X93979838Y-48871540D01*
X93914744Y-48833958D01*
X93914742Y-48833957D01*
X93914741Y-48833956D01*
X93914740Y-48833956D01*
X93842128Y-48814500D01*
X93766954Y-48814500D01*
X93694342Y-48833956D01*
X93694341Y-48833956D01*
X93694339Y-48833957D01*
X93694334Y-48833959D01*
X93629074Y-48871637D01*
X93624008Y-48872303D01*
X93620394Y-48875918D01*
X93596554Y-48875918D01*
X93572922Y-48879029D01*
X93568868Y-48875918D01*
X93563757Y-48875918D01*
X93546899Y-48859060D01*
X93527989Y-48844550D01*
X93523708Y-48835870D01*
X93514856Y-48814500D01*
X93514856Y-48814499D01*
X93499951Y-48778515D01*
X93499949Y-48778512D01*
X93430894Y-48709457D01*
X93430887Y-48709451D01*
X93207894Y-48486458D01*
X93207894Y-48486457D01*
X93197486Y-48476049D01*
X93132645Y-48411208D01*
X93132643Y-48411207D01*
X93132641Y-48411206D01*
X93097553Y-48396672D01*
X93097553Y-48396671D01*
X93047927Y-48376116D01*
X92960633Y-48376116D01*
X92908308Y-48354442D01*
X92850185Y-48296320D01*
X92850182Y-48296318D01*
X92770262Y-48250175D01*
X92770257Y-48250173D01*
X92681119Y-48226289D01*
X92681117Y-48226289D01*
X92588829Y-48226289D01*
X92588827Y-48226289D01*
X92499688Y-48250173D01*
X92499683Y-48250175D01*
X92419764Y-48296317D01*
X92354501Y-48361580D01*
X92308359Y-48441499D01*
X92308357Y-48441504D01*
X92284473Y-48530642D01*
X92284473Y-48622935D01*
X92308359Y-48712080D01*
X92310119Y-48716329D01*
X92310115Y-48772966D01*
X92270063Y-48813011D01*
X92260904Y-48816120D01*
X92194344Y-48833955D01*
X92194337Y-48833958D01*
X92129243Y-48871540D01*
X92129240Y-48871542D01*
X92129240Y-48871543D01*
X92106865Y-48893917D01*
X92054541Y-48915591D01*
X92002216Y-48893917D01*
X91979842Y-48871543D01*
X91979839Y-48871541D01*
X91979838Y-48871540D01*
X91914744Y-48833958D01*
X91914742Y-48833957D01*
X91914741Y-48833956D01*
X91914740Y-48833956D01*
X91842128Y-48814500D01*
X91766954Y-48814500D01*
X91694342Y-48833956D01*
X91694341Y-48833956D01*
X91694339Y-48833957D01*
X91694337Y-48833958D01*
X91629243Y-48871540D01*
X91629240Y-48871542D01*
X91629240Y-48871543D01*
X91606865Y-48893917D01*
X91554541Y-48915591D01*
X91502216Y-48893917D01*
X91479842Y-48871543D01*
X91479839Y-48871541D01*
X91479838Y-48871540D01*
X91414744Y-48833958D01*
X91414742Y-48833957D01*
X91414741Y-48833956D01*
X91414740Y-48833956D01*
X91342128Y-48814500D01*
X91266954Y-48814500D01*
X91194342Y-48833956D01*
X91194341Y-48833956D01*
X91194339Y-48833957D01*
X91194337Y-48833958D01*
X91129243Y-48871540D01*
X91076081Y-48924702D01*
X91038499Y-48989796D01*
X91038498Y-48989798D01*
X91038497Y-48989800D01*
X91038497Y-48989801D01*
X91019041Y-49062413D01*
X91019041Y-49137587D01*
X91028120Y-49171470D01*
X91038498Y-49210201D01*
X91038499Y-49210203D01*
X91076081Y-49275297D01*
X91076082Y-49275298D01*
X91076084Y-49275301D01*
X91098458Y-49297675D01*
X91120132Y-49350000D01*
X91098458Y-49402324D01*
X91076084Y-49424699D01*
X91076081Y-49424702D01*
X91038499Y-49489796D01*
X91038498Y-49489798D01*
X91038497Y-49489800D01*
X91038497Y-49489801D01*
X91019041Y-49562413D01*
X91019041Y-49637587D01*
X91032954Y-49689511D01*
X91038498Y-49710201D01*
X91038499Y-49710203D01*
X91076081Y-49775297D01*
X91076082Y-49775298D01*
X91076084Y-49775301D01*
X91098458Y-49797675D01*
X91120132Y-49850000D01*
X91098458Y-49902324D01*
X91085531Y-49915252D01*
X91076081Y-49924702D01*
X91038497Y-49989799D01*
X91038495Y-49989804D01*
X91025230Y-50039312D01*
X91006078Y-50072485D01*
X90491757Y-50586806D01*
X90491751Y-50586812D01*
X90489433Y-50589131D01*
X90489432Y-50589132D01*
X90424591Y-50653973D01*
X90418160Y-50669500D01*
X90413824Y-50679965D01*
X90413822Y-50679969D01*
X90386710Y-50745424D01*
X90385530Y-50744935D01*
X90369622Y-50774697D01*
X90339527Y-50804791D01*
X90339527Y-50804793D01*
X90338583Y-50806428D01*
X90337827Y-50807007D01*
X90336573Y-50808642D01*
X90336135Y-50808305D01*
X90293647Y-50840903D01*
X90237495Y-50833506D01*
X90203020Y-50788570D01*
X90200500Y-50769423D01*
X90200500Y-46155850D01*
X90222174Y-46103524D01*
X90274500Y-46081850D01*
X90293653Y-46084372D01*
X90330187Y-46094160D01*
X90353853Y-46100502D01*
X90353854Y-46100503D01*
X90353856Y-46100503D01*
X90446146Y-46100503D01*
X90446146Y-46100502D01*
X90535288Y-46076617D01*
X90615212Y-46030472D01*
X90680469Y-45965215D01*
X90726614Y-45885291D01*
X90750499Y-45796149D01*
X90750500Y-45796149D01*
X90750500Y-45703857D01*
X90750499Y-45703856D01*
X90750064Y-45702234D01*
X90726614Y-45614715D01*
X90709799Y-45585591D01*
X90680471Y-45534794D01*
X90680470Y-45534793D01*
X90680469Y-45534791D01*
X90615212Y-45469534D01*
X90615209Y-45469532D01*
X90615208Y-45469531D01*
X90535289Y-45423389D01*
X90535284Y-45423387D01*
X90446146Y-45399503D01*
X90446144Y-45399503D01*
X90353856Y-45399503D01*
X90293652Y-45415634D01*
X90237499Y-45408241D01*
X90203021Y-45363307D01*
X90200500Y-45344155D01*
X90200500Y-44009790D01*
X90222174Y-43957464D01*
X90274500Y-43935790D01*
X90304387Y-43942094D01*
X90362338Y-43967682D01*
X90386627Y-43970500D01*
X90813372Y-43970499D01*
X90837662Y-43967682D01*
X90937016Y-43923813D01*
X91013813Y-43847016D01*
X91013813Y-43847014D01*
X91013815Y-43847013D01*
X91017688Y-43841360D01*
X91019797Y-43842804D01*
X91053623Y-43810500D01*
X91080362Y-43805500D01*
X91350500Y-43805500D01*
X91402826Y-43827174D01*
X91424500Y-43879500D01*
X91424500Y-43989820D01*
X91430410Y-44019528D01*
X91433233Y-44033722D01*
X91460606Y-44074690D01*
X91466496Y-44083504D01*
X91516278Y-44116767D01*
X91560180Y-44125500D01*
X91560181Y-44125500D01*
X92489819Y-44125500D01*
X92489820Y-44125500D01*
X92533722Y-44116767D01*
X92583504Y-44083504D01*
X92616767Y-44033722D01*
X92625500Y-43989820D01*
X92625500Y-43400185D01*
X92647174Y-43347859D01*
X92699500Y-43326185D01*
X92736501Y-43336100D01*
X92754708Y-43346612D01*
X92754710Y-43346612D01*
X92754712Y-43346614D01*
X92754713Y-43346614D01*
X92754715Y-43346615D01*
X92759358Y-43347859D01*
X92843853Y-43370499D01*
X92843854Y-43370500D01*
X92843856Y-43370500D01*
X92936146Y-43370500D01*
X92936146Y-43370499D01*
X93025288Y-43346614D01*
X93105212Y-43300469D01*
X93170469Y-43235212D01*
X93216614Y-43155288D01*
X93240499Y-43066146D01*
X93240500Y-43066146D01*
X93240500Y-42973854D01*
X93240499Y-42973853D01*
X93223109Y-42908951D01*
X93230501Y-42852798D01*
X93275434Y-42818320D01*
X93294587Y-42815798D01*
X93785231Y-42815798D01*
X93785239Y-42815799D01*
X93793851Y-42815799D01*
X93885551Y-42815799D01*
X93935177Y-42795242D01*
X93970269Y-42780707D01*
X94035110Y-42715866D01*
X94035110Y-42715865D01*
X94045515Y-42705460D01*
X94045517Y-42705457D01*
X94145158Y-42605816D01*
X94145162Y-42605813D01*
X94161923Y-42589053D01*
X94214249Y-42567379D01*
X94266575Y-42589053D01*
G37*
%TD.AperFunction*%
%TA.AperFunction,Conductor*%
G36*
X94607028Y-54943581D02*
G01*
X94914011Y-55250564D01*
X94935685Y-55302890D01*
X94935685Y-55561500D01*
X94914011Y-55613826D01*
X94891576Y-55629194D01*
X94847357Y-55648719D01*
X94768577Y-55727499D01*
X94723576Y-55829418D01*
X94720685Y-55854340D01*
X94720685Y-56288318D01*
X94722037Y-56299969D01*
X94706535Y-56354443D01*
X94676848Y-56376860D01*
X94642438Y-56391112D01*
X94642436Y-56391114D01*
X94577595Y-56455955D01*
X94577594Y-56455956D01*
X94557435Y-56476116D01*
X94554726Y-56478825D01*
X94502401Y-56500500D01*
X94292963Y-56500500D01*
X94240637Y-56478826D01*
X94218963Y-56426500D01*
X94218963Y-56388505D01*
X94217854Y-56382932D01*
X94210230Y-56344603D01*
X94176967Y-56294821D01*
X94167234Y-56288318D01*
X94160447Y-56283782D01*
X94127185Y-56261558D01*
X94094050Y-56254966D01*
X94046959Y-56223501D01*
X94035910Y-56167952D01*
X94067376Y-56120860D01*
X94108487Y-56108389D01*
X94225067Y-56108389D01*
X94250194Y-56105475D01*
X94352968Y-56060096D01*
X94432409Y-55980655D01*
X94477788Y-55877881D01*
X94480703Y-55852755D01*
X94480702Y-54995906D01*
X94502376Y-54943581D01*
X94554702Y-54921907D01*
X94607028Y-54943581D01*
G37*
%TD.AperFunction*%
%TA.AperFunction,Conductor*%
G36*
X103356826Y-50032802D02*
G01*
X103803126Y-50479102D01*
X103824800Y-50531428D01*
X103824800Y-51159447D01*
X103824799Y-51159450D01*
X103824799Y-51181808D01*
X103824799Y-51205987D01*
X103817658Y-51223226D01*
X103803125Y-51258312D01*
X103803124Y-51258312D01*
X103803124Y-51258313D01*
X103773840Y-51270442D01*
X103750799Y-51279986D01*
X103750798Y-51279985D01*
X103750798Y-51279986D01*
X103750797Y-51279985D01*
X103731647Y-51277465D01*
X103652157Y-51256166D01*
X103559869Y-51256166D01*
X103559867Y-51256166D01*
X103470728Y-51280050D01*
X103470723Y-51280052D01*
X103390804Y-51326194D01*
X103390801Y-51326196D01*
X103390801Y-51326197D01*
X103356824Y-51360173D01*
X103304500Y-51381847D01*
X103252174Y-51360173D01*
X103230500Y-51307847D01*
X103230500Y-50085128D01*
X103252174Y-50032802D01*
X103304500Y-50011128D01*
X103356826Y-50032802D01*
G37*
%TD.AperFunction*%
%TA.AperFunction,Conductor*%
G36*
X105066686Y-49285808D02*
G01*
X105073126Y-49292248D01*
X105094800Y-49344574D01*
X105094800Y-50436000D01*
X105073126Y-50488326D01*
X105020800Y-50510000D01*
X104630000Y-50510000D01*
X104630000Y-51161800D01*
X104608326Y-51214126D01*
X104573691Y-51233654D01*
X104564975Y-51235800D01*
X104558355Y-51235800D01*
X104483355Y-51255895D01*
X104482557Y-51256092D01*
X104455255Y-51251929D01*
X104427865Y-51248323D01*
X104426939Y-51247612D01*
X104426567Y-51247556D01*
X104426180Y-51247030D01*
X104412540Y-51236564D01*
X104307474Y-51131498D01*
X104285800Y-51079172D01*
X104285800Y-50459770D01*
X104285801Y-50459761D01*
X104285801Y-50359451D01*
X104250709Y-50274732D01*
X104017555Y-50041578D01*
X103995881Y-49989252D01*
X104017555Y-49936926D01*
X104069881Y-49915252D01*
X104084314Y-49916673D01*
X104180470Y-49935800D01*
X104180472Y-49935800D01*
X104317529Y-49935800D01*
X104317530Y-49935800D01*
X104451957Y-49909061D01*
X104578585Y-49856610D01*
X104692547Y-49780463D01*
X104789463Y-49683547D01*
X104865610Y-49569585D01*
X104918061Y-49442957D01*
X104941783Y-49323696D01*
X104973247Y-49276606D01*
X105028796Y-49265556D01*
X105066686Y-49285808D01*
G37*
%TD.AperFunction*%
%TA.AperFunction,Conductor*%
G36*
X106966612Y-49599511D02*
G01*
X106998078Y-49646603D01*
X106999500Y-49661040D01*
X106999500Y-50740022D01*
X106977826Y-50792348D01*
X106925500Y-50814022D01*
X106888500Y-50804108D01*
X106835289Y-50773386D01*
X106835284Y-50773384D01*
X106746146Y-50749500D01*
X106746144Y-50749500D01*
X106653856Y-50749500D01*
X106653854Y-50749500D01*
X106564715Y-50773384D01*
X106564709Y-50773387D01*
X106516082Y-50801462D01*
X106459929Y-50808854D01*
X106414996Y-50774376D01*
X106407604Y-50718223D01*
X106409753Y-50710203D01*
X106444199Y-50581647D01*
X106444200Y-50581647D01*
X106444200Y-50438353D01*
X106444199Y-50438352D01*
X106442368Y-50431520D01*
X106407114Y-50299947D01*
X106335468Y-50175853D01*
X106234147Y-50074532D01*
X106234144Y-50074530D01*
X106234143Y-50074529D01*
X106233027Y-50073885D01*
X106232630Y-50073368D01*
X106230296Y-50071577D01*
X106230776Y-50070951D01*
X106198549Y-50028952D01*
X106205943Y-49972799D01*
X106250876Y-49938321D01*
X106270028Y-49935800D01*
X106349529Y-49935800D01*
X106349530Y-49935800D01*
X106483957Y-49909061D01*
X106610585Y-49856610D01*
X106724547Y-49780463D01*
X106821463Y-49683547D01*
X106863972Y-49619926D01*
X106911063Y-49588462D01*
X106966612Y-49599511D01*
G37*
%TD.AperFunction*%
%TA.AperFunction,Conductor*%
G36*
X106977826Y-39624865D02*
G01*
X106999500Y-39677191D01*
X106999500Y-42194871D01*
X106977826Y-42247197D01*
X106925500Y-42268871D01*
X106873174Y-42247197D01*
X106847174Y-42221197D01*
X106825500Y-42168871D01*
X106825500Y-41395084D01*
X106823863Y-41386857D01*
X106816767Y-41351182D01*
X106783504Y-41301400D01*
X106782067Y-41300440D01*
X106733722Y-41268137D01*
X106689820Y-41259404D01*
X106689819Y-41259404D01*
X106188852Y-41259404D01*
X106136526Y-41237730D01*
X106117374Y-41204557D01*
X106110675Y-41179557D01*
X106110673Y-41179552D01*
X106064531Y-41099633D01*
X106064530Y-41099632D01*
X106064529Y-41099630D01*
X105999272Y-41034373D01*
X105999269Y-41034371D01*
X105999268Y-41034370D01*
X105919349Y-40988228D01*
X105919344Y-40988226D01*
X105830206Y-40964342D01*
X105830204Y-40964342D01*
X105737916Y-40964342D01*
X105737914Y-40964342D01*
X105648775Y-40988226D01*
X105648770Y-40988228D01*
X105568851Y-41034370D01*
X105503588Y-41099633D01*
X105457446Y-41179552D01*
X105457444Y-41179557D01*
X105433560Y-41268695D01*
X105433560Y-41360988D01*
X105457444Y-41450126D01*
X105457446Y-41450131D01*
X105503588Y-41530050D01*
X105503589Y-41530051D01*
X105503591Y-41530054D01*
X105568848Y-41595311D01*
X105568850Y-41595312D01*
X105568851Y-41595313D01*
X105593619Y-41609613D01*
X105648772Y-41641456D01*
X105648773Y-41641456D01*
X105648775Y-41641457D01*
X105686772Y-41651638D01*
X105737913Y-41665341D01*
X105737914Y-41665342D01*
X105737916Y-41665342D01*
X105830205Y-41665342D01*
X105846395Y-41661003D01*
X105881347Y-41651638D01*
X105937499Y-41659030D01*
X105971978Y-41703962D01*
X105974500Y-41723116D01*
X105974500Y-42374724D01*
X105977517Y-42389889D01*
X105983233Y-42418626D01*
X106011843Y-42461445D01*
X106016496Y-42468408D01*
X106066278Y-42501671D01*
X106110180Y-42510404D01*
X106429977Y-42510404D01*
X106482303Y-42532078D01*
X106503977Y-42584404D01*
X106503977Y-43335404D01*
X106482303Y-43387730D01*
X106429977Y-43409404D01*
X106110180Y-43409404D01*
X106088229Y-43413770D01*
X106066277Y-43418137D01*
X106016496Y-43451399D01*
X106016495Y-43451400D01*
X105983233Y-43501181D01*
X105974500Y-43545084D01*
X105974500Y-43850810D01*
X105971979Y-43869962D01*
X105957550Y-43923812D01*
X105949500Y-43953856D01*
X105949500Y-44046144D01*
X105971979Y-44130036D01*
X105974500Y-44149189D01*
X105974500Y-44524724D01*
X105983233Y-44568626D01*
X106016496Y-44618408D01*
X106066278Y-44651671D01*
X106110180Y-44660404D01*
X106110181Y-44660404D01*
X106689819Y-44660404D01*
X106689820Y-44660404D01*
X106733722Y-44651671D01*
X106783504Y-44618408D01*
X106816767Y-44568626D01*
X106825500Y-44524724D01*
X106825500Y-43831127D01*
X106847174Y-43778801D01*
X106854634Y-43771341D01*
X106854636Y-43771340D01*
X106854639Y-43771337D01*
X106873174Y-43752803D01*
X106925500Y-43731129D01*
X106977826Y-43752803D01*
X106999500Y-43805129D01*
X106999500Y-48818959D01*
X106977826Y-48871285D01*
X106925500Y-48892959D01*
X106873174Y-48871285D01*
X106863971Y-48860071D01*
X106863295Y-48859060D01*
X106821463Y-48796453D01*
X106724547Y-48699537D01*
X106610585Y-48623390D01*
X106610581Y-48623388D01*
X106610579Y-48623387D01*
X106610580Y-48623387D01*
X106483961Y-48570940D01*
X106483950Y-48570937D01*
X106358951Y-48546074D01*
X106349530Y-48544200D01*
X106212470Y-48544200D01*
X106203049Y-48546074D01*
X106078049Y-48570937D01*
X106078038Y-48570940D01*
X105951419Y-48623387D01*
X105837453Y-48699536D01*
X105837452Y-48699538D01*
X105740538Y-48796452D01*
X105740536Y-48796453D01*
X105664387Y-48910419D01*
X105612711Y-49035179D01*
X105602303Y-49045586D01*
X105596671Y-49059186D01*
X105583071Y-49064819D01*
X105572663Y-49075228D01*
X105557944Y-49075228D01*
X105544345Y-49080861D01*
X105530745Y-49075228D01*
X105516026Y-49075228D01*
X105492019Y-49059188D01*
X105478417Y-49045586D01*
X105455868Y-49023037D01*
X105455866Y-49023036D01*
X104612671Y-48179841D01*
X104612671Y-48179840D01*
X104577733Y-48144902D01*
X104537422Y-48104591D01*
X104537420Y-48104590D01*
X104537418Y-48104589D01*
X104502330Y-48090055D01*
X104502330Y-48090054D01*
X104452704Y-48069499D01*
X104361004Y-48069499D01*
X104352392Y-48069499D01*
X104352384Y-48069500D01*
X104245833Y-48069500D01*
X104193508Y-48047827D01*
X104182102Y-48036421D01*
X104165212Y-48019531D01*
X104165209Y-48019529D01*
X104165208Y-48019528D01*
X104085289Y-47973386D01*
X104085284Y-47973384D01*
X103996144Y-47949499D01*
X103994092Y-47949229D01*
X103993189Y-47948707D01*
X103991459Y-47948244D01*
X103991583Y-47947780D01*
X103945046Y-47920905D01*
X103930393Y-47866196D01*
X103948850Y-47828778D01*
X103948331Y-47828423D01*
X103950812Y-47824801D01*
X103951437Y-47823533D01*
X103952206Y-47822765D01*
X103997585Y-47719991D01*
X104000500Y-47694865D01*
X104000499Y-47305136D01*
X103997912Y-47282832D01*
X104013413Y-47228359D01*
X104062893Y-47200801D01*
X104117368Y-47216302D01*
X104123745Y-47221982D01*
X104278109Y-47376346D01*
X104278112Y-47376350D01*
X104282330Y-47380568D01*
X104347171Y-47445409D01*
X104394981Y-47465212D01*
X104431889Y-47480500D01*
X104431890Y-47480500D01*
X104864167Y-47480500D01*
X104916492Y-47502173D01*
X104944788Y-47530469D01*
X104944790Y-47530470D01*
X104944791Y-47530471D01*
X104979714Y-47550634D01*
X105024712Y-47576614D01*
X105024713Y-47576614D01*
X105024715Y-47576615D01*
X105033176Y-47578882D01*
X105113853Y-47600499D01*
X105113854Y-47600500D01*
X105113856Y-47600500D01*
X105206146Y-47600500D01*
X105206146Y-47600499D01*
X105295288Y-47576614D01*
X105375212Y-47530469D01*
X105440469Y-47465212D01*
X105486614Y-47385288D01*
X105510499Y-47296146D01*
X105510500Y-47296146D01*
X105510500Y-47203854D01*
X105510499Y-47203853D01*
X105486615Y-47114715D01*
X105486613Y-47114710D01*
X105440471Y-47034791D01*
X105440470Y-47034790D01*
X105440469Y-47034788D01*
X105375212Y-46969531D01*
X105375209Y-46969529D01*
X105375208Y-46969528D01*
X105295289Y-46923386D01*
X105295284Y-46923384D01*
X105206146Y-46899500D01*
X105206144Y-46899500D01*
X105113856Y-46899500D01*
X105113854Y-46899500D01*
X105024715Y-46923384D01*
X105024710Y-46923386D01*
X104944791Y-46969528D01*
X104916492Y-46997827D01*
X104864167Y-47019500D01*
X104603867Y-47019500D01*
X104551541Y-46997826D01*
X104204556Y-46650841D01*
X104204556Y-46650840D01*
X104129308Y-46575592D01*
X104129304Y-46575589D01*
X104093043Y-46560570D01*
X104044589Y-46540499D01*
X103952889Y-46540499D01*
X103944277Y-46540499D01*
X103944269Y-46540500D01*
X103886389Y-46540500D01*
X103834063Y-46518826D01*
X103812389Y-46466500D01*
X103834063Y-46414174D01*
X103989642Y-46258595D01*
X104151159Y-46097078D01*
X104151162Y-46097076D01*
X104161567Y-46086671D01*
X104161568Y-46086671D01*
X104226409Y-46021830D01*
X104246951Y-45972237D01*
X104261501Y-45937111D01*
X104261501Y-45845412D01*
X104261501Y-45839454D01*
X104261500Y-45839440D01*
X104261500Y-45286630D01*
X104989500Y-45286630D01*
X104989500Y-45713372D01*
X104992317Y-45737659D01*
X104992317Y-45737661D01*
X104992318Y-45737662D01*
X105036187Y-45837016D01*
X105112984Y-45913813D01*
X105212338Y-45957682D01*
X105236627Y-45960500D01*
X105303870Y-45960499D01*
X105356196Y-45982172D01*
X105356197Y-45982173D01*
X105919280Y-46545257D01*
X105940954Y-46597583D01*
X105919280Y-46649909D01*
X105886107Y-46669061D01*
X105854051Y-46677650D01*
X105854046Y-46677652D01*
X105774127Y-46723794D01*
X105708864Y-46789057D01*
X105662722Y-46868976D01*
X105662720Y-46868981D01*
X105638836Y-46958119D01*
X105638836Y-47050412D01*
X105662720Y-47139550D01*
X105662722Y-47139555D01*
X105708864Y-47219474D01*
X105708865Y-47219475D01*
X105708867Y-47219478D01*
X105774124Y-47284735D01*
X105774126Y-47284736D01*
X105774127Y-47284737D01*
X105793888Y-47296146D01*
X105854048Y-47330880D01*
X105854049Y-47330880D01*
X105854051Y-47330881D01*
X105870999Y-47335422D01*
X105943189Y-47354765D01*
X105943190Y-47354766D01*
X105943192Y-47354766D01*
X106035482Y-47354766D01*
X106035482Y-47354765D01*
X106124624Y-47330880D01*
X106204548Y-47284735D01*
X106269805Y-47219478D01*
X106300562Y-47166206D01*
X106345494Y-47131729D01*
X106383800Y-47131729D01*
X106419592Y-47141319D01*
X106453853Y-47150499D01*
X106453854Y-47150500D01*
X106453856Y-47150500D01*
X106546146Y-47150500D01*
X106546146Y-47150499D01*
X106635288Y-47126614D01*
X106715212Y-47080469D01*
X106780469Y-47015212D01*
X106826614Y-46935288D01*
X106850499Y-46846146D01*
X106850500Y-46846146D01*
X106850500Y-46753854D01*
X106850499Y-46753853D01*
X106826615Y-46664715D01*
X106826613Y-46664710D01*
X106780471Y-46584791D01*
X106780470Y-46584790D01*
X106780469Y-46584788D01*
X106715212Y-46519531D01*
X106715209Y-46519529D01*
X106715208Y-46519528D01*
X106635289Y-46473386D01*
X106635284Y-46473384D01*
X106546146Y-46449500D01*
X106546144Y-46449500D01*
X106506129Y-46449500D01*
X106453803Y-46427826D01*
X106160146Y-46134169D01*
X105857782Y-45831806D01*
X105836109Y-45779481D01*
X105842416Y-45749588D01*
X105847681Y-45737665D01*
X105847681Y-45737664D01*
X105847682Y-45737662D01*
X105850500Y-45713373D01*
X105850499Y-45286628D01*
X105847682Y-45262338D01*
X105803813Y-45162984D01*
X105727016Y-45086187D01*
X105627662Y-45042318D01*
X105627663Y-45042318D01*
X105622804Y-45041754D01*
X105603373Y-45039500D01*
X105603369Y-45039500D01*
X105236627Y-45039500D01*
X105212340Y-45042317D01*
X105112983Y-45086187D01*
X105036187Y-45162983D01*
X104992318Y-45262337D01*
X104989500Y-45286630D01*
X104261500Y-45286630D01*
X104261500Y-44671063D01*
X104280508Y-44625172D01*
X104279454Y-44624468D01*
X104282995Y-44619167D01*
X104283174Y-44618737D01*
X104283498Y-44618411D01*
X104283504Y-44618408D01*
X104316767Y-44568626D01*
X104325500Y-44524724D01*
X104325500Y-43683404D01*
X104347174Y-43631078D01*
X104399500Y-43609404D01*
X104650500Y-43609404D01*
X104702826Y-43631078D01*
X104724500Y-43683404D01*
X104724500Y-44524724D01*
X104733233Y-44568626D01*
X104766496Y-44618408D01*
X104816278Y-44651671D01*
X104860180Y-44660404D01*
X104860181Y-44660404D01*
X105439819Y-44660404D01*
X105439820Y-44660404D01*
X105483722Y-44651671D01*
X105533504Y-44618408D01*
X105566767Y-44568626D01*
X105575500Y-44524724D01*
X105575500Y-43545084D01*
X105566767Y-43501182D01*
X105566763Y-43501177D01*
X105566460Y-43500443D01*
X105566459Y-43499639D01*
X105565345Y-43494034D01*
X105566459Y-43493812D01*
X105566459Y-43443806D01*
X105606507Y-43403756D01*
X105639782Y-43399377D01*
X105639782Y-43398776D01*
X105644352Y-43398776D01*
X105644496Y-43398757D01*
X105644624Y-43398773D01*
X105644632Y-43398776D01*
X105644640Y-43398776D01*
X105736922Y-43398776D01*
X105736922Y-43398775D01*
X105826064Y-43374890D01*
X105905988Y-43328745D01*
X105971245Y-43263488D01*
X106017390Y-43183564D01*
X106041275Y-43094422D01*
X106041276Y-43094422D01*
X106041276Y-43002130D01*
X106041275Y-43002129D01*
X106034401Y-42976476D01*
X106019085Y-42919314D01*
X106017391Y-42912991D01*
X106017389Y-42912986D01*
X105971247Y-42833067D01*
X105971246Y-42833066D01*
X105971245Y-42833064D01*
X105905988Y-42767807D01*
X105905985Y-42767805D01*
X105905984Y-42767804D01*
X105826065Y-42721662D01*
X105826060Y-42721660D01*
X105736922Y-42697776D01*
X105736920Y-42697776D01*
X105644632Y-42697776D01*
X105644631Y-42697776D01*
X105613414Y-42706140D01*
X105557262Y-42698746D01*
X105530410Y-42668120D01*
X105529039Y-42668912D01*
X105480471Y-42584791D01*
X105480470Y-42584790D01*
X105480469Y-42584788D01*
X105415212Y-42519531D01*
X105415209Y-42519529D01*
X105415208Y-42519528D01*
X105335289Y-42473386D01*
X105335284Y-42473384D01*
X105246146Y-42449500D01*
X105246144Y-42449500D01*
X105153856Y-42449500D01*
X105153854Y-42449500D01*
X105064715Y-42473384D01*
X105064710Y-42473386D01*
X104984791Y-42519528D01*
X104956492Y-42547827D01*
X104904167Y-42569500D01*
X103104401Y-42569500D01*
X103052075Y-42547826D01*
X103030401Y-42495500D01*
X103042872Y-42454388D01*
X103052300Y-42440277D01*
X103066767Y-42418626D01*
X103075500Y-42374724D01*
X103075500Y-41395084D01*
X103066767Y-41351182D01*
X103033504Y-41301400D01*
X103033503Y-41301399D01*
X103033501Y-41301397D01*
X103032884Y-41300985D01*
X103032471Y-41300367D01*
X103028351Y-41296247D01*
X103029170Y-41295427D01*
X103001421Y-41253891D01*
X103000000Y-41239459D01*
X103000000Y-40924500D01*
X103013624Y-40891608D01*
X103021673Y-40872175D01*
X103021673Y-40872174D01*
X103021674Y-40872174D01*
X103073999Y-40850500D01*
X103146144Y-40850500D01*
X103146144Y-40850499D01*
X103160865Y-40850499D01*
X103569863Y-40850499D01*
X103569864Y-40850499D01*
X103594991Y-40847585D01*
X103678471Y-40810724D01*
X103735091Y-40809417D01*
X103776053Y-40848528D01*
X103797794Y-40897766D01*
X103877235Y-40977207D01*
X103980009Y-41022586D01*
X104005135Y-41025501D01*
X104394864Y-41025500D01*
X104419991Y-41022586D01*
X104522765Y-40977207D01*
X104602206Y-40897766D01*
X104623946Y-40848528D01*
X104664907Y-40809417D01*
X104721528Y-40810724D01*
X104805009Y-40847585D01*
X104830135Y-40850500D01*
X105569864Y-40850499D01*
X105594991Y-40847585D01*
X105697765Y-40802206D01*
X105777206Y-40722765D01*
X105822585Y-40619991D01*
X105825500Y-40594865D01*
X105825499Y-40308336D01*
X105847172Y-40256012D01*
X106357039Y-39746146D01*
X106409365Y-39724472D01*
X106696609Y-39724472D01*
X106720899Y-39721655D01*
X106820253Y-39677786D01*
X106873174Y-39624865D01*
X106925500Y-39603191D01*
X106977826Y-39624865D01*
G37*
%TD.AperFunction*%
%TA.AperFunction,Conductor*%
G36*
X100515325Y-43521174D02*
G01*
X100536999Y-43573500D01*
X100536999Y-44669863D01*
X100539913Y-44694986D01*
X100539914Y-44694992D01*
X100542567Y-44701000D01*
X100585293Y-44797765D01*
X100664734Y-44877206D01*
X100767508Y-44922585D01*
X100792634Y-44925500D01*
X101182363Y-44925499D01*
X101207490Y-44922585D01*
X101310264Y-44877206D01*
X101389705Y-44797765D01*
X101435084Y-44694991D01*
X101437999Y-44669865D01*
X101437998Y-44018627D01*
X101459672Y-43966302D01*
X101794897Y-43631078D01*
X101847223Y-43609404D01*
X102016264Y-43609404D01*
X102068590Y-43631078D01*
X102090264Y-43683404D01*
X102068590Y-43735728D01*
X102043387Y-43760932D01*
X102019528Y-43784791D01*
X101973386Y-43864710D01*
X101973384Y-43864715D01*
X101949500Y-43953853D01*
X101949500Y-44046146D01*
X101973384Y-44135284D01*
X101973386Y-44135289D01*
X102019528Y-44215208D01*
X102019529Y-44215209D01*
X102019531Y-44215212D01*
X102084788Y-44280469D01*
X102084790Y-44280470D01*
X102084791Y-44280471D01*
X102164710Y-44326613D01*
X102164712Y-44326614D01*
X102169651Y-44327937D01*
X102214585Y-44362414D01*
X102224500Y-44399416D01*
X102224500Y-44524724D01*
X102233233Y-44568626D01*
X102266496Y-44618408D01*
X102316278Y-44651671D01*
X102360180Y-44660404D01*
X102360181Y-44660404D01*
X102939819Y-44660404D01*
X102939820Y-44660404D01*
X102983722Y-44651671D01*
X103033504Y-44618408D01*
X103066767Y-44568626D01*
X103075500Y-44524724D01*
X103075500Y-43683404D01*
X103097174Y-43631078D01*
X103149500Y-43609404D01*
X103400500Y-43609404D01*
X103452826Y-43631078D01*
X103474500Y-43683404D01*
X103474500Y-44524724D01*
X103483233Y-44568626D01*
X103516496Y-44618408D01*
X103566278Y-44651671D01*
X103610180Y-44660404D01*
X103726500Y-44660404D01*
X103778826Y-44682078D01*
X103800500Y-44734404D01*
X103800500Y-45075500D01*
X103778826Y-45127826D01*
X103726500Y-45149500D01*
X102480136Y-45149500D01*
X102455013Y-45152414D01*
X102455007Y-45152415D01*
X102352234Y-45197794D01*
X102272794Y-45277234D01*
X102227414Y-45380011D01*
X102224500Y-45405135D01*
X102224500Y-45794863D01*
X102227414Y-45819986D01*
X102227415Y-45819992D01*
X102256246Y-45885287D01*
X102272794Y-45922765D01*
X102352235Y-46002206D01*
X102455009Y-46047585D01*
X102480135Y-46050500D01*
X102811154Y-46050499D01*
X102863480Y-46072173D01*
X102885154Y-46124499D01*
X102875243Y-46161493D01*
X102873389Y-46164704D01*
X102873384Y-46164715D01*
X102849500Y-46253853D01*
X102849500Y-46346146D01*
X102873386Y-46435291D01*
X102874585Y-46438185D01*
X102874584Y-46439763D01*
X102874641Y-46439973D01*
X102874584Y-46439988D01*
X102874584Y-46452901D01*
X102880217Y-46466500D01*
X102874583Y-46480100D01*
X102874583Y-46494822D01*
X102864175Y-46505228D01*
X102858543Y-46518826D01*
X102844941Y-46524459D01*
X102834532Y-46534868D01*
X102806217Y-46540500D01*
X102674470Y-46540500D01*
X102674462Y-46540499D01*
X102665850Y-46540499D01*
X102574151Y-46540499D01*
X102531790Y-46558044D01*
X102531791Y-46558045D01*
X102489433Y-46575590D01*
X102424590Y-46640433D01*
X102264932Y-46800092D01*
X101446652Y-47618372D01*
X101394326Y-47640046D01*
X101173897Y-47640046D01*
X101121571Y-47618372D01*
X101099897Y-47566046D01*
X101102419Y-47546893D01*
X101114109Y-47503264D01*
X101122174Y-47473164D01*
X101122175Y-47473164D01*
X101122175Y-47380872D01*
X101122174Y-47380871D01*
X101098804Y-47293652D01*
X101106196Y-47237499D01*
X101151129Y-47203021D01*
X101170282Y-47200499D01*
X101182362Y-47200499D01*
X101182363Y-47200499D01*
X101207490Y-47197585D01*
X101310264Y-47152206D01*
X101389705Y-47072765D01*
X101435084Y-46969991D01*
X101437999Y-46944865D01*
X101437998Y-45830136D01*
X101435084Y-45805009D01*
X101389705Y-45702235D01*
X101310264Y-45622794D01*
X101207490Y-45577415D01*
X101207489Y-45577414D01*
X101207487Y-45577414D01*
X101186158Y-45574940D01*
X101182364Y-45574500D01*
X101182363Y-45574500D01*
X100792635Y-45574500D01*
X100767510Y-45577414D01*
X100758827Y-45581248D01*
X100702205Y-45582552D01*
X100676615Y-45565877D01*
X100071579Y-44960841D01*
X100071579Y-44960840D01*
X100036238Y-44925499D01*
X99996330Y-44885591D01*
X99996328Y-44885590D01*
X99996326Y-44885589D01*
X99961238Y-44871055D01*
X99961238Y-44871054D01*
X99911612Y-44850499D01*
X99819912Y-44850499D01*
X99811300Y-44850499D01*
X99811292Y-44850500D01*
X99579989Y-44850500D01*
X99527663Y-44828826D01*
X99505989Y-44776500D01*
X99512294Y-44746610D01*
X99535086Y-44694991D01*
X99538001Y-44669865D01*
X99538000Y-43833864D01*
X99559674Y-43781539D01*
X99820040Y-43521174D01*
X99872366Y-43499500D01*
X100462999Y-43499500D01*
X100515325Y-43521174D01*
G37*
%TD.AperFunction*%
%TA.AperFunction,Conductor*%
G36*
X96844086Y-46285681D02*
G01*
X96851478Y-46303528D01*
X96873384Y-46385284D01*
X96873386Y-46385289D01*
X96919529Y-46465209D01*
X96919531Y-46465213D01*
X96926995Y-46472677D01*
X96948667Y-46525003D01*
X96926995Y-46577323D01*
X96919531Y-46584786D01*
X96919529Y-46584790D01*
X96873386Y-46664710D01*
X96873384Y-46664715D01*
X96849500Y-46753853D01*
X96849500Y-46846146D01*
X96873384Y-46935284D01*
X96873386Y-46935289D01*
X96919528Y-47015208D01*
X96919529Y-47015209D01*
X96919531Y-47015212D01*
X96937761Y-47033442D01*
X96959435Y-47085767D01*
X96937761Y-47138093D01*
X96885435Y-47159767D01*
X94536396Y-47159767D01*
X94484070Y-47138093D01*
X94021952Y-46675976D01*
X94021945Y-46675969D01*
X94018081Y-46672104D01*
X94018079Y-46672099D01*
X94006331Y-46656788D01*
X93964761Y-46584788D01*
X93962531Y-46580926D01*
X93962530Y-46580925D01*
X93962529Y-46580923D01*
X93897272Y-46515666D01*
X93890962Y-46512023D01*
X93869421Y-46499586D01*
X93834943Y-46454652D01*
X93842336Y-46398499D01*
X93887270Y-46364021D01*
X93906422Y-46361500D01*
X95094783Y-46361500D01*
X95103400Y-46361500D01*
X95103402Y-46361501D01*
X95166649Y-46361501D01*
X95185561Y-46369335D01*
X95218974Y-46383175D01*
X95238126Y-46416347D01*
X95243201Y-46435288D01*
X95247420Y-46451034D01*
X95293562Y-46530953D01*
X95293563Y-46530954D01*
X95293565Y-46530957D01*
X95358822Y-46596214D01*
X95358824Y-46596215D01*
X95358825Y-46596216D01*
X95366245Y-46600500D01*
X95438746Y-46642359D01*
X95438747Y-46642359D01*
X95438749Y-46642360D01*
X95470401Y-46650841D01*
X95527887Y-46666244D01*
X95527888Y-46666245D01*
X95527890Y-46666245D01*
X95620180Y-46666245D01*
X95620180Y-46666244D01*
X95709322Y-46642359D01*
X95789246Y-46596214D01*
X95854503Y-46530957D01*
X95900648Y-46451033D01*
X95908518Y-46421660D01*
X95942995Y-46376729D01*
X95999148Y-46369335D01*
X96044081Y-46403813D01*
X96044082Y-46403814D01*
X96079528Y-46465208D01*
X96079529Y-46465209D01*
X96079531Y-46465212D01*
X96144788Y-46530469D01*
X96144790Y-46530470D01*
X96144791Y-46530471D01*
X96222938Y-46575590D01*
X96224712Y-46576614D01*
X96224713Y-46576614D01*
X96224715Y-46576615D01*
X96255210Y-46584786D01*
X96313853Y-46600499D01*
X96313854Y-46600500D01*
X96313856Y-46600500D01*
X96406146Y-46600500D01*
X96406146Y-46600499D01*
X96495288Y-46576614D01*
X96575212Y-46530469D01*
X96640469Y-46465212D01*
X96686614Y-46385288D01*
X96689221Y-46375556D01*
X96708522Y-46303528D01*
X96743000Y-46258595D01*
X96799153Y-46251203D01*
X96844086Y-46285681D01*
G37*
%TD.AperFunction*%
%TA.AperFunction,Conductor*%
G36*
X100717827Y-41852174D02*
G01*
X100739501Y-41904500D01*
X100739501Y-41983372D01*
X100742317Y-42007659D01*
X100742317Y-42007661D01*
X100742318Y-42007662D01*
X100786187Y-42107016D01*
X100862984Y-42183813D01*
X100962338Y-42227682D01*
X100986627Y-42230500D01*
X101413372Y-42230499D01*
X101437662Y-42227682D01*
X101537016Y-42183813D01*
X101613813Y-42107016D01*
X101628121Y-42074610D01*
X101669083Y-42035497D01*
X101695816Y-42030500D01*
X101904167Y-42030500D01*
X101956492Y-42052173D01*
X101984788Y-42080469D01*
X101984790Y-42080470D01*
X101984791Y-42080471D01*
X102064710Y-42126613D01*
X102064712Y-42126614D01*
X102064713Y-42126614D01*
X102064715Y-42126615D01*
X102107724Y-42138139D01*
X102153856Y-42150500D01*
X102153861Y-42150500D01*
X102158663Y-42151133D01*
X102158319Y-42153739D01*
X102202826Y-42172174D01*
X102224500Y-42224500D01*
X102224500Y-42374724D01*
X102227517Y-42389889D01*
X102233233Y-42418626D01*
X102257128Y-42454388D01*
X102268177Y-42509937D01*
X102236711Y-42557029D01*
X102195599Y-42569500D01*
X101885039Y-42569500D01*
X101861565Y-42579223D01*
X101800323Y-42604589D01*
X101800321Y-42604591D01*
X101735480Y-42669432D01*
X101735479Y-42669433D01*
X101552115Y-42852798D01*
X101388087Y-43016826D01*
X101335761Y-43038500D01*
X99800708Y-43038500D01*
X99800700Y-43038499D01*
X99792088Y-43038499D01*
X99700389Y-43038499D01*
X99658028Y-43056044D01*
X99658029Y-43056045D01*
X99615671Y-43073590D01*
X99550828Y-43138433D01*
X99398383Y-43290877D01*
X99346057Y-43312551D01*
X99316166Y-43306245D01*
X99307490Y-43302414D01*
X99285662Y-43299882D01*
X99282366Y-43299500D01*
X99282365Y-43299500D01*
X98892637Y-43299500D01*
X98867514Y-43302414D01*
X98867508Y-43302415D01*
X98764735Y-43347794D01*
X98685295Y-43427234D01*
X98639915Y-43530011D01*
X98637001Y-43555135D01*
X98637001Y-44254767D01*
X98615327Y-44307093D01*
X98563001Y-44328767D01*
X98540087Y-44324212D01*
X98539973Y-44324641D01*
X98446146Y-44299500D01*
X98446144Y-44299500D01*
X98353856Y-44299500D01*
X98353854Y-44299500D01*
X98264715Y-44323384D01*
X98264710Y-44323386D01*
X98184790Y-44369528D01*
X98156103Y-44398215D01*
X98103777Y-44419887D01*
X98062667Y-44407416D01*
X97997740Y-44364034D01*
X97989596Y-44362414D01*
X97924674Y-44349500D01*
X97675326Y-44349500D01*
X97638936Y-44356738D01*
X97583387Y-44345688D01*
X97551922Y-44298596D01*
X97550500Y-44284160D01*
X97550500Y-44253854D01*
X97550499Y-44253853D01*
X97526615Y-44164715D01*
X97526613Y-44164710D01*
X97480471Y-44084791D01*
X97480470Y-44084790D01*
X97480469Y-44084788D01*
X97415212Y-44019531D01*
X97415209Y-44019529D01*
X97415208Y-44019528D01*
X97335289Y-43973386D01*
X97335284Y-43973384D01*
X97246146Y-43949500D01*
X97246144Y-43949500D01*
X97153856Y-43949500D01*
X97153854Y-43949500D01*
X97064715Y-43973384D01*
X97064710Y-43973386D01*
X96984791Y-44019528D01*
X96919528Y-44084791D01*
X96873386Y-44164710D01*
X96873384Y-44164715D01*
X96849500Y-44253853D01*
X96849500Y-44346146D01*
X96873384Y-44435284D01*
X96873386Y-44435289D01*
X96919528Y-44515208D01*
X96919529Y-44515209D01*
X96919531Y-44515212D01*
X96978994Y-44574675D01*
X97000668Y-44627000D01*
X96978994Y-44679326D01*
X96926668Y-44701000D01*
X96842650Y-44701000D01*
X96817836Y-44711278D01*
X96757934Y-44736089D01*
X96757932Y-44736091D01*
X96693091Y-44800932D01*
X96693090Y-44800933D01*
X96439768Y-45054256D01*
X96196198Y-45297826D01*
X96143872Y-45319500D01*
X95359513Y-45319500D01*
X95344371Y-45313228D01*
X95328001Y-45312455D01*
X95320317Y-45303264D01*
X95307187Y-45297826D01*
X95289886Y-45270562D01*
X95288834Y-45267642D01*
X95266614Y-45184712D01*
X95246353Y-45149620D01*
X95244116Y-45143404D01*
X95245163Y-45121216D01*
X95242264Y-45099190D01*
X95246462Y-45093718D01*
X95246788Y-45086830D01*
X95263217Y-45071882D01*
X95276742Y-45054256D01*
X95285785Y-45050490D01*
X95285640Y-45050161D01*
X95288460Y-45048915D01*
X95288681Y-45048715D01*
X95288892Y-45048724D01*
X95290727Y-45047913D01*
X95290732Y-45047913D01*
X95390086Y-45004044D01*
X95466883Y-44927247D01*
X95510752Y-44827893D01*
X95513570Y-44803604D01*
X95513569Y-44376859D01*
X95510752Y-44352569D01*
X95466883Y-44253215D01*
X95390086Y-44176418D01*
X95290732Y-44132549D01*
X95290733Y-44132549D01*
X95285874Y-44131985D01*
X95266443Y-44129731D01*
X95266439Y-44129731D01*
X94899697Y-44129731D01*
X94875409Y-44132548D01*
X94875407Y-44132549D01*
X94853139Y-44142381D01*
X94837607Y-44142739D01*
X94823254Y-44148686D01*
X94810411Y-44143367D01*
X94796517Y-44143688D01*
X94785281Y-44132959D01*
X94770927Y-44127015D01*
X94765607Y-44114173D01*
X94755555Y-44104575D01*
X94749250Y-44074690D01*
X94749250Y-44061745D01*
X94749249Y-44061742D01*
X94749249Y-43524486D01*
X94770923Y-43472160D01*
X94823249Y-43450486D01*
X94837680Y-43451907D01*
X94905682Y-43465434D01*
X94905684Y-43465434D01*
X95155028Y-43465434D01*
X95155030Y-43465434D01*
X95228096Y-43450900D01*
X95310957Y-43395535D01*
X95326245Y-43372654D01*
X95373335Y-43341187D01*
X95428884Y-43352235D01*
X95449302Y-43372652D01*
X95456781Y-43383845D01*
X95456782Y-43383846D01*
X95456783Y-43383847D01*
X95539644Y-43439212D01*
X95612710Y-43453746D01*
X95612712Y-43453746D01*
X95862056Y-43453746D01*
X95862058Y-43453746D01*
X95935124Y-43439212D01*
X96017985Y-43383847D01*
X96073350Y-43300986D01*
X96087884Y-43227920D01*
X96087884Y-42918572D01*
X96073350Y-42845506D01*
X96017985Y-42762645D01*
X96017983Y-42762643D01*
X96000771Y-42751142D01*
X95996560Y-42744840D01*
X95989558Y-42741940D01*
X95981297Y-42721996D01*
X95969306Y-42704050D01*
X95967884Y-42689614D01*
X95967884Y-42624500D01*
X95989558Y-42572174D01*
X96041884Y-42550500D01*
X96108479Y-42550500D01*
X96108480Y-42550500D01*
X96170609Y-42538142D01*
X96173134Y-42536454D01*
X96176114Y-42535861D01*
X96177343Y-42535353D01*
X96177444Y-42535597D01*
X96194303Y-42532242D01*
X96214249Y-42523981D01*
X96221249Y-42526880D01*
X96228682Y-42525402D01*
X96246631Y-42537394D01*
X96266575Y-42545655D01*
X96269474Y-42552655D01*
X96275775Y-42556865D01*
X96288249Y-42597981D01*
X96288249Y-42736927D01*
X96288248Y-42736941D01*
X96288248Y-42742899D01*
X96288248Y-42834599D01*
X96293032Y-42846146D01*
X96297608Y-42857193D01*
X96297609Y-42857197D01*
X96323338Y-42919314D01*
X96323341Y-42919318D01*
X96398588Y-42994565D01*
X96398590Y-42994566D01*
X96417826Y-43013802D01*
X96439500Y-43066128D01*
X96439500Y-43214674D01*
X96446762Y-43251181D01*
X96454034Y-43287740D01*
X96509331Y-43370500D01*
X96509399Y-43370601D01*
X96592260Y-43425966D01*
X96665326Y-43440500D01*
X96665328Y-43440500D01*
X96914672Y-43440500D01*
X96914674Y-43440500D01*
X96987740Y-43425966D01*
X97070601Y-43370601D01*
X97093818Y-43335853D01*
X97140908Y-43304388D01*
X97196457Y-43315436D01*
X97216875Y-43335855D01*
X97233856Y-43361270D01*
X97233859Y-43361273D01*
X97316720Y-43416638D01*
X97389786Y-43431172D01*
X97389788Y-43431172D01*
X97639132Y-43431172D01*
X97639134Y-43431172D01*
X97712200Y-43416638D01*
X97795061Y-43361273D01*
X97795065Y-43361266D01*
X97796639Y-43359694D01*
X97798705Y-43358837D01*
X97801121Y-43357224D01*
X97801441Y-43357704D01*
X97848964Y-43338016D01*
X97901289Y-43359685D01*
X97927159Y-43385555D01*
X97927161Y-43385556D01*
X97927162Y-43385557D01*
X98007081Y-43431699D01*
X98007083Y-43431700D01*
X98007084Y-43431700D01*
X98007086Y-43431701D01*
X98035118Y-43439212D01*
X98096224Y-43455585D01*
X98096225Y-43455586D01*
X98096227Y-43455586D01*
X98188517Y-43455586D01*
X98188517Y-43455585D01*
X98277659Y-43431700D01*
X98357583Y-43385555D01*
X98422840Y-43320298D01*
X98468985Y-43240374D01*
X98472323Y-43227918D01*
X98478371Y-43205347D01*
X98512849Y-43160414D01*
X98549849Y-43150500D01*
X98646146Y-43150500D01*
X98646146Y-43150499D01*
X98735288Y-43126614D01*
X98815212Y-43080469D01*
X98880469Y-43015212D01*
X98926614Y-42935288D01*
X98950499Y-42846146D01*
X98950500Y-42846146D01*
X98950500Y-42753854D01*
X98950499Y-42753853D01*
X98943697Y-42728469D01*
X98931689Y-42683652D01*
X98939081Y-42627499D01*
X98984014Y-42593021D01*
X99003161Y-42590499D01*
X99273372Y-42590499D01*
X99297662Y-42587682D01*
X99397016Y-42543813D01*
X99473813Y-42467016D01*
X99502306Y-42402484D01*
X99543268Y-42363373D01*
X99599890Y-42364681D01*
X99637693Y-42402484D01*
X99666187Y-42467016D01*
X99742984Y-42543813D01*
X99842338Y-42587682D01*
X99866627Y-42590500D01*
X100233372Y-42590499D01*
X100257662Y-42587682D01*
X100357016Y-42543813D01*
X100433813Y-42467016D01*
X100477682Y-42367662D01*
X100480500Y-42343373D01*
X100480499Y-41916628D01*
X100480081Y-41913025D01*
X100495582Y-41858551D01*
X100545062Y-41830993D01*
X100553588Y-41830500D01*
X100665501Y-41830500D01*
X100717827Y-41852174D01*
G37*
%TD.AperFunction*%
%TA.AperFunction,Conductor*%
G36*
X94816110Y-37620859D02*
G01*
X94879391Y-37663142D01*
X94941520Y-37675500D01*
X94941521Y-37675500D01*
X95039158Y-37675500D01*
X95091484Y-37697174D01*
X95113158Y-37749440D01*
X95116060Y-41300440D01*
X95094429Y-41352783D01*
X95042120Y-41374500D01*
X94941520Y-41374500D01*
X94931213Y-41376550D01*
X94879391Y-41386857D01*
X94816112Y-41429139D01*
X94760563Y-41440188D01*
X94733888Y-41429139D01*
X94670608Y-41386857D01*
X94620837Y-41376957D01*
X94608480Y-41374500D01*
X94441520Y-41374500D01*
X94431213Y-41376550D01*
X94379391Y-41386857D01*
X94316112Y-41429139D01*
X94260563Y-41440188D01*
X94233888Y-41429139D01*
X94170608Y-41386857D01*
X94120837Y-41376957D01*
X94108480Y-41374500D01*
X93941520Y-41374500D01*
X93931213Y-41376550D01*
X93879391Y-41386857D01*
X93808935Y-41433934D01*
X93808934Y-41433935D01*
X93761857Y-41504391D01*
X93749500Y-41566520D01*
X93749500Y-42280798D01*
X93727826Y-42333124D01*
X93675500Y-42354798D01*
X92558851Y-42354798D01*
X92547371Y-42359552D01*
X92547372Y-42359553D01*
X92474134Y-42389888D01*
X92474133Y-42389890D01*
X91861197Y-43002826D01*
X91808871Y-43024500D01*
X91560180Y-43024500D01*
X91538229Y-43028866D01*
X91516277Y-43033233D01*
X91466496Y-43066495D01*
X91466495Y-43066496D01*
X91433233Y-43116277D01*
X91424500Y-43160180D01*
X91424500Y-43270500D01*
X91402826Y-43322826D01*
X91350500Y-43344500D01*
X91111271Y-43344500D01*
X91058945Y-43322826D01*
X91043576Y-43300391D01*
X91033871Y-43278412D01*
X91013813Y-43232984D01*
X90959707Y-43178878D01*
X90938033Y-43126552D01*
X90958711Y-43076629D01*
X90958421Y-43076407D01*
X90959252Y-43075324D01*
X90959705Y-43074229D01*
X90961369Y-43072566D01*
X91007514Y-42992642D01*
X91031399Y-42903500D01*
X91031400Y-42903500D01*
X91031400Y-42811208D01*
X91031399Y-42811207D01*
X91007515Y-42722069D01*
X91007513Y-42722064D01*
X90961371Y-42642145D01*
X90961370Y-42642144D01*
X90961369Y-42642142D01*
X90896112Y-42576885D01*
X90896109Y-42576883D01*
X90896108Y-42576882D01*
X90813199Y-42529014D01*
X90778720Y-42484080D01*
X90778721Y-42445775D01*
X90788264Y-42410157D01*
X90788265Y-42410157D01*
X90788265Y-42317865D01*
X90788264Y-42317864D01*
X90764380Y-42228726D01*
X90764378Y-42228721D01*
X90718236Y-42148802D01*
X90718235Y-42148801D01*
X90718234Y-42148799D01*
X90652977Y-42083542D01*
X90652974Y-42083540D01*
X90652973Y-42083539D01*
X90573054Y-42037397D01*
X90573049Y-42037395D01*
X90483911Y-42013511D01*
X90483909Y-42013511D01*
X90391621Y-42013511D01*
X90391619Y-42013511D01*
X90297792Y-42038652D01*
X90297418Y-42037257D01*
X90246175Y-42037253D01*
X90206130Y-41997201D01*
X90200500Y-41968888D01*
X90200500Y-41115263D01*
X90222174Y-41062937D01*
X90274500Y-41041263D01*
X90326826Y-41062937D01*
X90329180Y-41065291D01*
X90329182Y-41065294D01*
X90394439Y-41130551D01*
X90394441Y-41130552D01*
X90394442Y-41130553D01*
X90474361Y-41176695D01*
X90474363Y-41176696D01*
X90474364Y-41176696D01*
X90474366Y-41176697D01*
X90485029Y-41179554D01*
X90563504Y-41200581D01*
X90563505Y-41200582D01*
X90563507Y-41200582D01*
X90655797Y-41200582D01*
X90655797Y-41200581D01*
X90744939Y-41176696D01*
X90824863Y-41130551D01*
X90890120Y-41065294D01*
X90936265Y-40985370D01*
X90955321Y-40914251D01*
X90989799Y-40869320D01*
X91045952Y-40861927D01*
X91079125Y-40881080D01*
X91228611Y-41030566D01*
X91228612Y-41030568D01*
X91293453Y-41095409D01*
X91323061Y-41107672D01*
X91331650Y-41114788D01*
X91340068Y-41130714D01*
X91352807Y-41143453D01*
X91354183Y-41157419D01*
X91358117Y-41164861D01*
X91355691Y-41172723D01*
X91356690Y-41182850D01*
X91357311Y-41182912D01*
X91357003Y-41186031D01*
X91357020Y-41186198D01*
X91356955Y-41186527D01*
X91356955Y-41435875D01*
X91367933Y-41491064D01*
X91371489Y-41508941D01*
X91411952Y-41569500D01*
X91426854Y-41591802D01*
X91509715Y-41647167D01*
X91582781Y-41661701D01*
X91582783Y-41661701D01*
X91892127Y-41661701D01*
X91892129Y-41661701D01*
X91965195Y-41647167D01*
X92048056Y-41591802D01*
X92061171Y-41572174D01*
X92083745Y-41538389D01*
X92130836Y-41506922D01*
X92145274Y-41505500D01*
X92308091Y-41505500D01*
X92349203Y-41517971D01*
X92372462Y-41533512D01*
X92379391Y-41538142D01*
X92441520Y-41550500D01*
X92493885Y-41550500D01*
X92546211Y-41572174D01*
X92565362Y-41605344D01*
X92573386Y-41635287D01*
X92573387Y-41635290D01*
X92619528Y-41715208D01*
X92619529Y-41715209D01*
X92619531Y-41715212D01*
X92684788Y-41780469D01*
X92764712Y-41826614D01*
X92764713Y-41826614D01*
X92764715Y-41826615D01*
X92809284Y-41838557D01*
X92853853Y-41850499D01*
X92853854Y-41850500D01*
X92853856Y-41850500D01*
X92946146Y-41850500D01*
X92946146Y-41850499D01*
X93035288Y-41826614D01*
X93115212Y-41780469D01*
X93180469Y-41715212D01*
X93226614Y-41635288D01*
X93238315Y-41591615D01*
X93272792Y-41546684D01*
X93295356Y-41538192D01*
X93295609Y-41538142D01*
X93366065Y-41491065D01*
X93413142Y-41420609D01*
X93425500Y-41358480D01*
X93425500Y-41191520D01*
X93413142Y-41129391D01*
X93370859Y-41066110D01*
X93359811Y-41010563D01*
X93370860Y-40983888D01*
X93413142Y-40920609D01*
X93425500Y-40858480D01*
X93425500Y-40691520D01*
X93413142Y-40629391D01*
X93370859Y-40566110D01*
X93359811Y-40510563D01*
X93370860Y-40483888D01*
X93387713Y-40458666D01*
X93413142Y-40420609D01*
X93425500Y-40358480D01*
X93425500Y-40191520D01*
X93413142Y-40129391D01*
X93370859Y-40066110D01*
X93359811Y-40010563D01*
X93370860Y-39983888D01*
X93383673Y-39964712D01*
X93413142Y-39920609D01*
X93425500Y-39858480D01*
X93425500Y-39691520D01*
X93413142Y-39629391D01*
X93370859Y-39566110D01*
X93359811Y-39510563D01*
X93370860Y-39483888D01*
X93413142Y-39420609D01*
X93425500Y-39358480D01*
X93425500Y-39191520D01*
X93413142Y-39129391D01*
X93370859Y-39066110D01*
X93359811Y-39010563D01*
X93370860Y-38983888D01*
X93383673Y-38964712D01*
X93413142Y-38920609D01*
X93425500Y-38858480D01*
X93425500Y-38691520D01*
X93413142Y-38629391D01*
X93370859Y-38566110D01*
X93359811Y-38510563D01*
X93370860Y-38483888D01*
X93413142Y-38420609D01*
X93425500Y-38358480D01*
X93425500Y-38191520D01*
X93413142Y-38129391D01*
X93370859Y-38066110D01*
X93359811Y-38010563D01*
X93370860Y-37983888D01*
X93413142Y-37920609D01*
X93425500Y-37858480D01*
X93425500Y-37749500D01*
X93447174Y-37697174D01*
X93499500Y-37675500D01*
X93608479Y-37675500D01*
X93608480Y-37675500D01*
X93670609Y-37663142D01*
X93733889Y-37620859D01*
X93789437Y-37609811D01*
X93816110Y-37620859D01*
X93879391Y-37663142D01*
X93941520Y-37675500D01*
X93941521Y-37675500D01*
X94108479Y-37675500D01*
X94108480Y-37675500D01*
X94170609Y-37663142D01*
X94233889Y-37620859D01*
X94289437Y-37609811D01*
X94316110Y-37620859D01*
X94379391Y-37663142D01*
X94441520Y-37675500D01*
X94441521Y-37675500D01*
X94608479Y-37675500D01*
X94608480Y-37675500D01*
X94670609Y-37663142D01*
X94733889Y-37620859D01*
X94789437Y-37609811D01*
X94816110Y-37620859D01*
G37*
%TD.AperFunction*%
%TA.AperFunction,Conductor*%
G36*
X90326826Y-36348136D02*
G01*
X90345978Y-36381309D01*
X90362111Y-36441520D01*
X90362113Y-36441525D01*
X90408255Y-36521444D01*
X90408256Y-36521445D01*
X90408258Y-36521448D01*
X90436553Y-36549743D01*
X90455979Y-36583970D01*
X90458226Y-36592879D01*
X90458226Y-36615827D01*
X90470956Y-36646558D01*
X90473023Y-36651548D01*
X90493316Y-36700542D01*
X90493319Y-36700546D01*
X90568566Y-36775793D01*
X90568568Y-36775794D01*
X91866925Y-38074151D01*
X91888599Y-38126477D01*
X91866925Y-38178803D01*
X91814599Y-38200477D01*
X91527605Y-38200477D01*
X91503318Y-38203294D01*
X91403961Y-38247164D01*
X91327165Y-38323960D01*
X91284491Y-38420609D01*
X91283296Y-38423315D01*
X91280481Y-38447585D01*
X91280478Y-38447607D01*
X91280478Y-38874349D01*
X91283295Y-38898636D01*
X91283295Y-38898638D01*
X91283296Y-38898639D01*
X91327165Y-38997993D01*
X91403962Y-39074790D01*
X91432340Y-39087320D01*
X91471452Y-39128281D01*
X91470145Y-39184903D01*
X91443563Y-39216542D01*
X91418177Y-39233504D01*
X91418175Y-39233506D01*
X91362811Y-39316366D01*
X91348277Y-39389434D01*
X91348277Y-39638781D01*
X91353416Y-39664620D01*
X91342366Y-39720168D01*
X91299992Y-39750533D01*
X91214711Y-39773385D01*
X91214707Y-39773386D01*
X91134788Y-39819528D01*
X91069524Y-39884792D01*
X91069524Y-39884793D01*
X91030294Y-39952739D01*
X90985360Y-39987217D01*
X90947057Y-39987217D01*
X90893543Y-39972878D01*
X90801255Y-39972878D01*
X90801253Y-39972878D01*
X90712114Y-39996762D01*
X90712109Y-39996764D01*
X90632190Y-40042906D01*
X90566927Y-40108169D01*
X90520785Y-40188088D01*
X90520783Y-40188093D01*
X90496899Y-40277231D01*
X90496899Y-40369521D01*
X90514980Y-40437002D01*
X90507587Y-40493154D01*
X90477630Y-40519427D01*
X90478563Y-40521043D01*
X90394442Y-40569610D01*
X90394439Y-40569612D01*
X90394439Y-40569613D01*
X90329182Y-40634870D01*
X90329180Y-40634872D01*
X90326826Y-40637227D01*
X90274500Y-40658901D01*
X90222174Y-40637227D01*
X90200500Y-40584901D01*
X90200500Y-36400462D01*
X90222174Y-36348136D01*
X90274500Y-36326462D01*
X90326826Y-36348136D01*
G37*
%TD.AperFunction*%
%TA.AperFunction,Conductor*%
G36*
X105987413Y-36718948D02*
G01*
X106001308Y-36718628D01*
X106012546Y-36729359D01*
X106026901Y-36735305D01*
X106042270Y-36757742D01*
X106056577Y-36790146D01*
X106056578Y-36790147D01*
X106133375Y-36866944D01*
X106232729Y-36910813D01*
X106257018Y-36913631D01*
X106683763Y-36913630D01*
X106708053Y-36910813D01*
X106807407Y-36866944D01*
X106873174Y-36801177D01*
X106925500Y-36779503D01*
X106977826Y-36801177D01*
X106999500Y-36853503D01*
X106999500Y-38825168D01*
X106977826Y-38877494D01*
X106925500Y-38899168D01*
X106873175Y-38877494D01*
X106815212Y-38819531D01*
X106815209Y-38819529D01*
X106815208Y-38819528D01*
X106735289Y-38773386D01*
X106735284Y-38773384D01*
X106646146Y-38749500D01*
X106646144Y-38749500D01*
X106553856Y-38749500D01*
X106553854Y-38749500D01*
X106464715Y-38773384D01*
X106464710Y-38773386D01*
X106384788Y-38819530D01*
X106362518Y-38841800D01*
X106310195Y-38863473D01*
X106269865Y-38863473D01*
X106245577Y-38866290D01*
X106146220Y-38910160D01*
X106069424Y-38986956D01*
X106025555Y-39086310D01*
X106022737Y-39110603D01*
X106022737Y-39397844D01*
X106001063Y-39450170D01*
X105523406Y-39927826D01*
X105471080Y-39949500D01*
X104830136Y-39949500D01*
X104805013Y-39952414D01*
X104805004Y-39952416D01*
X104721528Y-39989274D01*
X104664906Y-39990582D01*
X104623944Y-39951469D01*
X104610318Y-39920609D01*
X104602206Y-39902236D01*
X104522765Y-39822795D01*
X104419991Y-39777416D01*
X104419990Y-39777415D01*
X104419988Y-39777415D01*
X104398659Y-39774941D01*
X104394865Y-39774501D01*
X104394864Y-39774501D01*
X104005136Y-39774501D01*
X103980013Y-39777415D01*
X103980004Y-39777417D01*
X103929388Y-39799766D01*
X103872766Y-39801073D01*
X103831804Y-39761960D01*
X103825499Y-39732074D01*
X103825499Y-39405136D01*
X103822585Y-39380009D01*
X103777206Y-39277235D01*
X103752297Y-39252326D01*
X103730623Y-39200000D01*
X103752297Y-39147674D01*
X103755539Y-39144432D01*
X103777206Y-39122765D01*
X103822585Y-39019991D01*
X103825500Y-38994865D01*
X103825499Y-38605136D01*
X103822585Y-38580009D01*
X103777206Y-38477235D01*
X103752297Y-38452326D01*
X103730623Y-38400000D01*
X103752297Y-38347674D01*
X103777206Y-38322765D01*
X103822585Y-38219991D01*
X103825500Y-38194865D01*
X103825499Y-37805136D01*
X103825499Y-37805135D01*
X104574500Y-37805135D01*
X104574500Y-38194863D01*
X104577414Y-38219986D01*
X104577415Y-38219991D01*
X104622794Y-38322765D01*
X104702235Y-38402206D01*
X104805009Y-38447585D01*
X104830135Y-38450500D01*
X105569864Y-38450499D01*
X105594991Y-38447585D01*
X105697765Y-38402206D01*
X105777206Y-38322765D01*
X105822585Y-38219991D01*
X105825500Y-38194865D01*
X105825499Y-37805136D01*
X105822585Y-37780009D01*
X105777206Y-37677235D01*
X105697765Y-37597794D01*
X105594991Y-37552415D01*
X105594990Y-37552414D01*
X105594988Y-37552414D01*
X105573659Y-37549940D01*
X105569865Y-37549500D01*
X105569864Y-37549500D01*
X104830136Y-37549500D01*
X104805013Y-37552414D01*
X104805007Y-37552415D01*
X104702234Y-37597794D01*
X104622794Y-37677234D01*
X104577414Y-37780011D01*
X104574500Y-37805135D01*
X103825499Y-37805135D01*
X103822585Y-37780009D01*
X103777206Y-37677235D01*
X103752297Y-37652326D01*
X103730623Y-37600000D01*
X103752297Y-37547674D01*
X103777206Y-37522765D01*
X103822585Y-37419991D01*
X103825500Y-37394865D01*
X103825499Y-37067926D01*
X103847173Y-37015601D01*
X103899499Y-36993927D01*
X103929387Y-37000232D01*
X103980009Y-37022584D01*
X104005135Y-37025499D01*
X104394864Y-37025498D01*
X104419991Y-37022584D01*
X104522765Y-36977205D01*
X104602206Y-36897764D01*
X104623944Y-36848530D01*
X104664906Y-36809417D01*
X104721528Y-36810725D01*
X104721529Y-36810725D01*
X104805009Y-36847585D01*
X104830135Y-36850500D01*
X105569864Y-36850499D01*
X105594991Y-36847585D01*
X105697765Y-36802206D01*
X105764666Y-36735305D01*
X105816992Y-36713631D01*
X105974575Y-36713631D01*
X105987413Y-36718948D01*
G37*
%TD.AperFunction*%
%TA.AperFunction,Conductor*%
G36*
X95289567Y-30222174D02*
G01*
X95311241Y-30274500D01*
X95311241Y-34896601D01*
X95289567Y-34948927D01*
X95263327Y-34965851D01*
X95110929Y-35023259D01*
X95111106Y-35238587D01*
X95105474Y-35252213D01*
X95105477Y-35266958D01*
X95095087Y-35277350D01*
X95089475Y-35290931D01*
X95065433Y-35307011D01*
X95061743Y-35308540D01*
X95061735Y-35308544D01*
X95019377Y-35326089D01*
X95019376Y-35326090D01*
X94954535Y-35390931D01*
X94954534Y-35390932D01*
X94844274Y-35501193D01*
X94754012Y-35591455D01*
X94701686Y-35613129D01*
X94553140Y-35613129D01*
X94510182Y-35621674D01*
X94480073Y-35627663D01*
X94397213Y-35683027D01*
X94397212Y-35683028D01*
X94341848Y-35765888D01*
X94334581Y-35802422D01*
X94328044Y-35835288D01*
X94327314Y-35838956D01*
X94327314Y-35953938D01*
X94305640Y-36006264D01*
X94253314Y-36027938D01*
X94200988Y-36006264D01*
X93774565Y-35579841D01*
X93774565Y-35579840D01*
X93759437Y-35564712D01*
X93699316Y-35504591D01*
X93699314Y-35504590D01*
X93699312Y-35504589D01*
X93664224Y-35490055D01*
X93664224Y-35490054D01*
X93614598Y-35469499D01*
X93522898Y-35469499D01*
X93514286Y-35469499D01*
X93514278Y-35469500D01*
X93495833Y-35469500D01*
X93443508Y-35447827D01*
X93415212Y-35419531D01*
X93415209Y-35419529D01*
X93415208Y-35419528D01*
X93335289Y-35373386D01*
X93335284Y-35373384D01*
X93246146Y-35349500D01*
X93246144Y-35349500D01*
X93153856Y-35349500D01*
X93153854Y-35349500D01*
X93064715Y-35373384D01*
X93064710Y-35373386D01*
X92984791Y-35419528D01*
X92919523Y-35484796D01*
X92917405Y-35487556D01*
X92868350Y-35515864D01*
X92813646Y-35501193D01*
X92787229Y-35461648D01*
X92766614Y-35384712D01*
X92732768Y-35326090D01*
X92720471Y-35304791D01*
X92720470Y-35304790D01*
X92720469Y-35304788D01*
X92655212Y-35239531D01*
X92655209Y-35239529D01*
X92655208Y-35239528D01*
X92575289Y-35193386D01*
X92575284Y-35193384D01*
X92486146Y-35169500D01*
X92486144Y-35169500D01*
X92393856Y-35169500D01*
X92393854Y-35169500D01*
X92304715Y-35193384D01*
X92304710Y-35193386D01*
X92224791Y-35239528D01*
X92159528Y-35304791D01*
X92113386Y-35384710D01*
X92113384Y-35384715D01*
X92089500Y-35473853D01*
X92089500Y-35566146D01*
X92113384Y-35655284D01*
X92113386Y-35655289D01*
X92159528Y-35735208D01*
X92159529Y-35735209D01*
X92159531Y-35735212D01*
X92187826Y-35763507D01*
X92209500Y-35815832D01*
X92209500Y-35956929D01*
X92209499Y-35956943D01*
X92209499Y-36054601D01*
X92228022Y-36099318D01*
X92244590Y-36139318D01*
X92319839Y-36214567D01*
X92319841Y-36214568D01*
X93227826Y-37122553D01*
X93249500Y-37174879D01*
X93249500Y-37425500D01*
X93227826Y-37477826D01*
X93175500Y-37499500D01*
X92912378Y-37499500D01*
X92860052Y-37477826D01*
X91764692Y-36382467D01*
X91743018Y-36330141D01*
X91744886Y-36315959D01*
X91744865Y-36315957D01*
X91745498Y-36311148D01*
X91745498Y-36218856D01*
X91745497Y-36218855D01*
X91744348Y-36214568D01*
X91724186Y-36139319D01*
X91721613Y-36129717D01*
X91721611Y-36129712D01*
X91675469Y-36049793D01*
X91675468Y-36049792D01*
X91675467Y-36049790D01*
X91610210Y-35984533D01*
X91610207Y-35984531D01*
X91610206Y-35984530D01*
X91530287Y-35938388D01*
X91530282Y-35938386D01*
X91441144Y-35914502D01*
X91441142Y-35914502D01*
X91348854Y-35914502D01*
X91348852Y-35914502D01*
X91259713Y-35938386D01*
X91259708Y-35938388D01*
X91179789Y-35984530D01*
X91114525Y-36049794D01*
X91114525Y-36049795D01*
X91093917Y-36085488D01*
X91048983Y-36119966D01*
X90992831Y-36112572D01*
X90971131Y-36093544D01*
X90969202Y-36091031D01*
X90969197Y-36091026D01*
X90969196Y-36091024D01*
X90903939Y-36025767D01*
X90903936Y-36025765D01*
X90903935Y-36025764D01*
X90824016Y-35979622D01*
X90824011Y-35979620D01*
X90734873Y-35955736D01*
X90734871Y-35955736D01*
X90642583Y-35955736D01*
X90642581Y-35955736D01*
X90553442Y-35979620D01*
X90553437Y-35979622D01*
X90473518Y-36025764D01*
X90408255Y-36091027D01*
X90362113Y-36170946D01*
X90362111Y-36170951D01*
X90345978Y-36231162D01*
X90311500Y-36276095D01*
X90255347Y-36283487D01*
X90210414Y-36249009D01*
X90200500Y-36212009D01*
X90200500Y-32702236D01*
X90200635Y-32697768D01*
X90210353Y-32537111D01*
X90218454Y-32403176D01*
X90219528Y-32394328D01*
X90272328Y-32106211D01*
X90274458Y-32097568D01*
X90361597Y-31817931D01*
X90364754Y-31809604D01*
X90484971Y-31542493D01*
X90489115Y-31534599D01*
X90640636Y-31283952D01*
X90645712Y-31276599D01*
X90826343Y-31046039D01*
X90832254Y-31039367D01*
X91039367Y-30832254D01*
X91046039Y-30826343D01*
X91276599Y-30645711D01*
X91283953Y-30640636D01*
X91534599Y-30489115D01*
X91542493Y-30484971D01*
X91809604Y-30364754D01*
X91817931Y-30361597D01*
X92097568Y-30274458D01*
X92106211Y-30272328D01*
X92394328Y-30219528D01*
X92403176Y-30218454D01*
X92697768Y-30200634D01*
X92702236Y-30200500D01*
X92739882Y-30200500D01*
X95237241Y-30200500D01*
X95289567Y-30222174D01*
G37*
%TD.AperFunction*%
%TD*%
M02*
