%TF.GenerationSoftware,KiCad,Pcbnew,9.0.7*%
%TF.CreationDate,2026-02-19T22:00:42-05:00*%
%TF.ProjectId,OshEasyMini,4f736845-6173-4794-9d69-6e692e6b6963,rev?*%
%TF.SameCoordinates,Original*%
%TF.FileFunction,Legend,Top*%
%TF.FilePolarity,Positive*%
%FSLAX46Y46*%
G04 Gerber Fmt 4.6, Leading zero omitted, Abs format (unit mm)*
G04 Created by KiCad (PCBNEW 9.0.7) date 2026-02-19 22:00:42*
%MOMM*%
%LPD*%
G01*
G04 APERTURE LIST*
G04 Aperture macros list*
%AMRoundRect*
0 Rectangle with rounded corners*
0 $1 Rounding radius*
0 $2 $3 $4 $5 $6 $7 $8 $9 X,Y pos of 4 corners*
0 Add a 4 corners polygon primitive as box body*
4,1,4,$2,$3,$4,$5,$6,$7,$8,$9,$2,$3,0*
0 Add four circle primitives for the rounded corners*
1,1,$1+$1,$2,$3*
1,1,$1+$1,$4,$5*
1,1,$1+$1,$6,$7*
1,1,$1+$1,$8,$9*
0 Add four rect primitives between the rounded corners*
20,1,$1+$1,$2,$3,$4,$5,0*
20,1,$1+$1,$4,$5,$6,$7,0*
20,1,$1+$1,$6,$7,$8,$9,0*
20,1,$1+$1,$8,$9,$2,$3,0*%
%AMFreePoly0*
4,1,6,1.000000,0.000000,0.500000,-0.750000,-0.500000,-0.750000,-0.500000,0.750000,0.500000,0.750000,1.000000,0.000000,1.000000,0.000000,$1*%
%AMFreePoly1*
4,1,6,0.500000,-0.750000,-0.650000,-0.750000,-0.150000,0.000000,-0.650000,0.750000,0.500000,0.750000,0.500000,-0.750000,0.500000,-0.750000,$1*%
G04 Aperture macros list end*
%ADD10C,0.150000*%
%ADD11C,0.120000*%
%ADD12C,0.127000*%
%ADD13RoundRect,0.075000X0.075000X0.662500X-0.075000X0.662500X-0.075000X-0.662500X0.075000X-0.662500X0*%
%ADD14RoundRect,0.075000X0.662500X0.075000X-0.662500X0.075000X-0.662500X-0.075000X0.662500X-0.075000X0*%
%ADD15RoundRect,0.140000X-0.170000X0.140000X-0.170000X-0.140000X0.170000X-0.140000X0.170000X0.140000X0*%
%ADD16RoundRect,0.150000X-0.625000X0.150000X-0.625000X-0.150000X0.625000X-0.150000X0.625000X0.150000X0*%
%ADD17RoundRect,0.250000X-0.650000X0.350000X-0.650000X-0.350000X0.650000X-0.350000X0.650000X0.350000X0*%
%ADD18RoundRect,0.100000X0.100000X-0.225000X0.100000X0.225000X-0.100000X0.225000X-0.100000X-0.225000X0*%
%ADD19RoundRect,0.100000X-0.130000X-0.100000X0.130000X-0.100000X0.130000X0.100000X-0.130000X0.100000X0*%
%ADD20RoundRect,0.250000X0.325000X0.250000X-0.325000X0.250000X-0.325000X-0.250000X0.325000X-0.250000X0*%
%ADD21C,1.100000*%
%ADD22RoundRect,0.249999X-0.850001X-0.850001X0.850001X-0.850001X0.850001X0.850001X-0.850001X0.850001X0*%
%ADD23C,2.200000*%
%ADD24R,0.650000X0.850000*%
%ADD25RoundRect,0.062500X0.062500X0.212500X-0.062500X0.212500X-0.062500X-0.212500X0.062500X-0.212500X0*%
%ADD26R,0.800000X0.600000*%
%ADD27RoundRect,0.140000X0.170000X-0.140000X0.170000X0.140000X-0.170000X0.140000X-0.170000X-0.140000X0*%
%ADD28FreePoly0,270.000000*%
%ADD29FreePoly1,270.000000*%
%ADD30RoundRect,0.112500X-0.112500X-0.237500X0.112500X-0.237500X0.112500X0.237500X-0.112500X0.237500X0*%
%ADD31RoundRect,0.062500X-0.300000X-0.062500X0.300000X-0.062500X0.300000X0.062500X-0.300000X0.062500X0*%
%ADD32R,0.900000X1.600000*%
%ADD33RoundRect,0.100000X0.100000X-0.130000X0.100000X0.130000X-0.100000X0.130000X-0.100000X-0.130000X0*%
%ADD34RoundRect,0.102000X-2.250000X0.675000X-2.250000X-0.675000X2.250000X-0.675000X2.250000X0.675000X0*%
%ADD35RoundRect,0.150000X0.150000X-0.587500X0.150000X0.587500X-0.150000X0.587500X-0.150000X-0.587500X0*%
%ADD36RoundRect,0.100000X0.130000X0.100000X-0.130000X0.100000X-0.130000X-0.100000X0.130000X-0.100000X0*%
%ADD37RoundRect,0.147500X0.172500X-0.147500X0.172500X0.147500X-0.172500X0.147500X-0.172500X-0.147500X0*%
%ADD38RoundRect,0.100000X-0.100000X0.130000X-0.100000X-0.130000X0.100000X-0.130000X0.100000X0.130000X0*%
%ADD39RoundRect,0.140000X-0.140000X-0.170000X0.140000X-0.170000X0.140000X0.170000X-0.140000X0.170000X0*%
%ADD40RoundRect,0.250000X-0.650000X0.325000X-0.650000X-0.325000X0.650000X-0.325000X0.650000X0.325000X0*%
%ADD41RoundRect,0.250000X0.350000X0.625000X-0.350000X0.625000X-0.350000X-0.625000X0.350000X-0.625000X0*%
%ADD42O,1.200000X1.750000*%
%ADD43R,0.850000X0.650000*%
%ADD44C,4.700000*%
%ADD45RoundRect,0.140000X0.140000X0.170000X-0.140000X0.170000X-0.140000X-0.170000X0.140000X-0.170000X0*%
%ADD46RoundRect,0.150000X0.150000X-0.512500X0.150000X0.512500X-0.150000X0.512500X-0.150000X-0.512500X0*%
%ADD47C,0.990600*%
G04 APERTURE END LIST*
D10*
G36*
X100321350Y-32937024D02*
G01*
X100365073Y-32951329D01*
X100402107Y-32974429D01*
X100431951Y-33005689D01*
X100450873Y-33041956D01*
X100459553Y-33084632D01*
X100368743Y-33084632D01*
X100362395Y-33059110D01*
X100351448Y-33038746D01*
X100335917Y-33022545D01*
X100316631Y-33010776D01*
X100293282Y-33003391D01*
X100264842Y-33000759D01*
X100231286Y-33006025D01*
X100203540Y-33021368D01*
X100180090Y-33047898D01*
X100163980Y-33080748D01*
X100153374Y-33123370D01*
X100149462Y-33178274D01*
X100153502Y-33232794D01*
X100164395Y-33274456D01*
X100180872Y-33306013D01*
X100204759Y-33330930D01*
X100233989Y-33345728D01*
X100270314Y-33350905D01*
X100298609Y-33348060D01*
X100321758Y-33340060D01*
X100340851Y-33327214D01*
X100355982Y-33309813D01*
X100366990Y-33287597D01*
X100373677Y-33259412D01*
X100463900Y-33259412D01*
X100458668Y-33295145D01*
X100447262Y-33326302D01*
X100429758Y-33353738D01*
X100405673Y-33378016D01*
X100367191Y-33402384D01*
X100321590Y-33417481D01*
X100267041Y-33422810D01*
X100217924Y-33418431D01*
X100175954Y-33405955D01*
X100139774Y-33385818D01*
X100108429Y-33357695D01*
X100083675Y-33323701D01*
X100065476Y-33283729D01*
X100053984Y-33236635D01*
X100049909Y-33180961D01*
X100054060Y-33124234D01*
X100065793Y-33075998D01*
X100084417Y-33034823D01*
X100109797Y-32999586D01*
X100141955Y-32970202D01*
X100178587Y-32949315D01*
X100220584Y-32936466D01*
X100269239Y-32931980D01*
X100321350Y-32937024D01*
G37*
G36*
X100320737Y-32775943D02*
G01*
X100372716Y-32785999D01*
X100422330Y-32802629D01*
X100469257Y-32825719D01*
X100512905Y-32855131D01*
X100553586Y-32891240D01*
X100589028Y-32931520D01*
X100618082Y-32974922D01*
X100641074Y-33021764D01*
X100657727Y-33071209D01*
X100667771Y-33122754D01*
X100671165Y-33176858D01*
X100667778Y-33232041D01*
X100657806Y-33284029D01*
X100641367Y-33333320D01*
X100618486Y-33379901D01*
X100589680Y-33422454D01*
X100554661Y-33461352D01*
X100513313Y-33497520D01*
X100468849Y-33527326D01*
X100420963Y-33551087D01*
X100370441Y-33568433D01*
X100318902Y-33578786D01*
X100265917Y-33582252D01*
X100213328Y-33578803D01*
X100162427Y-33568522D01*
X100112777Y-33551331D01*
X100065793Y-33527804D01*
X100022158Y-33498278D01*
X99981570Y-33462427D01*
X99945433Y-33421754D01*
X99915833Y-33378009D01*
X99892421Y-33330877D01*
X99875405Y-33281045D01*
X99865215Y-33229849D01*
X99861828Y-33177395D01*
X99921974Y-33177395D01*
X99924915Y-33222846D01*
X99933651Y-33266519D01*
X99948206Y-33308798D01*
X99968239Y-33348771D01*
X99993477Y-33385908D01*
X100024214Y-33420466D01*
X100058757Y-33451245D01*
X100095956Y-33476518D01*
X100136078Y-33496572D01*
X100178479Y-33511177D01*
X100222009Y-33519918D01*
X100267041Y-33522852D01*
X100312066Y-33519895D01*
X100355677Y-33511077D01*
X100398248Y-33496327D01*
X100438632Y-33476135D01*
X100476675Y-33450599D01*
X100512602Y-33419391D01*
X100542618Y-33385556D01*
X100567209Y-33349059D01*
X100586657Y-33309628D01*
X100600705Y-33267905D01*
X100609218Y-33223968D01*
X100612107Y-33177395D01*
X100609205Y-33130821D01*
X100600625Y-33086518D01*
X100586413Y-33044087D01*
X100566802Y-33003870D01*
X100542274Y-32966824D01*
X100512602Y-32932664D01*
X100477755Y-32902247D01*
X100440454Y-32877351D01*
X100400446Y-32857681D01*
X100358231Y-32843461D01*
X100313901Y-32834855D01*
X100267041Y-32831938D01*
X100220174Y-32834830D01*
X100176027Y-32843347D01*
X100134173Y-32857388D01*
X100094592Y-32876886D01*
X100058032Y-32901527D01*
X100024214Y-32931589D01*
X99993802Y-32966804D01*
X99968647Y-33004674D01*
X99948499Y-33045455D01*
X99933736Y-33088439D01*
X99924924Y-33132297D01*
X99921974Y-33177395D01*
X99861828Y-33177395D01*
X99861793Y-33176858D01*
X99865251Y-33124590D01*
X99875595Y-33073587D01*
X99892958Y-33023424D01*
X99916665Y-32975851D01*
X99946449Y-32931529D01*
X99982644Y-32890166D01*
X100022950Y-32854007D01*
X100065793Y-32824797D01*
X100111458Y-32802092D01*
X100159814Y-32785811D01*
X100211126Y-32775910D01*
X100265917Y-32772538D01*
X100320737Y-32775943D01*
G37*
G36*
X101630062Y-33472831D02*
G01*
X101630062Y-33576000D01*
X101093558Y-33576000D01*
X101392707Y-33218379D01*
X101443230Y-33151727D01*
X101474187Y-33099921D01*
X101494011Y-33049322D01*
X101499930Y-33007207D01*
X101495692Y-32968819D01*
X101483816Y-32938027D01*
X101464661Y-32913124D01*
X101439205Y-32894570D01*
X101407611Y-32882983D01*
X101368136Y-32878833D01*
X101333061Y-32882835D01*
X101303375Y-32894317D01*
X101277864Y-32913271D01*
X101257937Y-32938165D01*
X101244612Y-32967969D01*
X101237955Y-33003885D01*
X101112707Y-33003885D01*
X101117522Y-32950841D01*
X101131288Y-32905207D01*
X101153604Y-32865560D01*
X101184905Y-32830912D01*
X101222599Y-32803512D01*
X101266657Y-32783419D01*
X101318286Y-32770764D01*
X101379030Y-32766286D01*
X101436955Y-32770470D01*
X101485777Y-32782244D01*
X101527041Y-32800845D01*
X101561967Y-32826076D01*
X101590895Y-32858104D01*
X101611620Y-32895180D01*
X101624472Y-32938301D01*
X101628988Y-32988889D01*
X101624874Y-33037012D01*
X101612258Y-33086249D01*
X101590397Y-33137242D01*
X101561007Y-33186032D01*
X101509242Y-33256393D01*
X101427194Y-33354618D01*
X101325443Y-33472831D01*
X101630062Y-33472831D01*
G37*
G36*
X102139713Y-32770928D02*
G01*
X102186845Y-32784258D01*
X102228382Y-32805902D01*
X102265241Y-32836193D01*
X102297920Y-32876146D01*
X102322706Y-32919605D01*
X102343107Y-32971336D01*
X102358681Y-33032658D01*
X102368727Y-33105084D01*
X102372316Y-33190291D01*
X102366739Y-33287285D01*
X102351228Y-33367837D01*
X102327202Y-33434564D01*
X102295478Y-33489684D01*
X102261876Y-33529182D01*
X102224575Y-33559062D01*
X102183117Y-33580332D01*
X102136673Y-33593367D01*
X102084110Y-33597884D01*
X102030849Y-33593298D01*
X101984048Y-33580095D01*
X101942513Y-33558596D01*
X101905374Y-33528440D01*
X101872156Y-33488609D01*
X101846732Y-33445132D01*
X101825942Y-33393958D01*
X101810167Y-33333905D01*
X101800043Y-33263609D01*
X101796512Y-33183159D01*
X101926573Y-33183159D01*
X101929639Y-33258582D01*
X101938024Y-33319604D01*
X101950671Y-33368481D01*
X101966775Y-33407228D01*
X101990343Y-33442932D01*
X102016945Y-33466668D01*
X102047045Y-33480581D01*
X102081912Y-33485337D01*
X102119475Y-33480538D01*
X102151187Y-33466689D01*
X102178471Y-33443471D01*
X102201933Y-33409133D01*
X102217851Y-33371401D01*
X102230510Y-33322475D01*
X102239001Y-33259922D01*
X102242135Y-33181010D01*
X102239085Y-33104595D01*
X102230773Y-33043207D01*
X102218289Y-32994444D01*
X102202470Y-32956160D01*
X102179223Y-32920964D01*
X102152664Y-32897452D01*
X102122295Y-32883593D01*
X102086796Y-32878833D01*
X102049569Y-32883650D01*
X102017991Y-32897594D01*
X101990667Y-32921053D01*
X101967020Y-32955867D01*
X101950942Y-32994015D01*
X101938210Y-33043035D01*
X101929703Y-33105223D01*
X101926573Y-33183159D01*
X101796512Y-33183159D01*
X101796441Y-33181547D01*
X101800064Y-33100302D01*
X101810261Y-33030503D01*
X101826181Y-32970678D01*
X101847209Y-32919507D01*
X101872986Y-32875853D01*
X101906542Y-32835879D01*
X101943938Y-32805632D01*
X101985644Y-32784088D01*
X102032513Y-32770871D01*
X102085722Y-32766286D01*
X102139713Y-32770928D01*
G37*
G36*
X102982191Y-33472831D02*
G01*
X102982191Y-33576000D01*
X102445687Y-33576000D01*
X102744836Y-33218379D01*
X102795359Y-33151727D01*
X102826315Y-33099921D01*
X102846139Y-33049322D01*
X102852058Y-33007207D01*
X102847820Y-32968819D01*
X102835944Y-32938027D01*
X102816789Y-32913124D01*
X102791334Y-32894570D01*
X102759739Y-32882983D01*
X102720265Y-32878833D01*
X102685190Y-32882835D01*
X102655503Y-32894317D01*
X102629993Y-32913271D01*
X102610066Y-32938165D01*
X102596740Y-32967969D01*
X102590083Y-33003885D01*
X102464836Y-33003885D01*
X102469650Y-32950841D01*
X102483417Y-32905207D01*
X102505733Y-32865560D01*
X102537034Y-32830912D01*
X102574727Y-32803512D01*
X102618785Y-32783419D01*
X102670415Y-32770764D01*
X102731158Y-32766286D01*
X102789084Y-32770470D01*
X102837905Y-32782244D01*
X102879169Y-32800845D01*
X102914096Y-32826076D01*
X102943023Y-32858104D01*
X102963749Y-32895180D01*
X102976601Y-32938301D01*
X102981116Y-32988889D01*
X102977003Y-33037012D01*
X102964386Y-33086249D01*
X102942526Y-33137242D01*
X102913136Y-33186032D01*
X102861370Y-33256393D01*
X102779323Y-33354618D01*
X102677571Y-33472831D01*
X102982191Y-33472831D01*
G37*
G36*
X103227313Y-33384562D02*
G01*
X103248199Y-33417149D01*
X103272029Y-33443396D01*
X103298925Y-33464039D01*
X103329101Y-33479308D01*
X103361354Y-33488474D01*
X103396280Y-33491589D01*
X103435210Y-33488194D01*
X103469017Y-33478463D01*
X103498652Y-33462680D01*
X103524801Y-33440591D01*
X103545939Y-33413693D01*
X103561211Y-33382871D01*
X103570709Y-33347377D01*
X103574040Y-33306209D01*
X103570612Y-33266992D01*
X103560768Y-33232803D01*
X103544775Y-33202706D01*
X103522358Y-33176027D01*
X103495096Y-33154425D01*
X103463984Y-33138856D01*
X103428281Y-33129194D01*
X103386999Y-33125811D01*
X103338059Y-33130247D01*
X103293747Y-33143201D01*
X103253484Y-33164717D01*
X103218032Y-33194785D01*
X103185743Y-33187605D01*
X103285296Y-32781917D01*
X103663726Y-32781917D01*
X103663726Y-32888212D01*
X103363503Y-32888212D01*
X103316461Y-33062259D01*
X103349249Y-33050062D01*
X103379867Y-33041792D01*
X103410579Y-33036800D01*
X103441123Y-33035148D01*
X103497188Y-33040047D01*
X103546028Y-33054110D01*
X103588990Y-33076952D01*
X103627041Y-33108958D01*
X103657915Y-33147876D01*
X103680129Y-33192127D01*
X103693890Y-33242736D01*
X103698702Y-33301080D01*
X103693046Y-33367810D01*
X103676940Y-33424994D01*
X103651022Y-33474378D01*
X103615024Y-33517235D01*
X103570969Y-33551686D01*
X103519888Y-33576715D01*
X103460428Y-33592368D01*
X103390809Y-33597884D01*
X103335999Y-33594467D01*
X103288227Y-33584740D01*
X103246461Y-33569258D01*
X103208023Y-33547020D01*
X103172934Y-33517696D01*
X103140900Y-33480549D01*
X103227313Y-33384562D01*
G37*
G36*
X100174452Y-34122450D02*
G01*
X100221367Y-34129043D01*
X100260311Y-34141714D01*
X100291660Y-34159818D01*
X100324457Y-34191329D01*
X100349351Y-34231919D01*
X100364619Y-34278233D01*
X100369867Y-34330348D01*
X100366326Y-34372381D01*
X100356313Y-34407828D01*
X100340314Y-34437913D01*
X100318063Y-34463433D01*
X100289800Y-34483455D01*
X100254438Y-34498143D01*
X100298484Y-34510311D01*
X100334743Y-34531309D01*
X100364640Y-34561500D01*
X100386465Y-34598339D01*
X100400045Y-34641898D01*
X100404842Y-34693831D01*
X100400567Y-34741210D01*
X100387892Y-34785715D01*
X100367188Y-34826249D01*
X100339776Y-34859672D01*
X100303384Y-34887711D01*
X100258248Y-34906420D01*
X100201340Y-34915865D01*
X100094752Y-34920000D01*
X99891884Y-34920000D01*
X99891884Y-34810579D01*
X100019281Y-34810579D01*
X100064124Y-34810579D01*
X100128178Y-34808983D01*
X100166413Y-34805157D01*
X100198020Y-34797241D01*
X100220000Y-34786154D01*
X100241264Y-34767830D01*
X100257173Y-34743900D01*
X100266967Y-34716245D01*
X100270314Y-34685331D01*
X100266184Y-34649158D01*
X100254438Y-34619190D01*
X100235274Y-34594174D01*
X100209057Y-34575226D01*
X100189559Y-34567382D01*
X100166657Y-34561695D01*
X100103496Y-34557348D01*
X100064124Y-34557348D01*
X100019281Y-34557348D01*
X100019281Y-34810579D01*
X99891884Y-34810579D01*
X99891884Y-34460432D01*
X100019281Y-34460432D01*
X100069057Y-34460432D01*
X100131255Y-34456815D01*
X100173299Y-34447638D01*
X100200558Y-34434836D01*
X100221320Y-34414823D01*
X100234349Y-34386996D01*
X100239148Y-34348618D01*
X100234540Y-34306136D01*
X100222330Y-34276335D01*
X100203586Y-34255806D01*
X100177971Y-34242669D01*
X100135488Y-34232991D01*
X100069057Y-34229085D01*
X100019281Y-34229085D01*
X100019281Y-34460432D01*
X99891884Y-34460432D01*
X99891884Y-34119665D01*
X100093677Y-34119665D01*
X100174452Y-34122450D01*
G37*
G36*
X101014668Y-34920000D02*
G01*
X100895966Y-34920000D01*
X100895966Y-34852588D01*
X100860925Y-34892597D01*
X100821863Y-34919853D01*
X100777242Y-34936188D01*
X100724801Y-34941884D01*
X100671105Y-34936845D01*
X100625316Y-34922473D01*
X100585875Y-34899188D01*
X100551730Y-34866461D01*
X100525237Y-34827375D01*
X100505559Y-34780914D01*
X100493034Y-34725664D01*
X100488791Y-34663154D01*
X100612693Y-34663154D01*
X100617383Y-34717104D01*
X100630157Y-34758716D01*
X100649867Y-34790697D01*
X100677448Y-34815249D01*
X100711761Y-34830256D01*
X100754891Y-34835589D01*
X100795635Y-34830078D01*
X100829910Y-34814126D01*
X100859330Y-34787180D01*
X100880840Y-34752826D01*
X100894388Y-34710708D01*
X100899239Y-34658806D01*
X100894560Y-34606387D01*
X100881731Y-34565430D01*
X100861772Y-34533461D01*
X100834029Y-34508868D01*
X100799787Y-34493880D01*
X100757041Y-34488569D01*
X100714365Y-34493987D01*
X100679732Y-34509379D01*
X100651235Y-34534829D01*
X100630673Y-34567753D01*
X100617490Y-34609707D01*
X100612693Y-34663154D01*
X100488791Y-34663154D01*
X100488569Y-34659881D01*
X100493013Y-34597831D01*
X100505621Y-34544543D01*
X100525696Y-34498585D01*
X100553098Y-34458820D01*
X100588001Y-34425194D01*
X100627059Y-34401598D01*
X100671132Y-34387245D01*
X100721528Y-34382274D01*
X100763085Y-34385452D01*
X100798942Y-34394499D01*
X100830069Y-34408995D01*
X100857406Y-34429366D01*
X100879236Y-34454756D01*
X100895966Y-34485833D01*
X100895966Y-34072770D01*
X101014668Y-34072770D01*
X101014668Y-34920000D01*
G37*
G36*
X101414920Y-34385452D02*
G01*
X101450778Y-34394499D01*
X101481905Y-34408995D01*
X101509242Y-34429366D01*
X101531071Y-34454756D01*
X101547801Y-34485833D01*
X101547801Y-34401032D01*
X101666503Y-34401032D01*
X101666503Y-34920000D01*
X101547801Y-34920000D01*
X101547801Y-34852588D01*
X101512760Y-34892597D01*
X101473698Y-34919853D01*
X101429078Y-34936188D01*
X101376636Y-34941884D01*
X101322941Y-34936845D01*
X101277151Y-34922473D01*
X101237710Y-34899188D01*
X101203565Y-34866461D01*
X101177073Y-34827375D01*
X101157394Y-34780914D01*
X101144869Y-34725664D01*
X101140626Y-34663154D01*
X101264528Y-34663154D01*
X101269218Y-34717104D01*
X101281992Y-34758716D01*
X101301702Y-34790697D01*
X101329283Y-34815249D01*
X101363597Y-34830256D01*
X101406727Y-34835589D01*
X101447072Y-34830074D01*
X101481267Y-34814055D01*
X101510872Y-34786887D01*
X101532581Y-34752369D01*
X101546208Y-34710326D01*
X101551074Y-34658806D01*
X101546396Y-34606387D01*
X101533567Y-34565430D01*
X101513607Y-34533461D01*
X101485864Y-34508868D01*
X101451623Y-34493880D01*
X101408876Y-34488569D01*
X101366200Y-34493987D01*
X101331567Y-34509379D01*
X101303070Y-34534829D01*
X101282508Y-34567753D01*
X101269325Y-34609707D01*
X101264528Y-34663154D01*
X101140626Y-34663154D01*
X101140404Y-34659881D01*
X101144848Y-34597831D01*
X101157456Y-34544543D01*
X101177532Y-34498585D01*
X101204933Y-34458820D01*
X101239836Y-34425194D01*
X101278895Y-34401598D01*
X101322967Y-34387245D01*
X101373363Y-34382274D01*
X101414920Y-34385452D01*
G37*
G36*
X101835959Y-34920000D02*
G01*
X101835959Y-34072770D01*
X101954661Y-34072770D01*
X101954661Y-34920000D01*
X101835959Y-34920000D01*
G37*
G36*
X102419839Y-34387228D02*
G01*
X102471971Y-34401174D01*
X102515873Y-34423303D01*
X102552909Y-34453593D01*
X102582495Y-34491126D01*
X102604238Y-34535892D01*
X102618006Y-34589334D01*
X102622909Y-34653335D01*
X102622909Y-34676147D01*
X102208381Y-34676147D01*
X102215673Y-34723787D01*
X102230280Y-34761455D01*
X102251563Y-34791186D01*
X102279796Y-34813819D01*
X102313691Y-34827609D01*
X102354926Y-34832463D01*
X102392556Y-34829516D01*
X102424088Y-34821224D01*
X102450621Y-34808087D01*
X102473910Y-34789593D01*
X102496147Y-34763810D01*
X102517348Y-34729295D01*
X102617438Y-34785861D01*
X102584834Y-34835386D01*
X102548782Y-34874057D01*
X102509141Y-34903293D01*
X102464662Y-34924361D01*
X102414561Y-34937362D01*
X102357662Y-34941884D01*
X102296195Y-34936715D01*
X102243629Y-34922014D01*
X102198340Y-34898390D01*
X102159141Y-34865631D01*
X102127566Y-34825459D01*
X102104665Y-34779012D01*
X102090364Y-34725084D01*
X102085331Y-34662079D01*
X102090392Y-34601926D01*
X102092341Y-34594863D01*
X102216001Y-34594863D01*
X102499860Y-34594863D01*
X102491518Y-34559984D01*
X102477238Y-34532568D01*
X102457166Y-34511137D01*
X102431969Y-34495742D01*
X102400125Y-34485891D01*
X102359860Y-34482316D01*
X102321763Y-34485734D01*
X102290892Y-34495257D01*
X102265778Y-34510307D01*
X102245192Y-34531162D01*
X102228532Y-34558842D01*
X102216001Y-34594863D01*
X102092341Y-34594863D01*
X102104941Y-34549202D01*
X102128564Y-34502563D01*
X102161584Y-34461018D01*
X102202149Y-34426773D01*
X102247632Y-34402414D01*
X102299012Y-34387467D01*
X102357662Y-34382274D01*
X102419839Y-34387228D01*
G37*
G36*
X103536720Y-34510453D02*
G01*
X103853893Y-34510453D01*
X103854431Y-34533412D01*
X103856092Y-34585924D01*
X103851737Y-34654200D01*
X103839367Y-34713341D01*
X103819714Y-34764710D01*
X103793071Y-34809443D01*
X103759274Y-34848387D01*
X103719353Y-34880733D01*
X103673173Y-34906444D01*
X103619796Y-34925539D01*
X103558015Y-34937618D01*
X103486406Y-34941884D01*
X103421267Y-34938457D01*
X103363033Y-34928617D01*
X103310844Y-34912868D01*
X103261504Y-34890200D01*
X103216631Y-34861102D01*
X103175778Y-34825282D01*
X103140938Y-34784511D01*
X103111911Y-34739223D01*
X103088534Y-34688946D01*
X103071798Y-34635998D01*
X103061645Y-34580309D01*
X103058199Y-34521395D01*
X103061746Y-34461404D01*
X103072116Y-34405752D01*
X103089071Y-34353845D01*
X103112949Y-34304840D01*
X103143377Y-34259898D01*
X103180711Y-34218632D01*
X103221847Y-34183440D01*
X103267443Y-34154306D01*
X103317976Y-34131046D01*
X103371205Y-34114420D01*
X103427189Y-34104331D01*
X103486406Y-34100907D01*
X103548721Y-34104948D01*
X103604841Y-34116630D01*
X103655666Y-34135540D01*
X103702841Y-34162159D01*
X103747130Y-34197221D01*
X103788827Y-34241591D01*
X103693670Y-34313496D01*
X103664970Y-34284059D01*
X103634587Y-34260709D01*
X103602323Y-34242909D01*
X103567732Y-34230202D01*
X103530004Y-34222394D01*
X103488604Y-34219706D01*
X103424763Y-34225250D01*
X103369005Y-34241178D01*
X103319832Y-34267063D01*
X103276161Y-34303335D01*
X103240638Y-34347528D01*
X103215134Y-34397663D01*
X103199361Y-34454889D01*
X103193852Y-34520760D01*
X103199378Y-34587798D01*
X103215185Y-34645948D01*
X103240700Y-34696792D01*
X103276161Y-34741507D01*
X103319889Y-34778237D01*
X103369248Y-34804450D01*
X103425347Y-34820589D01*
X103489727Y-34826210D01*
X103545784Y-34822499D01*
X103592772Y-34812104D01*
X103632185Y-34795810D01*
X103665240Y-34773942D01*
X103693122Y-34745583D01*
X103712860Y-34713012D01*
X103724990Y-34675392D01*
X103729232Y-34631451D01*
X103729232Y-34619874D01*
X103536720Y-34619874D01*
X103536720Y-34510453D01*
G37*
G36*
X104219219Y-34385452D02*
G01*
X104255076Y-34394499D01*
X104286203Y-34408995D01*
X104313540Y-34429366D01*
X104335370Y-34454756D01*
X104352100Y-34485833D01*
X104352100Y-34401032D01*
X104470802Y-34401032D01*
X104470802Y-34920000D01*
X104352100Y-34920000D01*
X104352100Y-34852588D01*
X104317059Y-34892597D01*
X104277997Y-34919853D01*
X104233376Y-34936188D01*
X104180935Y-34941884D01*
X104127239Y-34936845D01*
X104081450Y-34922473D01*
X104042009Y-34899188D01*
X104007864Y-34866461D01*
X103981371Y-34827375D01*
X103961693Y-34780914D01*
X103949168Y-34725664D01*
X103944925Y-34663154D01*
X104068827Y-34663154D01*
X104073517Y-34717104D01*
X104086291Y-34758716D01*
X104106001Y-34790697D01*
X104133582Y-34815249D01*
X104167895Y-34830256D01*
X104211025Y-34835589D01*
X104251371Y-34830074D01*
X104285566Y-34814055D01*
X104315170Y-34786887D01*
X104336880Y-34752369D01*
X104350507Y-34710326D01*
X104355373Y-34658806D01*
X104350694Y-34606387D01*
X104337865Y-34565430D01*
X104317906Y-34533461D01*
X104290163Y-34508868D01*
X104255921Y-34493880D01*
X104213175Y-34488569D01*
X104170499Y-34493987D01*
X104135866Y-34509379D01*
X104107369Y-34534829D01*
X104086807Y-34567753D01*
X104073624Y-34609707D01*
X104068827Y-34663154D01*
X103944925Y-34663154D01*
X103944703Y-34659881D01*
X103949147Y-34597831D01*
X103961755Y-34544543D01*
X103981830Y-34498585D01*
X104009232Y-34458820D01*
X104044135Y-34425194D01*
X104083193Y-34401598D01*
X104127266Y-34387245D01*
X104177662Y-34382274D01*
X104219219Y-34385452D01*
G37*
G36*
X104753489Y-34483293D02*
G01*
X104768521Y-34450249D01*
X104785423Y-34425292D01*
X104804047Y-34406992D01*
X104826173Y-34393495D01*
X104851862Y-34385186D01*
X104882009Y-34382274D01*
X104906915Y-34383886D01*
X104931444Y-34388722D01*
X104979316Y-34407480D01*
X104936671Y-34506838D01*
X104920725Y-34497284D01*
X104903600Y-34490669D01*
X104863935Y-34485443D01*
X104827379Y-34491012D01*
X104799889Y-34506636D01*
X104779183Y-34532875D01*
X104766400Y-34565921D01*
X104757143Y-34616882D01*
X104753489Y-34692023D01*
X104753489Y-34920000D01*
X104634787Y-34920000D01*
X104634787Y-34401032D01*
X104753489Y-34401032D01*
X104753489Y-34483293D01*
G37*
G36*
X105165380Y-34485833D02*
G01*
X105182104Y-34455125D01*
X105204095Y-34429812D01*
X105231814Y-34409288D01*
X105263301Y-34394608D01*
X105299349Y-34385474D01*
X105340893Y-34382274D01*
X105391004Y-34387239D01*
X105434847Y-34401581D01*
X105473726Y-34425174D01*
X105508492Y-34458820D01*
X105535782Y-34498570D01*
X105555783Y-34544523D01*
X105568347Y-34597816D01*
X105572777Y-34659881D01*
X105568312Y-34725664D01*
X105555787Y-34780914D01*
X105536108Y-34827375D01*
X105509616Y-34866461D01*
X105475471Y-34899188D01*
X105436030Y-34922473D01*
X105390240Y-34936845D01*
X105336545Y-34941884D01*
X105284096Y-34936189D01*
X105239434Y-34919853D01*
X105200412Y-34892601D01*
X105165380Y-34852588D01*
X105165380Y-34920000D01*
X105046678Y-34920000D01*
X105046678Y-34658806D01*
X105161521Y-34658806D01*
X105166444Y-34710287D01*
X105180242Y-34752330D01*
X105202260Y-34786887D01*
X105232206Y-34814039D01*
X105266775Y-34830069D01*
X105307529Y-34835589D01*
X105350289Y-34830263D01*
X105384332Y-34815267D01*
X105411723Y-34790697D01*
X105431295Y-34758735D01*
X105443990Y-34717124D01*
X105448653Y-34663154D01*
X105443851Y-34609710D01*
X105430652Y-34567757D01*
X105410062Y-34534829D01*
X105381565Y-34509379D01*
X105346932Y-34493987D01*
X105304256Y-34488569D01*
X105261500Y-34493873D01*
X105227152Y-34508857D01*
X105199232Y-34533461D01*
X105179134Y-34565450D01*
X105166226Y-34606407D01*
X105161521Y-34658806D01*
X105046678Y-34658806D01*
X105046678Y-34072770D01*
X105165380Y-34072770D01*
X105165380Y-34485833D01*
G37*
G36*
X105994773Y-34387228D02*
G01*
X106046904Y-34401174D01*
X106090806Y-34423303D01*
X106127843Y-34453593D01*
X106157429Y-34491126D01*
X106179172Y-34535892D01*
X106192939Y-34589334D01*
X106197843Y-34653335D01*
X106197843Y-34676147D01*
X105783314Y-34676147D01*
X105790607Y-34723787D01*
X105805213Y-34761455D01*
X105826496Y-34791186D01*
X105854729Y-34813819D01*
X105888625Y-34827609D01*
X105929860Y-34832463D01*
X105967490Y-34829516D01*
X105999022Y-34821224D01*
X106025554Y-34808087D01*
X106048844Y-34789593D01*
X106071080Y-34763810D01*
X106092281Y-34729295D01*
X106192372Y-34785861D01*
X106159768Y-34835386D01*
X106123716Y-34874057D01*
X106084075Y-34903293D01*
X106039596Y-34924361D01*
X105989494Y-34937362D01*
X105932595Y-34941884D01*
X105871129Y-34936715D01*
X105818562Y-34922014D01*
X105773273Y-34898390D01*
X105734075Y-34865631D01*
X105702499Y-34825459D01*
X105679599Y-34779012D01*
X105665298Y-34725084D01*
X105660265Y-34662079D01*
X105665326Y-34601926D01*
X105667275Y-34594863D01*
X105790935Y-34594863D01*
X106074794Y-34594863D01*
X106066452Y-34559984D01*
X106052171Y-34532568D01*
X106032100Y-34511137D01*
X106006902Y-34495742D01*
X105975059Y-34485891D01*
X105934794Y-34482316D01*
X105896697Y-34485734D01*
X105865825Y-34495257D01*
X105840711Y-34510307D01*
X105820125Y-34531162D01*
X105803466Y-34558842D01*
X105790935Y-34594863D01*
X105667275Y-34594863D01*
X105679875Y-34549202D01*
X105703498Y-34502563D01*
X105736517Y-34461018D01*
X105777083Y-34426773D01*
X105822566Y-34402414D01*
X105873946Y-34387467D01*
X105932595Y-34382274D01*
X105994773Y-34387228D01*
G37*
G36*
X106616908Y-34387228D02*
G01*
X106669040Y-34401174D01*
X106712942Y-34423303D01*
X106749979Y-34453593D01*
X106779564Y-34491126D01*
X106801308Y-34535892D01*
X106815075Y-34589334D01*
X106819979Y-34653335D01*
X106819979Y-34676147D01*
X106405450Y-34676147D01*
X106412742Y-34723787D01*
X106427349Y-34761455D01*
X106448632Y-34791186D01*
X106476865Y-34813819D01*
X106510760Y-34827609D01*
X106551995Y-34832463D01*
X106589625Y-34829516D01*
X106621157Y-34821224D01*
X106647690Y-34808087D01*
X106670979Y-34789593D01*
X106693216Y-34763810D01*
X106714417Y-34729295D01*
X106814508Y-34785861D01*
X106781903Y-34835386D01*
X106745851Y-34874057D01*
X106706210Y-34903293D01*
X106661731Y-34924361D01*
X106611630Y-34937362D01*
X106554731Y-34941884D01*
X106493265Y-34936715D01*
X106440698Y-34922014D01*
X106395409Y-34898390D01*
X106356210Y-34865631D01*
X106324635Y-34825459D01*
X106301734Y-34779012D01*
X106287434Y-34725084D01*
X106282400Y-34662079D01*
X106287461Y-34601926D01*
X106289410Y-34594863D01*
X106413070Y-34594863D01*
X106696929Y-34594863D01*
X106688587Y-34559984D01*
X106674307Y-34532568D01*
X106654235Y-34511137D01*
X106629038Y-34495742D01*
X106597194Y-34485891D01*
X106556929Y-34482316D01*
X106518832Y-34485734D01*
X106487961Y-34495257D01*
X106462847Y-34510307D01*
X106442261Y-34531162D01*
X106425601Y-34558842D01*
X106413070Y-34594863D01*
X106289410Y-34594863D01*
X106302010Y-34549202D01*
X106325633Y-34502563D01*
X106358653Y-34461018D01*
X106399218Y-34426773D01*
X106444701Y-34402414D01*
X106496081Y-34387467D01*
X106554731Y-34382274D01*
X106616908Y-34387228D01*
G37*
G36*
X99891884Y-36264000D02*
G01*
X99891884Y-35463665D01*
X100022016Y-35463665D01*
X100022016Y-35794956D01*
X100309685Y-35463665D01*
X100468834Y-35463665D01*
X100151660Y-35819575D01*
X100506545Y-36264000D01*
X100338653Y-36264000D01*
X100022016Y-35855088D01*
X100022016Y-36264000D01*
X99891884Y-36264000D01*
G37*
G36*
X100868492Y-35466450D02*
G01*
X100915408Y-35473043D01*
X100954352Y-35485714D01*
X100985701Y-35503818D01*
X101018498Y-35535329D01*
X101043391Y-35575919D01*
X101058659Y-35622233D01*
X101063907Y-35674348D01*
X101060366Y-35716381D01*
X101050353Y-35751828D01*
X101034354Y-35781913D01*
X101012103Y-35807433D01*
X100983841Y-35827455D01*
X100948478Y-35842143D01*
X100992524Y-35854311D01*
X101028783Y-35875309D01*
X101058681Y-35905500D01*
X101080506Y-35942339D01*
X101094085Y-35985898D01*
X101098883Y-36037831D01*
X101094608Y-36085210D01*
X101081933Y-36129715D01*
X101061228Y-36170249D01*
X101033817Y-36203672D01*
X100997425Y-36231711D01*
X100952288Y-36250420D01*
X100895381Y-36259865D01*
X100788792Y-36264000D01*
X100585924Y-36264000D01*
X100585924Y-36154579D01*
X100713321Y-36154579D01*
X100758164Y-36154579D01*
X100822219Y-36152983D01*
X100860453Y-36149157D01*
X100892061Y-36141241D01*
X100914040Y-36130154D01*
X100935305Y-36111830D01*
X100951214Y-36087900D01*
X100961007Y-36060245D01*
X100964354Y-36029331D01*
X100960225Y-35993158D01*
X100948478Y-35963190D01*
X100929315Y-35938174D01*
X100903098Y-35919226D01*
X100883600Y-35911382D01*
X100860697Y-35905695D01*
X100797536Y-35901348D01*
X100758164Y-35901348D01*
X100713321Y-35901348D01*
X100713321Y-36154579D01*
X100585924Y-36154579D01*
X100585924Y-35804432D01*
X100713321Y-35804432D01*
X100763098Y-35804432D01*
X100825295Y-35800815D01*
X100867339Y-35791638D01*
X100894598Y-35778836D01*
X100915361Y-35758823D01*
X100928389Y-35730996D01*
X100933189Y-35692618D01*
X100928580Y-35650136D01*
X100916370Y-35620335D01*
X100897627Y-35599806D01*
X100872012Y-35586669D01*
X100829529Y-35576991D01*
X100763098Y-35573085D01*
X100713321Y-35573085D01*
X100713321Y-35804432D01*
X100585924Y-35804432D01*
X100585924Y-35463665D01*
X100787718Y-35463665D01*
X100868492Y-35466450D01*
G37*
G36*
X101532427Y-35458928D02*
G01*
X101579560Y-35472258D01*
X101621096Y-35493902D01*
X101657955Y-35524193D01*
X101690635Y-35564146D01*
X101715421Y-35607605D01*
X101735822Y-35659336D01*
X101751395Y-35720658D01*
X101761441Y-35793084D01*
X101765031Y-35878291D01*
X101759454Y-35975285D01*
X101743943Y-36055837D01*
X101719917Y-36122564D01*
X101688192Y-36177684D01*
X101654590Y-36217182D01*
X101617289Y-36247062D01*
X101575832Y-36268332D01*
X101529388Y-36281367D01*
X101476824Y-36285884D01*
X101423564Y-36281298D01*
X101376763Y-36268095D01*
X101335228Y-36246596D01*
X101298089Y-36216440D01*
X101264870Y-36176609D01*
X101239446Y-36133132D01*
X101218657Y-36081958D01*
X101202881Y-36021905D01*
X101192758Y-35951609D01*
X101189226Y-35871159D01*
X101319288Y-35871159D01*
X101322354Y-35946582D01*
X101330739Y-36007604D01*
X101343386Y-36056481D01*
X101359490Y-36095228D01*
X101383058Y-36130932D01*
X101409659Y-36154668D01*
X101439760Y-36168581D01*
X101474626Y-36173337D01*
X101512190Y-36168538D01*
X101543901Y-36154689D01*
X101571185Y-36131471D01*
X101594647Y-36097133D01*
X101610566Y-36059401D01*
X101623225Y-36010475D01*
X101631715Y-35947922D01*
X101634849Y-35869010D01*
X101631800Y-35792595D01*
X101623487Y-35731207D01*
X101611003Y-35682444D01*
X101595184Y-35644160D01*
X101571937Y-35608964D01*
X101545379Y-35585452D01*
X101515009Y-35571593D01*
X101479511Y-35566833D01*
X101442284Y-35571650D01*
X101410705Y-35585594D01*
X101383382Y-35609053D01*
X101359734Y-35643867D01*
X101343656Y-35682015D01*
X101330924Y-35731035D01*
X101322418Y-35793223D01*
X101319288Y-35871159D01*
X101189226Y-35871159D01*
X101189155Y-35869547D01*
X101192779Y-35788302D01*
X101202975Y-35718503D01*
X101218895Y-35658678D01*
X101239923Y-35607507D01*
X101265701Y-35563853D01*
X101299257Y-35523879D01*
X101336653Y-35493632D01*
X101378358Y-35472088D01*
X101425228Y-35458871D01*
X101478436Y-35454286D01*
X101532427Y-35458928D01*
G37*
G36*
X102350286Y-35854453D02*
G01*
X102667459Y-35854453D01*
X102667997Y-35877412D01*
X102669658Y-35929924D01*
X102665303Y-35998200D01*
X102652933Y-36057341D01*
X102633280Y-36108710D01*
X102606637Y-36153443D01*
X102572840Y-36192387D01*
X102532919Y-36224733D01*
X102486739Y-36250444D01*
X102433362Y-36269539D01*
X102371581Y-36281618D01*
X102299972Y-36285884D01*
X102234833Y-36282457D01*
X102176599Y-36272617D01*
X102124410Y-36256868D01*
X102075070Y-36234200D01*
X102030197Y-36205102D01*
X101989344Y-36169282D01*
X101954504Y-36128511D01*
X101925477Y-36083223D01*
X101902100Y-36032946D01*
X101885364Y-35979998D01*
X101875211Y-35924309D01*
X101871765Y-35865395D01*
X101875312Y-35805404D01*
X101885682Y-35749752D01*
X101902637Y-35697845D01*
X101926515Y-35648840D01*
X101956943Y-35603898D01*
X101994277Y-35562632D01*
X102035413Y-35527440D01*
X102081009Y-35498306D01*
X102131542Y-35475046D01*
X102184770Y-35458420D01*
X102240755Y-35448331D01*
X102299972Y-35444907D01*
X102362287Y-35448948D01*
X102418407Y-35460630D01*
X102469232Y-35479540D01*
X102516407Y-35506159D01*
X102560696Y-35541221D01*
X102602393Y-35585591D01*
X102507236Y-35657496D01*
X102478536Y-35628059D01*
X102448153Y-35604709D01*
X102415889Y-35586909D01*
X102381298Y-35574202D01*
X102343570Y-35566394D01*
X102302170Y-35563706D01*
X102238329Y-35569250D01*
X102182571Y-35585178D01*
X102133398Y-35611063D01*
X102089727Y-35647335D01*
X102054204Y-35691528D01*
X102028700Y-35741663D01*
X102012927Y-35798889D01*
X102007418Y-35864760D01*
X102012944Y-35931798D01*
X102028751Y-35989948D01*
X102054266Y-36040792D01*
X102089727Y-36085507D01*
X102133455Y-36122237D01*
X102182814Y-36148450D01*
X102238913Y-36164589D01*
X102303293Y-36170210D01*
X102359350Y-36166499D01*
X102406338Y-36156104D01*
X102445751Y-36139810D01*
X102478806Y-36117942D01*
X102506688Y-36089583D01*
X102526426Y-36057012D01*
X102538556Y-36019392D01*
X102542798Y-35975451D01*
X102542798Y-35963874D01*
X102350286Y-35963874D01*
X102350286Y-35854453D01*
G37*
G36*
X95565287Y-34391983D02*
G01*
X95493404Y-34340015D01*
X95419352Y-34303811D01*
X95340787Y-34281837D01*
X95257663Y-34274441D01*
X95177184Y-34281433D01*
X95107066Y-34301502D01*
X95045389Y-34334085D01*
X94990767Y-34379710D01*
X94946350Y-34435273D01*
X94914467Y-34498202D01*
X94894759Y-34569919D01*
X94887880Y-34652346D01*
X94894518Y-34731977D01*
X94913619Y-34801976D01*
X94944649Y-34864071D01*
X94988019Y-34919548D01*
X95041414Y-34965614D01*
X95100446Y-34998121D01*
X95166292Y-35017918D01*
X95240627Y-35024755D01*
X95299256Y-35021225D01*
X95355486Y-35010756D01*
X95409766Y-34993370D01*
X95461626Y-34969366D01*
X95512938Y-34937906D01*
X95563944Y-34898359D01*
X95563944Y-35083373D01*
X95495380Y-35124647D01*
X95421062Y-35153899D01*
X95341727Y-35171185D01*
X95253572Y-35177163D01*
X95177719Y-35172849D01*
X95107206Y-35160232D01*
X95041325Y-35139610D01*
X94978879Y-35110514D01*
X94921964Y-35073699D01*
X94870050Y-35028846D01*
X94825144Y-34978299D01*
X94787736Y-34922113D01*
X94757576Y-34859708D01*
X94735872Y-34793759D01*
X94722754Y-34724800D01*
X94718314Y-34652224D01*
X94722770Y-34579657D01*
X94735916Y-34510949D01*
X94757637Y-34445472D01*
X94787811Y-34383522D01*
X94825638Y-34327067D01*
X94871454Y-34275601D01*
X94923735Y-34230267D01*
X94980527Y-34193165D01*
X95042302Y-34163921D01*
X95107543Y-34143016D01*
X95176828Y-34130281D01*
X95250825Y-34125941D01*
X95337503Y-34132325D01*
X95418986Y-34151160D01*
X95497015Y-34182487D01*
X95574202Y-34227547D01*
X95565287Y-34391983D01*
G37*
G36*
X96143549Y-34143468D02*
G01*
X96202464Y-34160131D01*
X96254385Y-34187185D01*
X96300459Y-34225050D01*
X96341308Y-34274991D01*
X96372291Y-34329314D01*
X96397792Y-34393978D01*
X96417259Y-34470631D01*
X96429816Y-34561163D01*
X96434303Y-34667672D01*
X96427332Y-34788914D01*
X96407943Y-34889604D01*
X96377911Y-34973013D01*
X96338255Y-35041913D01*
X96296252Y-35091285D01*
X96249627Y-35128636D01*
X96197804Y-35155223D01*
X96139749Y-35171517D01*
X96074045Y-35177163D01*
X96007470Y-35171431D01*
X95948969Y-35154927D01*
X95897049Y-35128053D01*
X95850625Y-35090358D01*
X95809103Y-35040570D01*
X95777323Y-34986223D01*
X95751335Y-34922256D01*
X95731617Y-34847190D01*
X95718962Y-34759319D01*
X95714547Y-34658757D01*
X95877124Y-34658757D01*
X95880957Y-34753036D01*
X95891438Y-34829314D01*
X95907247Y-34890410D01*
X95927377Y-34938843D01*
X95956837Y-34983474D01*
X95990089Y-35013143D01*
X96027715Y-35030534D01*
X96071297Y-35036479D01*
X96118252Y-35030481D01*
X96157892Y-35013169D01*
X96191996Y-34984147D01*
X96221324Y-34941224D01*
X96241222Y-34894060D01*
X96257046Y-34832902D01*
X96267659Y-34754711D01*
X96271577Y-34656071D01*
X96267764Y-34560551D01*
X96257374Y-34483816D01*
X96241769Y-34422863D01*
X96221995Y-34375008D01*
X96192936Y-34331013D01*
X96159738Y-34301623D01*
X96121776Y-34284299D01*
X96077403Y-34278349D01*
X96030869Y-34284371D01*
X95991396Y-34301801D01*
X95957242Y-34331124D01*
X95927683Y-34374642D01*
X95907585Y-34422327D01*
X95891670Y-34483602D01*
X95881037Y-34561337D01*
X95877124Y-34658757D01*
X95714547Y-34658757D01*
X95714459Y-34656742D01*
X95718988Y-34555186D01*
X95731734Y-34467937D01*
X95751634Y-34393155D01*
X95777919Y-34329192D01*
X95810141Y-34274624D01*
X95852086Y-34224657D01*
X95898831Y-34186849D01*
X95950962Y-34159918D01*
X96009549Y-34143397D01*
X96076060Y-34137665D01*
X96143549Y-34143468D01*
G37*
G36*
X103710764Y-47229581D02*
G01*
X103871414Y-47229581D01*
X103871414Y-47837440D01*
X103876010Y-47905890D01*
X103888666Y-47961071D01*
X103908155Y-48005404D01*
X103933941Y-48040833D01*
X103967254Y-48069373D01*
X104008321Y-48090485D01*
X104058805Y-48103991D01*
X104120908Y-48108855D01*
X104182643Y-48104000D01*
X104232900Y-48090509D01*
X104273855Y-48069399D01*
X104307144Y-48040833D01*
X104332957Y-48005400D01*
X104352464Y-47961065D01*
X104365132Y-47905885D01*
X104369731Y-47837440D01*
X104369731Y-47229581D01*
X104532397Y-47229581D01*
X104532397Y-47852461D01*
X104527563Y-47935858D01*
X104514029Y-48006111D01*
X104492908Y-48065226D01*
X104464823Y-48114906D01*
X104429876Y-48156482D01*
X104387809Y-48190741D01*
X104337434Y-48218367D01*
X104277368Y-48239200D01*
X104205871Y-48252574D01*
X104120908Y-48257355D01*
X104035890Y-48252581D01*
X103964456Y-48239236D01*
X103904547Y-48218466D01*
X103854399Y-48190948D01*
X103812613Y-48156849D01*
X103777954Y-48115439D01*
X103750062Y-48065833D01*
X103729056Y-48006674D01*
X103715580Y-47936228D01*
X103710764Y-47852461D01*
X103710764Y-47229581D01*
G37*
G36*
X104698848Y-48031980D02*
G01*
X104828785Y-47972079D01*
X104845022Y-48014034D01*
X104867534Y-48047490D01*
X104896441Y-48073806D01*
X104930866Y-48092701D01*
X104972246Y-48104611D01*
X105022226Y-48108855D01*
X105068967Y-48103989D01*
X105106700Y-48090359D01*
X105137386Y-48068494D01*
X105160780Y-48039108D01*
X105175081Y-48003620D01*
X105180129Y-47960233D01*
X105172829Y-47921721D01*
X105149617Y-47883546D01*
X105105821Y-47844066D01*
X105033827Y-47802758D01*
X105002381Y-47787676D01*
X104892969Y-47728643D01*
X104822979Y-47680469D01*
X104781891Y-47641313D01*
X104751635Y-47595028D01*
X104733255Y-47542233D01*
X104726875Y-47481151D01*
X104732356Y-47421139D01*
X104748106Y-47368916D01*
X104773770Y-47322977D01*
X104809918Y-47282276D01*
X104853469Y-47249695D01*
X104903414Y-47226053D01*
X104960955Y-47211310D01*
X105027660Y-47206133D01*
X105100479Y-47211335D01*
X105161561Y-47225937D01*
X105212918Y-47248937D01*
X105257775Y-47281850D01*
X105291860Y-47322461D01*
X105316172Y-47371852D01*
X105188982Y-47436699D01*
X105156233Y-47395080D01*
X105122976Y-47368433D01*
X105085011Y-47352363D01*
X105040666Y-47346817D01*
X104998161Y-47350984D01*
X104963990Y-47362600D01*
X104936374Y-47381072D01*
X104915147Y-47406117D01*
X104902296Y-47436177D01*
X104897784Y-47472786D01*
X104902854Y-47503652D01*
X104918892Y-47534984D01*
X104948578Y-47567964D01*
X104996208Y-47603269D01*
X105067349Y-47641130D01*
X105087866Y-47650717D01*
X105185346Y-47701171D01*
X105250647Y-47745503D01*
X105291564Y-47784439D01*
X105321886Y-47830657D01*
X105340453Y-47884358D01*
X105346946Y-47947533D01*
X105340897Y-48017529D01*
X105323676Y-48077366D01*
X105295947Y-48128930D01*
X105257370Y-48173579D01*
X105210419Y-48209184D01*
X105155530Y-48235208D01*
X105091178Y-48251569D01*
X105015387Y-48257355D01*
X104931963Y-48250275D01*
X104863059Y-48230430D01*
X104805887Y-48198981D01*
X104768963Y-48167075D01*
X104739000Y-48129163D01*
X104715599Y-48084503D01*
X104698848Y-48031980D01*
G37*
G36*
X105877416Y-47233062D02*
G01*
X105936060Y-47241304D01*
X105984740Y-47257142D01*
X106023927Y-47279773D01*
X106064923Y-47319161D01*
X106096039Y-47369898D01*
X106115125Y-47427792D01*
X106121685Y-47492936D01*
X106117258Y-47545477D01*
X106104742Y-47589786D01*
X106084743Y-47627391D01*
X106056930Y-47659292D01*
X106021601Y-47684319D01*
X105977398Y-47702679D01*
X106032456Y-47717888D01*
X106077780Y-47744137D01*
X106115151Y-47781875D01*
X106142433Y-47827924D01*
X106159407Y-47882373D01*
X106165404Y-47947288D01*
X106160060Y-48006513D01*
X106144216Y-48062144D01*
X106118336Y-48112811D01*
X106084071Y-48154590D01*
X106038582Y-48189638D01*
X105982161Y-48213025D01*
X105911026Y-48224831D01*
X105777791Y-48230000D01*
X105524206Y-48230000D01*
X105524206Y-48093224D01*
X105683452Y-48093224D01*
X105739506Y-48093224D01*
X105819574Y-48091229D01*
X105867367Y-48086446D01*
X105906876Y-48076551D01*
X105934351Y-48062693D01*
X105960932Y-48039787D01*
X105980818Y-48009876D01*
X105993059Y-47975307D01*
X105997243Y-47936664D01*
X105992081Y-47891447D01*
X105977398Y-47853988D01*
X105953444Y-47822718D01*
X105920673Y-47799033D01*
X105896300Y-47789228D01*
X105867672Y-47782119D01*
X105788721Y-47776685D01*
X105739506Y-47776685D01*
X105683452Y-47776685D01*
X105683452Y-48093224D01*
X105524206Y-48093224D01*
X105524206Y-47655540D01*
X105683452Y-47655540D01*
X105745673Y-47655540D01*
X105823419Y-47651019D01*
X105875974Y-47639548D01*
X105910048Y-47623545D01*
X105936001Y-47598529D01*
X105952287Y-47563746D01*
X105958286Y-47515772D01*
X105952526Y-47462670D01*
X105937263Y-47425418D01*
X105913834Y-47399757D01*
X105881815Y-47383336D01*
X105828711Y-47371239D01*
X105745673Y-47366357D01*
X105683452Y-47366357D01*
X105683452Y-47655540D01*
X105524206Y-47655540D01*
X105524206Y-47229581D01*
X105776448Y-47229581D01*
X105877416Y-47233062D01*
G37*
G36*
X98839855Y-52996769D02*
G01*
X98831001Y-52932472D01*
X98821415Y-52859993D01*
X98803952Y-52928381D01*
X98775619Y-52998112D01*
X98513791Y-53530195D01*
X98251963Y-52987182D01*
X98223569Y-52922214D01*
X98202748Y-52859993D01*
X98197619Y-52926000D01*
X98184307Y-52998112D01*
X98076963Y-53491117D01*
X97927242Y-53491117D01*
X98163791Y-52447711D01*
X98459081Y-53079506D01*
X98479902Y-53129393D01*
X98513791Y-53215550D01*
X98558915Y-53106190D01*
X98571188Y-53078835D01*
X98859700Y-52447711D01*
X99101684Y-53491117D01*
X98950619Y-53491117D01*
X98839855Y-52996769D01*
G37*
G36*
X99785564Y-52979183D02*
G01*
X100182031Y-52979183D01*
X100182702Y-53007882D01*
X100184778Y-53073522D01*
X100179335Y-53158867D01*
X100163873Y-53232793D01*
X100139307Y-53297005D01*
X100106002Y-53352921D01*
X100063756Y-53401601D01*
X100013855Y-53442034D01*
X99956131Y-53474172D01*
X99889409Y-53498041D01*
X99812182Y-53513140D01*
X99722671Y-53518472D01*
X99641248Y-53514188D01*
X99568455Y-53501889D01*
X99503219Y-53482202D01*
X99441544Y-53453867D01*
X99385452Y-53417494D01*
X99334386Y-53372720D01*
X99290837Y-53321755D01*
X99254552Y-53265145D01*
X99225332Y-53202299D01*
X99204411Y-53136115D01*
X99191720Y-53066504D01*
X99187413Y-52992861D01*
X99191847Y-52917872D01*
X99204809Y-52848307D01*
X99226003Y-52783423D01*
X99255850Y-52722167D01*
X99293885Y-52665989D01*
X99340553Y-52614407D01*
X99391972Y-52570417D01*
X99448968Y-52534000D01*
X99512134Y-52504925D01*
X99578670Y-52484142D01*
X99648650Y-52471531D01*
X99722671Y-52467250D01*
X99800565Y-52472303D01*
X99870715Y-52486904D01*
X99934246Y-52510543D01*
X99993215Y-52543815D01*
X100048577Y-52587644D01*
X100100698Y-52643105D01*
X99981752Y-52732987D01*
X99945877Y-52696191D01*
X99907898Y-52667003D01*
X99867568Y-52644754D01*
X99824329Y-52628869D01*
X99777170Y-52619110D01*
X99725419Y-52615750D01*
X99645617Y-52622680D01*
X99575920Y-52642590D01*
X99514454Y-52674946D01*
X99459866Y-52720286D01*
X99415462Y-52775527D01*
X99383581Y-52838196D01*
X99363865Y-52909728D01*
X99356978Y-52992067D01*
X99363887Y-53075865D01*
X99383645Y-53148552D01*
X99415539Y-53212107D01*
X99459866Y-53268001D01*
X99514525Y-53313913D01*
X99576223Y-53346680D01*
X99646347Y-53366853D01*
X99726823Y-53373880D01*
X99796894Y-53369241D01*
X99855629Y-53356247D01*
X99904895Y-53335879D01*
X99946214Y-53308545D01*
X99981067Y-53273096D01*
X100005739Y-53232383D01*
X100020902Y-53185357D01*
X100026204Y-53130431D01*
X100026204Y-53115959D01*
X99785564Y-53115959D01*
X99785564Y-52979183D01*
G37*
D11*
%TO.C,U9*%
X100520001Y-47480000D02*
X99840000Y-47480000D01*
X100180000Y-47010000D01*
X100520001Y-47480000D01*
G36*
X100520001Y-47480000D02*
G01*
X99840000Y-47480000D01*
X100180000Y-47010000D01*
X100520001Y-47480000D01*
G37*
X99540000Y-47460000D02*
X99090000Y-47460000D01*
X99540000Y-47010000D02*
X99540000Y-47460000D01*
X99540000Y-40240000D02*
X99540000Y-40690000D01*
X99090000Y-40240000D02*
X99540000Y-40240000D01*
X92770000Y-47460000D02*
X92320000Y-47460000D01*
X92320000Y-47460000D02*
X92320000Y-47010000D01*
X92320000Y-40690000D02*
X92320000Y-40240000D01*
X92320000Y-40240000D02*
X92770000Y-40240000D01*
%TO.C,C44*%
X103246013Y-51018830D02*
X103246013Y-51234502D01*
X103966013Y-51018830D02*
X103966013Y-51234502D01*
%TO.C,J10*%
X103563457Y-39884765D02*
X103563457Y-40934765D01*
X103563457Y-40934765D02*
X102573457Y-40934765D01*
X103563457Y-46104765D02*
X103563457Y-45054765D01*
X104713457Y-39884765D02*
X103563457Y-39884765D01*
X104713457Y-46104765D02*
X103563457Y-46104765D01*
X106683457Y-41054765D02*
X106683457Y-44934765D01*
%TO.C,U21*%
X100524444Y-54264248D02*
X100524444Y-52854248D01*
X102844444Y-54254248D02*
X102844444Y-52854248D01*
X100574444Y-54634248D02*
X100244444Y-54874248D01*
X100244444Y-54394248D01*
X100574444Y-54634248D01*
G36*
X100574444Y-54634248D02*
G01*
X100244444Y-54874248D01*
X100244444Y-54394248D01*
X100574444Y-54634248D01*
G37*
%TO.C,X2*%
X94915000Y-35652501D02*
X91495000Y-35652501D01*
X94915000Y-38572499D02*
X94915000Y-35652501D01*
%TO.C,J4*%
X90000000Y-58630000D02*
X90000000Y-65070000D01*
X90000000Y-58630000D02*
X98320000Y-58630000D01*
X90000000Y-59150000D02*
X98320000Y-59150000D01*
X90000000Y-64450000D02*
X90590000Y-64450000D01*
X90000000Y-65070000D02*
X90590000Y-65070000D01*
X92650000Y-64450000D02*
X93130000Y-64450000D01*
X92650000Y-65070000D02*
X93130000Y-65070000D01*
X95190000Y-64450000D02*
X95670000Y-64450000D01*
X95190000Y-65070000D02*
X95670000Y-65070000D01*
X97730000Y-64450000D02*
X98320000Y-64450000D01*
X97730000Y-65070000D02*
X98320000Y-65070000D01*
X98320000Y-58630000D02*
X98320000Y-65070000D01*
X92060000Y-66030000D02*
X91180000Y-66030000D01*
X91620000Y-65420000D01*
X92060000Y-66030000D01*
G36*
X92060000Y-66030000D02*
G01*
X91180000Y-66030000D01*
X91620000Y-65420000D01*
X92060000Y-66030000D01*
G37*
%TO.C,D4*%
X105265000Y-51465000D02*
X105265000Y-52615000D01*
X107165000Y-51015000D02*
X107165000Y-52615000D01*
%TO.C,U7*%
X95859384Y-51406703D02*
X95884384Y-51406703D01*
X95859384Y-53026703D02*
X95859384Y-51406703D01*
X95884384Y-53026703D02*
X95859384Y-53026703D01*
X97154384Y-51406703D02*
X97179384Y-51406703D01*
X97179384Y-51406703D02*
X97179384Y-52853850D01*
X97349384Y-53306703D02*
X97159384Y-53166703D01*
X97349384Y-53026703D01*
X97349384Y-53306703D01*
G36*
X97349384Y-53306703D02*
G01*
X97159384Y-53166703D01*
X97349384Y-53026703D01*
X97349384Y-53306703D01*
G37*
%TO.C,C24*%
X95417864Y-55282040D02*
X95417864Y-55066368D01*
X96137864Y-55282040D02*
X96137864Y-55066368D01*
%TO.C,JP2*%
X96908463Y-34177249D02*
X98908463Y-34177249D01*
X96908463Y-36977249D02*
X96908463Y-34177249D01*
X98908463Y-34177249D02*
X98908463Y-36977249D01*
X98908463Y-36977249D02*
X96908463Y-36977249D01*
%TO.C,D2*%
X100678101Y-49515521D02*
X101338101Y-49515521D01*
X100678101Y-50925521D02*
X100678101Y-49515521D01*
X102338101Y-49515521D02*
X102998101Y-49515521D01*
X102998101Y-50925521D02*
X102998101Y-49515521D01*
X100698101Y-51295521D02*
X100368101Y-51535521D01*
X100368101Y-51055521D01*
X100698101Y-51295521D01*
G36*
X100698101Y-51295521D02*
G01*
X100368101Y-51535521D01*
X100368101Y-51055521D01*
X100698101Y-51295521D01*
G37*
%TO.C,U12*%
X91651932Y-55855000D02*
X93487500Y-55855000D01*
X93487500Y-58125000D02*
X91267500Y-58125000D01*
X91357500Y-55850000D02*
X91217500Y-55660000D01*
X91497500Y-55660000D01*
X91357500Y-55850000D01*
G36*
X91357500Y-55850000D02*
G01*
X91217500Y-55660000D01*
X91497500Y-55660000D01*
X91357500Y-55850000D01*
G37*
%TO.C,C18*%
X101223341Y-46636463D02*
X101223341Y-46420791D01*
X101943341Y-46636463D02*
X101943341Y-46420791D01*
D12*
%TO.C,U11*%
X99420000Y-30820000D02*
X100600000Y-30820000D01*
X99420000Y-38320000D02*
X99420000Y-30820000D01*
X100600000Y-38320000D02*
X99420000Y-38320000D01*
X103170000Y-28820000D02*
X103170000Y-29820000D01*
X103170000Y-39320000D02*
X103170000Y-40320000D01*
X103670000Y-29320000D02*
X102670000Y-29320000D01*
X105740000Y-30820000D02*
X106920000Y-30820000D01*
X106920000Y-30820000D02*
X106920000Y-38320000D01*
X106920000Y-38320000D02*
X105740000Y-38320000D01*
D11*
%TO.C,Q2*%
X90540000Y-53012500D02*
X91540000Y-53012500D01*
X90540000Y-54532500D02*
X90540000Y-53012500D01*
X90590000Y-54532500D02*
X90540000Y-54532500D01*
X92490000Y-54532500D02*
X91710000Y-54532500D01*
X92660000Y-53012500D02*
X93660000Y-53012500D01*
X93660000Y-53012500D02*
X93660000Y-54532500D01*
X93660000Y-54532500D02*
X93610000Y-54532500D01*
X92050000Y-55312500D02*
X91720000Y-55072500D01*
X92050000Y-54832500D01*
X92050000Y-55312500D01*
G36*
X92050000Y-55312500D02*
G01*
X91720000Y-55072500D01*
X92050000Y-54832500D01*
X92050000Y-55312500D01*
G37*
%TO.C,C5*%
X90608739Y-37312564D02*
X90608739Y-37528236D01*
X91328739Y-37312564D02*
X91328739Y-37528236D01*
%TO.C,C46*%
X96686393Y-37849598D02*
X96902065Y-37849598D01*
X96686393Y-38569598D02*
X96902065Y-38569598D01*
%TO.C,C6*%
X95100000Y-36267836D02*
X95100000Y-36052164D01*
X95820000Y-36267836D02*
X95820000Y-36052164D01*
%TO.C,D5*%
X90175000Y-50225000D02*
X90175000Y-48625000D01*
X92075000Y-49775000D02*
X92075000Y-48625000D01*
%TO.C,C23*%
X99924290Y-56845474D02*
X99924290Y-58267978D01*
X101744290Y-56845474D02*
X101744290Y-58267978D01*
%TO.C,J6*%
X99120000Y-60340000D02*
X99120000Y-65060000D01*
X99120000Y-62450000D02*
X99730000Y-62450000D01*
X99120000Y-63750000D02*
X99730000Y-63750000D01*
X99120000Y-65060000D02*
X105240000Y-65060000D01*
X99730000Y-60950000D02*
X99730000Y-64450000D01*
X99730000Y-64450000D02*
X101680000Y-64450000D01*
X101680000Y-64450000D02*
X101680000Y-65060000D01*
X102080000Y-61450000D02*
X102080000Y-60950000D01*
X102180000Y-60950000D02*
X102180000Y-61450000D01*
X102280000Y-60950000D02*
X102280000Y-61450000D01*
X102280000Y-61450000D02*
X102080000Y-61450000D01*
X102680000Y-64450000D02*
X104630000Y-64450000D01*
X102680000Y-65060000D02*
X102680000Y-64450000D01*
X103480000Y-65060000D02*
X103480000Y-65260000D01*
X103480000Y-65160000D02*
X103780000Y-65160000D01*
X103480000Y-65260000D02*
X103780000Y-65260000D01*
X103780000Y-65260000D02*
X103780000Y-65060000D01*
X104290000Y-65360000D02*
X105540000Y-65360000D01*
X104630000Y-60950000D02*
X99730000Y-60950000D01*
X104630000Y-64450000D02*
X104630000Y-60950000D01*
X105240000Y-60340000D02*
X99120000Y-60340000D01*
X105240000Y-62450000D02*
X104630000Y-62450000D01*
X105240000Y-63750000D02*
X104630000Y-63750000D01*
X105240000Y-65060000D02*
X105240000Y-60340000D01*
X105540000Y-65360000D02*
X105540000Y-64110000D01*
%TO.C,D3*%
X96921470Y-30392058D02*
X98521470Y-30392058D01*
X97371470Y-32292058D02*
X98521470Y-32292058D01*
%TO.C,JP1*%
X97982135Y-49386405D02*
X99982135Y-49386405D01*
X97982135Y-52186405D02*
X97982135Y-49386405D01*
X99982135Y-49386405D02*
X99982135Y-52186405D01*
X99982135Y-52186405D02*
X97982135Y-52186405D01*
%TO.C,C16*%
X95729166Y-49160756D02*
X95513494Y-49160756D01*
X95729166Y-49880756D02*
X95513494Y-49880756D01*
%TO.C,C17*%
X101190000Y-42742164D02*
X101190000Y-42957836D01*
X101910000Y-42742164D02*
X101910000Y-42957836D01*
%TO.C,C45*%
X96629398Y-50053530D02*
X96629398Y-49837858D01*
X97349398Y-50053530D02*
X97349398Y-49837858D01*
%TO.C,U18*%
X96403197Y-55225398D02*
X96453197Y-55225398D01*
X96403197Y-57045398D02*
X96403197Y-55225398D01*
X96453197Y-57045398D02*
X96403197Y-57045398D01*
X97573197Y-55225398D02*
X98353197Y-55225398D01*
X99473197Y-55225398D02*
X99523197Y-55225398D01*
X99523197Y-55225398D02*
X99523197Y-57045398D01*
X99523197Y-57045398D02*
X99473197Y-57045398D01*
X96453197Y-57585398D02*
X96123197Y-57825398D01*
X96123197Y-57345398D01*
X96453197Y-57585398D01*
G36*
X96453197Y-57585398D02*
G01*
X96123197Y-57825398D01*
X96123197Y-57345398D01*
X96453197Y-57585398D01*
G37*
%TO.C,C21*%
X105840000Y-60692164D02*
X105840000Y-60907836D01*
X106560000Y-60692164D02*
X106560000Y-60907836D01*
%TO.C,C19*%
X91012164Y-47130000D02*
X91227836Y-47130000D01*
X91012164Y-47850000D02*
X91227836Y-47850000D01*
%TD*%
%LPC*%
%TO.C,JP2*%
G36*
X98658463Y-34352249D02*
G01*
X97158463Y-34352249D01*
X97158463Y-36802249D01*
X98658463Y-36802249D01*
X98658463Y-34352249D01*
G37*
%TO.C,JP1*%
G36*
X99732135Y-49561405D02*
G01*
X98232135Y-49561405D01*
X98232135Y-52011405D01*
X99732135Y-52011405D01*
X99732135Y-49561405D01*
G37*
%TD*%
D13*
%TO.C,U9*%
X98680000Y-48012500D03*
X98180000Y-48012500D03*
X97680000Y-48012500D03*
X97179999Y-48012500D03*
X96680000Y-48012500D03*
X96180000Y-48012500D03*
X95680000Y-48012500D03*
X95180000Y-48012500D03*
X94680001Y-48012500D03*
X94180000Y-48012500D03*
X93680000Y-48012500D03*
X93180000Y-48012500D03*
D14*
X91767500Y-46600000D03*
X91767500Y-46100000D03*
X91767500Y-45600000D03*
X91767500Y-45099999D03*
X91767500Y-44600000D03*
X91767500Y-44100000D03*
X91767500Y-43600000D03*
X91767500Y-43100000D03*
X91767500Y-42600001D03*
X91767500Y-42100000D03*
X91767500Y-41600000D03*
X91767500Y-41100000D03*
D13*
X93180000Y-39687500D03*
X93680000Y-39687500D03*
X94180000Y-39687500D03*
X94680001Y-39687500D03*
X95180000Y-39687500D03*
X95680000Y-39687500D03*
X96180000Y-39687500D03*
X96680000Y-39687500D03*
X97179999Y-39687500D03*
X97680000Y-39687500D03*
X98180000Y-39687500D03*
X98680000Y-39687500D03*
D14*
X100092500Y-41100000D03*
X100092500Y-41600000D03*
X100092500Y-42100000D03*
X100092500Y-42600001D03*
X100092500Y-43100000D03*
X100092500Y-43600000D03*
X100092500Y-44100000D03*
X100092500Y-44600000D03*
X100092500Y-45099999D03*
X100092500Y-45600000D03*
X100092500Y-46100000D03*
X100092500Y-46600000D03*
%TD*%
D15*
%TO.C,C44*%
X103606013Y-50646666D03*
X103606013Y-51606666D03*
%TD*%
D16*
%TO.C,J10*%
X103348457Y-41494765D03*
X103348457Y-42494765D03*
X103348457Y-43494765D03*
X103348457Y-44494765D03*
D17*
X105873457Y-40194765D03*
X105873457Y-45794765D03*
%TD*%
D18*
%TO.C,U21*%
X101034444Y-54504248D03*
X101684444Y-54504248D03*
X102334444Y-54504248D03*
X102334444Y-52604248D03*
X101034444Y-52604248D03*
%TD*%
D19*
%TO.C,R50*%
X93307843Y-50747973D03*
X93947843Y-50747973D03*
%TD*%
D20*
%TO.C,X2*%
X94080000Y-36412500D03*
X92330000Y-36412500D03*
X92330000Y-37812500D03*
X94080000Y-37812500D03*
%TD*%
D21*
%TO.C,J4*%
X91620000Y-64390000D03*
X94160000Y-64390000D03*
X96700000Y-64390000D03*
D22*
X91620000Y-61850000D03*
D23*
X94160000Y-61850000D03*
X96700000Y-61850000D03*
%TD*%
D24*
%TO.C,D4*%
X105790000Y-51090000D03*
X106640000Y-51090000D03*
X105790000Y-52540000D03*
X106640000Y-52540000D03*
%TD*%
D25*
%TO.C,U7*%
X96769384Y-52991703D03*
X96769384Y-51441703D03*
X96269384Y-51441703D03*
X96269384Y-52991703D03*
D26*
X96519384Y-52216703D03*
%TD*%
D27*
%TO.C,C24*%
X95777864Y-55654204D03*
X95777864Y-54694204D03*
%TD*%
D28*
%TO.C,JP2*%
X97908463Y-34852249D03*
D29*
X97908463Y-36302249D03*
%TD*%
D30*
%TO.C,D2*%
X101188101Y-51245521D03*
X102488101Y-51245521D03*
X101838101Y-49245521D03*
%TD*%
D31*
%TO.C,U12*%
X91365000Y-56240000D03*
X91365000Y-56740000D03*
X91365000Y-57240000D03*
X91365000Y-57740000D03*
X93390000Y-57740000D03*
X93390000Y-57240000D03*
X93390000Y-56740000D03*
X93390000Y-56240000D03*
D32*
X92377500Y-56990000D03*
%TD*%
D33*
%TO.C,R40*%
X95901699Y-57119488D03*
X95901699Y-56479488D03*
%TD*%
D27*
%TO.C,C18*%
X101583341Y-47008627D03*
X101583341Y-46048627D03*
%TD*%
D33*
%TO.C,R49*%
X105993881Y-64715654D03*
X105993881Y-64075654D03*
%TD*%
D34*
%TO.C,U11*%
X103170000Y-38145000D03*
X103170000Y-30995000D03*
%TD*%
D35*
%TO.C,Q2*%
X91150000Y-54710000D03*
X93050000Y-54710000D03*
X92100000Y-52835000D03*
%TD*%
D33*
%TO.C,R42*%
X94925228Y-55685326D03*
X94925228Y-55045326D03*
%TD*%
D36*
%TO.C,R51*%
X93940000Y-51460000D03*
X93300000Y-51460000D03*
%TD*%
D15*
%TO.C,C5*%
X90968739Y-36940400D03*
X90968739Y-37900400D03*
%TD*%
D37*
%TO.C,FB1*%
X101567084Y-45168850D03*
X101567084Y-44198850D03*
%TD*%
D38*
%TO.C,R2*%
X96064052Y-32792843D03*
X96064052Y-33432843D03*
%TD*%
D39*
%TO.C,C46*%
X96314229Y-38209598D03*
X97274229Y-38209598D03*
%TD*%
D27*
%TO.C,C6*%
X95460000Y-36640000D03*
X95460000Y-35680000D03*
%TD*%
D33*
%TO.C,R53*%
X106000000Y-63265000D03*
X106000000Y-62625000D03*
%TD*%
D24*
%TO.C,D5*%
X91550000Y-50150000D03*
X90700000Y-50150000D03*
X91550000Y-48700000D03*
X90700000Y-48700000D03*
%TD*%
D40*
%TO.C,C23*%
X100834290Y-56081725D03*
X100834290Y-59031727D03*
%TD*%
D41*
%TO.C,J6*%
X103180000Y-63250000D03*
D42*
X101180000Y-63250000D03*
%TD*%
D43*
%TO.C,D3*%
X96996470Y-31767058D03*
X96996470Y-30917058D03*
X98446470Y-31767058D03*
X98446470Y-30917058D03*
%TD*%
D19*
%TO.C,R43*%
X94501862Y-56446928D03*
X95141862Y-56446928D03*
%TD*%
%TO.C,R41*%
X95420315Y-57874684D03*
X96060315Y-57874684D03*
%TD*%
D28*
%TO.C,JP1*%
X98982135Y-50061405D03*
D29*
X98982135Y-51511405D03*
%TD*%
D38*
%TO.C,C22*%
X99855510Y-54056111D03*
X99855510Y-54696111D03*
%TD*%
D44*
%TO.C,H2*%
X92600000Y-32600000D03*
%TD*%
D45*
%TO.C,C16*%
X96101330Y-49520756D03*
X95141330Y-49520756D03*
%TD*%
D15*
%TO.C,C17*%
X101550000Y-42370000D03*
X101550000Y-43330000D03*
%TD*%
D38*
%TO.C,R55*%
X102460000Y-47510000D03*
X102460000Y-48150000D03*
%TD*%
D27*
%TO.C,C45*%
X96989398Y-50425694D03*
X96989398Y-49465694D03*
%TD*%
D46*
%TO.C,U18*%
X97013197Y-57272898D03*
X97963197Y-57272898D03*
X98913197Y-57272898D03*
X98913197Y-54997898D03*
X97013197Y-54997898D03*
%TD*%
D38*
%TO.C,R3*%
X96768627Y-32784923D03*
X96768627Y-33424923D03*
%TD*%
D15*
%TO.C,C21*%
X106200000Y-60320000D03*
X106200000Y-61280000D03*
%TD*%
D39*
%TO.C,C19*%
X90640000Y-47490000D03*
X91600000Y-47490000D03*
%TD*%
D44*
%TO.C,H1*%
X104600000Y-57350000D03*
%TD*%
D47*
%TO.C,J1*%
X105265000Y-54320000D03*
X104249000Y-49240000D03*
X106281000Y-49240000D03*
%TD*%
%LPD*%
M02*
