%TF.GenerationSoftware,KiCad,Pcbnew,9.0.1*%
%TF.CreationDate,2025-11-18T22:08:47-05:00*%
%TF.ProjectId,OshEasyMini,4f736845-6173-4794-9d69-6e692e6b6963,rev?*%
%TF.SameCoordinates,Original*%
%TF.FileFunction,Copper,L1,Top*%
%TF.FilePolarity,Positive*%
%FSLAX46Y46*%
G04 Gerber Fmt 4.6, Leading zero omitted, Abs format (unit mm)*
G04 Created by KiCad (PCBNEW 9.0.1) date 2025-11-18 22:08:47*
%MOMM*%
%LPD*%
G01*
G04 APERTURE LIST*
G04 Aperture macros list*
%AMRoundRect*
0 Rectangle with rounded corners*
0 $1 Rounding radius*
0 $2 $3 $4 $5 $6 $7 $8 $9 X,Y pos of 4 corners*
0 Add a 4 corners polygon primitive as box body*
4,1,4,$2,$3,$4,$5,$6,$7,$8,$9,$2,$3,0*
0 Add four circle primitives for the rounded corners*
1,1,$1+$1,$2,$3*
1,1,$1+$1,$4,$5*
1,1,$1+$1,$6,$7*
1,1,$1+$1,$8,$9*
0 Add four rect primitives between the rounded corners*
20,1,$1+$1,$2,$3,$4,$5,0*
20,1,$1+$1,$4,$5,$6,$7,0*
20,1,$1+$1,$6,$7,$8,$9,0*
20,1,$1+$1,$8,$9,$2,$3,0*%
%AMFreePoly0*
4,1,6,1.000000,0.000000,0.500000,-0.750000,-0.500000,-0.750000,-0.500000,0.750000,0.500000,0.750000,1.000000,0.000000,1.000000,0.000000,$1*%
%AMFreePoly1*
4,1,6,0.500000,-0.750000,-0.650000,-0.750000,-0.150000,0.000000,-0.650000,0.750000,0.500000,0.750000,0.500000,-0.750000,0.500000,-0.750000,$1*%
G04 Aperture macros list end*
%TA.AperFunction,SMDPad,CuDef*%
%ADD10RoundRect,0.075000X0.662500X0.075000X-0.662500X0.075000X-0.662500X-0.075000X0.662500X-0.075000X0*%
%TD*%
%TA.AperFunction,SMDPad,CuDef*%
%ADD11RoundRect,0.075000X0.075000X0.662500X-0.075000X0.662500X-0.075000X-0.662500X0.075000X-0.662500X0*%
%TD*%
%TA.AperFunction,SMDPad,CuDef*%
%ADD12RoundRect,0.140000X-0.170000X0.140000X-0.170000X-0.140000X0.170000X-0.140000X0.170000X0.140000X0*%
%TD*%
%TA.AperFunction,SMDPad,CuDef*%
%ADD13RoundRect,0.150000X-0.625000X0.150000X-0.625000X-0.150000X0.625000X-0.150000X0.625000X0.150000X0*%
%TD*%
%TA.AperFunction,SMDPad,CuDef*%
%ADD14RoundRect,0.250000X-0.650000X0.350000X-0.650000X-0.350000X0.650000X-0.350000X0.650000X0.350000X0*%
%TD*%
%TA.AperFunction,SMDPad,CuDef*%
%ADD15RoundRect,0.100000X0.100000X-0.225000X0.100000X0.225000X-0.100000X0.225000X-0.100000X-0.225000X0*%
%TD*%
%TA.AperFunction,SMDPad,CuDef*%
%ADD16RoundRect,0.100000X-0.130000X-0.100000X0.130000X-0.100000X0.130000X0.100000X-0.130000X0.100000X0*%
%TD*%
%TA.AperFunction,SMDPad,CuDef*%
%ADD17RoundRect,0.250000X0.325000X0.250000X-0.325000X0.250000X-0.325000X-0.250000X0.325000X-0.250000X0*%
%TD*%
%TA.AperFunction,ComponentPad*%
%ADD18RoundRect,0.249999X-0.850001X-0.850001X0.850001X-0.850001X0.850001X0.850001X-0.850001X0.850001X0*%
%TD*%
%TA.AperFunction,ComponentPad*%
%ADD19C,2.200000*%
%TD*%
%TA.AperFunction,SMDPad,CuDef*%
%ADD20R,0.650000X0.850000*%
%TD*%
%TA.AperFunction,SMDPad,CuDef*%
%ADD21RoundRect,0.062500X0.062500X0.212500X-0.062500X0.212500X-0.062500X-0.212500X0.062500X-0.212500X0*%
%TD*%
%TA.AperFunction,HeatsinkPad*%
%ADD22R,0.800000X0.600000*%
%TD*%
%TA.AperFunction,SMDPad,CuDef*%
%ADD23RoundRect,0.140000X0.170000X-0.140000X0.170000X0.140000X-0.170000X0.140000X-0.170000X-0.140000X0*%
%TD*%
%TA.AperFunction,SMDPad,CuDef*%
%ADD24FreePoly0,270.000000*%
%TD*%
%TA.AperFunction,SMDPad,CuDef*%
%ADD25FreePoly1,270.000000*%
%TD*%
%TA.AperFunction,SMDPad,CuDef*%
%ADD26RoundRect,0.112500X-0.112500X-0.237500X0.112500X-0.237500X0.112500X0.237500X-0.112500X0.237500X0*%
%TD*%
%TA.AperFunction,SMDPad,CuDef*%
%ADD27RoundRect,0.062500X-0.300000X-0.062500X0.300000X-0.062500X0.300000X0.062500X-0.300000X0.062500X0*%
%TD*%
%TA.AperFunction,HeatsinkPad*%
%ADD28R,0.900000X1.600000*%
%TD*%
%TA.AperFunction,SMDPad,CuDef*%
%ADD29RoundRect,0.100000X0.100000X-0.130000X0.100000X0.130000X-0.100000X0.130000X-0.100000X-0.130000X0*%
%TD*%
%TA.AperFunction,SMDPad,CuDef*%
%ADD30R,4.500000X1.350000*%
%TD*%
%TA.AperFunction,SMDPad,CuDef*%
%ADD31RoundRect,0.150000X0.150000X-0.587500X0.150000X0.587500X-0.150000X0.587500X-0.150000X-0.587500X0*%
%TD*%
%TA.AperFunction,SMDPad,CuDef*%
%ADD32RoundRect,0.100000X0.130000X0.100000X-0.130000X0.100000X-0.130000X-0.100000X0.130000X-0.100000X0*%
%TD*%
%TA.AperFunction,SMDPad,CuDef*%
%ADD33RoundRect,0.147500X0.172500X-0.147500X0.172500X0.147500X-0.172500X0.147500X-0.172500X-0.147500X0*%
%TD*%
%TA.AperFunction,SMDPad,CuDef*%
%ADD34RoundRect,0.100000X-0.100000X0.130000X-0.100000X-0.130000X0.100000X-0.130000X0.100000X0.130000X0*%
%TD*%
%TA.AperFunction,SMDPad,CuDef*%
%ADD35RoundRect,0.140000X-0.140000X-0.170000X0.140000X-0.170000X0.140000X0.170000X-0.140000X0.170000X0*%
%TD*%
%TA.AperFunction,SMDPad,CuDef*%
%ADD36RoundRect,0.250000X-0.650000X0.325000X-0.650000X-0.325000X0.650000X-0.325000X0.650000X0.325000X0*%
%TD*%
%TA.AperFunction,ComponentPad*%
%ADD37RoundRect,0.250000X0.350000X0.625000X-0.350000X0.625000X-0.350000X-0.625000X0.350000X-0.625000X0*%
%TD*%
%TA.AperFunction,ComponentPad*%
%ADD38O,1.200000X1.750000*%
%TD*%
%TA.AperFunction,SMDPad,CuDef*%
%ADD39R,0.850000X0.650000*%
%TD*%
%TA.AperFunction,ComponentPad*%
%ADD40C,4.700000*%
%TD*%
%TA.AperFunction,SMDPad,CuDef*%
%ADD41RoundRect,0.140000X0.140000X0.170000X-0.140000X0.170000X-0.140000X-0.170000X0.140000X-0.170000X0*%
%TD*%
%TA.AperFunction,SMDPad,CuDef*%
%ADD42RoundRect,0.150000X0.150000X-0.512500X0.150000X0.512500X-0.150000X0.512500X-0.150000X-0.512500X0*%
%TD*%
%TA.AperFunction,ViaPad*%
%ADD43C,0.400000*%
%TD*%
%TA.AperFunction,Conductor*%
%ADD44C,0.160000*%
%TD*%
%TA.AperFunction,Conductor*%
%ADD45C,0.400000*%
%TD*%
G04 APERTURE END LIST*
D10*
%TO.P,U9,1,PA00*%
%TO.N,/TX1*%
X100092500Y-46600000D03*
%TO.P,U9,2,PA01*%
%TO.N,/RX1*%
X100092500Y-46100000D03*
%TO.P,U9,3,PA02*%
%TO.N,/AC_INT2*%
X100092500Y-45600000D03*
%TO.P,U9,4,PA03*%
%TO.N,/AC_INT1*%
X100092500Y-45099999D03*
%TO.P,U9,5,GNDANA*%
%TO.N,GND*%
X100092500Y-44600000D03*
%TO.P,U9,6,VDDANA*%
%TO.N,Net-(U9-VDDANA)*%
X100092500Y-44100000D03*
%TO.P,U9,7,PB08*%
%TO.N,/RADIO_INT*%
X100092500Y-43600000D03*
%TO.P,U9,8,PB09*%
%TO.N,/RADIO_MARC_ISR*%
X100092500Y-43100000D03*
%TO.P,U9,9,PA04*%
%TO.N,/MOSI0*%
X100092500Y-42600001D03*
%TO.P,U9,10,PA05*%
%TO.N,/SCK0*%
X100092500Y-42100000D03*
%TO.P,U9,11,PA06*%
%TO.N,/MISO0*%
X100092500Y-41600000D03*
%TO.P,U9,12,PA07*%
%TO.N,/CS_RADIO*%
X100092500Y-41100000D03*
D11*
%TO.P,U9,13,PA08*%
%TO.N,/CS_ACCEL*%
X98680000Y-39687500D03*
%TO.P,U9,14,PA09*%
%TO.N,/V_BATT*%
X98180000Y-39687500D03*
%TO.P,U9,15,PA10*%
%TO.N,/SENSE_A*%
X97680000Y-39687500D03*
%TO.P,U9,16,PA11*%
%TO.N,/SENSE_B*%
X97179999Y-39687500D03*
%TO.P,U9,17,VDDIO*%
%TO.N,+3V3*%
X96680000Y-39687500D03*
%TO.P,U9,18,GND*%
%TO.N,GND*%
X96180000Y-39687500D03*
%TO.P,U9,19,PB10*%
%TO.N,Net-(U9-PB10)*%
X95680000Y-39687500D03*
%TO.P,U9,20,PB11*%
%TO.N,Net-(U9-PB11)*%
X95180000Y-39687500D03*
%TO.P,U9,21,PA12*%
%TO.N,/CS_COMP1*%
X94680001Y-39687500D03*
%TO.P,U9,22,PA13*%
%TO.N,/CS_COMP0*%
X94180000Y-39687500D03*
%TO.P,U9,23,PA14*%
%TO.N,/PH0*%
X93680000Y-39687500D03*
%TO.P,U9,24,PA15*%
%TO.N,/PH1*%
X93180000Y-39687500D03*
D10*
%TO.P,U9,25,PA16*%
%TO.N,/BUZZ*%
X91767500Y-41100000D03*
%TO.P,U9,26,PA17*%
%TO.N,unconnected-(U9-PA17-Pad26)*%
X91767500Y-41600000D03*
%TO.P,U9,27,PA18*%
%TO.N,/FIRE_B*%
X91767500Y-42100000D03*
%TO.P,U9,28,PA19*%
%TO.N,/FIRE_A*%
X91767500Y-42600001D03*
%TO.P,U9,29,PA20*%
%TO.N,/MISO3*%
X91767500Y-43100000D03*
%TO.P,U9,30,PA21*%
%TO.N,/CS_BARO*%
X91767500Y-43600000D03*
%TO.P,U9,31,PA22*%
%TO.N,/MOSI3*%
X91767500Y-44100000D03*
%TO.P,U9,32,PA23*%
%TO.N,/SCK3*%
X91767500Y-44600000D03*
%TO.P,U9,33,PA24*%
%TO.N,/USB_D-*%
X91767500Y-45099999D03*
%TO.P,U9,34,PA25*%
%TO.N,/USB_D+*%
X91767500Y-45600000D03*
%TO.P,U9,35,GND*%
%TO.N,GND*%
X91767500Y-46100000D03*
%TO.P,U9,36,VDDIO*%
%TO.N,+3V3*%
X91767500Y-46600000D03*
D11*
%TO.P,U9,37,PB22*%
%TO.N,/MOSI5*%
X93180000Y-48012500D03*
%TO.P,U9,38,PB23*%
%TO.N,/SCK5*%
X93680000Y-48012500D03*
%TO.P,U9,39,PA27*%
%TO.N,/CS_FLASH*%
X94180000Y-48012500D03*
%TO.P,U9,40,~{RESET}*%
%TO.N,/NRST*%
X94680001Y-48012500D03*
%TO.P,U9,41,PA28*%
%TO.N,unconnected-(U9-PA28-Pad41)*%
X95180000Y-48012500D03*
%TO.P,U9,42,GND*%
%TO.N,GND*%
X95680000Y-48012500D03*
%TO.P,U9,43,VDDCORE*%
%TO.N,Net-(U9-VDDCORE)*%
X96180000Y-48012500D03*
%TO.P,U9,44,VDDIN*%
%TO.N,+3V3*%
X96680000Y-48012500D03*
%TO.P,U9,45,PA30*%
%TO.N,/SWCLK*%
X97179999Y-48012500D03*
%TO.P,U9,46,PA31*%
%TO.N,/SWDIO*%
X97680000Y-48012500D03*
%TO.P,U9,47,PB02*%
%TO.N,unconnected-(U9-PB02-Pad47)*%
X98180000Y-48012500D03*
%TO.P,U9,48,PB03*%
%TO.N,/MISO5*%
X98680000Y-48012500D03*
%TD*%
D12*
%TO.P,C44,1*%
%TO.N,GND*%
X103606013Y-50646666D03*
%TO.P,C44,2*%
%TO.N,/MGSW_IN*%
X103606013Y-51606666D03*
%TD*%
D13*
%TO.P,J10,1,Pin_1*%
%TO.N,Net-(J10-Pin_1)*%
X103348457Y-41494765D03*
%TO.P,J10,2,Pin_2*%
%TO.N,Net-(J10-Pin_2)*%
X103348457Y-42494765D03*
%TO.P,J10,3,Pin_3*%
%TO.N,VBUS*%
X103348457Y-43494765D03*
%TO.P,J10,4,Pin_4*%
%TO.N,GND*%
X103348457Y-44494765D03*
D14*
%TO.P,J10,MP,MountPin*%
X105873457Y-40194765D03*
X105873457Y-45794765D03*
%TD*%
D15*
%TO.P,U21,1,D*%
%TO.N,Net-(U21-D)*%
X101034444Y-54504248D03*
%TO.P,U21,2,C*%
%TO.N,/HALL_OUT*%
X101684444Y-54504248D03*
%TO.P,U21,3,GND*%
%TO.N,GND*%
X102334444Y-54504248D03*
%TO.P,U21,4,~{Q}*%
%TO.N,Net-(U21-D)*%
X102334444Y-52604248D03*
%TO.P,U21,5,VCC*%
%TO.N,/MGSW_IN*%
X101034444Y-52604248D03*
%TD*%
D16*
%TO.P,R50,1*%
%TO.N,Net-(D5-A1)*%
X93307843Y-50747973D03*
%TO.P,R50,2*%
%TO.N,/HALL_OUT*%
X93947843Y-50747973D03*
%TD*%
D17*
%TO.P,X2,1,1*%
%TO.N,/PH0*%
X94080000Y-36412500D03*
%TO.P,X2,2,2*%
%TO.N,GND*%
X92330000Y-36412500D03*
%TO.P,X2,3,3*%
%TO.N,/PH1*%
X92330000Y-37812500D03*
%TO.P,X2,4,4*%
%TO.N,GND*%
X94080000Y-37812500D03*
%TD*%
D18*
%TO.P,J4,1,Pin_1*%
%TO.N,/FET_B*%
X91620000Y-61850000D03*
D19*
%TO.P,J4,2,Pin_2*%
%TO.N,/FET_A*%
X94160000Y-61850000D03*
%TO.P,J4,3,Pin_3*%
%TO.N,V_LIPO*%
X96700000Y-61850000D03*
%TD*%
D20*
%TO.P,D4,1,A1*%
%TO.N,Net-(D4-A1)*%
X105790000Y-51090000D03*
%TO.P,D4,2,A2*%
%TO.N,Net-(D4-A2)*%
X106640000Y-51090000D03*
%TO.P,D4,3,K1*%
%TO.N,Net-(D4-K1)*%
X105790000Y-52540000D03*
%TO.P,D4,4,K2*%
%TO.N,Net-(D4-A1)*%
X106640000Y-52540000D03*
%TD*%
D21*
%TO.P,U7,1,VCC*%
%TO.N,/MGSW_IN*%
X97167500Y-52975000D03*
%TO.P,U7,2,GND*%
%TO.N,GND*%
X97167500Y-51425000D03*
%TO.P,U7,3,OUT*%
%TO.N,/HALL_OUT*%
X96667500Y-51425000D03*
%TO.P,U7,4,SEL*%
%TO.N,GND*%
X96667500Y-52975000D03*
D22*
%TO.P,U7,5,PAD*%
X96917500Y-52200000D03*
%TD*%
D23*
%TO.P,C24,1*%
%TO.N,GND*%
X95777864Y-55654204D03*
%TO.P,C24,2*%
%TO.N,+3V3*%
X95777864Y-54694204D03*
%TD*%
D24*
%TO.P,JP2,1,A*%
%TO.N,GND*%
X97908463Y-34852249D03*
D25*
%TO.P,JP2,2,B*%
%TO.N,/CS_COMP0*%
X97908463Y-36302249D03*
%TD*%
D26*
%TO.P,D2,1*%
%TO.N,/HALL_OUT*%
X101116209Y-51238431D03*
%TO.P,D2,2*%
%TO.N,Net-(U21-D)*%
X102416209Y-51238431D03*
%TO.P,D2,3*%
%TO.N,Net-(JP1-A)*%
X101766209Y-49238431D03*
%TD*%
D27*
%TO.P,U12,1,OUT1*%
%TO.N,/GATE_B*%
X91365000Y-56240000D03*
%TO.P,U12,2,IN1-*%
%TO.N,/CMP_RAIL*%
X91365000Y-56740000D03*
%TO.P,U12,3,IN1+*%
%TO.N,/CMP_LDO_IN*%
X91365000Y-57240000D03*
%TO.P,U12,4,VCC-*%
%TO.N,GND*%
X91365000Y-57740000D03*
%TO.P,U12,5,IN2+*%
%TO.N,/CMP_LDO_IN*%
X93390000Y-57740000D03*
%TO.P,U12,6,IN2-*%
%TO.N,/CMP_RAIL*%
X93390000Y-57240000D03*
%TO.P,U12,7,OUT2*%
%TO.N,/GATE_A*%
X93390000Y-56740000D03*
%TO.P,U12,8,VCC+*%
%TO.N,+3V3*%
X93390000Y-56240000D03*
D28*
%TO.P,U12,9,EPAD*%
%TO.N,GND*%
X92377500Y-56990000D03*
%TD*%
D29*
%TO.P,R40,1*%
%TO.N,/CMP_LDO_IN*%
X95901699Y-57119488D03*
%TO.P,R40,2*%
%TO.N,V_LIPO*%
X95901699Y-56479488D03*
%TD*%
D23*
%TO.P,C18,1*%
%TO.N,GND*%
X101583341Y-47008627D03*
%TO.P,C18,2*%
%TO.N,Net-(U9-VDDANA)*%
X101583341Y-46048627D03*
%TD*%
D29*
%TO.P,R49,1*%
%TO.N,GND*%
X105993881Y-64715654D03*
%TO.P,R49,2*%
%TO.N,Net-(Q1-G)*%
X105993881Y-64075654D03*
%TD*%
D30*
%TO.P,U11,N*%
%TO.N,GND*%
X103170000Y-38145000D03*
%TO.P,U11,P*%
%TO.N,/BUZZ*%
X103170000Y-30995000D03*
%TD*%
D31*
%TO.P,Q2,1,G*%
%TO.N,Net-(JP1-A)*%
X91150000Y-54710000D03*
%TO.P,Q2,2,S*%
%TO.N,GND*%
X93050000Y-54710000D03*
%TO.P,Q2,3,D*%
%TO.N,Net-(Q2-D)*%
X92100000Y-52835000D03*
%TD*%
D29*
%TO.P,R42,1*%
%TO.N,/CMP_RAIL*%
X94925228Y-55685326D03*
%TO.P,R42,2*%
%TO.N,+3V3*%
X94925228Y-55045326D03*
%TD*%
D32*
%TO.P,R51,1*%
%TO.N,Net-(U21-D)*%
X93940000Y-51460000D03*
%TO.P,R51,2*%
%TO.N,Net-(D5-A2)*%
X93300000Y-51460000D03*
%TD*%
D12*
%TO.P,C5,1*%
%TO.N,GND*%
X90968739Y-36940400D03*
%TO.P,C5,2*%
%TO.N,/PH1*%
X90968739Y-37900400D03*
%TD*%
D33*
%TO.P,FB1,1*%
%TO.N,Net-(U9-VDDANA)*%
X101567084Y-45168850D03*
%TO.P,FB1,2*%
%TO.N,+3V3*%
X101567084Y-44198850D03*
%TD*%
D34*
%TO.P,R2,1*%
%TO.N,Net-(D3-A2)*%
X96064052Y-32792843D03*
%TO.P,R2,2*%
%TO.N,Net-(U9-PB11)*%
X96064052Y-33432843D03*
%TD*%
D35*
%TO.P,C46,1*%
%TO.N,GND*%
X96314229Y-38209598D03*
%TO.P,C46,2*%
%TO.N,+3V3*%
X97274229Y-38209598D03*
%TD*%
D23*
%TO.P,C6,1*%
%TO.N,GND*%
X95460000Y-36640000D03*
%TO.P,C6,2*%
%TO.N,/PH0*%
X95460000Y-35680000D03*
%TD*%
D29*
%TO.P,R53,1*%
%TO.N,Net-(Q2-D)*%
X106000000Y-63265000D03*
%TO.P,R53,2*%
%TO.N,/MGSW_IN*%
X106000000Y-62625000D03*
%TD*%
D20*
%TO.P,D5,1,A1*%
%TO.N,Net-(D5-A1)*%
X91550000Y-50150000D03*
%TO.P,D5,2,A2*%
%TO.N,Net-(D5-A2)*%
X90700000Y-50150000D03*
%TO.P,D5,3,K1*%
%TO.N,GND*%
X91550000Y-48700000D03*
%TO.P,D5,4,K2*%
X90700000Y-48700000D03*
%TD*%
D36*
%TO.P,C23,1*%
%TO.N,GND*%
X100834290Y-56081725D03*
%TO.P,C23,2*%
%TO.N,V_LIPO*%
X100834290Y-59031727D03*
%TD*%
D37*
%TO.P,J6,1,Pin_1*%
%TO.N,V_CHARGE*%
X103180000Y-63250000D03*
D38*
%TO.P,J6,2,Pin_2*%
%TO.N,GND*%
X101180000Y-63250000D03*
%TD*%
D39*
%TO.P,D3,1,A1*%
%TO.N,Net-(D3-A1)*%
X96996470Y-31767058D03*
%TO.P,D3,2,A2*%
%TO.N,Net-(D3-A2)*%
X96996470Y-30917058D03*
%TO.P,D3,3,K1*%
%TO.N,GND*%
X98446470Y-31767058D03*
%TO.P,D3,4,K2*%
X98446470Y-30917058D03*
%TD*%
D16*
%TO.P,R43,1*%
%TO.N,GND*%
X94501862Y-56446928D03*
%TO.P,R43,2*%
%TO.N,/CMP_RAIL*%
X95141862Y-56446928D03*
%TD*%
%TO.P,R41,1*%
%TO.N,GND*%
X95420315Y-57874684D03*
%TO.P,R41,2*%
%TO.N,/CMP_LDO_IN*%
X96060315Y-57874684D03*
%TD*%
D24*
%TO.P,JP1,1,A*%
%TO.N,Net-(JP1-A)*%
X98982135Y-50061405D03*
D25*
%TO.P,JP1,2,B*%
%TO.N,/MGSW_IN*%
X98982135Y-51511405D03*
%TD*%
D34*
%TO.P,C22,1*%
%TO.N,GND*%
X99855510Y-54056111D03*
%TO.P,C22,2*%
%TO.N,Net-(U18-BP)*%
X99855510Y-54696111D03*
%TD*%
D40*
%TO.P,H2,1,1*%
%TO.N,GND*%
X92600000Y-32600000D03*
%TD*%
D41*
%TO.P,C16,1*%
%TO.N,Net-(U9-VDDCORE)*%
X96101330Y-49520756D03*
%TO.P,C16,2*%
%TO.N,GND*%
X95141330Y-49520756D03*
%TD*%
D12*
%TO.P,C17,1*%
%TO.N,GND*%
X101550000Y-42370000D03*
%TO.P,C17,2*%
%TO.N,Net-(U9-VDDANA)*%
X101550000Y-43330000D03*
%TD*%
D34*
%TO.P,R55,1*%
%TO.N,GND*%
X102460000Y-47510000D03*
%TO.P,R55,2*%
%TO.N,Net-(JP1-A)*%
X102460000Y-48150000D03*
%TD*%
D23*
%TO.P,C45,1*%
%TO.N,GND*%
X96987973Y-50429455D03*
%TO.P,C45,2*%
%TO.N,+3V3*%
X96987973Y-49469455D03*
%TD*%
D42*
%TO.P,U18,1,VIN*%
%TO.N,V_LIPO*%
X97013197Y-57272898D03*
%TO.P,U18,2,GND*%
%TO.N,GND*%
X97963197Y-57272898D03*
%TO.P,U18,3,ON/~{OFF}*%
%TO.N,V_LIPO*%
X98913197Y-57272898D03*
%TO.P,U18,4,BP*%
%TO.N,Net-(U18-BP)*%
X98913197Y-54997898D03*
%TO.P,U18,5,VOUT*%
%TO.N,+3V3*%
X97013197Y-54997898D03*
%TD*%
D34*
%TO.P,R3,1*%
%TO.N,Net-(D3-A1)*%
X96768627Y-32784923D03*
%TO.P,R3,2*%
%TO.N,Net-(U9-PB10)*%
X96768627Y-33424923D03*
%TD*%
D35*
%TO.P,C19,1*%
%TO.N,GND*%
X90640000Y-47490000D03*
%TO.P,C19,2*%
%TO.N,+3V3*%
X91600000Y-47490000D03*
%TD*%
D40*
%TO.P,H1,1,1*%
%TO.N,GND*%
X104600000Y-57350000D03*
%TD*%
D43*
%TO.N,GND*%
X104600000Y-50200000D03*
X95304542Y-51100000D03*
X90610352Y-48518702D03*
X100326594Y-56745379D03*
X106100000Y-47600000D03*
X102438025Y-46363215D03*
X101225000Y-42700000D03*
X92400000Y-54050000D03*
X97960000Y-64690000D03*
X103100000Y-61000000D03*
X90575000Y-56425000D03*
X104330476Y-38454400D03*
X106700000Y-50250000D03*
X96370000Y-52480000D03*
X91304541Y-53150003D03*
X95661513Y-46940187D03*
X92910000Y-63700000D03*
X90400000Y-44900000D03*
X91850000Y-54000000D03*
X97794486Y-30771352D03*
X92150000Y-57425000D03*
X95187660Y-57017523D03*
X100966249Y-38462500D03*
X99191242Y-44549406D03*
X91088777Y-39514107D03*
X97740611Y-60140829D03*
X100000000Y-40200000D03*
X92804541Y-50100000D03*
X96132299Y-60277290D03*
X94060574Y-38053181D03*
X95300000Y-63900000D03*
X103600000Y-50600000D03*
X96180000Y-50350000D03*
X93010000Y-42120000D03*
X96043070Y-44590231D03*
X98100000Y-58200000D03*
X93675000Y-43575000D03*
X97643630Y-56131971D03*
X94910000Y-54120000D03*
X90600000Y-41400000D03*
X94450000Y-56300000D03*
X100714507Y-55961513D03*
X96287280Y-54166881D03*
X92800000Y-51100000D03*
X98600000Y-31600000D03*
X94304541Y-50100000D03*
X94804541Y-53100000D03*
X106500000Y-37900000D03*
X90640000Y-47490000D03*
X99050000Y-62720000D03*
X101041826Y-37772156D03*
X99900000Y-49200000D03*
%TO.N,+3V3*%
X96018749Y-41962500D03*
X92900000Y-41500000D03*
X97800000Y-55500000D03*
X106470391Y-36483131D03*
X97430000Y-42340000D03*
X97900000Y-54900000D03*
X92120000Y-47740000D03*
X101000000Y-48450000D03*
X103112500Y-45600000D03*
X96414376Y-35765076D03*
X97446249Y-32622500D03*
X102200000Y-41800000D03*
X106600000Y-39100000D03*
X106500000Y-46800000D03*
X100000000Y-52400000D03*
X91728777Y-39514107D03*
X96360000Y-46250000D03*
X104300000Y-54400000D03*
X92804541Y-49100000D03*
X91304541Y-52600000D03*
%TO.N,/NRST*%
X94814559Y-50305877D03*
X103431000Y-47950000D03*
X90847399Y-40323378D03*
%TO.N,/RADIO_MARC_ISR*%
X98600000Y-42800000D03*
X91349997Y-40100000D03*
%TO.N,/RADIO_INT*%
X91900000Y-40100000D03*
X98142371Y-43105086D03*
%TO.N,/CS_RADIO*%
X93200000Y-35700000D03*
X101725675Y-40464347D03*
%TO.N,/CS_BARO*%
X97087500Y-45362500D03*
X106300000Y-44000000D03*
%TO.N,VBUS*%
X101580000Y-57630000D03*
X105160000Y-47250000D03*
%TO.N,V_LIPO*%
X100607622Y-59275943D03*
X97084063Y-56893964D03*
X101142199Y-59245754D03*
X101163729Y-58632866D03*
X98886855Y-57732299D03*
X104200000Y-60400000D03*
X97069225Y-57650691D03*
X104200000Y-61400000D03*
X98827504Y-57034923D03*
%TO.N,/MGSW_IN*%
X104758812Y-61948127D03*
X103606013Y-51606666D03*
X106600000Y-62600000D03*
%TO.N,/HALL_OUT*%
X103450000Y-53250000D03*
X98745969Y-53591937D03*
%TO.N,Net-(JP1-A)*%
X98230000Y-50090000D03*
X91200000Y-54110000D03*
%TO.N,Net-(D4-A2)*%
X100200000Y-57900000D03*
X106700000Y-51100000D03*
X99200000Y-61150000D03*
%TO.N,Net-(D4-A1)*%
X106640000Y-52540000D03*
X101800000Y-61100000D03*
%TO.N,Net-(D4-K1)*%
X98090000Y-63140000D03*
X106600000Y-54300000D03*
%TO.N,/SWDIO*%
X103000000Y-49000000D03*
%TO.N,/SWCLK*%
X97680096Y-50100376D03*
X103950000Y-48300000D03*
%TO.N,Net-(Q1-G)*%
X104400000Y-62600000D03*
%TO.N,Net-(Q2-D)*%
X92400000Y-52600000D03*
X106620000Y-61950000D03*
%TO.N,/SENSE_A*%
X100900000Y-40200000D03*
X95187660Y-58927523D03*
%TO.N,/SENSE_B*%
X90614999Y-58700000D03*
X102200000Y-36700000D03*
%TO.N,/FIRE_A*%
X96139926Y-58913531D03*
X90680900Y-42857354D03*
%TO.N,/GATE_A*%
X93893463Y-56783325D03*
%TO.N,/FIRE_B*%
X90437765Y-42364011D03*
X91950000Y-54675000D03*
%TO.N,/GATE_B*%
X91800000Y-55600000D03*
%TO.N,/CMP_RAIL*%
X94381052Y-57369669D03*
X91365000Y-56740000D03*
%TO.N,/V_BATT*%
X97669934Y-59483948D03*
X102333581Y-39666605D03*
%TO.N,/USB_D+*%
X92959998Y-46430002D03*
%TO.N,/USB_D-*%
X93483378Y-46260956D03*
%TO.N,/AC_INT1*%
X97800000Y-44700000D03*
X103100000Y-40500000D03*
%TO.N,/SCK0*%
X101848255Y-41235281D03*
X104200000Y-36399999D03*
X105600000Y-41200000D03*
%TO.N,/MISO0*%
X101207465Y-41107465D03*
X103000000Y-37100000D03*
%TO.N,/CS_ACCEL*%
X104200000Y-40400000D03*
X101800000Y-39800000D03*
%TO.N,/MOSI0*%
X103300000Y-36500000D03*
X98441173Y-42273429D03*
%TO.N,/AC_INT2*%
X97200000Y-44300000D03*
X103200000Y-39600000D03*
%TO.N,/SCK3*%
X94940000Y-45320000D03*
X102300000Y-44000000D03*
%TO.N,/MISO3*%
X92890000Y-43020000D03*
X105100000Y-44000000D03*
%TO.N,/MOSI3*%
X103200000Y-46300000D03*
X90400000Y-45750003D03*
%TO.N,/TX1*%
X90620000Y-51020000D03*
X97550000Y-46800000D03*
%TO.N,/RX1*%
X92299837Y-49592432D03*
X97209565Y-46368020D03*
%TO.N,/MISO5*%
X98680000Y-48820000D03*
X92440000Y-35520000D03*
%TO.N,/MOSI5*%
X90688727Y-36306236D03*
X92862983Y-47685922D03*
%TO.N,/SCK5*%
X93682060Y-46796135D03*
X91394998Y-36265002D03*
%TO.N,/CS_FLASH*%
X101700000Y-52300000D03*
X95574034Y-46315745D03*
%TO.N,/BUZZ*%
X102170000Y-31440000D03*
X90609651Y-40850082D03*
%TO.N,Net-(J10-Pin_2)*%
X105540002Y-43130002D03*
%TO.N,Net-(J10-Pin_1)*%
X105100000Y-42800000D03*
%TO.N,Net-(U1-V_BCKP)*%
X98918131Y-64485309D03*
X92634973Y-48576789D03*
X100901828Y-47282363D03*
X105989336Y-47004266D03*
%TO.N,Net-(U1-VCC_RF)*%
X93800000Y-52600000D03*
X96200000Y-51000000D03*
%TD*%
D44*
%TO.N,GND*%
X95692637Y-48624117D02*
X95692637Y-47715649D01*
X96650000Y-52200000D02*
X96370000Y-52480000D01*
X92302500Y-56940000D02*
X92021250Y-57221250D01*
X96180000Y-39687500D02*
X96180000Y-38343827D01*
X96180000Y-38343827D02*
X96314228Y-38209598D01*
X96917500Y-52200000D02*
X96650000Y-52200000D01*
X95132637Y-49184117D02*
X95692637Y-48624117D01*
X91290000Y-57690000D02*
X91552500Y-57690000D01*
D45*
%TO.N,+3V3*%
X97695796Y-54900000D02*
X97597898Y-54997898D01*
D44*
X93390000Y-56240000D02*
X94584674Y-55045326D01*
X96680000Y-48012500D02*
X96680000Y-46570000D01*
X94584674Y-55045326D02*
X94925228Y-55045326D01*
D45*
X97900000Y-54900000D02*
X97695796Y-54900000D01*
X97597898Y-54997898D02*
X97013197Y-54997898D01*
D44*
X96692637Y-48920633D02*
X96692637Y-47715649D01*
X95876585Y-54997898D02*
X95777297Y-54898610D01*
X96987973Y-49612027D02*
X96987973Y-49469455D01*
X96680000Y-46570000D02*
X96360000Y-46250000D01*
X101567084Y-44198850D02*
X101711350Y-44198850D01*
X91870000Y-47490000D02*
X92120000Y-47740000D01*
X95426742Y-55045326D02*
X95777864Y-54694204D01*
X91600000Y-47490000D02*
X91600000Y-46767500D01*
X96680000Y-39687500D02*
X96680000Y-38803827D01*
D45*
X97800000Y-55000000D02*
X97800000Y-55500000D01*
D44*
X101711350Y-44198850D02*
X103112500Y-45600000D01*
X94925228Y-55045326D02*
X95426742Y-55045326D01*
D45*
X97900000Y-54900000D02*
X97800000Y-55000000D01*
D44*
X96018749Y-41962500D02*
X96680000Y-41301249D01*
X97013197Y-54997898D02*
X95876585Y-54997898D01*
X96680000Y-38803827D02*
X97274229Y-38209598D01*
X91600000Y-46767500D02*
X91767500Y-46600000D01*
X96970996Y-49198991D02*
X96692637Y-48920633D01*
X91600000Y-47490000D02*
X91870000Y-47490000D01*
X96680000Y-41301249D02*
X96680000Y-39687500D01*
%TO.N,/NRST*%
X94814559Y-50000491D02*
X94814559Y-50305877D01*
X94680001Y-49865933D02*
X94814559Y-50000491D01*
X94680001Y-48012500D02*
X94680001Y-49865933D01*
%TO.N,/RADIO_MARC_ISR*%
X98900000Y-43100000D02*
X98600000Y-42800000D01*
X100092500Y-43100000D02*
X98900000Y-43100000D01*
%TO.N,/RADIO_INT*%
X98142371Y-43105086D02*
X98637285Y-43600000D01*
X98637285Y-43600000D02*
X100092500Y-43600000D01*
%TO.N,/CS_RADIO*%
X100776465Y-41100000D02*
X100092500Y-41100000D01*
X101028938Y-40676465D02*
X100776465Y-40928938D01*
X101535653Y-40464347D02*
X101323535Y-40676465D01*
X101725675Y-40464347D02*
X101535653Y-40464347D01*
X100776465Y-40928938D02*
X100776465Y-41100000D01*
X101323535Y-40676465D02*
X101028938Y-40676465D01*
%TO.N,/CS_BARO*%
X96600000Y-44875000D02*
X97087500Y-45362500D01*
X93496473Y-43144000D02*
X95344000Y-43144000D01*
X91767500Y-43600000D02*
X93040473Y-43600000D01*
X93040473Y-43600000D02*
X93496473Y-43144000D01*
X95344000Y-43144000D02*
X96600000Y-44400000D01*
X96600000Y-44400000D02*
X96600000Y-44875000D01*
%TO.N,/PH1*%
X93180000Y-39687500D02*
X93180000Y-38662500D01*
X92242099Y-37900400D02*
X92330000Y-37812500D01*
X93180000Y-38662500D02*
X92330000Y-37812500D01*
X90968739Y-37900400D02*
X92242099Y-37900400D01*
%TO.N,/PH0*%
X94642500Y-35850000D02*
X94080000Y-36412500D01*
X94374852Y-36707352D02*
X94080000Y-36412500D01*
X93680000Y-39687500D02*
X93680000Y-38603952D01*
X93110000Y-38033952D02*
X93110000Y-37382500D01*
X93110000Y-37382500D02*
X94080000Y-36412500D01*
X93680000Y-38603952D02*
X93110000Y-38033952D01*
X95460000Y-35850000D02*
X94642500Y-35850000D01*
%TO.N,Net-(U9-VDDCORE)*%
X96101330Y-48990751D02*
X96101330Y-49520756D01*
X96192637Y-48899444D02*
X96101330Y-48990751D01*
X96192637Y-48899444D02*
X96192637Y-47715649D01*
%TO.N,Net-(U9-VDDANA)*%
X101554219Y-43365469D02*
X101576893Y-43342795D01*
X101066084Y-44276084D02*
X101066084Y-44667850D01*
X101583341Y-46048627D02*
X101583341Y-45185107D01*
X100890000Y-44100000D02*
X101066084Y-44276084D01*
X100780000Y-44100000D02*
X101550000Y-43330000D01*
X100092500Y-44100000D02*
X100780000Y-44100000D01*
X101066084Y-44667850D02*
X101567084Y-45168850D01*
X101583341Y-45185107D02*
X101567084Y-45168850D01*
X100092500Y-44100000D02*
X100890000Y-44100000D01*
D45*
%TO.N,VBUS*%
X102035290Y-55714710D02*
X105160000Y-52590000D01*
X101580000Y-57630000D02*
X101580000Y-57097175D01*
X105160000Y-51900000D02*
X105160000Y-46955413D01*
X101580000Y-57097175D02*
X102035290Y-56641885D01*
X103348457Y-43494765D02*
X103765425Y-43494765D01*
X104424457Y-46219870D02*
X105160000Y-46955413D01*
X104424457Y-44153797D02*
X104424457Y-46219870D01*
X103765425Y-43494765D02*
X104424457Y-44153797D01*
X102035290Y-56641885D02*
X102035290Y-55714710D01*
X105160000Y-52590000D02*
X105160000Y-51900000D01*
D44*
%TO.N,Net-(U18-BP)*%
X99214984Y-54696111D02*
X98913197Y-54997898D01*
X99855510Y-54696111D02*
X99214984Y-54696111D01*
%TO.N,V_LIPO*%
X95901699Y-56479488D02*
X96219787Y-56479488D01*
X96219787Y-56479488D02*
X97013197Y-57272898D01*
%TO.N,/MGSW_IN*%
X97167500Y-52975000D02*
X98631095Y-51511405D01*
X106000000Y-62625000D02*
X106575000Y-62625000D01*
X106575000Y-62625000D02*
X106600000Y-62600000D01*
X100254581Y-53384111D02*
X99184111Y-53384111D01*
X98982135Y-53182135D02*
X98982135Y-51511405D01*
X101034444Y-52604248D02*
X100254581Y-53384111D01*
X101540444Y-53110248D02*
X102553610Y-53110248D01*
X99184111Y-53384111D02*
X98982135Y-53182135D01*
X103606013Y-52057845D02*
X103606013Y-51606666D01*
X98631095Y-51511405D02*
X98982135Y-51511405D01*
X102553610Y-53110248D02*
X103606013Y-52057845D01*
X101034444Y-52604248D02*
X101540444Y-53110248D01*
%TO.N,/HALL_OUT*%
X96323991Y-53474881D02*
X98628913Y-53474881D01*
X94869999Y-51549999D02*
X94067973Y-50747973D01*
X95750000Y-51549999D02*
X95750000Y-52900890D01*
X103726802Y-49999611D02*
X102355029Y-49999611D01*
X104358013Y-52044065D02*
X104358013Y-50630822D01*
X95750000Y-51549999D02*
X94869999Y-51549999D01*
X103450000Y-53150000D02*
X103450000Y-53250000D01*
X103351039Y-53051039D02*
X104358013Y-52044065D01*
X104358013Y-50630822D02*
X103726802Y-49999611D01*
X102355029Y-49999611D02*
X101116209Y-51238431D01*
X96667500Y-51425000D02*
X96542501Y-51549999D01*
X101684444Y-54504248D02*
X101684444Y-54179249D01*
X103351039Y-53051039D02*
X103450000Y-53150000D01*
X102602078Y-53800000D02*
X103351039Y-53051039D01*
X96542501Y-51549999D02*
X95750000Y-51549999D01*
X102063693Y-53800000D02*
X102602078Y-53800000D01*
X98628913Y-53474881D02*
X98745969Y-53591937D01*
X101684444Y-54179249D02*
X102063693Y-53800000D01*
X95750000Y-52900890D02*
X96323991Y-53474881D01*
X94067973Y-50747973D02*
X93947843Y-50747973D01*
%TO.N,Net-(JP1-A)*%
X102460000Y-48150000D02*
X102460000Y-48544640D01*
X100943235Y-50061405D02*
X101766209Y-49238431D01*
X102460000Y-48544640D02*
X101766209Y-49238431D01*
X98230000Y-50090000D02*
X98258595Y-50061405D01*
X91150000Y-54160000D02*
X91200000Y-54110000D01*
X98982135Y-50061405D02*
X100943235Y-50061405D01*
X91150000Y-54710000D02*
X91150000Y-54160000D01*
X98258595Y-50061405D02*
X98982135Y-50061405D01*
%TO.N,Net-(U21-D)*%
X99200000Y-54025000D02*
X99579889Y-53645111D01*
X102334444Y-51320196D02*
X102416209Y-51238431D01*
X102508974Y-51145666D02*
X103912857Y-51145666D01*
X99579889Y-53645111D02*
X100175307Y-53645111D01*
X104097013Y-51329822D02*
X104097013Y-51935955D01*
X102632968Y-53400000D02*
X101813693Y-53400000D01*
X102416209Y-51238431D02*
X102508974Y-51145666D01*
X103912857Y-51145666D02*
X104097013Y-51329822D01*
X101034444Y-54179249D02*
X101034444Y-54504248D01*
X100175307Y-53645111D02*
X101034444Y-54504248D01*
X104097013Y-51935955D02*
X102632968Y-53400000D01*
X101813693Y-53400000D02*
X101034444Y-54179249D01*
X93940000Y-51460000D02*
X96215881Y-53735881D01*
X96215881Y-53735881D02*
X96465807Y-53735881D01*
X96754926Y-54025000D02*
X99200000Y-54025000D01*
X96465807Y-53735881D02*
X96754926Y-54025000D01*
X102334444Y-52604248D02*
X102334444Y-51320196D01*
%TO.N,Net-(D3-A1)*%
X96768627Y-31994902D02*
X96996471Y-31767058D01*
X96768627Y-32784923D02*
X96768627Y-31994902D01*
%TO.N,Net-(D3-A2)*%
X96411470Y-30917058D02*
X96996470Y-30917058D01*
X96064052Y-31264476D02*
X96411470Y-30917058D01*
X96064052Y-32792843D02*
X96064052Y-31264476D01*
%TO.N,Net-(D4-A2)*%
X101915290Y-58521275D02*
X101455015Y-58061000D01*
X101915290Y-59542179D02*
X101915290Y-58521275D01*
X106640000Y-51090000D02*
X106690000Y-51090000D01*
X106690000Y-51090000D02*
X106700000Y-51100000D01*
X100361000Y-58061000D02*
X100200000Y-57900000D01*
X99200000Y-61150000D02*
X100307469Y-61150000D01*
X100307469Y-61150000D02*
X101915290Y-59542179D01*
X101455015Y-58061000D02*
X100361000Y-58061000D01*
%TO.N,Net-(D4-A1)*%
X106650000Y-52278000D02*
X105800000Y-51428000D01*
X105800000Y-51428000D02*
X105800000Y-51090000D01*
X106650000Y-52540000D02*
X106650000Y-52278000D01*
%TO.N,Net-(D4-K1)*%
X105790000Y-52540000D02*
X105790000Y-53490000D01*
X105790000Y-53490000D02*
X106600000Y-54300000D01*
%TO.N,Net-(D5-A1)*%
X91650000Y-50650000D02*
X91550000Y-50550000D01*
X91550000Y-50550000D02*
X91550000Y-50150000D01*
X93307843Y-50747973D02*
X93209870Y-50650000D01*
X93209870Y-50650000D02*
X91650000Y-50650000D01*
%TO.N,/SWDIO*%
X101600000Y-47800000D02*
X102079000Y-47321000D01*
X103000000Y-47419834D02*
X103000000Y-49000000D01*
X98181000Y-49251000D02*
X99000000Y-49251000D01*
X99000000Y-49251000D02*
X100451000Y-47800000D01*
X102079000Y-47321000D02*
X102079000Y-47260834D01*
X100451000Y-47800000D02*
X101600000Y-47800000D01*
X102329917Y-47009917D02*
X102590083Y-47009917D01*
X97680000Y-48750000D02*
X98181000Y-49251000D01*
X102590083Y-47009917D02*
X103000000Y-47419834D01*
X97680000Y-48012500D02*
X97680000Y-48750000D01*
X102079000Y-47260834D02*
X102329917Y-47009917D01*
%TO.N,/SWCLK*%
X97179999Y-48012500D02*
X97179999Y-48893637D01*
X97680096Y-49393734D02*
X97680096Y-50100376D01*
X97179999Y-48893637D02*
X97680096Y-49393734D01*
%TO.N,Net-(Q1-G)*%
X105875654Y-64075654D02*
X105993881Y-64075654D01*
X104400000Y-62600000D02*
X105875654Y-64075654D01*
%TO.N,Net-(Q2-D)*%
X106044834Y-61950000D02*
X105619000Y-62375834D01*
X92165000Y-52835000D02*
X92100000Y-52835000D01*
X106620000Y-61950000D02*
X106044834Y-61950000D01*
X105619000Y-62375834D02*
X105619000Y-62884000D01*
X105619000Y-62884000D02*
X106000000Y-63265000D01*
X92400000Y-52600000D02*
X92165000Y-52835000D01*
%TO.N,Net-(U9-PB10)*%
X98374268Y-37718598D02*
X96037385Y-37718598D01*
X99360000Y-33730000D02*
X99360000Y-36732866D01*
X99054923Y-33424923D02*
X99360000Y-33730000D01*
X99360000Y-36732866D02*
X98374268Y-37718598D01*
X95680000Y-38075983D02*
X95680000Y-39687500D01*
X96768627Y-33424923D02*
X99054923Y-33424923D01*
X96037385Y-37718598D02*
X95680000Y-38075983D01*
%TO.N,Net-(U9-PB11)*%
X99099000Y-36624756D02*
X98266158Y-37457598D01*
X95929275Y-37457598D02*
X95180000Y-38206873D01*
X99099000Y-34339000D02*
X99099000Y-36624756D01*
X95180000Y-38206873D02*
X95180000Y-39687500D01*
X98266158Y-37457598D02*
X95929275Y-37457598D01*
X98595923Y-33835923D02*
X99099000Y-34339000D01*
X96467132Y-33835923D02*
X98595923Y-33835923D01*
X96064052Y-33432843D02*
X96467132Y-33835923D01*
%TO.N,/SENSE_A*%
X97994409Y-40739408D02*
X97680000Y-40424999D01*
X100360592Y-40739408D02*
X97994409Y-40739408D01*
X97680000Y-40424999D02*
X97680000Y-39687500D01*
X100900000Y-40200000D02*
X100360592Y-40739408D01*
%TO.N,/SENSE_B*%
X101328000Y-36700000D02*
X102200000Y-36700000D01*
X97700000Y-38700598D02*
X97892598Y-38508000D01*
X97892598Y-38508000D02*
X99520000Y-38508000D01*
X99520000Y-38508000D02*
X101328000Y-36700000D01*
X97429402Y-38700598D02*
X97700000Y-38700598D01*
X97179999Y-38950001D02*
X97429402Y-38700598D01*
X97179999Y-39687500D02*
X97179999Y-38950001D01*
%TO.N,/FIRE_A*%
X90996882Y-42431000D02*
X91598499Y-42431000D01*
X90917882Y-42510000D02*
X90996882Y-42431000D01*
X90910000Y-42510000D02*
X90917882Y-42510000D01*
X90680900Y-42857354D02*
X90680900Y-42739100D01*
X91598499Y-42431000D02*
X91767500Y-42600001D01*
X90680900Y-42739100D02*
X90910000Y-42510000D01*
%TO.N,/GATE_A*%
X93893463Y-56783325D02*
X93408325Y-56783325D01*
X93408325Y-56783325D02*
X93315000Y-56690000D01*
%TO.N,/FIRE_B*%
X90899814Y-42100000D02*
X91767500Y-42100000D01*
X90635803Y-42364011D02*
X90899814Y-42100000D01*
X90437765Y-42364011D02*
X90635803Y-42364011D01*
%TO.N,/GATE_B*%
X91800000Y-55600000D02*
X91290000Y-56110000D01*
X91290000Y-56110000D02*
X91290000Y-56190000D01*
%TO.N,/CMP_LDO_IN*%
X95527503Y-57493684D02*
X95901699Y-57119488D01*
X94524833Y-58140000D02*
X95171149Y-57493684D01*
X90810000Y-57918594D02*
X91031406Y-58140000D01*
X90810000Y-57461406D02*
X90810000Y-57918594D01*
X95901699Y-57716068D02*
X96060315Y-57874684D01*
X91031406Y-58140000D02*
X93380000Y-58140000D01*
X91290000Y-57190000D02*
X91081406Y-57190000D01*
X95171149Y-57493684D02*
X95527503Y-57493684D01*
X91081406Y-57190000D02*
X90810000Y-57461406D01*
X93380000Y-58140000D02*
X94524833Y-58140000D01*
X95901699Y-57119488D02*
X95901699Y-57716068D01*
X93390000Y-57740000D02*
X93390000Y-58130000D01*
X93390000Y-58130000D02*
X93380000Y-58140000D01*
%TO.N,/CMP_RAIL*%
X95141862Y-55901960D02*
X94925228Y-55685326D01*
X95141862Y-56446928D02*
X95141862Y-55901960D01*
X94273791Y-57314999D02*
X95141862Y-56446928D01*
X93315000Y-57190000D02*
X93439999Y-57314999D01*
X93439999Y-57314999D02*
X94273791Y-57314999D01*
%TO.N,/V_BATT*%
X100507000Y-38769000D02*
X101107000Y-39369000D01*
X101107000Y-39369000D02*
X102035976Y-39369000D01*
X98496882Y-38769000D02*
X100507000Y-38769000D01*
X102035976Y-39369000D02*
X102333581Y-39666605D01*
X98180000Y-39687500D02*
X98180000Y-39085882D01*
X98180000Y-39085882D02*
X98496882Y-38769000D01*
%TO.N,/USB_D+*%
X92959998Y-46054999D02*
X92504999Y-45600000D01*
X92504999Y-45600000D02*
X91767500Y-45600000D01*
X92959998Y-46430002D02*
X92959998Y-46054999D01*
%TO.N,/USB_D-*%
X93400000Y-45995000D02*
X92504999Y-45099999D01*
X92504999Y-45099999D02*
X91767500Y-45099999D01*
X93483378Y-46217533D02*
X93400000Y-46134155D01*
X93400000Y-46134155D02*
X93400000Y-45995000D01*
X93483378Y-46260956D02*
X93483378Y-46217533D01*
%TO.N,/AC_INT1*%
X97800000Y-44700000D02*
X98199999Y-45099999D01*
X98199999Y-45099999D02*
X100092500Y-45099999D01*
%TO.N,/SCK0*%
X100983536Y-42100000D02*
X101848255Y-41235281D01*
X100092500Y-42100000D02*
X100983536Y-42100000D01*
%TO.N,/MISO0*%
X100714930Y-41600000D02*
X100092500Y-41600000D01*
X101207465Y-41107465D02*
X100714930Y-41600000D01*
%TO.N,/CS_ACCEL*%
X101257504Y-39687500D02*
X98680000Y-39687500D01*
X101800000Y-39800000D02*
X101370004Y-39800000D01*
X101370004Y-39800000D02*
X101257504Y-39687500D01*
%TO.N,/MOSI0*%
X99009528Y-42600001D02*
X100092500Y-42600001D01*
X98778527Y-42369000D02*
X99009528Y-42600001D01*
X98536744Y-42369000D02*
X98778527Y-42369000D01*
X98441173Y-42273429D02*
X98536744Y-42369000D01*
%TO.N,/AC_INT2*%
X97261475Y-44808661D02*
X97583814Y-45131000D01*
X97200000Y-44300000D02*
X97261475Y-44361475D01*
X97261475Y-44361475D02*
X97261475Y-44808661D01*
X97583814Y-45131000D02*
X97690527Y-45131000D01*
X98159527Y-45600000D02*
X100092500Y-45600000D01*
X97690527Y-45131000D02*
X98159527Y-45600000D01*
%TO.N,/SCK3*%
X94895000Y-45320000D02*
X94175000Y-44600000D01*
X94940000Y-45320000D02*
X94895000Y-45320000D01*
X94175000Y-44600000D02*
X91767500Y-44600000D01*
%TO.N,/MISO3*%
X92810000Y-43100000D02*
X92890000Y-43020000D01*
X91767500Y-43100000D02*
X92810000Y-43100000D01*
%TO.N,/MOSI3*%
X90831000Y-44299001D02*
X90831000Y-45435976D01*
X90516973Y-45750003D02*
X90400000Y-45750003D01*
X91030001Y-44100000D02*
X90831000Y-44299001D01*
X91767500Y-44100000D02*
X91030001Y-44100000D01*
X90831000Y-45435976D02*
X90516973Y-45750003D01*
%TO.N,/TX1*%
X97920003Y-46600000D02*
X100092500Y-46600000D01*
X97720003Y-46800000D02*
X97920003Y-46600000D01*
X97550000Y-46800000D02*
X97720003Y-46800000D01*
%TO.N,/RX1*%
X97698841Y-46271159D02*
X97870000Y-46100000D01*
X97306426Y-46271159D02*
X97698841Y-46271159D01*
X97870000Y-46100000D02*
X100092500Y-46100000D01*
X97209565Y-46368020D02*
X97306426Y-46271159D01*
%TO.N,/MISO5*%
X98680000Y-48820000D02*
X98680000Y-48012500D01*
%TO.N,/MOSI5*%
X93180000Y-48012500D02*
X93180000Y-48002939D01*
X93180000Y-48002939D02*
X92862983Y-47685922D01*
%TO.N,/SCK5*%
X93682060Y-46796135D02*
X93680000Y-46798195D01*
X93680000Y-46798195D02*
X93680000Y-48012500D01*
%TO.N,/CS_FLASH*%
X95139256Y-46315745D02*
X94180000Y-47275001D01*
X95574034Y-46315745D02*
X95139256Y-46315745D01*
X94180000Y-47275001D02*
X94180000Y-48012500D01*
%TO.N,/CS_COMP0*%
X94836000Y-38181763D02*
X94836000Y-38429883D01*
X94836000Y-38429883D02*
X94180000Y-39085883D01*
X96715514Y-36302249D02*
X94836000Y-38181763D01*
X97908463Y-36302249D02*
X96715514Y-36302249D01*
X94180000Y-39085883D02*
X94180000Y-39687500D01*
%TO.N,/BUZZ*%
X102615000Y-30995000D02*
X103170000Y-30995000D01*
X102170000Y-31440000D02*
X102615000Y-30995000D01*
X90610024Y-40850455D02*
X91517955Y-40850455D01*
X90609651Y-40850082D02*
X90610024Y-40850455D01*
X91517955Y-40850455D02*
X91767500Y-41100000D01*
%TO.N,Net-(J10-Pin_2)*%
X105439004Y-43231000D02*
X105540002Y-43130002D01*
X103267731Y-42501984D02*
X104056184Y-42501984D01*
X104777252Y-43223052D02*
X104826995Y-43223052D01*
X104056184Y-42501984D02*
X104777252Y-43223052D01*
X104834943Y-43231000D02*
X105439004Y-43231000D01*
X104826995Y-43223052D02*
X104834943Y-43231000D01*
%TO.N,Net-(J10-Pin_1)*%
X103267731Y-41501984D02*
X103621984Y-41501984D01*
X103621984Y-41501984D02*
X104870000Y-42750000D01*
X105050000Y-42750000D02*
X105100000Y-42800000D01*
X104870000Y-42750000D02*
X105050000Y-42750000D01*
%TO.N,Net-(D5-A2)*%
X93301699Y-51542222D02*
X93143921Y-51700000D01*
X93143921Y-51700000D02*
X91988000Y-51700000D01*
X90700000Y-50412000D02*
X90700000Y-50150000D01*
X91988000Y-51700000D02*
X90700000Y-50412000D01*
%TD*%
%TA.AperFunction,Conductor*%
%TO.N,GND*%
G36*
X103260377Y-53545243D02*
G01*
X103314708Y-53576612D01*
X103314710Y-53576612D01*
X103314712Y-53576614D01*
X103314713Y-53576614D01*
X103314715Y-53576615D01*
X103359284Y-53588557D01*
X103403853Y-53600499D01*
X103403854Y-53600500D01*
X103475166Y-53600500D01*
X103527492Y-53622174D01*
X103549166Y-53674500D01*
X103527492Y-53726826D01*
X101754820Y-55499497D01*
X101736833Y-55530652D01*
X101723267Y-55554150D01*
X101714842Y-55568742D01*
X101708675Y-55579423D01*
X101708674Y-55579425D01*
X101684790Y-55668563D01*
X101684790Y-56466051D01*
X101663116Y-56518377D01*
X101299530Y-56881962D01*
X101275214Y-56924080D01*
X101253386Y-56961885D01*
X101253384Y-56961890D01*
X101229500Y-57051028D01*
X101229500Y-57676146D01*
X101245899Y-57737347D01*
X101238507Y-57793500D01*
X101193574Y-57827978D01*
X101174421Y-57830500D01*
X100601024Y-57830500D01*
X100548698Y-57808826D01*
X100529546Y-57775653D01*
X100526615Y-57764715D01*
X100526613Y-57764710D01*
X100480471Y-57684791D01*
X100480470Y-57684790D01*
X100480469Y-57684788D01*
X100415212Y-57619531D01*
X100415209Y-57619529D01*
X100415208Y-57619528D01*
X100335289Y-57573386D01*
X100335284Y-57573384D01*
X100246146Y-57549500D01*
X100246144Y-57549500D01*
X100153856Y-57549500D01*
X100153854Y-57549500D01*
X100064715Y-57573384D01*
X100064710Y-57573386D01*
X99984791Y-57619528D01*
X99919528Y-57684791D01*
X99873386Y-57764710D01*
X99873384Y-57764715D01*
X99849500Y-57853853D01*
X99849500Y-57946146D01*
X99873384Y-58035284D01*
X99873386Y-58035289D01*
X99919528Y-58115208D01*
X99919529Y-58115209D01*
X99919531Y-58115212D01*
X99984788Y-58180469D01*
X99984790Y-58180470D01*
X99984791Y-58180471D01*
X100030912Y-58207099D01*
X100065390Y-58252032D01*
X100057998Y-58308185D01*
X100027508Y-58337119D01*
X99945947Y-58378677D01*
X99856241Y-58468383D01*
X99798643Y-58581425D01*
X99783790Y-58675207D01*
X99783790Y-59388246D01*
X99798643Y-59482031D01*
X99798644Y-59482033D01*
X99823132Y-59530092D01*
X99856240Y-59595069D01*
X99945948Y-59684777D01*
X100058986Y-59742373D01*
X100152771Y-59757227D01*
X101195613Y-59757226D01*
X101247939Y-59778900D01*
X101269613Y-59831226D01*
X101247939Y-59883552D01*
X100233667Y-60897826D01*
X100181341Y-60919500D01*
X99495833Y-60919500D01*
X99443508Y-60897827D01*
X99430469Y-60884788D01*
X99415212Y-60869531D01*
X99415209Y-60869529D01*
X99415208Y-60869528D01*
X99335289Y-60823386D01*
X99335284Y-60823384D01*
X99246146Y-60799500D01*
X99246144Y-60799500D01*
X99153856Y-60799500D01*
X99153854Y-60799500D01*
X99064715Y-60823384D01*
X99064710Y-60823386D01*
X98984791Y-60869528D01*
X98919528Y-60934791D01*
X98873386Y-61014710D01*
X98873384Y-61014715D01*
X98849500Y-61103853D01*
X98849500Y-61196146D01*
X98873384Y-61285284D01*
X98873386Y-61285289D01*
X98919528Y-61365208D01*
X98919529Y-61365209D01*
X98919531Y-61365212D01*
X98984788Y-61430469D01*
X98984790Y-61430470D01*
X98984791Y-61430471D01*
X99019480Y-61450499D01*
X99064712Y-61476614D01*
X99064713Y-61476614D01*
X99064715Y-61476615D01*
X99109284Y-61488557D01*
X99153853Y-61500499D01*
X99153854Y-61500500D01*
X99153856Y-61500500D01*
X99246146Y-61500500D01*
X99246146Y-61500499D01*
X99335288Y-61476614D01*
X99415212Y-61430469D01*
X99443508Y-61402173D01*
X99495833Y-61380500D01*
X100252999Y-61380500D01*
X100253007Y-61380501D01*
X100261619Y-61380501D01*
X100353319Y-61380501D01*
X100402945Y-61359944D01*
X100438037Y-61345409D01*
X100502878Y-61280568D01*
X100502878Y-61280567D01*
X100513283Y-61270162D01*
X100513285Y-61270159D01*
X100729591Y-61053853D01*
X101449500Y-61053853D01*
X101449500Y-61146146D01*
X101473384Y-61235284D01*
X101473386Y-61235289D01*
X101519528Y-61315208D01*
X101519529Y-61315209D01*
X101519531Y-61315212D01*
X101584788Y-61380469D01*
X101584790Y-61380470D01*
X101584791Y-61380471D01*
X101664710Y-61426613D01*
X101664712Y-61426614D01*
X101664713Y-61426614D01*
X101664715Y-61426615D01*
X101709284Y-61438557D01*
X101753853Y-61450499D01*
X101753854Y-61450500D01*
X101753856Y-61450500D01*
X101846146Y-61450500D01*
X101846146Y-61450499D01*
X101935288Y-61426614D01*
X102015212Y-61380469D01*
X102080469Y-61315212D01*
X102126614Y-61235288D01*
X102150499Y-61146146D01*
X102150500Y-61146146D01*
X102150500Y-61053854D01*
X102150499Y-61053853D01*
X102126615Y-60964715D01*
X102126613Y-60964710D01*
X102080471Y-60884791D01*
X102080470Y-60884790D01*
X102080469Y-60884788D01*
X102015212Y-60819531D01*
X102015209Y-60819529D01*
X102015208Y-60819528D01*
X101935289Y-60773386D01*
X101935284Y-60773384D01*
X101846146Y-60749500D01*
X101846144Y-60749500D01*
X101753856Y-60749500D01*
X101753854Y-60749500D01*
X101664715Y-60773384D01*
X101664710Y-60773386D01*
X101584791Y-60819528D01*
X101519528Y-60884791D01*
X101473386Y-60964710D01*
X101473384Y-60964715D01*
X101449500Y-61053853D01*
X100729591Y-61053853D01*
X101429591Y-60353853D01*
X103849500Y-60353853D01*
X103849500Y-60446146D01*
X103873384Y-60535284D01*
X103873386Y-60535289D01*
X103919528Y-60615208D01*
X103919529Y-60615209D01*
X103919531Y-60615212D01*
X103984788Y-60680469D01*
X103984790Y-60680470D01*
X103984791Y-60680471D01*
X104064710Y-60726613D01*
X104064712Y-60726614D01*
X104064713Y-60726614D01*
X104064715Y-60726615D01*
X104109284Y-60738557D01*
X104153853Y-60750499D01*
X104153854Y-60750500D01*
X104153856Y-60750500D01*
X104246146Y-60750500D01*
X104246146Y-60750499D01*
X104335288Y-60726614D01*
X104415212Y-60680469D01*
X104480469Y-60615212D01*
X104526614Y-60535288D01*
X104550499Y-60446146D01*
X104550500Y-60446146D01*
X104550500Y-60353854D01*
X104550499Y-60353853D01*
X104526615Y-60264715D01*
X104526613Y-60264710D01*
X104480471Y-60184791D01*
X104480470Y-60184790D01*
X104480469Y-60184788D01*
X104415212Y-60119531D01*
X104415209Y-60119529D01*
X104415208Y-60119528D01*
X104335289Y-60073386D01*
X104335284Y-60073384D01*
X104246146Y-60049500D01*
X104246144Y-60049500D01*
X104153856Y-60049500D01*
X104153854Y-60049500D01*
X104064715Y-60073384D01*
X104064710Y-60073386D01*
X103984791Y-60119528D01*
X103919528Y-60184791D01*
X103873386Y-60264710D01*
X103873384Y-60264715D01*
X103849500Y-60353853D01*
X101429591Y-60353853D01*
X102035449Y-59747995D01*
X102035452Y-59747993D01*
X102045857Y-59737588D01*
X102045858Y-59737588D01*
X102110699Y-59672747D01*
X102145790Y-59588028D01*
X102145790Y-58475426D01*
X102110699Y-58390707D01*
X102045858Y-58325866D01*
X102041643Y-58321651D01*
X102041636Y-58321645D01*
X101758956Y-58038965D01*
X101737282Y-57986639D01*
X101758956Y-57934313D01*
X101774283Y-57922553D01*
X101795207Y-57910472D01*
X101795207Y-57910471D01*
X101795212Y-57910469D01*
X101860469Y-57845212D01*
X101906614Y-57765288D01*
X101930499Y-57676146D01*
X101930500Y-57676146D01*
X101930500Y-57273007D01*
X101952173Y-57220682D01*
X102315759Y-56857097D01*
X102361904Y-56777173D01*
X102366860Y-56758676D01*
X102385152Y-56690411D01*
X102385790Y-56688030D01*
X102385790Y-55890543D01*
X102407464Y-55838217D01*
X103117217Y-55128464D01*
X103827178Y-54418502D01*
X103879503Y-54396829D01*
X103931829Y-54418503D01*
X103950981Y-54451676D01*
X103973384Y-54535284D01*
X103973386Y-54535289D01*
X104019528Y-54615208D01*
X104019529Y-54615209D01*
X104019531Y-54615212D01*
X104084788Y-54680469D01*
X104084790Y-54680470D01*
X104084791Y-54680471D01*
X104107181Y-54693398D01*
X104164712Y-54726614D01*
X104164713Y-54726614D01*
X104164715Y-54726615D01*
X104186063Y-54732335D01*
X104253853Y-54750499D01*
X104253854Y-54750500D01*
X104253856Y-54750500D01*
X104346146Y-54750500D01*
X104346146Y-54750499D01*
X104435288Y-54726614D01*
X104515212Y-54680469D01*
X104543658Y-54652022D01*
X104595983Y-54630349D01*
X104648309Y-54652023D01*
X104657512Y-54663237D01*
X104718105Y-54753922D01*
X104724537Y-54763547D01*
X104821453Y-54860463D01*
X104935415Y-54936610D01*
X104935420Y-54936612D01*
X104935419Y-54936612D01*
X105004471Y-54965214D01*
X105062043Y-54989061D01*
X105196470Y-55015800D01*
X105196471Y-55015800D01*
X105333529Y-55015800D01*
X105333530Y-55015800D01*
X105467957Y-54989061D01*
X105594585Y-54936610D01*
X105708547Y-54860463D01*
X105805463Y-54763547D01*
X105881610Y-54649585D01*
X105934061Y-54522957D01*
X105960800Y-54388530D01*
X105960800Y-54251470D01*
X105942667Y-54160309D01*
X105953716Y-54104761D01*
X106000808Y-54073295D01*
X106056357Y-54084344D01*
X106067571Y-54093547D01*
X106227826Y-54253802D01*
X106249500Y-54306128D01*
X106249500Y-54346146D01*
X106273384Y-54435284D01*
X106273386Y-54435289D01*
X106319528Y-54515208D01*
X106319529Y-54515209D01*
X106319531Y-54515212D01*
X106384788Y-54580469D01*
X106384790Y-54580470D01*
X106384791Y-54580471D01*
X106464710Y-54626613D01*
X106464712Y-54626614D01*
X106464713Y-54626614D01*
X106464715Y-54626615D01*
X106473079Y-54628856D01*
X106553853Y-54650499D01*
X106553854Y-54650500D01*
X106553856Y-54650500D01*
X106646146Y-54650500D01*
X106646146Y-54650499D01*
X106735288Y-54626614D01*
X106815212Y-54580469D01*
X106873175Y-54522505D01*
X106925500Y-54500832D01*
X106977826Y-54522506D01*
X106999500Y-54574832D01*
X106999500Y-61655168D01*
X106977826Y-61707494D01*
X106925500Y-61729168D01*
X106873175Y-61707494D01*
X106835212Y-61669531D01*
X106835209Y-61669529D01*
X106835208Y-61669528D01*
X106755289Y-61623386D01*
X106755284Y-61623384D01*
X106666146Y-61599500D01*
X106666144Y-61599500D01*
X106573856Y-61599500D01*
X106573854Y-61599500D01*
X106484715Y-61623384D01*
X106484710Y-61623386D01*
X106404791Y-61669528D01*
X106376492Y-61697827D01*
X106324167Y-61719500D01*
X105998984Y-61719500D01*
X105981809Y-61726614D01*
X105981808Y-61726614D01*
X105914268Y-61754589D01*
X105914265Y-61754592D01*
X105423590Y-62245266D01*
X105411945Y-62273383D01*
X105411944Y-62273386D01*
X105392831Y-62319528D01*
X105388499Y-62329985D01*
X105388499Y-62430295D01*
X105388500Y-62430304D01*
X105388500Y-62832178D01*
X105388499Y-62832192D01*
X105388499Y-62929850D01*
X105409055Y-62979476D01*
X105421236Y-63008884D01*
X105423591Y-63014568D01*
X105488432Y-63079409D01*
X105498839Y-63089816D01*
X105498841Y-63089817D01*
X105627826Y-63218802D01*
X105649500Y-63271128D01*
X105649500Y-63344872D01*
X105627826Y-63397198D01*
X105575500Y-63418872D01*
X105523174Y-63397198D01*
X104772174Y-62646198D01*
X104750500Y-62593872D01*
X104750500Y-62553854D01*
X104750499Y-62553853D01*
X104726615Y-62464715D01*
X104726614Y-62464714D01*
X104726614Y-62464712D01*
X104694809Y-62409626D01*
X104687417Y-62353475D01*
X104721895Y-62308541D01*
X104758896Y-62298627D01*
X104804958Y-62298627D01*
X104804958Y-62298626D01*
X104894100Y-62274741D01*
X104974024Y-62228596D01*
X105039281Y-62163339D01*
X105085426Y-62083415D01*
X105109311Y-61994273D01*
X105109312Y-61994273D01*
X105109312Y-61901981D01*
X105109311Y-61901980D01*
X105085427Y-61812842D01*
X105085425Y-61812837D01*
X105039283Y-61732918D01*
X105039282Y-61732917D01*
X105039281Y-61732915D01*
X104974024Y-61667658D01*
X104974021Y-61667656D01*
X104974020Y-61667655D01*
X104894101Y-61621513D01*
X104894096Y-61621511D01*
X104804958Y-61597627D01*
X104804956Y-61597627D01*
X104712668Y-61597627D01*
X104712666Y-61597627D01*
X104618839Y-61622768D01*
X104618099Y-61620009D01*
X104570512Y-61620001D01*
X104530471Y-61579945D01*
X104527365Y-61532486D01*
X104542335Y-61476615D01*
X104550499Y-61446146D01*
X104550500Y-61446146D01*
X104550500Y-61353854D01*
X104550499Y-61353853D01*
X104549918Y-61351686D01*
X104526614Y-61264712D01*
X104526613Y-61264710D01*
X104480471Y-61184791D01*
X104480470Y-61184790D01*
X104480469Y-61184788D01*
X104415212Y-61119531D01*
X104415209Y-61119529D01*
X104415208Y-61119528D01*
X104335289Y-61073386D01*
X104335284Y-61073384D01*
X104246146Y-61049500D01*
X104246144Y-61049500D01*
X104153856Y-61049500D01*
X104153854Y-61049500D01*
X104064715Y-61073384D01*
X104064710Y-61073386D01*
X103984791Y-61119528D01*
X103919528Y-61184791D01*
X103873386Y-61264710D01*
X103873384Y-61264715D01*
X103849500Y-61353853D01*
X103849500Y-61446146D01*
X103873384Y-61535284D01*
X103873386Y-61535289D01*
X103919528Y-61615208D01*
X103919529Y-61615209D01*
X103919531Y-61615212D01*
X103984788Y-61680469D01*
X103984790Y-61680470D01*
X103984791Y-61680471D01*
X104052390Y-61719500D01*
X104064712Y-61726614D01*
X104064713Y-61726614D01*
X104064715Y-61726615D01*
X104088239Y-61732918D01*
X104153853Y-61750499D01*
X104153854Y-61750500D01*
X104153856Y-61750500D01*
X104246146Y-61750500D01*
X104246146Y-61750499D01*
X104311761Y-61732918D01*
X104339973Y-61725359D01*
X104340719Y-61728143D01*
X104388201Y-61728085D01*
X104428300Y-61768083D01*
X104431447Y-61815639D01*
X104408312Y-61901983D01*
X104408312Y-61994273D01*
X104432196Y-62083411D01*
X104432197Y-62083412D01*
X104432198Y-62083415D01*
X104464002Y-62138500D01*
X104471395Y-62194652D01*
X104436917Y-62239586D01*
X104399916Y-62249500D01*
X104353854Y-62249500D01*
X104264715Y-62273384D01*
X104264710Y-62273386D01*
X104184791Y-62319528D01*
X104119528Y-62384791D01*
X104073386Y-62464710D01*
X104073385Y-62464714D01*
X104060869Y-62511421D01*
X104026390Y-62556354D01*
X103970237Y-62563745D01*
X103925304Y-62529266D01*
X103916302Y-62503841D01*
X103915646Y-62499696D01*
X103915645Y-62499694D01*
X103915645Y-62499693D01*
X103858049Y-62386657D01*
X103768343Y-62296951D01*
X103768342Y-62296950D01*
X103655304Y-62239354D01*
X103655302Y-62239353D01*
X103655301Y-62239353D01*
X103561519Y-62224500D01*
X102798480Y-62224500D01*
X102704695Y-62239353D01*
X102704693Y-62239354D01*
X102591657Y-62296950D01*
X102501951Y-62386656D01*
X102444353Y-62499698D01*
X102429500Y-62593480D01*
X102429500Y-63906519D01*
X102444353Y-64000304D01*
X102444354Y-64000306D01*
X102461780Y-64034505D01*
X102501950Y-64113342D01*
X102591658Y-64203050D01*
X102704696Y-64260646D01*
X102798481Y-64275500D01*
X103561518Y-64275499D01*
X103561519Y-64275499D01*
X103655304Y-64260646D01*
X103655306Y-64260645D01*
X103657419Y-64259568D01*
X103768342Y-64203050D01*
X103858050Y-64113342D01*
X103915646Y-64000304D01*
X103930500Y-63906519D01*
X103930499Y-62762350D01*
X103952173Y-62710025D01*
X104004499Y-62688351D01*
X104056825Y-62710025D01*
X104070915Y-62731114D01*
X104070961Y-62731088D01*
X104071359Y-62731778D01*
X104072868Y-62734036D01*
X104073384Y-62735282D01*
X104073386Y-62735288D01*
X104073388Y-62735291D01*
X104119528Y-62815208D01*
X104119529Y-62815209D01*
X104119531Y-62815212D01*
X104184788Y-62880469D01*
X104184790Y-62880470D01*
X104184791Y-62880471D01*
X104264710Y-62926613D01*
X104264712Y-62926614D01*
X104264713Y-62926614D01*
X104264715Y-62926615D01*
X104298252Y-62935601D01*
X104353853Y-62950499D01*
X104353854Y-62950500D01*
X104353856Y-62950500D01*
X104393872Y-62950500D01*
X104446198Y-62972174D01*
X105621707Y-64147683D01*
X105643381Y-64200009D01*
X105643381Y-64230328D01*
X105657915Y-64303394D01*
X105689071Y-64350024D01*
X105713280Y-64386255D01*
X105796141Y-64441620D01*
X105869207Y-64456154D01*
X105869209Y-64456154D01*
X106118553Y-64456154D01*
X106118555Y-64456154D01*
X106191621Y-64441620D01*
X106274482Y-64386255D01*
X106329847Y-64303394D01*
X106344381Y-64230328D01*
X106344381Y-63920980D01*
X106329847Y-63847914D01*
X106274482Y-63765053D01*
X106274479Y-63765050D01*
X106227858Y-63733900D01*
X106196391Y-63686809D01*
X106207440Y-63631260D01*
X106227854Y-63610844D01*
X106280601Y-63575601D01*
X106335966Y-63492740D01*
X106350500Y-63419674D01*
X106350500Y-63110326D01*
X106335966Y-63037260D01*
X106311060Y-62999986D01*
X106300012Y-62944438D01*
X106331478Y-62897346D01*
X106387027Y-62886297D01*
X106409590Y-62894789D01*
X106464710Y-62926613D01*
X106464712Y-62926614D01*
X106464713Y-62926614D01*
X106464715Y-62926615D01*
X106498252Y-62935601D01*
X106553853Y-62950499D01*
X106553854Y-62950500D01*
X106553856Y-62950500D01*
X106646146Y-62950500D01*
X106646146Y-62950499D01*
X106735288Y-62926614D01*
X106815212Y-62880469D01*
X106873175Y-62822505D01*
X106925500Y-62800832D01*
X106977826Y-62822506D01*
X106999500Y-62874832D01*
X106999500Y-65125500D01*
X106977826Y-65177826D01*
X106925500Y-65199500D01*
X97078867Y-65199500D01*
X97026541Y-65177826D01*
X97004867Y-65125500D01*
X97026541Y-65073174D01*
X97050549Y-65057133D01*
X97052641Y-65056265D01*
X97055495Y-65055084D01*
X97178416Y-64972951D01*
X97282951Y-64868416D01*
X97365084Y-64745495D01*
X97421658Y-64608913D01*
X97450500Y-64463918D01*
X97450500Y-64439162D01*
X98567631Y-64439162D01*
X98567631Y-64531455D01*
X98591515Y-64620593D01*
X98591517Y-64620598D01*
X98637659Y-64700517D01*
X98637660Y-64700518D01*
X98637662Y-64700521D01*
X98702919Y-64765778D01*
X98782843Y-64811923D01*
X98782844Y-64811923D01*
X98782846Y-64811924D01*
X98827415Y-64823866D01*
X98871984Y-64835808D01*
X98871985Y-64835809D01*
X98871987Y-64835809D01*
X98964277Y-64835809D01*
X98964277Y-64835808D01*
X99053419Y-64811923D01*
X99133343Y-64765778D01*
X99198600Y-64700521D01*
X99244745Y-64620597D01*
X99268630Y-64531455D01*
X99268631Y-64531455D01*
X99268631Y-64439163D01*
X99268630Y-64439162D01*
X99244746Y-64350024D01*
X99244744Y-64350019D01*
X99198602Y-64270100D01*
X99198601Y-64270099D01*
X99198600Y-64270097D01*
X99133343Y-64204840D01*
X99133340Y-64204838D01*
X99133339Y-64204837D01*
X99053420Y-64158695D01*
X99053415Y-64158693D01*
X98964277Y-64134809D01*
X98964275Y-64134809D01*
X98871987Y-64134809D01*
X98871985Y-64134809D01*
X98782846Y-64158693D01*
X98782841Y-64158695D01*
X98702922Y-64204837D01*
X98637659Y-64270100D01*
X98591517Y-64350019D01*
X98591515Y-64350024D01*
X98567631Y-64439162D01*
X97450500Y-64439162D01*
X97450500Y-64316082D01*
X97421658Y-64171087D01*
X97365084Y-64034505D01*
X97282951Y-63911584D01*
X97178416Y-63807049D01*
X97115565Y-63765053D01*
X97055494Y-63724915D01*
X96918917Y-63668343D01*
X96918907Y-63668340D01*
X96804081Y-63645500D01*
X96773918Y-63639500D01*
X96626082Y-63639500D01*
X96595919Y-63645500D01*
X96481092Y-63668340D01*
X96481082Y-63668343D01*
X96344505Y-63724915D01*
X96221584Y-63807048D01*
X96221583Y-63807050D01*
X96117050Y-63911583D01*
X96117048Y-63911584D01*
X96034915Y-64034505D01*
X95978343Y-64171082D01*
X95978340Y-64171092D01*
X95949500Y-64316083D01*
X95949500Y-64463916D01*
X95978340Y-64608907D01*
X95978343Y-64608917D01*
X96034915Y-64745494D01*
X96117048Y-64868415D01*
X96221584Y-64972951D01*
X96344505Y-65055084D01*
X96349451Y-65057133D01*
X96389500Y-65097181D01*
X96389500Y-65153818D01*
X96349452Y-65193867D01*
X96321133Y-65199500D01*
X94538867Y-65199500D01*
X94486541Y-65177826D01*
X94464867Y-65125500D01*
X94486541Y-65073174D01*
X94510549Y-65057133D01*
X94512641Y-65056265D01*
X94515495Y-65055084D01*
X94638416Y-64972951D01*
X94742951Y-64868416D01*
X94825084Y-64745495D01*
X94881658Y-64608913D01*
X94910500Y-64463918D01*
X94910500Y-64316082D01*
X94881658Y-64171087D01*
X94825084Y-64034505D01*
X94742951Y-63911584D01*
X94638416Y-63807049D01*
X94575565Y-63765053D01*
X94515494Y-63724915D01*
X94378917Y-63668343D01*
X94378907Y-63668340D01*
X94264081Y-63645500D01*
X94233918Y-63639500D01*
X94086082Y-63639500D01*
X94055919Y-63645500D01*
X93941092Y-63668340D01*
X93941082Y-63668343D01*
X93804505Y-63724915D01*
X93681584Y-63807048D01*
X93681583Y-63807050D01*
X93577050Y-63911583D01*
X93577048Y-63911584D01*
X93494915Y-64034505D01*
X93438343Y-64171082D01*
X93438340Y-64171092D01*
X93409500Y-64316083D01*
X93409500Y-64463916D01*
X93438340Y-64608907D01*
X93438343Y-64608917D01*
X93494915Y-64745494D01*
X93577048Y-64868415D01*
X93681584Y-64972951D01*
X93804505Y-65055084D01*
X93809451Y-65057133D01*
X93849500Y-65097181D01*
X93849500Y-65153818D01*
X93809452Y-65193867D01*
X93781133Y-65199500D01*
X91998867Y-65199500D01*
X91946541Y-65177826D01*
X91924867Y-65125500D01*
X91946541Y-65073174D01*
X91970549Y-65057133D01*
X91972641Y-65056265D01*
X91975495Y-65055084D01*
X92098416Y-64972951D01*
X92202951Y-64868416D01*
X92285084Y-64745495D01*
X92341658Y-64608913D01*
X92370500Y-64463918D01*
X92370500Y-64316082D01*
X92341658Y-64171087D01*
X92285084Y-64034505D01*
X92202951Y-63911584D01*
X92098416Y-63807049D01*
X92035565Y-63765053D01*
X91975494Y-63724915D01*
X91838917Y-63668343D01*
X91838907Y-63668340D01*
X91724081Y-63645500D01*
X91693918Y-63639500D01*
X91546082Y-63639500D01*
X91515919Y-63645500D01*
X91401092Y-63668340D01*
X91401082Y-63668343D01*
X91264505Y-63724915D01*
X91141584Y-63807048D01*
X91141583Y-63807050D01*
X91037050Y-63911583D01*
X91037048Y-63911584D01*
X90954915Y-64034505D01*
X90898343Y-64171082D01*
X90898340Y-64171092D01*
X90869500Y-64316083D01*
X90869500Y-64463916D01*
X90898340Y-64608907D01*
X90898343Y-64608917D01*
X90954915Y-64745494D01*
X91037048Y-64868415D01*
X91141584Y-64972951D01*
X91264505Y-65055084D01*
X91269451Y-65057133D01*
X91309500Y-65097181D01*
X91309500Y-65153818D01*
X91269452Y-65193867D01*
X91241133Y-65199500D01*
X90274500Y-65199500D01*
X90222174Y-65177826D01*
X90200500Y-65125500D01*
X90200500Y-60968479D01*
X90369500Y-60968479D01*
X90369500Y-62731520D01*
X90384353Y-62825302D01*
X90384353Y-62825303D01*
X90384354Y-62825305D01*
X90441950Y-62938343D01*
X90531657Y-63028050D01*
X90644695Y-63085646D01*
X90707218Y-63095548D01*
X90738479Y-63100500D01*
X90738480Y-63100500D01*
X92501521Y-63100500D01*
X92524966Y-63096786D01*
X92595305Y-63085646D01*
X92708343Y-63028050D01*
X92798050Y-62938343D01*
X92855646Y-62825305D01*
X92870500Y-62731520D01*
X92870500Y-62381908D01*
X92892174Y-62329582D01*
X92944500Y-62307908D01*
X92996826Y-62329582D01*
X93010432Y-62348309D01*
X93047404Y-62420872D01*
X93090475Y-62505405D01*
X93202882Y-62660118D01*
X93206172Y-62664646D01*
X93345354Y-62803828D01*
X93504595Y-62919524D01*
X93679975Y-63008884D01*
X93679977Y-63008884D01*
X93679980Y-63008886D01*
X93867163Y-63069706D01*
X93867169Y-63069707D01*
X93867174Y-63069709D01*
X93994126Y-63089816D01*
X94061582Y-63100500D01*
X94061583Y-63100500D01*
X94258418Y-63100500D01*
X94307019Y-63092802D01*
X94452826Y-63069709D01*
X94452833Y-63069706D01*
X94452836Y-63069706D01*
X94640019Y-63008886D01*
X94640019Y-63008885D01*
X94640025Y-63008884D01*
X94815405Y-62919524D01*
X94974646Y-62803828D01*
X95113828Y-62664646D01*
X95229524Y-62505405D01*
X95318884Y-62330025D01*
X95329086Y-62298626D01*
X95359622Y-62204648D01*
X95396405Y-62161580D01*
X95452867Y-62157137D01*
X95495935Y-62193920D01*
X95500378Y-62204648D01*
X95541113Y-62330019D01*
X95630475Y-62505404D01*
X95732768Y-62646198D01*
X95746172Y-62664646D01*
X95885354Y-62803828D01*
X96044595Y-62919524D01*
X96219975Y-63008884D01*
X96219977Y-63008884D01*
X96219980Y-63008886D01*
X96407163Y-63069706D01*
X96407169Y-63069707D01*
X96407174Y-63069709D01*
X96534126Y-63089816D01*
X96601582Y-63100500D01*
X96601583Y-63100500D01*
X96798418Y-63100500D01*
X96840384Y-63093853D01*
X97739500Y-63093853D01*
X97739500Y-63186146D01*
X97763384Y-63275284D01*
X97763386Y-63275289D01*
X97809528Y-63355208D01*
X97809529Y-63355209D01*
X97809531Y-63355212D01*
X97874788Y-63420469D01*
X97954712Y-63466614D01*
X97954713Y-63466614D01*
X97954715Y-63466615D01*
X97999284Y-63478557D01*
X98043853Y-63490499D01*
X98043854Y-63490500D01*
X98043856Y-63490500D01*
X98136146Y-63490500D01*
X98136146Y-63490499D01*
X98225288Y-63466614D01*
X98305212Y-63420469D01*
X98370469Y-63355212D01*
X98416614Y-63275288D01*
X98440499Y-63186146D01*
X98440500Y-63186146D01*
X98440500Y-63093854D01*
X98440499Y-63093853D01*
X98416615Y-63004715D01*
X98416613Y-63004710D01*
X98370471Y-62924791D01*
X98370470Y-62924790D01*
X98370469Y-62924788D01*
X98305212Y-62859531D01*
X98305209Y-62859529D01*
X98305208Y-62859528D01*
X98225289Y-62813386D01*
X98225284Y-62813384D01*
X98136146Y-62789500D01*
X98136144Y-62789500D01*
X98043856Y-62789500D01*
X98043854Y-62789500D01*
X97954715Y-62813384D01*
X97954710Y-62813386D01*
X97874791Y-62859528D01*
X97809528Y-62924791D01*
X97763386Y-63004710D01*
X97763384Y-63004715D01*
X97739500Y-63093853D01*
X96840384Y-63093853D01*
X96847019Y-63092802D01*
X96992826Y-63069709D01*
X96992833Y-63069706D01*
X96992836Y-63069706D01*
X97121038Y-63028050D01*
X97150036Y-63018628D01*
X97150037Y-63018628D01*
X97158627Y-63015836D01*
X97180025Y-63008884D01*
X97355405Y-62919524D01*
X97514646Y-62803828D01*
X97653828Y-62664646D01*
X97769524Y-62505405D01*
X97858884Y-62330025D01*
X97869086Y-62298626D01*
X97919706Y-62142836D01*
X97919706Y-62142833D01*
X97919709Y-62142826D01*
X97950500Y-61948417D01*
X97950500Y-61751583D01*
X97950328Y-61750500D01*
X97937207Y-61667655D01*
X97919709Y-61557174D01*
X97919707Y-61557169D01*
X97919706Y-61557163D01*
X97858886Y-61369980D01*
X97858884Y-61369977D01*
X97858884Y-61369975D01*
X97769524Y-61194595D01*
X97653828Y-61035354D01*
X97514646Y-60896172D01*
X97514643Y-60896169D01*
X97514641Y-60896168D01*
X97355404Y-60780475D01*
X97180019Y-60691113D01*
X96992836Y-60630293D01*
X96992823Y-60630290D01*
X96798418Y-60599500D01*
X96798417Y-60599500D01*
X96601583Y-60599500D01*
X96601582Y-60599500D01*
X96407176Y-60630290D01*
X96407163Y-60630293D01*
X96219980Y-60691113D01*
X96044595Y-60780475D01*
X95885358Y-60896168D01*
X95746168Y-61035358D01*
X95630475Y-61194595D01*
X95541113Y-61369980D01*
X95500378Y-61495351D01*
X95463595Y-61538419D01*
X95407133Y-61542862D01*
X95364065Y-61506079D01*
X95359622Y-61495351D01*
X95318886Y-61369980D01*
X95318884Y-61369977D01*
X95318884Y-61369975D01*
X95229524Y-61194595D01*
X95113828Y-61035354D01*
X94974646Y-60896172D01*
X94974643Y-60896169D01*
X94974641Y-60896168D01*
X94815404Y-60780475D01*
X94640019Y-60691113D01*
X94452836Y-60630293D01*
X94452823Y-60630290D01*
X94258418Y-60599500D01*
X94258417Y-60599500D01*
X94061583Y-60599500D01*
X94061582Y-60599500D01*
X93867176Y-60630290D01*
X93867163Y-60630293D01*
X93679980Y-60691113D01*
X93504595Y-60780475D01*
X93345358Y-60896168D01*
X93206168Y-61035358D01*
X93090475Y-61194595D01*
X93054748Y-61264715D01*
X93015901Y-61340959D01*
X93010435Y-61351686D01*
X92967368Y-61388469D01*
X92910905Y-61384026D01*
X92874122Y-61340959D01*
X92870500Y-61318091D01*
X92870500Y-60968479D01*
X92859310Y-60897827D01*
X92855646Y-60874695D01*
X92798050Y-60761657D01*
X92708343Y-60671950D01*
X92595305Y-60614354D01*
X92595303Y-60614353D01*
X92595302Y-60614353D01*
X92501521Y-60599500D01*
X92501520Y-60599500D01*
X90738480Y-60599500D01*
X90738479Y-60599500D01*
X90644697Y-60614353D01*
X90531655Y-60671951D01*
X90441951Y-60761655D01*
X90384353Y-60874697D01*
X90369500Y-60968479D01*
X90200500Y-60968479D01*
X90200500Y-59437801D01*
X97319434Y-59437801D01*
X97319434Y-59530094D01*
X97343318Y-59619232D01*
X97343320Y-59619237D01*
X97389462Y-59699156D01*
X97389463Y-59699157D01*
X97389465Y-59699160D01*
X97454722Y-59764417D01*
X97454724Y-59764418D01*
X97454725Y-59764419D01*
X97534644Y-59810561D01*
X97534646Y-59810562D01*
X97534647Y-59810562D01*
X97534649Y-59810563D01*
X97579218Y-59822505D01*
X97623787Y-59834447D01*
X97623788Y-59834448D01*
X97623790Y-59834448D01*
X97716080Y-59834448D01*
X97716080Y-59834447D01*
X97805222Y-59810562D01*
X97885146Y-59764417D01*
X97950403Y-59699160D01*
X97996548Y-59619236D01*
X98020433Y-59530094D01*
X98020434Y-59530094D01*
X98020434Y-59437802D01*
X98020433Y-59437801D01*
X97996549Y-59348663D01*
X97996547Y-59348658D01*
X97950405Y-59268739D01*
X97950404Y-59268738D01*
X97950403Y-59268736D01*
X97885146Y-59203479D01*
X97885143Y-59203477D01*
X97885142Y-59203476D01*
X97805223Y-59157334D01*
X97805218Y-59157332D01*
X97716080Y-59133448D01*
X97716078Y-59133448D01*
X97623790Y-59133448D01*
X97623788Y-59133448D01*
X97534649Y-59157332D01*
X97534644Y-59157334D01*
X97454725Y-59203476D01*
X97389462Y-59268739D01*
X97343320Y-59348658D01*
X97343318Y-59348663D01*
X97319434Y-59437801D01*
X90200500Y-59437801D01*
X90200500Y-58958538D01*
X90222174Y-58906212D01*
X90274500Y-58884538D01*
X90326826Y-58906212D01*
X90333203Y-58913483D01*
X90334526Y-58915207D01*
X90334528Y-58915209D01*
X90334530Y-58915212D01*
X90399787Y-58980469D01*
X90479711Y-59026614D01*
X90479712Y-59026614D01*
X90479714Y-59026615D01*
X90524283Y-59038557D01*
X90568852Y-59050499D01*
X90568853Y-59050500D01*
X90568855Y-59050500D01*
X90661145Y-59050500D01*
X90661145Y-59050499D01*
X90750287Y-59026614D01*
X90830211Y-58980469D01*
X90895468Y-58915212D01*
X90915004Y-58881376D01*
X94837160Y-58881376D01*
X94837160Y-58973669D01*
X94861044Y-59062807D01*
X94861046Y-59062812D01*
X94907188Y-59142731D01*
X94907189Y-59142732D01*
X94907191Y-59142735D01*
X94972448Y-59207992D01*
X94972450Y-59207993D01*
X94972451Y-59207994D01*
X95028139Y-59240146D01*
X95052372Y-59254137D01*
X95052373Y-59254137D01*
X95052375Y-59254138D01*
X95089293Y-59264030D01*
X95141513Y-59278022D01*
X95141514Y-59278023D01*
X95141516Y-59278023D01*
X95233806Y-59278023D01*
X95233806Y-59278022D01*
X95322948Y-59254137D01*
X95402872Y-59207992D01*
X95468129Y-59142735D01*
X95514274Y-59062811D01*
X95538159Y-58973669D01*
X95538160Y-58973669D01*
X95538160Y-58881377D01*
X95538159Y-58881376D01*
X95534410Y-58867384D01*
X95789426Y-58867384D01*
X95789426Y-58959677D01*
X95813310Y-59048815D01*
X95813312Y-59048820D01*
X95859454Y-59128739D01*
X95859455Y-59128740D01*
X95859457Y-59128743D01*
X95924714Y-59194000D01*
X95924716Y-59194001D01*
X95924717Y-59194002D01*
X96004636Y-59240144D01*
X96004638Y-59240145D01*
X96004639Y-59240145D01*
X96004641Y-59240146D01*
X96049210Y-59252088D01*
X96093779Y-59264030D01*
X96093780Y-59264031D01*
X96093782Y-59264031D01*
X96186072Y-59264031D01*
X96186072Y-59264030D01*
X96275214Y-59240145D01*
X96355138Y-59194000D01*
X96420395Y-59128743D01*
X96466540Y-59048819D01*
X96490425Y-58959677D01*
X96490426Y-58959677D01*
X96490426Y-58867385D01*
X96490425Y-58867384D01*
X96466541Y-58778246D01*
X96466539Y-58778241D01*
X96420397Y-58698322D01*
X96420396Y-58698321D01*
X96420395Y-58698319D01*
X96355138Y-58633062D01*
X96355135Y-58633060D01*
X96355134Y-58633059D01*
X96275215Y-58586917D01*
X96275210Y-58586915D01*
X96186072Y-58563031D01*
X96186070Y-58563031D01*
X96093782Y-58563031D01*
X96093780Y-58563031D01*
X96004641Y-58586915D01*
X96004636Y-58586917D01*
X95924717Y-58633059D01*
X95859454Y-58698322D01*
X95813312Y-58778241D01*
X95813310Y-58778246D01*
X95789426Y-58867384D01*
X95534410Y-58867384D01*
X95514275Y-58792238D01*
X95514273Y-58792233D01*
X95468131Y-58712314D01*
X95468130Y-58712313D01*
X95468129Y-58712311D01*
X95402872Y-58647054D01*
X95402869Y-58647052D01*
X95402868Y-58647051D01*
X95322949Y-58600909D01*
X95322944Y-58600907D01*
X95233806Y-58577023D01*
X95233804Y-58577023D01*
X95141516Y-58577023D01*
X95141514Y-58577023D01*
X95052375Y-58600907D01*
X95052370Y-58600909D01*
X94972451Y-58647051D01*
X94907188Y-58712314D01*
X94861046Y-58792233D01*
X94861044Y-58792238D01*
X94837160Y-58881376D01*
X90915004Y-58881376D01*
X90941613Y-58835288D01*
X90965498Y-58746146D01*
X90965499Y-58746146D01*
X90965499Y-58653854D01*
X90965498Y-58653853D01*
X90963675Y-58647051D01*
X90941613Y-58564712D01*
X90941612Y-58564710D01*
X90895469Y-58484789D01*
X90893065Y-58481657D01*
X90878399Y-58426952D01*
X90906711Y-58377899D01*
X90961416Y-58363233D01*
X90980086Y-58368234D01*
X90985556Y-58370500D01*
X90985557Y-58370500D01*
X93334148Y-58370500D01*
X93334150Y-58370501D01*
X93425850Y-58370501D01*
X93425852Y-58370500D01*
X94470363Y-58370500D01*
X94470371Y-58370501D01*
X94478983Y-58370501D01*
X94570682Y-58370501D01*
X94570683Y-58370501D01*
X94621382Y-58349500D01*
X94655401Y-58335409D01*
X94720242Y-58270568D01*
X94720242Y-58270567D01*
X94730647Y-58260162D01*
X94730648Y-58260159D01*
X95244951Y-57745858D01*
X95297277Y-57724184D01*
X95481651Y-57724184D01*
X95481653Y-57724185D01*
X95573353Y-57724185D01*
X95587034Y-57718517D01*
X95599863Y-57717890D01*
X95615342Y-57723432D01*
X95631787Y-57723430D01*
X95640967Y-57732607D01*
X95653185Y-57736982D01*
X95660211Y-57751846D01*
X95671841Y-57763472D01*
X95674177Y-57769109D01*
X95679815Y-57797439D01*
X95679815Y-57999358D01*
X95689721Y-58049159D01*
X95694349Y-58072424D01*
X95722938Y-58115212D01*
X95749714Y-58155285D01*
X95832575Y-58210650D01*
X95905641Y-58225184D01*
X95905643Y-58225184D01*
X96214987Y-58225184D01*
X96214989Y-58225184D01*
X96288055Y-58210650D01*
X96370916Y-58155285D01*
X96426281Y-58072424D01*
X96440815Y-57999358D01*
X96440815Y-57923548D01*
X96462489Y-57871222D01*
X96514815Y-57849548D01*
X96567141Y-57871222D01*
X96582508Y-57893655D01*
X96610991Y-57958163D01*
X96690432Y-58037604D01*
X96793206Y-58082983D01*
X96818332Y-58085898D01*
X97208061Y-58085897D01*
X97233188Y-58082983D01*
X97335962Y-58037604D01*
X97415403Y-57958163D01*
X97460782Y-57855389D01*
X97463697Y-57830263D01*
X97463696Y-56715534D01*
X97463696Y-56715533D01*
X98462697Y-56715533D01*
X98462697Y-57830261D01*
X98465611Y-57855384D01*
X98465612Y-57855390D01*
X98478955Y-57885609D01*
X98510991Y-57958163D01*
X98590432Y-58037604D01*
X98693206Y-58082983D01*
X98718332Y-58085898D01*
X99108061Y-58085897D01*
X99133188Y-58082983D01*
X99235962Y-58037604D01*
X99315403Y-57958163D01*
X99360782Y-57855389D01*
X99363697Y-57830263D01*
X99363696Y-56715534D01*
X99360782Y-56690407D01*
X99315403Y-56587633D01*
X99235962Y-56508192D01*
X99133188Y-56462813D01*
X99133187Y-56462812D01*
X99133185Y-56462812D01*
X99111856Y-56460338D01*
X99108062Y-56459898D01*
X99108061Y-56459898D01*
X98718333Y-56459898D01*
X98693210Y-56462812D01*
X98693204Y-56462813D01*
X98590431Y-56508192D01*
X98510991Y-56587632D01*
X98465611Y-56690409D01*
X98462697Y-56715533D01*
X97463696Y-56715533D01*
X97460782Y-56690407D01*
X97415403Y-56587633D01*
X97335962Y-56508192D01*
X97233188Y-56462813D01*
X97233187Y-56462812D01*
X97233185Y-56462812D01*
X97211856Y-56460338D01*
X97208062Y-56459898D01*
X97208061Y-56459898D01*
X96818333Y-56459898D01*
X96793210Y-56462812D01*
X96793204Y-56462813D01*
X96690428Y-56508193D01*
X96684772Y-56513850D01*
X96632445Y-56535522D01*
X96580123Y-56513848D01*
X96425604Y-56359329D01*
X96425604Y-56359328D01*
X96388530Y-56322254D01*
X96350355Y-56284079D01*
X96350353Y-56284078D01*
X96350351Y-56284077D01*
X96315263Y-56269543D01*
X96315263Y-56269542D01*
X96265635Y-56248986D01*
X96261307Y-56248125D01*
X96214220Y-56216659D01*
X96182302Y-56168889D01*
X96182299Y-56168886D01*
X96099439Y-56113522D01*
X96076444Y-56108948D01*
X96026373Y-56098988D01*
X95777025Y-56098988D01*
X95740447Y-56106264D01*
X95703958Y-56113522D01*
X95621098Y-56168886D01*
X95621096Y-56168888D01*
X95599163Y-56201713D01*
X95552071Y-56233178D01*
X95496522Y-56222128D01*
X95486471Y-56214063D01*
X95480612Y-56208456D01*
X95452463Y-56166327D01*
X95399872Y-56131187D01*
X95395198Y-56126714D01*
X95386196Y-56106264D01*
X95373784Y-56087688D01*
X95372563Y-56075291D01*
X95372380Y-56074876D01*
X95372493Y-56074584D01*
X95372362Y-56073251D01*
X95372362Y-55956430D01*
X95372363Y-55956421D01*
X95372363Y-55856110D01*
X95357834Y-55821036D01*
X95357833Y-55821034D01*
X95354816Y-55813751D01*
X95337271Y-55771392D01*
X95292668Y-55726789D01*
X95288861Y-55721283D01*
X95284197Y-55699644D01*
X95275728Y-55679197D01*
X95275728Y-55530653D01*
X95269531Y-55499498D01*
X95261194Y-55457586D01*
X95227017Y-55406436D01*
X95224146Y-55392000D01*
X95215969Y-55379762D01*
X95218840Y-55365326D01*
X95215969Y-55350889D01*
X95227019Y-55324213D01*
X95230148Y-55319531D01*
X95237376Y-55308713D01*
X95284468Y-55277248D01*
X95298904Y-55275826D01*
X95372272Y-55275826D01*
X95372280Y-55275827D01*
X95380892Y-55275827D01*
X95472592Y-55275827D01*
X95522218Y-55255270D01*
X95557310Y-55240735D01*
X95622151Y-55175894D01*
X95622151Y-55175893D01*
X95623051Y-55174993D01*
X95675376Y-55153319D01*
X95712445Y-55163273D01*
X95720844Y-55168134D01*
X95746017Y-55193307D01*
X95805922Y-55218119D01*
X95824932Y-55225994D01*
X95830734Y-55228398D01*
X95830735Y-55228398D01*
X95830736Y-55228398D01*
X96488698Y-55228398D01*
X96541024Y-55250072D01*
X96562698Y-55302398D01*
X96562698Y-55555261D01*
X96565611Y-55580384D01*
X96565612Y-55580390D01*
X96594646Y-55646146D01*
X96610991Y-55683163D01*
X96690432Y-55762604D01*
X96793206Y-55807983D01*
X96818332Y-55810898D01*
X97208061Y-55810897D01*
X97233188Y-55807983D01*
X97335962Y-55762604D01*
X97401494Y-55697071D01*
X97453818Y-55675398D01*
X97506145Y-55697072D01*
X97517901Y-55712392D01*
X97519524Y-55715204D01*
X97519529Y-55715209D01*
X97519531Y-55715212D01*
X97584788Y-55780469D01*
X97584790Y-55780470D01*
X97584791Y-55780471D01*
X97655051Y-55821036D01*
X97664712Y-55826614D01*
X97664713Y-55826614D01*
X97664715Y-55826615D01*
X97708015Y-55838217D01*
X97753853Y-55850499D01*
X97753854Y-55850500D01*
X97753856Y-55850500D01*
X97846146Y-55850500D01*
X97846146Y-55850499D01*
X97935288Y-55826614D01*
X98015212Y-55780469D01*
X98080469Y-55715212D01*
X98126614Y-55635288D01*
X98150499Y-55546146D01*
X98150500Y-55546146D01*
X98150500Y-55175832D01*
X98172173Y-55123507D01*
X98180469Y-55115212D01*
X98226614Y-55035288D01*
X98235636Y-55001615D01*
X98235740Y-55001228D01*
X98235740Y-55001226D01*
X98235742Y-55001220D01*
X98250500Y-54946144D01*
X98250500Y-54853856D01*
X98250500Y-54853854D01*
X98250499Y-54853853D01*
X98249676Y-54850783D01*
X98238557Y-54809284D01*
X98226615Y-54764715D01*
X98226613Y-54764710D01*
X98180471Y-54684791D01*
X98180470Y-54684790D01*
X98180469Y-54684788D01*
X98115212Y-54619531D01*
X98115209Y-54619529D01*
X98115208Y-54619528D01*
X98035289Y-54573386D01*
X98035284Y-54573384D01*
X97946146Y-54549500D01*
X97946144Y-54549500D01*
X97649652Y-54549500D01*
X97596897Y-54563635D01*
X97556849Y-54574366D01*
X97500696Y-54566974D01*
X97466218Y-54522041D01*
X97463696Y-54502888D01*
X97463696Y-54440534D01*
X97461798Y-54424169D01*
X97460782Y-54415407D01*
X97436047Y-54359389D01*
X97434740Y-54302768D01*
X97473853Y-54261805D01*
X97503743Y-54255500D01*
X98422651Y-54255500D01*
X98474977Y-54277174D01*
X98496651Y-54329500D01*
X98490346Y-54359390D01*
X98465611Y-54415409D01*
X98462697Y-54440533D01*
X98462697Y-55555261D01*
X98465611Y-55580384D01*
X98465612Y-55580390D01*
X98494646Y-55646146D01*
X98510991Y-55683163D01*
X98590432Y-55762604D01*
X98693206Y-55807983D01*
X98718332Y-55810898D01*
X99108061Y-55810897D01*
X99133188Y-55807983D01*
X99235962Y-55762604D01*
X99315403Y-55683163D01*
X99360782Y-55580389D01*
X99363697Y-55555263D01*
X99363696Y-55000610D01*
X99385370Y-54948285D01*
X99437696Y-54926611D01*
X99481834Y-54926611D01*
X99534160Y-54948285D01*
X99543363Y-54959500D01*
X99574906Y-55006709D01*
X99574908Y-55006711D01*
X99574909Y-55006712D01*
X99657770Y-55062077D01*
X99730836Y-55076611D01*
X99730838Y-55076611D01*
X99980182Y-55076611D01*
X99980184Y-55076611D01*
X100053250Y-55062077D01*
X100136111Y-55006712D01*
X100191476Y-54923851D01*
X100206010Y-54850785D01*
X100206010Y-54541437D01*
X100191476Y-54468371D01*
X100136111Y-54385510D01*
X100053250Y-54330145D01*
X99980184Y-54315611D01*
X99730836Y-54315611D01*
X99686149Y-54324500D01*
X99657769Y-54330145D01*
X99574909Y-54385509D01*
X99574906Y-54385512D01*
X99543363Y-54432722D01*
X99537061Y-54436933D01*
X99534160Y-54443937D01*
X99514217Y-54452197D01*
X99496272Y-54464189D01*
X99481834Y-54465611D01*
X99430998Y-54465611D01*
X99378672Y-54443937D01*
X99364657Y-54419780D01*
X99363030Y-54420499D01*
X99348914Y-54388530D01*
X99315403Y-54312633D01*
X99315402Y-54312632D01*
X99312633Y-54306360D01*
X99316116Y-54304821D01*
X99314272Y-54296105D01*
X99305852Y-54275777D01*
X99308579Y-54269193D01*
X99307104Y-54262221D01*
X99327525Y-54223451D01*
X99330566Y-54220409D01*
X99330568Y-54220409D01*
X99395409Y-54155568D01*
X99395409Y-54155566D01*
X99653691Y-53897285D01*
X99706017Y-53875611D01*
X100049179Y-53875611D01*
X100101505Y-53897285D01*
X100662270Y-54458050D01*
X100683944Y-54510376D01*
X100683944Y-54753922D01*
X100686091Y-54764715D01*
X100698478Y-54826988D01*
X100740719Y-54890208D01*
X100753843Y-54909849D01*
X100836704Y-54965214D01*
X100909770Y-54979748D01*
X100909772Y-54979748D01*
X101159116Y-54979748D01*
X101159118Y-54979748D01*
X101232184Y-54965214D01*
X101315045Y-54909849D01*
X101315045Y-54909847D01*
X101318332Y-54907652D01*
X101373881Y-54896603D01*
X101400556Y-54907652D01*
X101403842Y-54909847D01*
X101403843Y-54909849D01*
X101486704Y-54965214D01*
X101559770Y-54979748D01*
X101559772Y-54979748D01*
X101809116Y-54979748D01*
X101809118Y-54979748D01*
X101882184Y-54965214D01*
X101965045Y-54909849D01*
X102020410Y-54826988D01*
X102034944Y-54753922D01*
X102034944Y-54254574D01*
X102026094Y-54210083D01*
X102027572Y-54202649D01*
X102024672Y-54195646D01*
X102032932Y-54175705D01*
X102037143Y-54154535D01*
X102046347Y-54143321D01*
X102137496Y-54052174D01*
X102150040Y-54046978D01*
X102189821Y-54030500D01*
X102547608Y-54030500D01*
X102547616Y-54030501D01*
X102556228Y-54030501D01*
X102647928Y-54030501D01*
X102697554Y-54009944D01*
X102732646Y-53995409D01*
X102797487Y-53930568D01*
X102797487Y-53930567D01*
X102807892Y-53920162D01*
X102807894Y-53920159D01*
X103171051Y-53557001D01*
X103223376Y-53535328D01*
X103260377Y-53545243D01*
G37*
%TD.AperFunction*%
%TA.AperFunction,Conductor*%
G36*
X91073317Y-51111293D02*
G01*
X91792590Y-51830566D01*
X91792591Y-51830568D01*
X91812523Y-51850500D01*
X91825772Y-51863749D01*
X91834367Y-51884500D01*
X91844445Y-51908833D01*
X91847445Y-51916075D01*
X91844250Y-51923787D01*
X91825771Y-51968400D01*
X91825770Y-51968400D01*
X91825770Y-51968401D01*
X91803337Y-51983768D01*
X91777235Y-51995293D01*
X91697794Y-52074734D01*
X91652414Y-52177511D01*
X91649500Y-52202635D01*
X91649500Y-52270627D01*
X91627826Y-52322953D01*
X91575500Y-52344627D01*
X91523175Y-52322953D01*
X91519753Y-52319531D01*
X91519750Y-52319529D01*
X91519749Y-52319528D01*
X91439830Y-52273386D01*
X91439825Y-52273384D01*
X91350687Y-52249500D01*
X91350685Y-52249500D01*
X91258397Y-52249500D01*
X91258395Y-52249500D01*
X91169256Y-52273384D01*
X91169251Y-52273386D01*
X91089332Y-52319528D01*
X91024069Y-52384791D01*
X90977927Y-52464710D01*
X90977925Y-52464715D01*
X90954041Y-52553853D01*
X90954041Y-52646146D01*
X90977925Y-52735284D01*
X90977927Y-52735289D01*
X91024069Y-52815208D01*
X91024070Y-52815209D01*
X91024072Y-52815212D01*
X91089329Y-52880469D01*
X91089331Y-52880470D01*
X91089332Y-52880471D01*
X91169251Y-52926613D01*
X91169253Y-52926614D01*
X91169254Y-52926614D01*
X91169256Y-52926615D01*
X91179527Y-52929367D01*
X91258394Y-52950499D01*
X91258395Y-52950500D01*
X91258397Y-52950500D01*
X91350687Y-52950500D01*
X91350687Y-52950499D01*
X91439829Y-52926614D01*
X91519753Y-52880469D01*
X91523173Y-52877048D01*
X91575495Y-52855372D01*
X91627822Y-52877042D01*
X91649500Y-52929367D01*
X91649500Y-53467363D01*
X91652414Y-53492486D01*
X91652415Y-53492492D01*
X91660970Y-53511867D01*
X91697794Y-53595265D01*
X91777235Y-53674706D01*
X91880009Y-53720085D01*
X91905135Y-53723000D01*
X92294864Y-53722999D01*
X92319991Y-53720085D01*
X92422765Y-53674706D01*
X92502206Y-53595265D01*
X92547585Y-53492491D01*
X92550500Y-53467365D01*
X92550499Y-52960553D01*
X92572173Y-52908228D01*
X92587492Y-52896473D01*
X92615212Y-52880469D01*
X92680469Y-52815212D01*
X92726614Y-52735288D01*
X92750499Y-52646146D01*
X92750500Y-52646146D01*
X92750500Y-52553854D01*
X92750499Y-52553853D01*
X93449500Y-52553853D01*
X93449500Y-52646146D01*
X93473384Y-52735284D01*
X93473386Y-52735289D01*
X93519528Y-52815208D01*
X93519529Y-52815209D01*
X93519531Y-52815212D01*
X93584788Y-52880469D01*
X93584790Y-52880470D01*
X93584791Y-52880471D01*
X93664710Y-52926613D01*
X93664712Y-52926614D01*
X93664713Y-52926614D01*
X93664715Y-52926615D01*
X93674986Y-52929367D01*
X93753853Y-52950499D01*
X93753854Y-52950500D01*
X93753856Y-52950500D01*
X93846146Y-52950500D01*
X93846146Y-52950499D01*
X93935288Y-52926614D01*
X94015212Y-52880469D01*
X94080469Y-52815212D01*
X94126614Y-52735288D01*
X94150499Y-52646146D01*
X94150500Y-52646146D01*
X94150500Y-52553854D01*
X94150499Y-52553853D01*
X94126615Y-52464715D01*
X94126613Y-52464710D01*
X94080471Y-52384791D01*
X94080470Y-52384790D01*
X94080469Y-52384788D01*
X94015212Y-52319531D01*
X94015209Y-52319529D01*
X94015208Y-52319528D01*
X93935289Y-52273386D01*
X93935284Y-52273384D01*
X93846146Y-52249500D01*
X93846144Y-52249500D01*
X93753856Y-52249500D01*
X93753854Y-52249500D01*
X93664715Y-52273384D01*
X93664710Y-52273386D01*
X93584791Y-52319528D01*
X93519528Y-52384791D01*
X93473386Y-52464710D01*
X93473384Y-52464715D01*
X93449500Y-52553853D01*
X92750499Y-52553853D01*
X92726615Y-52464715D01*
X92726613Y-52464710D01*
X92680471Y-52384791D01*
X92680470Y-52384790D01*
X92680469Y-52384788D01*
X92615212Y-52319531D01*
X92606509Y-52314506D01*
X92587497Y-52303529D01*
X92553020Y-52258594D01*
X92550499Y-52239444D01*
X92550499Y-52202636D01*
X92547585Y-52177513D01*
X92547585Y-52177511D01*
X92547585Y-52177509D01*
X92502206Y-52074735D01*
X92484297Y-52056826D01*
X92462623Y-52004500D01*
X92484297Y-51952174D01*
X92536623Y-51930500D01*
X93089451Y-51930500D01*
X93089459Y-51930501D01*
X93098071Y-51930501D01*
X93189771Y-51930501D01*
X93239397Y-51909944D01*
X93274489Y-51895409D01*
X93337724Y-51832174D01*
X93390050Y-51810500D01*
X93454672Y-51810500D01*
X93454674Y-51810500D01*
X93527740Y-51795966D01*
X93578889Y-51761789D01*
X93634437Y-51750741D01*
X93661109Y-51761789D01*
X93712260Y-51795966D01*
X93785326Y-51810500D01*
X93933872Y-51810500D01*
X93986198Y-51832174D01*
X96016251Y-53862227D01*
X96016254Y-53862231D01*
X96020472Y-53866449D01*
X96085313Y-53931290D01*
X96127462Y-53948748D01*
X96127463Y-53948749D01*
X96170032Y-53966382D01*
X96270343Y-53966382D01*
X96270351Y-53966381D01*
X96339679Y-53966381D01*
X96392005Y-53988055D01*
X96555296Y-54151346D01*
X96555299Y-54151350D01*
X96611460Y-54207511D01*
X96633134Y-54259837D01*
X96613888Y-54306305D01*
X96614866Y-54306975D01*
X96611693Y-54311606D01*
X96611465Y-54312158D01*
X96610992Y-54312630D01*
X96565611Y-54415409D01*
X96562697Y-54440533D01*
X96562697Y-54693398D01*
X96541023Y-54745724D01*
X96488697Y-54767398D01*
X96312364Y-54767398D01*
X96260038Y-54745724D01*
X96238364Y-54693398D01*
X96238363Y-54510831D01*
X96235546Y-54486544D01*
X96235546Y-54486542D01*
X96191677Y-54387188D01*
X96114880Y-54310391D01*
X96015526Y-54266522D01*
X96015527Y-54266522D01*
X96010668Y-54265958D01*
X95991237Y-54263704D01*
X95991233Y-54263704D01*
X95564491Y-54263704D01*
X95540204Y-54266521D01*
X95440847Y-54310391D01*
X95364051Y-54387187D01*
X95320182Y-54486541D01*
X95317364Y-54510834D01*
X95317364Y-54670806D01*
X95295690Y-54723132D01*
X95243364Y-54744806D01*
X95202252Y-54732335D01*
X95122968Y-54679360D01*
X95049902Y-54664826D01*
X94800554Y-54664826D01*
X94751843Y-54674515D01*
X94727487Y-54679360D01*
X94644627Y-54734724D01*
X94644624Y-54734727D01*
X94613081Y-54781937D01*
X94568785Y-54812791D01*
X94560286Y-54814826D01*
X94538824Y-54814826D01*
X94514813Y-54824772D01*
X94509418Y-54827006D01*
X94509412Y-54827008D01*
X94454108Y-54849915D01*
X94389264Y-54914759D01*
X93361198Y-55942826D01*
X93308872Y-55964500D01*
X93069020Y-55964500D01*
X93058713Y-55966550D01*
X93006891Y-55976857D01*
X92936435Y-56023934D01*
X92936434Y-56023935D01*
X92889357Y-56094391D01*
X92878612Y-56148415D01*
X92877000Y-56156520D01*
X92877000Y-56323480D01*
X92879457Y-56335837D01*
X92889357Y-56385608D01*
X92931639Y-56448888D01*
X92942688Y-56504437D01*
X92931639Y-56531112D01*
X92889357Y-56594391D01*
X92877000Y-56656520D01*
X92877000Y-56823479D01*
X92889357Y-56885608D01*
X92931639Y-56948888D01*
X92942688Y-57004437D01*
X92931639Y-57031112D01*
X92889357Y-57094391D01*
X92877000Y-57156520D01*
X92877000Y-57323479D01*
X92889357Y-57385608D01*
X92931639Y-57448888D01*
X92942688Y-57504437D01*
X92931639Y-57531112D01*
X92889357Y-57594391D01*
X92877000Y-57656520D01*
X92877000Y-57823482D01*
X92877356Y-57827095D01*
X92875271Y-57827300D01*
X92865486Y-57876589D01*
X92818406Y-57908073D01*
X92803942Y-57909500D01*
X91157534Y-57909500D01*
X91105208Y-57887826D01*
X91062174Y-57844792D01*
X91040500Y-57792466D01*
X91040500Y-57589500D01*
X91062174Y-57537174D01*
X91114500Y-57515500D01*
X91685979Y-57515500D01*
X91685980Y-57515500D01*
X91748109Y-57503142D01*
X91818565Y-57456065D01*
X91865642Y-57385609D01*
X91878000Y-57323480D01*
X91878000Y-57156520D01*
X91865642Y-57094391D01*
X91823359Y-57031110D01*
X91812311Y-56975563D01*
X91823360Y-56948888D01*
X91827610Y-56942528D01*
X91865642Y-56885609D01*
X91878000Y-56823480D01*
X91878000Y-56656520D01*
X91865642Y-56594391D01*
X91823359Y-56531110D01*
X91812311Y-56475563D01*
X91823360Y-56448888D01*
X91834093Y-56432825D01*
X91865642Y-56385609D01*
X91878000Y-56323480D01*
X91878000Y-56156520D01*
X91865642Y-56094391D01*
X91864623Y-56092866D01*
X91838508Y-56053780D01*
X91827459Y-55998231D01*
X91858926Y-55951140D01*
X91880878Y-55941192D01*
X91935288Y-55926614D01*
X92015212Y-55880469D01*
X92080469Y-55815212D01*
X92126614Y-55735288D01*
X92150499Y-55646146D01*
X92150500Y-55646146D01*
X92150500Y-55553854D01*
X92150499Y-55553853D01*
X92148433Y-55546144D01*
X92126614Y-55464712D01*
X92080469Y-55384788D01*
X92015212Y-55319531D01*
X92015209Y-55319529D01*
X92015208Y-55319528D01*
X91935289Y-55273386D01*
X91935284Y-55273384D01*
X91846146Y-55249500D01*
X91846144Y-55249500D01*
X91753856Y-55249500D01*
X91753854Y-55249500D01*
X91693652Y-55265631D01*
X91637499Y-55258239D01*
X91603021Y-55213306D01*
X91600499Y-55194153D01*
X91600499Y-54999831D01*
X91622173Y-54947505D01*
X91674499Y-54925831D01*
X91726823Y-54947504D01*
X91734788Y-54955469D01*
X91734790Y-54955470D01*
X91734791Y-54955471D01*
X91814043Y-55001228D01*
X91814712Y-55001614D01*
X91814713Y-55001614D01*
X91814715Y-55001615D01*
X91833734Y-55006711D01*
X91903853Y-55025499D01*
X91903854Y-55025500D01*
X91903856Y-55025500D01*
X91996146Y-55025500D01*
X91996146Y-55025499D01*
X92085288Y-55001614D01*
X92165212Y-54955469D01*
X92230469Y-54890212D01*
X92276614Y-54810288D01*
X92300499Y-54721146D01*
X92300500Y-54721146D01*
X92300500Y-54628854D01*
X92300499Y-54628853D01*
X92299899Y-54626615D01*
X92286024Y-54574832D01*
X92276615Y-54539715D01*
X92276613Y-54539710D01*
X92230471Y-54459791D01*
X92230470Y-54459790D01*
X92230469Y-54459788D01*
X92165212Y-54394531D01*
X92165209Y-54394529D01*
X92165208Y-54394528D01*
X92085289Y-54348386D01*
X92085284Y-54348384D01*
X91996146Y-54324500D01*
X91996144Y-54324500D01*
X91903856Y-54324500D01*
X91903854Y-54324500D01*
X91814715Y-54348384D01*
X91814710Y-54348386D01*
X91734791Y-54394528D01*
X91734788Y-54394530D01*
X91734788Y-54394531D01*
X91726823Y-54402495D01*
X91674499Y-54424169D01*
X91622173Y-54402495D01*
X91600499Y-54350169D01*
X91600499Y-54077636D01*
X91600006Y-54073384D01*
X91597585Y-54052509D01*
X91552206Y-53949735D01*
X91472765Y-53870294D01*
X91472764Y-53870293D01*
X91455353Y-53862605D01*
X91432919Y-53847238D01*
X91415212Y-53829531D01*
X91415209Y-53829529D01*
X91415208Y-53829528D01*
X91335289Y-53783386D01*
X91335284Y-53783384D01*
X91246146Y-53759500D01*
X91246144Y-53759500D01*
X91153856Y-53759500D01*
X91153854Y-53759500D01*
X91064716Y-53783384D01*
X91064707Y-53783388D01*
X91015000Y-53812086D01*
X90978004Y-53822000D01*
X90955136Y-53822000D01*
X90930013Y-53824914D01*
X90930007Y-53824915D01*
X90827234Y-53870294D01*
X90747794Y-53949734D01*
X90702414Y-54052511D01*
X90699500Y-54077635D01*
X90699500Y-55342363D01*
X90702414Y-55367486D01*
X90702415Y-55367492D01*
X90740549Y-55453856D01*
X90747794Y-55470265D01*
X90827235Y-55549706D01*
X90930009Y-55595085D01*
X90955135Y-55598000D01*
X91297372Y-55597999D01*
X91349698Y-55619673D01*
X91371372Y-55671999D01*
X91349698Y-55724325D01*
X91131197Y-55942826D01*
X91078871Y-55964500D01*
X91044020Y-55964500D01*
X91033713Y-55966550D01*
X90981891Y-55976857D01*
X90911435Y-56023934D01*
X90911434Y-56023935D01*
X90864357Y-56094391D01*
X90853612Y-56148415D01*
X90852000Y-56156520D01*
X90852000Y-56323480D01*
X90854457Y-56335837D01*
X90864357Y-56385608D01*
X90906639Y-56448888D01*
X90917688Y-56504437D01*
X90906639Y-56531112D01*
X90864357Y-56594391D01*
X90852000Y-56656520D01*
X90852000Y-56823479D01*
X90864357Y-56885608D01*
X90906639Y-56948888D01*
X90909510Y-56963325D01*
X90917689Y-56975566D01*
X90914816Y-56990001D01*
X90917688Y-57004437D01*
X90906637Y-57031114D01*
X90895225Y-57048192D01*
X90886966Y-57058444D01*
X90886939Y-57058472D01*
X90885997Y-57059432D01*
X90614591Y-57330837D01*
X90602161Y-57360847D01*
X90579499Y-57415555D01*
X90579499Y-57515867D01*
X90579500Y-57515876D01*
X90579500Y-57866772D01*
X90579499Y-57866786D01*
X90579499Y-57872744D01*
X90579499Y-57964444D01*
X90594721Y-58001191D01*
X90614589Y-58049159D01*
X90614592Y-58049163D01*
X90689839Y-58124410D01*
X90689841Y-58124411D01*
X90812539Y-58247109D01*
X90834213Y-58299435D01*
X90812539Y-58351761D01*
X90760213Y-58373435D01*
X90741062Y-58370914D01*
X90661143Y-58349500D01*
X90568855Y-58349500D01*
X90568853Y-58349500D01*
X90479714Y-58373384D01*
X90479709Y-58373386D01*
X90399790Y-58419528D01*
X90334523Y-58484795D01*
X90333199Y-58486521D01*
X90332250Y-58487068D01*
X90331101Y-58488218D01*
X90330792Y-58487909D01*
X90284144Y-58514830D01*
X90229440Y-58500160D01*
X90201131Y-58451105D01*
X90200500Y-58441461D01*
X90200500Y-51270576D01*
X90222174Y-51218250D01*
X90274500Y-51196576D01*
X90326826Y-51218250D01*
X90338586Y-51233576D01*
X90339528Y-51235208D01*
X90339529Y-51235209D01*
X90339531Y-51235212D01*
X90404788Y-51300469D01*
X90404790Y-51300470D01*
X90404791Y-51300471D01*
X90484710Y-51346613D01*
X90484712Y-51346614D01*
X90484713Y-51346614D01*
X90484715Y-51346615D01*
X90529284Y-51358557D01*
X90573853Y-51370499D01*
X90573854Y-51370500D01*
X90573856Y-51370500D01*
X90666146Y-51370500D01*
X90666146Y-51370499D01*
X90755288Y-51346614D01*
X90835212Y-51300469D01*
X90900469Y-51235212D01*
X90946614Y-51155288D01*
X90949513Y-51144468D01*
X90983987Y-51099536D01*
X91040139Y-51092139D01*
X91073317Y-51111293D01*
G37*
%TD.AperFunction*%
%TA.AperFunction,Conductor*%
G36*
X95556990Y-56704285D02*
G01*
X95577409Y-56724704D01*
X95599908Y-56758377D01*
X95610957Y-56813926D01*
X95599908Y-56840599D01*
X95565733Y-56891746D01*
X95551199Y-56964815D01*
X95551199Y-57113360D01*
X95529525Y-57165686D01*
X95453701Y-57241510D01*
X95401375Y-57263184D01*
X95225619Y-57263184D01*
X95225611Y-57263183D01*
X95216999Y-57263183D01*
X95125300Y-57263183D01*
X95085908Y-57279500D01*
X95040581Y-57298274D01*
X95040580Y-57298276D01*
X94975739Y-57363117D01*
X94856666Y-57482189D01*
X94804340Y-57503863D01*
X94752014Y-57482189D01*
X94730340Y-57429863D01*
X94730974Y-57420198D01*
X94731552Y-57415810D01*
X94731552Y-57323523D01*
X94724016Y-57295402D01*
X94712958Y-57254132D01*
X94720350Y-57197981D01*
X94732106Y-57182658D01*
X95095664Y-56819102D01*
X95147990Y-56797428D01*
X95296534Y-56797428D01*
X95296536Y-56797428D01*
X95369602Y-56782894D01*
X95452463Y-56727529D01*
X95454351Y-56724704D01*
X95457174Y-56722817D01*
X95457617Y-56722375D01*
X95457705Y-56722463D01*
X95501441Y-56693237D01*
X95556990Y-56704285D01*
G37*
%TD.AperFunction*%
%TA.AperFunction,Conductor*%
G36*
X94553054Y-55507573D02*
G01*
X94574728Y-55559899D01*
X94574728Y-55840000D01*
X94584782Y-55890543D01*
X94589262Y-55913066D01*
X94632155Y-55977262D01*
X94644627Y-55995927D01*
X94727488Y-56051292D01*
X94778312Y-56061401D01*
X94825404Y-56092866D01*
X94836453Y-56148415D01*
X94825405Y-56175090D01*
X94775896Y-56249188D01*
X94761362Y-56322255D01*
X94761362Y-56470799D01*
X94739688Y-56523125D01*
X94369397Y-56893415D01*
X94317071Y-56915089D01*
X94264745Y-56893415D01*
X94243071Y-56841089D01*
X94243705Y-56831422D01*
X94243961Y-56829474D01*
X94243963Y-56829469D01*
X94243963Y-56737181D01*
X94243963Y-56737179D01*
X94243962Y-56737178D01*
X94220078Y-56648040D01*
X94220076Y-56648035D01*
X94173934Y-56568116D01*
X94173933Y-56568115D01*
X94173932Y-56568113D01*
X94108675Y-56502856D01*
X94108672Y-56502854D01*
X94108671Y-56502853D01*
X94028752Y-56456711D01*
X94028747Y-56456709D01*
X93951149Y-56435917D01*
X93906216Y-56401439D01*
X93897724Y-56350003D01*
X93903000Y-56323480D01*
X93903000Y-56156520D01*
X93893537Y-56108946D01*
X93904586Y-56053399D01*
X93913784Y-56042190D01*
X94448402Y-55507573D01*
X94500728Y-55485899D01*
X94553054Y-55507573D01*
G37*
%TD.AperFunction*%
%TA.AperFunction,Conductor*%
G36*
X104797029Y-49799649D02*
G01*
X104809500Y-49840761D01*
X104809500Y-52414166D01*
X104787826Y-52466492D01*
X103926826Y-53327492D01*
X103874500Y-53349166D01*
X103822174Y-53327492D01*
X103800500Y-53275166D01*
X103800500Y-53203854D01*
X103800499Y-53203853D01*
X103776615Y-53114715D01*
X103776612Y-53114708D01*
X103745243Y-53060377D01*
X103737849Y-53004225D01*
X103757000Y-52971052D01*
X104478172Y-52249881D01*
X104478175Y-52249879D01*
X104488580Y-52239474D01*
X104488581Y-52239474D01*
X104553422Y-52174633D01*
X104588513Y-52089914D01*
X104588513Y-50584973D01*
X104562987Y-50523347D01*
X104553423Y-50500256D01*
X104553421Y-50500253D01*
X104484366Y-50431198D01*
X104484359Y-50431192D01*
X104113911Y-50060744D01*
X104092237Y-50008418D01*
X104113911Y-49956092D01*
X104166237Y-49934418D01*
X104176853Y-49935464D01*
X104176855Y-49935444D01*
X104180468Y-49935800D01*
X104180470Y-49935800D01*
X104317529Y-49935800D01*
X104317530Y-49935800D01*
X104451957Y-49909061D01*
X104578585Y-49856610D01*
X104692547Y-49780463D01*
X104692549Y-49780460D01*
X104694388Y-49779232D01*
X104749937Y-49768183D01*
X104797029Y-49799649D01*
G37*
%TD.AperFunction*%
%TA.AperFunction,Conductor*%
G36*
X96044081Y-46403813D02*
G01*
X96044082Y-46403814D01*
X96079528Y-46465208D01*
X96079529Y-46465209D01*
X96079531Y-46465212D01*
X96144788Y-46530469D01*
X96144790Y-46530470D01*
X96144791Y-46530471D01*
X96209650Y-46567918D01*
X96224712Y-46576614D01*
X96224713Y-46576614D01*
X96224715Y-46576615D01*
X96255218Y-46584788D01*
X96313853Y-46600499D01*
X96313854Y-46600500D01*
X96313856Y-46600500D01*
X96353872Y-46600500D01*
X96406198Y-46622174D01*
X96427826Y-46643802D01*
X96449500Y-46696128D01*
X96449500Y-47070953D01*
X96427826Y-47123279D01*
X96375500Y-47144953D01*
X96347186Y-47139322D01*
X96342987Y-47137583D01*
X96287844Y-47126615D01*
X96277211Y-47124500D01*
X96277210Y-47124500D01*
X96082794Y-47124500D01*
X96017014Y-47137582D01*
X95942423Y-47187422D01*
X95942422Y-47187423D01*
X95892582Y-47262014D01*
X95879500Y-47327789D01*
X95879500Y-48697214D01*
X95892581Y-48762983D01*
X95904254Y-48780453D01*
X95915303Y-48836002D01*
X95910500Y-48851272D01*
X95907119Y-48858984D01*
X95905921Y-48860183D01*
X95894641Y-48887417D01*
X95894380Y-48888046D01*
X95894366Y-48888079D01*
X95870829Y-48944902D01*
X95870829Y-49024939D01*
X95849155Y-49077265D01*
X95826721Y-49092633D01*
X95794316Y-49106941D01*
X95794315Y-49106942D01*
X95717517Y-49183739D01*
X95673648Y-49283093D01*
X95670830Y-49307386D01*
X95670830Y-49734128D01*
X95673647Y-49758415D01*
X95673647Y-49758417D01*
X95673648Y-49758418D01*
X95717517Y-49857772D01*
X95794314Y-49934569D01*
X95893668Y-49978438D01*
X95917957Y-49981256D01*
X96284702Y-49981255D01*
X96308992Y-49978438D01*
X96408346Y-49934569D01*
X96485143Y-49857772D01*
X96493677Y-49838443D01*
X96534637Y-49799332D01*
X96591259Y-49800638D01*
X96613697Y-49816008D01*
X96650957Y-49853268D01*
X96750311Y-49897137D01*
X96774600Y-49899955D01*
X97201345Y-49899954D01*
X97225635Y-49897137D01*
X97249922Y-49886412D01*
X97306544Y-49885104D01*
X97347507Y-49924216D01*
X97351292Y-49973259D01*
X97329596Y-50054232D01*
X97329596Y-50146522D01*
X97353480Y-50235660D01*
X97353482Y-50235665D01*
X97399624Y-50315584D01*
X97399625Y-50315585D01*
X97399627Y-50315588D01*
X97464884Y-50380845D01*
X97464886Y-50380846D01*
X97464887Y-50380847D01*
X97531835Y-50419500D01*
X97544808Y-50426990D01*
X97544809Y-50426990D01*
X97544811Y-50426991D01*
X97569372Y-50433572D01*
X97633949Y-50450875D01*
X97633950Y-50450876D01*
X97633952Y-50450876D01*
X97726242Y-50450876D01*
X97726242Y-50450875D01*
X97815384Y-50426990D01*
X97895308Y-50380845D01*
X97907911Y-50368241D01*
X97960236Y-50346568D01*
X98001350Y-50359041D01*
X98007408Y-50363089D01*
X98014788Y-50370469D01*
X98041734Y-50386026D01*
X98043749Y-50387373D01*
X98058234Y-50409053D01*
X98074113Y-50429746D01*
X98074616Y-50433572D01*
X98075214Y-50434466D01*
X98074925Y-50435916D01*
X98076635Y-50448900D01*
X98076635Y-50561406D01*
X98092742Y-50630327D01*
X98120871Y-50662334D01*
X98139133Y-50715947D01*
X98117613Y-50763509D01*
X98097467Y-50783655D01*
X98076635Y-50861402D01*
X98076635Y-51709236D01*
X98054961Y-51761562D01*
X97288697Y-52527826D01*
X97236371Y-52549500D01*
X97084020Y-52549500D01*
X97073713Y-52551550D01*
X97021891Y-52561857D01*
X96951435Y-52608934D01*
X96951434Y-52608935D01*
X96904357Y-52679391D01*
X96892000Y-52741520D01*
X96892000Y-53170381D01*
X96870326Y-53222707D01*
X96818000Y-53244381D01*
X96450119Y-53244381D01*
X96397793Y-53222707D01*
X96002174Y-52827088D01*
X95980500Y-52774762D01*
X95980500Y-51854499D01*
X96002174Y-51802173D01*
X96054500Y-51780499D01*
X96413174Y-51780499D01*
X96454286Y-51792970D01*
X96521891Y-51838142D01*
X96584020Y-51850500D01*
X96584021Y-51850500D01*
X96750979Y-51850500D01*
X96750980Y-51850500D01*
X96813109Y-51838142D01*
X96883565Y-51791065D01*
X96930642Y-51720609D01*
X96943000Y-51658480D01*
X96943000Y-51191520D01*
X96930642Y-51129391D01*
X96883565Y-51058935D01*
X96838127Y-51028574D01*
X96813108Y-51011857D01*
X96763337Y-51001957D01*
X96750980Y-50999500D01*
X96619513Y-50999500D01*
X96567187Y-50977826D01*
X96548035Y-50944653D01*
X96526615Y-50864715D01*
X96526613Y-50864710D01*
X96480471Y-50784791D01*
X96480470Y-50784790D01*
X96480469Y-50784788D01*
X96415212Y-50719531D01*
X96415209Y-50719529D01*
X96415208Y-50719528D01*
X96335289Y-50673386D01*
X96335284Y-50673384D01*
X96246146Y-50649500D01*
X96246144Y-50649500D01*
X96153856Y-50649500D01*
X96153854Y-50649500D01*
X96064715Y-50673384D01*
X96064710Y-50673386D01*
X95984791Y-50719528D01*
X95919528Y-50784791D01*
X95873386Y-50864710D01*
X95873384Y-50864715D01*
X95849500Y-50953853D01*
X95849500Y-51046146D01*
X95873384Y-51135284D01*
X95873386Y-51135289D01*
X95915655Y-51208499D01*
X95923048Y-51264651D01*
X95888569Y-51309585D01*
X95851569Y-51319499D01*
X94996127Y-51319499D01*
X94943801Y-51297825D01*
X94350017Y-50704041D01*
X94328343Y-50651715D01*
X94328343Y-50623300D01*
X94321683Y-50589820D01*
X94313809Y-50550233D01*
X94258444Y-50467372D01*
X94230798Y-50448900D01*
X94175583Y-50412007D01*
X94102517Y-50397473D01*
X93793169Y-50397473D01*
X93756636Y-50404740D01*
X93720101Y-50412007D01*
X93668954Y-50446182D01*
X93613405Y-50457231D01*
X93586732Y-50446182D01*
X93535584Y-50412007D01*
X93506274Y-50406177D01*
X93462517Y-50397473D01*
X93153169Y-50397473D01*
X93116636Y-50404740D01*
X93080101Y-50412007D01*
X93075612Y-50413867D01*
X93047294Y-50419500D01*
X92099500Y-50419500D01*
X92047174Y-50397826D01*
X92025500Y-50345500D01*
X92025500Y-49966937D01*
X92047174Y-49914611D01*
X92099500Y-49892937D01*
X92136499Y-49902851D01*
X92164549Y-49919046D01*
X92164551Y-49919046D01*
X92164552Y-49919047D01*
X92209121Y-49930989D01*
X92253690Y-49942931D01*
X92253691Y-49942932D01*
X92253693Y-49942932D01*
X92345983Y-49942932D01*
X92345983Y-49942931D01*
X92435125Y-49919046D01*
X92515049Y-49872901D01*
X92580306Y-49807644D01*
X92626451Y-49727720D01*
X92650336Y-49638578D01*
X92650337Y-49638578D01*
X92650337Y-49546288D01*
X92647500Y-49535700D01*
X92654893Y-49479548D01*
X92699827Y-49445069D01*
X92738131Y-49445069D01*
X92748696Y-49447900D01*
X92758396Y-49450500D01*
X92758397Y-49450500D01*
X92850687Y-49450500D01*
X92850687Y-49450499D01*
X92939829Y-49426614D01*
X93019753Y-49380469D01*
X93085010Y-49315212D01*
X93131155Y-49235288D01*
X93155040Y-49146146D01*
X93155041Y-49146146D01*
X93155041Y-49053854D01*
X93155040Y-49053853D01*
X93154329Y-49051201D01*
X93147293Y-49024939D01*
X93138910Y-48993652D01*
X93146302Y-48937499D01*
X93191235Y-48903021D01*
X93210388Y-48900499D01*
X93277215Y-48900499D01*
X93342984Y-48887418D01*
X93342985Y-48887417D01*
X93342986Y-48887417D01*
X93388889Y-48856745D01*
X93444436Y-48845696D01*
X93471109Y-48856744D01*
X93517014Y-48887417D01*
X93582789Y-48900500D01*
X93777210Y-48900499D01*
X93842986Y-48887417D01*
X93888889Y-48856745D01*
X93944436Y-48845696D01*
X93971109Y-48856744D01*
X94017014Y-48887417D01*
X94082789Y-48900500D01*
X94277210Y-48900499D01*
X94342986Y-48887417D01*
X94342989Y-48887414D01*
X94347176Y-48885681D01*
X94403813Y-48885675D01*
X94443865Y-48925720D01*
X94449501Y-48954045D01*
X94449501Y-49814111D01*
X94449500Y-49814125D01*
X94449500Y-49820083D01*
X94449500Y-49911783D01*
X94467254Y-49954642D01*
X94484592Y-49996501D01*
X94515866Y-50027775D01*
X94520143Y-50034404D01*
X94523913Y-50055094D01*
X94531961Y-50074522D01*
X94529278Y-50084531D01*
X94530298Y-50090123D01*
X94526189Y-50096063D01*
X94522047Y-50111522D01*
X94487945Y-50170587D01*
X94487943Y-50170592D01*
X94464059Y-50259730D01*
X94464059Y-50352023D01*
X94487943Y-50441161D01*
X94487945Y-50441166D01*
X94534087Y-50521085D01*
X94534088Y-50521086D01*
X94534090Y-50521089D01*
X94599347Y-50586346D01*
X94599349Y-50586347D01*
X94599350Y-50586348D01*
X94679267Y-50632489D01*
X94679269Y-50632489D01*
X94679271Y-50632491D01*
X94679272Y-50632491D01*
X94679274Y-50632492D01*
X94683865Y-50633722D01*
X94768412Y-50656376D01*
X94768413Y-50656377D01*
X94768415Y-50656377D01*
X94860705Y-50656377D01*
X94860705Y-50656376D01*
X94949847Y-50632491D01*
X94949849Y-50632489D01*
X94949851Y-50632489D01*
X95023754Y-50589820D01*
X95029771Y-50586346D01*
X95095028Y-50521089D01*
X95141173Y-50441165D01*
X95165058Y-50352023D01*
X95165059Y-50352023D01*
X95165059Y-50259731D01*
X95165058Y-50259730D01*
X95141174Y-50170592D01*
X95141172Y-50170587D01*
X95095030Y-50090668D01*
X95095029Y-50090667D01*
X95095028Y-50090665D01*
X95066733Y-50062370D01*
X95046619Y-50025153D01*
X95045060Y-50017677D01*
X95045060Y-49954642D01*
X95021240Y-49897137D01*
X95011202Y-49872903D01*
X95009969Y-49869925D01*
X95009967Y-49869922D01*
X94940912Y-49800867D01*
X94940905Y-49800861D01*
X94932175Y-49792131D01*
X94910501Y-49739805D01*
X94910501Y-48954046D01*
X94932175Y-48901720D01*
X94984501Y-48880046D01*
X95012822Y-48885680D01*
X95017012Y-48887415D01*
X95017014Y-48887417D01*
X95082789Y-48900500D01*
X95277210Y-48900499D01*
X95342986Y-48887417D01*
X95417577Y-48837577D01*
X95467417Y-48762986D01*
X95480500Y-48697211D01*
X95480499Y-47327790D01*
X95480499Y-47327789D01*
X95480499Y-47327785D01*
X95467418Y-47262016D01*
X95460951Y-47252338D01*
X95417577Y-47187423D01*
X95405424Y-47179302D01*
X95342985Y-47137582D01*
X95287834Y-47126613D01*
X95277211Y-47124500D01*
X95277210Y-47124500D01*
X95082794Y-47124500D01*
X95017012Y-47137583D01*
X94971111Y-47168253D01*
X94915562Y-47179302D01*
X94898903Y-47173873D01*
X94893676Y-47171452D01*
X94842987Y-47137583D01*
X94803638Y-47129756D01*
X94795631Y-47126048D01*
X94781967Y-47111215D01*
X94765199Y-47100011D01*
X94763423Y-47091085D01*
X94757258Y-47084392D01*
X94758084Y-47064242D01*
X94754150Y-47044462D01*
X94759290Y-47034845D01*
X94759579Y-47027802D01*
X94766426Y-47021494D01*
X94774400Y-47006575D01*
X95213058Y-46567919D01*
X95265384Y-46546245D01*
X95278201Y-46546245D01*
X95330526Y-46567918D01*
X95358822Y-46596214D01*
X95358824Y-46596215D01*
X95358825Y-46596216D01*
X95411475Y-46626614D01*
X95438746Y-46642359D01*
X95438747Y-46642359D01*
X95438749Y-46642360D01*
X95481318Y-46653766D01*
X95527887Y-46666244D01*
X95527888Y-46666245D01*
X95527890Y-46666245D01*
X95620180Y-46666245D01*
X95620180Y-46666244D01*
X95709322Y-46642359D01*
X95789246Y-46596214D01*
X95854503Y-46530957D01*
X95900648Y-46451033D01*
X95908518Y-46421660D01*
X95942995Y-46376729D01*
X95999148Y-46369335D01*
X96044081Y-46403813D01*
G37*
%TD.AperFunction*%
%TA.AperFunction,Conductor*%
G36*
X103323653Y-48284101D02*
G01*
X103353585Y-48292121D01*
X103384853Y-48300499D01*
X103384854Y-48300500D01*
X103384856Y-48300500D01*
X103477144Y-48300500D01*
X103508413Y-48292121D01*
X103564564Y-48299512D01*
X103599044Y-48344444D01*
X103599044Y-48344446D01*
X103623384Y-48435284D01*
X103623386Y-48435289D01*
X103669528Y-48515208D01*
X103669529Y-48515209D01*
X103669531Y-48515212D01*
X103734788Y-48580469D01*
X103734790Y-48580470D01*
X103734791Y-48580471D01*
X103771555Y-48601697D01*
X103806034Y-48646631D01*
X103798641Y-48702783D01*
X103786881Y-48718109D01*
X103708538Y-48796452D01*
X103708536Y-48796453D01*
X103632387Y-48910419D01*
X103579940Y-49037038D01*
X103579937Y-49037049D01*
X103558237Y-49146146D01*
X103553200Y-49171470D01*
X103553200Y-49308530D01*
X103553882Y-49311960D01*
X103579937Y-49442950D01*
X103579940Y-49442961D01*
X103632387Y-49569580D01*
X103632389Y-49569583D01*
X103632390Y-49569585D01*
X103688011Y-49652828D01*
X103688794Y-49653999D01*
X103699843Y-49709548D01*
X103668377Y-49756640D01*
X103627265Y-49769111D01*
X102409498Y-49769111D01*
X102409490Y-49769110D01*
X102400878Y-49769110D01*
X102309179Y-49769110D01*
X102259553Y-49789664D01*
X102259554Y-49789665D01*
X102224462Y-49804201D01*
X102159619Y-49869044D01*
X101312241Y-50716421D01*
X101259915Y-50738095D01*
X101256564Y-50737931D01*
X100977809Y-50737931D01*
X100901091Y-50753191D01*
X100814097Y-50811318D01*
X100814096Y-50811319D01*
X100755969Y-50898313D01*
X100755969Y-50898314D01*
X100744922Y-50953853D01*
X100740709Y-50975031D01*
X100740709Y-51501830D01*
X100755969Y-51578548D01*
X100809377Y-51658480D01*
X100814097Y-51665543D01*
X100901092Y-51723671D01*
X100977808Y-51738931D01*
X101254609Y-51738930D01*
X101331326Y-51723671D01*
X101418321Y-51665543D01*
X101476449Y-51578548D01*
X101491709Y-51501832D01*
X101491708Y-51219557D01*
X101513381Y-51167233D01*
X102428831Y-50251785D01*
X102481157Y-50230111D01*
X103600674Y-50230111D01*
X103653000Y-50251785D01*
X104105839Y-50704624D01*
X104108095Y-50710071D01*
X104113139Y-50713124D01*
X104127513Y-50756950D01*
X104127513Y-50874338D01*
X104105839Y-50926664D01*
X104053513Y-50948338D01*
X104025195Y-50942705D01*
X104008334Y-50935721D01*
X103958707Y-50915165D01*
X103867007Y-50915165D01*
X103858395Y-50915165D01*
X103858387Y-50915166D01*
X102827263Y-50915166D01*
X102774937Y-50893492D01*
X102765734Y-50882278D01*
X102718321Y-50811319D01*
X102718320Y-50811318D01*
X102631326Y-50753191D01*
X102554610Y-50737931D01*
X102554608Y-50737931D01*
X102277809Y-50737931D01*
X102201091Y-50753191D01*
X102114097Y-50811318D01*
X102114096Y-50811319D01*
X102055969Y-50898313D01*
X102055969Y-50898314D01*
X102044922Y-50953853D01*
X102040709Y-50975031D01*
X102040709Y-51501830D01*
X102055969Y-51578548D01*
X102055969Y-51578549D01*
X102091472Y-51631681D01*
X102103944Y-51672794D01*
X102103944Y-52029612D01*
X102082270Y-52081938D01*
X102029944Y-52103612D01*
X101977619Y-52081938D01*
X101915212Y-52019531D01*
X101915209Y-52019529D01*
X101915208Y-52019528D01*
X101835289Y-51973386D01*
X101835284Y-51973384D01*
X101746146Y-51949500D01*
X101746144Y-51949500D01*
X101653856Y-51949500D01*
X101653854Y-51949500D01*
X101564715Y-51973384D01*
X101564710Y-51973386D01*
X101484791Y-52019528D01*
X101419527Y-52084792D01*
X101382510Y-52148907D01*
X101337577Y-52183385D01*
X101281424Y-52175991D01*
X101277314Y-52173436D01*
X101260830Y-52162422D01*
X101232184Y-52143282D01*
X101159118Y-52128748D01*
X100909770Y-52128748D01*
X100861059Y-52138437D01*
X100836703Y-52143282D01*
X100753843Y-52198646D01*
X100753842Y-52198647D01*
X100698478Y-52281507D01*
X100698478Y-52281508D01*
X100684088Y-52353853D01*
X100683944Y-52354575D01*
X100683944Y-52598120D01*
X100662270Y-52650446D01*
X100180779Y-53131937D01*
X100128453Y-53153611D01*
X99310239Y-53153611D01*
X99257913Y-53131937D01*
X99234309Y-53108333D01*
X99212635Y-53056007D01*
X99212635Y-52240905D01*
X99234309Y-52188579D01*
X99286635Y-52166905D01*
X99603155Y-52166905D01*
X99655481Y-52188579D01*
X99677155Y-52240905D01*
X99674633Y-52260058D01*
X99649500Y-52353853D01*
X99649500Y-52446146D01*
X99673384Y-52535284D01*
X99673386Y-52535289D01*
X99719528Y-52615208D01*
X99719529Y-52615209D01*
X99719531Y-52615212D01*
X99784788Y-52680469D01*
X99864712Y-52726614D01*
X99864713Y-52726614D01*
X99864715Y-52726615D01*
X99909284Y-52738557D01*
X99953853Y-52750499D01*
X99953854Y-52750500D01*
X99953856Y-52750500D01*
X100046146Y-52750500D01*
X100046146Y-52750499D01*
X100135288Y-52726614D01*
X100215212Y-52680469D01*
X100280469Y-52615212D01*
X100326614Y-52535288D01*
X100350499Y-52446146D01*
X100350500Y-52446146D01*
X100350500Y-52353854D01*
X100350499Y-52353853D01*
X100326615Y-52264715D01*
X100326613Y-52264710D01*
X100280471Y-52184791D01*
X100280470Y-52184790D01*
X100280469Y-52184788D01*
X100215212Y-52119531D01*
X100215209Y-52119529D01*
X100215208Y-52119528D01*
X100135289Y-52073386D01*
X100135284Y-52073384D01*
X100046146Y-52049500D01*
X100046144Y-52049500D01*
X99961635Y-52049500D01*
X99909309Y-52027826D01*
X99887635Y-51975500D01*
X99887635Y-50861417D01*
X99887635Y-50861402D01*
X99887313Y-50851397D01*
X99861519Y-50775149D01*
X99851914Y-50766708D01*
X99826917Y-50715887D01*
X99845178Y-50662274D01*
X99846754Y-50660536D01*
X99866802Y-50639155D01*
X99887635Y-50561405D01*
X99887635Y-50365905D01*
X99909309Y-50313579D01*
X99961635Y-50291905D01*
X100888765Y-50291905D01*
X100888773Y-50291906D01*
X100897385Y-50291906D01*
X100989085Y-50291906D01*
X101038711Y-50271349D01*
X101073803Y-50256814D01*
X101138644Y-50191973D01*
X101138644Y-50191972D01*
X101149049Y-50181567D01*
X101149051Y-50181564D01*
X101570175Y-49760439D01*
X101622500Y-49738766D01*
X101625849Y-49738930D01*
X101627803Y-49738930D01*
X101627808Y-49738931D01*
X101904609Y-49738930D01*
X101981326Y-49723671D01*
X102068321Y-49665543D01*
X102126449Y-49578548D01*
X102141709Y-49501832D01*
X102141708Y-49219557D01*
X102163381Y-49167233D01*
X102559358Y-48771257D01*
X102611682Y-48749585D01*
X102664008Y-48771259D01*
X102685682Y-48823585D01*
X102675770Y-48860582D01*
X102673387Y-48864709D01*
X102673384Y-48864715D01*
X102649500Y-48953853D01*
X102649500Y-49046146D01*
X102673384Y-49135284D01*
X102673386Y-49135289D01*
X102719528Y-49215208D01*
X102719529Y-49215209D01*
X102719531Y-49215212D01*
X102784788Y-49280469D01*
X102784790Y-49280470D01*
X102784791Y-49280471D01*
X102864710Y-49326613D01*
X102864712Y-49326614D01*
X102864713Y-49326614D01*
X102864715Y-49326615D01*
X102884458Y-49331905D01*
X102953853Y-49350499D01*
X102953854Y-49350500D01*
X102953856Y-49350500D01*
X103046146Y-49350500D01*
X103046146Y-49350499D01*
X103135288Y-49326614D01*
X103215212Y-49280469D01*
X103280469Y-49215212D01*
X103326614Y-49135288D01*
X103350499Y-49046146D01*
X103350500Y-49046146D01*
X103350500Y-48953854D01*
X103350499Y-48953853D01*
X103348205Y-48945293D01*
X103326614Y-48864712D01*
X103326612Y-48864709D01*
X103280471Y-48784791D01*
X103280470Y-48784790D01*
X103280469Y-48784788D01*
X103252173Y-48756492D01*
X103230500Y-48704167D01*
X103230500Y-48355579D01*
X103252174Y-48303253D01*
X103304500Y-48281579D01*
X103323653Y-48284101D01*
G37*
%TD.AperFunction*%
%TA.AperFunction,Conductor*%
G36*
X92920501Y-50902174D02*
G01*
X92940753Y-50940062D01*
X92941877Y-50945713D01*
X92997241Y-51028573D01*
X92997242Y-51028574D01*
X93014098Y-51039837D01*
X93045564Y-51086929D01*
X93034515Y-51142478D01*
X93014099Y-51162894D01*
X92989400Y-51179397D01*
X92989398Y-51179399D01*
X92934034Y-51262259D01*
X92919500Y-51335327D01*
X92919500Y-51395500D01*
X92897826Y-51447826D01*
X92845500Y-51469500D01*
X92114128Y-51469500D01*
X92061802Y-51447826D01*
X91620802Y-51006826D01*
X91599128Y-50954500D01*
X91620802Y-50902174D01*
X91673128Y-50880500D01*
X92868175Y-50880500D01*
X92920501Y-50902174D01*
G37*
%TD.AperFunction*%
%TA.AperFunction,Conductor*%
G36*
X105598099Y-49501717D02*
G01*
X105612819Y-49501717D01*
X105623226Y-49512125D01*
X105636826Y-49517758D01*
X105652867Y-49541766D01*
X105664387Y-49569580D01*
X105664389Y-49569583D01*
X105664390Y-49569585D01*
X105684386Y-49599511D01*
X105736240Y-49677117D01*
X105740537Y-49683547D01*
X105837453Y-49780463D01*
X105951415Y-49856610D01*
X105951420Y-49856612D01*
X105951419Y-49856612D01*
X106056059Y-49899955D01*
X106078043Y-49909061D01*
X106212470Y-49935800D01*
X106212471Y-49935800D01*
X106349529Y-49935800D01*
X106349530Y-49935800D01*
X106483957Y-49909061D01*
X106610585Y-49856610D01*
X106724547Y-49780463D01*
X106821463Y-49683547D01*
X106863972Y-49619926D01*
X106911063Y-49588462D01*
X106966612Y-49599511D01*
X106998078Y-49646603D01*
X106999500Y-49661040D01*
X106999500Y-50440500D01*
X106977826Y-50492826D01*
X106925500Y-50514500D01*
X106300180Y-50514500D01*
X106291448Y-50516236D01*
X106256279Y-50523232D01*
X106256275Y-50523234D01*
X106256107Y-50523347D01*
X106255908Y-50523386D01*
X106249546Y-50526022D01*
X106249021Y-50524755D01*
X106200557Y-50534392D01*
X106173893Y-50523347D01*
X106173724Y-50523234D01*
X106173720Y-50523232D01*
X106140720Y-50516668D01*
X106129820Y-50514500D01*
X106129819Y-50514500D01*
X105584500Y-50514500D01*
X105532174Y-50492826D01*
X105510500Y-50440500D01*
X105510500Y-49570084D01*
X105516133Y-49556484D01*
X105516133Y-49541765D01*
X105526541Y-49531357D01*
X105532174Y-49517758D01*
X105545774Y-49512124D01*
X105556182Y-49501717D01*
X105570901Y-49501717D01*
X105584500Y-49496084D01*
X105598099Y-49501717D01*
G37*
%TD.AperFunction*%
%TA.AperFunction,Conductor*%
G36*
X102516281Y-47262091D02*
G01*
X102747826Y-47493636D01*
X102769500Y-47545962D01*
X102769500Y-47720265D01*
X102747826Y-47772591D01*
X102695500Y-47794265D01*
X102665198Y-47785074D01*
X102664474Y-47786823D01*
X102657741Y-47784034D01*
X102633384Y-47779189D01*
X102584674Y-47769500D01*
X102335326Y-47769500D01*
X102286615Y-47779189D01*
X102262259Y-47784034D01*
X102179399Y-47839398D01*
X102179398Y-47839399D01*
X102124034Y-47922259D01*
X102118419Y-47950486D01*
X102109500Y-47995326D01*
X102109500Y-48304674D01*
X102119189Y-48353384D01*
X102124034Y-48377741D01*
X102161145Y-48433283D01*
X102172194Y-48488832D01*
X102151942Y-48526720D01*
X101962241Y-48716421D01*
X101909915Y-48738095D01*
X101906564Y-48737931D01*
X101627809Y-48737931D01*
X101551091Y-48753191D01*
X101464097Y-48811318D01*
X101464096Y-48811319D01*
X101405969Y-48898313D01*
X101398339Y-48936672D01*
X101392762Y-48964712D01*
X101390709Y-48975031D01*
X101390709Y-49257302D01*
X101369035Y-49309628D01*
X100869433Y-49809231D01*
X100817107Y-49830905D01*
X99961635Y-49830905D01*
X99909309Y-49809231D01*
X99887635Y-49756905D01*
X99887635Y-49561403D01*
X99887634Y-49561402D01*
X99879204Y-49529942D01*
X99866802Y-49483655D01*
X99809885Y-49426738D01*
X99809884Y-49426737D01*
X99732137Y-49405905D01*
X99732135Y-49405905D01*
X99349722Y-49405905D01*
X99297396Y-49384231D01*
X99275722Y-49331905D01*
X99297396Y-49279579D01*
X99872809Y-48704167D01*
X100524802Y-48052174D01*
X100577128Y-48030500D01*
X100749424Y-48030500D01*
X100801750Y-48052174D01*
X100823424Y-48104500D01*
X100801750Y-48156826D01*
X100786424Y-48168586D01*
X100784791Y-48169528D01*
X100719528Y-48234791D01*
X100673386Y-48314710D01*
X100673384Y-48314715D01*
X100649500Y-48403853D01*
X100649500Y-48496146D01*
X100673384Y-48585284D01*
X100673386Y-48585289D01*
X100719528Y-48665208D01*
X100719529Y-48665209D01*
X100719531Y-48665212D01*
X100784788Y-48730469D01*
X100864712Y-48776614D01*
X100864713Y-48776614D01*
X100864715Y-48776615D01*
X100895218Y-48784788D01*
X100953853Y-48800499D01*
X100953854Y-48800500D01*
X100953856Y-48800500D01*
X101046146Y-48800500D01*
X101046146Y-48800499D01*
X101135288Y-48776614D01*
X101215212Y-48730469D01*
X101280469Y-48665212D01*
X101326614Y-48585288D01*
X101350499Y-48496146D01*
X101350500Y-48496146D01*
X101350500Y-48403854D01*
X101350499Y-48403853D01*
X101343502Y-48377741D01*
X101326614Y-48314712D01*
X101326613Y-48314710D01*
X101280471Y-48234791D01*
X101280470Y-48234790D01*
X101280469Y-48234788D01*
X101215212Y-48169531D01*
X101215209Y-48169529D01*
X101215208Y-48169528D01*
X101213576Y-48168586D01*
X101212996Y-48167830D01*
X101211358Y-48166573D01*
X101211694Y-48166134D01*
X101179097Y-48123653D01*
X101186490Y-48067500D01*
X101231423Y-48033021D01*
X101250576Y-48030500D01*
X101545530Y-48030500D01*
X101545538Y-48030501D01*
X101554150Y-48030501D01*
X101645850Y-48030501D01*
X101684234Y-48014600D01*
X101695474Y-48009945D01*
X101695476Y-48009944D01*
X101730568Y-47995409D01*
X101795409Y-47930568D01*
X101795409Y-47930567D01*
X101805814Y-47920162D01*
X101805816Y-47920159D01*
X102199159Y-47526816D01*
X102199162Y-47526814D01*
X102209567Y-47516409D01*
X102209568Y-47516409D01*
X102274409Y-47451568D01*
X102293510Y-47405453D01*
X102300118Y-47389501D01*
X102303864Y-47380454D01*
X102309500Y-47366850D01*
X102309500Y-47366848D01*
X102311318Y-47362459D01*
X102327357Y-47338452D01*
X102403719Y-47262091D01*
X102456045Y-47240417D01*
X102463955Y-47240417D01*
X102516281Y-47262091D01*
G37*
%TD.AperFunction*%
%TA.AperFunction,Conductor*%
G36*
X90908394Y-45789208D02*
G01*
X90917597Y-45800422D01*
X90932492Y-45822715D01*
X90942423Y-45837577D01*
X91017014Y-45887417D01*
X91082789Y-45900500D01*
X92448870Y-45900499D01*
X92501196Y-45922173D01*
X92684345Y-46105322D01*
X92706019Y-46157648D01*
X92694722Y-46196947D01*
X92690272Y-46204046D01*
X92679529Y-46214790D01*
X92633384Y-46294714D01*
X92633336Y-46294889D01*
X92631936Y-46297125D01*
X92609862Y-46312824D01*
X92588385Y-46329305D01*
X92586956Y-46329116D01*
X92585782Y-46329952D01*
X92559080Y-46325446D01*
X92532233Y-46321912D01*
X92530036Y-46320546D01*
X92529934Y-46320529D01*
X92529874Y-46320445D01*
X92528121Y-46319355D01*
X92517986Y-46312583D01*
X92452211Y-46299500D01*
X92452210Y-46299500D01*
X91082785Y-46299500D01*
X91017016Y-46312581D01*
X90942423Y-46362422D01*
X90942422Y-46362423D01*
X90892582Y-46437014D01*
X90879500Y-46502789D01*
X90879500Y-46697205D01*
X90892582Y-46762985D01*
X90927009Y-46814508D01*
X90942423Y-46837577D01*
X91017014Y-46887417D01*
X91082789Y-46900500D01*
X91295500Y-46900499D01*
X91347826Y-46922173D01*
X91369500Y-46974499D01*
X91369500Y-46994183D01*
X91347826Y-47046509D01*
X91325391Y-47061877D01*
X91292988Y-47076184D01*
X91292985Y-47076186D01*
X91216187Y-47152983D01*
X91176271Y-47243386D01*
X91172318Y-47252338D01*
X91171187Y-47262091D01*
X91169500Y-47276630D01*
X91169500Y-47703372D01*
X91172317Y-47727659D01*
X91172317Y-47727661D01*
X91172318Y-47727662D01*
X91216187Y-47827016D01*
X91292984Y-47903813D01*
X91392338Y-47947682D01*
X91416627Y-47950500D01*
X91783372Y-47950499D01*
X91793923Y-47949275D01*
X91848398Y-47964776D01*
X91854774Y-47970456D01*
X91894263Y-48009944D01*
X91904788Y-48020469D01*
X91984712Y-48066614D01*
X91984713Y-48066614D01*
X91984715Y-48066615D01*
X92029284Y-48078557D01*
X92073853Y-48090499D01*
X92073854Y-48090500D01*
X92073856Y-48090500D01*
X92166146Y-48090500D01*
X92166146Y-48090499D01*
X92255288Y-48066614D01*
X92335212Y-48020469D01*
X92400469Y-47955212D01*
X92443017Y-47881516D01*
X92487949Y-47847040D01*
X92544102Y-47854432D01*
X92571187Y-47881516D01*
X92582514Y-47901134D01*
X92647771Y-47966391D01*
X92647773Y-47966392D01*
X92647774Y-47966393D01*
X92723207Y-48009945D01*
X92727695Y-48012536D01*
X92727696Y-48012536D01*
X92727698Y-48012537D01*
X92821524Y-48037678D01*
X92821012Y-48039586D01*
X92835794Y-48048115D01*
X92857826Y-48057241D01*
X92859777Y-48061952D01*
X92864195Y-48064501D01*
X92879500Y-48109567D01*
X92879500Y-48185072D01*
X92857826Y-48237398D01*
X92805500Y-48259072D01*
X92775191Y-48250951D01*
X92774744Y-48252032D01*
X92770257Y-48250173D01*
X92681119Y-48226289D01*
X92681117Y-48226289D01*
X92588829Y-48226289D01*
X92588827Y-48226289D01*
X92499688Y-48250173D01*
X92499683Y-48250175D01*
X92419764Y-48296317D01*
X92354501Y-48361580D01*
X92308359Y-48441499D01*
X92308357Y-48441504D01*
X92284473Y-48530642D01*
X92284473Y-48622935D01*
X92308357Y-48712073D01*
X92308359Y-48712078D01*
X92354501Y-48791997D01*
X92354502Y-48791998D01*
X92354504Y-48792001D01*
X92419761Y-48857258D01*
X92419763Y-48857259D01*
X92419764Y-48857260D01*
X92446418Y-48872649D01*
X92480897Y-48917583D01*
X92478135Y-48959746D01*
X92479182Y-48960027D01*
X92454041Y-49053853D01*
X92454041Y-49146143D01*
X92456878Y-49156734D01*
X92449482Y-49212886D01*
X92404547Y-49247363D01*
X92366246Y-49247362D01*
X92345981Y-49241932D01*
X92253693Y-49241932D01*
X92253691Y-49241932D01*
X92164552Y-49265816D01*
X92164547Y-49265818D01*
X92084628Y-49311960D01*
X92019365Y-49377223D01*
X91973223Y-49457142D01*
X91973221Y-49457147D01*
X91956473Y-49519653D01*
X91921995Y-49564586D01*
X91884995Y-49574500D01*
X91210180Y-49574500D01*
X91201448Y-49576236D01*
X91166279Y-49583232D01*
X91166275Y-49583234D01*
X91166107Y-49583347D01*
X91165908Y-49583386D01*
X91159546Y-49586022D01*
X91159021Y-49584755D01*
X91110557Y-49594392D01*
X91083893Y-49583347D01*
X91083724Y-49583234D01*
X91083720Y-49583232D01*
X91050720Y-49576668D01*
X91039820Y-49574500D01*
X90360180Y-49574500D01*
X90345546Y-49577411D01*
X90316276Y-49583233D01*
X90315611Y-49583678D01*
X90314826Y-49583834D01*
X90309544Y-49586022D01*
X90309108Y-49584971D01*
X90260062Y-49594727D01*
X90212971Y-49563260D01*
X90200500Y-49522149D01*
X90200500Y-46155850D01*
X90222174Y-46103524D01*
X90274500Y-46081850D01*
X90293653Y-46084372D01*
X90305518Y-46087551D01*
X90353853Y-46100502D01*
X90353854Y-46100503D01*
X90353856Y-46100503D01*
X90446146Y-46100503D01*
X90446146Y-46100502D01*
X90535288Y-46076617D01*
X90615212Y-46030472D01*
X90680469Y-45965215D01*
X90726614Y-45885291D01*
X90728419Y-45878552D01*
X90747569Y-45845381D01*
X90803743Y-45789207D01*
X90856068Y-45767534D01*
X90908394Y-45789208D01*
G37*
%TD.AperFunction*%
%TA.AperFunction,Conductor*%
G36*
X100752479Y-30222174D02*
G01*
X100774153Y-30274500D01*
X100772731Y-30288936D01*
X100769500Y-30305180D01*
X100769500Y-31684820D01*
X100778233Y-31728722D01*
X100811496Y-31778504D01*
X100861278Y-31811767D01*
X100905180Y-31820500D01*
X100905181Y-31820500D01*
X105434819Y-31820500D01*
X105434820Y-31820500D01*
X105478722Y-31811767D01*
X105528504Y-31778504D01*
X105561767Y-31728722D01*
X105570500Y-31684820D01*
X105570500Y-30305180D01*
X105567269Y-30288936D01*
X105578318Y-30233388D01*
X105625411Y-30201922D01*
X105639847Y-30200500D01*
X106925500Y-30200500D01*
X106977826Y-30222174D01*
X106999500Y-30274500D01*
X106999500Y-38825168D01*
X106977826Y-38877494D01*
X106925500Y-38899168D01*
X106873175Y-38877494D01*
X106815212Y-38819531D01*
X106815209Y-38819529D01*
X106815208Y-38819528D01*
X106735289Y-38773386D01*
X106735284Y-38773384D01*
X106646146Y-38749500D01*
X106646144Y-38749500D01*
X106553856Y-38749500D01*
X106553854Y-38749500D01*
X106464715Y-38773384D01*
X106464710Y-38773386D01*
X106384791Y-38819528D01*
X106319528Y-38884791D01*
X106273386Y-38964710D01*
X106273384Y-38964715D01*
X106249500Y-39053853D01*
X106249500Y-39146146D01*
X106273384Y-39235284D01*
X106273386Y-39235289D01*
X106319528Y-39315208D01*
X106319529Y-39315209D01*
X106319531Y-39315212D01*
X106384788Y-39380469D01*
X106384790Y-39380470D01*
X106384791Y-39380471D01*
X106394598Y-39386133D01*
X106464712Y-39426614D01*
X106464713Y-39426614D01*
X106464715Y-39426615D01*
X106497226Y-39435326D01*
X106553853Y-39450499D01*
X106553854Y-39450500D01*
X106553856Y-39450500D01*
X106646146Y-39450500D01*
X106646146Y-39450499D01*
X106735288Y-39426614D01*
X106815212Y-39380469D01*
X106873175Y-39322505D01*
X106925500Y-39300832D01*
X106977826Y-39322506D01*
X106999500Y-39374832D01*
X106999500Y-48818959D01*
X106977826Y-48871285D01*
X106925500Y-48892959D01*
X106873174Y-48871285D01*
X106863971Y-48860071D01*
X106862091Y-48857258D01*
X106821463Y-48796453D01*
X106724547Y-48699537D01*
X106721070Y-48697214D01*
X106673170Y-48665208D01*
X106610585Y-48623390D01*
X106610581Y-48623388D01*
X106610579Y-48623387D01*
X106610580Y-48623387D01*
X106483961Y-48570940D01*
X106483950Y-48570937D01*
X106382680Y-48550793D01*
X106349530Y-48544200D01*
X106212470Y-48544200D01*
X106185877Y-48549489D01*
X106078049Y-48570937D01*
X106078038Y-48570940D01*
X105951419Y-48623387D01*
X105837453Y-48699536D01*
X105837452Y-48699538D01*
X105740538Y-48796452D01*
X105740536Y-48796453D01*
X105664388Y-48910418D01*
X105652867Y-48938234D01*
X105612818Y-48978282D01*
X105556181Y-48978282D01*
X105516133Y-48938233D01*
X105510500Y-48909915D01*
X105510500Y-47133539D01*
X105532174Y-47081213D01*
X105584500Y-47059539D01*
X105636826Y-47081213D01*
X105655978Y-47114385D01*
X105659255Y-47126614D01*
X105662722Y-47139555D01*
X105708864Y-47219474D01*
X105708865Y-47219475D01*
X105708867Y-47219478D01*
X105774124Y-47284735D01*
X105774126Y-47284736D01*
X105774127Y-47284737D01*
X105781975Y-47289268D01*
X105854048Y-47330880D01*
X105854049Y-47330880D01*
X105854051Y-47330881D01*
X105870995Y-47335421D01*
X105943189Y-47354765D01*
X105943190Y-47354766D01*
X105943192Y-47354766D01*
X106035482Y-47354766D01*
X106035482Y-47354765D01*
X106124624Y-47330880D01*
X106204548Y-47284735D01*
X106269805Y-47219478D01*
X106300562Y-47166206D01*
X106345494Y-47131729D01*
X106383800Y-47131729D01*
X106430774Y-47144315D01*
X106453853Y-47150499D01*
X106453854Y-47150500D01*
X106453856Y-47150500D01*
X106546146Y-47150500D01*
X106546146Y-47150499D01*
X106635288Y-47126614D01*
X106715212Y-47080469D01*
X106780469Y-47015212D01*
X106826614Y-46935288D01*
X106850499Y-46846146D01*
X106850500Y-46846146D01*
X106850500Y-46753854D01*
X106850499Y-46753853D01*
X106849463Y-46749988D01*
X106837678Y-46706005D01*
X106826615Y-46664715D01*
X106826613Y-46664710D01*
X106780471Y-46584791D01*
X106780470Y-46584790D01*
X106780469Y-46584788D01*
X106715212Y-46519531D01*
X106715209Y-46519529D01*
X106715208Y-46519528D01*
X106635289Y-46473386D01*
X106635284Y-46473384D01*
X106546146Y-46449500D01*
X106546144Y-46449500D01*
X106453856Y-46449500D01*
X106453854Y-46449500D01*
X106364715Y-46473384D01*
X106364710Y-46473386D01*
X106284791Y-46519528D01*
X106219527Y-46584792D01*
X106188773Y-46638059D01*
X106143840Y-46672537D01*
X106105536Y-46672537D01*
X106035480Y-46653766D01*
X105943192Y-46653766D01*
X105943190Y-46653766D01*
X105854051Y-46677650D01*
X105854046Y-46677652D01*
X105774127Y-46723794D01*
X105708864Y-46789057D01*
X105662722Y-46868976D01*
X105662720Y-46868981D01*
X105652691Y-46906412D01*
X105647482Y-46913199D01*
X105646699Y-46921721D01*
X105630799Y-46934941D01*
X105618213Y-46951345D01*
X105609729Y-46952461D01*
X105603150Y-46957933D01*
X105582557Y-46956038D01*
X105562060Y-46958737D01*
X105555272Y-46953528D01*
X105546751Y-46952745D01*
X105534870Y-46937873D01*
X105517127Y-46924259D01*
X105510539Y-46909196D01*
X105510110Y-46907816D01*
X105486614Y-46820125D01*
X105482702Y-46813350D01*
X105440470Y-46740201D01*
X104796631Y-46096362D01*
X104774957Y-46044036D01*
X104774957Y-44345230D01*
X104796631Y-44292904D01*
X104848957Y-44271230D01*
X104885956Y-44281143D01*
X104964712Y-44326614D01*
X104964714Y-44326614D01*
X104964715Y-44326615D01*
X105005623Y-44337576D01*
X105053853Y-44350499D01*
X105053854Y-44350500D01*
X105053856Y-44350500D01*
X105146146Y-44350500D01*
X105146146Y-44350499D01*
X105235288Y-44326614D01*
X105315212Y-44280469D01*
X105380469Y-44215212D01*
X105426614Y-44135288D01*
X105450499Y-44046146D01*
X105450500Y-44046146D01*
X105450500Y-43953854D01*
X105450499Y-43953853D01*
X105949500Y-43953853D01*
X105949500Y-44046146D01*
X105973384Y-44135284D01*
X105973386Y-44135289D01*
X106019528Y-44215208D01*
X106019529Y-44215209D01*
X106019531Y-44215212D01*
X106084788Y-44280469D01*
X106084790Y-44280470D01*
X106084791Y-44280471D01*
X106137935Y-44311154D01*
X106164712Y-44326614D01*
X106164713Y-44326614D01*
X106164715Y-44326615D01*
X106205623Y-44337576D01*
X106253853Y-44350499D01*
X106253854Y-44350500D01*
X106253856Y-44350500D01*
X106346146Y-44350500D01*
X106346146Y-44350499D01*
X106435288Y-44326614D01*
X106515212Y-44280469D01*
X106580469Y-44215212D01*
X106626614Y-44135288D01*
X106650499Y-44046146D01*
X106650500Y-44046146D01*
X106650500Y-43953854D01*
X106650499Y-43953853D01*
X106626615Y-43864715D01*
X106626613Y-43864710D01*
X106580471Y-43784791D01*
X106580470Y-43784790D01*
X106580469Y-43784788D01*
X106515212Y-43719531D01*
X106515209Y-43719529D01*
X106515208Y-43719528D01*
X106435289Y-43673386D01*
X106435284Y-43673384D01*
X106346146Y-43649500D01*
X106346144Y-43649500D01*
X106253856Y-43649500D01*
X106253854Y-43649500D01*
X106164715Y-43673384D01*
X106164710Y-43673386D01*
X106084791Y-43719528D01*
X106019528Y-43784791D01*
X105973386Y-43864710D01*
X105973384Y-43864715D01*
X105949500Y-43953853D01*
X105450499Y-43953853D01*
X105426615Y-43864715D01*
X105426613Y-43864710D01*
X105380471Y-43784791D01*
X105380470Y-43784790D01*
X105380469Y-43784788D01*
X105315212Y-43719531D01*
X105315209Y-43719529D01*
X105315208Y-43719528D01*
X105235289Y-43673386D01*
X105235284Y-43673384D01*
X105146146Y-43649500D01*
X105146144Y-43649500D01*
X105053856Y-43649500D01*
X105053854Y-43649500D01*
X104964715Y-43673384D01*
X104964710Y-43673386D01*
X104884791Y-43719528D01*
X104819528Y-43784791D01*
X104770961Y-43868912D01*
X104769216Y-43867905D01*
X104734016Y-43903091D01*
X104677379Y-43903079D01*
X104653386Y-43887044D01*
X104295630Y-43529288D01*
X104273956Y-43476962D01*
X104273956Y-43299901D01*
X104271042Y-43274778D01*
X104271042Y-43274776D01*
X104271042Y-43274774D01*
X104247543Y-43221555D01*
X104246236Y-43164935D01*
X104285349Y-43123972D01*
X104341971Y-43122664D01*
X104367565Y-43139341D01*
X104577622Y-43349398D01*
X104577625Y-43349402D01*
X104581843Y-43353620D01*
X104646684Y-43418461D01*
X104691476Y-43437014D01*
X104731402Y-43453552D01*
X104731403Y-43453552D01*
X104763976Y-43453552D01*
X104772518Y-43455610D01*
X104775145Y-43457522D01*
X104783503Y-43459184D01*
X104789093Y-43461500D01*
X104789094Y-43461500D01*
X105384537Y-43461500D01*
X105393152Y-43461500D01*
X105393154Y-43461501D01*
X105413205Y-43461501D01*
X105432353Y-43464022D01*
X105493858Y-43480502D01*
X105586148Y-43480502D01*
X105586148Y-43480501D01*
X105675290Y-43456616D01*
X105755214Y-43410471D01*
X105820471Y-43345214D01*
X105866616Y-43265290D01*
X105890501Y-43176148D01*
X105890502Y-43176148D01*
X105890502Y-43083856D01*
X105890501Y-43083855D01*
X105885755Y-43066144D01*
X105878559Y-43039286D01*
X105866617Y-42994717D01*
X105866615Y-42994712D01*
X105820473Y-42914793D01*
X105820472Y-42914792D01*
X105820471Y-42914790D01*
X105755214Y-42849533D01*
X105755211Y-42849531D01*
X105755210Y-42849530D01*
X105675291Y-42803388D01*
X105675286Y-42803386D01*
X105586148Y-42779502D01*
X105586146Y-42779502D01*
X105514154Y-42779502D01*
X105461828Y-42757828D01*
X105442676Y-42724657D01*
X105426614Y-42664712D01*
X105395066Y-42610070D01*
X105380471Y-42584791D01*
X105380470Y-42584790D01*
X105380469Y-42584788D01*
X105315212Y-42519531D01*
X105315209Y-42519529D01*
X105315208Y-42519528D01*
X105235289Y-42473386D01*
X105235284Y-42473384D01*
X105146146Y-42449500D01*
X105146144Y-42449500D01*
X105053856Y-42449500D01*
X104970213Y-42471912D01*
X104914061Y-42464519D01*
X104898735Y-42452759D01*
X104273098Y-41827122D01*
X104251424Y-41774796D01*
X104257730Y-41744905D01*
X104261366Y-41736669D01*
X104271042Y-41714756D01*
X104273957Y-41689630D01*
X104273956Y-41299901D01*
X104271042Y-41274774D01*
X104236792Y-41197205D01*
X104228708Y-41178896D01*
X104228707Y-41178895D01*
X104227735Y-41176694D01*
X104225663Y-41172000D01*
X104207516Y-41153853D01*
X105249500Y-41153853D01*
X105249500Y-41246146D01*
X105273384Y-41335284D01*
X105273386Y-41335289D01*
X105319528Y-41415208D01*
X105319529Y-41415209D01*
X105319531Y-41415212D01*
X105384788Y-41480469D01*
X105384790Y-41480470D01*
X105384791Y-41480471D01*
X105430849Y-41507063D01*
X105464712Y-41526614D01*
X105464713Y-41526614D01*
X105464715Y-41526615D01*
X105509284Y-41538557D01*
X105553853Y-41550499D01*
X105553854Y-41550500D01*
X105553856Y-41550500D01*
X105646146Y-41550500D01*
X105646146Y-41550499D01*
X105735288Y-41526614D01*
X105815212Y-41480469D01*
X105880469Y-41415212D01*
X105926614Y-41335288D01*
X105950499Y-41246146D01*
X105950500Y-41246146D01*
X105950500Y-41153854D01*
X105950499Y-41153853D01*
X105926615Y-41064715D01*
X105926613Y-41064710D01*
X105880471Y-40984791D01*
X105880470Y-40984790D01*
X105880469Y-40984788D01*
X105815212Y-40919531D01*
X105815209Y-40919529D01*
X105815208Y-40919528D01*
X105735289Y-40873386D01*
X105735284Y-40873384D01*
X105646146Y-40849500D01*
X105646144Y-40849500D01*
X105553856Y-40849500D01*
X105553854Y-40849500D01*
X105464715Y-40873384D01*
X105464710Y-40873386D01*
X105384791Y-40919528D01*
X105319528Y-40984791D01*
X105273386Y-41064710D01*
X105273384Y-41064715D01*
X105249500Y-41153853D01*
X104207516Y-41153853D01*
X104146222Y-41092559D01*
X104043448Y-41047180D01*
X104043447Y-41047179D01*
X104043445Y-41047179D01*
X104022116Y-41044705D01*
X104018322Y-41044265D01*
X104018321Y-41044265D01*
X102678593Y-41044265D01*
X102653470Y-41047179D01*
X102653464Y-41047180D01*
X102550691Y-41092559D01*
X102471251Y-41171999D01*
X102425871Y-41274776D01*
X102422957Y-41299900D01*
X102422957Y-41400438D01*
X102419335Y-41409182D01*
X102420707Y-41418548D01*
X102408868Y-41434449D01*
X102401283Y-41452764D01*
X102392538Y-41456386D01*
X102386886Y-41463979D01*
X102367799Y-41466633D01*
X102348957Y-41474438D01*
X102330847Y-41472188D01*
X102330329Y-41472057D01*
X102246144Y-41449500D01*
X102240962Y-41449500D01*
X102232048Y-41447250D01*
X102216146Y-41435411D01*
X102197832Y-41427826D01*
X102194209Y-41419081D01*
X102186617Y-41413429D01*
X102183743Y-41393813D01*
X102176158Y-41375500D01*
X102178478Y-41357874D01*
X102178408Y-41357390D01*
X102178571Y-41357170D01*
X102178680Y-41356347D01*
X102193804Y-41299901D01*
X102198754Y-41281427D01*
X102198755Y-41281427D01*
X102198755Y-41189135D01*
X102198754Y-41189134D01*
X102194534Y-41173386D01*
X102174869Y-41099993D01*
X102154498Y-41064710D01*
X102128726Y-41020072D01*
X102128725Y-41020071D01*
X102128724Y-41020069D01*
X102063467Y-40954812D01*
X102063464Y-40954810D01*
X102063463Y-40954809D01*
X101983544Y-40908667D01*
X101983540Y-40908666D01*
X101933134Y-40895159D01*
X101888202Y-40860680D01*
X101880810Y-40804527D01*
X101915289Y-40759595D01*
X101915288Y-40759595D01*
X101940887Y-40744816D01*
X102006144Y-40679559D01*
X102052289Y-40599635D01*
X102076174Y-40510493D01*
X102076175Y-40510493D01*
X102076175Y-40453853D01*
X102749500Y-40453853D01*
X102749500Y-40546146D01*
X102773384Y-40635284D01*
X102773386Y-40635289D01*
X102819528Y-40715208D01*
X102819529Y-40715209D01*
X102819531Y-40715212D01*
X102884788Y-40780469D01*
X102884790Y-40780470D01*
X102884791Y-40780471D01*
X102926457Y-40804527D01*
X102964712Y-40826614D01*
X102964713Y-40826614D01*
X102964715Y-40826615D01*
X103009284Y-40838557D01*
X103053853Y-40850499D01*
X103053854Y-40850500D01*
X103053856Y-40850500D01*
X103146146Y-40850500D01*
X103146146Y-40850499D01*
X103235288Y-40826614D01*
X103315212Y-40780469D01*
X103380469Y-40715212D01*
X103426614Y-40635288D01*
X103450499Y-40546146D01*
X103450500Y-40546146D01*
X103450500Y-40453854D01*
X103450499Y-40453853D01*
X103448433Y-40446144D01*
X103430836Y-40380469D01*
X103427538Y-40368159D01*
X103426615Y-40364715D01*
X103426613Y-40364710D01*
X103420345Y-40353853D01*
X103849500Y-40353853D01*
X103849500Y-40446146D01*
X103873384Y-40535284D01*
X103873386Y-40535289D01*
X103919528Y-40615208D01*
X103919529Y-40615209D01*
X103919531Y-40615212D01*
X103984788Y-40680469D01*
X103984790Y-40680470D01*
X103984791Y-40680471D01*
X104053062Y-40719888D01*
X104064712Y-40726614D01*
X104064713Y-40726614D01*
X104064715Y-40726615D01*
X104078453Y-40730296D01*
X104153853Y-40750499D01*
X104153854Y-40750500D01*
X104153856Y-40750500D01*
X104246146Y-40750500D01*
X104246146Y-40750499D01*
X104335288Y-40726614D01*
X104415212Y-40680469D01*
X104480469Y-40615212D01*
X104526614Y-40535288D01*
X104550499Y-40446146D01*
X104550500Y-40446146D01*
X104550500Y-40353854D01*
X104550499Y-40353853D01*
X104526615Y-40264715D01*
X104526613Y-40264710D01*
X104480471Y-40184791D01*
X104480470Y-40184790D01*
X104480469Y-40184788D01*
X104415212Y-40119531D01*
X104415209Y-40119529D01*
X104415208Y-40119528D01*
X104335289Y-40073386D01*
X104335284Y-40073384D01*
X104246146Y-40049500D01*
X104246144Y-40049500D01*
X104153856Y-40049500D01*
X104153854Y-40049500D01*
X104064715Y-40073384D01*
X104064710Y-40073386D01*
X103984791Y-40119528D01*
X103919528Y-40184791D01*
X103873386Y-40264710D01*
X103873384Y-40264715D01*
X103849500Y-40353853D01*
X103420345Y-40353853D01*
X103380471Y-40284791D01*
X103380470Y-40284790D01*
X103380469Y-40284788D01*
X103315212Y-40219531D01*
X103315209Y-40219529D01*
X103315208Y-40219528D01*
X103235289Y-40173386D01*
X103235284Y-40173384D01*
X103146146Y-40149500D01*
X103146144Y-40149500D01*
X103053856Y-40149500D01*
X103053854Y-40149500D01*
X102964715Y-40173384D01*
X102964710Y-40173386D01*
X102884791Y-40219528D01*
X102819528Y-40284791D01*
X102773386Y-40364710D01*
X102773384Y-40364715D01*
X102749500Y-40453853D01*
X102076175Y-40453853D01*
X102076175Y-40418201D01*
X102076174Y-40418200D01*
X102075373Y-40415212D01*
X102058933Y-40353853D01*
X102052290Y-40329062D01*
X102052288Y-40329057D01*
X102006146Y-40249138D01*
X102006145Y-40249137D01*
X102006144Y-40249135D01*
X101970724Y-40213715D01*
X101949051Y-40161391D01*
X101970725Y-40109065D01*
X101986052Y-40097305D01*
X102015207Y-40080472D01*
X102015207Y-40080471D01*
X102015212Y-40080469D01*
X102080469Y-40015212D01*
X102082445Y-40011789D01*
X102127373Y-39977307D01*
X102183525Y-39984692D01*
X102198293Y-39993219D01*
X102198295Y-39993219D01*
X102198296Y-39993220D01*
X102211523Y-39996764D01*
X102287434Y-40017104D01*
X102287435Y-40017105D01*
X102287437Y-40017105D01*
X102379727Y-40017105D01*
X102379727Y-40017104D01*
X102468869Y-39993219D01*
X102548793Y-39947074D01*
X102614050Y-39881817D01*
X102660195Y-39801893D01*
X102684080Y-39712751D01*
X102684081Y-39712751D01*
X102684081Y-39620459D01*
X102684080Y-39620458D01*
X102670067Y-39568159D01*
X102670066Y-39568158D01*
X102667947Y-39560251D01*
X102666233Y-39553853D01*
X102849500Y-39553853D01*
X102849500Y-39646146D01*
X102873384Y-39735284D01*
X102873386Y-39735289D01*
X102919528Y-39815208D01*
X102919529Y-39815209D01*
X102919531Y-39815212D01*
X102984788Y-39880469D01*
X102984790Y-39880470D01*
X102984791Y-39880471D01*
X102992277Y-39884793D01*
X103064712Y-39926614D01*
X103064713Y-39926614D01*
X103064715Y-39926615D01*
X103109284Y-39938557D01*
X103153853Y-39950499D01*
X103153854Y-39950500D01*
X103153856Y-39950500D01*
X103246146Y-39950500D01*
X103246146Y-39950499D01*
X103335288Y-39926614D01*
X103415212Y-39880469D01*
X103480469Y-39815212D01*
X103526614Y-39735288D01*
X103550499Y-39646146D01*
X103550500Y-39646146D01*
X103550500Y-39553854D01*
X103550499Y-39553853D01*
X103526615Y-39464715D01*
X103526613Y-39464710D01*
X103480471Y-39384791D01*
X103480470Y-39384790D01*
X103480469Y-39384788D01*
X103415212Y-39319531D01*
X103415209Y-39319529D01*
X103415208Y-39319528D01*
X103335289Y-39273386D01*
X103335284Y-39273384D01*
X103246146Y-39249500D01*
X103246144Y-39249500D01*
X103153856Y-39249500D01*
X103153854Y-39249500D01*
X103064715Y-39273384D01*
X103064710Y-39273386D01*
X102984791Y-39319528D01*
X102919528Y-39384791D01*
X102873386Y-39464710D01*
X102873384Y-39464715D01*
X102849500Y-39553853D01*
X102666233Y-39553853D01*
X102660195Y-39531317D01*
X102621739Y-39464710D01*
X102614052Y-39451396D01*
X102614051Y-39451395D01*
X102614050Y-39451393D01*
X102548793Y-39386136D01*
X102548790Y-39386134D01*
X102548789Y-39386133D01*
X102468870Y-39339991D01*
X102468865Y-39339989D01*
X102379727Y-39316105D01*
X102379725Y-39316105D01*
X102339709Y-39316105D01*
X102287383Y-39294431D01*
X102241793Y-39248841D01*
X102241793Y-39248840D01*
X102226588Y-39233635D01*
X102166544Y-39173591D01*
X102166542Y-39173590D01*
X102166540Y-39173589D01*
X102131452Y-39159055D01*
X102131452Y-39159054D01*
X102081826Y-39138499D01*
X101990126Y-39138499D01*
X101981514Y-39138499D01*
X101981506Y-39138500D01*
X101233128Y-39138500D01*
X101180802Y-39116826D01*
X100712817Y-38648841D01*
X100712817Y-38648840D01*
X100637569Y-38573592D01*
X100637565Y-38573589D01*
X100600177Y-38558103D01*
X100552850Y-38538499D01*
X100461150Y-38538499D01*
X100452538Y-38538499D01*
X100452530Y-38538500D01*
X99994128Y-38538500D01*
X99941802Y-38516826D01*
X99920128Y-38464500D01*
X99941802Y-38412174D01*
X101300123Y-37053853D01*
X102649500Y-37053853D01*
X102649500Y-37146146D01*
X102673384Y-37235284D01*
X102673386Y-37235289D01*
X102719528Y-37315208D01*
X102719529Y-37315209D01*
X102719531Y-37315212D01*
X102784788Y-37380469D01*
X102864712Y-37426614D01*
X102864713Y-37426614D01*
X102864715Y-37426615D01*
X102904205Y-37437196D01*
X102953853Y-37450499D01*
X102953854Y-37450500D01*
X102953856Y-37450500D01*
X103046146Y-37450500D01*
X103046146Y-37450499D01*
X103135288Y-37426614D01*
X103215212Y-37380469D01*
X103280469Y-37315212D01*
X103326614Y-37235288D01*
X103350499Y-37146146D01*
X103350500Y-37146146D01*
X103350500Y-37053854D01*
X103350499Y-37053853D01*
X103343200Y-37026614D01*
X103332029Y-36984920D01*
X103326615Y-36964715D01*
X103326614Y-36964714D01*
X103326614Y-36964712D01*
X103320343Y-36953852D01*
X103312950Y-36897700D01*
X103347427Y-36852766D01*
X103365267Y-36845375D01*
X103435288Y-36826614D01*
X103515212Y-36780469D01*
X103580469Y-36715212D01*
X103626614Y-36635288D01*
X103650499Y-36546146D01*
X103650500Y-36546146D01*
X103650500Y-36453857D01*
X103650499Y-36453853D01*
X103626614Y-36364712D01*
X103620346Y-36353855D01*
X103620344Y-36353852D01*
X103849500Y-36353852D01*
X103849500Y-36446145D01*
X103873384Y-36535283D01*
X103873386Y-36535288D01*
X103919528Y-36615207D01*
X103919529Y-36615208D01*
X103919531Y-36615211D01*
X103984788Y-36680468D01*
X103984790Y-36680469D01*
X103984791Y-36680470D01*
X104022601Y-36702300D01*
X104064712Y-36726613D01*
X104064713Y-36726613D01*
X104064715Y-36726614D01*
X104109284Y-36738556D01*
X104153853Y-36750498D01*
X104153854Y-36750499D01*
X104153856Y-36750499D01*
X104246146Y-36750499D01*
X104246146Y-36750498D01*
X104335288Y-36726613D01*
X104415212Y-36680468D01*
X104480469Y-36615211D01*
X104526614Y-36535287D01*
X104550499Y-36446145D01*
X104550500Y-36446145D01*
X104550500Y-36436984D01*
X106119891Y-36436984D01*
X106119891Y-36529277D01*
X106143775Y-36618415D01*
X106143777Y-36618420D01*
X106189919Y-36698339D01*
X106189920Y-36698340D01*
X106189922Y-36698343D01*
X106255179Y-36763600D01*
X106255181Y-36763601D01*
X106255182Y-36763602D01*
X106322123Y-36802251D01*
X106335103Y-36809745D01*
X106335104Y-36809745D01*
X106335106Y-36809746D01*
X106371614Y-36819528D01*
X106424244Y-36833630D01*
X106424245Y-36833631D01*
X106424247Y-36833631D01*
X106516537Y-36833631D01*
X106516537Y-36833630D01*
X106605679Y-36809745D01*
X106685603Y-36763600D01*
X106750860Y-36698343D01*
X106797005Y-36618419D01*
X106820890Y-36529277D01*
X106820891Y-36529277D01*
X106820891Y-36436985D01*
X106820890Y-36436984D01*
X106797006Y-36347846D01*
X106797004Y-36347841D01*
X106750862Y-36267922D01*
X106750861Y-36267921D01*
X106750860Y-36267919D01*
X106685603Y-36202662D01*
X106685600Y-36202660D01*
X106685599Y-36202659D01*
X106605680Y-36156517D01*
X106605675Y-36156515D01*
X106516537Y-36132631D01*
X106516535Y-36132631D01*
X106424247Y-36132631D01*
X106424245Y-36132631D01*
X106335106Y-36156515D01*
X106335101Y-36156517D01*
X106255182Y-36202659D01*
X106189919Y-36267922D01*
X106143777Y-36347841D01*
X106143775Y-36347846D01*
X106119891Y-36436984D01*
X104550500Y-36436984D01*
X104550500Y-36353853D01*
X104550499Y-36353852D01*
X104548967Y-36348136D01*
X104538557Y-36309283D01*
X104526615Y-36264714D01*
X104526613Y-36264709D01*
X104480471Y-36184790D01*
X104480470Y-36184789D01*
X104480469Y-36184787D01*
X104415212Y-36119530D01*
X104415209Y-36119528D01*
X104415208Y-36119527D01*
X104335289Y-36073385D01*
X104335284Y-36073383D01*
X104246146Y-36049499D01*
X104246144Y-36049499D01*
X104153856Y-36049499D01*
X104153854Y-36049499D01*
X104064715Y-36073383D01*
X104064710Y-36073385D01*
X103984791Y-36119527D01*
X103919528Y-36184790D01*
X103873386Y-36264709D01*
X103873384Y-36264714D01*
X103849500Y-36353852D01*
X103620344Y-36353852D01*
X103580471Y-36284791D01*
X103580470Y-36284790D01*
X103580469Y-36284788D01*
X103515212Y-36219531D01*
X103515209Y-36219529D01*
X103515208Y-36219528D01*
X103435289Y-36173386D01*
X103435284Y-36173384D01*
X103346146Y-36149500D01*
X103346144Y-36149500D01*
X103253856Y-36149500D01*
X103253854Y-36149500D01*
X103164715Y-36173384D01*
X103164710Y-36173386D01*
X103084791Y-36219528D01*
X103019528Y-36284791D01*
X102973386Y-36364710D01*
X102973384Y-36364715D01*
X102949500Y-36453853D01*
X102949500Y-36546146D01*
X102973384Y-36635284D01*
X102973386Y-36635289D01*
X102979656Y-36646148D01*
X102987049Y-36702300D01*
X102952570Y-36747234D01*
X102934723Y-36754626D01*
X102864715Y-36773384D01*
X102864710Y-36773386D01*
X102784791Y-36819528D01*
X102719528Y-36884791D01*
X102673386Y-36964710D01*
X102673384Y-36964715D01*
X102649500Y-37053853D01*
X101300123Y-37053853D01*
X101401802Y-36952174D01*
X101454128Y-36930500D01*
X101904167Y-36930500D01*
X101956492Y-36952173D01*
X101984788Y-36980469D01*
X101984790Y-36980470D01*
X101984791Y-36980471D01*
X102002248Y-36990550D01*
X102064712Y-37026614D01*
X102064713Y-37026614D01*
X102064715Y-37026615D01*
X102083876Y-37031749D01*
X102153853Y-37050499D01*
X102153854Y-37050500D01*
X102153856Y-37050500D01*
X102246146Y-37050500D01*
X102246146Y-37050499D01*
X102335288Y-37026614D01*
X102397752Y-36990550D01*
X102407504Y-36984920D01*
X102407505Y-36984919D01*
X102410394Y-36983250D01*
X102415212Y-36980469D01*
X102480469Y-36915212D01*
X102526614Y-36835288D01*
X102550499Y-36746146D01*
X102550500Y-36746146D01*
X102550500Y-36653854D01*
X102550499Y-36653853D01*
X102548434Y-36646148D01*
X102526614Y-36564712D01*
X102501632Y-36521443D01*
X102480471Y-36484791D01*
X102480470Y-36484790D01*
X102480469Y-36484788D01*
X102415212Y-36419531D01*
X102415209Y-36419529D01*
X102415208Y-36419528D01*
X102335289Y-36373386D01*
X102335284Y-36373384D01*
X102246146Y-36349500D01*
X102246144Y-36349500D01*
X102153856Y-36349500D01*
X102153854Y-36349500D01*
X102064715Y-36373384D01*
X102064710Y-36373386D01*
X101984791Y-36419528D01*
X101956492Y-36447827D01*
X101904167Y-36469500D01*
X101282150Y-36469500D01*
X101257336Y-36479778D01*
X101197434Y-36504589D01*
X101132590Y-36569433D01*
X99446198Y-38255826D01*
X99393872Y-38277500D01*
X97947068Y-38277500D01*
X97947060Y-38277499D01*
X97938448Y-38277499D01*
X97846749Y-38277499D01*
X97807046Y-38293944D01*
X97750409Y-38293944D01*
X97710361Y-38253895D01*
X97704728Y-38225577D01*
X97704728Y-38023098D01*
X97726402Y-37970772D01*
X97778728Y-37949098D01*
X98319798Y-37949098D01*
X98319806Y-37949099D01*
X98328418Y-37949099D01*
X98420118Y-37949099D01*
X98469744Y-37928542D01*
X98504836Y-37914007D01*
X98569677Y-37849166D01*
X98569677Y-37849165D01*
X98580082Y-37838760D01*
X98580083Y-37838757D01*
X99555409Y-36863434D01*
X99590501Y-36778715D01*
X99590501Y-36687016D01*
X99590501Y-36681058D01*
X99590500Y-36681044D01*
X99590500Y-33784469D01*
X99590501Y-33784460D01*
X99590501Y-33684149D01*
X99569944Y-33634522D01*
X99569943Y-33634521D01*
X99555410Y-33599434D01*
X99555408Y-33599431D01*
X99486353Y-33530376D01*
X99486346Y-33530370D01*
X99260740Y-33304764D01*
X99260740Y-33304763D01*
X99226226Y-33270249D01*
X99185491Y-33229514D01*
X99185489Y-33229513D01*
X99185487Y-33229512D01*
X99150399Y-33214978D01*
X99150399Y-33214977D01*
X99100773Y-33194422D01*
X99009073Y-33194422D01*
X99000461Y-33194422D01*
X99000453Y-33194423D01*
X97142303Y-33194423D01*
X97135299Y-33191522D01*
X97127865Y-33193001D01*
X97109918Y-33181008D01*
X97089977Y-33172749D01*
X97080776Y-33161537D01*
X97070415Y-33146032D01*
X97059368Y-33090484D01*
X97070413Y-33063816D01*
X97104593Y-33012663D01*
X97117051Y-32950032D01*
X97148515Y-32902942D01*
X97204064Y-32891892D01*
X97226066Y-32901876D01*
X97226836Y-32900544D01*
X97308195Y-32947517D01*
X97310961Y-32949114D01*
X97310962Y-32949114D01*
X97310964Y-32949115D01*
X97314394Y-32950034D01*
X97400102Y-32972999D01*
X97400103Y-32973000D01*
X97400105Y-32973000D01*
X97492395Y-32973000D01*
X97492395Y-32972999D01*
X97581537Y-32949114D01*
X97661461Y-32902969D01*
X97726718Y-32837712D01*
X97772863Y-32757788D01*
X97796748Y-32668646D01*
X97796749Y-32668646D01*
X97796749Y-32576354D01*
X97796748Y-32576353D01*
X97793733Y-32565102D01*
X97772863Y-32487212D01*
X97769994Y-32482242D01*
X97726720Y-32407291D01*
X97726719Y-32407290D01*
X97726718Y-32407288D01*
X97661461Y-32342031D01*
X97661458Y-32342029D01*
X97661457Y-32342028D01*
X97581538Y-32295886D01*
X97577058Y-32294031D01*
X97577866Y-32292079D01*
X97538588Y-32261926D01*
X97531209Y-32205772D01*
X97541152Y-32183831D01*
X97563237Y-32150780D01*
X97571970Y-32106878D01*
X97571970Y-31427238D01*
X97563237Y-31383336D01*
X97563128Y-31383173D01*
X97563090Y-31382981D01*
X97560448Y-31376602D01*
X97561716Y-31376076D01*
X97552074Y-31327629D01*
X97563127Y-31300944D01*
X97563237Y-31300780D01*
X97571970Y-31256878D01*
X97571970Y-30577238D01*
X97563237Y-30533336D01*
X97529974Y-30483554D01*
X97480192Y-30450291D01*
X97436290Y-30441558D01*
X96556650Y-30441558D01*
X96534699Y-30445924D01*
X96512747Y-30450291D01*
X96462966Y-30483553D01*
X96462965Y-30483554D01*
X96429703Y-30533335D01*
X96420970Y-30577238D01*
X96420970Y-30614818D01*
X96399296Y-30667144D01*
X96371599Y-30681949D01*
X96372353Y-30683769D01*
X96340806Y-30696836D01*
X96280904Y-30721647D01*
X95868642Y-31133909D01*
X95858030Y-31159530D01*
X95833551Y-31218625D01*
X95833551Y-31318937D01*
X95833552Y-31318946D01*
X95833552Y-32409211D01*
X95811878Y-32461537D01*
X95800665Y-32470739D01*
X95783452Y-32482240D01*
X95783450Y-32482242D01*
X95728086Y-32565102D01*
X95720819Y-32601636D01*
X95713552Y-32638169D01*
X95713552Y-32947517D01*
X95713870Y-32949114D01*
X95728086Y-33020584D01*
X95762261Y-33071732D01*
X95773310Y-33127281D01*
X95762261Y-33153954D01*
X95728086Y-33205101D01*
X95723230Y-33229513D01*
X95713552Y-33278169D01*
X95713552Y-33587517D01*
X95728086Y-33660583D01*
X95783451Y-33743444D01*
X95866312Y-33798809D01*
X95939378Y-33813343D01*
X96087924Y-33813343D01*
X96140250Y-33835017D01*
X96267502Y-33962269D01*
X96267505Y-33962273D01*
X96336564Y-34031332D01*
X96336563Y-34031332D01*
X96396469Y-34056144D01*
X96396471Y-34056144D01*
X96409860Y-34061691D01*
X96421281Y-34066423D01*
X96421282Y-34066423D01*
X96421283Y-34066423D01*
X98469795Y-34066423D01*
X98522121Y-34088097D01*
X98846826Y-34412802D01*
X98868500Y-34465128D01*
X98868500Y-35473323D01*
X98846826Y-35525649D01*
X98794500Y-35547323D01*
X98745652Y-35528909D01*
X98727387Y-35512858D01*
X98727386Y-35512857D01*
X98648455Y-35497070D01*
X98648451Y-35497071D01*
X98572211Y-35522863D01*
X98572207Y-35522865D01*
X97949511Y-35937995D01*
X97893950Y-35948986D01*
X97867415Y-35937995D01*
X97441205Y-35653856D01*
X97244719Y-35522865D01*
X97244711Y-35522860D01*
X97244699Y-35522852D01*
X97236219Y-35517585D01*
X97236211Y-35517581D01*
X97158464Y-35496749D01*
X97158463Y-35496749D01*
X97141878Y-35501193D01*
X97080712Y-35517582D01*
X97023795Y-35574499D01*
X97002963Y-35652246D01*
X97002963Y-35997749D01*
X96981289Y-36050075D01*
X96928963Y-36071749D01*
X96770212Y-36071749D01*
X96717886Y-36050075D01*
X96696212Y-35997749D01*
X96706125Y-35960750D01*
X96740990Y-35900364D01*
X96764875Y-35811222D01*
X96764876Y-35811222D01*
X96764876Y-35718930D01*
X96764875Y-35718929D01*
X96763642Y-35714329D01*
X96747439Y-35653856D01*
X96740991Y-35629791D01*
X96740989Y-35629786D01*
X96694847Y-35549867D01*
X96694846Y-35549866D01*
X96694845Y-35549864D01*
X96629588Y-35484607D01*
X96629585Y-35484605D01*
X96629584Y-35484604D01*
X96549665Y-35438462D01*
X96549660Y-35438460D01*
X96460522Y-35414576D01*
X96460520Y-35414576D01*
X96368232Y-35414576D01*
X96368230Y-35414576D01*
X96279091Y-35438460D01*
X96279086Y-35438462D01*
X96199167Y-35484604D01*
X96133904Y-35549867D01*
X96087762Y-35629786D01*
X96087760Y-35629791D01*
X96068499Y-35701674D01*
X96068499Y-35701678D01*
X96063876Y-35718932D01*
X96063876Y-35811220D01*
X96068499Y-35828473D01*
X96068499Y-35828477D01*
X96087760Y-35900360D01*
X96087762Y-35900365D01*
X96133904Y-35980284D01*
X96133905Y-35980285D01*
X96133907Y-35980288D01*
X96199164Y-36045545D01*
X96199166Y-36045546D01*
X96199167Y-36045547D01*
X96279086Y-36091689D01*
X96279088Y-36091690D01*
X96279089Y-36091690D01*
X96279091Y-36091691D01*
X96318215Y-36102174D01*
X96368229Y-36115575D01*
X96368230Y-36115576D01*
X96397558Y-36115576D01*
X96449884Y-36137250D01*
X96471558Y-36189576D01*
X96449884Y-36241902D01*
X94640590Y-38051196D01*
X94627097Y-38083772D01*
X94605499Y-38135912D01*
X94605499Y-38236224D01*
X94605500Y-38236233D01*
X94605500Y-38303754D01*
X94583826Y-38356080D01*
X94162079Y-38777826D01*
X94109755Y-38799500D01*
X94082794Y-38799500D01*
X94017012Y-38812583D01*
X94012817Y-38814321D01*
X93998098Y-38814320D01*
X93984500Y-38819953D01*
X93970899Y-38814319D01*
X93956180Y-38814319D01*
X93945773Y-38803911D01*
X93932174Y-38798279D01*
X93926540Y-38784678D01*
X93916132Y-38774270D01*
X93910500Y-38745953D01*
X93910500Y-38658422D01*
X93910501Y-38658413D01*
X93910501Y-38558103D01*
X93888583Y-38505189D01*
X93875409Y-38473384D01*
X93806353Y-38404328D01*
X93806346Y-38404322D01*
X93362174Y-37960150D01*
X93340500Y-37907824D01*
X93340500Y-37508627D01*
X93362173Y-37456302D01*
X93733802Y-37084672D01*
X93786128Y-37062999D01*
X94436519Y-37062999D01*
X94530304Y-37048146D01*
X94530306Y-37048145D01*
X94532419Y-37047068D01*
X94643342Y-36990550D01*
X94733050Y-36900842D01*
X94790646Y-36787804D01*
X94805500Y-36694019D01*
X94805499Y-36154499D01*
X94827173Y-36102174D01*
X94879499Y-36080500D01*
X95145166Y-36080500D01*
X95175056Y-36086805D01*
X95222335Y-36107681D01*
X95222338Y-36107682D01*
X95246627Y-36110500D01*
X95673372Y-36110499D01*
X95697662Y-36107682D01*
X95797016Y-36063813D01*
X95873813Y-35987016D01*
X95917682Y-35887662D01*
X95920500Y-35863373D01*
X95920499Y-35496628D01*
X95917682Y-35472338D01*
X95873813Y-35372984D01*
X95797016Y-35296187D01*
X95697662Y-35252318D01*
X95697663Y-35252318D01*
X95692804Y-35251754D01*
X95673373Y-35249500D01*
X95673369Y-35249500D01*
X95246627Y-35249500D01*
X95222340Y-35252317D01*
X95122983Y-35296187D01*
X95046187Y-35372983D01*
X95007039Y-35461647D01*
X95002318Y-35472338D01*
X95000553Y-35487556D01*
X94999500Y-35496630D01*
X94999500Y-35545500D01*
X94977826Y-35597826D01*
X94925500Y-35619500D01*
X94596650Y-35619500D01*
X94571836Y-35629778D01*
X94511934Y-35654589D01*
X94447089Y-35719434D01*
X94426195Y-35740327D01*
X94373870Y-35762000D01*
X93723479Y-35762000D01*
X93636075Y-35775843D01*
X93581003Y-35762620D01*
X93551411Y-35714329D01*
X93550500Y-35702754D01*
X93550500Y-35653854D01*
X93550499Y-35653853D01*
X93550068Y-35652246D01*
X93535487Y-35597826D01*
X93526615Y-35564715D01*
X93526613Y-35564710D01*
X93480471Y-35484791D01*
X93480470Y-35484790D01*
X93480469Y-35484788D01*
X93415212Y-35419531D01*
X93415209Y-35419529D01*
X93415208Y-35419528D01*
X93335289Y-35373386D01*
X93335284Y-35373384D01*
X93246146Y-35349500D01*
X93246144Y-35349500D01*
X93153856Y-35349500D01*
X93153854Y-35349500D01*
X93064715Y-35373384D01*
X93064710Y-35373386D01*
X92984791Y-35419528D01*
X92919523Y-35484796D01*
X92917405Y-35487556D01*
X92868350Y-35515864D01*
X92813646Y-35501193D01*
X92787229Y-35461648D01*
X92766614Y-35384712D01*
X92720469Y-35304788D01*
X92655212Y-35239531D01*
X92655209Y-35239529D01*
X92655208Y-35239528D01*
X92575289Y-35193386D01*
X92575284Y-35193384D01*
X92486146Y-35169500D01*
X92486144Y-35169500D01*
X92393856Y-35169500D01*
X92393854Y-35169500D01*
X92304715Y-35193384D01*
X92304710Y-35193386D01*
X92224791Y-35239528D01*
X92159528Y-35304791D01*
X92113386Y-35384710D01*
X92113384Y-35384715D01*
X92089500Y-35473853D01*
X92089500Y-35566146D01*
X92113384Y-35655284D01*
X92113386Y-35655289D01*
X92159528Y-35735208D01*
X92159529Y-35735209D01*
X92159531Y-35735212D01*
X92224788Y-35800469D01*
X92224790Y-35800470D01*
X92224791Y-35800471D01*
X92273298Y-35828477D01*
X92304712Y-35846614D01*
X92304713Y-35846614D01*
X92304715Y-35846615D01*
X92349284Y-35858557D01*
X92393853Y-35870499D01*
X92393854Y-35870500D01*
X92393856Y-35870500D01*
X92486146Y-35870500D01*
X92486146Y-35870499D01*
X92575288Y-35846614D01*
X92655212Y-35800469D01*
X92720469Y-35735212D01*
X92720475Y-35735201D01*
X92722586Y-35732452D01*
X92771637Y-35704137D01*
X92826344Y-35718798D01*
X92852770Y-35758351D01*
X92873384Y-35835284D01*
X92873386Y-35835289D01*
X92919528Y-35915208D01*
X92919529Y-35915209D01*
X92919531Y-35915212D01*
X92984788Y-35980469D01*
X92984790Y-35980470D01*
X92984791Y-35980471D01*
X93014717Y-35997749D01*
X93064712Y-36026614D01*
X93064713Y-36026614D01*
X93064715Y-36026615D01*
X93104205Y-36037196D01*
X93153853Y-36050499D01*
X93153854Y-36050500D01*
X93153856Y-36050500D01*
X93246144Y-36050500D01*
X93262545Y-36046105D01*
X93318697Y-36053496D01*
X93353177Y-36098428D01*
X93354789Y-36129152D01*
X93354500Y-36130977D01*
X93354500Y-36694020D01*
X93364736Y-36758648D01*
X93351514Y-36813720D01*
X93343973Y-36822549D01*
X92979433Y-37187090D01*
X92979431Y-37187092D01*
X92957015Y-37209507D01*
X92904688Y-37231180D01*
X92871096Y-37223115D01*
X92780304Y-37176854D01*
X92780302Y-37176853D01*
X92780301Y-37176853D01*
X92686519Y-37162000D01*
X91973480Y-37162000D01*
X91879695Y-37176853D01*
X91879693Y-37176854D01*
X91766657Y-37234450D01*
X91676951Y-37324156D01*
X91619353Y-37437198D01*
X91604500Y-37530980D01*
X91604500Y-37595900D01*
X91582826Y-37648226D01*
X91530500Y-37669900D01*
X91464555Y-37669900D01*
X91412229Y-37648226D01*
X91396860Y-37625789D01*
X91382552Y-37593384D01*
X91305755Y-37516587D01*
X91287727Y-37508627D01*
X91206401Y-37472718D01*
X91206402Y-37472718D01*
X91201543Y-37472154D01*
X91182112Y-37469900D01*
X91182108Y-37469900D01*
X90755366Y-37469900D01*
X90731079Y-37472717D01*
X90631722Y-37516587D01*
X90554926Y-37593383D01*
X90511057Y-37692737D01*
X90508239Y-37717030D01*
X90508239Y-38083772D01*
X90511056Y-38108059D01*
X90511056Y-38108061D01*
X90511057Y-38108062D01*
X90554926Y-38207416D01*
X90631723Y-38284213D01*
X90731077Y-38328082D01*
X90755366Y-38330900D01*
X91182111Y-38330899D01*
X91206401Y-38328082D01*
X91305755Y-38284213D01*
X91382552Y-38207416D01*
X91396860Y-38175010D01*
X91406910Y-38165413D01*
X91412229Y-38152574D01*
X91426583Y-38146628D01*
X91437822Y-38135897D01*
X91464555Y-38130900D01*
X91547139Y-38130900D01*
X91599465Y-38152574D01*
X91615031Y-38183086D01*
X91617555Y-38182267D01*
X91619354Y-38187806D01*
X91668477Y-38284213D01*
X91676950Y-38300842D01*
X91766658Y-38390550D01*
X91879696Y-38448146D01*
X91973481Y-38463000D01*
X92623870Y-38462999D01*
X92676196Y-38484673D01*
X92927826Y-38736302D01*
X92949500Y-38788628D01*
X92949500Y-38829383D01*
X92937029Y-38870495D01*
X92892583Y-38937014D01*
X92879500Y-39002789D01*
X92879500Y-40372214D01*
X92892581Y-40437983D01*
X92941030Y-40510493D01*
X92942423Y-40512577D01*
X93017014Y-40562417D01*
X93082789Y-40575500D01*
X93277210Y-40575499D01*
X93342986Y-40562417D01*
X93388889Y-40531745D01*
X93444436Y-40520696D01*
X93471109Y-40531744D01*
X93517014Y-40562417D01*
X93582789Y-40575500D01*
X93777210Y-40575499D01*
X93842986Y-40562417D01*
X93888889Y-40531745D01*
X93944436Y-40520696D01*
X93971109Y-40531744D01*
X94017014Y-40562417D01*
X94082789Y-40575500D01*
X94277210Y-40575499D01*
X94342986Y-40562417D01*
X94388889Y-40531745D01*
X94444436Y-40520696D01*
X94471107Y-40531742D01*
X94517015Y-40562417D01*
X94582790Y-40575500D01*
X94777211Y-40575499D01*
X94842987Y-40562417D01*
X94888888Y-40531746D01*
X94944436Y-40520697D01*
X94971110Y-40531745D01*
X95017014Y-40562417D01*
X95082789Y-40575500D01*
X95277210Y-40575499D01*
X95342986Y-40562417D01*
X95388889Y-40531745D01*
X95444436Y-40520696D01*
X95471109Y-40531744D01*
X95517014Y-40562417D01*
X95582789Y-40575500D01*
X95777210Y-40575499D01*
X95842986Y-40562417D01*
X95917577Y-40512577D01*
X95967417Y-40437986D01*
X95980500Y-40372211D01*
X95980499Y-39002790D01*
X95980499Y-39002789D01*
X95980499Y-39002785D01*
X95967418Y-38937016D01*
X95922971Y-38870495D01*
X95910500Y-38829383D01*
X95910500Y-38202111D01*
X95932174Y-38149785D01*
X96111187Y-37970772D01*
X96163513Y-37949098D01*
X96769729Y-37949098D01*
X96822055Y-37970772D01*
X96843729Y-38023098D01*
X96843729Y-38283469D01*
X96822055Y-38335795D01*
X96484592Y-38673258D01*
X96484590Y-38673259D01*
X96472103Y-38703408D01*
X96449499Y-38757976D01*
X96449499Y-38829385D01*
X96437028Y-38870497D01*
X96392582Y-38937014D01*
X96379500Y-39002789D01*
X96379500Y-40372214D01*
X96392581Y-40437983D01*
X96392582Y-40437985D01*
X96392583Y-40437986D01*
X96425489Y-40487234D01*
X96437029Y-40504504D01*
X96449500Y-40545616D01*
X96449500Y-41175121D01*
X96427826Y-41227447D01*
X96064947Y-41590326D01*
X96012621Y-41612000D01*
X95972603Y-41612000D01*
X95883464Y-41635884D01*
X95883459Y-41635886D01*
X95803540Y-41682028D01*
X95738277Y-41747291D01*
X95692135Y-41827210D01*
X95692133Y-41827215D01*
X95668249Y-41916353D01*
X95668249Y-42008646D01*
X95692133Y-42097784D01*
X95692135Y-42097789D01*
X95738277Y-42177708D01*
X95738278Y-42177709D01*
X95738280Y-42177712D01*
X95803537Y-42242969D01*
X95803539Y-42242970D01*
X95803540Y-42242971D01*
X95883459Y-42289113D01*
X95883461Y-42289114D01*
X95883462Y-42289114D01*
X95883464Y-42289115D01*
X95923715Y-42299900D01*
X95972602Y-42312999D01*
X95972603Y-42313000D01*
X95972605Y-42313000D01*
X96064895Y-42313000D01*
X96064895Y-42312999D01*
X96136350Y-42293853D01*
X97079500Y-42293853D01*
X97079500Y-42386146D01*
X97103384Y-42475284D01*
X97103386Y-42475289D01*
X97149528Y-42555208D01*
X97149529Y-42555209D01*
X97149531Y-42555212D01*
X97214788Y-42620469D01*
X97214790Y-42620470D01*
X97214791Y-42620471D01*
X97294710Y-42666613D01*
X97294712Y-42666614D01*
X97294713Y-42666614D01*
X97294715Y-42666615D01*
X97339284Y-42678557D01*
X97383853Y-42690499D01*
X97383854Y-42690500D01*
X97383856Y-42690500D01*
X97476146Y-42690500D01*
X97476146Y-42690499D01*
X97565288Y-42666614D01*
X97645212Y-42620469D01*
X97710469Y-42555212D01*
X97756614Y-42475288D01*
X97780499Y-42386146D01*
X97780500Y-42386146D01*
X97780500Y-42293854D01*
X97780499Y-42293853D01*
X97779229Y-42289115D01*
X97766865Y-42242969D01*
X97756615Y-42204715D01*
X97756613Y-42204710D01*
X97710471Y-42124791D01*
X97710470Y-42124790D01*
X97710469Y-42124788D01*
X97645212Y-42059531D01*
X97645209Y-42059529D01*
X97645208Y-42059528D01*
X97565289Y-42013386D01*
X97565284Y-42013384D01*
X97476146Y-41989500D01*
X97476144Y-41989500D01*
X97383856Y-41989500D01*
X97383854Y-41989500D01*
X97294715Y-42013384D01*
X97294710Y-42013386D01*
X97214791Y-42059528D01*
X97149528Y-42124791D01*
X97103386Y-42204710D01*
X97103384Y-42204715D01*
X97079500Y-42293853D01*
X96136350Y-42293853D01*
X96154037Y-42289114D01*
X96233961Y-42242969D01*
X96299218Y-42177712D01*
X96345363Y-42097788D01*
X96369248Y-42008646D01*
X96369249Y-42008646D01*
X96369249Y-41968627D01*
X96390922Y-41916302D01*
X96800159Y-41507064D01*
X96800162Y-41507063D01*
X96810567Y-41496658D01*
X96810568Y-41496658D01*
X96875409Y-41431817D01*
X96910500Y-41347098D01*
X96910500Y-40629046D01*
X96932174Y-40576720D01*
X96984500Y-40555046D01*
X97012821Y-40560680D01*
X97017011Y-40562415D01*
X97017013Y-40562417D01*
X97082788Y-40575500D01*
X97277209Y-40575499D01*
X97342985Y-40562417D01*
X97382518Y-40536001D01*
X97438066Y-40524952D01*
X97476486Y-40545740D01*
X97483475Y-40552872D01*
X97484591Y-40555567D01*
X97549432Y-40620408D01*
X97549433Y-40620408D01*
X97560079Y-40631054D01*
X97794779Y-40865754D01*
X97794782Y-40865758D01*
X97863841Y-40934817D01*
X97863840Y-40934817D01*
X97923746Y-40959629D01*
X97923748Y-40959629D01*
X97937137Y-40965176D01*
X97948558Y-40969908D01*
X97948559Y-40969908D01*
X97948560Y-40969908D01*
X99130500Y-40969908D01*
X99182826Y-40991582D01*
X99204500Y-41043908D01*
X99204500Y-41197205D01*
X99217583Y-41262987D01*
X99248253Y-41308889D01*
X99259302Y-41364438D01*
X99248253Y-41391111D01*
X99217583Y-41437012D01*
X99204500Y-41502789D01*
X99204500Y-41697205D01*
X99217583Y-41762987D01*
X99248253Y-41808889D01*
X99259302Y-41864438D01*
X99248253Y-41891111D01*
X99217583Y-41937012D01*
X99204500Y-42002789D01*
X99204500Y-42197205D01*
X99217582Y-42262984D01*
X99219321Y-42267181D01*
X99219321Y-42281902D01*
X99224954Y-42295501D01*
X99219321Y-42309098D01*
X99219322Y-42323818D01*
X99208913Y-42334227D01*
X99203280Y-42347827D01*
X99189682Y-42353459D01*
X99179274Y-42363868D01*
X99150954Y-42369501D01*
X99135656Y-42369501D01*
X99083330Y-42347827D01*
X98984344Y-42248841D01*
X98984344Y-42248840D01*
X98909096Y-42173592D01*
X98909092Y-42173589D01*
X98875270Y-42159580D01*
X98875265Y-42159578D01*
X98871232Y-42157908D01*
X98824377Y-42138499D01*
X98800487Y-42138499D01*
X98790639Y-42135723D01*
X98775821Y-42124045D01*
X98758391Y-42116825D01*
X98746631Y-42101499D01*
X98744488Y-42097788D01*
X98721642Y-42058217D01*
X98656385Y-41992960D01*
X98656382Y-41992958D01*
X98656381Y-41992957D01*
X98576462Y-41946815D01*
X98576457Y-41946813D01*
X98487319Y-41922929D01*
X98487317Y-41922929D01*
X98395029Y-41922929D01*
X98395027Y-41922929D01*
X98305888Y-41946813D01*
X98305883Y-41946815D01*
X98225964Y-41992957D01*
X98160701Y-42058220D01*
X98114559Y-42138139D01*
X98114557Y-42138144D01*
X98090673Y-42227282D01*
X98090673Y-42319575D01*
X98114557Y-42408713D01*
X98114559Y-42408718D01*
X98160701Y-42488637D01*
X98160702Y-42488638D01*
X98160704Y-42488641D01*
X98225961Y-42553898D01*
X98225963Y-42553899D01*
X98225964Y-42553900D01*
X98245427Y-42565137D01*
X98279905Y-42610070D01*
X98279115Y-42651112D01*
X98276659Y-42659042D01*
X98273386Y-42664712D01*
X98263636Y-42701097D01*
X98263210Y-42702475D01*
X98245966Y-42723240D01*
X98229522Y-42744672D01*
X98227783Y-42745137D01*
X98227028Y-42746048D01*
X98222990Y-42746422D01*
X98192522Y-42754586D01*
X98096225Y-42754586D01*
X98007086Y-42778470D01*
X98007081Y-42778472D01*
X97927162Y-42824614D01*
X97861899Y-42889877D01*
X97815757Y-42969796D01*
X97815755Y-42969801D01*
X97791871Y-43058939D01*
X97791871Y-43151232D01*
X97815755Y-43240370D01*
X97815757Y-43240375D01*
X97861899Y-43320294D01*
X97861900Y-43320295D01*
X97861902Y-43320298D01*
X97927159Y-43385555D01*
X97927161Y-43385556D01*
X97927162Y-43385557D01*
X98007081Y-43431699D01*
X98007083Y-43431700D01*
X98007084Y-43431700D01*
X98007086Y-43431701D01*
X98026915Y-43437014D01*
X98096224Y-43455585D01*
X98096225Y-43455586D01*
X98096227Y-43455586D01*
X98136243Y-43455586D01*
X98188569Y-43477260D01*
X98437655Y-43726346D01*
X98437658Y-43726350D01*
X98441876Y-43730568D01*
X98506717Y-43795409D01*
X98548180Y-43812583D01*
X98591435Y-43830500D01*
X98591436Y-43830500D01*
X99150954Y-43830500D01*
X99203280Y-43852174D01*
X99224954Y-43904500D01*
X99219321Y-43932819D01*
X99217582Y-43937015D01*
X99204500Y-44002789D01*
X99204500Y-44197205D01*
X99217582Y-44262985D01*
X99262114Y-44329631D01*
X99267423Y-44337577D01*
X99342014Y-44387417D01*
X99407789Y-44400500D01*
X100761584Y-44400499D01*
X100813910Y-44422173D01*
X100835584Y-44474499D01*
X100835584Y-44616028D01*
X100835583Y-44616042D01*
X100835583Y-44720989D01*
X100833084Y-44720989D01*
X100824008Y-44766612D01*
X100776915Y-44798077D01*
X100762480Y-44799499D01*
X99407785Y-44799499D01*
X99342016Y-44812580D01*
X99304606Y-44837577D01*
X99280519Y-44853672D01*
X99275496Y-44857028D01*
X99234384Y-44869499D01*
X98326127Y-44869499D01*
X98273801Y-44847825D01*
X98172174Y-44746198D01*
X98150500Y-44693872D01*
X98150500Y-44653854D01*
X98150499Y-44653853D01*
X98147952Y-44644349D01*
X98126614Y-44564712D01*
X98086640Y-44495476D01*
X98080471Y-44484791D01*
X98080470Y-44484790D01*
X98080469Y-44484788D01*
X98015212Y-44419531D01*
X98015209Y-44419529D01*
X98015208Y-44419528D01*
X97935289Y-44373386D01*
X97935284Y-44373384D01*
X97846146Y-44349500D01*
X97846144Y-44349500D01*
X97753856Y-44349500D01*
X97753854Y-44349500D01*
X97664715Y-44373384D01*
X97664708Y-44373387D01*
X97661498Y-44375241D01*
X97605345Y-44382632D01*
X97560413Y-44348152D01*
X97550500Y-44311154D01*
X97550500Y-44253854D01*
X97550499Y-44253853D01*
X97545719Y-44236015D01*
X97535322Y-44197210D01*
X97526615Y-44164715D01*
X97526613Y-44164710D01*
X97480471Y-44084791D01*
X97480470Y-44084790D01*
X97480469Y-44084788D01*
X97415212Y-44019531D01*
X97415209Y-44019529D01*
X97415208Y-44019528D01*
X97335289Y-43973386D01*
X97335284Y-43973384D01*
X97246146Y-43949500D01*
X97246144Y-43949500D01*
X97153856Y-43949500D01*
X97153854Y-43949500D01*
X97064715Y-43973384D01*
X97064710Y-43973386D01*
X96984791Y-44019528D01*
X96919528Y-44084791D01*
X96873386Y-44164710D01*
X96873385Y-44164714D01*
X96867950Y-44184997D01*
X96856189Y-44200322D01*
X96848799Y-44218167D01*
X96839560Y-44221994D01*
X96833471Y-44229930D01*
X96814318Y-44232450D01*
X96796474Y-44239843D01*
X96787233Y-44236015D01*
X96777318Y-44237321D01*
X96744148Y-44218170D01*
X96744147Y-44218169D01*
X96744146Y-44218169D01*
X96726353Y-44200376D01*
X96726346Y-44200370D01*
X95549817Y-43023841D01*
X95549817Y-43023840D01*
X95474569Y-42948592D01*
X95474565Y-42948589D01*
X95431057Y-42930568D01*
X95389850Y-42913499D01*
X95298150Y-42913499D01*
X95289538Y-42913499D01*
X95289530Y-42913500D01*
X93450623Y-42913500D01*
X93425809Y-42923778D01*
X93365907Y-42948589D01*
X93365903Y-42948592D01*
X93352292Y-42962203D01*
X93299965Y-42983876D01*
X93247640Y-42962201D01*
X93228489Y-42929031D01*
X93216614Y-42884712D01*
X93182375Y-42825409D01*
X93170471Y-42804791D01*
X93170470Y-42804790D01*
X93170469Y-42804788D01*
X93105212Y-42739531D01*
X93105209Y-42739529D01*
X93105208Y-42739528D01*
X93025289Y-42693386D01*
X93025284Y-42693384D01*
X92936146Y-42669500D01*
X92936144Y-42669500D01*
X92843856Y-42669500D01*
X92843854Y-42669500D01*
X92750027Y-42694641D01*
X92749347Y-42692106D01*
X92701157Y-42692090D01*
X92661122Y-42652027D01*
X92655499Y-42623735D01*
X92655499Y-42502791D01*
X92642417Y-42437015D01*
X92611744Y-42391110D01*
X92600696Y-42335564D01*
X92611744Y-42308890D01*
X92642417Y-42262986D01*
X92655500Y-42197211D01*
X92655499Y-42002790D01*
X92642417Y-41937014D01*
X92621830Y-41906204D01*
X92610781Y-41850658D01*
X92642246Y-41803565D01*
X92697794Y-41792515D01*
X92720359Y-41801007D01*
X92754576Y-41820762D01*
X92764712Y-41826614D01*
X92764713Y-41826614D01*
X92764715Y-41826615D01*
X92805627Y-41837577D01*
X92853853Y-41850499D01*
X92853854Y-41850500D01*
X92853856Y-41850500D01*
X92946146Y-41850500D01*
X92946146Y-41850499D01*
X93035288Y-41826614D01*
X93115212Y-41780469D01*
X93180469Y-41715212D01*
X93226614Y-41635288D01*
X93250499Y-41546146D01*
X93250500Y-41546146D01*
X93250500Y-41453854D01*
X93250499Y-41453853D01*
X93226615Y-41364715D01*
X93226613Y-41364710D01*
X93180471Y-41284791D01*
X93180470Y-41284790D01*
X93180469Y-41284788D01*
X93115212Y-41219531D01*
X93115209Y-41219529D01*
X93115208Y-41219528D01*
X93035289Y-41173386D01*
X93035284Y-41173384D01*
X92946146Y-41149500D01*
X92946144Y-41149500D01*
X92853856Y-41149500D01*
X92853854Y-41149500D01*
X92764715Y-41173384D01*
X92760229Y-41175243D01*
X92759421Y-41173292D01*
X92710321Y-41179739D01*
X92665400Y-41145244D01*
X92655499Y-41108269D01*
X92655499Y-41002790D01*
X92642417Y-40937014D01*
X92592577Y-40862423D01*
X92589969Y-40860680D01*
X92517985Y-40812582D01*
X92452211Y-40799500D01*
X91823628Y-40799500D01*
X91771302Y-40777826D01*
X91723772Y-40730296D01*
X91723772Y-40730295D01*
X91708271Y-40714794D01*
X91648523Y-40655046D01*
X91648521Y-40655045D01*
X91648519Y-40655044D01*
X91613431Y-40640510D01*
X91613431Y-40640509D01*
X91563805Y-40619954D01*
X91472105Y-40619954D01*
X91463493Y-40619954D01*
X91463485Y-40619955D01*
X91209064Y-40619955D01*
X91156738Y-40598281D01*
X91135064Y-40545955D01*
X91144978Y-40508955D01*
X91167100Y-40470639D01*
X91212034Y-40436160D01*
X91250338Y-40436160D01*
X91303850Y-40450499D01*
X91303851Y-40450500D01*
X91303853Y-40450500D01*
X91396143Y-40450500D01*
X91396143Y-40450499D01*
X91485285Y-40426614D01*
X91565209Y-40380469D01*
X91572670Y-40373007D01*
X91624991Y-40351330D01*
X91677317Y-40372998D01*
X91684788Y-40380469D01*
X91684790Y-40380470D01*
X91684791Y-40380471D01*
X91764710Y-40426613D01*
X91764712Y-40426614D01*
X91764713Y-40426614D01*
X91764715Y-40426615D01*
X91800338Y-40436160D01*
X91853853Y-40450499D01*
X91853854Y-40450500D01*
X91853856Y-40450500D01*
X91946146Y-40450500D01*
X91946146Y-40450499D01*
X92035288Y-40426614D01*
X92115212Y-40380469D01*
X92180469Y-40315212D01*
X92226614Y-40235288D01*
X92250499Y-40146146D01*
X92250500Y-40146146D01*
X92250500Y-40053854D01*
X92250499Y-40053853D01*
X92226615Y-39964715D01*
X92226613Y-39964710D01*
X92180471Y-39884791D01*
X92180470Y-39884790D01*
X92180469Y-39884788D01*
X92115212Y-39819531D01*
X92115209Y-39819529D01*
X92115207Y-39819527D01*
X92060760Y-39788091D01*
X92026282Y-39743157D01*
X92033676Y-39687005D01*
X92055391Y-39649395D01*
X92079276Y-39560253D01*
X92079277Y-39560253D01*
X92079277Y-39467961D01*
X92079276Y-39467960D01*
X92074597Y-39450499D01*
X92056991Y-39384791D01*
X92055392Y-39378822D01*
X92055390Y-39378817D01*
X92009248Y-39298898D01*
X92009247Y-39298897D01*
X92009246Y-39298895D01*
X91943989Y-39233638D01*
X91943986Y-39233636D01*
X91943985Y-39233635D01*
X91864066Y-39187493D01*
X91864061Y-39187491D01*
X91774923Y-39163607D01*
X91774921Y-39163607D01*
X91682633Y-39163607D01*
X91682631Y-39163607D01*
X91593492Y-39187491D01*
X91593487Y-39187493D01*
X91513568Y-39233635D01*
X91448305Y-39298898D01*
X91402163Y-39378817D01*
X91402161Y-39378822D01*
X91378277Y-39467960D01*
X91378277Y-39560253D01*
X91403418Y-39654080D01*
X91401246Y-39654662D01*
X91401246Y-39703819D01*
X91361197Y-39743867D01*
X91332879Y-39749500D01*
X91303851Y-39749500D01*
X91214712Y-39773384D01*
X91214707Y-39773386D01*
X91134788Y-39819528D01*
X91069524Y-39884792D01*
X91069524Y-39884793D01*
X91030294Y-39952739D01*
X90985360Y-39987217D01*
X90947057Y-39987217D01*
X90893543Y-39972878D01*
X90801255Y-39972878D01*
X90801253Y-39972878D01*
X90712114Y-39996762D01*
X90712109Y-39996764D01*
X90632190Y-40042906D01*
X90566927Y-40108169D01*
X90520785Y-40188088D01*
X90520783Y-40188093D01*
X90496899Y-40277231D01*
X90496899Y-40277234D01*
X90496899Y-40369522D01*
X90499832Y-40380469D01*
X90514980Y-40437002D01*
X90507587Y-40493154D01*
X90477630Y-40519427D01*
X90478563Y-40521043D01*
X90394442Y-40569610D01*
X90394439Y-40569612D01*
X90394439Y-40569613D01*
X90329182Y-40634870D01*
X90329180Y-40634872D01*
X90326826Y-40637227D01*
X90274500Y-40658901D01*
X90222174Y-40637227D01*
X90200500Y-40584901D01*
X90200500Y-36400462D01*
X90222174Y-36348136D01*
X90274500Y-36326462D01*
X90326826Y-36348136D01*
X90345978Y-36381309D01*
X90362111Y-36441520D01*
X90362113Y-36441525D01*
X90408255Y-36521444D01*
X90408256Y-36521445D01*
X90408258Y-36521448D01*
X90473515Y-36586705D01*
X90473517Y-36586706D01*
X90473518Y-36586707D01*
X90522881Y-36615207D01*
X90553439Y-36632850D01*
X90553440Y-36632850D01*
X90553442Y-36632851D01*
X90562541Y-36635289D01*
X90642580Y-36656735D01*
X90642581Y-36656736D01*
X90642583Y-36656736D01*
X90734873Y-36656736D01*
X90734873Y-36656735D01*
X90824015Y-36632850D01*
X90903939Y-36586705D01*
X90969196Y-36521448D01*
X90989806Y-36485750D01*
X91034738Y-36451272D01*
X91090891Y-36458664D01*
X91112592Y-36477691D01*
X91114524Y-36480208D01*
X91114527Y-36480211D01*
X91114529Y-36480214D01*
X91179786Y-36545471D01*
X91179788Y-36545472D01*
X91179789Y-36545473D01*
X91259708Y-36591615D01*
X91259710Y-36591616D01*
X91259711Y-36591616D01*
X91259713Y-36591617D01*
X91304282Y-36603559D01*
X91348851Y-36615501D01*
X91348852Y-36615502D01*
X91348854Y-36615502D01*
X91441144Y-36615502D01*
X91441144Y-36615501D01*
X91530286Y-36591616D01*
X91610210Y-36545471D01*
X91675467Y-36480214D01*
X91721612Y-36400290D01*
X91745497Y-36311148D01*
X91745498Y-36311148D01*
X91745498Y-36218856D01*
X91745497Y-36218855D01*
X91741157Y-36202659D01*
X91721952Y-36130982D01*
X91721613Y-36129717D01*
X91721611Y-36129712D01*
X91675469Y-36049793D01*
X91675468Y-36049792D01*
X91675467Y-36049790D01*
X91610210Y-35984533D01*
X91610207Y-35984531D01*
X91610206Y-35984530D01*
X91530287Y-35938388D01*
X91530282Y-35938386D01*
X91441144Y-35914502D01*
X91441142Y-35914502D01*
X91348854Y-35914502D01*
X91348852Y-35914502D01*
X91259713Y-35938386D01*
X91259708Y-35938388D01*
X91179789Y-35984530D01*
X91114525Y-36049794D01*
X91114525Y-36049795D01*
X91093917Y-36085488D01*
X91048983Y-36119966D01*
X90992831Y-36112572D01*
X90971131Y-36093544D01*
X90969202Y-36091031D01*
X90969197Y-36091026D01*
X90969196Y-36091024D01*
X90903939Y-36025767D01*
X90903936Y-36025765D01*
X90903935Y-36025764D01*
X90824016Y-35979622D01*
X90824011Y-35979620D01*
X90734873Y-35955736D01*
X90734871Y-35955736D01*
X90642583Y-35955736D01*
X90642581Y-35955736D01*
X90553442Y-35979620D01*
X90553437Y-35979622D01*
X90473518Y-36025764D01*
X90408255Y-36091027D01*
X90362113Y-36170946D01*
X90362111Y-36170951D01*
X90345978Y-36231162D01*
X90311500Y-36276095D01*
X90255347Y-36283487D01*
X90210414Y-36249009D01*
X90200500Y-36212009D01*
X90200500Y-32702236D01*
X90200635Y-32697768D01*
X90218454Y-32403176D01*
X90219528Y-32394328D01*
X90272328Y-32106211D01*
X90274458Y-32097568D01*
X90361597Y-31817931D01*
X90364754Y-31809604D01*
X90484971Y-31542493D01*
X90489115Y-31534599D01*
X90640636Y-31283952D01*
X90645712Y-31276599D01*
X90691131Y-31218626D01*
X90826343Y-31046039D01*
X90832254Y-31039367D01*
X91039367Y-30832254D01*
X91046039Y-30826343D01*
X91276599Y-30645711D01*
X91283953Y-30640636D01*
X91388826Y-30577238D01*
X91534599Y-30489115D01*
X91542493Y-30484971D01*
X91809604Y-30364754D01*
X91817931Y-30361597D01*
X92097568Y-30274458D01*
X92106211Y-30272328D01*
X92394328Y-30219528D01*
X92403176Y-30218454D01*
X92697768Y-30200634D01*
X92702236Y-30200500D01*
X92739882Y-30200500D01*
X100700153Y-30200500D01*
X100752479Y-30222174D01*
G37*
%TD.AperFunction*%
%TA.AperFunction,Conductor*%
G36*
X103741916Y-43966938D02*
G01*
X104052283Y-44277305D01*
X104073957Y-44329631D01*
X104073957Y-46266016D01*
X104095427Y-46346140D01*
X104095427Y-46346146D01*
X104095429Y-46346146D01*
X104097842Y-46355157D01*
X104143987Y-46435082D01*
X104787826Y-47078921D01*
X104809500Y-47131247D01*
X104809500Y-48639238D01*
X104787826Y-48691564D01*
X104735500Y-48713238D01*
X104694388Y-48700767D01*
X104656136Y-48675208D01*
X104578585Y-48623390D01*
X104578581Y-48623388D01*
X104578579Y-48623387D01*
X104578580Y-48623387D01*
X104451961Y-48570940D01*
X104451950Y-48570937D01*
X104344682Y-48549600D01*
X104325708Y-48545826D01*
X104278616Y-48514361D01*
X104267567Y-48458813D01*
X104276061Y-48436246D01*
X104276125Y-48436134D01*
X104276614Y-48435288D01*
X104300499Y-48346146D01*
X104300500Y-48346146D01*
X104300500Y-48253854D01*
X104300499Y-48253853D01*
X104299721Y-48250951D01*
X104288557Y-48209284D01*
X104276615Y-48164715D01*
X104276613Y-48164710D01*
X104230471Y-48084791D01*
X104230470Y-48084790D01*
X104230469Y-48084788D01*
X104165212Y-48019531D01*
X104165209Y-48019529D01*
X104165208Y-48019528D01*
X104085289Y-47973386D01*
X104085284Y-47973384D01*
X103996146Y-47949500D01*
X103996144Y-47949500D01*
X103903856Y-47949500D01*
X103872585Y-47957879D01*
X103816433Y-47950486D01*
X103781954Y-47905553D01*
X103781500Y-47903858D01*
X103781500Y-47903856D01*
X103757614Y-47814712D01*
X103711469Y-47734788D01*
X103646212Y-47669531D01*
X103646209Y-47669529D01*
X103646208Y-47669528D01*
X103566289Y-47623386D01*
X103566284Y-47623384D01*
X103477146Y-47599500D01*
X103477144Y-47599500D01*
X103384856Y-47599500D01*
X103323652Y-47615899D01*
X103267499Y-47608506D01*
X103233021Y-47563572D01*
X103230500Y-47544420D01*
X103230500Y-47373984D01*
X103230499Y-47373982D01*
X103227546Y-47366852D01*
X103227544Y-47366849D01*
X103214527Y-47335422D01*
X103195409Y-47289266D01*
X103130568Y-47224425D01*
X103126353Y-47220210D01*
X103126346Y-47220204D01*
X102795900Y-46889758D01*
X102795900Y-46889757D01*
X102758316Y-46852173D01*
X102720651Y-46814508D01*
X102720649Y-46814507D01*
X102720647Y-46814506D01*
X102685559Y-46799972D01*
X102685559Y-46799971D01*
X102635933Y-46779416D01*
X102544233Y-46779416D01*
X102535621Y-46779416D01*
X102535613Y-46779417D01*
X102284067Y-46779417D01*
X102260802Y-46789054D01*
X102260801Y-46789054D01*
X102199351Y-46814506D01*
X102199348Y-46814509D01*
X101883591Y-47130265D01*
X101877508Y-47144953D01*
X101876811Y-47146635D01*
X101859916Y-47187422D01*
X101846678Y-47219380D01*
X101830637Y-47243386D01*
X101526198Y-47547826D01*
X101473872Y-47569500D01*
X101268944Y-47569500D01*
X101216618Y-47547826D01*
X101194944Y-47495500D01*
X101204858Y-47458500D01*
X101228441Y-47417652D01*
X101228442Y-47417651D01*
X101252327Y-47328509D01*
X101252328Y-47328509D01*
X101252328Y-47236217D01*
X101252327Y-47236216D01*
X101249462Y-47225525D01*
X101236308Y-47176430D01*
X101228443Y-47147078D01*
X101228441Y-47147073D01*
X101182299Y-47067154D01*
X101182298Y-47067153D01*
X101182297Y-47067151D01*
X101117040Y-47001894D01*
X101117037Y-47001892D01*
X101117036Y-47001891D01*
X101037117Y-46955749D01*
X101037112Y-46955747D01*
X100968507Y-46937364D01*
X100923574Y-46902885D01*
X100916182Y-46846733D01*
X100926129Y-46824777D01*
X100967417Y-46762986D01*
X100980500Y-46697211D01*
X100980499Y-46502790D01*
X100967417Y-46437014D01*
X100936745Y-46391110D01*
X100925696Y-46335564D01*
X100930342Y-46320654D01*
X100933007Y-46314483D01*
X100967417Y-46262986D01*
X100977796Y-46210801D01*
X100980909Y-46203597D01*
X100996023Y-46188931D01*
X101007727Y-46171415D01*
X101015713Y-46169826D01*
X101021556Y-46164157D01*
X101042613Y-46164474D01*
X101063276Y-46160364D01*
X101070047Y-46164888D01*
X101078187Y-46165011D01*
X101092852Y-46180125D01*
X101110369Y-46191829D01*
X101113177Y-46201071D01*
X101117627Y-46205658D01*
X101117482Y-46215243D01*
X101121936Y-46229904D01*
X101122718Y-46229859D01*
X101122841Y-46231998D01*
X101125658Y-46256286D01*
X101125658Y-46256288D01*
X101125659Y-46256289D01*
X101169528Y-46355643D01*
X101246325Y-46432440D01*
X101345679Y-46476309D01*
X101369968Y-46479127D01*
X101796713Y-46479126D01*
X101821003Y-46476309D01*
X101920357Y-46432440D01*
X101997154Y-46355643D01*
X102041023Y-46256289D01*
X102043841Y-46232000D01*
X102043840Y-45865255D01*
X102043744Y-45864431D01*
X102041023Y-45840967D01*
X102041023Y-45840965D01*
X101997154Y-45741611D01*
X101920357Y-45664814D01*
X101918782Y-45663239D01*
X101897108Y-45610913D01*
X101918781Y-45558588D01*
X101989692Y-45487678D01*
X102034693Y-45385759D01*
X102037584Y-45360841D01*
X102037583Y-45029710D01*
X102059257Y-44977385D01*
X102111583Y-44955711D01*
X102163909Y-44977385D01*
X102740326Y-45553802D01*
X102762000Y-45606128D01*
X102762000Y-45646146D01*
X102785884Y-45735284D01*
X102785886Y-45735289D01*
X102832028Y-45815208D01*
X102832029Y-45815209D01*
X102832031Y-45815212D01*
X102897288Y-45880469D01*
X102897290Y-45880470D01*
X102897291Y-45880471D01*
X102909322Y-45887417D01*
X102957404Y-45915178D01*
X102991882Y-45960110D01*
X102984490Y-46016263D01*
X102972730Y-46031588D01*
X102919531Y-46084787D01*
X102919529Y-46084790D01*
X102873386Y-46164710D01*
X102873384Y-46164715D01*
X102849500Y-46253853D01*
X102849500Y-46346146D01*
X102873384Y-46435284D01*
X102873386Y-46435289D01*
X102919528Y-46515208D01*
X102919529Y-46515209D01*
X102919531Y-46515212D01*
X102984788Y-46580469D01*
X102984790Y-46580470D01*
X102984791Y-46580471D01*
X103019480Y-46600499D01*
X103064712Y-46626614D01*
X103064713Y-46626614D01*
X103064715Y-46626615D01*
X103107425Y-46638059D01*
X103153853Y-46650499D01*
X103153854Y-46650500D01*
X103153856Y-46650500D01*
X103246146Y-46650500D01*
X103246146Y-46650499D01*
X103335288Y-46626614D01*
X103415212Y-46580469D01*
X103480469Y-46515212D01*
X103526614Y-46435288D01*
X103550499Y-46346146D01*
X103550500Y-46346146D01*
X103550500Y-46253854D01*
X103550499Y-46253853D01*
X103526615Y-46164715D01*
X103526613Y-46164710D01*
X103480471Y-46084791D01*
X103480470Y-46084790D01*
X103480469Y-46084788D01*
X103415212Y-46019531D01*
X103415209Y-46019529D01*
X103415208Y-46019528D01*
X103369154Y-45992939D01*
X103355094Y-45984821D01*
X103320616Y-45939889D01*
X103328009Y-45883736D01*
X103339766Y-45868414D01*
X103392969Y-45815212D01*
X103439114Y-45735288D01*
X103462999Y-45646146D01*
X103463000Y-45646146D01*
X103463000Y-45553854D01*
X103462999Y-45553853D01*
X103462985Y-45553802D01*
X103439114Y-45464712D01*
X103413099Y-45419653D01*
X103392971Y-45384791D01*
X103392970Y-45384790D01*
X103392969Y-45384788D01*
X103327712Y-45319531D01*
X103327709Y-45319529D01*
X103327708Y-45319528D01*
X103247789Y-45273386D01*
X103247784Y-45273384D01*
X103158646Y-45249500D01*
X103158644Y-45249500D01*
X103118628Y-45249500D01*
X103066302Y-45227826D01*
X102312820Y-44474344D01*
X102291146Y-44422018D01*
X102312820Y-44369692D01*
X102345994Y-44350539D01*
X102346140Y-44350500D01*
X102346144Y-44350500D01*
X102435288Y-44326614D01*
X102515212Y-44280469D01*
X102580469Y-44215212D01*
X102626614Y-44135288D01*
X102650499Y-44046146D01*
X102650500Y-44046146D01*
X102650500Y-44019264D01*
X102672174Y-43966938D01*
X102724497Y-43945264D01*
X103689590Y-43945264D01*
X103741916Y-43966938D01*
G37*
%TD.AperFunction*%
%TA.AperFunction,Conductor*%
G36*
X95270198Y-43396174D02*
G01*
X96347826Y-44473802D01*
X96369500Y-44526128D01*
X96369500Y-44823178D01*
X96369499Y-44823192D01*
X96369499Y-44920850D01*
X96389623Y-44969432D01*
X96404589Y-45005565D01*
X96404592Y-45005569D01*
X96479839Y-45080816D01*
X96479841Y-45080817D01*
X96715326Y-45316302D01*
X96737000Y-45368628D01*
X96737000Y-45408646D01*
X96760884Y-45497784D01*
X96760886Y-45497789D01*
X96807028Y-45577708D01*
X96807029Y-45577709D01*
X96807031Y-45577712D01*
X96872288Y-45642969D01*
X96872290Y-45642970D01*
X96872291Y-45642971D01*
X96952210Y-45689113D01*
X96952212Y-45689114D01*
X96952213Y-45689114D01*
X96952215Y-45689115D01*
X96982427Y-45697210D01*
X97041353Y-45712999D01*
X97041354Y-45713000D01*
X97041356Y-45713000D01*
X97133646Y-45713000D01*
X97133646Y-45712999D01*
X97222788Y-45689114D01*
X97302712Y-45642969D01*
X97367969Y-45577712D01*
X97414114Y-45497788D01*
X97437517Y-45410443D01*
X97471994Y-45365512D01*
X97516834Y-45356014D01*
X97527451Y-45357145D01*
X97537964Y-45361500D01*
X97537965Y-45361500D01*
X97568333Y-45361500D01*
X97572238Y-45361916D01*
X97593918Y-45373727D01*
X97616725Y-45383174D01*
X97959897Y-45726346D01*
X97959900Y-45726350D01*
X97976724Y-45743174D01*
X97998398Y-45795500D01*
X97976724Y-45847826D01*
X97924398Y-45869500D01*
X97824150Y-45869500D01*
X97799336Y-45879778D01*
X97739434Y-45904589D01*
X97739432Y-45904591D01*
X97674591Y-45969432D01*
X97674590Y-45969433D01*
X97674589Y-45969432D01*
X97625039Y-46018984D01*
X97572714Y-46040659D01*
X97351809Y-46040659D01*
X97332657Y-46038138D01*
X97255709Y-46017520D01*
X97163421Y-46017520D01*
X97163419Y-46017520D01*
X97074280Y-46041404D01*
X97074275Y-46041406D01*
X96994356Y-46087548D01*
X96929093Y-46152811D01*
X96882951Y-46232730D01*
X96882950Y-46232734D01*
X96870848Y-46277896D01*
X96859088Y-46293220D01*
X96851696Y-46311068D01*
X96842456Y-46314895D01*
X96836368Y-46322829D01*
X96817216Y-46325349D01*
X96799370Y-46332742D01*
X96790130Y-46328914D01*
X96780216Y-46330220D01*
X96747044Y-46311068D01*
X96732174Y-46296198D01*
X96710500Y-46243872D01*
X96710500Y-46203854D01*
X96710499Y-46203853D01*
X96710430Y-46203597D01*
X96694484Y-46144084D01*
X96686615Y-46114715D01*
X96686613Y-46114710D01*
X96640471Y-46034791D01*
X96640470Y-46034790D01*
X96640469Y-46034788D01*
X96575212Y-45969531D01*
X96575209Y-45969529D01*
X96575208Y-45969528D01*
X96495289Y-45923386D01*
X96495284Y-45923384D01*
X96406146Y-45899500D01*
X96406144Y-45899500D01*
X96313856Y-45899500D01*
X96313854Y-45899500D01*
X96224715Y-45923384D01*
X96224710Y-45923386D01*
X96144791Y-45969528D01*
X96079528Y-46034791D01*
X96033386Y-46114710D01*
X96033385Y-46114714D01*
X96025515Y-46144084D01*
X95991036Y-46189017D01*
X95934883Y-46196408D01*
X95889951Y-46161930D01*
X95884684Y-46152808D01*
X95865937Y-46120337D01*
X95854505Y-46100536D01*
X95854504Y-46100535D01*
X95854503Y-46100533D01*
X95789246Y-46035276D01*
X95789243Y-46035274D01*
X95789242Y-46035273D01*
X95709323Y-45989131D01*
X95709318Y-45989129D01*
X95620180Y-45965245D01*
X95620178Y-45965245D01*
X95527890Y-45965245D01*
X95527888Y-45965245D01*
X95438749Y-45989129D01*
X95438744Y-45989131D01*
X95358825Y-46035273D01*
X95330526Y-46063572D01*
X95278201Y-46085245D01*
X95193726Y-46085245D01*
X95193718Y-46085244D01*
X95185106Y-46085244D01*
X95093407Y-46085244D01*
X95055734Y-46100849D01*
X95008688Y-46120335D01*
X95008687Y-46120337D01*
X94943846Y-46185178D01*
X94134804Y-46994219D01*
X94082478Y-47015893D01*
X94030152Y-46994219D01*
X94008478Y-46941893D01*
X94010999Y-46922745D01*
X94031524Y-46846146D01*
X94032560Y-46842280D01*
X94032560Y-46749989D01*
X94032559Y-46749988D01*
X94029936Y-46740200D01*
X94018416Y-46697205D01*
X94008675Y-46660850D01*
X94008673Y-46660845D01*
X93962531Y-46580926D01*
X93962530Y-46580925D01*
X93962529Y-46580923D01*
X93897272Y-46515666D01*
X93874977Y-46502794D01*
X93843117Y-46484399D01*
X93808639Y-46439465D01*
X93811213Y-46401592D01*
X93808737Y-46400929D01*
X93829909Y-46321912D01*
X93833877Y-46307102D01*
X93833878Y-46307102D01*
X93833878Y-46214810D01*
X93833877Y-46214809D01*
X93830941Y-46203853D01*
X93809992Y-46125668D01*
X93803668Y-46114714D01*
X93763849Y-46045747D01*
X93763848Y-46045746D01*
X93763847Y-46045744D01*
X93698590Y-45980487D01*
X93679444Y-45969433D01*
X93647911Y-45951227D01*
X93616545Y-45915459D01*
X93595410Y-45864434D01*
X93595408Y-45864431D01*
X93154366Y-45423389D01*
X92700408Y-44969432D01*
X92700408Y-44969431D01*
X92687802Y-44956825D01*
X92674103Y-44923750D01*
X92666129Y-44904500D01*
X92666129Y-44904498D01*
X92680627Y-44869499D01*
X92687803Y-44852174D01*
X92687803Y-44852173D01*
X92687804Y-44852173D01*
X92709478Y-44843195D01*
X92740129Y-44830500D01*
X94048872Y-44830500D01*
X94101198Y-44852174D01*
X94567846Y-45318822D01*
X94588887Y-45361489D01*
X94589500Y-45366147D01*
X94613384Y-45455284D01*
X94613386Y-45455289D01*
X94659528Y-45535208D01*
X94659529Y-45535209D01*
X94659531Y-45535212D01*
X94724788Y-45600469D01*
X94724790Y-45600470D01*
X94724791Y-45600471D01*
X94798399Y-45642969D01*
X94804712Y-45646614D01*
X94804713Y-45646614D01*
X94804715Y-45646615D01*
X94849284Y-45658557D01*
X94893853Y-45670499D01*
X94893854Y-45670500D01*
X94893856Y-45670500D01*
X94986146Y-45670500D01*
X94986146Y-45670499D01*
X95075288Y-45646614D01*
X95155212Y-45600469D01*
X95220469Y-45535212D01*
X95266614Y-45455288D01*
X95290499Y-45366146D01*
X95290500Y-45366146D01*
X95290500Y-45273854D01*
X95290499Y-45273853D01*
X95290373Y-45273384D01*
X95266614Y-45184712D01*
X95220469Y-45104788D01*
X95155212Y-45039531D01*
X95155209Y-45039529D01*
X95155208Y-45039528D01*
X95075289Y-44993386D01*
X95075284Y-44993384D01*
X94986146Y-44969500D01*
X94986144Y-44969500D01*
X94901128Y-44969500D01*
X94848802Y-44947826D01*
X94380817Y-44479841D01*
X94380817Y-44479840D01*
X94370409Y-44469432D01*
X94305568Y-44404591D01*
X94305566Y-44404590D01*
X94305564Y-44404589D01*
X94270476Y-44390055D01*
X94270476Y-44390054D01*
X94220850Y-44369499D01*
X94129150Y-44369499D01*
X94120538Y-44369499D01*
X94120530Y-44369500D01*
X92709046Y-44369500D01*
X92656720Y-44347826D01*
X92635046Y-44295500D01*
X92640679Y-44267181D01*
X92642414Y-44262989D01*
X92642417Y-44262986D01*
X92655500Y-44197211D01*
X92655499Y-44002790D01*
X92642417Y-43937014D01*
X92642415Y-43937012D01*
X92640680Y-43932822D01*
X92640677Y-43876185D01*
X92680724Y-43836134D01*
X92709046Y-43830500D01*
X92986003Y-43830500D01*
X92986011Y-43830501D01*
X92994623Y-43830501D01*
X93086323Y-43830501D01*
X93135949Y-43809944D01*
X93171041Y-43795409D01*
X93235882Y-43730568D01*
X93235882Y-43730567D01*
X93246287Y-43720162D01*
X93246288Y-43720159D01*
X93570275Y-43396174D01*
X93622601Y-43374500D01*
X95217872Y-43374500D01*
X95270198Y-43396174D01*
G37*
%TD.AperFunction*%
%TA.AperFunction,Conductor*%
G36*
X90326826Y-42928464D02*
G01*
X90345978Y-42961636D01*
X90351110Y-42980790D01*
X90354286Y-42992643D01*
X90400428Y-43072562D01*
X90400429Y-43072563D01*
X90400431Y-43072566D01*
X90465688Y-43137823D01*
X90465690Y-43137824D01*
X90465691Y-43137825D01*
X90545610Y-43183967D01*
X90545612Y-43183968D01*
X90545613Y-43183968D01*
X90545615Y-43183969D01*
X90590184Y-43195911D01*
X90634753Y-43207853D01*
X90634754Y-43207854D01*
X90634756Y-43207854D01*
X90727046Y-43207854D01*
X90727046Y-43207853D01*
X90797478Y-43188981D01*
X90853630Y-43196373D01*
X90882723Y-43227175D01*
X90887247Y-43236159D01*
X90892583Y-43262986D01*
X90925771Y-43312656D01*
X90927816Y-43316716D01*
X90929595Y-43340777D01*
X90934302Y-43364438D01*
X90931793Y-43370492D01*
X90931994Y-43373199D01*
X90929451Y-43376147D01*
X90923253Y-43391111D01*
X90892583Y-43437012D01*
X90879500Y-43502789D01*
X90879500Y-43697205D01*
X90879501Y-43697210D01*
X90892583Y-43762986D01*
X90907151Y-43784788D01*
X90918998Y-43802519D01*
X90930047Y-43858068D01*
X90903279Y-43898131D01*
X90904586Y-43899438D01*
X90635590Y-44168434D01*
X90623671Y-44197210D01*
X90600499Y-44253150D01*
X90600499Y-44353462D01*
X90600500Y-44353471D01*
X90600500Y-45309848D01*
X90595268Y-45322479D01*
X90578826Y-45362173D01*
X90578825Y-45362174D01*
X90551555Y-45389443D01*
X90499229Y-45411116D01*
X90480079Y-45408595D01*
X90446144Y-45399503D01*
X90353856Y-45399503D01*
X90293652Y-45415634D01*
X90237499Y-45408241D01*
X90203021Y-45363307D01*
X90200500Y-45344155D01*
X90200500Y-42980790D01*
X90222174Y-42928464D01*
X90274500Y-42906790D01*
X90326826Y-42928464D01*
G37*
%TD.AperFunction*%
%TA.AperFunction,Conductor*%
G36*
X101786726Y-41666493D02*
G01*
X101796633Y-41665187D01*
X101811965Y-41676947D01*
X101829820Y-41684343D01*
X101833644Y-41693575D01*
X101841573Y-41699657D01*
X101844098Y-41718815D01*
X101851494Y-41736669D01*
X101849870Y-41749010D01*
X101850133Y-41749045D01*
X101849500Y-41753854D01*
X101849500Y-41846146D01*
X101873384Y-41935284D01*
X101873386Y-41935289D01*
X101919528Y-42015208D01*
X101919529Y-42015209D01*
X101919531Y-42015212D01*
X101984788Y-42080469D01*
X101984790Y-42080470D01*
X101984791Y-42080471D01*
X102064710Y-42126613D01*
X102064712Y-42126614D01*
X102064713Y-42126614D01*
X102064715Y-42126615D01*
X102098707Y-42135723D01*
X102153853Y-42150499D01*
X102153854Y-42150500D01*
X102153856Y-42150500D01*
X102246146Y-42150500D01*
X102246146Y-42150499D01*
X102335288Y-42126614D01*
X102348458Y-42119009D01*
X102404609Y-42111616D01*
X102449544Y-42146093D01*
X102456938Y-42202245D01*
X102453154Y-42212984D01*
X102425871Y-42274775D01*
X102422957Y-42299900D01*
X102422957Y-42689628D01*
X102425871Y-42714751D01*
X102425872Y-42714757D01*
X102444890Y-42757828D01*
X102471251Y-42817530D01*
X102550692Y-42896971D01*
X102611404Y-42923778D01*
X102618860Y-42927070D01*
X102657973Y-42968033D01*
X102656665Y-43024655D01*
X102618860Y-43062460D01*
X102550691Y-43092559D01*
X102471251Y-43171999D01*
X102425871Y-43274776D01*
X102422957Y-43299900D01*
X102422957Y-43575500D01*
X102401283Y-43627826D01*
X102348957Y-43649500D01*
X102253854Y-43649500D01*
X102164715Y-43673384D01*
X102164710Y-43673386D01*
X102084790Y-43719529D01*
X102084789Y-43719529D01*
X102082837Y-43721482D01*
X102081553Y-43722013D01*
X102080947Y-43722479D01*
X102080822Y-43722316D01*
X102030509Y-43743151D01*
X101978185Y-43721472D01*
X101956516Y-43669144D01*
X101962821Y-43639261D01*
X101963811Y-43637017D01*
X101963813Y-43637016D01*
X102007682Y-43537662D01*
X102010500Y-43513373D01*
X102010499Y-43146628D01*
X102007682Y-43122338D01*
X101963813Y-43022984D01*
X101887016Y-42946187D01*
X101787662Y-42902318D01*
X101787663Y-42902318D01*
X101782804Y-42901754D01*
X101763373Y-42899500D01*
X101763369Y-42899500D01*
X101336627Y-42899500D01*
X101312340Y-42902317D01*
X101212983Y-42946187D01*
X101136188Y-43022982D01*
X101136187Y-43022983D01*
X101136187Y-43022984D01*
X101125504Y-43047180D01*
X101122194Y-43054676D01*
X101081230Y-43093788D01*
X101024608Y-43092480D01*
X100985496Y-43051516D01*
X100980499Y-43024785D01*
X100980499Y-43002793D01*
X100980499Y-43002790D01*
X100967417Y-42937014D01*
X100936745Y-42891111D01*
X100925697Y-42835563D01*
X100936745Y-42808889D01*
X100967417Y-42762987D01*
X100980500Y-42697212D01*
X100980499Y-42502791D01*
X100967417Y-42437015D01*
X100967415Y-42437013D01*
X100965680Y-42432823D01*
X100965677Y-42376186D01*
X101005724Y-42336135D01*
X101009143Y-42334817D01*
X101021220Y-42330501D01*
X101029386Y-42330501D01*
X101079012Y-42309944D01*
X101114104Y-42295409D01*
X101178945Y-42230568D01*
X101178945Y-42230567D01*
X101189350Y-42220162D01*
X101189351Y-42220159D01*
X101725169Y-41684342D01*
X101734400Y-41680518D01*
X101740482Y-41672590D01*
X101759640Y-41670064D01*
X101777494Y-41662669D01*
X101786726Y-41666493D01*
G37*
%TD.AperFunction*%
%TA.AperFunction,Conductor*%
G36*
X90326826Y-41062937D02*
G01*
X90329180Y-41065291D01*
X90329182Y-41065294D01*
X90394439Y-41130551D01*
X90394441Y-41130552D01*
X90394442Y-41130553D01*
X90474361Y-41176695D01*
X90474363Y-41176696D01*
X90474364Y-41176696D01*
X90474366Y-41176697D01*
X90515957Y-41187841D01*
X90563504Y-41200581D01*
X90563505Y-41200582D01*
X90563507Y-41200582D01*
X90655797Y-41200582D01*
X90655797Y-41200581D01*
X90744939Y-41176696D01*
X90772546Y-41160757D01*
X90828699Y-41153363D01*
X90873632Y-41187841D01*
X90877849Y-41196368D01*
X90880687Y-41203177D01*
X90892583Y-41262986D01*
X90927251Y-41314871D01*
X90930026Y-41321526D01*
X90930075Y-41343190D01*
X90934302Y-41364438D01*
X90930147Y-41374467D01*
X90930156Y-41378163D01*
X90927519Y-41380811D01*
X90923253Y-41391111D01*
X90892583Y-41437012D01*
X90879500Y-41502789D01*
X90879500Y-41697205D01*
X90892583Y-41762989D01*
X90895371Y-41769718D01*
X90894905Y-41769910D01*
X90896696Y-41771701D01*
X90896696Y-41793292D01*
X90900905Y-41814465D01*
X90896696Y-41820762D01*
X90896696Y-41828338D01*
X90881429Y-41843604D01*
X90869434Y-41861553D01*
X90856648Y-41868387D01*
X90811605Y-41887045D01*
X90769247Y-41904590D01*
X90704404Y-41969433D01*
X90704403Y-41969433D01*
X90652836Y-42020999D01*
X90600510Y-42042673D01*
X90577865Y-42038171D01*
X90577737Y-42038652D01*
X90483911Y-42013511D01*
X90483909Y-42013511D01*
X90391621Y-42013511D01*
X90391619Y-42013511D01*
X90297792Y-42038652D01*
X90297418Y-42037257D01*
X90246175Y-42037253D01*
X90206130Y-41997201D01*
X90200500Y-41968888D01*
X90200500Y-41115263D01*
X90222174Y-41062937D01*
X90274500Y-41041263D01*
X90326826Y-41062937D01*
G37*
%TD.AperFunction*%
%TA.AperFunction,Conductor*%
G36*
X100582244Y-39939674D02*
G01*
X100603918Y-39992000D01*
X100594004Y-40029000D01*
X100573386Y-40064710D01*
X100573384Y-40064715D01*
X100549500Y-40153853D01*
X100549500Y-40193872D01*
X100527826Y-40246198D01*
X100286790Y-40487234D01*
X100234464Y-40508908D01*
X99043479Y-40508908D01*
X98991153Y-40487234D01*
X98969479Y-40434908D01*
X98970901Y-40420472D01*
X98980500Y-40372210D01*
X98980500Y-39992000D01*
X99002174Y-39939674D01*
X99054500Y-39918000D01*
X100529918Y-39918000D01*
X100582244Y-39939674D01*
G37*
%TD.AperFunction*%
%TD*%
M02*
