M48
; DRILL file {KiCad 9.0.2} date 2025-12-22T17:06:25+0800
; FORMAT={-:-/ absolute / inch / decimal}
; #@! TF.CreationDate,2025-12-22T17:06:25+08:00
; #@! TF.GenerationSoftware,Kicad,Pcbnew,9.0.2
; #@! TF.FileFunction,Plated,1,6,PTH
FMAT,2
INCH
; #@! TA.AperFunction,Plated,PTH,ViaDrill
T1C0.0118
; #@! TA.AperFunction,Plated,PTH,ComponentDrill
T2C0.0295
; #@! TA.AperFunction,Plated,PTH,ComponentDrill
T3C0.0433
; #@! TA.AperFunction,Plated,PTH,ComponentDrill
T4C0.1063
%
G90
G05
T1
X3.5591Y-1.7677
X3.5591Y-1.8012
X3.5605Y-1.6679
X3.5659Y-2.2215
X3.5669Y-1.6299
X3.5673Y-1.6083
X3.5673Y-1.9102
X3.5675Y-2.311
X3.5677Y-2.0087
X3.5685Y-1.8697
X3.5701Y-1.6873
X3.5704Y-1.4294
X3.5767Y-1.5875
X3.5862Y-1.5557
X3.5906Y-2.1303
X3.5947Y-2.0709
X3.5947Y-2.0925
X3.5965Y-1.5787
X3.597Y-2.2339
X3.5982Y-1.4278
X3.6114Y-1.5557
X3.6142Y-2.189
X3.6161Y-2.126
X3.6181Y-1.5787
X3.6201Y-2.1526
X3.6268Y-1.8795
X3.628Y-2.2608
X3.6339Y-1.9525
X3.6378Y-2.0709
X3.6378Y-2.128
X3.6394Y-1.3984
X3.647Y-1.9125
X3.6535Y-2.0118
X3.6537Y-1.9331
X3.6537Y-1.9724
X3.656Y-1.8774
X3.6571Y-1.6937
X3.6575Y-1.6339
X3.6579Y-2.5079
X3.6598Y-1.828
X3.6618Y-1.6583
X3.6693Y-1.4055
X3.6804Y-1.8213
X3.688Y-1.7156
X3.6883Y-1.8424
X3.6929Y-2.0709
X3.6966Y-2.2356
X3.7032Y-1.4982
X3.7128Y-1.9724
X3.7158Y-2.2586
X3.7185Y-2.2165
X3.7298Y-2.1
X3.7329Y-1.9805
X3.7348Y-2.0562
X3.7366Y-2.1307
X3.7378Y-1.7843
X3.7475Y-2.2448
X3.7475Y-2.32
X3.7502Y-2.0066
X3.752Y-2.5157
X3.7628Y-1.8235
X3.7662Y-1.848
X3.7738Y-2.0079
X3.7796Y-2.1798
X3.7803Y-1.6521
X3.7812Y-1.7555
X3.7847Y-2.3731
X3.785Y-2.3194
X3.7866Y-1.9823
X3.7937Y-1.8209
X3.7941Y-2.0661
X3.7958Y-1.4081
X3.8206Y-2.2584
X3.8223Y-1.7859
X3.8224Y-2.2373
X3.8234Y-2.2783
X3.8268Y-1.7441
X3.8268Y-1.8209
X3.8268Y-1.8425
X3.8279Y-2.1809
X3.8346Y-2.1555
X3.8358Y-1.6669
X3.8365Y-1.2844
X3.8442Y-2.2099
X3.8453Y-2.3419
X3.8457Y-1.9725
X3.8481Y-2.3677
X3.8502Y-1.2115
X3.8504Y-2.185
X3.8543Y-2.1614
X3.8567Y-2.5469
X3.8618Y-2.4858
X3.8622Y-2.2913
X3.8639Y-1.6971
X3.8673Y-1.972
X3.874Y-1.7579
X3.8756Y-1.6643
X3.8819Y-1.2441
X3.8819Y-1.685
X3.885Y-1.922
X3.8876Y-2.1099
X3.8908Y-2.2455
X3.8932Y-2.2729
X3.8944Y-2.5388
X3.8996Y-2.4693
X3.9055Y-2.4075
X3.9331Y-1.937
X3.937Y-1.5827
X3.937Y-2.063
X3.9449Y-2.2795
X3.9499Y-2.2341
X3.9618Y-2.3318
X3.9651Y-2.2032
X3.9674Y-1.8672
X3.9724Y-1.5827
X3.975Y-1.5143
X3.9764Y-1.9075
X3.978Y-1.4871
X3.9821Y-2.3345
X3.9826Y-2.3103
X3.9845Y-1.6184
X3.9852Y-1.6811
X3.9921Y-1.3071
X3.9992Y-2.2689
X4.0039Y-2.0591
X4.0049Y-1.5931
X4.0079Y-1.5669
X4.0079Y-2.4055
X4.0098Y-1.6234
X4.0236Y-1.4449
X4.0236Y-1.6457
X4.0276Y-1.7323
X4.0289Y-1.5617
X4.033Y-1.8253
X4.0551Y-1.4606
X4.0551Y-1.9331
X4.0591Y-1.5945
X4.0591Y-2.4016
X4.0595Y-1.7953
X4.063Y-1.5591
X4.063Y-1.8228
X4.0669Y-1.437
X4.0721Y-1.8878
X4.0728Y-2.0965
X4.0787Y-1.9921
X4.079Y-2.0318
X4.0925Y-1.9016
X4.1024Y-1.4331
X4.1024Y-1.5906
X4.1024Y-2.378
X4.1024Y-2.4173
X4.1063Y-2.1417
X4.1075Y-1.514
X4.1102Y-2.4646
X4.1181Y-1.9764
X4.1244Y-2.4389
X4.1378Y-1.7323
X4.1402Y-1.8602
X4.1417Y-1.685
X4.1611Y-1.6948
X4.1647Y-1.6266
X4.1676Y-1.2567
X4.1696Y-1.3653
X4.1709Y-1.31
X4.1728Y-1.8506
X4.1772Y-1.874
X4.185Y-1.7323
X4.1852Y-1.6929
X4.1917Y-1.4363
X4.1929Y-1.4921
X4.1929Y-1.8425
X4.1969Y-1.2598
X4.1969Y-1.3071
X4.1969Y-1.3622
X4.1969Y-1.5394
X4.1969Y-2.1378
X4.1969Y-2.4646
X4.1976Y-2.439
X4.1984Y-2.0685
X4.2008Y-1.9783
X4.2008Y-2.0118
T2
X3.9835Y-2.4902
X4.0622Y-2.4902
T3
X3.6071Y-2.435
X3.7071Y-2.435
X3.8071Y-2.435
T4
X3.6457Y-1.2835
X4.1181Y-2.2579
M30
