%TF.GenerationSoftware,KiCad,Pcbnew,9.0.2*%
%TF.CreationDate,2025-12-22T17:06:25+08:00*%
%TF.ProjectId,OshEasyMini,4f736845-6173-4794-9d69-6e692e6b6963,rev?*%
%TF.SameCoordinates,Original*%
%TF.FileFunction,Legend,Top*%
%TF.FilePolarity,Positive*%
%FSLAX46Y46*%
G04 Gerber Fmt 4.6, Leading zero omitted, Abs format (unit mm)*
G04 Created by KiCad (PCBNEW 9.0.2) date 2025-12-22 17:06:25*
%MOMM*%
%LPD*%
G01*
G04 APERTURE LIST*
G04 Aperture macros list*
%AMRoundRect*
0 Rectangle with rounded corners*
0 $1 Rounding radius*
0 $2 $3 $4 $5 $6 $7 $8 $9 X,Y pos of 4 corners*
0 Add a 4 corners polygon primitive as box body*
4,1,4,$2,$3,$4,$5,$6,$7,$8,$9,$2,$3,0*
0 Add four circle primitives for the rounded corners*
1,1,$1+$1,$2,$3*
1,1,$1+$1,$4,$5*
1,1,$1+$1,$6,$7*
1,1,$1+$1,$8,$9*
0 Add four rect primitives between the rounded corners*
20,1,$1+$1,$2,$3,$4,$5,0*
20,1,$1+$1,$4,$5,$6,$7,0*
20,1,$1+$1,$6,$7,$8,$9,0*
20,1,$1+$1,$8,$9,$2,$3,0*%
%AMFreePoly0*
4,1,6,1.000000,0.000000,0.500000,-0.750000,-0.500000,-0.750000,-0.500000,0.750000,0.500000,0.750000,1.000000,0.000000,1.000000,0.000000,$1*%
%AMFreePoly1*
4,1,6,0.500000,-0.750000,-0.650000,-0.750000,-0.150000,0.000000,-0.650000,0.750000,0.500000,0.750000,0.500000,-0.750000,0.500000,-0.750000,$1*%
G04 Aperture macros list end*
%ADD10C,0.150000*%
%ADD11C,0.120000*%
%ADD12C,0.127000*%
%ADD13RoundRect,0.075000X0.662500X0.075000X-0.662500X0.075000X-0.662500X-0.075000X0.662500X-0.075000X0*%
%ADD14RoundRect,0.075000X0.075000X0.662500X-0.075000X0.662500X-0.075000X-0.662500X0.075000X-0.662500X0*%
%ADD15RoundRect,0.140000X-0.170000X0.140000X-0.170000X-0.140000X0.170000X-0.140000X0.170000X0.140000X0*%
%ADD16RoundRect,0.150000X-0.625000X0.150000X-0.625000X-0.150000X0.625000X-0.150000X0.625000X0.150000X0*%
%ADD17RoundRect,0.250000X-0.650000X0.350000X-0.650000X-0.350000X0.650000X-0.350000X0.650000X0.350000X0*%
%ADD18RoundRect,0.100000X0.100000X-0.225000X0.100000X0.225000X-0.100000X0.225000X-0.100000X-0.225000X0*%
%ADD19RoundRect,0.100000X-0.130000X-0.100000X0.130000X-0.100000X0.130000X0.100000X-0.130000X0.100000X0*%
%ADD20RoundRect,0.250000X0.325000X0.250000X-0.325000X0.250000X-0.325000X-0.250000X0.325000X-0.250000X0*%
%ADD21C,1.100000*%
%ADD22RoundRect,0.249999X-0.850001X-0.850001X0.850001X-0.850001X0.850001X0.850001X-0.850001X0.850001X0*%
%ADD23C,2.200000*%
%ADD24R,0.650000X0.850000*%
%ADD25RoundRect,0.062500X0.062500X0.212500X-0.062500X0.212500X-0.062500X-0.212500X0.062500X-0.212500X0*%
%ADD26R,0.800000X0.600000*%
%ADD27RoundRect,0.140000X0.170000X-0.140000X0.170000X0.140000X-0.170000X0.140000X-0.170000X-0.140000X0*%
%ADD28FreePoly0,270.000000*%
%ADD29FreePoly1,270.000000*%
%ADD30RoundRect,0.112500X-0.112500X-0.237500X0.112500X-0.237500X0.112500X0.237500X-0.112500X0.237500X0*%
%ADD31RoundRect,0.062500X-0.300000X-0.062500X0.300000X-0.062500X0.300000X0.062500X-0.300000X0.062500X0*%
%ADD32R,0.900000X1.600000*%
%ADD33RoundRect,0.100000X0.100000X-0.130000X0.100000X0.130000X-0.100000X0.130000X-0.100000X-0.130000X0*%
%ADD34RoundRect,0.102000X-2.250000X0.675000X-2.250000X-0.675000X2.250000X-0.675000X2.250000X0.675000X0*%
%ADD35RoundRect,0.150000X0.150000X-0.587500X0.150000X0.587500X-0.150000X0.587500X-0.150000X-0.587500X0*%
%ADD36RoundRect,0.100000X0.130000X0.100000X-0.130000X0.100000X-0.130000X-0.100000X0.130000X-0.100000X0*%
%ADD37RoundRect,0.147500X0.172500X-0.147500X0.172500X0.147500X-0.172500X0.147500X-0.172500X-0.147500X0*%
%ADD38RoundRect,0.100000X-0.100000X0.130000X-0.100000X-0.130000X0.100000X-0.130000X0.100000X0.130000X0*%
%ADD39RoundRect,0.140000X-0.140000X-0.170000X0.140000X-0.170000X0.140000X0.170000X-0.140000X0.170000X0*%
%ADD40RoundRect,0.250000X-0.650000X0.325000X-0.650000X-0.325000X0.650000X-0.325000X0.650000X0.325000X0*%
%ADD41RoundRect,0.250000X0.350000X0.625000X-0.350000X0.625000X-0.350000X-0.625000X0.350000X-0.625000X0*%
%ADD42O,1.200000X1.750000*%
%ADD43R,0.850000X0.650000*%
%ADD44C,4.700000*%
%ADD45RoundRect,0.140000X0.140000X0.170000X-0.140000X0.170000X-0.140000X-0.170000X0.140000X-0.170000X0*%
%ADD46RoundRect,0.150000X0.150000X-0.512500X0.150000X0.512500X-0.150000X0.512500X-0.150000X-0.512500X0*%
%ADD47C,0.990600*%
G04 APERTURE END LIST*
D10*
G36*
X95565287Y-34391983D02*
G01*
X95493404Y-34340015D01*
X95419352Y-34303811D01*
X95340787Y-34281837D01*
X95257663Y-34274441D01*
X95177184Y-34281433D01*
X95107066Y-34301502D01*
X95045389Y-34334085D01*
X94990767Y-34379710D01*
X94946350Y-34435273D01*
X94914467Y-34498202D01*
X94894759Y-34569919D01*
X94887880Y-34652346D01*
X94894518Y-34731977D01*
X94913619Y-34801976D01*
X94944649Y-34864071D01*
X94988019Y-34919548D01*
X95041414Y-34965614D01*
X95100446Y-34998121D01*
X95166292Y-35017918D01*
X95240627Y-35024755D01*
X95299256Y-35021225D01*
X95355486Y-35010756D01*
X95409766Y-34993370D01*
X95461626Y-34969366D01*
X95512938Y-34937906D01*
X95563944Y-34898359D01*
X95563944Y-35083373D01*
X95495380Y-35124647D01*
X95421062Y-35153899D01*
X95341727Y-35171185D01*
X95253572Y-35177163D01*
X95177719Y-35172849D01*
X95107206Y-35160232D01*
X95041325Y-35139610D01*
X94978879Y-35110514D01*
X94921964Y-35073699D01*
X94870050Y-35028846D01*
X94825144Y-34978299D01*
X94787736Y-34922113D01*
X94757576Y-34859708D01*
X94735872Y-34793759D01*
X94722754Y-34724800D01*
X94718314Y-34652224D01*
X94722770Y-34579657D01*
X94735916Y-34510949D01*
X94757637Y-34445472D01*
X94787811Y-34383522D01*
X94825638Y-34327067D01*
X94871454Y-34275601D01*
X94923735Y-34230267D01*
X94980527Y-34193165D01*
X95042302Y-34163921D01*
X95107543Y-34143016D01*
X95176828Y-34130281D01*
X95250825Y-34125941D01*
X95337503Y-34132325D01*
X95418986Y-34151160D01*
X95497015Y-34182487D01*
X95574202Y-34227547D01*
X95565287Y-34391983D01*
G37*
G36*
X96143549Y-34143468D02*
G01*
X96202464Y-34160131D01*
X96254385Y-34187185D01*
X96300459Y-34225050D01*
X96341308Y-34274991D01*
X96372291Y-34329314D01*
X96397792Y-34393978D01*
X96417259Y-34470631D01*
X96429816Y-34561163D01*
X96434303Y-34667672D01*
X96427332Y-34788914D01*
X96407943Y-34889604D01*
X96377911Y-34973013D01*
X96338255Y-35041913D01*
X96296252Y-35091285D01*
X96249627Y-35128636D01*
X96197804Y-35155223D01*
X96139749Y-35171517D01*
X96074045Y-35177163D01*
X96007470Y-35171431D01*
X95948969Y-35154927D01*
X95897049Y-35128053D01*
X95850625Y-35090358D01*
X95809103Y-35040570D01*
X95777323Y-34986223D01*
X95751335Y-34922256D01*
X95731617Y-34847190D01*
X95718962Y-34759319D01*
X95714547Y-34658757D01*
X95877124Y-34658757D01*
X95880957Y-34753036D01*
X95891438Y-34829314D01*
X95907247Y-34890410D01*
X95927377Y-34938843D01*
X95956837Y-34983474D01*
X95990089Y-35013143D01*
X96027715Y-35030534D01*
X96071297Y-35036479D01*
X96118252Y-35030481D01*
X96157892Y-35013169D01*
X96191996Y-34984147D01*
X96221324Y-34941224D01*
X96241222Y-34894060D01*
X96257046Y-34832902D01*
X96267659Y-34754711D01*
X96271577Y-34656071D01*
X96267764Y-34560551D01*
X96257374Y-34483816D01*
X96241769Y-34422863D01*
X96221995Y-34375008D01*
X96192936Y-34331013D01*
X96159738Y-34301623D01*
X96121776Y-34284299D01*
X96077403Y-34278349D01*
X96030869Y-34284371D01*
X95991396Y-34301801D01*
X95957242Y-34331124D01*
X95927683Y-34374642D01*
X95907585Y-34422327D01*
X95891670Y-34483602D01*
X95881037Y-34561337D01*
X95877124Y-34658757D01*
X95714547Y-34658757D01*
X95714459Y-34656742D01*
X95718988Y-34555186D01*
X95731734Y-34467937D01*
X95751634Y-34393155D01*
X95777919Y-34329192D01*
X95810141Y-34274624D01*
X95852086Y-34224657D01*
X95898831Y-34186849D01*
X95950962Y-34159918D01*
X96009549Y-34143397D01*
X96076060Y-34137665D01*
X96143549Y-34143468D01*
G37*
G36*
X103710764Y-47229581D02*
G01*
X103871414Y-47229581D01*
X103871414Y-47837440D01*
X103876010Y-47905890D01*
X103888666Y-47961071D01*
X103908155Y-48005404D01*
X103933941Y-48040833D01*
X103967254Y-48069373D01*
X104008321Y-48090485D01*
X104058805Y-48103991D01*
X104120908Y-48108855D01*
X104182643Y-48104000D01*
X104232900Y-48090509D01*
X104273855Y-48069399D01*
X104307144Y-48040833D01*
X104332957Y-48005400D01*
X104352464Y-47961065D01*
X104365132Y-47905885D01*
X104369731Y-47837440D01*
X104369731Y-47229581D01*
X104532397Y-47229581D01*
X104532397Y-47852461D01*
X104527563Y-47935858D01*
X104514029Y-48006111D01*
X104492908Y-48065226D01*
X104464823Y-48114906D01*
X104429876Y-48156482D01*
X104387809Y-48190741D01*
X104337434Y-48218367D01*
X104277368Y-48239200D01*
X104205871Y-48252574D01*
X104120908Y-48257355D01*
X104035890Y-48252581D01*
X103964456Y-48239236D01*
X103904547Y-48218466D01*
X103854399Y-48190948D01*
X103812613Y-48156849D01*
X103777954Y-48115439D01*
X103750062Y-48065833D01*
X103729056Y-48006674D01*
X103715580Y-47936228D01*
X103710764Y-47852461D01*
X103710764Y-47229581D01*
G37*
G36*
X104698848Y-48031980D02*
G01*
X104828785Y-47972079D01*
X104845022Y-48014034D01*
X104867534Y-48047490D01*
X104896441Y-48073806D01*
X104930866Y-48092701D01*
X104972246Y-48104611D01*
X105022226Y-48108855D01*
X105068967Y-48103989D01*
X105106700Y-48090359D01*
X105137386Y-48068494D01*
X105160780Y-48039108D01*
X105175081Y-48003620D01*
X105180129Y-47960233D01*
X105172829Y-47921721D01*
X105149617Y-47883546D01*
X105105821Y-47844066D01*
X105033827Y-47802758D01*
X105002381Y-47787676D01*
X104892969Y-47728643D01*
X104822979Y-47680469D01*
X104781891Y-47641313D01*
X104751635Y-47595028D01*
X104733255Y-47542233D01*
X104726875Y-47481151D01*
X104732356Y-47421139D01*
X104748106Y-47368916D01*
X104773770Y-47322977D01*
X104809918Y-47282276D01*
X104853469Y-47249695D01*
X104903414Y-47226053D01*
X104960955Y-47211310D01*
X105027660Y-47206133D01*
X105100479Y-47211335D01*
X105161561Y-47225937D01*
X105212918Y-47248937D01*
X105257775Y-47281850D01*
X105291860Y-47322461D01*
X105316172Y-47371852D01*
X105188982Y-47436699D01*
X105156233Y-47395080D01*
X105122976Y-47368433D01*
X105085011Y-47352363D01*
X105040666Y-47346817D01*
X104998161Y-47350984D01*
X104963990Y-47362600D01*
X104936374Y-47381072D01*
X104915147Y-47406117D01*
X104902296Y-47436177D01*
X104897784Y-47472786D01*
X104902854Y-47503652D01*
X104918892Y-47534984D01*
X104948578Y-47567964D01*
X104996208Y-47603269D01*
X105067349Y-47641130D01*
X105087866Y-47650717D01*
X105185346Y-47701171D01*
X105250647Y-47745503D01*
X105291564Y-47784439D01*
X105321886Y-47830657D01*
X105340453Y-47884358D01*
X105346946Y-47947533D01*
X105340897Y-48017529D01*
X105323676Y-48077366D01*
X105295947Y-48128930D01*
X105257370Y-48173579D01*
X105210419Y-48209184D01*
X105155530Y-48235208D01*
X105091178Y-48251569D01*
X105015387Y-48257355D01*
X104931963Y-48250275D01*
X104863059Y-48230430D01*
X104805887Y-48198981D01*
X104768963Y-48167075D01*
X104739000Y-48129163D01*
X104715599Y-48084503D01*
X104698848Y-48031980D01*
G37*
G36*
X105877416Y-47233062D02*
G01*
X105936060Y-47241304D01*
X105984740Y-47257142D01*
X106023927Y-47279773D01*
X106064923Y-47319161D01*
X106096039Y-47369898D01*
X106115125Y-47427792D01*
X106121685Y-47492936D01*
X106117258Y-47545477D01*
X106104742Y-47589786D01*
X106084743Y-47627391D01*
X106056930Y-47659292D01*
X106021601Y-47684319D01*
X105977398Y-47702679D01*
X106032456Y-47717888D01*
X106077780Y-47744137D01*
X106115151Y-47781875D01*
X106142433Y-47827924D01*
X106159407Y-47882373D01*
X106165404Y-47947288D01*
X106160060Y-48006513D01*
X106144216Y-48062144D01*
X106118336Y-48112811D01*
X106084071Y-48154590D01*
X106038582Y-48189638D01*
X105982161Y-48213025D01*
X105911026Y-48224831D01*
X105777791Y-48230000D01*
X105524206Y-48230000D01*
X105524206Y-48093224D01*
X105683452Y-48093224D01*
X105739506Y-48093224D01*
X105819574Y-48091229D01*
X105867367Y-48086446D01*
X105906876Y-48076551D01*
X105934351Y-48062693D01*
X105960932Y-48039787D01*
X105980818Y-48009876D01*
X105993059Y-47975307D01*
X105997243Y-47936664D01*
X105992081Y-47891447D01*
X105977398Y-47853988D01*
X105953444Y-47822718D01*
X105920673Y-47799033D01*
X105896300Y-47789228D01*
X105867672Y-47782119D01*
X105788721Y-47776685D01*
X105739506Y-47776685D01*
X105683452Y-47776685D01*
X105683452Y-48093224D01*
X105524206Y-48093224D01*
X105524206Y-47655540D01*
X105683452Y-47655540D01*
X105745673Y-47655540D01*
X105823419Y-47651019D01*
X105875974Y-47639548D01*
X105910048Y-47623545D01*
X105936001Y-47598529D01*
X105952287Y-47563746D01*
X105958286Y-47515772D01*
X105952526Y-47462670D01*
X105937263Y-47425418D01*
X105913834Y-47399757D01*
X105881815Y-47383336D01*
X105828711Y-47371239D01*
X105745673Y-47366357D01*
X105683452Y-47366357D01*
X105683452Y-47655540D01*
X105524206Y-47655540D01*
X105524206Y-47229581D01*
X105776448Y-47229581D01*
X105877416Y-47233062D01*
G37*
G36*
X98839855Y-52996769D02*
G01*
X98831001Y-52932472D01*
X98821415Y-52859993D01*
X98803952Y-52928381D01*
X98775619Y-52998112D01*
X98513791Y-53530195D01*
X98251963Y-52987182D01*
X98223569Y-52922214D01*
X98202748Y-52859993D01*
X98197619Y-52926000D01*
X98184307Y-52998112D01*
X98076963Y-53491117D01*
X97927242Y-53491117D01*
X98163791Y-52447711D01*
X98459081Y-53079506D01*
X98479902Y-53129393D01*
X98513791Y-53215550D01*
X98558915Y-53106190D01*
X98571188Y-53078835D01*
X98859700Y-52447711D01*
X99101684Y-53491117D01*
X98950619Y-53491117D01*
X98839855Y-52996769D01*
G37*
G36*
X99785564Y-52979183D02*
G01*
X100182031Y-52979183D01*
X100182702Y-53007882D01*
X100184778Y-53073522D01*
X100179335Y-53158867D01*
X100163873Y-53232793D01*
X100139307Y-53297005D01*
X100106002Y-53352921D01*
X100063756Y-53401601D01*
X100013855Y-53442034D01*
X99956131Y-53474172D01*
X99889409Y-53498041D01*
X99812182Y-53513140D01*
X99722671Y-53518472D01*
X99641248Y-53514188D01*
X99568455Y-53501889D01*
X99503219Y-53482202D01*
X99441544Y-53453867D01*
X99385452Y-53417494D01*
X99334386Y-53372720D01*
X99290837Y-53321755D01*
X99254552Y-53265145D01*
X99225332Y-53202299D01*
X99204411Y-53136115D01*
X99191720Y-53066504D01*
X99187413Y-52992861D01*
X99191847Y-52917872D01*
X99204809Y-52848307D01*
X99226003Y-52783423D01*
X99255850Y-52722167D01*
X99293885Y-52665989D01*
X99340553Y-52614407D01*
X99391972Y-52570417D01*
X99448968Y-52534000D01*
X99512134Y-52504925D01*
X99578670Y-52484142D01*
X99648650Y-52471531D01*
X99722671Y-52467250D01*
X99800565Y-52472303D01*
X99870715Y-52486904D01*
X99934246Y-52510543D01*
X99993215Y-52543815D01*
X100048577Y-52587644D01*
X100100698Y-52643105D01*
X99981752Y-52732987D01*
X99945877Y-52696191D01*
X99907898Y-52667003D01*
X99867568Y-52644754D01*
X99824329Y-52628869D01*
X99777170Y-52619110D01*
X99725419Y-52615750D01*
X99645617Y-52622680D01*
X99575920Y-52642590D01*
X99514454Y-52674946D01*
X99459866Y-52720286D01*
X99415462Y-52775527D01*
X99383581Y-52838196D01*
X99363865Y-52909728D01*
X99356978Y-52992067D01*
X99363887Y-53075865D01*
X99383645Y-53148552D01*
X99415539Y-53212107D01*
X99459866Y-53268001D01*
X99514525Y-53313913D01*
X99576223Y-53346680D01*
X99646347Y-53366853D01*
X99726823Y-53373880D01*
X99796894Y-53369241D01*
X99855629Y-53356247D01*
X99904895Y-53335879D01*
X99946214Y-53308545D01*
X99981067Y-53273096D01*
X100005739Y-53232383D01*
X100020902Y-53185357D01*
X100026204Y-53130431D01*
X100026204Y-53115959D01*
X99785564Y-53115959D01*
X99785564Y-52979183D01*
G37*
D11*
%TO.C,U9*%
X92320000Y-40240000D02*
X92770000Y-40240000D01*
X92320000Y-40690000D02*
X92320000Y-40240000D01*
X92320000Y-47460000D02*
X92320000Y-47010000D01*
X92770000Y-47460000D02*
X92320000Y-47460000D01*
X99090000Y-40240000D02*
X99540000Y-40240000D01*
X99540000Y-40240000D02*
X99540000Y-40690000D01*
X99540000Y-47010000D02*
X99540000Y-47460000D01*
X99540000Y-47460000D02*
X99090000Y-47460000D01*
X100520001Y-47480000D02*
X99840000Y-47480000D01*
X100180000Y-47010000D01*
X100520001Y-47480000D01*
G36*
X100520001Y-47480000D02*
G01*
X99840000Y-47480000D01*
X100180000Y-47010000D01*
X100520001Y-47480000D01*
G37*
%TO.C,C44*%
X103246013Y-51018830D02*
X103246013Y-51234502D01*
X103966013Y-51018830D02*
X103966013Y-51234502D01*
%TO.C,J10*%
X103563457Y-39884765D02*
X103563457Y-40934765D01*
X103563457Y-40934765D02*
X102573457Y-40934765D01*
X103563457Y-46104765D02*
X103563457Y-45054765D01*
X104713457Y-39884765D02*
X103563457Y-39884765D01*
X104713457Y-46104765D02*
X103563457Y-46104765D01*
X106683457Y-41054765D02*
X106683457Y-44934765D01*
%TO.C,U21*%
X100524444Y-54264248D02*
X100524444Y-52854248D01*
X102844444Y-54254248D02*
X102844444Y-52854248D01*
X100574444Y-54634248D02*
X100244444Y-54874248D01*
X100244444Y-54394248D01*
X100574444Y-54634248D01*
G36*
X100574444Y-54634248D02*
G01*
X100244444Y-54874248D01*
X100244444Y-54394248D01*
X100574444Y-54634248D01*
G37*
%TO.C,X2*%
X94915000Y-35652501D02*
X91495000Y-35652501D01*
X94915000Y-38572499D02*
X94915000Y-35652501D01*
%TO.C,J4*%
X90000000Y-58630000D02*
X90000000Y-65070000D01*
X90000000Y-58630000D02*
X98320000Y-58630000D01*
X90000000Y-59150000D02*
X98320000Y-59150000D01*
X90000000Y-64450000D02*
X90590000Y-64450000D01*
X90000000Y-65070000D02*
X90590000Y-65070000D01*
X92650000Y-64450000D02*
X93130000Y-64450000D01*
X92650000Y-65070000D02*
X93130000Y-65070000D01*
X95190000Y-64450000D02*
X95670000Y-64450000D01*
X95190000Y-65070000D02*
X95670000Y-65070000D01*
X97730000Y-64450000D02*
X98320000Y-64450000D01*
X97730000Y-65070000D02*
X98320000Y-65070000D01*
X98320000Y-58630000D02*
X98320000Y-65070000D01*
X92060000Y-66030000D02*
X91180000Y-66030000D01*
X91620000Y-65420000D01*
X92060000Y-66030000D01*
G36*
X92060000Y-66030000D02*
G01*
X91180000Y-66030000D01*
X91620000Y-65420000D01*
X92060000Y-66030000D01*
G37*
%TO.C,D4*%
X105265000Y-51465000D02*
X105265000Y-52615000D01*
X107165000Y-51015000D02*
X107165000Y-52615000D01*
%TO.C,U7*%
X95859384Y-51406703D02*
X95884384Y-51406703D01*
X95859384Y-53026703D02*
X95859384Y-51406703D01*
X95884384Y-53026703D02*
X95859384Y-53026703D01*
X97154384Y-51406703D02*
X97179384Y-51406703D01*
X97179384Y-51406703D02*
X97179384Y-52853850D01*
X97349384Y-53306703D02*
X97159384Y-53166703D01*
X97349384Y-53026703D01*
X97349384Y-53306703D01*
G36*
X97349384Y-53306703D02*
G01*
X97159384Y-53166703D01*
X97349384Y-53026703D01*
X97349384Y-53306703D01*
G37*
%TO.C,C24*%
X95417864Y-55282040D02*
X95417864Y-55066368D01*
X96137864Y-55282040D02*
X96137864Y-55066368D01*
%TO.C,JP2*%
X96908463Y-34177249D02*
X98908463Y-34177249D01*
X96908463Y-36977249D02*
X96908463Y-34177249D01*
X98908463Y-34177249D02*
X98908463Y-36977249D01*
X98908463Y-36977249D02*
X96908463Y-36977249D01*
%TO.C,D2*%
X100678101Y-49515521D02*
X101338101Y-49515521D01*
X100678101Y-50925521D02*
X100678101Y-49515521D01*
X102338101Y-49515521D02*
X102998101Y-49515521D01*
X102998101Y-50925521D02*
X102998101Y-49515521D01*
X100698101Y-51295521D02*
X100368101Y-51535521D01*
X100368101Y-51055521D01*
X100698101Y-51295521D01*
G36*
X100698101Y-51295521D02*
G01*
X100368101Y-51535521D01*
X100368101Y-51055521D01*
X100698101Y-51295521D01*
G37*
%TO.C,U12*%
X91651932Y-55855000D02*
X93487500Y-55855000D01*
X93487500Y-58125000D02*
X91267500Y-58125000D01*
X91357500Y-55850000D02*
X91217500Y-55660000D01*
X91497500Y-55660000D01*
X91357500Y-55850000D01*
G36*
X91357500Y-55850000D02*
G01*
X91217500Y-55660000D01*
X91497500Y-55660000D01*
X91357500Y-55850000D01*
G37*
%TO.C,C18*%
X101223341Y-46636463D02*
X101223341Y-46420791D01*
X101943341Y-46636463D02*
X101943341Y-46420791D01*
D12*
%TO.C,U11*%
X99420000Y-30820000D02*
X100600000Y-30820000D01*
X99420000Y-38320000D02*
X99420000Y-30820000D01*
X100600000Y-38320000D02*
X99420000Y-38320000D01*
X103170000Y-28820000D02*
X103170000Y-29820000D01*
X103170000Y-39320000D02*
X103170000Y-40320000D01*
X103670000Y-29320000D02*
X102670000Y-29320000D01*
X105740000Y-30820000D02*
X106920000Y-30820000D01*
X106920000Y-30820000D02*
X106920000Y-38320000D01*
X106920000Y-38320000D02*
X105740000Y-38320000D01*
D11*
%TO.C,Q2*%
X90540000Y-53012500D02*
X91540000Y-53012500D01*
X90540000Y-54532500D02*
X90540000Y-53012500D01*
X90590000Y-54532500D02*
X90540000Y-54532500D01*
X92490000Y-54532500D02*
X91710000Y-54532500D01*
X92660000Y-53012500D02*
X93660000Y-53012500D01*
X93660000Y-53012500D02*
X93660000Y-54532500D01*
X93660000Y-54532500D02*
X93610000Y-54532500D01*
X92050000Y-55312500D02*
X91720000Y-55072500D01*
X92050000Y-54832500D01*
X92050000Y-55312500D01*
G36*
X92050000Y-55312500D02*
G01*
X91720000Y-55072500D01*
X92050000Y-54832500D01*
X92050000Y-55312500D01*
G37*
%TO.C,C5*%
X90608739Y-37312564D02*
X90608739Y-37528236D01*
X91328739Y-37312564D02*
X91328739Y-37528236D01*
%TO.C,C46*%
X96686393Y-37849598D02*
X96902065Y-37849598D01*
X96686393Y-38569598D02*
X96902065Y-38569598D01*
%TO.C,C6*%
X95100000Y-36267836D02*
X95100000Y-36052164D01*
X95820000Y-36267836D02*
X95820000Y-36052164D01*
%TO.C,D5*%
X90175000Y-50225000D02*
X90175000Y-48625000D01*
X92075000Y-49775000D02*
X92075000Y-48625000D01*
%TO.C,C23*%
X99924290Y-56845474D02*
X99924290Y-58267978D01*
X101744290Y-56845474D02*
X101744290Y-58267978D01*
%TO.C,J6*%
X99120000Y-60340000D02*
X99120000Y-65060000D01*
X99120000Y-62450000D02*
X99730000Y-62450000D01*
X99120000Y-63750000D02*
X99730000Y-63750000D01*
X99120000Y-65060000D02*
X105240000Y-65060000D01*
X99730000Y-60950000D02*
X99730000Y-64450000D01*
X99730000Y-64450000D02*
X101680000Y-64450000D01*
X101680000Y-64450000D02*
X101680000Y-65060000D01*
X102080000Y-61450000D02*
X102080000Y-60950000D01*
X102180000Y-60950000D02*
X102180000Y-61450000D01*
X102280000Y-60950000D02*
X102280000Y-61450000D01*
X102280000Y-61450000D02*
X102080000Y-61450000D01*
X102680000Y-64450000D02*
X104630000Y-64450000D01*
X102680000Y-65060000D02*
X102680000Y-64450000D01*
X103480000Y-65060000D02*
X103480000Y-65260000D01*
X103480000Y-65160000D02*
X103780000Y-65160000D01*
X103480000Y-65260000D02*
X103780000Y-65260000D01*
X103780000Y-65260000D02*
X103780000Y-65060000D01*
X104290000Y-65360000D02*
X105540000Y-65360000D01*
X104630000Y-60950000D02*
X99730000Y-60950000D01*
X104630000Y-64450000D02*
X104630000Y-60950000D01*
X105240000Y-60340000D02*
X99120000Y-60340000D01*
X105240000Y-62450000D02*
X104630000Y-62450000D01*
X105240000Y-63750000D02*
X104630000Y-63750000D01*
X105240000Y-65060000D02*
X105240000Y-60340000D01*
X105540000Y-65360000D02*
X105540000Y-64110000D01*
%TO.C,D3*%
X96921470Y-30392058D02*
X98521470Y-30392058D01*
X97371470Y-32292058D02*
X98521470Y-32292058D01*
%TO.C,JP1*%
X97982135Y-49386405D02*
X99982135Y-49386405D01*
X97982135Y-52186405D02*
X97982135Y-49386405D01*
X99982135Y-49386405D02*
X99982135Y-52186405D01*
X99982135Y-52186405D02*
X97982135Y-52186405D01*
%TO.C,C16*%
X95729166Y-49160756D02*
X95513494Y-49160756D01*
X95729166Y-49880756D02*
X95513494Y-49880756D01*
%TO.C,C17*%
X101190000Y-42742164D02*
X101190000Y-42957836D01*
X101910000Y-42742164D02*
X101910000Y-42957836D01*
%TO.C,C45*%
X96629398Y-50053530D02*
X96629398Y-49837858D01*
X97349398Y-50053530D02*
X97349398Y-49837858D01*
%TO.C,U18*%
X96403197Y-55225398D02*
X96453197Y-55225398D01*
X96403197Y-57045398D02*
X96403197Y-55225398D01*
X96453197Y-57045398D02*
X96403197Y-57045398D01*
X97573197Y-55225398D02*
X98353197Y-55225398D01*
X99473197Y-55225398D02*
X99523197Y-55225398D01*
X99523197Y-55225398D02*
X99523197Y-57045398D01*
X99523197Y-57045398D02*
X99473197Y-57045398D01*
X96453197Y-57585398D02*
X96123197Y-57825398D01*
X96123197Y-57345398D01*
X96453197Y-57585398D01*
G36*
X96453197Y-57585398D02*
G01*
X96123197Y-57825398D01*
X96123197Y-57345398D01*
X96453197Y-57585398D01*
G37*
%TO.C,C19*%
X91012164Y-47130000D02*
X91227836Y-47130000D01*
X91012164Y-47850000D02*
X91227836Y-47850000D01*
%TD*%
%LPC*%
%TO.C,JP2*%
G36*
X98658463Y-34352249D02*
G01*
X97158463Y-34352249D01*
X97158463Y-36802249D01*
X98658463Y-36802249D01*
X98658463Y-34352249D01*
G37*
%TO.C,JP1*%
G36*
X99732135Y-49561405D02*
G01*
X98232135Y-49561405D01*
X98232135Y-52011405D01*
X99732135Y-52011405D01*
X99732135Y-49561405D01*
G37*
%TD*%
D13*
%TO.C,U9*%
X100092500Y-46600000D03*
X100092500Y-46100000D03*
X100092500Y-45600000D03*
X100092500Y-45099999D03*
X100092500Y-44600000D03*
X100092500Y-44100000D03*
X100092500Y-43600000D03*
X100092500Y-43100000D03*
X100092500Y-42600001D03*
X100092500Y-42100000D03*
X100092500Y-41600000D03*
X100092500Y-41100000D03*
D14*
X98680000Y-39687500D03*
X98180000Y-39687500D03*
X97680000Y-39687500D03*
X97179999Y-39687500D03*
X96680000Y-39687500D03*
X96180000Y-39687500D03*
X95680000Y-39687500D03*
X95180000Y-39687500D03*
X94680001Y-39687500D03*
X94180000Y-39687500D03*
X93680000Y-39687500D03*
X93180000Y-39687500D03*
D13*
X91767500Y-41100000D03*
X91767500Y-41600000D03*
X91767500Y-42100000D03*
X91767500Y-42600001D03*
X91767500Y-43100000D03*
X91767500Y-43600000D03*
X91767500Y-44100000D03*
X91767500Y-44600000D03*
X91767500Y-45099999D03*
X91767500Y-45600000D03*
X91767500Y-46100000D03*
X91767500Y-46600000D03*
D14*
X93180000Y-48012500D03*
X93680000Y-48012500D03*
X94180000Y-48012500D03*
X94680001Y-48012500D03*
X95180000Y-48012500D03*
X95680000Y-48012500D03*
X96180000Y-48012500D03*
X96680000Y-48012500D03*
X97179999Y-48012500D03*
X97680000Y-48012500D03*
X98180000Y-48012500D03*
X98680000Y-48012500D03*
%TD*%
D15*
%TO.C,C44*%
X103606013Y-50646666D03*
X103606013Y-51606666D03*
%TD*%
D16*
%TO.C,J10*%
X103348457Y-41494765D03*
X103348457Y-42494765D03*
X103348457Y-43494765D03*
X103348457Y-44494765D03*
D17*
X105873457Y-40194765D03*
X105873457Y-45794765D03*
%TD*%
D18*
%TO.C,U21*%
X101034444Y-54504248D03*
X101684444Y-54504248D03*
X102334444Y-54504248D03*
X102334444Y-52604248D03*
X101034444Y-52604248D03*
%TD*%
D19*
%TO.C,R50*%
X93307843Y-50747973D03*
X93947843Y-50747973D03*
%TD*%
D20*
%TO.C,X2*%
X94080000Y-36412500D03*
X92330000Y-36412500D03*
X92330000Y-37812500D03*
X94080000Y-37812500D03*
%TD*%
D21*
%TO.C,J4*%
X91620000Y-64390000D03*
X94160000Y-64390000D03*
X96700000Y-64390000D03*
D22*
X91620000Y-61850000D03*
D23*
X94160000Y-61850000D03*
X96700000Y-61850000D03*
%TD*%
D24*
%TO.C,D4*%
X105790000Y-51090000D03*
X106640000Y-51090000D03*
X105790000Y-52540000D03*
X106640000Y-52540000D03*
%TD*%
D25*
%TO.C,U7*%
X96769384Y-52991703D03*
X96769384Y-51441703D03*
X96269384Y-51441703D03*
X96269384Y-52991703D03*
D26*
X96519384Y-52216703D03*
%TD*%
D27*
%TO.C,C24*%
X95777864Y-55654204D03*
X95777864Y-54694204D03*
%TD*%
D28*
%TO.C,JP2*%
X97908463Y-34852249D03*
D29*
X97908463Y-36302249D03*
%TD*%
D30*
%TO.C,D2*%
X101188101Y-51245521D03*
X102488101Y-51245521D03*
X101838101Y-49245521D03*
%TD*%
D31*
%TO.C,U12*%
X91365000Y-56240000D03*
X91365000Y-56740000D03*
X91365000Y-57240000D03*
X91365000Y-57740000D03*
X93390000Y-57740000D03*
X93390000Y-57240000D03*
X93390000Y-56740000D03*
X93390000Y-56240000D03*
D32*
X92377500Y-56990000D03*
%TD*%
D33*
%TO.C,R40*%
X95901699Y-57119488D03*
X95901699Y-56479488D03*
%TD*%
D27*
%TO.C,C18*%
X101583341Y-47008627D03*
X101583341Y-46048627D03*
%TD*%
D33*
%TO.C,R49*%
X105993881Y-64715654D03*
X105993881Y-64075654D03*
%TD*%
D34*
%TO.C,U11*%
X103170000Y-38145000D03*
X103170000Y-30995000D03*
%TD*%
D35*
%TO.C,Q2*%
X91150000Y-54710000D03*
X93050000Y-54710000D03*
X92100000Y-52835000D03*
%TD*%
D33*
%TO.C,R42*%
X94925228Y-55685326D03*
X94925228Y-55045326D03*
%TD*%
D36*
%TO.C,R51*%
X93940000Y-51460000D03*
X93300000Y-51460000D03*
%TD*%
D15*
%TO.C,C5*%
X90968739Y-36940400D03*
X90968739Y-37900400D03*
%TD*%
D37*
%TO.C,FB1*%
X101567084Y-45168850D03*
X101567084Y-44198850D03*
%TD*%
D38*
%TO.C,R2*%
X96064052Y-32792843D03*
X96064052Y-33432843D03*
%TD*%
D39*
%TO.C,C46*%
X96314229Y-38209598D03*
X97274229Y-38209598D03*
%TD*%
D27*
%TO.C,C6*%
X95460000Y-36640000D03*
X95460000Y-35680000D03*
%TD*%
D33*
%TO.C,R53*%
X106000000Y-63265000D03*
X106000000Y-62625000D03*
%TD*%
D24*
%TO.C,D5*%
X91550000Y-50150000D03*
X90700000Y-50150000D03*
X91550000Y-48700000D03*
X90700000Y-48700000D03*
%TD*%
D40*
%TO.C,C23*%
X100834290Y-56081725D03*
X100834290Y-59031727D03*
%TD*%
D41*
%TO.C,J6*%
X103180000Y-63250000D03*
D42*
X101180000Y-63250000D03*
%TD*%
D43*
%TO.C,D3*%
X96996470Y-31767058D03*
X96996470Y-30917058D03*
X98446470Y-31767058D03*
X98446470Y-30917058D03*
%TD*%
D19*
%TO.C,R43*%
X94501862Y-56446928D03*
X95141862Y-56446928D03*
%TD*%
%TO.C,R41*%
X95420315Y-57874684D03*
X96060315Y-57874684D03*
%TD*%
D28*
%TO.C,JP1*%
X98982135Y-50061405D03*
D29*
X98982135Y-51511405D03*
%TD*%
D38*
%TO.C,C22*%
X99855510Y-54056111D03*
X99855510Y-54696111D03*
%TD*%
D44*
%TO.C,H2*%
X92600000Y-32600000D03*
%TD*%
D45*
%TO.C,C16*%
X96101330Y-49520756D03*
X95141330Y-49520756D03*
%TD*%
D15*
%TO.C,C17*%
X101550000Y-42370000D03*
X101550000Y-43330000D03*
%TD*%
D38*
%TO.C,R55*%
X102460000Y-47510000D03*
X102460000Y-48150000D03*
%TD*%
D27*
%TO.C,C45*%
X96989398Y-50425694D03*
X96989398Y-49465694D03*
%TD*%
D46*
%TO.C,U18*%
X97013197Y-57272898D03*
X97963197Y-57272898D03*
X98913197Y-57272898D03*
X98913197Y-54997898D03*
X97013197Y-54997898D03*
%TD*%
D38*
%TO.C,R3*%
X96768627Y-32784923D03*
X96768627Y-33424923D03*
%TD*%
D39*
%TO.C,C19*%
X90640000Y-47490000D03*
X91600000Y-47490000D03*
%TD*%
D44*
%TO.C,H1*%
X104600000Y-57350000D03*
%TD*%
D47*
%TO.C,J1*%
X105265000Y-54320000D03*
X104249000Y-49240000D03*
X106281000Y-49240000D03*
%TD*%
%LPD*%
M02*
