%TF.GenerationSoftware,KiCad,Pcbnew,9.0.2*%
%TF.CreationDate,2025-12-22T17:06:25+08:00*%
%TF.ProjectId,OshEasyMini,4f736845-6173-4794-9d69-6e692e6b6963,rev?*%
%TF.SameCoordinates,Original*%
%TF.FileFunction,Legend,Bot*%
%TF.FilePolarity,Positive*%
%FSLAX46Y46*%
G04 Gerber Fmt 4.6, Leading zero omitted, Abs format (unit mm)*
G04 Created by KiCad (PCBNEW 9.0.2) date 2025-12-22 17:06:25*
%MOMM*%
%LPD*%
G01*
G04 APERTURE LIST*
G04 Aperture macros list*
%AMRoundRect*
0 Rectangle with rounded corners*
0 $1 Rounding radius*
0 $2 $3 $4 $5 $6 $7 $8 $9 X,Y pos of 4 corners*
0 Add a 4 corners polygon primitive as box body*
4,1,4,$2,$3,$4,$5,$6,$7,$8,$9,$2,$3,0*
0 Add four circle primitives for the rounded corners*
1,1,$1+$1,$2,$3*
1,1,$1+$1,$4,$5*
1,1,$1+$1,$6,$7*
1,1,$1+$1,$8,$9*
0 Add four rect primitives between the rounded corners*
20,1,$1+$1,$2,$3,$4,$5,0*
20,1,$1+$1,$4,$5,$6,$7,0*
20,1,$1+$1,$6,$7,$8,$9,0*
20,1,$1+$1,$8,$9,$2,$3,0*%
%AMFreePoly0*
4,1,17,1.515000,0.170000,0.915000,0.170000,0.915000,-0.080000,1.515000,-0.080000,1.515000,-0.480000,0.915000,-0.480000,0.915000,-0.505000,-0.395000,-0.505000,-0.395000,-1.005000,-0.825000,-1.005000,-0.825000,-0.625000,-0.915000,-0.625000,-0.915000,0.505000,0.815000,0.505000,0.815000,0.570000,1.515000,0.570000,1.515000,0.170000,1.515000,0.170000,$1*%
%AMFreePoly1*
4,1,17,-0.395000,0.505000,0.915000,0.505000,0.915000,0.480000,1.515000,0.480000,1.515000,0.080000,0.915000,0.080000,0.915000,-0.170000,1.515000,-0.170000,1.515000,-0.570000,0.815000,-0.570000,0.815000,-0.505000,-0.915000,-0.505000,-0.915000,0.625000,-0.825000,0.625000,-0.825000,1.005000,-0.395000,1.005000,-0.395000,0.505000,-0.395000,0.505000,$1*%
%AMFreePoly2*
4,1,15,1.100000,0.175000,0.750000,0.175000,0.750000,-0.175000,1.100000,-0.175000,1.100000,-0.475000,0.750000,-0.475000,-0.750000,-0.475000,-1.100000,-0.475000,-1.100000,-0.175000,-0.750000,-0.175000,-0.750000,0.175000,-1.100000,0.175000,-1.100000,0.475000,1.100000,0.475000,1.100000,0.175000,1.100000,0.175000,$1*%
G04 Aperture macros list end*
%ADD10C,0.150000*%
%ADD11C,0.300000*%
%ADD12C,0.120000*%
%ADD13C,0.100000*%
%ADD14C,0.152400*%
%ADD15R,2.000000X5.080000*%
%ADD16R,1.400000X5.080000*%
%ADD17C,1.100000*%
%ADD18RoundRect,0.249999X-0.850001X-0.850001X0.850001X-0.850001X0.850001X0.850001X-0.850001X0.850001X0*%
%ADD19C,2.200000*%
%ADD20RoundRect,0.250000X0.350000X0.625000X-0.350000X0.625000X-0.350000X-0.625000X0.350000X-0.625000X0*%
%ADD21O,1.200000X1.750000*%
%ADD22C,4.700000*%
%ADD23RoundRect,0.140000X0.140000X0.170000X-0.140000X0.170000X-0.140000X-0.170000X0.140000X-0.170000X0*%
%ADD24RoundRect,0.150000X0.150000X0.450000X-0.150000X0.450000X-0.150000X-0.450000X0.150000X-0.450000X0*%
%ADD25RoundRect,0.100000X0.100000X-0.130000X0.100000X0.130000X-0.100000X0.130000X-0.100000X-0.130000X0*%
%ADD26RoundRect,0.135000X-0.185000X0.135000X-0.185000X-0.135000X0.185000X-0.135000X0.185000X0.135000X0*%
%ADD27RoundRect,0.135000X0.185000X-0.135000X0.185000X0.135000X-0.185000X0.135000X-0.185000X-0.135000X0*%
%ADD28RoundRect,0.140000X0.170000X-0.140000X0.170000X0.140000X-0.170000X0.140000X-0.170000X-0.140000X0*%
%ADD29R,0.550000X0.950000*%
%ADD30RoundRect,0.140000X-0.140000X-0.170000X0.140000X-0.170000X0.140000X0.170000X-0.140000X0.170000X0*%
%ADD31RoundRect,0.100000X-0.100000X0.130000X-0.100000X-0.130000X0.100000X-0.130000X0.100000X0.130000X0*%
%ADD32RoundRect,0.147500X0.172500X-0.147500X0.172500X0.147500X-0.172500X0.147500X-0.172500X-0.147500X0*%
%ADD33RoundRect,0.100000X-0.400000X0.400000X-0.400000X-0.400000X0.400000X-0.400000X0.400000X0.400000X0*%
%ADD34RoundRect,0.105000X-0.995000X0.420000X-0.995000X-0.420000X0.995000X-0.420000X0.995000X0.420000X0*%
%ADD35RoundRect,0.100000X0.130000X0.100000X-0.130000X0.100000X-0.130000X-0.100000X0.130000X-0.100000X0*%
%ADD36RoundRect,0.140000X-0.170000X0.140000X-0.170000X-0.140000X0.170000X-0.140000X0.170000X0.140000X0*%
%ADD37RoundRect,0.147500X0.147500X0.172500X-0.147500X0.172500X-0.147500X-0.172500X0.147500X-0.172500X0*%
%ADD38RoundRect,0.147500X-0.147500X-0.172500X0.147500X-0.172500X0.147500X0.172500X-0.147500X0.172500X0*%
%ADD39R,0.304800X0.762000*%
%ADD40R,3.098800X2.387600*%
%ADD41R,0.350000X0.760000*%
%ADD42FreePoly0,270.000000*%
%ADD43FreePoly1,270.000000*%
%ADD44RoundRect,0.150000X-0.150000X0.512500X-0.150000X-0.512500X0.150000X-0.512500X0.150000X0.512500X0*%
%ADD45FreePoly2,180.000000*%
%ADD46RoundRect,0.075000X0.100000X0.075000X-0.100000X0.075000X-0.100000X-0.075000X0.100000X-0.075000X0*%
%ADD47RoundRect,0.058750X0.376250X0.058750X-0.376250X0.058750X-0.376250X-0.058750X0.376250X-0.058750X0*%
%ADD48RoundRect,0.150000X0.325000X0.150000X-0.325000X0.150000X-0.325000X-0.150000X0.325000X-0.150000X0*%
%ADD49RoundRect,0.150000X0.150000X0.325000X-0.150000X0.325000X-0.150000X-0.325000X0.150000X-0.325000X0*%
%ADD50RoundRect,0.150000X-0.587500X-0.150000X0.587500X-0.150000X0.587500X0.150000X-0.587500X0.150000X0*%
%ADD51RoundRect,0.100000X-0.130000X-0.100000X0.130000X-0.100000X0.130000X0.100000X-0.130000X0.100000X0*%
%ADD52C,0.370000*%
%ADD53C,0.990600*%
%ADD54C,0.787400*%
%ADD55RoundRect,0.150000X0.150000X-0.512500X0.150000X0.512500X-0.150000X0.512500X-0.150000X-0.512500X0*%
%ADD56R,0.900000X0.800000*%
%ADD57RoundRect,0.062500X-0.375000X-0.062500X0.375000X-0.062500X0.375000X0.062500X-0.375000X0.062500X0*%
%ADD58RoundRect,0.062500X-0.062500X-0.375000X0.062500X-0.375000X0.062500X0.375000X-0.062500X0.375000X0*%
%ADD59R,3.450000X3.450000*%
%ADD60FreePoly2,0.000000*%
%ADD61RoundRect,0.075000X-0.100000X-0.075000X0.100000X-0.075000X0.100000X0.075000X-0.100000X0.075000X0*%
%ADD62RoundRect,0.058750X-0.376250X-0.058750X0.376250X-0.058750X0.376250X0.058750X-0.376250X0.058750X0*%
G04 APERTURE END LIST*
D10*
G36*
X98530000Y-56814855D02*
G01*
X97529581Y-56814855D01*
X97529581Y-56977520D01*
X98385408Y-56977520D01*
X98385408Y-57341198D01*
X98530000Y-57341198D01*
X98530000Y-56814855D01*
G37*
G36*
X98530000Y-57727346D02*
G01*
X97666357Y-57727346D01*
X97666357Y-57520167D01*
X97537397Y-57583060D01*
X97537397Y-57875662D01*
X98530000Y-57875662D01*
X98530000Y-57727346D01*
G37*
G36*
X105330000Y-30549720D02*
G01*
X105072079Y-30665919D01*
X105072079Y-31062386D01*
X105330000Y-31175898D01*
X105330000Y-31347479D01*
X104293519Y-30864855D01*
X104594829Y-30864855D01*
X104657843Y-30883967D01*
X104707913Y-30902468D01*
X104935303Y-31004989D01*
X104935303Y-30726064D01*
X104707913Y-30828585D01*
X104655828Y-30847391D01*
X104594829Y-30864855D01*
X104293519Y-30864855D01*
X104290502Y-30863450D01*
X105330000Y-30378811D01*
X105330000Y-30549720D01*
G37*
G36*
X105330000Y-31441024D02*
G01*
X104290502Y-31441024D01*
X104901536Y-32076727D01*
X104956919Y-32129361D01*
X105023169Y-32185476D01*
X104329581Y-32185476D01*
X104329581Y-32335807D01*
X105369078Y-32335807D01*
X104746442Y-31687098D01*
X104693136Y-31636845D01*
X104634335Y-31590744D01*
X105330000Y-31590744D01*
X105330000Y-31441024D01*
G37*
G36*
X104466357Y-32888834D02*
G01*
X105330000Y-32888834D01*
X105330000Y-32726168D01*
X104466357Y-32726168D01*
X104466357Y-32460249D01*
X104329581Y-32460249D01*
X104329581Y-33153410D01*
X104466357Y-33153410D01*
X104466357Y-32888834D01*
G37*
G36*
X104333489Y-33788381D02*
G01*
X104333489Y-33937369D01*
X104716461Y-34275767D01*
X104716461Y-34134289D01*
X104445474Y-33862875D01*
X104716461Y-33590116D01*
X104716461Y-33448639D01*
X104333489Y-33788381D01*
G37*
G36*
X96468946Y-46055652D02*
G01*
X96477800Y-45991355D01*
X96487386Y-45918876D01*
X96504849Y-45987264D01*
X96533182Y-46056995D01*
X96795010Y-46589078D01*
X97056838Y-46046065D01*
X97085232Y-45981097D01*
X97106053Y-45918876D01*
X97111182Y-45984883D01*
X97124494Y-46056995D01*
X97231838Y-46550000D01*
X97381559Y-46550000D01*
X97145010Y-45506594D01*
X96849720Y-46138389D01*
X96828899Y-46188276D01*
X96795010Y-46274433D01*
X96749886Y-46165073D01*
X96737613Y-46137718D01*
X96449101Y-45506594D01*
X96207117Y-46550000D01*
X96358182Y-46550000D01*
X96468946Y-46055652D01*
G37*
G36*
X95870651Y-45884334D02*
G01*
X95934876Y-45903018D01*
X95991730Y-45933467D01*
X96042437Y-45976273D01*
X96083711Y-46028203D01*
X96113240Y-46086502D01*
X96131426Y-46152408D01*
X96137752Y-46227599D01*
X96131461Y-46306356D01*
X96113585Y-46373765D01*
X96084959Y-46431824D01*
X96045490Y-46482039D01*
X95996492Y-46522987D01*
X95939880Y-46552518D01*
X95874172Y-46570894D01*
X95797339Y-46577355D01*
X95726215Y-46571703D01*
X95663588Y-46555452D01*
X95607990Y-46529117D01*
X95558439Y-46492571D01*
X95513374Y-46444232D01*
X95472618Y-46382327D01*
X95597732Y-46311618D01*
X95624233Y-46354763D01*
X95652029Y-46386991D01*
X95681140Y-46410109D01*
X95714306Y-46426531D01*
X95753721Y-46436895D01*
X95800758Y-46440579D01*
X95852302Y-46434511D01*
X95894672Y-46417274D01*
X95929963Y-46388982D01*
X95956567Y-46351819D01*
X95974825Y-46304734D01*
X95983941Y-46245184D01*
X95465779Y-46245184D01*
X95465779Y-46216669D01*
X95471379Y-46143579D01*
X95619591Y-46143579D01*
X95974415Y-46143579D01*
X95958751Y-46098552D01*
X95937927Y-46063953D01*
X95912194Y-46037883D01*
X95880802Y-46019072D01*
X95842212Y-46007168D01*
X95794591Y-46002896D01*
X95744260Y-46007364D01*
X95704455Y-46019678D01*
X95672958Y-46038921D01*
X95647869Y-46065710D01*
X95630018Y-46099980D01*
X95619591Y-46143579D01*
X95471379Y-46143579D01*
X95471909Y-46136668D01*
X95489118Y-46069865D01*
X95516297Y-46013908D01*
X95553279Y-45966992D01*
X95599576Y-45929128D01*
X95654453Y-45901467D01*
X95719617Y-45884035D01*
X95797339Y-45877843D01*
X95870651Y-45884334D01*
G37*
G36*
X95277407Y-46550000D02*
G01*
X95277407Y-46030251D01*
X95390858Y-46030251D01*
X95390858Y-45901290D01*
X95277407Y-45901290D01*
X95277407Y-45655094D01*
X95129030Y-45655094D01*
X95129030Y-45901290D01*
X95015579Y-45901290D01*
X95015579Y-46030251D01*
X95129030Y-46030251D01*
X95129030Y-46550000D01*
X95277407Y-46550000D01*
G37*
G36*
X94739890Y-46004117D02*
G01*
X94721099Y-45962811D01*
X94699971Y-45931616D01*
X94676692Y-45908740D01*
X94649034Y-45891869D01*
X94616923Y-45881482D01*
X94579239Y-45877843D01*
X94548106Y-45879857D01*
X94517445Y-45885903D01*
X94457606Y-45909351D01*
X94510912Y-46033548D01*
X94530844Y-46021606D01*
X94552250Y-46013337D01*
X94601831Y-46006803D01*
X94647526Y-46013765D01*
X94681889Y-46033295D01*
X94707772Y-46066093D01*
X94723751Y-46107401D01*
X94735322Y-46171103D01*
X94739890Y-46265029D01*
X94739890Y-46550000D01*
X94888267Y-46550000D01*
X94888267Y-45901290D01*
X94739890Y-45901290D01*
X94739890Y-46004117D01*
G37*
G36*
X94229849Y-45901290D02*
G01*
X94229849Y-46267533D01*
X94224638Y-46329610D01*
X94211017Y-46373285D01*
X94190893Y-46403332D01*
X94162108Y-46424875D01*
X94121327Y-46439114D01*
X94064436Y-46444487D01*
X94007502Y-46439113D01*
X93966704Y-46424872D01*
X93937918Y-46403332D01*
X93917794Y-46373285D01*
X93904173Y-46329610D01*
X93898961Y-46267533D01*
X93898961Y-45901290D01*
X93750645Y-45901290D01*
X93750645Y-46222958D01*
X93756380Y-46318348D01*
X93771884Y-46392581D01*
X93795186Y-46449744D01*
X93825200Y-46493213D01*
X93864987Y-46528024D01*
X93916002Y-46554158D01*
X93980868Y-46571149D01*
X94063032Y-46577355D01*
X94146783Y-46571151D01*
X94212543Y-46554218D01*
X94263917Y-46528279D01*
X94303672Y-46493885D01*
X94333591Y-46450747D01*
X94356876Y-46393665D01*
X94372409Y-46319146D01*
X94378166Y-46222958D01*
X94378166Y-45901290D01*
X94229849Y-45901290D01*
G37*
G36*
X93402416Y-46550000D02*
G01*
X93550793Y-46550000D01*
X93550793Y-45901290D01*
X93411331Y-45901290D01*
X93411331Y-46006987D01*
X93379060Y-45964684D01*
X93345507Y-45932412D01*
X93310519Y-45908801D01*
X93271788Y-45891972D01*
X93227796Y-45881502D01*
X93177529Y-45877843D01*
X93127777Y-45881686D01*
X93086351Y-45892463D01*
X93051744Y-45909473D01*
X93021785Y-45933509D01*
X92996523Y-45965131D01*
X92975846Y-46005643D01*
X92939341Y-45963610D01*
X92903079Y-45931667D01*
X92866852Y-45908435D01*
X92827312Y-45891684D01*
X92783713Y-45881395D01*
X92735266Y-45877843D01*
X92673818Y-45884013D01*
X92623159Y-45901413D01*
X92580508Y-45930379D01*
X92548665Y-45969923D01*
X92538198Y-45992464D01*
X92530530Y-46020420D01*
X92526408Y-46052880D01*
X92524729Y-46104256D01*
X92524729Y-46156280D01*
X92524729Y-46550000D01*
X92673046Y-46550000D01*
X92673046Y-46216547D01*
X92677282Y-46127952D01*
X92687503Y-46074259D01*
X92700767Y-46044356D01*
X92722498Y-46022352D01*
X92754174Y-46008210D01*
X92799502Y-46002896D01*
X92842702Y-46006886D01*
X92876682Y-46017877D01*
X92903424Y-46035086D01*
X92924249Y-46058705D01*
X92942769Y-46098278D01*
X92956175Y-46160592D01*
X92961496Y-46254221D01*
X92961496Y-46550000D01*
X93111217Y-46550000D01*
X93111217Y-46216547D01*
X93115433Y-46135472D01*
X93125960Y-46082397D01*
X93140282Y-46049485D01*
X93163272Y-46024374D01*
X93195551Y-46008679D01*
X93240422Y-46002896D01*
X93282554Y-46007925D01*
X93320411Y-46022740D01*
X93352903Y-46046392D01*
X93377808Y-46077512D01*
X93389157Y-46101902D01*
X93396981Y-46133016D01*
X93400718Y-46172783D01*
X93402416Y-46254221D01*
X93402416Y-46550000D01*
G37*
G36*
X92311566Y-46550000D02*
G01*
X92311566Y-45549581D01*
X92148900Y-45549581D01*
X92148900Y-46550000D01*
X92311566Y-46550000D01*
G37*
G36*
X91592393Y-45686357D02*
G01*
X91592393Y-46550000D01*
X91755059Y-46550000D01*
X91755059Y-45686357D01*
X92020978Y-45686357D01*
X92020978Y-45549581D01*
X91327817Y-45549581D01*
X91327817Y-45686357D01*
X91592393Y-45686357D01*
G37*
G36*
X91318353Y-46550000D02*
G01*
X90993632Y-46026526D01*
X91280739Y-45549581D01*
X91109830Y-45549581D01*
X90965605Y-45794190D01*
X90922557Y-45873447D01*
X90912299Y-45893292D01*
X90888058Y-45848229D01*
X90857588Y-45795594D01*
X90705181Y-45549581D01*
X90538363Y-45549581D01*
X90830966Y-46023839D01*
X90515832Y-46550000D01*
X90695594Y-46550000D01*
X90863084Y-46266434D01*
X90865832Y-46261671D01*
X90916390Y-46165256D01*
X90941669Y-46213494D01*
X90971100Y-46264357D01*
X91146100Y-46550000D01*
X91318353Y-46550000D01*
G37*
G36*
X97069844Y-48269078D02*
G01*
X97409586Y-47581290D01*
X97247531Y-47581290D01*
X97106053Y-47907721D01*
X97089689Y-47952906D01*
X97069844Y-48024713D01*
X97053785Y-47966217D01*
X97031559Y-47907721D01*
X96890692Y-47581290D01*
X96729370Y-47581290D01*
X97069844Y-48269078D01*
G37*
G36*
X96369722Y-48230000D02*
G01*
X96369722Y-47366357D01*
X96576901Y-47366357D01*
X96514009Y-47237397D01*
X96221406Y-47237397D01*
X96221406Y-48230000D01*
X96369722Y-48230000D01*
G37*
G36*
X95772793Y-48153185D02*
G01*
X95766284Y-48118145D01*
X95746842Y-48088705D01*
X95717972Y-48068658D01*
X95683278Y-48061960D01*
X95648542Y-48068663D01*
X95619713Y-48088705D01*
X95600224Y-48118150D01*
X95593702Y-48153185D01*
X95600225Y-48187474D01*
X95619713Y-48216017D01*
X95648460Y-48235248D01*
X95683278Y-48241723D01*
X95718053Y-48235253D01*
X95746842Y-48216017D01*
X95766282Y-48187479D01*
X95772793Y-48153185D01*
G37*
G36*
X95114452Y-47223589D02*
G01*
X95173039Y-47240110D01*
X95225170Y-47267041D01*
X95271915Y-47304849D01*
X95313860Y-47354816D01*
X95346082Y-47409384D01*
X95372367Y-47473347D01*
X95392267Y-47548129D01*
X95405013Y-47635378D01*
X95409542Y-47736934D01*
X95405039Y-47839511D01*
X95392384Y-47927382D01*
X95372666Y-48002448D01*
X95346678Y-48066415D01*
X95314898Y-48120762D01*
X95273376Y-48170550D01*
X95226952Y-48208245D01*
X95175033Y-48235119D01*
X95116531Y-48251623D01*
X95049956Y-48257355D01*
X94984252Y-48251709D01*
X94926197Y-48235415D01*
X94874374Y-48208828D01*
X94827749Y-48171477D01*
X94785746Y-48122105D01*
X94746090Y-48053205D01*
X94716058Y-47969796D01*
X94696669Y-47869106D01*
X94689698Y-47747864D01*
X94690187Y-47736263D01*
X94852424Y-47736263D01*
X94856342Y-47834903D01*
X94866955Y-47913094D01*
X94882779Y-47974252D01*
X94902677Y-48021416D01*
X94932005Y-48064339D01*
X94966110Y-48093361D01*
X95005749Y-48110673D01*
X95052704Y-48116671D01*
X95096287Y-48110726D01*
X95133912Y-48093335D01*
X95167164Y-48063666D01*
X95196624Y-48019035D01*
X95216754Y-47970602D01*
X95232563Y-47909506D01*
X95243044Y-47833228D01*
X95246877Y-47738949D01*
X95242964Y-47641529D01*
X95232331Y-47563794D01*
X95216416Y-47502519D01*
X95196318Y-47454834D01*
X95166759Y-47411316D01*
X95132605Y-47381993D01*
X95093132Y-47364563D01*
X95046598Y-47358541D01*
X95002225Y-47364491D01*
X94964263Y-47381815D01*
X94931065Y-47411205D01*
X94902006Y-47455200D01*
X94882232Y-47503055D01*
X94866627Y-47564008D01*
X94856237Y-47640743D01*
X94852424Y-47736263D01*
X94690187Y-47736263D01*
X94694185Y-47641355D01*
X94706742Y-47550823D01*
X94726209Y-47474170D01*
X94751710Y-47409506D01*
X94782693Y-47355183D01*
X94823542Y-47305242D01*
X94869616Y-47267377D01*
X94921537Y-47240323D01*
X94980452Y-47223660D01*
X95047941Y-47217857D01*
X95114452Y-47223589D01*
G37*
G36*
X94186863Y-48026789D02*
G01*
X93706987Y-48026789D01*
X93706987Y-48230000D01*
X93558609Y-48230000D01*
X93558609Y-48026789D01*
X93436915Y-48026789D01*
X93436915Y-47913461D01*
X93558609Y-47913461D01*
X93558609Y-47553325D01*
X93702834Y-47553325D01*
X93705949Y-47606753D01*
X93706987Y-47652609D01*
X93706987Y-47913461D01*
X93957824Y-47913461D01*
X93702834Y-47553325D01*
X93558609Y-47553325D01*
X93558609Y-47217857D01*
X93604405Y-47217857D01*
X94186863Y-48026789D01*
G37*
G36*
X93295987Y-47964263D02*
G01*
X93140099Y-47964263D01*
X93140099Y-47972506D01*
X93134597Y-48016691D01*
X93118913Y-48052996D01*
X93092960Y-48083271D01*
X93059273Y-48105454D01*
X93017393Y-48119452D01*
X92965099Y-48124487D01*
X92906152Y-48118798D01*
X92860314Y-48103173D01*
X92824659Y-48078691D01*
X92797917Y-48045103D01*
X92781142Y-48002089D01*
X92775078Y-47946800D01*
X92781380Y-47888806D01*
X92798668Y-47844545D01*
X92826003Y-47810757D01*
X92862699Y-47786625D01*
X92912108Y-47770829D01*
X92978105Y-47764961D01*
X92993187Y-47765694D01*
X93008879Y-47766366D01*
X93008879Y-47634658D01*
X92994225Y-47635329D01*
X92979509Y-47636001D01*
X92921276Y-47631161D01*
X92877728Y-47618179D01*
X92845481Y-47598510D01*
X92821039Y-47570556D01*
X92805840Y-47534556D01*
X92800357Y-47487990D01*
X92805169Y-47446596D01*
X92818784Y-47412861D01*
X92841024Y-47385041D01*
X92870231Y-47364313D01*
X92905977Y-47351415D01*
X92950078Y-47346817D01*
X92997593Y-47351265D01*
X93035030Y-47363532D01*
X93064567Y-47382782D01*
X93087323Y-47409235D01*
X93101864Y-47442218D01*
X93107981Y-47483593D01*
X93254954Y-47483593D01*
X93246334Y-47420342D01*
X93228685Y-47367573D01*
X93202672Y-47323423D01*
X93168126Y-47286550D01*
X93126622Y-47257796D01*
X93076893Y-47236397D01*
X93017327Y-47222739D01*
X92945926Y-47217857D01*
X92877393Y-47222862D01*
X92819395Y-47236975D01*
X92770147Y-47259326D01*
X92728244Y-47289726D01*
X92693504Y-47328247D01*
X92668658Y-47372635D01*
X92653281Y-47424049D01*
X92647889Y-47484143D01*
X92653360Y-47544268D01*
X92668765Y-47594151D01*
X92693379Y-47635818D01*
X92727204Y-47669767D01*
X92768677Y-47693501D01*
X92819530Y-47707320D01*
X92759575Y-47724913D01*
X92712148Y-47752764D01*
X92674938Y-47790912D01*
X92648374Y-47837634D01*
X92631453Y-47895393D01*
X92625357Y-47966950D01*
X92631543Y-48032068D01*
X92649246Y-48087991D01*
X92678040Y-48136544D01*
X92718658Y-48178953D01*
X92767029Y-48211952D01*
X92824092Y-48236369D01*
X92891490Y-48251852D01*
X92971266Y-48257355D01*
X93042870Y-48251926D01*
X93104409Y-48236499D01*
X93157587Y-48211837D01*
X93203724Y-48177976D01*
X93242094Y-48135466D01*
X93270127Y-48086547D01*
X93288249Y-48030037D01*
X93295987Y-47964263D01*
G37*
G36*
X92450907Y-47964263D02*
G01*
X92295019Y-47964263D01*
X92295019Y-47972506D01*
X92289517Y-48016691D01*
X92273833Y-48052996D01*
X92247880Y-48083271D01*
X92214193Y-48105454D01*
X92172312Y-48119452D01*
X92120019Y-48124487D01*
X92061072Y-48118798D01*
X92015234Y-48103173D01*
X91979579Y-48078691D01*
X91952837Y-48045103D01*
X91936062Y-48002089D01*
X91929998Y-47946800D01*
X91936300Y-47888806D01*
X91953587Y-47844545D01*
X91980922Y-47810757D01*
X92017618Y-47786625D01*
X92067028Y-47770829D01*
X92133025Y-47764961D01*
X92148107Y-47765694D01*
X92163799Y-47766366D01*
X92163799Y-47634658D01*
X92149145Y-47635329D01*
X92134429Y-47636001D01*
X92076196Y-47631161D01*
X92032648Y-47618179D01*
X92000401Y-47598510D01*
X91975959Y-47570556D01*
X91960760Y-47534556D01*
X91955277Y-47487990D01*
X91960089Y-47446596D01*
X91973703Y-47412861D01*
X91995943Y-47385041D01*
X92025150Y-47364313D01*
X92060897Y-47351415D01*
X92104998Y-47346817D01*
X92152513Y-47351265D01*
X92189950Y-47363532D01*
X92219487Y-47382782D01*
X92242242Y-47409235D01*
X92256783Y-47442218D01*
X92262901Y-47483593D01*
X92409874Y-47483593D01*
X92401253Y-47420342D01*
X92383605Y-47367573D01*
X92357591Y-47323423D01*
X92323046Y-47286550D01*
X92281541Y-47257796D01*
X92231812Y-47236397D01*
X92172247Y-47222739D01*
X92100846Y-47217857D01*
X92032312Y-47222862D01*
X91974315Y-47236975D01*
X91925067Y-47259326D01*
X91883164Y-47289726D01*
X91848424Y-47328247D01*
X91823578Y-47372635D01*
X91808201Y-47424049D01*
X91802808Y-47484143D01*
X91808279Y-47544268D01*
X91823684Y-47594151D01*
X91848299Y-47635818D01*
X91882124Y-47669767D01*
X91923596Y-47693501D01*
X91974450Y-47707320D01*
X91914494Y-47724913D01*
X91867068Y-47752764D01*
X91829858Y-47790912D01*
X91803294Y-47837634D01*
X91786373Y-47895393D01*
X91780277Y-47966950D01*
X91786463Y-48032068D01*
X91804165Y-48087991D01*
X91832960Y-48136544D01*
X91873578Y-48178953D01*
X91921949Y-48211952D01*
X91979012Y-48236369D01*
X92046410Y-48251852D01*
X92126186Y-48257355D01*
X92197790Y-48251926D01*
X92259329Y-48236499D01*
X92312507Y-48211837D01*
X92358644Y-48177976D01*
X92397014Y-48135466D01*
X92425046Y-48086547D01*
X92443169Y-48030037D01*
X92450907Y-47964263D01*
G37*
G36*
X90739009Y-47735652D02*
G01*
X90747862Y-47671355D01*
X90757449Y-47598876D01*
X90774912Y-47667264D01*
X90803244Y-47736995D01*
X91065073Y-48269078D01*
X91326901Y-47726065D01*
X91355294Y-47661097D01*
X91376116Y-47598876D01*
X91381245Y-47664883D01*
X91394556Y-47736995D01*
X91501901Y-48230000D01*
X91651622Y-48230000D01*
X91415073Y-47186594D01*
X91119783Y-47818389D01*
X91098961Y-47868276D01*
X91065073Y-47954433D01*
X91019949Y-47845073D01*
X91007676Y-47817718D01*
X90719164Y-47186594D01*
X90477180Y-48230000D01*
X90628244Y-48230000D01*
X90739009Y-47735652D01*
G37*
D11*
G36*
X101449241Y-64558817D02*
G01*
X100900702Y-64558817D01*
X100900702Y-64763981D01*
X101449241Y-64763981D01*
X101449241Y-64558817D01*
G37*
D10*
G36*
X96785144Y-55430000D02*
G01*
X96632737Y-55430000D01*
X96632737Y-54980593D01*
X96571188Y-54980593D01*
X96539070Y-54980593D01*
X96436927Y-54977139D01*
X96378114Y-54968991D01*
X96329142Y-54953181D01*
X96288171Y-54930095D01*
X96259458Y-54904917D01*
X96234885Y-54873765D01*
X96214349Y-54835818D01*
X96194463Y-54773619D01*
X96188689Y-54715101D01*
X96355155Y-54715101D01*
X96360876Y-54762199D01*
X96376199Y-54795416D01*
X96400279Y-54818476D01*
X96432646Y-54832569D01*
X96489212Y-54843310D01*
X96580774Y-54847725D01*
X96622479Y-54847725D01*
X96622479Y-54570265D01*
X96580774Y-54570265D01*
X96493941Y-54575025D01*
X96437750Y-54586862D01*
X96403393Y-54602932D01*
X96377619Y-54628378D01*
X96361244Y-54664491D01*
X96355155Y-54715101D01*
X96188689Y-54715101D01*
X96187665Y-54704720D01*
X96194487Y-54635968D01*
X96214349Y-54574661D01*
X96246570Y-54521099D01*
X96288171Y-54480811D01*
X96329139Y-54457607D01*
X96378114Y-54441549D01*
X96436924Y-54433144D01*
X96539070Y-54429581D01*
X96785144Y-54429581D01*
X96785144Y-55430000D01*
G37*
G36*
X96040692Y-55430000D02*
G01*
X95888285Y-55430000D01*
X95888285Y-54980593D01*
X95826735Y-54980593D01*
X95794617Y-54980593D01*
X95692475Y-54977139D01*
X95633661Y-54968991D01*
X95584690Y-54953181D01*
X95543719Y-54930095D01*
X95515006Y-54904917D01*
X95490433Y-54873765D01*
X95469897Y-54835818D01*
X95450010Y-54773619D01*
X95444237Y-54715101D01*
X95610703Y-54715101D01*
X95616423Y-54762199D01*
X95631747Y-54795416D01*
X95655826Y-54818476D01*
X95688194Y-54832569D01*
X95744760Y-54843310D01*
X95836322Y-54847725D01*
X95878026Y-54847725D01*
X95878026Y-54570265D01*
X95836322Y-54570265D01*
X95749489Y-54575025D01*
X95693298Y-54586862D01*
X95658941Y-54602932D01*
X95633167Y-54628378D01*
X95616792Y-54664491D01*
X95610703Y-54715101D01*
X95444237Y-54715101D01*
X95443213Y-54704720D01*
X95450035Y-54635968D01*
X95469897Y-54574661D01*
X95502118Y-54521099D01*
X95543719Y-54480811D01*
X95584687Y-54457607D01*
X95633661Y-54441549D01*
X95692472Y-54433144D01*
X95794617Y-54429581D01*
X96040692Y-54429581D01*
X96040692Y-55430000D01*
G37*
G36*
X95353698Y-55231980D02*
G01*
X95223761Y-55172079D01*
X95207524Y-55214034D01*
X95185012Y-55247490D01*
X95156106Y-55273806D01*
X95121680Y-55292701D01*
X95080300Y-55304611D01*
X95030321Y-55308855D01*
X94983579Y-55303989D01*
X94945847Y-55290359D01*
X94915160Y-55268494D01*
X94891766Y-55239108D01*
X94877465Y-55203620D01*
X94872418Y-55160233D01*
X94879717Y-55121721D01*
X94902929Y-55083546D01*
X94946725Y-55044066D01*
X95018719Y-55002758D01*
X95050165Y-54987676D01*
X95159577Y-54928643D01*
X95229567Y-54880469D01*
X95270655Y-54841313D01*
X95300911Y-54795028D01*
X95319291Y-54742233D01*
X95325671Y-54681151D01*
X95320190Y-54621139D01*
X95304440Y-54568916D01*
X95278776Y-54522977D01*
X95242629Y-54482276D01*
X95199077Y-54449695D01*
X95149132Y-54426053D01*
X95091591Y-54411310D01*
X95024886Y-54406133D01*
X94952067Y-54411335D01*
X94890985Y-54425937D01*
X94839628Y-54448937D01*
X94794771Y-54481850D01*
X94760686Y-54522461D01*
X94736374Y-54571852D01*
X94863564Y-54636699D01*
X94896313Y-54595080D01*
X94929570Y-54568433D01*
X94967535Y-54552363D01*
X95011880Y-54546817D01*
X95054385Y-54550984D01*
X95088556Y-54562600D01*
X95116172Y-54581072D01*
X95137399Y-54606117D01*
X95150250Y-54636177D01*
X95154762Y-54672786D01*
X95149692Y-54703652D01*
X95133654Y-54734984D01*
X95103968Y-54767964D01*
X95056338Y-54803269D01*
X94985197Y-54841130D01*
X94964680Y-54850717D01*
X94867200Y-54901171D01*
X94801899Y-54945503D01*
X94760982Y-54984439D01*
X94730660Y-55030657D01*
X94712093Y-55084358D01*
X94705600Y-55147533D01*
X94711649Y-55217529D01*
X94728870Y-55277366D01*
X94756600Y-55328930D01*
X94795176Y-55373579D01*
X94842127Y-55409184D01*
X94897016Y-55435208D01*
X94961368Y-55451569D01*
X95037159Y-55457355D01*
X95120583Y-55450275D01*
X95189487Y-55430430D01*
X95246659Y-55398981D01*
X95283583Y-55367075D01*
X95313546Y-55329163D01*
X95336947Y-55284503D01*
X95353698Y-55231980D01*
G37*
G36*
X103118066Y-53269225D02*
G01*
X103118066Y-53665692D01*
X103146765Y-53666364D01*
X103212405Y-53668440D01*
X103297750Y-53662996D01*
X103371676Y-53647534D01*
X103435888Y-53622968D01*
X103491804Y-53589664D01*
X103540484Y-53547418D01*
X103580917Y-53497517D01*
X103613055Y-53439792D01*
X103636924Y-53373070D01*
X103652023Y-53295844D01*
X103657355Y-53206332D01*
X103653071Y-53124909D01*
X103640772Y-53052116D01*
X103621085Y-52986880D01*
X103592750Y-52925206D01*
X103556377Y-52869114D01*
X103511603Y-52818047D01*
X103460638Y-52774498D01*
X103404028Y-52738214D01*
X103341182Y-52708993D01*
X103274998Y-52688073D01*
X103205387Y-52675381D01*
X103131744Y-52671074D01*
X103056755Y-52675508D01*
X102987190Y-52688471D01*
X102922306Y-52709665D01*
X102861050Y-52739511D01*
X102804872Y-52777546D01*
X102753290Y-52824214D01*
X102709300Y-52875634D01*
X102672883Y-52932629D01*
X102643808Y-52995795D01*
X102623025Y-53062331D01*
X102610414Y-53132311D01*
X102606133Y-53206332D01*
X102611186Y-53284226D01*
X102625787Y-53354377D01*
X102649426Y-53417908D01*
X102682698Y-53476876D01*
X102726527Y-53532238D01*
X102781988Y-53584359D01*
X102871870Y-53465413D01*
X102835074Y-53429538D01*
X102805886Y-53391559D01*
X102783637Y-53351229D01*
X102767752Y-53307990D01*
X102757993Y-53260831D01*
X102754633Y-53209080D01*
X102761563Y-53129279D01*
X102781473Y-53059581D01*
X102813829Y-52998115D01*
X102859169Y-52943527D01*
X102914410Y-52899123D01*
X102977079Y-52867243D01*
X103048611Y-52847526D01*
X103130950Y-52840640D01*
X103214748Y-52847548D01*
X103287435Y-52867306D01*
X103350990Y-52899200D01*
X103406884Y-52943527D01*
X103452796Y-52998186D01*
X103485563Y-53059885D01*
X103505736Y-53130009D01*
X103512763Y-53210484D01*
X103508124Y-53280555D01*
X103495130Y-53339290D01*
X103474762Y-53388557D01*
X103447428Y-53429876D01*
X103411979Y-53464728D01*
X103371266Y-53489400D01*
X103324240Y-53504563D01*
X103269314Y-53509865D01*
X103254842Y-53509865D01*
X103254842Y-53269225D01*
X103118066Y-53269225D01*
G37*
G36*
X103630000Y-53991756D02*
G01*
X103180593Y-53991756D01*
X103180593Y-54053306D01*
X103180593Y-54085423D01*
X103177139Y-54187566D01*
X103168991Y-54246379D01*
X103153181Y-54295351D01*
X103130095Y-54336322D01*
X103104917Y-54365035D01*
X103073765Y-54389608D01*
X103035818Y-54410144D01*
X102973619Y-54430031D01*
X102904720Y-54436828D01*
X102835968Y-54430006D01*
X102774661Y-54410144D01*
X102721099Y-54377923D01*
X102680811Y-54336322D01*
X102657607Y-54295354D01*
X102641549Y-54246379D01*
X102633144Y-54187569D01*
X102629581Y-54085423D01*
X102629581Y-54043719D01*
X102770265Y-54043719D01*
X102775025Y-54130552D01*
X102786862Y-54186743D01*
X102802932Y-54221100D01*
X102828378Y-54246874D01*
X102864491Y-54263249D01*
X102915101Y-54269338D01*
X102962199Y-54263618D01*
X102995416Y-54248294D01*
X103018476Y-54224214D01*
X103032569Y-54191847D01*
X103043310Y-54135281D01*
X103047725Y-54043719D01*
X103047725Y-54002015D01*
X102770265Y-54002015D01*
X102770265Y-54043719D01*
X102629581Y-54043719D01*
X102629581Y-53839349D01*
X103630000Y-53839349D01*
X103630000Y-53991756D01*
G37*
G36*
X103431980Y-54526343D02*
G01*
X103372079Y-54656280D01*
X103414034Y-54672517D01*
X103447490Y-54695029D01*
X103473806Y-54723935D01*
X103492701Y-54758361D01*
X103504611Y-54799741D01*
X103508855Y-54849720D01*
X103503989Y-54896462D01*
X103490359Y-54934194D01*
X103468494Y-54964881D01*
X103439108Y-54988274D01*
X103403620Y-55002576D01*
X103360233Y-55007623D01*
X103321721Y-55000324D01*
X103283546Y-54977112D01*
X103244066Y-54933316D01*
X103202758Y-54861322D01*
X103187676Y-54829876D01*
X103128643Y-54720464D01*
X103080469Y-54650474D01*
X103041313Y-54609385D01*
X102995028Y-54579130D01*
X102942233Y-54560750D01*
X102881151Y-54554370D01*
X102821139Y-54559851D01*
X102768916Y-54575601D01*
X102722977Y-54601265D01*
X102682276Y-54637412D01*
X102649695Y-54680964D01*
X102626053Y-54730909D01*
X102611310Y-54788449D01*
X102606133Y-54855155D01*
X102611335Y-54927974D01*
X102625937Y-54989056D01*
X102648937Y-55040413D01*
X102681850Y-55085270D01*
X102722461Y-55119355D01*
X102771852Y-55143667D01*
X102836699Y-55016477D01*
X102795080Y-54983728D01*
X102768433Y-54950471D01*
X102752363Y-54912506D01*
X102746817Y-54868161D01*
X102750984Y-54825656D01*
X102762600Y-54791485D01*
X102781072Y-54763869D01*
X102806117Y-54742641D01*
X102836177Y-54729791D01*
X102872786Y-54725279D01*
X102903652Y-54730349D01*
X102934984Y-54746387D01*
X102967964Y-54776072D01*
X103003269Y-54823703D01*
X103041130Y-54894844D01*
X103050717Y-54915361D01*
X103101171Y-55012841D01*
X103145503Y-55078142D01*
X103184439Y-55119059D01*
X103230657Y-55149381D01*
X103284358Y-55167948D01*
X103347533Y-55174441D01*
X103417529Y-55168391D01*
X103477366Y-55151170D01*
X103528930Y-55123441D01*
X103573579Y-55084865D01*
X103609184Y-55037913D01*
X103635208Y-54983024D01*
X103651569Y-54918673D01*
X103657355Y-54842882D01*
X103650275Y-54759457D01*
X103630430Y-54690554D01*
X103598981Y-54633382D01*
X103567075Y-54596458D01*
X103529163Y-54566494D01*
X103484503Y-54543094D01*
X103431980Y-54526343D01*
G37*
D12*
%TO.C,C42*%
X99487342Y-31320235D02*
X99271670Y-31320235D01*
X99487342Y-32040235D02*
X99271670Y-32040235D01*
%TO.C,Y2*%
X93470203Y-54597890D02*
X93390203Y-54597890D01*
X93470203Y-56117890D02*
X93390203Y-56117890D01*
X94590203Y-54757890D02*
X94590203Y-55957890D01*
%TO.C,C39*%
X100623728Y-36220123D02*
X100408056Y-36220123D01*
X100623728Y-36940123D02*
X100408056Y-36940123D01*
%TO.C,R15*%
X94810000Y-57426359D02*
X94810000Y-57733641D01*
X95570000Y-57426359D02*
X95570000Y-57733641D01*
%TO.C,R54*%
X96662106Y-51254896D02*
X96662106Y-50947614D01*
X97422106Y-51254896D02*
X97422106Y-50947614D01*
%TO.C,C41*%
X99483127Y-32237834D02*
X99267455Y-32237834D01*
X99483127Y-32957834D02*
X99267455Y-32957834D01*
%TO.C,C7*%
X106110391Y-37070967D02*
X106110391Y-36855295D01*
X106830391Y-37070967D02*
X106830391Y-36855295D01*
%TO.C,U4*%
X101925000Y-41609904D02*
X101924999Y-42359904D01*
X101925000Y-44109904D02*
X101925000Y-44609904D01*
X101925000Y-44609904D02*
X102425000Y-44609904D01*
X106625000Y-44609904D02*
X107125000Y-44609904D01*
X107125000Y-41309904D02*
X106625000Y-41309904D01*
X107125000Y-41809904D02*
X107125000Y-41309904D01*
X107125000Y-44609904D02*
X107125000Y-44109904D01*
X101925000Y-41409904D02*
X101564999Y-41409904D01*
X101924999Y-41049904D01*
X101925000Y-41409904D01*
G36*
X101925000Y-41409904D02*
G01*
X101564999Y-41409904D01*
X101924999Y-41049904D01*
X101925000Y-41409904D01*
G37*
%TO.C,C27*%
X99462164Y-41770000D02*
X99677836Y-41770000D01*
X99462164Y-42490000D02*
X99677836Y-42490000D01*
%TO.C,C9*%
X100840000Y-42387836D02*
X100840000Y-42172164D01*
X101560000Y-42387836D02*
X101560000Y-42172164D01*
%TO.C,C13*%
X91123142Y-38300977D02*
X91338814Y-38300977D01*
X91123142Y-39020977D02*
X91338814Y-39020977D01*
%TO.C,C37*%
X100378413Y-38102500D02*
X100594085Y-38102500D01*
X100378413Y-38822500D02*
X100594085Y-38822500D01*
%TO.C,R19*%
X90520000Y-55580725D02*
X90520000Y-55273443D01*
X91280000Y-55580725D02*
X91280000Y-55273443D01*
%TO.C,J5*%
X98826594Y-53770378D02*
X98826594Y-54570378D01*
X98826594Y-55970378D02*
X98826594Y-56770378D01*
X98826594Y-56770378D02*
X99026594Y-56770378D01*
X99026594Y-53770378D02*
X98826594Y-53770378D01*
X101626594Y-56770378D02*
X101826594Y-56770378D01*
X101826594Y-53970378D02*
X101626594Y-53770378D01*
X101826594Y-54570378D02*
X101826594Y-53970378D01*
X101826594Y-54570378D02*
X102326594Y-54570378D01*
X101826594Y-55970378D02*
X102326594Y-55970378D01*
X101826594Y-56770378D02*
X101826594Y-55970378D01*
%TO.C,C36*%
X97598005Y-31562931D02*
X97598005Y-31778603D01*
X98318005Y-31562931D02*
X98318005Y-31778603D01*
D13*
%TO.C,D6*%
X96791183Y-56071328D02*
G75*
G02*
X96691185Y-56071328I-49999J0D01*
G01*
X96691185Y-56071328D02*
G75*
G02*
X96791183Y-56071328I49999J0D01*
G01*
D12*
%TO.C,R12*%
X95126249Y-35308859D02*
X95126249Y-35616141D01*
X95886249Y-35308859D02*
X95886249Y-35616141D01*
D14*
%TO.C,U19*%
X98278150Y-48246800D02*
X98764560Y-48246800D01*
X98278150Y-52590200D02*
X98278150Y-48246800D01*
X98764560Y-52590200D02*
X98278150Y-52590200D01*
X102135140Y-48246800D02*
X102621550Y-48246800D01*
X102621550Y-48246800D02*
X102621550Y-52590200D01*
X102621550Y-52590200D02*
X102135140Y-52590200D01*
X101751600Y-53618900D02*
G75*
G02*
X101548400Y-53618900I-101600J0D01*
G01*
X101548400Y-53618900D02*
G75*
G02*
X101751600Y-53618900I101600J0D01*
G01*
D13*
%TO.C,U20*%
X91318463Y-56703325D02*
X91318463Y-58103325D01*
X91318463Y-58103325D02*
X91318463Y-59903325D01*
X91318463Y-59903325D02*
X94518463Y-59903325D01*
X94518463Y-56703325D02*
X91318463Y-56703325D01*
X94518463Y-59903325D02*
X94518463Y-56703325D01*
X91509884Y-56303325D02*
G75*
G02*
X91227042Y-56303325I-141421J0D01*
G01*
X91227042Y-56303325D02*
G75*
G02*
X91509884Y-56303325I141421J0D01*
G01*
D12*
%TO.C,C31*%
X96646249Y-33434664D02*
X96646249Y-33650336D01*
X97366249Y-33434664D02*
X97366249Y-33650336D01*
%TO.C,U2*%
X98477500Y-44340000D02*
X98477500Y-46160000D01*
X98477500Y-46160000D02*
X98527500Y-46160000D01*
X98527500Y-44340000D02*
X98477500Y-44340000D01*
X101547500Y-46160000D02*
X101597500Y-46160000D01*
X101597500Y-44340000D02*
X101547500Y-44340000D01*
X101597500Y-46160000D02*
X101597500Y-44340000D01*
X98527500Y-43800000D02*
X98197500Y-44040000D01*
X98197500Y-43560000D01*
X98527500Y-43800000D01*
G36*
X98527500Y-43800000D02*
G01*
X98197500Y-44040000D01*
X98197500Y-43560000D01*
X98527500Y-43800000D01*
G37*
%TO.C,R21*%
X98538131Y-64128951D02*
X98538131Y-63821669D01*
X99298131Y-64128951D02*
X99298131Y-63821669D01*
%TO.C,C43*%
X96708908Y-49348362D02*
X96708908Y-49132690D01*
X97428908Y-49348362D02*
X97428908Y-49132690D01*
%TO.C,C33*%
X99818909Y-40008044D02*
X99603237Y-40008044D01*
X99818909Y-40728044D02*
X99603237Y-40728044D01*
%TO.C,C38*%
X99460660Y-35031932D02*
X99460660Y-34816260D01*
X100180660Y-35031932D02*
X100180660Y-34816260D01*
%TO.C,Q3*%
X104683812Y-62448127D02*
X106683812Y-62448127D01*
X106453812Y-60148127D02*
X104683812Y-60148127D01*
X107053812Y-60238127D02*
X106773812Y-60238127D01*
X106773812Y-59958127D01*
X107053812Y-60238127D01*
G36*
X107053812Y-60238127D02*
G01*
X106773812Y-60238127D01*
X106773812Y-59958127D01*
X107053812Y-60238127D01*
G37*
%TO.C,U3*%
X102590000Y-35790000D02*
X102590000Y-35840001D01*
X102590000Y-40959999D02*
X102590000Y-41010000D01*
X102590000Y-41010000D02*
X103640000Y-41010000D01*
X103640000Y-35790000D02*
X102590000Y-35790000D01*
X104760000Y-41010000D02*
X105810000Y-41010000D01*
X105810000Y-35790000D02*
X104760000Y-35790000D01*
X105810000Y-35840001D02*
X105810000Y-35790000D01*
X105810000Y-41010000D02*
X105810000Y-40959999D01*
X106270000Y-36640000D02*
X105940000Y-36400000D01*
X106270000Y-36160000D01*
X106270000Y-36640000D01*
G36*
X106270000Y-36640000D02*
G01*
X105940000Y-36400000D01*
X106270000Y-36160000D01*
X106270000Y-36640000D01*
G37*
%TO.C,R18*%
X95783770Y-59601015D02*
X95783770Y-59293733D01*
X96543770Y-59601015D02*
X96543770Y-59293733D01*
%TO.C,U6*%
X103290000Y-44990000D02*
X103290000Y-45040000D01*
X103290000Y-46160000D02*
X103290000Y-46940000D01*
X103290000Y-48060000D02*
X103290000Y-48110000D01*
X103290000Y-48110000D02*
X104810000Y-48110000D01*
X104810000Y-44990000D02*
X103290000Y-44990000D01*
X104810000Y-45990000D02*
X104810000Y-44990000D01*
X104810000Y-48110000D02*
X104810000Y-47110000D01*
X102750000Y-46930000D02*
X102510000Y-46600000D01*
X102990000Y-46600000D01*
X102750000Y-46930000D01*
G36*
X102750000Y-46930000D02*
G01*
X102510000Y-46600000D01*
X102990000Y-46600000D01*
X102750000Y-46930000D01*
G37*
%TO.C,R16*%
X90234999Y-57257368D02*
X90234999Y-57564650D01*
X90994999Y-57257368D02*
X90994999Y-57564650D01*
%TO.C,C25*%
X90240000Y-44127836D02*
X90240000Y-43912164D01*
X90960000Y-44127836D02*
X90960000Y-43912164D01*
%TO.C,C8*%
X106123237Y-38706137D02*
X106123237Y-38921809D01*
X106843237Y-38706137D02*
X106843237Y-38921809D01*
%TO.C,C26*%
X95670906Y-44230231D02*
X95455234Y-44230231D01*
X95670906Y-44950231D02*
X95455234Y-44950231D01*
%TO.C,U1*%
X90909541Y-48705000D02*
X90909541Y-52495000D01*
X91909541Y-53495000D02*
X95699541Y-53495000D01*
X95699541Y-48705000D02*
X90909541Y-48705000D01*
X95699541Y-53495000D02*
X95699541Y-48705000D01*
X90909541Y-53995000D02*
X90409541Y-53495000D01*
X90909541Y-53495000D01*
X90909541Y-53995000D01*
G36*
X90909541Y-53995000D02*
G01*
X90409541Y-53495000D01*
X90909541Y-53495000D01*
X90909541Y-53995000D01*
G37*
%TO.C,J1*%
X103995000Y-53050000D02*
X103995000Y-53685000D01*
X103995000Y-53685000D02*
X104630000Y-53685000D01*
%TO.C,U17*%
X99322500Y-59290000D02*
X99322500Y-61110000D01*
X99322500Y-61110000D02*
X99372500Y-61110000D01*
X99372500Y-59290000D02*
X99322500Y-59290000D01*
X101272500Y-59290000D02*
X100492500Y-59290000D01*
X102392500Y-61110000D02*
X102442500Y-61110000D01*
X102442500Y-59290000D02*
X102392500Y-59290000D01*
X102442500Y-61110000D02*
X102442500Y-59290000D01*
X102722500Y-61890000D02*
X102392500Y-61650000D01*
X102722500Y-61410000D01*
X102722500Y-61890000D01*
G36*
X102722500Y-61890000D02*
G01*
X102392500Y-61650000D01*
X102722500Y-61410000D01*
X102722500Y-61890000D01*
G37*
%TO.C,Y1*%
X92960000Y-43090000D02*
X92740000Y-43090000D01*
X92960000Y-45310000D02*
X92740000Y-45310000D01*
X93600000Y-45490000D02*
X94390000Y-45490000D01*
X94390000Y-44700000D02*
X94390000Y-45490000D01*
%TO.C,C35*%
X96657289Y-31561654D02*
X96657289Y-31777326D01*
X97377289Y-31561654D02*
X97377289Y-31777326D01*
%TO.C,R13*%
X94807660Y-59591164D02*
X94807660Y-59283882D01*
X95567660Y-59591164D02*
X95567660Y-59283882D01*
%TO.C,C40*%
X97974962Y-35281281D02*
X97974962Y-35496953D01*
X98694962Y-35281281D02*
X98694962Y-35496953D01*
%TO.C,C10*%
X106007836Y-45140000D02*
X105792164Y-45140000D01*
X106007836Y-45860000D02*
X105792164Y-45860000D01*
%TO.C,R37*%
X102700000Y-60683640D02*
X102700000Y-60376358D01*
X103460000Y-60683640D02*
X103460000Y-60376358D01*
%TO.C,C20*%
X98360000Y-59377836D02*
X98360000Y-59162164D01*
X99080000Y-59377836D02*
X99080000Y-59162164D01*
%TO.C,C21*%
X103292164Y-64440000D02*
X103507836Y-64440000D01*
X103292164Y-65160000D02*
X103507836Y-65160000D01*
%TO.C,U8*%
X92665000Y-36915000D02*
X92665000Y-37390000D01*
X92665000Y-41660000D02*
X92665000Y-42135000D01*
X92665000Y-42135000D02*
X93140000Y-42135000D01*
X93140000Y-36915000D02*
X92665000Y-36915000D01*
X97410000Y-42135000D02*
X97885000Y-42135000D01*
X97885000Y-36915000D02*
X97410000Y-36915000D01*
X97885000Y-37390000D02*
X97885000Y-36915000D01*
X97885000Y-42135000D02*
X97885000Y-41660000D01*
X92135000Y-41275000D02*
X91805000Y-41515000D01*
X91805000Y-41035000D01*
X92135000Y-41275000D01*
G36*
X92135000Y-41275000D02*
G01*
X91805000Y-41515000D01*
X91805000Y-41035000D01*
X92135000Y-41275000D01*
G37*
%TO.C,Q1*%
X104910271Y-65025000D02*
X106680271Y-65025000D01*
X106680271Y-62725000D02*
X104680271Y-62725000D01*
X104590271Y-65215000D02*
X104310271Y-64935000D01*
X104590271Y-64935000D01*
X104590271Y-65215000D01*
G36*
X104590271Y-65215000D02*
G01*
X104310271Y-64935000D01*
X104590271Y-64935000D01*
X104590271Y-65215000D01*
G37*
%TO.C,R14*%
X90234999Y-59474650D02*
X90234999Y-59167368D01*
X90994999Y-59474650D02*
X90994999Y-59167368D01*
%TO.C,R48*%
X97566249Y-33368859D02*
X97566249Y-33676141D01*
X98326249Y-33368859D02*
X98326249Y-33676141D01*
%TD*%
%LPC*%
D15*
%TO.C,J3*%
X103200000Y-32800000D03*
%TD*%
D16*
%TO.C,J3*%
X106300000Y-32800000D03*
%TD*%
D17*
%TO.C,J4*%
X91620000Y-64390000D03*
X94160000Y-64390000D03*
X96700000Y-64390000D03*
D18*
X91620000Y-61850000D03*
D19*
X94160000Y-61850000D03*
X96700000Y-61850000D03*
%TD*%
D20*
%TO.C,J6*%
X103180000Y-63250000D03*
D21*
X101180000Y-63250000D03*
%TD*%
D22*
%TO.C,H2*%
X92600000Y-32600000D03*
%TD*%
%TO.C,H1*%
X104600000Y-57350000D03*
%TD*%
D23*
%TO.C,C42*%
X99859506Y-31680235D03*
X98899506Y-31680235D03*
%TD*%
D24*
%TO.C,Y2*%
X94030203Y-55357890D03*
X92830203Y-55357890D03*
%TD*%
D23*
%TO.C,C39*%
X100995892Y-36580123D03*
X100035892Y-36580123D03*
%TD*%
D25*
%TO.C,R59*%
X98840000Y-61220000D03*
X98840000Y-60580000D03*
%TD*%
%TO.C,R9*%
X97950000Y-46825002D03*
X97950000Y-46185002D03*
%TD*%
D26*
%TO.C,R15*%
X95190000Y-57070000D03*
X95190000Y-58090000D03*
%TD*%
D27*
%TO.C,R54*%
X97042106Y-51611254D03*
X97042106Y-50591256D03*
%TD*%
D23*
%TO.C,C41*%
X99855291Y-32597834D03*
X98895291Y-32597834D03*
%TD*%
D28*
%TO.C,C7*%
X106470391Y-37443131D03*
X106470391Y-36483131D03*
%TD*%
D29*
%TO.C,U4*%
X102650000Y-41884904D03*
X103900000Y-41884904D03*
X105150000Y-41884904D03*
X106400000Y-41884904D03*
X106400000Y-44034904D03*
X105150000Y-44034904D03*
X103900000Y-44034904D03*
X102650000Y-44034904D03*
%TD*%
D30*
%TO.C,C27*%
X99090000Y-42130000D03*
X100050000Y-42130000D03*
%TD*%
D31*
%TO.C,R4*%
X96042992Y-57445294D03*
X96042992Y-58085294D03*
%TD*%
D25*
%TO.C,C50*%
X95030356Y-43724934D03*
X95030356Y-43084934D03*
%TD*%
D32*
%TO.C,L2*%
X97408749Y-35862499D03*
X97408749Y-34892499D03*
%TD*%
D28*
%TO.C,C9*%
X101200000Y-42760000D03*
X101200000Y-41800000D03*
%TD*%
D30*
%TO.C,C13*%
X90750978Y-38660977D03*
X91710978Y-38660977D03*
%TD*%
D25*
%TO.C,C51*%
X96790000Y-43700000D03*
X96790000Y-43060000D03*
%TD*%
D30*
%TO.C,C37*%
X100006249Y-38462500D03*
X100966249Y-38462500D03*
%TD*%
D32*
%TO.C,L1*%
X99106249Y-39362500D03*
X99106249Y-38392500D03*
%TD*%
D27*
%TO.C,R19*%
X90900000Y-55937083D03*
X90900000Y-54917085D03*
%TD*%
D33*
%TO.C,J5*%
X98826594Y-55270378D03*
D34*
X100326594Y-56745379D03*
D33*
X101826594Y-55270378D03*
D34*
X100326594Y-53795377D03*
%TD*%
D25*
%TO.C,R5*%
X91737569Y-55548425D03*
X91737569Y-54908425D03*
%TD*%
D35*
%TO.C,C49*%
X100079899Y-41200000D03*
X99439899Y-41200000D03*
%TD*%
D36*
%TO.C,C36*%
X97958005Y-31190767D03*
X97958005Y-32150767D03*
%TD*%
D37*
%TO.C,D6*%
X96136185Y-56071328D03*
X95166185Y-56071328D03*
%TD*%
D38*
%TO.C,L6*%
X98870408Y-33536292D03*
X99840408Y-33536292D03*
%TD*%
D26*
%TO.C,R12*%
X95506249Y-34952501D03*
X95506249Y-35972499D03*
%TD*%
D39*
%TO.C,U19*%
X101650000Y-52387000D03*
X100849900Y-52387000D03*
X100049800Y-52387000D03*
X99249700Y-52387000D03*
X99249700Y-48450000D03*
X100049800Y-48450000D03*
X100849900Y-48450000D03*
X101650000Y-48450000D03*
D40*
X100449850Y-50418500D03*
%TD*%
D31*
%TO.C,C48*%
X94677814Y-35353629D03*
X94677814Y-35993629D03*
%TD*%
D41*
%TO.C,U20*%
X91943463Y-56783325D03*
X92593463Y-56783325D03*
X93243463Y-56783325D03*
X93893463Y-56783325D03*
D42*
X92223463Y-58748325D03*
D43*
X93613463Y-58748325D03*
%TD*%
D36*
%TO.C,C31*%
X97006249Y-33062500D03*
X97006249Y-34022500D03*
%TD*%
D44*
%TO.C,U2*%
X99087501Y-44112500D03*
X100037500Y-44112500D03*
X100987499Y-44112500D03*
X100987499Y-46387500D03*
X100037500Y-46387500D03*
X99087501Y-46387500D03*
%TD*%
D31*
%TO.C,R1*%
X97800000Y-44730000D03*
X97800000Y-45370000D03*
%TD*%
%TO.C,R46*%
X96992341Y-59471811D03*
X96992341Y-60111811D03*
%TD*%
D27*
%TO.C,R21*%
X98918131Y-64485309D03*
X98918131Y-63465311D03*
%TD*%
D28*
%TO.C,C43*%
X97068908Y-49720526D03*
X97068908Y-48760526D03*
%TD*%
D23*
%TO.C,C33*%
X100191073Y-40368044D03*
X99231073Y-40368044D03*
%TD*%
D28*
%TO.C,C38*%
X99820660Y-35404096D03*
X99820660Y-34444096D03*
%TD*%
D45*
%TO.C,Q3*%
X105683812Y-60973127D03*
D46*
X106608812Y-61948127D03*
D47*
X105643812Y-61948127D03*
D46*
X104758812Y-61948127D03*
%TD*%
D25*
%TO.C,C47*%
X95737384Y-43713246D03*
X95737384Y-43073246D03*
%TD*%
D37*
%TO.C,L4*%
X101026826Y-37522156D03*
X100056826Y-37522156D03*
%TD*%
D48*
%TO.C,U3*%
X105200000Y-36400000D03*
X105200000Y-37200000D03*
X105200000Y-38000000D03*
X105200000Y-38800000D03*
X105200000Y-39600000D03*
X105200000Y-40400000D03*
D49*
X104200000Y-40400001D03*
D48*
X103200000Y-40400000D03*
X103200000Y-39600000D03*
X103200000Y-38800000D03*
X103200000Y-38000000D03*
X103200000Y-37200000D03*
X103200000Y-36400000D03*
D49*
X104200000Y-36399999D03*
%TD*%
D32*
%TO.C,L7*%
X100806249Y-33747500D03*
X100806249Y-32777500D03*
%TD*%
%TO.C,L5*%
X100806249Y-35632500D03*
X100806249Y-34662500D03*
%TD*%
D27*
%TO.C,R18*%
X96163770Y-59957373D03*
X96163770Y-58937375D03*
%TD*%
D50*
%TO.C,U6*%
X103112500Y-47500000D03*
X103112500Y-45600000D03*
X104987501Y-46550000D03*
%TD*%
D31*
%TO.C,C29*%
X96325350Y-35169319D03*
X96325350Y-35809319D03*
%TD*%
D26*
%TO.C,R16*%
X90614999Y-56901009D03*
X90614999Y-57921009D03*
%TD*%
D28*
%TO.C,C25*%
X90600000Y-44500000D03*
X90600000Y-43540000D03*
%TD*%
D51*
%TO.C,R56*%
X97003630Y-56131971D03*
X97643630Y-56131971D03*
%TD*%
D36*
%TO.C,C8*%
X106483237Y-38333973D03*
X106483237Y-39293973D03*
%TD*%
D25*
%TO.C,R47*%
X97694626Y-60096616D03*
X97694626Y-59456616D03*
%TD*%
D23*
%TO.C,C26*%
X96043070Y-44590231D03*
X95083070Y-44590231D03*
%TD*%
D52*
%TO.C,U1*%
X91304541Y-53100000D03*
X91804541Y-53100000D03*
X92304541Y-53100000D03*
X92804541Y-53100000D03*
X93304541Y-53100001D03*
X93804541Y-53100000D03*
X94304541Y-53100000D03*
X94804541Y-53100000D03*
X95304541Y-53100000D03*
X91304541Y-52600000D03*
X91804541Y-52600000D03*
X94804541Y-52600000D03*
X95304541Y-52600000D03*
X91304541Y-52100000D03*
X92304541Y-52100000D03*
X92804541Y-52100000D03*
X93304541Y-52100000D03*
X93804541Y-52100000D03*
X94304541Y-52100000D03*
X95304541Y-52100000D03*
X91304541Y-51600000D03*
X91804541Y-51600000D03*
X95304541Y-51600000D03*
X91304540Y-51100000D03*
X91804541Y-51100000D03*
X92304541Y-51100000D03*
X92804542Y-51100000D03*
X94304541Y-51100000D03*
X95304542Y-51100000D03*
X91304541Y-50600000D03*
X92304541Y-50600000D03*
X92804541Y-50600000D03*
X94304541Y-50600000D03*
X95304541Y-50600000D03*
X91304541Y-50100000D03*
X92304541Y-50100000D03*
X92804541Y-50100000D03*
X93304541Y-50100000D03*
X93804541Y-50100000D03*
X94304541Y-50100000D03*
X95304541Y-50100000D03*
X91304541Y-49600000D03*
X94804541Y-49600000D03*
X95304541Y-49600000D03*
X91304541Y-49100000D03*
X91804541Y-49100000D03*
X92304541Y-49100000D03*
X92804541Y-49100000D03*
X93304541Y-49099999D03*
X93804541Y-49100000D03*
X94304541Y-49100000D03*
X94804541Y-49100000D03*
X95304541Y-49100000D03*
%TD*%
D53*
%TO.C,J1*%
X105265000Y-54320000D03*
X104249000Y-49240000D03*
X106281000Y-49240000D03*
D54*
X104630000Y-53050000D03*
X105900000Y-53050000D03*
X104630000Y-51780000D03*
X105900000Y-51780000D03*
X104630000Y-50510000D03*
X105900000Y-50510000D03*
%TD*%
D55*
%TO.C,U17*%
X101832500Y-61337500D03*
X100882500Y-61337500D03*
X99932500Y-61337500D03*
X99932500Y-59062500D03*
X101832500Y-59062500D03*
%TD*%
D51*
%TO.C,C32*%
X91097455Y-41311201D03*
X91737455Y-41311201D03*
%TD*%
D31*
%TO.C,R52*%
X98840000Y-62030000D03*
X98840000Y-62670000D03*
%TD*%
D56*
%TO.C,Y1*%
X93675000Y-44825000D03*
X92025000Y-44825000D03*
X92025000Y-43575000D03*
X93675000Y-43575000D03*
%TD*%
D36*
%TO.C,C35*%
X97017289Y-31189490D03*
X97017289Y-32149490D03*
%TD*%
D32*
%TO.C,FB2*%
X97059974Y-53456571D03*
X97059974Y-52486571D03*
%TD*%
%TO.C,L8*%
X100795707Y-31851209D03*
X100795707Y-30881209D03*
%TD*%
D27*
%TO.C,R13*%
X95187660Y-59947523D03*
X95187660Y-58927523D03*
%TD*%
D25*
%TO.C,C30*%
X97514460Y-43690672D03*
X97514460Y-43050672D03*
%TD*%
D36*
%TO.C,C40*%
X98334962Y-34909117D03*
X98334962Y-35869117D03*
%TD*%
D38*
%TO.C,L3*%
X100025425Y-39427157D03*
X100995425Y-39427157D03*
%TD*%
D51*
%TO.C,C34*%
X91088777Y-39514107D03*
X91728777Y-39514107D03*
%TD*%
D23*
%TO.C,C10*%
X106380000Y-45500000D03*
X105420000Y-45500000D03*
%TD*%
D27*
%TO.C,R37*%
X103080000Y-61039998D03*
X103080000Y-60020000D03*
%TD*%
D28*
%TO.C,C20*%
X98720000Y-59750000D03*
X98720000Y-58790000D03*
%TD*%
D30*
%TO.C,C21*%
X102920000Y-64800000D03*
X103880000Y-64800000D03*
%TD*%
D57*
%TO.C,U8*%
X92837500Y-41275000D03*
X92837500Y-40775000D03*
X92837500Y-40275000D03*
X92837500Y-39775000D03*
X92837500Y-39275000D03*
X92837500Y-38775000D03*
X92837500Y-38275000D03*
X92837500Y-37775000D03*
D58*
X93525000Y-37087500D03*
X94025000Y-37087500D03*
X94525000Y-37087500D03*
X95025000Y-37087500D03*
X95525000Y-37087500D03*
X96025000Y-37087500D03*
X96525000Y-37087500D03*
X97025000Y-37087500D03*
D57*
X97712500Y-37775000D03*
X97712500Y-38275000D03*
X97712500Y-38775000D03*
X97712500Y-39275000D03*
X97712500Y-39775000D03*
X97712500Y-40275000D03*
X97712500Y-40775000D03*
X97712500Y-41275000D03*
D58*
X97025000Y-41962500D03*
X96525000Y-41962500D03*
X96025000Y-41962500D03*
X95525000Y-41962500D03*
X95025000Y-41962500D03*
X94525000Y-41962500D03*
X94025000Y-41962500D03*
X93525000Y-41962500D03*
D59*
X95275000Y-39525000D03*
%TD*%
D60*
%TO.C,Q1*%
X105680271Y-64200000D03*
D61*
X104755271Y-63225000D03*
D62*
X105720271Y-63225000D03*
D61*
X106605271Y-63225000D03*
%TD*%
D27*
%TO.C,R14*%
X90614999Y-59831009D03*
X90614999Y-58811009D03*
%TD*%
D26*
%TO.C,R48*%
X97946249Y-33012501D03*
X97946249Y-34032499D03*
%TD*%
%LPD*%
M02*
